<?xml version="1.0" encoding="UTF-8"?>
<svg width="185px" height="25px" viewBox="0 0 185 25" version="1.1" xmlns="http://www.w3.org/2000/svg" xmlns:xlink="http://www.w3.org/1999/xlink">
    <!-- Generator: Sketch 53 (72520) - https://sketchapp.com -->
    <title>Group 44</title>
    <desc>Created with Sketch.</desc>
    <g id="Page-1" stroke="none" stroke-width="1" fill="none" fill-rule="evenodd">
        <g id="Group-44" fill="#404348" fill-rule="nonzero">
            <g id="Tripsy">
                <path d="M13.3583984,4.24804688 L9.0419922,4.24804688 L7.23925781,19 L3.07519531,19 L4.890625,4.24804688 L0.58691406,4.24804688 L1.03125,0.52832031 L13.8027344,0.52832031 L13.3583984,4.24804688 Z M17.28125,8.03125 C18.296875,6.7109375 19.5029297,6.05078125 20.8994141,6.05078125 L20.3535156,10.3671875 C19.8710938,10.1809895 19.4140625,10.1429036 18.9824219,10.2529297 C18.5507812,10.3629558 18.1635742,10.5851238 17.8208008,10.9194336 C17.4780273,11.2537434 17.1860352,11.7150066 16.9448242,12.3032227 C16.7036133,12.8914387 16.5364583,13.5748699 16.4433594,14.3535156 L15.8720703,19 L11.9746094,19 L13.5361328,6.27929688 L17.4335938,6.27929688 L17.2177734,8.03125 L17.28125,8.03125 Z M25.1904297,0.13476562 C25.8759766,0.13476562 26.4366863,0.34423828 26.8725586,0.76318359 C27.3084309,1.18212891 27.5263672,1.71321608 27.5263672,2.35644531 C27.5263672,3.02506517 27.2999675,3.57942702 26.847168,4.01953125 C26.3943684,4.45963548 25.8125,4.6796875 25.1015625,4.6796875 C24.4160156,4.6796875 23.8553059,4.46598314 23.4194336,4.03857422 C22.9835613,3.6111653 22.765625,3.07584642 22.765625,2.43261719 C22.765625,1.76399733 22.9920247,1.21386719 23.4448242,0.78222656 C23.8976238,0.35058594 24.4794922,0.13476562 25.1904297,0.13476562 Z M22.6894531,6.27929688 L26.5869141,6.27929688 L25.0253906,19 L21.1279297,19 L22.6894531,6.27929688 Z M36.984375,6.03808594 C37.8391926,6.03808594 38.5776367,6.27294922 39.199707,6.74267578 C39.8217773,7.21240234 40.2809245,7.83447266 40.5771484,8.60888672 C40.8733723,9.3833008 41.0214844,10.265625 41.0214844,11.2558594 C41.0214844,12.3645833 40.862793,13.4140625 40.5454102,14.4042969 C40.2280273,15.3945312 39.8006184,16.2430012 39.2631836,16.949707 C38.7257488,17.6564128 38.0804036,18.2150066 37.3271484,18.6254883 C36.5738933,19.03597 35.7740886,19.2412109 34.9277344,19.2412109 C33.6920574,19.2412109 32.6975911,18.9407551 31.9443359,18.3398438 L31.8935547,18.3398438 L31.1826172,24.1416016 L27.2724609,24.1416016 L29.46875,6.27929688 L33.3789062,6.27929688 L33.125,8.27246094 L33.1757812,8.27246094 C34.1914062,6.78287767 35.4609375,6.03808594 36.984375,6.03808594 Z M34.0771484,15.7626953 C34.5595703,15.7626953 34.9975586,15.6357422 35.3911133,15.3818359 C35.784668,15.1279297 36.1020508,14.7957356 36.3432617,14.3852539 C36.5844727,13.9747722 36.7706706,13.5198567 36.9018555,13.0205078 C37.0330403,12.5211589 37.0986328,12.0133464 37.0986328,11.4970703 C37.0986328,10.930013 36.9716797,10.4581706 36.7177734,10.081543 C36.4638672,9.7049153 36.1210938,9.5166016 35.6894531,9.5166016 C34.9277344,9.5166016 34.2146809,9.9694011 33.550293,10.875 C32.885905,11.7805989 32.4479167,13.0120442 32.2363281,14.5693359 L32.1855469,14.9755859 C32.5748699,15.5003255 33.2054036,15.7626953 34.0771484,15.7626953 Z M43.7255859,14.7851562 C44.0979817,15.2337239 44.5507812,15.5976562 45.0839844,15.8769531 C45.6171875,16.15625 46.1292317,16.2958984 46.6201172,16.2958984 C46.9671223,16.2958984 47.2464192,16.2345378 47.4580078,16.1118164 C47.6695964,15.989095 47.7753906,15.8177083 47.7753906,15.5976562 C47.7753906,15.3945312 47.6695964,15.2189128 47.4580078,15.0708008 C47.2464192,14.9226887 46.8020833,14.679362 46.125,14.3408203 C45.9895833,14.2646484 45.8837891,14.2096355 45.8076172,14.1757812 C44.7666016,13.6510417 43.9879558,13.090332 43.4716797,12.4936523 C42.9554036,11.8969727 42.6972656,11.1627605 42.6972656,10.2910156 C42.6972656,9.4615886 42.9088542,8.72102858 43.3320312,8.06933594 C43.7552083,7.41764329 44.3243816,6.91617845 45.0395508,6.56494141 C45.75472,6.21370436 46.5439453,6.03808594 47.4072266,6.03808594 C48.2958984,6.03808594 49.1422527,6.21158861 49.9462891,6.55859375 C50.7503255,6.90559889 51.4316406,7.41341139 51.9902344,8.08203125 L49.6416016,10.3164062 C49.4215495,10.0117188 49.171875,9.7599284 48.8925781,9.5610352 C48.6132812,9.3621419 48.359375,9.2267253 48.1308594,9.1547852 C47.9023438,9.082845 47.6780598,9.0426433 47.4580078,9.0341797 C47.2802734,9.0257161 47.1152344,9.0532227 46.9628906,9.1166992 C46.8105469,9.1801758 46.6857097,9.2711589 46.5883789,9.3896484 C46.4910481,9.508138 46.4423828,9.6477864 46.4423828,9.8085938 C46.4423828,10.0117188 46.586263,10.2190755 46.8740234,10.4306641 C47.1617839,10.6422527 47.6145833,10.9003906 48.2324219,11.2050781 C48.6725261,11.4251301 49.0428059,11.6240234 49.3432617,11.8017578 C49.6437175,11.9794922 49.9441731,12.1889648 50.2446289,12.4301758 C50.5450847,12.6713867 50.7820637,12.9168294 50.9555664,13.1665039 C51.1290691,13.4161784 51.2708333,13.7039387 51.3808594,14.0297852 C51.4908855,14.3556316 51.5458984,14.7132161 51.5458984,15.1025391 C51.554362,16.3551433 51.1036784,17.358073 50.1938477,18.1113281 C49.2840169,18.8645833 48.0589192,19.2412109 46.5185547,19.2412109 C45.570638,19.2412109 44.6396484,19.0465495 43.7255859,18.6572266 C42.8115234,18.2679036 42.0836589,17.7347005 41.5419922,17.0576172 L43.7255859,14.7851562 Z M61.8925781,6.27929688 L65.7900391,6.27929688 L64.4316406,17.2734375 C63.8561199,22.0130208 61.4567058,24.3828125 57.2333984,24.3828125 C55.5152995,24.3828125 53.9876301,23.9723308 52.6503906,23.1513672 L53.8691406,20.2060547 C54.8255208,20.8577473 55.8834636,21.1835938 57.0429688,21.1835938 C57.4238281,21.1835938 57.7560222,21.1539714 58.0395508,21.0947266 C58.3230794,21.0354817 58.6066081,20.9191081 58.8901367,20.7456055 C59.1736653,20.5721028 59.4169922,20.3393555 59.6201172,20.0473633 C59.8232422,19.7553711 60.0073242,19.3660481 60.1723633,18.8793945 C60.3374023,18.3927409 60.4664714,17.8108723 60.5595703,17.1337891 L60.5087891,17.1337891 C59.5016277,18.538737 58.2278645,19.2412109 56.6875,19.2412109 C56.1966145,19.2412109 55.7649739,19.186198 55.3925781,19.0761719 C55.0201824,18.9661458 54.6858723,18.7884114 54.3896484,18.5429688 C54.0934245,18.2975261 53.8649089,17.9801433 53.7041016,17.5908203 C53.5432942,17.2014973 53.4332683,16.7233074 53.3740234,16.15625 C53.3147786,15.5891926 53.3359375,14.9332683 53.4375,14.1884766 L54.4023438,6.27929688 L58.2744141,6.27929688 L57.4619141,13.0205078 C57.3264973,14.0530598 57.3180339,14.7661133 57.4365234,15.159668 C57.555013,15.5532227 57.8385417,15.75 58.2871094,15.75 C58.6595051,15.75 59.0551758,15.5743816 59.4741211,15.2231445 C59.8930664,14.8719075 60.2612305,14.4127605 60.5786133,13.8457031 C60.8959961,13.2786458 61.0970051,12.703125 61.1816406,12.1191406 L61.8925781,6.27929688 Z"></path>
            </g>
            <path d="M77.724,9.48 L78.942,9.48 L82.61,18.916 L81.28,19.112 L80.286,16.452 L76.408,16.452 L75.456,19 L74.14,19 L77.724,9.48 Z M79.88,15.374 L78.312,11.286 L76.786,15.374 L79.88,15.374 Z M84.192,13.694 L83.814,12.63 C84.0566679,12.4619992 84.4229976,12.3196672 84.913,12.203 C85.4030025,12.0863327 85.8066651,12.028 86.124,12.028 C86.6373359,12.028 87.1039979,12.132999 87.524,12.343 C87.9440021,12.5530011 88.2729988,12.8399982 88.511,13.204 C88.7490012,13.5680018 88.868,13.9646645 88.868,14.394 L88.868,19 L87.93,19 L87.762,18.356 C87.5099987,18.5800011 87.2020018,18.7713325 86.838,18.93 C86.4739982,19.0886675 86.1193351,19.168 85.774,19.168 C84.9993295,19.168 84.4113353,18.9743353 84.01,18.587 C83.6086647,18.1996647 83.408,17.6840032 83.408,17.04 C83.408,16.37733 83.6343311,15.8616685 84.087,15.493 C84.5396689,15.1243315 85.1439962,14.94 85.9,14.94 L87.51,14.94 C87.51,14.3893306 87.4096677,13.9670015 87.209,13.673 C87.0083323,13.3789985 86.6560025,13.232 86.152,13.232 C85.5359969,13.232 84.8826701,13.3859985 84.192,13.694 Z M84.612,17.04 C84.612,17.3293348 84.709999,17.578999 84.906,17.789 C85.102001,17.999001 85.3819982,18.104 85.746,18.104 C86.0726683,18.104 86.3899985,18.0223342 86.698,17.859 C87.0060015,17.6956658 87.2813321,17.478668 87.524,17.208 L87.524,15.836 L85.872,15.836 C85.479998,15.836 85.1720011,15.9526655 84.948,16.186 C84.7239989,16.4193345 84.612,16.7039983 84.612,17.04 Z M91.836,14.212 L91.836,19 L90.492,19 L90.492,12.21 L91.43,12.21 L91.668,13.106 C92.0320018,12.7793317 92.4426644,12.5110011 92.9,12.301 C93.3573356,12.0909989 93.8099978,11.986 94.258,11.986 C94.995337,11.986 95.5436649,12.2146644 95.903,12.672 C96.2623351,13.1293356 96.442,13.7453295 96.442,14.52 L96.442,19 L95.098,19 L95.098,14.646 C95.098,14.1513309 95.0163342,13.7756679 94.853,13.519 C94.6896659,13.2623321 94.3980021,13.134 93.978,13.134 C93.6606651,13.134 93.3153352,13.2343323 92.942,13.435 C92.5686648,13.6356677 92.2000018,13.8946651 91.836,14.212 Z M101.132,19 L99.886,19 L97.366,12.434 L98.654,11.958 L100.53,17.11 L102.322,12.21 L103.708,12.21 L101.132,19 Z M106.032,14.506 L106.032,19 L104.688,19 L104.688,12.21 L105.444,12.21 L105.878,13.316 C106.195335,13.045332 106.570998,12.7933345 107.005,12.56 C107.439002,12.3266655 107.819332,12.21 108.146,12.21 L108.44,13.288 C108.085332,13.288 107.684002,13.4069988 107.236,13.645 C106.787998,13.8830012 106.386668,14.1699983 106.032,14.506 Z M110.022,13.694 L109.644,12.63 C109.886668,12.4619992 110.252998,12.3196672 110.743,12.203 C111.233002,12.0863327 111.636665,12.028 111.954,12.028 C112.467336,12.028 112.933998,12.132999 113.354,12.343 C113.774002,12.5530011 114.102999,12.8399982 114.341,13.204 C114.579001,13.5680018 114.698,13.9646645 114.698,14.394 L114.698,19 L113.76,19 L113.592,18.356 C113.339999,18.5800011 113.032002,18.7713325 112.668,18.93 C112.303998,19.0886675 111.949335,19.168 111.604,19.168 C110.829329,19.168 110.241335,18.9743353 109.84,18.587 C109.438665,18.1996647 109.238,17.6840032 109.238,17.04 C109.238,16.37733 109.464331,15.8616685 109.917,15.493 C110.369669,15.1243315 110.973996,14.94 111.73,14.94 L113.34,14.94 C113.34,14.3893306 113.239668,13.9670015 113.039,13.673 C112.838332,13.3789985 112.486003,13.232 111.982,13.232 C111.365997,13.232 110.71267,13.3859985 110.022,13.694 Z M110.442,17.04 C110.442,17.3293348 110.539999,17.578999 110.736,17.789 C110.932001,17.999001 111.211998,18.104 111.576,18.104 C111.902668,18.104 112.219998,18.0223342 112.528,17.859 C112.836002,17.6956658 113.111332,17.478668 113.354,17.208 L113.354,15.836 L111.702,15.836 C111.309998,15.836 111.002001,15.9526655 110.778,16.186 C110.553999,16.4193345 110.442,16.7039983 110.442,17.04 Z M116.924,13.694 L116.546,12.63 C116.788668,12.4619992 117.154998,12.3196672 117.645,12.203 C118.135002,12.0863327 118.538665,12.028 118.856,12.028 C119.369336,12.028 119.835998,12.132999 120.256,12.343 C120.676002,12.5530011 121.004999,12.8399982 121.243,13.204 C121.481001,13.5680018 121.6,13.9646645 121.6,14.394 L121.6,19 L120.662,19 L120.494,18.356 C120.241999,18.5800011 119.934002,18.7713325 119.57,18.93 C119.205998,19.0886675 118.851335,19.168 118.506,19.168 C117.731329,19.168 117.143335,18.9743353 116.742,18.587 C116.340665,18.1996647 116.14,17.6840032 116.14,17.04 C116.14,16.37733 116.366331,15.8616685 116.819,15.493 C117.271669,15.1243315 117.875996,14.94 118.632,14.94 L120.242,14.94 C120.242,14.3893306 120.141668,13.9670015 119.941,13.673 C119.740332,13.3789985 119.388003,13.232 118.884,13.232 C118.267997,13.232 117.61467,13.3859985 116.924,13.694 Z M117.344,17.04 C117.344,17.3293348 117.441999,17.578999 117.638,17.789 C117.834001,17.999001 118.113998,18.104 118.478,18.104 C118.804668,18.104 119.121998,18.0223342 119.43,17.859 C119.738002,17.6956658 120.013332,17.478668 120.256,17.208 L120.256,15.836 L118.604,15.836 C118.211998,15.836 117.904001,15.9526655 117.68,16.186 C117.455999,16.4193345 117.344,16.7039983 117.344,17.04 Z M129.02,12.21 L129.02,19.602 C129.02,20.1060025 128.891668,20.5563314 128.635,20.953 C128.378332,21.3496687 128.007336,21.6599989 127.522,21.884 C127.036664,22.1080011 126.453337,22.22 125.772,22.22 C125.445332,22.22 125.034669,22.1570006 124.54,22.031 C124.045331,21.9049994 123.653335,21.744001 123.364,21.548 L123.77,20.582 C124.236669,20.7873344 124.588999,20.9296663 124.827,21.009 C125.065001,21.0883337 125.365998,21.128 125.73,21.128 C126.30867,21.128 126.775332,20.9950013 127.13,20.729 C127.484668,20.4629987 127.662,20.0826691 127.662,19.588 L127.662,18.706 C127.409999,18.8553341 127.148668,18.9719996 126.878,19.056 C126.607332,19.1400004 126.374001,19.182 126.178,19.182 C125.48733,19.182 124.887669,19.0326682 124.379,18.734 C123.870331,18.4353318 123.480668,18.0130027 123.21,17.467 C122.939332,16.9209973 122.804,16.2840036 122.804,15.556 C122.804,14.8559965 122.943999,14.2400027 123.224,13.708 C123.504001,13.1759973 123.900664,12.7630015 124.414,12.469 C124.927336,12.1749985 125.519997,12.028 126.192,12.028 C126.434668,12.028 126.723998,12.0839994 127.06,12.196 C127.396002,12.3080006 127.703999,12.4713323 127.984,12.686 L128.25,12.21 L129.02,12.21 Z M126.178,18.034 C126.486002,18.034 126.756666,17.9873338 126.99,17.894 C127.223335,17.8006662 127.447332,17.656001 127.662,17.46 L127.662,13.708 C127.447332,13.5213324 127.221001,13.3860004 126.983,13.302 C126.744999,13.2179996 126.476668,13.176 126.178,13.176 C125.552664,13.176 125.062668,13.3976644 124.708,13.841 C124.353332,14.2843356 124.176,14.8513299 124.176,15.542 C124.176,16.2886704 124.350998,16.8906644 124.701,17.348 C125.051002,17.8053356 125.54333,18.034 126.178,18.034 Z M131.19,13.316 L130.168,13.316 L130.154,12.294 L131.19,12.294 L131.19,11.412 C131.19,10.7306633 131.381331,10.187002 131.764,9.781 C132.146669,9.37499797 132.673997,9.172 133.346,9.172 C133.542001,9.172 133.749666,9.20233303 133.969,9.263 C134.188334,9.32366697 134.358666,9.39599958 134.48,9.48 L134.144,10.516 C133.873332,10.4133328 133.649334,10.362 133.472,10.362 C133.154665,10.362 132.919001,10.4669989 132.765,10.677 C132.610999,10.887001 132.534,11.1739982 132.534,11.538 L132.534,12.294 L133.794,12.294 L134.228,13.316 L132.534,13.316 L132.534,19 L131.19,19 L131.19,13.316 Z M141.69,15.612 C141.69,16.3120035 141.550001,16.932664 141.27,17.474 C140.989999,18.015336 140.591003,18.4353318 140.073,18.734 C139.554997,19.0326682 138.95067,19.182 138.26,19.182 C137.578663,19.182 136.983669,19.0326682 136.475,18.734 C135.966331,18.4353318 135.576668,18.015336 135.306,17.474 C135.035332,16.932664 134.9,16.3073369 134.9,15.598 C134.9,14.8979965 135.039999,14.277336 135.32,13.736 C135.600001,13.194664 135.996664,12.7746682 136.51,12.476 C137.023336,12.1773318 137.62533,12.028 138.316,12.028 C138.997337,12.028 139.592331,12.1773318 140.101,12.476 C140.609669,12.7746682 141.001665,13.194664 141.277,13.736 C141.552335,14.277336 141.69,14.9026631 141.69,15.612 Z M138.274,18.034 C138.890003,18.034 139.382331,17.8053356 139.751,17.348 C140.119669,16.8906644 140.308667,16.3166701 140.318,15.626 C140.318,14.8979964 140.140668,14.3076689 139.786,13.855 C139.431332,13.4023311 138.941336,13.176 138.316,13.176 C137.699997,13.176 137.207669,13.4046644 136.839,13.862 C136.470331,14.3193356 136.281333,14.8933299 136.272,15.584 C136.272,16.3120036 136.449332,16.9023311 136.804,17.355 C137.158668,17.8076689 137.648664,18.034 138.274,18.034 Z M144.294,14.506 L144.294,19 L142.95,19 L142.95,12.21 L143.706,12.21 L144.14,13.316 C144.457335,13.045332 144.832998,12.7933345 145.267,12.56 C145.701002,12.3266655 146.081332,12.21 146.408,12.21 L146.702,13.288 C146.347332,13.288 145.946002,13.4069988 145.498,13.645 C145.049998,13.8830012 144.648668,14.1699983 144.294,14.506 Z M155.718,11.986 C156.427337,11.986 156.959332,12.2169977 157.314,12.679 C157.668668,13.1410023 157.846,13.7546628 157.846,14.52 L157.846,19 L156.502,19 L156.502,14.646 C156.502,14.1606642 156.420334,13.7873346 156.257,13.526 C156.093666,13.2646654 155.820669,13.134 155.438,13.134 C155.167332,13.134 154.859335,13.2249991 154.514,13.407 C154.168665,13.5890009 153.823335,13.8293318 153.478,14.128 C153.487333,14.2120004 153.492,14.3426658 153.492,14.52 L153.492,19 L152.148,19 L152.148,14.646 C152.148,14.1606642 152.066334,13.7873346 151.903,13.526 C151.739666,13.2646654 151.466669,13.134 151.084,13.134 C150.794665,13.134 150.470335,13.2343323 150.111,13.435 C149.751665,13.6356677 149.390002,13.8946651 149.026,14.212 L149.026,19 L147.682,19 L147.682,12.21 L148.62,12.21 L148.858,13.106 C149.212668,12.7793317 149.616331,12.5110011 150.069,12.301 C150.521669,12.0909989 150.953331,11.986 151.364,11.986 C151.812002,11.986 152.192332,12.083999 152.505,12.28 C152.817668,12.476001 153.053333,12.7513316 153.212,13.106 C153.566668,12.7793317 153.970331,12.5110011 154.423,12.301 C154.875669,12.0909989 155.307331,11.986 155.718,11.986 Z M164.02,16.998 L164.02,12.21 L165.364,12.21 L165.364,19 L164.426,19 L164.188,18.104 C163.823998,18.4306683 163.413336,18.698999 162.956,18.909 C162.498664,19.119001 162.046002,19.224 161.598,19.224 C160.860663,19.224 160.312335,18.9953356 159.953,18.538 C159.593665,18.0806644 159.414,17.4646705 159.414,16.69 L159.414,12.21 L160.758,12.21 L160.758,16.564 C160.758,17.0586691 160.839666,17.434332 161.003,17.691 C161.166334,17.9476679 161.457998,18.076 161.878,18.076 C162.195335,18.076 162.540665,17.9756677 162.914,17.775 C163.287335,17.5743323 163.655998,17.3153349 164.02,16.998 Z M168.528,19 L167.184,19 L167.184,9.27 L168.528,9.116 L168.528,19 Z M171.006,10.992 C170.772666,10.992 170.576667,10.9103342 170.418,10.747 C170.259333,10.5836658 170.18,10.3853345 170.18,10.152 C170.18,9.9186655 170.259333,9.72033415 170.418,9.557 C170.576667,9.39366585 170.772666,9.312 171.006,9.312 C171.239335,9.312 171.439999,9.39366585 171.608,9.557 C171.776001,9.72033415 171.86,9.9186655 171.86,10.152 C171.86,10.3853345 171.776001,10.5836658 171.608,10.747 C171.439999,10.9103342 171.239335,10.992 171.006,10.992 Z M171.706,19 L170.348,19 L170.348,12.21 L171.706,12.21 L171.706,19 Z M179.182,15.542 L179.182,15.906 L174.366,15.906 C174.422,16.56867 174.634331,17.0913314 175.003,17.474 C175.371669,17.8566686 175.919996,18.048 176.648,18.048 C177.002668,18.048 177.312999,18.0036671 177.579,17.915 C177.845001,17.8263329 178.215998,17.6700011 178.692,17.446 L179.112,18.426 C178.290663,18.9206691 177.469337,19.168 176.648,19.168 C175.462661,19.168 174.55267,18.8460032 173.918,18.202 C173.28333,17.5579968 172.966,16.6900055 172.966,15.598 C172.966,14.8979965 173.096665,14.277336 173.358,13.736 C173.619335,13.194664 173.994998,12.7746682 174.485,12.476 C174.975002,12.1773318 175.55133,12.028 176.214,12.028 C177.194005,12.028 177.933664,12.3569967 178.433,13.015 C178.932336,13.6730033 179.182,14.5153282 179.182,15.542 Z M174.394,14.996 L177.88,14.996 C177.702666,13.7826606 177.133338,13.176 176.172,13.176 C175.658664,13.176 175.250335,13.3369984 174.947,13.659 C174.643665,13.9810016 174.459334,14.4266638 174.394,14.996 Z M181.786,14.506 L181.786,19 L180.442,19 L180.442,12.21 L181.198,12.21 L181.632,13.316 C181.949335,13.045332 182.324998,12.7933345 182.759,12.56 C183.193002,12.3266655 183.573332,12.21 183.9,12.21 L184.194,13.288 C183.839332,13.288 183.438002,13.4069988 182.99,13.645 C182.541998,13.8830012 182.140668,14.1699983 181.786,14.506 Z" id="Aanvraagformulier"></path>
        </g>
    </g>
</svg>