<?xml version="1.0" encoding="UTF-8"?>
<svg width="512px" height="512px" viewBox="0 0 512 512" version="1.1" xmlns="http://www.w3.org/2000/svg" xmlns:xlink="http://www.w3.org/1999/xlink">
    <!-- Generator: Sketch 53 (72520) - https://sketchapp.com -->
    <title>bike (1)</title>
    <desc>Created with Sketch.</desc>
    <g id="Page-1" stroke="none" stroke-width="1" fill="none" fill-rule="evenodd">
        <g id="bike-(1)" fill="#404348" fill-rule="nonzero">
            <path d="M185.389,494.93 C183.53,493.07 180.95,492 178.319,492 C175.689,492 173.109,493.07 171.25,494.93 C169.39,496.79 168.319,499.37 168.319,502 C168.319,504.63 169.389,507.21 171.25,509.07 C173.109,510.93 175.689,512 178.319,512 C180.95,512 183.53,510.93 185.389,509.07 C187.249,507.21 188.319,504.63 188.319,502 C188.319,499.37 187.25,496.79 185.389,494.93 Z" id="Path"></path>
            <path d="M354.922,415.17 C349.4,415.17 344.922,419.647 344.922,425.17 C344.922,443.778 329.783,458.918 311.175,458.918 C305.653,458.918 301.175,463.395 301.175,468.918 C301.175,474.441 305.653,478.918 311.175,478.918 C340.811,478.918 364.922,454.807 364.922,425.17 C364.922,419.647 360.444,415.17 354.922,415.17 Z" id="Path"></path>
            <path d="M428,0 C381.683,0 344,37.682 344,84 L344,204 C344,246.932 376.382,282.422 418,287.384 L418,375 L382.007,375 C366.259,352.831 340.378,338.339 311.175,338.339 C303.529,338.339 296.111,339.337 289.042,341.201 L255.688,256 L296.355,256 C298.704,256 300.77,257.5 301.497,259.735 C302.238,262.014 301.334,263.751 300.729,264.583 C300.125,265.416 298.752,266.812 296.355,266.812 L286.133,266.812 C280.611,266.812 276.133,271.289 276.133,276.812 C276.133,282.335 280.611,286.812 286.133,286.812 L296.355,286.812 C304.583,286.812 312.075,282.994 316.911,276.337 C321.746,269.681 323.06,261.375 320.517,253.552 C317.104,243.054 307.395,236 296.354,236 L241.033,236 C237.727,236 234.637,237.633 232.773,240.363 C230.909,243.093 230.516,246.568 231.721,249.645 L250.502,297.619 L167.395,297.619 L159.869,280.404 L157.026,273.159 C155.524,269.33 151.831,266.812 147.717,266.812 L104.235,266.812 C95.829,266.812 87.982,270.958 83.247,277.904 C78.511,284.85 77.517,293.669 80.588,301.495 C84.432,311.289 93.714,317.619 104.235,317.619 L137.377,317.619 L121.292,345.479 C110.721,340.89 99.068,338.339 86.829,338.339 C38.952,338.34 0,377.292 0,425.17 C0,452.02 12.251,476.06 31.456,492 L10,492 C4.478,492 0,496.477 0,502 C0,507.523 4.478,512 10,512 L86.83,512 C131.326,512 168.106,478.355 173.081,435.17 L212.243,435.17 C215.617,435.17 218.764,433.468 220.611,430.645 C222.459,427.821 222.757,424.256 221.406,421.165 L176.139,317.62 L258.332,317.62 L270.427,348.515 C243.032,363.136 224.344,392.01 224.344,425.17 C224.344,452.02 236.595,476.06 255.8,492 L220.32,492 C214.798,492 210.32,496.477 210.32,502 C210.32,507.523 214.798,512 220.32,512 L311.174,512 C359.052,512 398.004,473.048 398.004,425.17 C398.004,414.566 396.09,404.402 392.595,395.001 L464.332,395.001 C469.854,395.001 474.332,390.524 474.332,385.001 C474.332,379.478 469.854,375.001 464.332,375.001 L438,375.001 L438,287.385 C479.618,282.423 512,246.933 512,204.001 L512,84 C512,37.682 474.317,0 428,0 Z M104.235,297.62 C101.997,297.62 100.023,296.273 99.205,294.19 C98.298,291.877 99.17,290.053 99.771,289.172 C100.372,288.291 101.75,286.813 104.235,286.813 L140.899,286.813 L145.14,297.62 L104.235,297.62 L104.235,297.62 Z M86.83,492 C49.979,492 20,462.02 20,425.17 C20,388.32 49.979,358.34 86.83,358.34 C95.428,358.34 103.643,359.99 111.2,362.961 L78.17,420.17 C76.384,423.264 76.384,427.076 78.17,430.17 C79.956,433.264 83.258,435.17 86.83,435.17 L119.065,435.17 C114.793,448.911 101.958,458.918 86.83,458.918 C81.308,458.918 76.83,463.395 76.83,468.918 C76.83,474.441 81.308,478.918 86.83,478.918 C113.049,478.918 134.929,460.043 139.631,435.17 L152.91,435.17 C148.069,467.293 120.282,492 86.83,492 Z M104.15,415.17 L128.507,372.984 C141.356,383.266 150.348,398.174 152.91,415.17 L104.15,415.17 Z M196.957,415.17 L173.081,415.17 C170.273,390.798 157.339,369.465 138.599,355.503 L156.965,323.692 L196.957,415.17 Z M311.175,492 C274.324,492 244.344,462.02 244.344,425.17 C244.344,400.477 257.817,378.885 277.787,367.315 L301.863,428.816 C303.407,432.761 307.181,435.173 311.177,435.173 C312.389,435.173 313.622,434.951 314.82,434.482 C319.963,432.468 322.5,426.668 320.486,421.524 L296.403,360.005 C301.159,358.927 306.098,358.339 311.175,358.339 C348.026,358.339 378.005,388.319 378.005,425.169 C378.005,462.019 348.025,492 311.175,492 Z M492,204 C492,235.888 468.556,262.398 438,267.214 L438,225.63 L464.647,197.181 C468.422,193.15 468.215,186.822 464.184,183.047 C460.155,179.272 453.826,179.479 450.049,183.509 L438,196.372 L438,164.2 L464.647,135.751 C468.422,131.72 468.215,125.392 464.184,121.616 C460.155,117.841 453.826,118.048 450.049,122.078 L438,134.943 L438,117.5 C438,111.977 433.522,107.5 428,107.5 C422.478,107.5 418,111.977 418,117.5 L418,162.528 L407.705,151.537 C403.929,147.506 397.601,147.3 393.57,151.075 C389.539,154.85 389.332,161.179 393.107,165.209 L418,191.785 L418,267.213 C387.444,262.397 364,235.887 364,203.999 L364,84 C364,48.71 392.71,20 428,20 C463.29,20 492,48.71 492,84 L492,204 Z" id="Shape"></path>
            <path d="M502,375 L501.869,375 C496.347,375 491.869,379.477 491.869,385 C491.869,390.523 496.347,395 501.869,395 L502,395 C507.522,395 512,390.523 512,385 C512,379.477 507.522,375 502,375 Z" id="Path"></path>
            <path d="M238.833,138.667 L222.241,138.667 C226.178,130.669 228.296,121.798 228.296,112.732 C228.296,80.347 201.949,54.001 169.565,54.001 C145.449,54.001 124.338,68.708 115.395,90.037 C109.659,87.278 103.319,85.797 96.833,85.797 C73.215,85.796 54,105.011 54,128.629 C54,138.178 57.083,147.219 62.914,154.776 C64.808,157.229 67.731,158.667 70.831,158.667 L238.833,158.667 C244.355,158.667 248.833,154.19 248.833,148.667 C248.833,143.144 244.355,138.667 238.833,138.667 Z M198.321,138.666 L76.318,138.666 C74.793,135.568 74,132.164 74,128.629 C74,116.039 84.243,105.796 96.833,105.796 C103.286,105.796 109.47,108.549 113.798,113.35 C116.419,116.257 120.493,117.368 124.227,116.192 C127.96,115.017 130.665,111.773 131.149,107.889 C133.553,88.569 150.068,74 169.564,74 C190.92,74 208.295,91.375 208.295,112.731 C208.295,122.321 204.698,131.585 198.321,138.666 Z" id="Shape"></path>
        </g>
    </g>
</svg>