<?xml version="1.0" encoding="UTF-8"?>
<svg width="512px" height="512px" viewBox="0 0 512 512" version="1.1" xmlns="http://www.w3.org/2000/svg" xmlns:xlink="http://www.w3.org/1999/xlink">
    <!-- Generator: Sketch 53 (72520) - https://sketchapp.com -->
    <title>goal (1)</title>
    <desc>Created with Sketch.</desc>
    <g id="Page-1" stroke="none" stroke-width="1" fill="none" fill-rule="evenodd">
        <g id="goal-(1)" fill="#404348" fill-rule="nonzero">
            <path d="M510.944,497.513 L410.605,296.834 C403.302,282.229 388.623,273.156 372.293,273.156 C355.963,273.156 341.284,282.229 333.981,296.834 L332.096,300.604 C315.752,273.454 286.096,255.991 253.139,255.991 L242.475,255.991 L205.586,164.657 C202.66,157.414 196.963,151.944 189.993,149.251 L189.993,88.013 L283.99,88.013 C288.006,88.013 291.632,85.611 293.198,81.913 C294.764,78.215 293.967,73.939 291.173,71.055 L264.98,44.014 L291.174,16.973 C293.968,14.089 294.766,9.813 293.199,6.115 C291.633,2.418 288.007,0.015 283.991,0.015 L179.995,0.015 C174.472,0.015 169.995,4.492 169.995,10.015 L169.995,149.251 C163.025,151.944 157.328,157.414 154.402,164.657 L85.856,334.375 C60.875,337.181 39.642,355.035 32.923,379.711 L0.351,499.358 C-0.467,502.365 0.163,505.581 2.054,508.057 C3.946,510.533 6.884,511.985 10,511.985 L502,511.985 C505.466,511.985 508.685,510.191 510.506,507.242 C512.328,504.293 512.494,500.613 510.944,497.513 Z M189.995,20.015 L260.384,20.015 L243.876,37.057 C240.12,40.935 240.12,47.094 243.876,50.972 L260.384,68.014 L189.995,68.014 L189.995,20.015 Z M336.541,491.986 L336.541,491.985 L315.443,409.895 C314.068,404.546 308.621,401.323 303.269,402.699 C297.92,404.074 294.698,409.524 296.073,414.873 L315.891,491.985 L23.086,491.987 L52.221,384.965 C57.186,366.726 73.855,353.989 92.758,353.989 C93.662,353.989 160.765,353.989 160.765,353.989 C166.288,353.989 170.765,349.512 170.765,343.989 C170.765,338.466 166.288,333.989 160.765,333.989 L107.581,333.989 L172.947,172.146 C174.729,167.734 178.792,167.392 179.995,167.392 C181.198,167.392 185.262,167.735 187.043,172.147 L220.907,255.992 L210.341,255.992 C204.818,255.992 200.341,260.469 200.341,265.992 C200.341,271.515 204.818,275.992 210.341,275.992 L253.139,275.992 C286.088,275.992 314.827,298.279 323.029,330.191 L364.613,491.987 L336.541,491.987 L336.541,491.986 Z M385.262,491.985 L342.4,325.211 C342.369,325.089 342.33,324.97 342.299,324.848 C342.406,324.665 342.517,324.485 342.613,324.293 L351.871,305.777 C355.823,297.873 363.458,293.154 372.294,293.154 C381.13,293.154 388.766,297.873 392.717,305.777 L485.82,491.985 L385.262,491.984 L385.262,491.985 Z" id="Shape"></path>
            <path d="M301.976,363.098 C300.116,361.238 297.546,360.178 294.906,360.178 C292.276,360.178 289.696,361.238 287.836,363.098 C285.976,364.968 284.906,367.548 284.906,370.178 C284.906,372.808 285.976,375.388 287.836,377.248 C289.696,379.108 292.276,380.178 294.906,380.178 C297.546,380.178 300.116,379.108 301.976,377.248 C303.836,375.388 304.906,372.808 304.906,370.178 C304.906,367.538 303.836,364.968 301.976,363.098 Z" id="Path"></path>
            <path d="M176.749,258.921 C174.889,257.061 172.309,255.991 169.679,255.991 C167.039,255.991 164.469,257.061 162.609,258.921 C160.739,260.781 159.679,263.361 159.679,265.991 C159.679,268.621 160.739,271.201 162.609,273.061 C164.469,274.921 167.039,275.991 169.679,275.991 C172.309,275.991 174.889,274.921 176.749,273.061 C178.609,271.201 179.679,268.621 179.679,265.991 C179.679,263.361 178.609,260.781 176.749,258.921 Z" id="Path"></path>
            <path d="M469.185,116.416 C468.178,116.416 467.175,116.451 466.178,116.52 C460.606,81.225 429.974,54.152 393.137,54.152 C373.717,54.152 355.37,61.623 341.478,75.188 C329.802,86.59 322.351,101.235 319.997,117.131 C300.11,120.816 285.003,138.292 285.003,159.23 C285.002,182.838 304.208,202.045 327.817,202.045 L469.185,202.045 C492.792,202.045 511.999,182.839 511.999,159.231 C511.999,135.623 492.792,116.416 469.185,116.416 Z M469.188,182.045 L327.817,182.045 C315.236,182.045 305.002,171.81 305.002,159.231 C305.002,146.652 315.238,136.416 327.817,136.416 C328.144,136.416 328.467,136.429 328.791,136.443 C331.465,136.552 334.082,135.588 336.041,133.757 C338,131.926 339.142,129.385 339.209,126.705 C339.954,97.237 363.642,74.152 393.139,74.152 C421.07,74.152 444.11,95.49 446.817,122.722 C443.964,124.472 441.317,126.553 438.913,128.956 C434.33,133.539 430.924,138.945 428.789,145.026 C426.96,150.237 429.701,155.944 434.913,157.774 C436.009,158.159 437.126,158.341 438.225,158.341 C442.352,158.341 446.216,155.765 447.661,151.65 C448.794,148.421 450.609,145.545 453.056,143.099 C455.181,140.974 457.647,139.317 460.386,138.173 C460.433,138.153 460.476,138.128 460.523,138.108 C460.606,138.078 460.69,138.059 460.773,138.026 C463.461,136.958 466.294,136.416 469.19,136.416 C481.771,136.416 492.004,146.651 492.004,159.231 C492.004,171.811 481.768,182.045 469.188,182.045 Z" id="Shape"></path>
        </g>
    </g>
</svg>