<?xml version="1.0" encoding="UTF-8"?>
<svg width="451px" height="451px" viewBox="0 0 451 451" version="1.1" xmlns="http://www.w3.org/2000/svg" xmlns:xlink="http://www.w3.org/1999/xlink">
    <!-- Generator: Sketch 53 (72520) - https://sketchapp.com -->
    <title>Group 17</title>
    <desc>Created with Sketch.</desc>
    <g id="Page-1" stroke="none" stroke-width="1" fill="none" fill-rule="evenodd">
        <g id="Group-17">
            <g id="Group-15" transform="translate(225.500000, 225.500000) scale(-1, 1) rotate(-90.000000) translate(-225.500000, -225.500000) " fill="#404348">
                <path d="M393.2565,360.664549 C389.158818,356.99815 383.031453,357.3754 379.303162,361.523186 C379.286461,361.541852 379.26976,361.560518 379.253059,361.579184 C375.557188,365.756441 375.881387,371.887736 379.992822,375.539398 C381.877107,377.212463 384.182852,378.03475 386.485648,378.03475 C389.210887,378.03475 391.933178,376.883352 393.944195,374.627711 C397.654803,370.465189 397.354182,364.33193 393.2565,360.664549 Z" id="Path" fill-rule="nonzero"></path>
                <path d="M225.482422,450.552077 C284.59994,450.552077 332.887726,426.64896 355.318983,409.068834 C356.77744,407.925793 360.204714,401.577356 356.278141,396.630031 C352.351568,391.682707 346.958458,391.682707 343.457424,393.677904 C339.456602,396.077228 292.737641,431.695092 225.482422,430.688485 C101.381611,430.688485 20.1857227,327.780789 20.1857227,226.651207 C16.5206712,145.372566 88.1746119,20.8063489 225.482422,20.8063489 C376.661785,20.8063489 434.146621,158.91052 431.027344,225.500319 C429.356702,284.931001 411.24599,310.856219 405.682156,323.786361 C402.280693,335.042479 415.192495,342.777655 423.435052,332.986442 C440.82053,301.014904 451,264.452728 451,225.5 C451,100.959789 350.040211,-3.41060513e-13 225.5,-3.41060513e-13 C100.959789,-3.41060513e-13 -5.68434189e-14,100.959789 -5.68434189e-14,225.5 C-5.68434189e-14,350.040211 100.942211,450.552077 225.482422,450.552077 Z" id="Oval"></path>
            </g>
            <g id="Group-18" transform="translate(136.000000, 136.000000)" stroke="#404348" stroke-linecap="round" stroke-width="20">
                <path d="M89,0 L91,180" id="Line-9"></path>
                <path d="M87.574464,0.994170048 L90.6855298,179.227014" id="Line-9" transform="translate(89.129997, 90.110592) rotate(91.000000) translate(-89.129997, -90.110592) "></path>
            </g>
        </g>
    </g>
</svg>