<?xml version="1.0" encoding="UTF-8"?>
<svg width="440px" height="512px" viewBox="0 0 440 512" version="1.1" xmlns="http://www.w3.org/2000/svg" xmlns:xlink="http://www.w3.org/1999/xlink">
    <!-- Generator: Sketch 53 (72520) - https://sketchapp.com -->
    <title>alpaca</title>
    <desc>Created with Sketch.</desc>
    <g id="Page-1" stroke="none" stroke-width="1" fill="none" fill-rule="evenodd">
        <g id="alpaca" fill="#404348" fill-rule="nonzero">
            <path d="M369.265625,84.160156 C369.265625,81.519531 368.199219,78.949219 366.335938,77.089844 C364.476562,75.230469 361.90625,74.160156 359.265625,74.160156 C356.636719,74.160156 354.058594,75.230469 352.199219,77.089844 C350.335938,78.949219 349.265625,81.519531 349.265625,84.160156 C349.265625,86.789062 350.335938,89.371094 352.199219,91.230469 C354.058594,93.089844 356.636719,94.160156 359.265625,94.160156 C361.898438,94.160156 364.476562,93.089844 366.335938,91.230469 C368.199219,89.371094 369.265625,86.789062 369.265625,84.160156 Z" id="Path"></path>
            <path d="M439.238281,95.597656 C438.257812,86.117188 433.941406,77.371094 427.125,70.695312 C428.21875,66.976562 428.78125,63.09375 428.78125,59.195312 C428.78125,37.042969 410.972656,18.96875 388.917969,18.542969 C381.96875,13.433594 373.566406,10.65625 364.851562,10.65625 C355.242188,10.65625 346.035156,14.082031 338.800781,20.113281 L315.832031,2.125 C313.46875,0.277344 310.394531,-0.414062 307.46875,0.246094 C305.21875,0.75 303.234375,2.015625 301.824219,3.792969 C287.726562,21.441406 285.78125,45.304688 296.394531,64.785156 C293.40625,72.644531 291.894531,80.914062 291.894531,89.441406 L291.894531,152.289062 C291.894531,158.53125 286.816406,163.613281 280.570312,163.613281 L118.929688,163.613281 C53.625,163.613281 0.5,216.742188 0.5,282.042969 C0.5,318.019531 10.929688,352.769531 30.695312,382.75 L30.695312,489.808594 C30.695312,502.042969 40.652344,512 52.886719,512 L79.929688,512 C86.460938,512 92.628906,509.144531 96.855469,504.164062 C101.078125,499.191406 102.890625,492.644531 101.828125,486.210938 C99.957031,474.859375 99.011719,463.269531 99.011719,451.765625 L99.011719,404.300781 L130.222656,369.621094 C134.542969,370.652344 139.03125,371.207031 143.625,371.207031 L230.457031,371.207031 C232.835938,379.058594 235.875,386.703125 239.5625,394.023438 L243.203125,401.253906 L243.203125,487.65625 C243.203125,501.078125 254.125,512 267.546875,512 L294.289062,512 C301.980469,512 309.050781,508.484375 313.691406,502.355469 C318.335938,496.230469 319.804688,488.472656 317.726562,481.070312 L315.292969,472.410156 L315.292969,380.085938 L315.316406,379.867188 C316.839844,366.554688 324.011719,354.09375 334.996094,345.671875 C365.894531,321.988281 383.609375,286.101562 383.609375,247.214844 C383.609375,241.695312 379.132812,237.214844 373.609375,237.214844 C368.089844,237.214844 363.609375,241.695312 363.609375,247.214844 C363.609375,279.828125 348.746094,309.929688 322.828125,329.800781 C307.5625,341.503906 297.582031,358.921875 295.445312,377.589844 L295.355469,378.375 C295.3125,378.753906 295.292969,379.132812 295.292969,379.515625 L295.292969,473.785156 C295.292969,474.699219 295.417969,475.609375 295.664062,476.492188 L298.472656,486.480469 C298.980469,488.289062 298.238281,489.636719 297.75,490.277344 C297.265625,490.921875 296.167969,492 294.289062,492 L267.546875,492 C265.152344,492 263.203125,490.050781 263.203125,487.65625 L263.203125,398.878906 C263.203125,397.316406 262.835938,395.777344 262.136719,394.382812 L257.425781,385.027344 C248.796875,367.890625 244.238281,348.691406 244.238281,329.5 C244.238281,323.980469 239.757812,319.5 234.238281,319.5 C228.714844,319.5 224.238281,323.980469 224.238281,329.5 C224.238281,336.765625 224.808594,344.027344 225.914062,351.207031 L143.628906,351.207031 C125.503906,351.207031 109.839844,338.296875 106.375,320.507812 L106.363281,320.507812 C105.289062,315.21875 100.191406,311.714844 94.84375,312.65625 C89.402344,313.613281 85.769531,318.800781 86.726562,324.238281 C86.734375,324.269531 86.742188,324.296875 86.75,324.328125 L86.746094,324.328125 C89.742188,339.726562 98.730469,352.722656 110.988281,361.097656 L81.582031,393.773438 C79.929688,395.609375 79.015625,397.992188 79.015625,400.460938 L79.015625,451.765625 C79.015625,464.351562 80.050781,477.035156 82.097656,489.460938 C82.234375,490.28125 81.90625,490.871094 81.609375,491.222656 C81.308594,491.578125 80.777344,491.996094 79.933594,491.996094 L52.890625,491.996094 C51.679688,491.996094 50.695312,491.015625 50.695312,489.804688 L50.695312,379.703125 C50.695312,377.691406 50.089844,375.722656 48.953125,374.058594 C30.339844,346.835938 20.5,315.019531 20.5,282.042969 C20.5,227.769531 64.65625,183.613281 118.929688,183.613281 L280.570312,183.613281 C297.84375,183.613281 311.898438,169.558594 311.898438,152.285156 L311.898438,89.441406 C311.898438,82.027344 313.496094,74.894531 316.648438,68.234375 C318.257812,64.835938 317.792969,60.925781 315.660156,58.03125 C308.941406,47.964844 307.898438,35.558594 312.378906,24.824219 L333.65625,41.492188 C335.808594,43.175781 338.558594,43.90625 341.269531,43.511719 C343.972656,43.117188 346.402344,41.628906 347.980469,39.398438 C351.859375,33.921875 358.167969,30.65625 364.851562,30.65625 C370.011719,30.65625 374.953125,32.570312 378.761719,36.042969 C380.820312,37.917969 383.5625,38.84375 386.34375,38.617188 C387.007812,38.5625 387.589844,38.535156 388.121094,38.535156 C399.515625,38.535156 408.78125,47.800781 408.78125,59.195312 C408.78125,62.683594 407.945312,65.992188 406.300781,69.027344 C403.832031,73.574219 405.238281,79.25 409.542969,82.117188 C409.5625,82.132812 409.617188,82.167969 409.636719,82.179688 C415.164062,85.808594 418.703125,91.453125 419.347656,97.664062 C419.753906,101.601562 419.191406,105.445312 417.804688,108.945312 C413.425781,108.070312 409.371094,105.828125 406.324219,102.546875 C402.566406,98.5 396.238281,98.265625 392.191406,102.023438 C388.144531,105.78125 387.910156,112.109375 391.667969,116.15625 C394.300781,118.992188 397.324219,121.425781 400.613281,123.410156 C398.835938,123.78125 396.980469,123.980469 395.074219,123.980469 L373.613281,123.980469 C370.960938,123.980469 368.417969,125.035156 366.542969,126.910156 C364.667969,128.785156 363.613281,131.328125 363.613281,133.980469 L363.613281,166.667969 C363.613281,172.191406 368.09375,176.667969 373.613281,176.667969 C379.136719,176.667969 383.613281,172.191406 383.613281,166.667969 L383.613281,143.980469 L395.074219,143.980469 C403.503906,143.980469 411.558594,141.789062 418.367188,137.632812 C432.785156,128.84375 440.976562,112.34375 439.238281,95.597656 L439.238281,95.597656 Z" id="Path"></path>
            <path d="M373.609375,196.667969 C370.976562,196.667969 368.398438,197.730469 366.539062,199.601562 C364.679688,201.460938 363.609375,204.039062 363.609375,206.667969 C363.609375,209.300781 364.675781,211.878906 366.539062,213.738281 C368.398438,215.597656 370.976562,216.667969 373.609375,216.667969 C376.246094,216.667969 378.816406,215.601562 380.675781,213.738281 C382.546875,211.871094 383.609375,209.300781 383.609375,206.667969 C383.609375,204.039062 382.546875,201.460938 380.675781,199.601562 C378.816406,197.730469 376.246094,196.667969 373.609375,196.667969 Z" id="Path"></path>
            <path d="M134.988281,203.667969 C129.464844,203.667969 124.988281,208.144531 124.988281,213.667969 C124.988281,219.1875 129.464844,223.667969 134.988281,223.667969 L204.238281,223.667969 C209.757812,223.667969 214.238281,219.1875 214.238281,213.667969 C214.238281,208.144531 209.757812,203.667969 204.238281,203.667969 L134.988281,203.667969 Z" id="Path"></path>
            <path d="M237.167969,206.597656 C235.308594,208.457031 234.238281,211.03125 234.238281,213.667969 C234.238281,216.296875 235.308594,218.878906 237.167969,220.738281 C239.027344,222.597656 241.597656,223.667969 244.238281,223.667969 C246.867188,223.667969 249.449219,222.597656 251.308594,220.738281 C253.167969,218.867188 254.238281,216.296875 254.238281,213.667969 C254.238281,211.027344 253.167969,208.457031 251.308594,206.597656 C249.449219,204.730469 246.867188,203.667969 244.238281,203.667969 C241.597656,203.667969 239.027344,204.730469 237.167969,206.597656 Z" id="Path"></path>
        </g>
    </g>
</svg>