<?xml version="1.0" encoding="UTF-8"?>
<svg width="512px" height="512px" viewBox="0 0 512 512" version="1.1" xmlns="http://www.w3.org/2000/svg" xmlns:xlink="http://www.w3.org/1999/xlink">
    <!-- Generator: Sketch 53 (72520) - https://sketchapp.com -->
    <title>rainforest</title>
    <desc>Created with Sketch.</desc>
    <g id="Page-1" stroke="none" stroke-width="1" fill="none" fill-rule="evenodd">
        <g id="rainforest" fill="#404348" fill-rule="nonzero">
            <path d="M504.5,227 L450.786,227 L450.786,173.449 C463.711,176.788 473.286,188.547 473.286,202.5 C473.286,206.643 476.644,210 480.786,210 C484.928,210 488.286,206.643 488.286,202.5 C488.286,184.893 478.117,169.626 463.349,162.237 C473.01,160.124 483.519,162.807 491.016,170.304 C493.945,173.233 498.694,173.232 501.622,170.303 C504.551,167.374 504.551,162.626 501.622,159.697 C489.174,147.249 471.189,143.636 455.523,148.851 C460.861,140.53 470.187,135 480.786,135 C484.928,135 488.286,131.643 488.286,127.5 C488.286,123.357 484.928,120 480.786,120 C465.152,120 451.355,128.014 443.286,140.149 C435.217,128.014 421.42,120 405.786,120 C401.644,120 398.286,123.357 398.286,127.5 C398.286,131.643 401.644,135 405.786,135 C416.385,135 425.71,140.53 431.048,148.85 C415.382,143.635 397.398,147.249 384.95,159.696 C382.021,162.626 382.021,167.374 384.95,170.302 C387.878,173.231 392.627,173.232 395.556,170.303 C403.053,162.806 413.562,160.123 423.223,162.236 C408.455,169.625 398.286,184.892 398.286,202.499 C398.286,206.642 401.644,209.999 405.786,209.999 C409.928,209.999 413.286,206.642 413.286,202.499 C413.286,188.546 422.861,176.787 435.786,173.448 L435.786,227 L357.143,227 L357.143,60.755 C374.239,64.239 387.143,79.39 387.143,97.5 C387.143,101.643 390.501,105 394.643,105 C398.785,105 402.143,101.643 402.143,97.5 C402.143,75.499 388.533,56.628 369.296,48.831 C373.162,47.507 377.259,46.81 381.463,46.81 C391.473,46.81 400.89,50.714 407.98,57.804 C410.909,60.732 415.658,60.732 418.586,57.804 C421.515,54.874 421.515,50.126 418.586,47.197 C408.663,37.274 395.479,31.81 381.463,31.81 C374.321,31.81 367.398,33.235 361.01,35.939 C367.137,23.546 379.908,15 394.643,15 C398.785,15 402.143,11.643 402.143,7.5 C402.143,3.357 398.785,0 394.643,0 C375.569,0 358.838,10.226 349.643,25.481 C340.448,10.226 323.717,0 304.643,0 C300.501,0 297.143,3.357 297.143,7.5 C297.143,11.643 300.501,15 304.643,15 C319.378,15 332.149,23.546 338.276,35.938 C331.888,33.234 324.965,31.809 317.823,31.809 C303.807,31.809 290.623,37.273 280.7,47.196 C277.771,50.126 277.771,54.874 280.7,57.803 C283.629,60.731 288.378,60.731 291.306,57.803 C298.396,50.713 307.813,46.809 317.823,46.809 C322.027,46.809 326.123,47.506 329.99,48.83 C310.753,56.627 297.143,75.498 297.143,97.499 C297.143,101.642 300.501,104.999 304.643,104.999 C308.785,104.999 312.143,101.642 312.143,97.499 C312.143,79.389 325.047,64.238 342.143,60.754 L342.143,227.204 C325.557,228.907 312.137,241.459 309.13,257.631 C294.162,260.414 282.297,272.121 279.263,287 L263.5,287 L263.5,173.449 C276.425,176.788 286,188.547 286,202.5 C286,206.643 289.358,210 293.5,210 C297.642,210 301,206.643 301,202.5 C301,184.893 290.831,169.625 276.062,162.237 C285.723,160.124 296.232,162.807 303.729,170.304 C306.658,173.232 311.407,173.232 314.335,170.304 C317.264,167.374 317.264,162.626 314.335,159.697 C301.888,147.25 283.903,143.636 268.237,148.851 C273.576,140.53 282.901,135 293.5,135 C297.642,135 301,131.643 301,127.5 C301,123.357 297.642,120 293.5,120 C277.866,120 264.069,128.014 256,140.149 C247.931,128.014 234.134,120 218.5,120 C214.358,120 211,123.357 211,127.5 C211,131.643 214.358,135 218.5,135 C229.099,135 238.424,140.53 243.762,148.85 C228.096,143.635 210.111,147.248 197.663,159.696 C194.734,162.626 194.734,167.374 197.663,170.302 C200.591,173.231 205.34,173.232 208.269,170.303 C215.766,162.806 226.276,160.122 235.937,162.236 C221.17,169.625 211,184.893 211,202.5 C211,206.643 214.358,210 218.5,210 C222.642,210 226,206.643 226,202.5 C226,188.547 235.575,176.788 248.5,173.449 L248.5,287 L232.737,287 C229.703,272.12 217.838,260.414 202.87,257.631 C199.864,241.46 186.444,228.908 169.857,227.204 L169.857,60.755 C186.953,64.239 199.857,79.39 199.857,97.5 C199.857,101.643 203.215,105 207.357,105 C211.499,105 214.857,101.643 214.857,97.5 C214.857,75.499 201.247,56.628 182.01,48.831 C185.876,47.507 189.973,46.81 194.177,46.81 C204.187,46.81 213.604,50.714 220.694,57.804 C223.623,60.732 228.372,60.732 231.3,57.804 C234.229,54.874 234.229,50.126 231.3,47.197 C221.377,37.274 208.193,31.81 194.177,31.81 C187.035,31.81 180.112,33.235 173.724,35.939 C179.851,23.546 192.622,15 207.357,15 C211.499,15 214.857,11.643 214.857,7.5 C214.857,3.357 211.499,-2.84217094e-14 207.357,-2.84217094e-14 C188.283,-2.84217094e-14 171.552,10.226 162.357,25.481 C153.162,10.226 136.431,-2.84217094e-14 117.357,-2.84217094e-14 C113.215,-2.84217094e-14 109.857,3.357 109.857,7.5 C109.857,11.643 113.215,15 117.357,15 C132.092,15 144.863,23.546 150.99,35.938 C144.602,33.234 137.679,31.809 130.537,31.809 C116.521,31.809 103.337,37.273 93.414,47.196 C90.485,50.126 90.485,54.874 93.414,57.803 C96.343,60.731 101.092,60.731 104.02,57.803 C111.11,50.713 120.527,46.809 130.537,46.809 C134.741,46.809 138.837,47.506 142.704,48.83 C123.467,56.627 109.857,75.498 109.857,97.499 C109.857,101.642 113.215,104.999 117.357,104.999 C121.499,104.999 124.857,101.642 124.857,97.499 C124.857,79.389 137.761,64.238 154.857,60.754 L154.857,227 L76.214,227 L76.214,173.449 C89.139,176.788 98.714,188.547 98.714,202.5 C98.714,206.643 102.072,210 106.214,210 C110.356,210 113.714,206.643 113.714,202.5 C113.714,184.893 103.545,169.626 88.777,162.237 C98.438,160.124 108.947,162.807 116.444,170.304 C119.373,173.233 124.122,173.232 127.05,170.303 C129.979,167.374 129.979,162.626 127.05,159.697 C114.601,147.25 96.617,143.636 80.951,148.851 C86.29,140.53 95.615,135 106.214,135 C110.356,135 113.714,131.643 113.714,127.5 C113.714,123.357 110.356,120 106.214,120 C90.58,120 76.783,128.014 68.714,140.149 C60.646,128.014 46.848,120 31.214,120 C27.072,120 23.714,123.357 23.714,127.5 C23.714,131.643 27.072,135 31.214,135 C41.813,135 51.138,140.53 56.476,148.85 C40.811,143.636 22.826,147.249 10.378,159.696 C7.449,162.626 7.449,167.374 10.378,170.302 C13.306,173.231 18.055,173.232 20.984,170.303 C28.481,162.806 38.99,160.123 48.651,162.236 C33.883,169.625 23.714,184.892 23.714,202.499 C23.714,206.642 27.072,209.999 31.214,209.999 C35.356,209.999 38.714,206.642 38.714,202.499 C38.714,188.546 48.289,176.787 61.214,173.448 L61.214,227 L7.5,227 C3.358,227 -1.13686838e-13,230.357 -1.13686838e-13,234.5 L-1.13686838e-13,504.5 C-1.13686838e-13,508.643 3.358,512 7.5,512 L504.5,512 C508.642,512 512,508.643 512,504.5 L512,234.5 C512,230.357 508.642,227 504.5,227 L504.5,227 Z M15,345.312 C23.244,343.814 31.013,340.222 37.496,334.895 C46.233,342.09 57.257,346.106 68.714,346.106 C80.169,346.106 91.192,342.091 99.928,334.898 C108.664,342.091 119.687,346.106 131.142,346.106 C142.597,346.106 153.62,342.091 162.356,334.898 C171.092,342.091 182.115,346.106 193.57,346.106 C205.025,346.106 216.048,342.091 224.784,334.898 C233.52,342.091 244.543,346.106 255.998,346.106 C267.453,346.106 278.476,342.091 287.212,334.898 C295.948,342.091 306.971,346.106 318.426,346.106 C329.881,346.106 340.904,342.091 349.64,334.898 C358.376,342.091 369.398,346.106 380.854,346.106 C392.31,346.106 403.333,342.091 412.068,334.898 C420.804,342.091 431.827,346.106 443.282,346.106 C454.739,346.106 465.763,342.09 474.5,334.895 C480.983,340.223 488.752,343.815 496.996,345.312 L496.996,407 L286,407 C265.322,407 248.5,423.822 248.5,444.5 C248.5,456.906 238.407,467 226,467 L15,467 L15,345.312 Z M316,272 C320.142,272 323.5,268.643 323.5,264.5 C323.5,252.094 333.593,242 346,242 L497,242 L497,287 L294.79,287 C297.886,278.271 306.223,272 316,272 L316,272 Z M166,242 C178.407,242 188.5,252.094 188.5,264.5 C188.5,268.643 191.858,272 196,272 C205.777,272 214.114,278.271 217.21,287 L67.5,287 C63.358,287 60,290.357 60,294.5 C60,298.643 63.358,302 67.5,302 L497,302 L497,329.955 C490.534,328.235 484.621,324.635 480.125,319.538 C478.701,317.925 476.653,317 474.5,317 C472.347,317 470.299,317.925 468.875,319.538 C462.391,326.89 453.063,331.105 443.285,331.105 C433.507,331.105 424.18,326.889 417.695,319.538 C416.271,317.925 414.223,317 412.07,317 C409.917,317 407.869,317.925 406.445,319.539 C399.961,326.89 390.634,331.105 380.855,331.105 C371.077,331.105 361.75,326.889 355.266,319.539 C353.842,317.925 351.794,317 349.641,317 C347.488,317 345.44,317.925 344.016,319.538 C337.532,326.89 328.204,331.105 318.426,331.105 C308.647,331.105 299.32,326.889 292.836,319.539 C291.412,317.925 289.364,317 287.211,317 C285.058,317 283.01,317.925 281.586,319.538 C275.102,326.89 265.774,331.105 255.996,331.105 C246.218,331.105 236.891,326.889 230.406,319.538 C228.982,317.925 226.934,317 224.781,317 C222.628,317 220.58,317.925 219.156,319.538 C212.672,326.89 203.344,331.105 193.566,331.105 C183.788,331.105 174.461,326.889 167.976,319.538 C166.552,317.925 164.504,317 162.351,317 C160.198,317 158.15,317.925 156.726,319.539 C150.242,326.89 140.915,331.105 131.137,331.105 C121.358,331.105 112.031,326.889 105.547,319.539 C104.123,317.925 102.075,317 99.922,317 C97.769,317 95.721,317.925 94.297,319.538 C87.813,326.89 78.485,331.105 68.707,331.105 C58.928,331.105 49.601,326.889 43.117,319.539 C41.701,317.925 39.652,317 37.5,317 C35.348,317 33.299,317.925 31.875,319.538 C27.379,324.635 21.465,328.235 15,329.955 L15,302 L37.5,302 C41.642,302 45,298.643 45,294.5 C45,290.357 41.642,287 37.5,287 L15,287 L15,242 L166,242 Z M15,497 L15,482 L226,482 C246.678,482 263.5,465.178 263.5,444.5 C263.5,432.094 273.593,422 286,422 L497,422 L497,497 L15,497 Z" id="Shape"></path>
            <path d="M474.5,437 C470.358,437 467,440.357 467,444.5 L467,459.5 C467,463.643 470.358,467 474.5,467 C478.642,467 482,463.643 482,459.5 L482,444.5 C482,440.357 478.642,437 474.5,437 Z" id="Path"></path>
            <path d="M444.5,452 C440.358,452 437,455.357 437,459.5 L437,474.5 C437,478.643 440.358,482 444.5,482 C448.642,482 452,478.643 452,474.5 L452,459.5 C452,455.357 448.642,452 444.5,452 Z" id="Path"></path>
            <path d="M316,452.326 C311.858,452.326 308.5,455.683 308.5,459.826 L308.5,474.826 C308.5,478.969 311.858,482.326 316,482.326 C320.142,482.326 323.5,478.969 323.5,474.826 L323.5,459.826 C323.5,455.684 320.142,452.326 316,452.326 Z" id="Path"></path>
        </g>
    </g>
</svg>