<?xml version="1.0" encoding="UTF-8"?>
<svg width="142px" height="157px" viewBox="0 0 142 157" version="1.1" xmlns="http://www.w3.org/2000/svg" xmlns:xlink="http://www.w3.org/1999/xlink">
    <!-- Generator: Sketch 53 (72520) - https://sketchapp.com -->
    <title>Group</title>
    <desc>Created with Sketch.</desc>
    <g id="Page-1" stroke="none" stroke-width="1" fill="none" fill-rule="evenodd">
        <g id="Group" transform="translate(-48.000000, -39.000000)">
            <rect id="Rectangle" x="0" y="0" width="235" height="235"></rect>
            <g id="tourist-(1)" transform="translate(48.000000, 39.000000)" fill="#404348" fill-rule="nonzero">
                <path d="M57.8761207,57.5666667 C59.3220116,57.5666667 60.4943026,56.3950542 60.4943026,54.95 L60.4943026,52.3333333 C60.4943026,50.8882792 59.3220116,49.7166667 57.8761207,49.7166667 C56.4302298,49.7166667 55.2579389,50.8882792 55.2579389,52.3333333 L55.2579389,54.95 C55.2579389,56.3950542 56.4302298,57.5666667 57.8761207,57.5666667 Z" id="Path"></path>
                <path d="M84.0579389,57.5666667 C85.5038298,57.5666667 86.6761207,56.3950542 86.6761207,54.95 L86.6761207,52.3333333 C86.6761207,50.8882792 85.5038298,49.7166667 84.0579389,49.7166667 C82.612048,49.7166667 81.4397571,50.8882792 81.4397571,52.3333333 L81.4397571,54.95 C81.4397571,56.3950542 82.612048,57.5666667 84.0579389,57.5666667 Z" id="Path"></path>
                <path d="M64.2759389,64.99015 C64.367248,65.0509875 64.4621571,65.1062646 64.5603389,65.155 L69.7967026,67.7716667 C71.0907389,68.4176562 72.6639389,67.8926875 73.3103026,66.5994 C73.9566662,65.3061125 73.4313935,63.7338229 72.1373571,63.0878333 L69.5532116,61.7978167 L73.1453571,56.4153333 C73.9478298,55.212975 73.6231753,53.588025 72.4201207,52.7860167 C71.2170662,51.9840083 69.5911753,52.308475 68.7887026,53.5108333 L63.5523389,61.3608333 C62.7495389,62.5625375 63.0732116,64.1874875 64.2759389,64.99015 Z" id="Path"></path>
                <path d="M59.4287026,73.2928333 C65.0892116,79.6624542 74.8445571,80.2397563 81.2178662,74.5821958 C81.6731026,74.1782479 82.1037935,73.7474792 82.5079753,73.2928333 L83.2934298,72.5078333 L79.5834662,68.8183333 L78.7980116,69.6033333 C75.0536844,73.92345 68.5141207,74.3924875 64.1915026,70.6503271 C63.8177571,70.3268417 63.4675753,69.9768625 63.1439026,69.6033333 L62.358448,68.8183333 L58.6458662,72.5078333 L59.4287026,73.2928333 Z" id="Path"></path>
                <path d="M128.56703,104.0753 L128.56703,102.05 C128.548375,86.1612729 115.664957,73.2853104 99.7670298,73.2666667 L99.5052116,73.2666667 C101.028993,69.9654146 101.962703,66.4231021 102.264775,62.8 L102.385212,62.8 C108.169103,62.8 112.857939,58.1138771 112.857939,52.3333333 C112.857939,46.5527896 108.169103,41.8666667 102.385212,41.8666667 L102.385212,26.1666667 L102.230739,20.9333333 C100.886303,9.02292083 90.8144844,0.0163541667 78.8215753,0 L63.1124844,0 C51.1195753,0.0163541667 41.0477571,9.02292083 39.7033207,20.9333333 L39.548848,20.9333333 L39.548848,41.8666667 C33.7649571,41.8666667 29.0761207,46.5527896 29.0761207,52.3333333 C29.0761207,58.1138771 33.7649571,62.8 39.548848,62.8 L39.6823753,62.8 C39.984448,66.4231021 40.9181571,69.9654146 42.4419389,73.2666667 L42.1670298,73.2666667 C26.2691026,73.2853104 13.3856844,86.1612729 13.3670298,102.05 L13.3670298,104.0753 C5.11222983,110.503142 0.28266619,120.374844 0.276120736,130.833333 L0.276120736,157 L141.657939,157 L141.657939,130.833333 C141.651393,120.374844 136.82183,110.503142 128.56703,104.0753 Z M102.385212,47.1 C105.277321,47.1 107.621575,49.4428979 107.621575,52.3333333 C107.621575,55.2237687 105.277321,57.5666667 102.385212,57.5666667 L102.385212,47.1 Z M39.548848,57.5666667 C36.6567389,57.5666667 34.3124844,55.2237687 34.3124844,52.3333333 C34.3124844,49.4428979 36.6567389,47.1 39.548848,47.1 L39.548848,57.5666667 Z M99.7670298,78.5 C112.22663,78.5153729 122.520666,88.222225 123.259975,100.6527 C118.432375,98.1335042 113.067393,96.8176479 107.621575,96.8166667 L84.0579389,96.8166667 L84.0579389,88.705 C88.9935389,86.424575 93.2562662,82.9097375 96.4340844,78.5 L99.7670298,78.5 Z M63.1124844,5.23333333 L78.8215753,5.23333333 C87.9282662,5.24478125 95.6496116,11.9270938 96.9629571,20.9333333 L44.9711026,20.9333333 C46.284448,11.9270938 54.0057935,5.24478125 63.1124844,5.23333333 Z M44.7852116,41.8666667 L44.7852116,26.1666667 L97.148848,26.1666667 L97.148848,30.3167 L93.7687753,33.6922 C87.8258298,39.6402104 78.5928116,40.776825 71.3833207,36.44755 L59.2244844,29.1575167 C57.9851026,28.4134021 56.3765571,28.8140792 55.6316844,30.0530708 C55.3872116,30.4596354 55.2579389,30.9254021 55.2579389,31.4 L55.2579389,34.3228167 C55.259248,37.7022417 53.0959753,40.7035583 49.888048,41.7724667 L44.7852116,43.4680667 L44.7852116,41.8666667 Z M44.7852116,48.984 L51.5453571,46.7336667 C56.3245207,45.1456771 59.7657935,40.9550854 60.3921935,35.96085 L68.6865935,40.9325167 C77.816848,46.4124708 89.4919753,45.0782979 97.148848,37.68 L97.148848,60.1833333 C97.148848,74.6348563 85.4269207,86.35 70.9670298,86.35 C56.5071389,86.35 44.7852116,74.6348563 44.7852116,60.1833333 L44.7852116,48.984 Z M78.8215753,90.5366667 L78.8215753,102.05 C78.8215753,106.38549 75.3050298,109.9 70.9670298,109.9 C66.6290298,109.9 63.1124844,106.38549 63.1124844,102.05 L63.1124844,90.5366667 C68.2581935,91.9146688 73.6758662,91.9146688 78.8215753,90.5366667 Z M42.1670298,78.5 L45.4999753,78.5 C48.6777935,82.9097375 52.9405207,86.424575 57.8761207,88.705 L57.8761207,96.8166667 L34.3124844,96.8166667 C28.8666662,96.8176479 23.5016844,98.1335042 18.6740844,100.6527 C19.4133935,88.222225 29.7074298,78.5153729 42.1670298,78.5 Z M47.4033935,102.05 L47.4033935,120.366667 C47.3965207,122.835819 46.234048,125.159746 44.2615753,126.646667 L31.6943026,136.066667 L31.6943026,129.525 L36.9306662,125.6 C40.2191026,123.122344 42.1568844,119.249023 42.1670298,115.133333 L42.1670298,102.05 L47.4033935,102.05 Z M26.4579389,151.766667 L5.51248437,151.766667 L5.51248437,146.533333 L26.4579389,146.533333 L26.4579389,151.766667 Z M26.4579389,128.216667 L26.4579389,141.3 L5.51248437,141.3 L5.51248437,130.833333 C5.53113892,114.944606 18.4145571,102.068644 34.3124844,102.05 L36.9306662,102.05 L36.9306662,115.133333 C36.9237935,117.602485 35.7613207,119.926413 33.788848,121.413333 L27.5052116,126.123333 C26.8460844,126.617556 26.4579389,127.393071 26.4579389,128.216667 Z M110.239757,146.533333 L110.239757,151.766667 L31.6943026,151.766667 L31.6943026,142.608333 L47.4033935,130.833333 C50.6918298,128.355677 52.6296116,124.482356 52.6397571,120.366667 L52.6397571,102.05 L57.8761207,102.05 C57.8761207,109.275598 63.737248,115.133333 70.9670298,115.133333 C78.1968116,115.133333 84.0579389,109.275598 84.0579389,102.05 L89.2943026,102.05 L89.2943026,120.366667 C89.304448,124.482356 91.2422298,128.355677 94.5306662,130.833333 L110.239757,142.608333 L110.239757,146.533333 Z M110.239757,136.066667 L97.6724844,126.646667 C95.7000116,125.159419 94.5375389,122.835819 94.5306662,120.366667 L94.5306662,102.05 L99.7670298,102.05 L99.7670298,115.133333 C99.7771753,119.249023 101.714957,123.122344 105.003393,125.6 L110.239757,129.525 L110.239757,136.066667 Z M136.421575,151.766667 L115.476121,151.766667 L115.476121,146.533333 L136.421575,146.533333 L136.421575,151.766667 Z M136.421575,141.3 L115.476121,141.3 L115.476121,128.216667 C115.476121,127.393071 115.087975,126.617556 114.428848,126.123333 L108.145212,121.413333 C106.172739,119.926085 105.010266,117.602485 105.003393,115.133333 L105.003393,102.05 L107.621575,102.05 C123.519503,102.068644 136.402921,114.944606 136.421575,130.833333 L136.421575,141.3 Z" id="Shape"></path>
            </g>
        </g>
    </g>
</svg>