<?xml version="1.0" encoding="UTF-8"?>
<svg width="545px" height="545px" viewBox="0 0 545 545" version="1.1" xmlns="http://www.w3.org/2000/svg" xmlns:xlink="http://www.w3.org/1999/xlink">
    <!-- Generator: Sketch 53 (72520) - https://sketchapp.com -->
    <title>meditation</title>
    <desc>Created with Sketch.</desc>
    <g id="Page-1" stroke="none" stroke-width="1" fill="none" fill-rule="evenodd">
        <g id="meditation" fill="#404348" fill-rule="nonzero">
            <path d="M110.532646,523.710938 C107.734299,523.710938 104.985847,524.850234 103.00663,526.829453 C101.027412,528.80867 99.8881152,531.557122 99.8881152,534.355469 C99.8881152,537.153816 101.027412,539.902268 103.00663,541.881484 C104.985847,543.860703 107.734299,545 110.532646,545 C113.330994,545 116.079445,543.860703 118.058662,541.881484 C120.03788,539.902268 121.177178,537.153816 121.177178,534.355469 C121.177178,531.557122 120.03788,528.80867 118.058662,526.829453 C116.079445,524.850234 113.330994,523.710938 110.532646,523.710938 Z" id="Path"></path>
            <path d="M474.750252,393.290481 C472.937355,389.714585 469.265823,387.460938 465.257493,387.460938 L445.215835,387.460938 C448.508987,383.440132 450.858269,378.683357 452.039147,373.460884 C454.055786,364.575195 452.479896,355.444183 447.602539,347.747688 L407.65644,284.707947 L382.824745,210.861511 C372.758179,180.936241 346.259117,160.038032 315.377502,156.798935 C322.724724,147.489128 327.132225,135.755195 327.132225,123.002549 L327.132225,112.112694 C327.132225,81.9878393 302.624855,57.4804688 272.5,57.4804688 C242.375145,57.4804688 217.867775,81.9878393 217.867775,112.112694 L217.867775,123.002549 C217.867775,135.755195 222.271118,147.489128 229.622498,156.798935 C198.740883,160.038032 172.241821,180.936241 162.175255,210.861511 L137.34356,284.707947 L97.3974609,347.747688 C92.5201037,355.444183 90.9442139,364.575195 92.9608533,373.460884 C94.1458887,378.683357 96.4910131,383.440132 99.784165,387.460938 L80.0127795,387.460938 C76.008606,387.460938 72.3453906,389.706268 70.528335,393.27385 L1.16008785,529.52385 C-0.519752236,532.825317 -0.365905762,536.762963 1.56757328,539.918899 C3.50521114,543.074836 6.93973515,545 10.6445312,545 L68.125,545 C74.0044408,545 78.7695312,540.23491 78.7695312,534.355469 C78.7695312,528.476028 74.0044408,523.710938 68.125,523.710938 L28.0084229,523.710938 L86.5367126,408.75 L106.95259,408.75 C99.0357203,422.271881 97.3849866,439.11602 103.709336,454.770966 C111.854896,474.937363 131.380958,487.515373 152.266693,487.515373 C156.765671,487.515373 161.327019,486.933251 165.850945,485.714951 L272.5,457.007981 L379.149055,485.714951 C383.677139,486.933251 388.238488,487.515373 392.737465,487.515373 C413.619042,487.515373 433.149261,474.937363 441.294823,454.770966 C447.619171,439.11602 445.968437,422.271881 438.051567,408.75 L458.725243,408.75 L517.024841,523.710938 L153.110771,523.710938 C147.231331,523.710938 142.46624,528.476028 142.46624,534.355469 C142.46624,540.23491 147.231331,545 153.110771,545 L534.355469,545 C538.056106,545 541.490631,543.078994 543.42411,539.927216 C545.361748,536.771278 545.523911,532.841949 543.848229,529.540481 L474.750252,393.290481 Z M338.213348,300.753746 L344.907761,313.414917 C345.049133,313.676873 345.198822,313.930511 345.356826,314.179993 L381.556549,370.691643 L338.213348,348.591766 L338.213348,300.753746 Z M239.156837,112.112694 C239.156837,93.725929 254.113235,78.7695312 272.5,78.7695312 C290.886765,78.7695312 305.843163,93.725929 305.843163,112.112694 L305.843163,123.002549 C305.843163,141.385155 290.886765,156.34571 272.5,156.34571 C254.113235,156.34571 239.156837,141.385155 239.156837,123.002549 L239.156837,112.112694 Z M115.380897,359.140663 L156.017227,295.015679 C156.474609,294.29634 156.840515,293.522949 157.114944,292.712135 L182.358284,217.6474 C190.404053,193.713837 212.778358,177.634773 238.030015,177.634773 L306.969985,177.634773 C332.221642,177.634773 354.595947,193.713837 362.645874,217.6474 L387.885056,292.712135 C388.159485,293.522949 388.529548,294.29634 388.986931,295.015679 L429.619103,359.140663 C431.440315,362.018013 432.030754,365.431748 431.278152,368.754005 C430.525551,372.076263 428.521385,374.899559 425.639878,376.708298 C419.760437,380.396461 411.935044,378.641777 408.188667,372.795601 L363.523217,303.069763 L338.213348,255.198479 L338.213348,235.730629 C338.213348,229.851189 333.448257,225.086097 327.568817,225.086097 C321.693535,225.086097 316.924286,229.851189 316.924286,235.730629 L316.924286,344.105262 L228.038292,344.105262 L228.038292,257.834663 C228.038292,257.813873 228.038292,257.793083 228.038292,257.772293 L228.038292,235.730629 C228.038292,229.851189 223.273201,225.086097 217.393761,225.086097 C211.51432,225.086097 206.74923,229.851189 206.74923,235.730629 L206.74923,255.269165 L181.480942,303.069763 L136.811333,372.795601 C133.069115,378.641777 125.243721,380.396461 119.364281,376.708298 C116.478615,374.899559 114.474449,372.076263 113.721848,368.754005 C112.969246,365.431748 113.559685,362.018013 115.380897,359.140663 L115.380897,359.140663 Z M206.74923,348.612556 L163.443451,370.691643 L199.643174,314.179993 C199.805336,313.930511 199.955024,313.676873 200.092239,313.414917 L206.74923,300.820275 L206.74923,348.612556 Z M421.552544,446.800041 C415.677261,461.340637 399.82689,469.232559 384.68338,465.1577 L304.724656,443.635788 C309.62696,438.479844 312.728844,431.689796 313.207017,424.313469 L362.329865,435.914345 C363.153152,436.109772 363.97644,436.201248 364.787255,436.201248 C369.610558,436.201248 373.980637,432.89978 375.136566,428.001633 C376.487922,422.280198 372.945289,416.546288 367.223854,415.194932 L305.094719,400.521278 C304.782867,400.450592 304.475173,400.396538 304.163323,400.3508 C303.340034,399.535828 302.471008,398.762436 301.547927,398.034783 C294.084282,392.126235 284.49173,389.997329 275.227661,392.18029 L177.780304,415.194932 C172.058868,416.546288 168.516235,422.280198 169.867592,428.001633 C171.21479,433.723069 176.9487,437.26986 182.670135,435.914345 L280.12165,412.899705 C283.011475,412.221947 286.005249,412.883071 288.337898,414.729233 C290.666389,416.571235 292.005272,419.332161 292.005272,422.305145 C292.005272,426.666908 289.061394,430.504761 284.853478,431.635742 L270.100823,435.606652 C269.967766,435.639916 269.838867,435.677338 269.705811,435.71476 L160.320778,465.1577 C145.177269,469.232559 129.322739,461.340637 123.447456,446.800041 C117.372589,431.756325 123.688622,414.86229 138.137742,407.494277 L220.707703,365.394325 L324.296455,365.394325 L406.866417,407.494277 C421.315537,414.86229 427.627411,431.756325 421.552544,446.800041 L421.552544,446.800041 Z" id="Shape"></path>
            <path d="M415.527573,107.875671 L510.288849,107.925568 C529.428215,107.925568 545,92.3537829 545,73.2144165 C545,54.0750501 529.428215,38.5032654 510.288849,38.5032654 C509.839783,38.5032654 509.394874,38.511582 508.949966,38.528213 C502.276344,16.1663818 481.498718,0 457.236671,0 C443.012085,0 429.589996,5.48442867 419.44027,15.4512024 C411.344604,23.3971789 406.055603,33.4762194 404.10965,44.4450757 C391.627273,49.1145325 382.779006,61.2102124 382.779006,75.1271057 C382.779006,93.1853869 397.469292,107.875671 415.527573,107.875671 Z M414.687653,63.7050245 C420.176239,63.3100123 424.463158,58.7985608 424.571266,53.2975001 C424.92054,35.6467054 439.573402,21.2890625 457.236671,21.2890625 C474.455032,21.2890625 488.779412,34.7360987 489.843865,51.9004054 C490.060082,55.3848267 491.968613,58.5449219 494.958229,60.349502 C497.943688,62.158241 501.631851,62.3869324 504.816895,60.9565735 C506.546631,60.1831812 508.384475,59.7923279 510.288849,59.7923279 C517.690125,59.7923279 523.710938,65.8131409 523.710938,73.2144165 C523.710938,80.6156921 517.690125,86.6365051 510.293007,86.6365051 L415.531731,86.5866089 C415.531731,86.5866089 415.531731,86.5866089 415.527573,86.5866089 C409.207383,86.5866089 404.068069,81.4472961 404.068069,75.1271057 C404.068069,69.1478735 408.733368,64.129143 414.687653,63.7050245 L414.687653,63.7050245 Z" id="Shape"></path>
            <path d="M33.4762194,168.12954 L131.281166,168.183594 C150.848809,168.183594 166.765709,152.266693 166.765709,132.703209 C166.765709,113.135566 150.848809,97.2186658 131.281166,97.2186658 C130.736465,97.2186658 130.191765,97.2311401 129.651222,97.2560888 C122.886123,74.1873927 101.505585,57.4804688 76.5283582,57.4804688 C61.9378662,57.4804688 48.1706617,63.1104273 37.7589795,73.3266833 C29.4096753,81.5262988 23.9668274,91.9338232 22.0042419,103.260269 C9.1518018,107.983779 0.0249481201,120.387153 0.0249481201,134.67411 C0.0249481201,153.119087 15.0312426,168.12954 33.4762194,168.12954 Z M32.5905614,122.545166 C38.0791479,122.154312 42.3660657,117.64286 42.4741748,112.137642 C42.8400805,93.7384033 58.1166455,78.7695312 76.5283582,78.7695312 C94.4826892,78.7695312 109.414138,92.786217 110.52433,110.682335 C110.740547,114.170913 112.649078,117.326851 115.638695,119.13559 C118.624153,120.940171 122.312317,121.168861 125.497361,119.738502 C127.32689,118.919373 129.272842,118.507728 131.285325,118.507728 C139.110718,118.507728 145.476647,124.873657 145.476647,132.69905 C145.476647,140.528602 139.110718,146.894531 131.289482,146.894531 L33.4886938,146.840477 L33.484535,146.840477 C26.7734912,146.840477 21.3140112,141.380996 21.3140112,134.67411 C21.3140112,128.324814 26.2662122,122.99839 32.5905614,122.545166 Z" id="Shape"></path>
        </g>
    </g>
</svg>