<?xml version="1.0" encoding="UTF-8"?>
<svg width="502px" height="503px" viewBox="0 0 502 503" version="1.1" xmlns="http://www.w3.org/2000/svg" xmlns:xlink="http://www.w3.org/1999/xlink">
    <!-- Generator: Sketch 53 (72520) - https://sketchapp.com -->
    <title>yoga</title>
    <desc>Created with Sketch.</desc>
    <g id="Page-1" stroke="none" stroke-width="1" fill="none" fill-rule="evenodd">
        <g id="yoga" fill="#404348" fill-rule="nonzero">
            <path d="M336.383456,426.451832 C332.55948,422.618051 326.343066,422.618051 322.51909,426.451832 C318.685308,430.275809 318.685308,436.492222 322.51909,440.316199 C326.343066,444.149981 332.55948,444.149981 336.383456,440.316199 C340.217238,436.492222 340.217238,430.275809 336.383456,426.451832 Z" id="Path"></path>
            <path d="M486.688161,296.387905 C486.495001,296.238868 421.931568,261.184768 408.888866,254.49379 C397.418897,235.527846 361.365662,175.887538 361.36174,175.879694 C354.879609,165.177462 343.665552,158.22861 331.20135,157.092203 C330.136519,156.901004 329.427613,156.907868 328.679486,156.966698 C296.694373,156.95101 210.060712,156.906887 172.566131,156.888257 C172.33081,156.868647 172.166085,156.89414 171.967042,156.906887 C171.870952,156.91277 171.775843,156.926497 171.679753,156.933361 C171.612098,156.939244 171.545424,156.944146 171.477769,156.95199 C158.785108,157.883472 147.284743,164.923511 140.637888,175.887538 C140.637888,175.887538 104.585632,235.527846 93.1156635,254.49379 C74.8694121,263.852727 22.9456928,292.483526 17.0744179,295.302484 C16.4517961,295.601538 15.8625115,295.965306 15.3163692,296.387905 C-3.66526238,311.08178 -5.07327018,338.66932 11.479646,355.222236 C24.0997493,367.855086 43.6530164,370.366164 59.045993,361.313144 C60.6716733,360.354209 93.1058585,339.723365 113.03564,328.677955 C128.046219,320.352472 141.654673,309.610039 153.492332,296.735985 C158.516449,291.255932 160.127422,289.516513 162.757141,286.651472 L162.757141,368.469864 L77.1324218,410.793441 C65.4320339,416.569606 56.4966752,427.044361 52.6177903,439.529154 C48.7330222,452.019831 50.1547571,465.717511 56.5211879,477.113942 C65.2476986,492.713805 81.2132912,502.026659 99.2301041,502.026659 L402.775406,502.026659 C420.458847,502.026659 436.274422,492.977562 445.081334,477.819907 C451.70858,466.408768 453.322494,452.608135 449.514205,439.967441 C445.712781,427.295371 436.742124,416.667657 424.897601,410.806187 L339.248369,368.470844 L339.248369,286.646569 C342.541892,290.230322 345.770701,293.745439 348.815174,297.059552 C360.443005,309.712012 373.953408,320.350511 388.971831,328.680897 C408.982995,339.77239 441.283831,360.326755 442.978147,361.32491 C458.299547,370.333807 477.858697,367.90215 490.521942,355.227139 C507.127806,338.619314 505.610962,311.035696 486.688161,296.387905 Z M221.58755,176.424856 L280.41796,176.454271 L280.41796,205.913599 C280.41796,222.133142 267.222299,235.328803 251.002755,235.328803 C234.756738,235.328803 221.58755,222.161577 221.58755,205.913599 L221.58755,176.424856 L221.58755,176.424856 Z M182.367278,176.405246 L201.977414,176.415051 L201.977414,205.913599 C201.977414,232.996178 223.914293,254.93894 251.002755,254.93894 C278.035328,254.93894 300.028096,232.946172 300.028096,205.913599 L300.028096,176.464076 L319.638233,176.473881 L319.638233,264.744008 L319.638233,364.755704 L182.367278,364.755704 C182.367278,359.753158 182.367278,178.090737 182.367278,176.405246 Z M139.027896,283.481493 C139.006324,283.505025 138.987695,283.531499 138.966124,283.556012 C128.582556,294.83184 116.659593,304.243725 103.526685,311.52693 C83.476301,322.639994 51.0499598,343.218871 49.0879657,344.419012 C41.4164803,348.929343 31.6565154,347.672333 25.3498955,341.35885 C17.4166148,333.42655 17.5607493,320.093618 26.6382815,312.444684 C36.6139579,307.379386 89.1514745,278.376975 104.436595,270.738827 C106.094632,269.910298 107.48303,268.628776 108.442946,267.042316 C117.885227,251.433628 157.41632,186.040686 157.41534,186.040686 C158.814523,183.731593 160.643168,181.773521 162.757141,180.234125 L162.757141,257.659846 C162.582611,257.847123 139.118102,283.383443 139.027896,283.481493 Z M221.58755,482.416523 L182.367278,482.416523 C171.554248,482.416523 162.757141,473.619415 162.757141,462.806386 C162.757141,451.993357 171.554248,443.19625 182.367278,443.19625 L221.58755,443.19625 L221.58755,482.416523 Z M416.203447,428.383733 C423.190539,431.841 428.485276,438.117224 430.733578,445.613199 C432.985802,453.086622 432.03471,461.236595 428.124449,467.969735 C422.790492,477.151201 413.550196,482.416523 402.775406,482.416523 L241.197687,482.416523 L241.197687,443.19625 L290.223028,443.19625 C295.637387,443.19625 300.028096,438.806521 300.028096,433.391181 C300.028096,427.975842 295.637387,423.586113 290.223028,423.586113 L182.367278,423.586113 C160.741219,423.586113 143.147005,441.180328 143.147005,462.806386 C143.147005,469.947417 145.074681,476.643298 148.423112,482.416523 L99.2291236,482.416523 C88.2523497,482.416523 78.9238078,476.99432 73.6378955,467.545176 C69.8825544,460.823801 69.0461821,452.735601 71.3435095,445.350423 C73.6359345,437.972109 78.9100807,431.786092 85.8167708,428.375889 L174.853654,384.36584 L327.151857,384.36584 L416.203447,428.383733 Z M476.651693,341.364733 C470.347034,347.674294 460.58805,348.930324 452.979317,344.458232 C450.809455,343.13847 418.770414,322.776285 398.480786,311.529871 C385.307677,304.224115 373.456291,294.890671 363.256079,283.792314 C355.81011,275.685484 346.629625,265.699022 339.248369,257.66769 L339.248369,180.272365 C341.370186,181.798033 343.19687,183.742378 344.584287,186.031862 C344.584287,186.031862 384.119303,251.433628 393.561584,267.044277 C394.5215,268.630737 395.910878,269.911279 397.568915,270.740788 C412.754024,278.32893 465.479798,307.42547 475.367229,312.446645 C484.470254,320.118131 484.566344,333.451063 476.651693,341.364733 Z" id="Shape"></path>
            <g id="Group-15" transform="translate(251.220545, 311.298235) scale(1, -1) rotate(-45.000000) translate(-251.220545, -311.298235) translate(215.432046, 275.999990)">
                <path d="M9.63271351,50.9863548 C4.31545565,50.9863548 0,55.3018104 0,60.6190683 C0,65.9363261 4.31545565,70.2517818 9.63271351,70.2517818 C14.9499714,70.2517818 19.265427,65.9363261 19.265427,60.6190683 C19.265427,55.3018104 14.9499714,50.9863548 9.63271351,50.9863548 Z" id="Path"></path>
                <path d="M9.63271351,50.9863548 C4.31545565,50.9863548 3.55271368e-15,55.3018104 3.55271368e-15,60.6190683 C3.55271368e-15,65.9363261 4.31545565,70.2517818 9.63271351,70.2517818 C14.9499714,70.2517818 19.265427,65.9363261 19.265427,60.6190683 C19.265427,55.3018104 14.9499714,50.9863548 9.63271351,50.9863548 Z" id="Path"></path>
                <path d="M67.8945251,2.82118097 C64.131024,-0.940393657 58.0335163,-0.940393657 54.2709784,2.82118097 L25.3728379,31.7193215 C21.6112633,35.4808961 21.6112633,41.5803303 25.3728379,45.3428682 C29.1363391,49.1044428 35.2328834,49.1034796 38.9963846,45.3428682 L67.8945251,16.4447277 C71.6560998,12.6831531 71.6560998,6.58371887 67.8945251,2.82118097 Z" id="Path"></path>
            </g>
            <path d="M251.010727,0 C213.165125,0 182.37525,30.7898752 182.37525,68.6354776 C182.37525,106.48108 213.165125,137.270955 251.010727,137.270955 C288.855349,137.270955 319.646205,106.48108 319.646205,68.6354776 C319.646205,30.7898752 288.856329,0 251.010727,0 Z M251.010727,117.660819 C223.978154,117.660819 201.985386,95.6680507 201.985386,68.6354776 C201.985386,41.6029045 223.978154,19.6101365 251.010727,19.6101365 C278.0433,19.6101365 300.036068,41.6029045 300.036068,68.6354776 C300.036068,95.6680507 278.0433,117.660819 251.010727,117.660819 Z" id="Shape"></path>
        </g>
    </g>
</svg>