<?xml version="1.0" encoding="UTF-8"?>
<svg width="264px" height="512px" viewBox="0 0 264 512" version="1.1" xmlns="http://www.w3.org/2000/svg" xmlns:xlink="http://www.w3.org/1999/xlink">
    <!-- Generator: Sketch 53 (72520) - https://sketchapp.com -->
    <title>cocktail</title>
    <desc>Created with Sketch.</desc>
    <g id="Page-1" stroke="none" stroke-width="1" fill="none" fill-rule="evenodd">
        <g id="cocktail" fill="#404348" fill-rule="nonzero">
            <path d="M219.506,151.231 C216.915,141.763 216.421,132.114 216.151,122.338 C243.626,115.871 264,90.991 264,62 C264,27.813 236.187,0 202,0 C169.499,0 142.79,25.146 140.233,57 C140.233,57 47.77,57 47.555,57 C40.654,57 35.775,64.329 38.264,70.7 C41.124,78.025 42.391,128.683 39.298,143.642 C36.086,159.18 28.764,174.055 22.56,188.552 C11.47,214.474 0,241.277 0,260 C0,296.175 12.663,325.524 36.621,344.875 C51.504,356.896 70.818,365.064 93.477,369.092 C95.871,375.278 98,386.532 98,407 C98,427.262 87.558,445.077 82.688,452.285 C57.606,454.947 38,476.224 38,502 C38,507.522 42.478,512 48,512 L208,512 C213.522,512 218,507.522 218,502 C218,476.217 198.383,454.934 173.291,452.283 C168.411,445.108 158,427.412 158,407 C158,385.752 161.142,374.542 163.818,368.845 C185.914,364.738 204.782,356.665 219.379,344.875 C243.337,325.524 256,296.175 256,260 C256,243.104 244.983,216.205 234.33,190.19 C229.091,177.401 223.17,164.617 219.506,151.231 Z M202,20 C225.159,20 244,38.841 244,62 C244,80.021 232.381,95.705 216.088,101.548 C216.445,84.319 217.759,73.228 218.735,70.702 C221.225,64.26 216.377,57 209.445,57 L160.296,57 C162.776,36.189 180.533,20 202,20 Z M197.446,77 C196.522,85.532 196.174,95.701 196.053,103.588 C180.757,101.449 168.08,91.162 162.732,77 L197.446,77 Z M59.535,77 L141.82,77 C148.078,102.498 169.759,121.309 196.184,123.734 C196.378,130.18 196.773,137.867 197.566,144 L59.493,144 C61.473,129.254 61.73,96.823 59.535,77 Z M168,472 C181.037,472 192.159,480.359 196.286,492 L59.714,492 C63.841,480.359 74.963,472 88,472 L168,472 Z M114.97,371.603 C115.168,372.499 127.128,371.997 128.222,371.997 C132.73,371.99 137.253,371.855 141.752,371.569 C139.259,381.146 138,392.979 138,407 C138,424.912 144.084,440.858 149.892,452 L106.109,452 C111.916,440.858 118,424.912 118,407 C118,392.538 117.016,380.873 114.97,371.603 Z M128,352 C87.665,352 20,340.048 20,260 C20,245.377 31.13,219.367 40.949,196.42 C45.9,184.85 50.631,173.793 54.102,164 L202.686,164 C206.096,174.024 210.848,185.629 215.821,197.771 C225.28,220.865 236,247.042 236,260 C236,340.048 168.335,352 128,352 Z" id="Shape"></path>
            <path d="M208.78,242.23 C205.899,232.987 191.502,198.725 189.02,190.2 C187.501,184.983 181.831,181.873 176.621,183.399 C171.479,184.905 168.293,190.62 169.82,195.8 C175.105,213.729 184.007,230.343 189.671,248.152 C193.111,258.967 192.396,270.473 188.41,281.09 C186.524,286.157 189.176,292.077 194.269,293.97 C199.053,295.748 205.349,292.875 207.14,288.109 C212.63,273.496 213.3,257.128 208.78,242.23 Z" id="Path"></path>
            <circle id="Oval" cx="172" cy="314" r="10"></circle>
        </g>
    </g>
</svg>