<?xml version="1.0" encoding="UTF-8"?>
<svg width="913px" height="512px" viewBox="0 0 913 512" version="1.1" xmlns="http://www.w3.org/2000/svg" xmlns:xlink="http://www.w3.org/1999/xlink">
    <!-- Generator: Sketch 53 (72520) - https://sketchapp.com -->
    <title>Bedrijf</title>
    <desc>Created with Sketch.</desc>
    <g id="Page-1" stroke="none" stroke-width="1" fill="none" fill-rule="evenodd">
        <g id="Bedrijf" transform="translate(10.000000, 0.000000)">
            <g id="Group-2" transform="translate(594.000000, 100.000000)">
                <g id="happy" transform="translate(0.059642, 0.000000)" fill="#404348" fill-rule="nonzero">
                    <path d="M64.8355753,35.5461345 C47.2530938,17.9636526 25.4619657,6.11751478 1.73418573,0.948579611 C-1.40610258,10.6297122 0.55963707,16.6070442 7.63140469,18.8805758 C52.9887279,33.4626874 86.7584493,76.6268204 86.7584493,126.190855 C86.7584493,168.09947 62.6149183,205.432499 27.7373693,224.780432 C11.7195574,233.666134 17.3951936,248.807869 36.1575165,238.411192 C46.5401915,232.65789 56.210303,225.460848 64.8355753,216.835575 C89.0474042,192.623747 102.38171,160.431286 102.38171,126.190855 C102.38171,91.9504236 89.0474042,59.7579628 64.8355753,35.5461345 Z" id="Path"></path>
                </g>
                <path d="M141.699801,217.526839 C85.0821736,244.819678 56.7733598,305.977398 56.7733598,401" id="Line-2" stroke="#404348" stroke-width="18" stroke-linecap="round" transform="translate(99.236581, 309.263419) scale(-1, 1) translate(-99.236581, -309.263419) "></path>
            </g>
            <g id="Group-6" transform="translate(691.000000, 196.000000)">
                <g id="Group-2" transform="translate(0.699801, 0.000000)">
                    <g id="happy" transform="translate(0.300199, 0.000000)" fill="#404348" fill-rule="nonzero">
                        <path d="M65.7358779,28.4105683 C48.3059245,10.890304 25.3817732,0.897378188 0.869268337,0.0576259292 C-0.250629918,0.0192603237 1.45036116,13.8904023 3.39735041,14.0252538 C46.6319021,17.0197467 80.2390625,52.7187209 80.2390625,97 C80.2390625,133.132229 57.8631373,163.550288 26.1390176,175.149079 C17.2333015,178.405136 21.2460009,191.79805 32.1590255,187.583676 C44.6066013,182.77669 56.0241023,175.351527 65.7358779,165.589432 C83.9621507,147.268723 94,122.909195 94,97 C94,71.0908051 83.9621507,46.7312774 65.7358779,28.4105683 Z" id="Path"></path>
                    </g>
                    <path d="M124.300199,166 C81.6335321,186.528407 60.3001988,232.528407 60.3001988,304" id="Line-2" stroke="#404348" stroke-width="18" stroke-linecap="round" transform="translate(92.300199, 235.000000) scale(-1, 1) translate(-92.300199, -235.000000) "></path>
                </g>
            </g>
            <g id="Group-14" transform="translate(237.000000, 0.000000)">
                <path d="M323.137207,46.8627931 C292.917481,16.6430663 252.736816,1.13686838e-13 210,1.13686838e-13 C177.48291,1.13686838e-13 146.171875,9.7094725 119.458008,28.0761719 C116.613769,30.03418 115.056786,37.8821371 118.565583,41.615358 C122.074379,45.3485788 128.696289,45.3344725 131.540527,43.376465 C156.162109,26.4477537 180.021973,19.5 210,19.5 C286.330566,19.5 350.5,83.6694337 350.5,160 C350.5,236.330566 286.330566,300.5 210,300.5 C133.669434,300.5 69.5,236.330566 69.5,160 C69.5,130.01709 76.4477537,105.159668 93.3740237,80.5429687 C95.32959,77.6987306 93.787171,70.2582628 90.9429329,68.3026966 C88.101136,66.3471303 80.0317381,66.6162113 78.0737306,69.4604494 C59.7070313,96.1694338 50,127.478028 50,160 C50,202.736816 66.6430663,242.917481 96.8627931,273.137207 C127.082519,303.356934 167.263184,320 210,320 C252.736816,320 292.917481,303.356934 323.137207,273.137207 C353.356934,242.917481 370,202.736816 370,160 C370,117.263184 353.356934,77.0825194 323.137207,46.8627931 Z" id="Path" fill="#404348" fill-rule="nonzero"></path>
                <path d="M103.996827,64 C106.558889,64 109.120951,63.023438 111.073742,61.0703129 C114.975419,57.1679688 114.975419,50.8359377 111.073742,46.9296876 C107.16816,43.0234375 100.837211,43.0234375 96.9316285,46.9296876 L96.9277221,46.9335936 C93.0221397,50.8398437 93.026046,57.1679688 96.9277221,61.0742189 C98.8805143,63.027344 101.43867,64 103.996827,64 Z" id="Path" fill="#404348" fill-rule="nonzero"></path>
                <path d="M155.85176,197.213625 C152.516911,198.112615 145.630022,201.590213 147.240326,206.913989 C154.781578,235.224798 181.393518,254.997661 210.525847,254.997661 C239.658176,254.997661 265.270115,235.227254 272.811368,206.913989 C273.992573,202.659449 269.057144,198.112615 265.722295,197.213625 C262.387445,196.314635 254.782703,198.213625 253.736575,203.659449 C245.936963,224.342461 232.025847,236.421629 210.525847,236.421629 C189.025847,236.421629 177.10677,226.996887 167.315118,203.659449 C164.876298,198.213625 159.184718,196.315145 155.85176,197.213625 Z" id="Path" fill="#404348" fill-rule="nonzero"></path>
                <path d="M132.213087,154.225337 C131.326076,157.51805 133.289131,161.904841 136.599665,162.787723 C139.912622,163.670604 145.312826,162.714274 146.197412,159.42156 C148.111996,152.315089 152.609464,148.35069 159.998788,148.35069 C167.390536,148.35069 170.888004,151.315089 172.802588,158.42156 C173.544186,161.178755 177.898739,163.663676 181.791116,163 C184.87457,162.47425 189.13565,159.42156 187.786913,154.225337 C184.423062,141.7275 172.996147,133 159.998788,133 C147.001429,133 135.576937,141.7275 132.213087,154.225337 Z" id="Path" fill="#404348" fill-rule="nonzero"></path>
                <path d="M232.213087,154.225337 C231.326076,157.51805 233.289131,161.904841 236.599665,162.787723 C239.912622,163.670604 245.312826,162.714274 246.197412,159.42156 C248.111996,152.315089 252.609464,148.35069 259.998788,148.35069 C267.390536,148.35069 270.888004,151.315089 272.802588,158.42156 C273.544186,161.178755 277.898739,163.663676 281.791116,163 C284.87457,162.47425 289.13565,159.42156 287.786913,154.225337 C284.423062,141.7275 272.996147,133 259.998788,133 C247.001429,133 235.576937,141.7275 232.213087,154.225337 Z" id="Path" fill="#404348" fill-rule="nonzero"></path>
                <path d="M106,274 C35.3333333,308.065256 0,384.398589 0,503" id="Line-2" stroke="#404348" stroke-width="18" stroke-linecap="round"></path>
                <path d="M419,274 C348.333333,308.065256 313,384.398589 313,503" id="Line-2" stroke="#404348" stroke-width="18" stroke-linecap="round" transform="translate(366.000000, 388.500000) scale(-1, 1) translate(-366.000000, -388.500000) "></path>
                <path d="M318,421 C312.49,421 308,425.48 308,431.001 C308,436.511 312.49,441.002 318,441.002 C323.51,441.002 328,436.512 328,431.001 C328,425.48 323.51,421 318,421 Z" id="Path" fill="#404348" fill-rule="nonzero"></path>
                <path d="M151,338.715235 L209.455008,384.715235" id="Line-5" stroke="#404348" stroke-width="18" stroke-linecap="round"></path>
                <path d="M211,338.715235 L269.455008,384.715235" id="Line-5" stroke="#404348" stroke-width="18" stroke-linecap="round" transform="translate(240.000000, 361.500000) scale(-1, 1) translate(-240.000000, -361.500000) "></path>
                <path d="M106,429.994765 L106,493" id="Line-6" stroke="#404348" stroke-width="18" stroke-linecap="round"></path>
                <path d="M318,461.497383 L318,493" id="Line-6" stroke="#404348" stroke-width="18" stroke-linecap="round"></path>
            </g>
            <g id="Group-4" transform="translate(0.000000, 501.000000)" stroke="#404348" stroke-linecap="round" stroke-width="20">
                <path d="M0.5,1 L892.5,1" id="Line-3"></path>
            </g>
            <g id="Group-5" transform="translate(19.000000, 221.000000)">
                <path d="M213.648334,40.6645745 L213.648334,70.5302566 C213.648334,76.4679441 218.449099,81.284561 224.377117,81.284561 C230.300713,81.284561 235.105898,76.4679441 235.105898,70.5302566 L235.105898,16.7543045 C235.105898,10.8121861 230.300713,6 224.377117,6 L170.728783,6 C164.805186,6 160,10.816617 160,16.7543045 C160,22.6964228 164.805186,27.508609 170.728783,27.508609 L196.664409,27.508609 C164.367547,67.0385418 179.92804,82.0511428 213.648334,40.6645745 Z" id="Path" fill="#404348" fill-rule="nonzero" transform="translate(197.552949, 43.642281) rotate(-9.000000) translate(-197.552949, -43.642281) "></path>
                <polyline id="Line-4" stroke="#404348" stroke-width="22" stroke-linecap="round" points="211 21.894531 133.626441 126.388111 89.6050025 91 0.543288047 197"></polyline>
            </g>
        </g>
    </g>
</svg>