<?xml version="1.0" encoding="UTF-8"?>
<svg width="512px" height="492px" viewBox="0 0 512 492" version="1.1" xmlns="http://www.w3.org/2000/svg" xmlns:xlink="http://www.w3.org/1999/xlink">
    <!-- Generator: Sketch 53 (72520) - https://sketchapp.com -->
    <title>bear</title>
    <desc>Created with Sketch.</desc>
    <g id="Page-1" stroke="none" stroke-width="1" fill="none" fill-rule="evenodd">
        <g id="bear" fill="#404348" fill-rule="nonzero">
            <path d="M444.15625,156.839844 L481.496094,119.496094 C508.789062,92.203125 508.789062,47.796875 481.496094,20.503906 C454.203125,-6.789062 409.796875,-6.789062 382.503906,20.503906 L355.339844,47.664062 C342.402344,39.101562 327.117188,34.410156 311.210938,34.410156 L201.03125,34.410156 C185.046875,34.410156 169.714844,39.136719 156.753906,47.757812 L129.496094,20.503906 C116.277344,7.28125 98.699219,0 80,0 C61.300781,0 43.722656,7.28125 30.503906,20.503906 C17.28125,33.722656 10,51.300781 10,70 C10,88.699219 17.28125,106.277344 30.503906,119.496094 L68.234375,157.230469 C31.664062,211.113281 -5.68434189e-14,270.183594 -5.68434189e-14,313.207031 C-5.68434189e-14,337.050781 9.246094,361.402344 27.484375,385.59375 C41.574219,404.28125 61.105469,422.980469 85.527344,441.171875 C101.113281,452.777344 116.597656,462.640625 129.925781,470.464844 C138.964844,483.464844 154,492 171,492 L341,492 C357.339844,492 371.867188,484.121094 381,471.96875 C394.554688,464.332031 410.429688,454.558594 426.402344,442.878906 C450.867188,424.988281 470.429688,406.328125 484.546875,387.414062 C502.761719,363.003906 512,338.039062 512,313.207031 C512,269.289062 480.5625,210.363281 444.15625,156.839844 Z M396.644531,34.644531 C416.140625,15.148438 447.859375,15.148438 467.355469,34.644531 C486.851562,54.140625 486.851562,85.859375 467.355469,105.355469 L432.542969,140.167969 C428.585938,134.617188 424.609375,129.148438 420.632812,123.792969 L439.070312,105.355469 C450.769531,93.65625 450.769531,74.625 439.070312,62.929688 C427.375,51.234375 408.34375,51.230469 396.644531,62.929688 L383.417969,76.15625 C379.617188,71.519531 375.9375,67.089844 372.421875,62.902344 C371.808594,62.171875 371.175781,61.457031 370.539062,60.75 L396.644531,34.644531 Z M396.050781,91.808594 L410.785156,77.070312 C414.6875,73.171875 421.03125,73.171875 424.929688,77.070312 C426.816406,78.960938 427.859375,81.472656 427.859375,84.140625 C427.859375,86.8125 426.816406,89.324219 424.929688,91.214844 L408.460938,107.683594 C404.265625,102.226562 400.113281,96.921875 396.050781,91.808594 Z M44.644531,105.355469 C35.199219,95.910156 30,83.355469 30,70 C30,56.644531 35.199219,44.089844 44.644531,34.644531 C54.089844,25.199219 66.644531,20 80,20 C93.355469,20 105.910156,25.199219 115.355469,34.644531 L141.589844,60.878906 C140.898438,61.644531 140.21875,62.421875 139.554688,63.21875 C136.101562,67.367188 132.492188,71.757812 128.769531,76.34375 L115.355469,62.929688 C103.65625,51.234375 84.625,51.234375 72.929688,62.929688 C61.230469,74.625 61.230469,93.65625 72.929688,105.355469 L91.703125,124.132812 C87.742188,129.503906 83.773438,134.980469 79.828125,140.539062 L44.644531,105.355469 Z M103.835938,107.980469 L87.070312,91.214844 C83.171875,87.3125 83.171875,80.96875 87.070312,77.070312 C88.960938,75.183594 91.472656,74.140625 94.140625,74.140625 C96.8125,74.140625 99.324219,75.183594 101.214844,77.070312 L116.195312,92.054688 C112.148438,97.191406 108.015625,102.507812 103.835938,107.980469 Z M371,442 C371,458.542969 357.542969,472 341,472 L171,472 C154.457031,472 141,458.542969 141,442 L141,382 C141,318.589844 192.589844,267 256,267 C319.410156,267 371,318.589844 371,382 L371,442 Z M390.984375,442.667969 C390.984375,442.445312 391,442.222656 391,442 L391,382 C391,349.085938 379.152344,318.890625 359.507812,295.4375 L328.136719,220.929688 C346.441406,219.820312 361,204.582031 361,186 C361,166.699219 345.300781,151 326,151 C306.699219,151 291,166.699219 291,186 C291,196.367188 295.535156,205.691406 302.71875,212.105469 L325.554688,266.339844 C305.226562,254.070312 281.425781,247 256,247 C230.574219,247 206.769531,254.070312 186.445312,266.339844 L209.277344,212.105469 C216.464844,205.691406 221,196.367188 221,186 C221,166.699219 205.300781,151 186,151 C166.699219,151 151,166.699219 151,186 C151,204.582031 165.558594,219.820312 183.863281,220.929688 L152.492188,295.4375 C132.847656,318.886719 121,349.085938 121,382 L121,441.433594 C75.882812,412.257812 20,365.558594 20,313.207031 C20,245.566406 114.363281,124.792969 154.933594,76.007812 C166.34375,62.285156 183.148438,54.414062 201.03125,54.414062 L311.210938,54.414062 C328.976562,54.414062 345.703125,62.199219 357.109375,75.769531 C397.667969,124.035156 492,243.792969 492,313.207031 C492,368.066406 436.066406,414.304688 390.984375,442.667969 Z M326,201 C317.730469,201 311,194.269531 311,186 C311,177.730469 317.730469,171 326,171 C334.269531,171 341,177.730469 341,186 C341,194.269531 334.269531,201 326,201 Z M186,201 C177.730469,201 171,194.269531 171,186 C171,177.730469 177.730469,171 186,171 C194.269531,171 201,177.730469 201,186 C201,194.269531 194.269531,201 186,201 Z" id="Shape"></path>
            <path d="M438.328125,289.730469 C439.53125,294.03125 443.488281,297.03125 447.949219,297.03125 C448.859375,297.03125 449.769531,296.898438 450.660156,296.660156 C453.230469,295.929688 455.359375,294.25 456.671875,291.929688 C457.980469,289.601562 458.308594,286.898438 457.578125,284.328125 C456.378906,280.03125 452.421875,277.019531 447.960938,277.019531 C447.050781,277.019531 446.140625,277.148438 445.261719,277.398438 C442.679688,278.121094 440.550781,279.800781 439.238281,282.128906 C437.929688,284.449219 437.609375,287.148438 438.320312,289.710938 C438.320312,289.71875 438.320312,289.71875 438.328125,289.730469 L438.328125,289.730469 Z" id="Path"></path>
            <path d="M452.28125,321.738281 C451.5,321.550781 450.699219,321.449219 449.910156,321.449219 C445.289062,321.449219 441.300781,324.589844 440.199219,329.089844 C438.621094,335.511719 436.058594,341.421875 431.890625,348.21875 C428.367188,353.96875 423.9375,359.898438 418.808594,366.761719 C418.359375,367.378906 417.898438,367.988281 417.429688,368.621094 C415.828125,370.761719 415.160156,373.398438 415.550781,376.039062 C415.9375,378.679688 417.328125,381.019531 419.46875,382.609375 C421.210938,383.910156 423.269531,384.601562 425.4375,384.601562 C428.628906,384.601562 431.558594,383.128906 433.46875,380.570312 C434.128906,379.671875 434.800781,378.78125 435.460938,377.898438 C440.308594,371.398438 444.898438,365.261719 448.9375,358.691406 C454.179688,350.160156 457.578125,342.261719 459.628906,333.828125 C460.9375,328.46875 457.640625,323.050781 452.28125,321.738281 L452.28125,321.738281 Z" id="Path"></path>
            <path d="M292.674844,355.786171 C301.019414,346.605505 306,335.105052 306,325.01252 C306,314.044597 300.067617,305.593424 289.292695,301.216468 C282.208711,298.342267 272.741601,297 259.5,297 C246.258399,297 236.791289,298.338619 229.707305,301.216468 C218.932383,305.593424 213,314.044597 213,325.01252 C213,335.105052 217.980586,346.605505 226.328789,355.786171 C233.234765,363.383837 241.488515,368.446517 250.2,370.565693 L250.2,404.986808 L226.441406,420.889749 C222.169219,423.74936 221.013985,429.548827 223.86211,433.838244 C226.710235,438.131309 232.486406,439.291203 236.758594,436.427943 L259.5,421.207078 L282.241406,436.427943 C283.825312,437.489355 285.619922,438 287.392735,438 C290.39707,438 293.346914,436.537367 295.13789,433.838244 C297.986015,429.548827 296.830781,423.74936 292.558594,420.889749 L268.8,404.986808 L268.8,370.565693 C277.511485,368.446517 285.765235,363.383837 292.674844,355.786171 L292.674844,355.786171 Z M259,353 C243.815104,353 231,335.956153 231,325.25 C231,322.482226 231,316 259,316 C287,316 287,322.482226 287,325.25 C287,335.956153 274.184896,353 259,353 Z" id="Shape"></path>
        </g>
    </g>
</svg>