<svg height="511pt" viewBox="1 0 511.999 511" width="511pt" xmlns="http://www.w3.org/2000/svg"><path d="m89.933594 161.371094c5.515625 0 9.992187-4.476563 9.992187-9.992188s-4.476562-9.992187-9.992187-9.992187-9.992188 4.476562-9.992188 9.992187 4.476563 9.992188 9.992188 9.992188zm0 0"/><path d="m466.226562 372.363281c3.992188-30.21875-1.382812-59.050781-15.785156-84.046875-3.5625-6.1875-7.480468-12.132812-11.648437-17.667968-3.316407-4.410157-9.582031-5.292969-13.992188-1.976563-4.410156 3.316406-5.292969 9.582031-1.976562 13.992187 3.679687 4.886719 7.140625 10.140626 10.300781 15.625 23.015625 39.945313 16.574219 88.535157-6.511719 127.695313-8.3125 14.140625-12.273437 30.550781-11.921875 46.945313v19.15625h-178.4375c3.640625-13.757813 15.394532-22.542969 29.128906-25.148438l80.164063-15.1875c5.105469-.96875 8.621094-5.691406 8.078125-10.863281-.535156-5.09375-4.835938-8.949219-9.9375-8.949219-.074219 0-10.207031.226562-10.207031.226562-33.039063.75-60.535157-25.414062-61.265625-58.613281-.65625-29.679687 20.898437-55.683593 50.136718-60.484375 5.445313-.894531 9.136719-6.035156 8.242188-11.476562-.894531-5.449219-6.027344-9.136719-11.480469-8.242188-38.914062 6.386719-67.761719 40.585938-66.878906 80.644532.640625 29.078124 16.636719 54.007812 39.988281 67.523437l-30.558594 5.789063c-2.632812.5-5.21875 1.171874-7.734374 1.984374-23.777344-8.878906-45.921876-21.378906-65.851563-37.195312-3.003906-2.382812-7.105469-2.839844-10.558594-1.171875s-5.644531 5.164063-5.644531 9v62.171875c0 5.511719-4.484375 9.992188-9.992188 9.992188h-88.222656c4.121094-11.632813 15.234375-19.984376 28.265625-19.984376h19.984375c5.519532 0 9.992188-4.476562 9.992188-9.992187v-110.589844c0-1.8125-.496094-3.597656-1.429688-5.152343-17.527344-29.121094-29.210937-61.785157-34.839844-97.21875 1.136719.023437 2.273438.039062 3.414063.039062 35.515625 0 73.863281-10.503906 98.371094-36.226562 13.402343 13.867187 31.941406 21.632812 51.726562 21.164062l69.859375-1.539062c16.003906-.34375 31.171875 1.863281 45.089844 6.585937 1.0625.363281 2.144531.535156 3.210938.535156 4.164062-.003906 8.050781-2.625 9.464843-6.785156 1.773438-5.226563-1.027343-10.898437-6.253906-12.675781-16.132813-5.476563-33.605469-8.042969-51.953125-7.640625l-69.859375 1.539062c-15.164063.316407-29.367187-6.097656-39.0625-17.449219 7.054687-12.179687 10.984375-25.9375 11.710937-41.085937 15.660157-1.238281 29.847657-2.347656 42.714844-3.347656 119.007813-9.269531 128.300782-9.394531 149.449219-30.539063 14.769531-14.773437 16.632813-38.785156 4.328125-55.851562-7.414062-10.289063-20.570312-18.390625-38.15625-16.515625 1.980469-13.949219-3.359375-27.738281-12.3125-36.804688-13.996094-14.171875-38.988281-18.835937-63.265625 2.6875-38.0625 33.757813-84.414063 57.308594-134.113281 68.171875-70.371094-4.191406-112.179688 20.167969-134.882813 41.441406-25.761719 24.140626-35.113281 51.542969-35.113281 64.070313 0 29.355469 29.871094 52.335937 75.152344 58.613281 5.578125 38.835938 17.925781 74.695313 36.765625 106.730469v97.851563h-9.992188c-27.550781 0-49.964843 22.410156-49.964843 49.960937 0 5.519531 4.472656 9.992187 9.992187 9.992187h99.925781c16.53125 0 29.980469-13.449218 29.980469-29.976562v-42.460938c12.71875 8.601563 26.148437 16.050782 40.167969 22.289063-11.039063 10.234375-17.230469 24.515625-16.886719 40.375.121094 5.433594 4.558594 9.773437 9.992187 9.773437h199.550782c5.519531 0 9.992187-4.472656 9.992187-9.992187 0 0 0-29.410156 0-29.484375-.066406-2.863281.046875-5.691406.300781-8.480469 7.957032 5.128907 17.308594 7.988281 27.058594 7.988281 27.550782 0 49.964844-22.414062 49.964844-49.964843 0-26.136719-20.179688-47.636719-45.773438-49.773438zm-148.859374-342.171875c13.136718-11.644531 26.511718-12.984375 35.789062-3.597656 7.269531 7.363281 10.132812 20.492188 1.761719 31.03125-40.804688 19.746094-85.160157 29.824219-130.101563 29.738281 33.789063-13.574219 65.179688-32.898437 92.550782-57.171875zm-297.382813 158.730469c0-7.050781 7.25-29.296875 28.792969-49.488281 18.273437-17.125 51.019531-36.527344 105.554687-36.527344 27.859375 0 38.046875 4.457031 71.074219 4.457031 45.074219-.003906 96.238281-10.246093 142.011719-33.59375 14.707031-7.355469 27.175781-5.972656 34.214843 3.785157 5.640626 7.828124 6.769532 21.015624-2.25 30.035156-14.992187 14.988281-17.550781 15.453125-136.871093 24.746094-15.339844 1.195312-32.550781 2.535156-51.902344 4.074218-5.339844.425782-9.398437 4.988282-9.191406 10.347656.660156 17.246094-3.40625 32.277344-12.085938 44.671876-22.703125 32.382812-70.410156 40.246093-104.367187 37.136718-.035156-.003906-.074219-.007812-.109375-.011718-31.265625-2.898438-64.871094-16.523438-64.871094-39.632813zm442.050781 263.191406c-8.242187 0-16.019531-3.390625-21.625-9.242187 1.015625-2.320313 2.152344-4.582032 3.425782-6.746094 8.292968-14.074219 14.492187-28.832031 18.472656-43.960938 16.40625.148438 29.707031 13.535157 29.707031 29.972657 0 16.53125-13.449219 29.976562-29.980469 29.976562zm0 0"/><path d="m392.707031 248.265625c0 5.515625 4.476563 9.992187 9.992188 9.992187 5.519531 0 9.996093-4.476562 9.996093-9.992187s-4.476562-9.992187-9.996093-9.992187c-5.515625 0-9.992188 4.476562-9.992188 9.992187zm0 0"/></svg>