<?xml version="1.0" encoding="UTF-8"?>
<svg width="543px" height="545px" viewBox="0 0 543 545" version="1.1" xmlns="http://www.w3.org/2000/svg" xmlns:xlink="http://www.w3.org/1999/xlink">
    <!-- Generator: Sketch 53 (72520) - https://sketchapp.com -->
    <title>great-wall-of-china</title>
    <desc>Created with Sketch.</desc>
    <g id="Page-1" stroke="none" stroke-width="1" fill="none" fill-rule="evenodd">
        <g id="great-wall-of-china" fill="#404348" fill-rule="nonzero">
            <path d="M491.398417,213.877983 L491.398417,149.435367 L500.189267,149.435367 L500.189267,131.855483 L491.398417,131.855483 L491.398417,96.6939 L368.333783,96.6939 L368.333783,122.388833 C346.13775,119.084317 329.506167,103.682617 317.921283,87.9048667 L324.38135,87.9048667 L324.38135,35.1615833 L333.1722,35.1615833 L333.1722,17.5798833 L324.38135,17.5798833 L324.38135,0 L218.8966,0 L218.8966,17.5798833 L210.10575,17.5798833 L210.10575,35.1597667 L218.8966,35.1597667 L218.8966,81.53745 C201.316717,86.3025667 158.683183,100.52525 115.987883,143.218733 L128.417517,155.648367 C186.222033,97.84385 236.011417,96.6920833 236.512817,96.6920833 L247.614467,96.6920833 C255.104583,118.808183 283.90965,190.0197 348.123367,207.169033 C316.962083,216.012567 276.3941,223.317383 236.469217,227.606533 L236.469217,219.756717 L245.260067,219.756717 L245.260067,202.176833 L236.469217,202.176833 L236.469217,167.01525 L78.2520833,167.01525 L78.2520833,202.176833 L69.4612333,202.176833 L69.4612333,219.756717 L78.2520833,219.756717 L78.2520833,230.304283 L78.2520833,327.410567 C63.7133,332.235633 29.3783,347.54105 0.616833333,390.68325 L15.2446333,400.431483 C40.4545167,362.624833 70.5003667,348.7891 82.9209167,344.4291 C103.349333,379.0039 206.695867,545 306.801467,545 L315.592317,545 L456.236833,545 L456.236833,457.09695 L447.445983,457.09695 C375.849333,457.09695 297.641833,355.032983 259.2811,297.57 C309.244883,292.36525 439.728783,274.4511 454.725367,228.547567 L473.76585,228.547567 C475.04115,228.55665 505.10335,229.241533 528.318533,260.192083 L542.383167,249.644517 C525.5572,227.212317 505.4903,217.832867 491.398417,213.877983 Z M385.91185,114.273783 L403.495367,114.273783 L403.495367,123.064633 L421.07525,123.064633 L421.07525,114.273783 L438.655133,114.273783 L438.655133,123.064633 L456.235017,123.064633 L456.235017,114.273783 L473.8149,114.273783 L473.8149,131.853667 L385.91185,131.853667 L385.91185,114.273783 Z M245.270967,52.7414667 L245.270967,79.1122 L236.480117,79.1122 L236.480117,17.5798833 L306.803283,17.5798833 L306.803283,70.2868333 C301.91645,61.2234833 298.971633,53.7878667 297.95975,51.07195 C297.09865,37.3070667 285.6264,26.3707333 271.6417,26.3707333 C257.102917,26.3707333 245.270967,38.2026833 245.270967,52.7414667 Z M271.6417,43.9506167 C276.494017,43.9506167 280.43255,47.8982333 280.43255,52.7414667 L280.43255,54.1657333 L280.89035,55.51915 C281.994883,58.8418333 307.637133,133.22525 368.333783,139.9778 L368.333783,149.0575 C294.495367,143.202383 266.98195,64.6787833 263.0089,51.9675667 C263.414017,47.5022 267.061883,43.9506167 271.6417,43.9506167 Z M269.5925,104.587317 C288.4822,132.874633 319.837867,163.38555 368.333783,166.708233 L368.333783,192.939083 C312.6475,187.743417 282.19835,134.035483 269.5925,104.587317 Z M95.8319667,184.59695 L113.41185,184.59695 L113.41185,193.3878 L130.991733,193.3878 L130.991733,184.59695 L148.571617,184.59695 L148.571617,193.3878 L166.1515,193.3878 L166.1515,184.59695 L183.731383,184.59695 L183.731383,193.3878 L201.311267,193.3878 L201.311267,184.59695 L218.89115,184.59695 L218.89115,202.176833 L95.8319667,202.176833 L95.8319667,184.59695 Z M95.8319667,219.758533 L157.364283,219.758533 L157.364283,219.758533 L218.8966,219.758533 L218.8966,290.0817 L192.525867,290.0817 L192.525867,254.920117 C192.525867,235.5272 176.755383,219.758533 157.364283,219.758533 C137.973183,219.758533 122.2027,235.529017 122.2027,254.920117 L122.2027,290.0817 L113.693433,290.0817 C104.4466,275.902617 98.2227,265.451333 95.8319667,261.35475 L95.8319667,219.758533 Z M196.931283,395.564633 C191.261467,389.869383 185.715183,383.97975 180.32695,377.98475 L252.706583,377.98475 C257.7442,383.75085 263.017983,389.622317 268.5025,395.564633 L196.931283,395.564633 Z M285.257617,413.144517 C291.0764,419.059583 297.05505,424.94195 303.18085,430.7244 L237.920733,430.7244 C230.3961,425.4161 222.960483,419.517383 215.66475,413.144517 L285.257617,413.144517 Z M165.1814,360.40305 C160.310917,354.5225 155.625733,348.64195 151.12585,342.823167 L223.400117,342.823167 C227.7692,348.32585 232.550667,354.215483 237.702733,360.40305 L165.1814,360.40305 Z M137.940483,325.241467 C133.509633,319.159267 129.344017,313.26055 125.492683,307.661583 L196.76415,307.661583 C199.409217,311.35305 203.840067,317.4625 209.738783,325.241467 L137.940483,325.241467 Z M174.945983,290.079883 L139.786217,290.079883 L139.786217,254.9183 C139.786217,245.22275 147.67055,237.338417 157.3661,237.338417 C167.06165,237.338417 174.945983,245.22275 174.945983,254.9183 L174.945983,290.079883 Z M298.012433,526.918717 C206.58505,516.650917 107.52585,351.673967 95.8356,331.668833 L95.8356,295.05755 C130.548467,349.346817 214.549317,466.37285 298.012433,474.257183 L298.012433,526.918717 Z M315.5905,492.258533 L315.5905,457.09695 L306.79965,457.09695 C294.14475,457.09695 281.28275,453.87055 268.47525,448.3061 L322.684583,448.3061 C342.489883,465.297383 363.278,483.467683 384.111533,492.258533 L315.5905,492.258533 Z M438.65695,527.421933 L315.592317,527.421933 L315.592317,527.420117 L315.592317,509.840233 L436.1336,509.840233 C436.97835,509.840233 437.8122,509.277067 438.65695,509.357 L438.65695,527.421933 L438.65695,527.421933 Z M438.65695,474.255367 L438.65695,492.258533 L437.02195,492.258533 C354.463533,483.467683 250.895367,350.8492 218.616833,307.661583 L218.898417,307.661583 L227.689267,307.661583 L236.480117,307.661583 L236.480117,295.04665 C271.1839,349.335917 355.18475,466.371033 438.65695,474.255367 Z M438.655133,219.758533 C438.65695,250.0678 328.804933,273.51915 248.477383,280.956583 C242.447867,271.446333 238.31495,264.501217 236.4783,261.35475 L236.4783,245.742317 C278.003667,243.676767 394.22855,235.158417 438.655133,203.62835 L438.655133,219.758533 Z M405.157617,201.30665 C415.045733,193.940067 421.07525,185.492567 421.07525,175.8061 C421.07525,170.962867 425.013783,167.01525 429.8661,167.01525 C434.718417,167.01525 438.65695,170.962867 438.65695,175.8061 C438.65695,185.50165 425.62055,194.045433 405.157617,201.30665 Z M473.82035,210.967683 L456.236833,210.967683 L456.236833,175.8061 C456.236833,161.267317 444.404883,149.435367 429.8661,149.435367 C415.327317,149.435367 403.495367,161.267317 403.495367,175.8061 C403.495367,181.695733 396.989883,187.603533 385.915483,193.264267 L385.915483,149.435367 L429.8661,149.435367 L429.867917,149.435367 L473.82035,149.435367 L473.82035,210.967683 L473.82035,210.967683 Z" id="Shape"></path>
            <path d="M244.989931,492.957504 C247.463517,492.957504 249.962447,492.247868 252.172455,490.772841 L252.182593,490.767772 C258.14353,486.793814 259.750348,478.739451 255.776389,472.778513 C251.802431,466.817576 243.742999,465.20569 237.782062,469.179649 C231.816056,473.153607 230.20417,481.213037 234.183197,487.173975 C236.682127,490.924905 240.792944,492.957504 244.989931,492.957504 L244.989931,492.957504 Z" id="Path"></path>
            <path d="M278.989931,508.957504 C281.463517,508.957504 283.962447,508.247868 286.172455,506.772841 L286.182593,506.767772 C292.14353,502.793814 293.750348,494.739451 289.776389,488.778513 C285.802431,482.817576 277.742999,481.20569 271.782062,485.179649 C265.816056,489.153607 264.20417,497.213037 268.183197,503.173975 C270.682127,506.924905 274.792944,508.957504 278.989931,508.957504 L278.989931,508.957504 Z" id="Path"></path>
        </g>
    </g>
</svg>