<?xml version="1.0" encoding="UTF-8"?>
<svg width="512px" height="467px" viewBox="0 0 512 467" version="1.1" xmlns="http://www.w3.org/2000/svg" xmlns:xlink="http://www.w3.org/1999/xlink">
    <!-- Generator: Sketch 53 (72520) - https://sketchapp.com -->
    <title>diving</title>
    <desc>Created with Sketch.</desc>
    <g id="Page-1" stroke="none" stroke-width="1" fill="none" fill-rule="evenodd">
        <g id="diving" fill="#404348" fill-rule="nonzero">
            <path d="M127.992188,65 L308.269531,65 C313.792969,65 318.269531,60.523438 318.269531,55 C318.269531,49.480469 313.792969,45 308.269531,45 L127.992188,45 C94.222656,45 66.746094,72.476562 66.746094,106.25 L66.746094,145.101562 C66.746094,200.296875 111.652344,245.203125 166.847656,245.203125 C198.523438,245.203125 228.664062,229.957031 247.476562,204.421875 C249.578125,201.566406 252.839844,199.929688 256.425781,199.929688 C260.007812,199.929688 263.269531,201.566406 265.371094,204.421875 C284.183594,229.957031 314.324219,245.203125 346,245.203125 C401.195312,245.203125 446.101562,200.296875 446.101562,145.101562 L446.101562,106.25 C446.101562,89.890625 439.730469,74.507812 428.160156,62.941406 C416.59375,51.371094 401.214844,45 384.851562,45 L384.425781,45 C378.902344,45 374.425781,49.480469 374.425781,55 L374.425781,55.136719 C374.425781,60.660156 378.902344,65.136719 384.425781,65.136719 C384.957031,65.136719 385.476562,65.097656 385.988281,65.015625 C396.578125,65.300781 406.496094,69.558594 414.019531,77.082031 C421.808594,84.871094 426.097656,95.230469 426.097656,106.25 L426.097656,145.101562 C426.097656,189.269531 390.164062,225.203125 346,225.203125 C320.652344,225.203125 296.53125,213 281.476562,192.558594 C275.5625,184.53125 266.429688,179.925781 256.421875,179.925781 C246.414062,179.925781 237.285156,184.53125 231.371094,192.558594 C216.3125,213 192.191406,225.203125 166.847656,225.203125 C122.679688,225.203125 86.746094,189.269531 86.746094,145.101562 L86.746094,106.25 C86.746094,83.503906 105.25,65 127.992188,65 L127.992188,65 Z" id="Path"></path>
            <path d="M214.339844,368.402344 C208.816406,368.402344 204.339844,372.878906 204.339844,378.402344 C204.339844,383.925781 208.816406,388.402344 214.339844,388.402344 L298.511719,388.402344 C304.035156,388.402344 308.511719,383.925781 308.511719,378.402344 C308.511719,372.878906 304.035156,368.402344 298.511719,368.402344 L214.339844,368.402344 Z" id="Path"></path>
            <path d="M239.058594,354.332031 L273.796875,354.332031 C279.316406,354.332031 283.796875,349.855469 283.796875,344.332031 C283.796875,338.8125 279.316406,334.332031 273.796875,334.332031 L239.058594,334.332031 C233.535156,334.332031 229.058594,338.8125 229.058594,344.332031 C229.058594,349.855469 233.535156,354.332031 239.058594,354.332031 Z" id="Path"></path>
            <path d="M273.796875,402.804688 L239.058594,402.804688 C233.535156,402.804688 229.058594,407.285156 229.058594,412.804688 C229.058594,418.328125 233.535156,422.804688 239.058594,422.804688 L273.796875,422.804688 C279.316406,422.804688 283.796875,418.328125 283.796875,412.804688 C283.796875,407.285156 279.316406,402.804688 273.796875,402.804688 Z" id="Path"></path>
            <path d="M502,72.414062 L485.796875,72.414062 C479.570312,53.042969 467.640625,35.648438 451.632812,22.832031 C433.246094,8.109375 410.121094,0 386.527344,0 L126.324219,0 C102.722656,0 79.597656,8.109375 61.210938,22.832031 C45.199219,35.648438 33.273438,53.042969 27.046875,72.414062 L10,72.414062 C4.476562,72.414062 -2.84217094e-14,76.894531 -2.84217094e-14,82.414062 L-2.84217094e-14,171.101562 C-2.84217094e-14,176.621094 4.476562,181.101562 10,181.101562 L26.394531,181.101562 C30.613281,197.742188 37.8125,213.308594 47.859375,227.460938 C51.054688,231.964844 57.296875,233.023438 61.800781,229.824219 C66.304688,226.628906 67.363281,220.386719 64.167969,215.882812 C56.558594,205.164062 50.851562,193.503906 47.128906,181.097656 C47.175781,181.097656 47.21875,181.089844 47.261719,181.089844 C47.554688,181.082031 47.847656,181.066406 48.136719,181.035156 C48.164062,181.03125 48.195312,181.027344 48.226562,181.023438 C48.53125,180.984375 48.828125,180.9375 49.125,180.878906 C49.140625,180.875 49.152344,180.867188 49.167969,180.867188 C53.660156,179.886719 57.027344,175.886719 57.027344,171.101562 L57.027344,82.414062 C57.027344,77.457031 53.203125,73.109375 48.273438,72.492188 C53.675781,59.269531 62.445312,47.460938 73.710938,38.441406 C88.78125,26.378906 106.976562,20 126.324219,20 L386.523438,20 C405.871094,20 424.0625,26.378906 439.132812,38.441406 C450.375,47.445312 459.132812,59.230469 464.539062,72.425781 C459.277344,72.652344 454.972656,77.136719 454.972656,82.414062 L454.972656,171.101562 C454.972656,176.621094 459.449219,181.101562 464.972656,181.101562 L465.703125,181.101562 C450.644531,231.273438 404.066406,266.550781 350.660156,266.550781 L299.226562,266.550781 C295.640625,266.550781 292.183594,266.703125 289.222656,264.261719 C281.5625,257.914062 269.648438,250.347656 256.417969,250.347656 C243.210938,250.347656 231.292969,257.910156 223.625,264.253906 C220.660156,266.699219 217.210938,266.550781 213.621094,266.550781 L162.179688,266.550781 C147.398438,266.550781 132.960938,263.894531 119.265625,258.652344 C114.105469,256.683594 108.328125,259.261719 106.351562,264.421875 C104.378906,269.578125 106.960938,275.359375 112.117188,277.335938 C128.101562,283.449219 144.945312,286.550781 162.179688,286.550781 L203.625,286.550781 L203.625,310.273438 C191.882812,319.242188 182.476562,331.125 176.496094,344.832031 L140.664062,344.832031 L140.664062,339.644531 C140.664062,329.878906 132.722656,321.933594 122.957031,321.933594 L92.300781,321.933594 C87.203125,321.933594 82.925781,325.769531 82.363281,330.832031 L72.34375,421.210938 C72.027344,424.035156 72.933594,426.863281 74.832031,428.980469 C76.726562,431.101562 79.4375,432.3125 82.28125,432.3125 L122.957031,432.3125 C132.722656,432.3125 140.664062,424.367188 140.664062,414.601562 L140.664062,412.308594 L175.644531,412.308594 C188.613281,444.195312 219.933594,466.738281 256.425781,466.738281 C292.914062,466.738281 324.234375,444.195312 337.203125,412.308594 L372.992188,412.308594 L372.992188,414.601562 C372.992188,424.367188 380.933594,432.3125 390.699219,432.3125 L431.375,432.3125 C434.21875,432.3125 436.929688,431.101562 438.824219,428.980469 C440.722656,426.863281 441.628906,424.035156 441.316406,421.210938 L431.292969,330.832031 C430.730469,325.769531 426.449219,321.933594 421.355469,321.933594 L390.699219,321.933594 C380.933594,321.933594 372.992188,329.878906 372.992188,339.644531 L372.992188,344.832031 L336.355469,344.832031 C330.375,331.125 320.972656,319.242188 309.226562,310.273438 L309.226562,286.550781 L350.660156,286.550781 C414.976562,286.550781 470.796875,242.679688 486.445312,181.101562 L502,181.101562 C507.523438,181.101562 512,176.621094 512,171.101562 L512,82.414062 C512,76.894531 507.523438,72.414062 502,72.414062 Z M20,92.414062 L34.601562,92.414062 C34.609375,92.414062 34.613281,92.417969 34.621094,92.417969 L37.023438,92.417969 L37.023438,161.097656 L34.398438,161.097656 C34.382812,161.097656 34.363281,161.101562 34.347656,161.101562 L20,161.101562 L20,92.414062 Z M120.664062,412.3125 L93.449219,412.3125 L101.253906,341.933594 L120.664062,341.933594 L120.664062,412.3125 Z M170.1875,392.308594 L140.664062,392.308594 L140.664062,364.828125 L170.507812,364.828125 C170.480469,364.984375 170.464844,365.144531 170.4375,365.296875 C170.269531,366.3125 170.113281,367.332031 169.980469,368.359375 C168.964844,376.300781 169.027344,384.386719 170.1875,392.308594 Z M412.402344,341.933594 L420.207031,412.3125 L392.992188,412.3125 L392.992188,402.402344 C392.992188,402.371094 392.996094,402.339844 392.996094,402.308594 L392.996094,354.828125 C392.996094,354.796875 392.992188,354.765625 392.992188,354.734375 L392.992188,341.933594 L412.402344,341.933594 Z M342.347656,364.832031 L372.992188,364.832031 L372.992188,392.308594 L342.660156,392.308594 C343.992188,383.214844 343.894531,373.890625 342.347656,364.832031 Z M320.476562,359.363281 C324.257812,371.3125 324.574219,384.285156 321.449219,396.421875 C313.953125,425.328125 287.644531,446.738281 256.425781,446.738281 C225.207031,446.738281 198.898438,425.328125 191.402344,396.421875 C187.640625,381.8125 188.910156,366.074219 195.058594,352.296875 C200.089844,341.023438 208.253906,331.230469 218.417969,324.226562 C229.609375,316.515625 243.164062,312.273438 256.773438,312.421875 C270.839844,312.570312 284.578125,316.996094 295.949219,325.304688 C306.175781,332.773438 314.210938,343.109375 318.882812,354.882812 C319.464844,356.355469 320,357.851562 320.476562,359.363281 L320.476562,359.363281 Z M286.019531,297.585938 C270.25,291.894531 252.917969,290.871094 236.589844,294.691406 C232.179688,295.722656 227.824219,297.089844 223.625,298.796875 C223.625,294.667969 223.625,290.539062 223.625,286.410156 C223.625,285.789062 223.726562,285.75 224.339844,285.589844 C224.914062,285.441406 225.511719,285.382812 226.082031,285.210938 C232.472656,283.320312 239.425781,277.007812 243.609375,274.5625 C247.136719,272.5 251.097656,270.734375 255.21875,270.398438 C259.109375,270.082031 262.984375,271.382812 266.441406,273.066406 C268.789062,274.207031 278.1875,281.804688 286.367188,285.085938 C287.082031,285.375 288.183594,285.359375 288.863281,285.703125 C289.335938,285.941406 289.226562,287.519531 289.226562,288.269531 L289.226562,292.53125 L289.226562,298.800781 C288.167969,298.367188 287.09375,297.972656 286.019531,297.585938 Z M492,161.101562 L478.496094,161.101562 C478.476562,161.101562 478.460938,161.097656 478.441406,161.097656 L474.972656,161.097656 L474.972656,92.414062 L478.222656,92.414062 L478.238281,92.414062 L492,92.414062 L492,161.101562 Z" id="Shape"></path>
            <path d="M73.609375,254.617188 C75.972656,258.132812 80.414062,259.824219 84.515625,258.71875 C88.5,257.644531 91.453125,254.148438 91.878906,250.046875 C92.300781,245.960938 90.019531,241.90625 86.34375,240.097656 C82.53125,238.226562 77.859375,239.003906 74.847656,241.996094 C71.511719,245.324219 71.007812,250.710938 73.609375,254.617188 Z" id="Path"></path>
            <path d="M338.351562,60.550781 C340.683594,64.015625 345.03125,65.722656 349.097656,64.699219 C353.101562,63.6875 356.109375,60.238281 356.601562,56.144531 C357.09375,52.003906 354.824219,47.871094 351.089844,46.039062 C347.289062,44.171875 342.601562,44.9375 339.601562,47.929688 C336.261719,51.257812 335.742188,56.628906 338.351562,60.550781 Z" id="Path"></path>
        </g>
    </g>
</svg>