<svg height="511pt" viewBox="-5 0 511 511.998" width="511pt" xmlns="http://www.w3.org/2000/svg"><path d="m450.371094 0c-24.484375 0-50.253906 9.746094-79.242188 30.261719-13.09375-18.316407-34.464844-30.261719-58.558594-30.261719-12.71875 0-24.316406 5.832031-35.53125 11.476562-9.546874 4.800782-18.566406 9.339844-26.539062 9.339844s-16.992188-4.539062-26.542969-9.339844c-11.214843-5.644531-22.808593-11.476562-35.527343-11.476562-24.078126 0-45.433594 11.929688-58.527344 30.214844-26.496094-18.75-52.832032-30.214844-79.273438-30.214844-30.453125 0-50.128906 23.738281-50.128906 60.476562v14.375c0 5.519532 4.476562 10 10 10s10-4.480468 10-10v-14.375c0-12.171874 2.933594-40.476562 30.128906-40.476562 20.707032 0 43.722656 9.246094 69.898438 28.152344-2.699219 7.597656-4.167969 15.773437-4.167969 24.289062v28.554688c-1.003906-1.730469-2.03125-3.433594-3.101563-5.082032-16.0625-24.773437-37.765624-38.417968-61.113281-38.417968-5.523437 0-10 4.476562-10 10 0 5.523437 4.476563 10 10 10 16.339844 0 32.082031 10.402344 44.332031 29.296875 12.632813 19.480469 19.878907 45.832031 19.882813 72.296875v96.230468c-53.699219-5.089843-95.859375-50.726562-95.859375-106.085937v-14.382813c0-5.523437-4.476562-10-10-10s-10 4.476563-10 10v14.382813c0 66.257813 50.890625 120.785156 115.4375 126.128906-3.097656 35.117188-23.089844 67.019531-53.730469 84.8125-4.007812 2.328125-5.890625 7.105469-4.546875 11.542969 1.28125 4.238281 5.1875 7.105469 9.566406 7.105469.203126 0 .410157-.007813.617188-.019531 39.5-2.425782 91.769531-12.917969 122.550781-69.492188l11.867188 137.121094c2.246093 25.976562 22.09375 45.5625 46.167969 45.5625 24.074218 0 43.921874-19.585938 46.171874-45.5625l12.464844-144.050782c1.871094 3.890626 3.84375 7.636719 5.941406 11.203126 2.796876 4.765624 8.925782 6.355468 13.6875 3.558593 4.761719-2.796875 6.355469-8.925781 3.558594-13.6875-4.816406-8.195312-8.988281-17.464843-12.457031-27.667969h47.230469c2.285156 29.324219 14.535156 56.828126 34.164062 78.015626-4.386718-1.082032-8.5625-2.324219-12.554687-3.730469-5.207031-1.835938-10.917969.894531-12.757813 6.105469-1.835937 5.207031.898438 10.917968 6.105469 12.757812 15.253906 5.378906 32.644531 8.605469 53.171875 9.867188 4.625.289062 8.839844-2.648438 10.183594-7.085938s-.539063-9.214844-4.550782-11.542969c-30.636718-17.796875-50.628906-49.699219-53.726562-84.8125 64.542969-5.34375 115.4375-59.871093 115.4375-126.128906v-108.757813c0-36.738281-19.679688-60.476562-50.128906-60.476562zm-199.871094 40.816406c12.71875 0 24.3125-5.835937 35.527344-11.476562 4.777344-2.402344 9.421875-4.738282 13.867187-6.472656-16.535156 15.636718-33.117187 32.355468-49.394531 48.902343-16.28125-16.546875-32.859375-33.261719-49.398438-48.902343 4.449219 1.734374 9.089844 4.070312 13.867188 6.472656 11.214844 5.640625 22.8125 11.476562 35.53125 11.476562zm-148.707031 333.003906c19.636719-21.1875 31.894531-48.699218 34.175781-78.027343h47.230469c-17.09375 50.078125-48.921875 69.957031-81.40625 78.027343zm262.84375-98.027343h-53.539063l4.191406-48.457031c.476563-5.503907-3.597656-10.351563-9.097656-10.828126-5.515625-.476562-10.351562 3.601563-10.828125 9.101563l-20.6875 239.105469c-1.171875 13.558594-10.566406 27.285156-26.246093 27.285156-15.679688 0-25.070313-13.726562-26.246094-27.289062l-20.691406-239.101563c-.472657-5.5-5.308594-9.566406-10.824219-9.101563-5.5.476563-9.574219 5.320313-9.101563 10.824219l4.195313 48.460938h-49.402344v-96.664063c0-.003906 0-.007812 0-.007812 0-.011719 0-.023438 0-.03125v-106.648438c0-3.78125.398437-7.472656 1.160156-11.03125 1.308594 1.097656 2.621094 2.207032 3.949219 3.347656 33.101562 28.433594 67.890625 67.808594 101.535156 105.890626 1.898438 2.148437 4.628906 3.378906 7.496094 3.378906s5.59375-1.230469 7.492188-3.378906c12.570312-14.226563 23.035156-26.046876 33.78125-37.898438 3.710937-4.09375 3.402343-10.417969-.691407-14.125-4.089843-3.710938-10.417969-3.402344-14.125.691406-8.609375 9.496094-17.023437 18.953125-26.457031 29.613282-35.644531-40.300782-70.335938-78.839844-104.667969-106.617188 6.269531-8.964844 15.269531-15.851562 25.757813-19.472656 23.792968 21.378906 48.164062 46.175781 71.777344 70.203125 1.878906 1.910156 4.449218 2.988281 7.132812 2.988281 2.679688 0 5.25-1.074219 7.132812-2.988281 23.613282-24.03125 47.984376-48.828125 71.773438-70.203125 10.507812 3.625 19.515625 10.527344 25.789062 19.515625-7.082031 5.722656-14.355468 12.042969-21.851562 18.980469-4.054688 3.75-4.296875 10.074218-.546875 14.128906 3.75 4.054687 10.078125 4.300781 14.132813.550781 5.667968-5.25 11.183593-10.113281 16.550781-14.597656.757812 3.554687 1.15625 7.242187 1.15625 11.027343zm115.863281-106.558594c0 55.363281-42.160156 101-95.859375 106.085937v-96.203124c0-26.476563 7.246094-52.835938 19.878906-72.324219 12.25-18.894531 27.996094-29.296875 44.335938-29.296875 5.523437 0 10-4.476563 10-10 0-5.523438-4.476563-10-10-10-23.347657 0-45.054688 13.644531-61.117188 38.417968-1.070312 1.648438-2.097656 3.351563-3.097656 5.082032v-28.554688c0-8.519531-1.476563-16.707031-4.175781-24.308594 26.300781-19.074218 49.019531-28.132812 69.90625-28.132812 27.191406 0 30.128906 28.304688 30.128906 40.476562zm0 0"/><path d="m261.371094 275.792969h-25.882813c-5.523437 0-10 4.476562-10 10 0 5.523437 4.476563 10 10 10h25.882813c5.523437 0 10-4.476563 10-10 0-5.523438-4.476563-10-10-10zm0 0"/><path d="m256.199219 338.238281h-15.539063c-5.523437 0-10 4.480469-10 10 0 5.523438 4.476563 10 10 10h15.539063c5.523437 0 10-4.476562 10-10 0-5.519531-4.476563-10-10-10zm0 0"/><path d="m256.199219 400.6875h-15.539063c-5.523437 0-10 4.476562-10 10 0 5.519531 4.476563 10 10 10h15.539063c5.523437 0 10-4.480469 10-10 0-5.523438-4.476563-10-10-10zm0 0"/><path d="m261.371094 223.753906h-25.882813c-5.523437 0-10 4.480469-10 10 0 5.523438 4.476563 10 10 10h25.882813c5.523437 0 10-4.476562 10-10 0-5.519531-4.476563-10-10-10zm0 0"/><path d="m191.53125 176.472656c-.015625 0-.027344 0-.046875 0l-20.738281.09375c-5.523438.023438-9.980469 4.523438-9.957032 10.046875.027344 5.503907 4.5 9.953125 10 9.953125h.046876l20.742187-.09375c5.523437-.027344 9.980469-4.523437 9.953125-10.046875-.023438-5.507812-4.496094-9.953125-10-9.953125zm0 0"/><path d="m326.117188 176.566406-20.742188-.097656c-.015625 0-.03125 0-.046875 0-5.5 0-9.972656 4.449219-10 9.957031-.023437 5.519531 4.433594 10.019531 9.953125 10.042969l20.742188.097656h.046874c5.5 0 9.976563-4.449218 10-9.957031.023438-5.519531-4.433593-10.019531-9.953124-10.042969zm0 0"/><path d="m311.632812 106.761719c2.398438 0 4.804688-.859375 6.722657-2.601563l.003906-.003906c4.085937-3.714844 4.386719-10.039062.671875-14.125s-10.042969-4.382812-14.128906-.667969c-4.085938 3.714844-4.386719 10.039063-.671875 14.125 1.972656 2.171875 4.679687 3.273438 7.402343 3.273438zm0 0"/><path d="m10.5 124.855469c5.523438 0 10-4.480469 10-10v-.007813c0-5.523437-4.476562-9.996094-10-9.996094s-10 4.480469-10 10.003907c0 5.523437 4.476562 10 10 10zm0 0"/><path d="m354.375 352.164062c-4.085938-3.714843-10.40625-3.410156-14.121094.675782-3.714844 4.085937-3.410156 10.414062.675782 14.128906 1.914062 1.742188 4.320312 2.601562 6.722656 2.601562 2.71875 0 5.429687-1.105468 7.402344-3.273437 3.714843-4.085937 3.414062-10.410156-.671876-14.125zm0 0"/></svg>