<?xml version="1.0" encoding="UTF-8"?>
<svg width="579px" height="545px" viewBox="0 0 579 545" version="1.1" xmlns="http://www.w3.org/2000/svg" xmlns:xlink="http://www.w3.org/1999/xlink">
    <!-- Generator: Sketch 53 (72520) - https://sketchapp.com -->
    <title>rabbit</title>
    <desc>Created with Sketch.</desc>
    <g id="Page-1" stroke="none" stroke-width="1" fill="none" fill-rule="evenodd">
        <g id="rabbit" fill="#404348" fill-rule="nonzero">
            <path d="M471.6305,214.6305 C473.76835,212.4915 475,209.5245 475,206.5 C475,203.4755 473.7695,200.5085 471.6305,198.3695 C469.4915,196.2305 466.5245,195 463.5,195 C460.4755,195 457.5085,196.2305 455.3695,198.3695 C453.23165,200.5085 452,203.4755 452,206.5 C452,209.5245 453.2305,212.4915 455.3695,214.6305 C457.5085,216.7695 460.4755,218 463.5,218 C466.5245,218 469.4915,216.7695 471.6305,214.6305 Z" id="XMLID_70_"></path>
            <path d="M201.6305,256.6305 C203.76835,254.4915 205,251.5245 205,248.5 C205,245.4755 203.7695,242.5085 201.6305,240.3695 C199.4915,238.2305 196.5245,237 193.5,237 C190.464,237 187.497,238.2305 185.358,240.3695 C183.219,242.5085 182,245.4755 182,248.5 C182,251.536 183.219,254.4915 185.358,256.6305 C187.497,258.781 190.464,260 193.5,260 C196.5245,260 199.4915,258.781 201.6305,256.6305 Z" id="XMLID_72_"></path>
            <path d="M297.71206,260 C303.94526,260 309,254.85145 309,248.5 C309,242.14855 303.94526,237 297.71206,237 L239.28794,237 C233.05474,237 228,242.14855 228,248.5 C228,254.85145 233.05474,260 239.28794,260 L297.71206,260 Z" id="XMLID_73_"></path>
            <path d="M63.5,260 C66.5245,260 69.4915,258.7695 71.62935,256.6305 C73.76835,254.4915 75,251.536 75,248.5 C75,245.4755 73.7695,242.5085 71.62935,240.3695 C69.4915,238.2305 66.5245,237 63.5,237 C60.46285,237 57.5085,238.2305 55.3695,240.3695 C53.219,242.5085 52,245.4755 52,248.5 C52,251.5245 53.219,254.4915 55.3695,256.6305 C57.5085,258.7695 60.46285,260 63.5,260 Z" id="XMLID_74_"></path>
            <path d="M578.222576,235.182529 C574.935248,208.134937 561.427462,181.536515 540.189309,160.288553 C518.951157,139.039459 492.366432,125.524713 465.333898,122.235692 C455.832649,121.079386 446.663864,121.243441 437.992646,122.624898 C422.314794,98.2972257 362.739182,11.393285 305.563194,1.0634714 C288.071488,-2.09543763 272.240973,1.79097086 258.502498,12.6163439 C245.285336,23.0298822 239.393702,36.2504595 241.21321,51.1568444 C237.847855,53.1899961 234.666825,55.6734507 231.692737,58.636625 C220.054216,70.2268342 215.36918,84.1647283 218.145372,98.9466576 C222.979678,124.699912 251.052578,153.382399 301.579274,184.199865 C305.43428,186.550944 309.265538,188.817167 313.041385,191.000797 L176.908459,191.000797 C148.606001,191.000797 120.452812,197.853774 95.4942231,210.818652 C89.9520164,213.698101 87.7909968,220.52845 90.6689638,226.073512 C92.6818444,229.953132 96.6284474,232.176361 100.715274,232.176361 C102.470325,232.176361 104.251385,231.766789 105.9171,230.901257 C127.980759,219.440029 151.865058,213.629085 176.908459,213.629085 L355.685053,213.629085 C366.105668,218.703479 372.894051,221.683624 373.519401,221.956295 C379.236887,224.456721 385.905402,221.840891 388.405671,216.115934 C390.90594,210.390977 388.292588,203.721289 382.570579,201.2186 C382.229068,201.069254 348.019144,186.042939 313.148814,164.754245 C269.709041,138.23276 243.862749,113.376717 240.371871,94.7660814 C238.986602,87.3824709 241.298023,80.9978994 247.647643,74.6755557 C253.357213,68.9913297 259.901337,66.627805 268.203904,67.2478201 C307.980913,70.1940232 367.297565,138.851644 386.795367,165.056333 C388.698557,167.616724 391.593486,169.252749 394.767731,169.563888 C397.939714,169.872764 401.099258,168.8296 403.461566,166.686701 L409.881298,160.865574 C410.01926,160.741118 410.152698,160.613269 410.283874,160.483156 C437.336764,133.41746 488.439053,140.510297 524.197086,176.289015 C541.878772,193.97868 553.09097,215.86476 555.771041,237.914895 C558.326721,258.936575 552.723449,277.526845 539.994806,290.262046 C527.266163,302.997246 508.69112,308.602273 487.67348,306.046408 C465.634699,303.366087 443.759888,292.146982 426.079333,274.456186 C421.662304,270.038013 414.504139,270.038013 410.085979,274.456186 C405.670081,278.87436 405.670081,286.038476 410.085979,290.45778 C423.118815,303.497331 438.169056,313.607651 454.096822,320.24679 L454.091168,321.291086 C453.888749,359.083721 429.575865,392.200221 393.591666,403.696523 C388.345737,405.372148 385.069717,410.584574 385.833029,416.041386 L394.773385,480.037579 C395.347848,484.15027 398.128563,487.616924 402.016363,489.06966 L421.839845,496.474767 C435.050222,501.408866 446.1957,510.204481 454.071944,521.907832 C454.130747,521.994951 454.142055,522.036813 454.142055,522.036813 C454.151102,522.121669 454.047065,522.317404 453.973561,522.357003 C453.973561,522.357003 453.932851,522.371712 453.825422,522.371712 L403.851703,522.371712 C400.223995,522.371712 396.676575,520.892953 394.122026,518.315591 C369.836282,493.815944 351.188866,463.578893 340.194919,430.87536 L326.581965,390.379775 C324.590571,384.457952 318.177623,381.268495 312.25885,383.262047 C306.338945,385.254468 303.153392,391.670719 305.144787,397.592542 L317.11238,433.191365 C294.451641,440.475411 271.042292,444.659382 247.27673,445.650501 C254.939247,433.863425 259.236408,419.93232 259.236408,405.412879 C259.236408,364.719297 226.146007,331.611848 185.473379,331.611848 L157.572366,331.611848 C151.327913,331.611848 146.264048,336.678322 146.264048,342.925992 C146.264048,349.173663 151.327913,354.240136 157.572366,354.240136 L185.473379,354.240136 C213.675194,354.240136 236.619771,377.195403 236.619771,405.412879 C236.619771,423.837962 226.657143,440.912137 210.620817,449.971372 L177.614098,468.618213 C174.10852,470.598188 171.92036,474.294519 171.867211,478.320092 L171.703241,490.676269 C171.663661,493.703934 172.836334,496.619588 174.961167,498.773801 C177.087131,500.926883 179.985453,502.140891 183.010428,502.140891 L227.026925,502.140891 C234.833057,502.140891 241.912064,507.058018 244.640761,514.374875 L247.623896,522.371712 L176.90959,522.371712 C91.8314589,522.371712 22.6166362,453.12123 22.6166362,368.000398 C22.6166362,340.785356 29.7872407,314.037588 43.35383,290.645595 C46.4873649,285.24196 44.6497632,278.317704 39.2477797,275.181423 C33.8491886,272.045142 26.9262362,273.884822 23.7915705,279.289589 C8.22680142,306.125607 0,336.802777 0,368.000398 C0,393.869057 5.57726249,418.458087 15.5885165,440.629284 C5.97192279,445.735357 0,455.666912 0,466.56017 C0,482.747316 13.1628823,495.914717 29.3405622,495.914717 L54.7560071,495.914717 C86.5357735,526.306771 129.579756,545 176.908459,545 L249.823364,545 C256.730484,545 263.207889,541.610282 267.146576,535.932845 C271.086394,530.253145 271.996714,522.997384 269.581257,516.521168 L265.830288,506.462894 C259.818786,490.342501 244.224615,479.512603 227.026925,479.512603 L204.328869,479.512603 L221.740286,469.676086 C222.408608,469.298193 223.067883,468.908987 223.720373,468.512992 L236.174224,468.512992 C266.423975,468.512992 296.240617,463.772365 324.938867,454.441591 C337.316952,484.107276 355.456625,511.444511 378.064214,534.250432 C384.835635,541.081912 394.235109,545 403.851703,545 L453.825422,545 C462.314577,545 470.064167,540.343098 474.053742,532.846346 C478.041055,525.348463 477.574021,516.31525 472.833574,509.269933 C462.30553,493.626997 447.409083,481.871602 429.751144,475.276587 L416.239965,470.229347 L409.492292,421.933792 C448.094367,405.804348 474.128377,369.148784 476.513301,327.124659 C479.315502,327.686972 482.125619,328.166691 484.943652,328.50951 C489.220458,329.02996 493.428283,329.287923 497.55695,329.287923 C520.51849,329.287923 540.940182,321.315977 555.98703,306.262508 C573.737697,288.501565 581.635426,263.259709 578.222576,235.182529 Z M397.241991,141.682443 C389.475438,132.021295 376.405284,116.501684 360.607564,100.643779 C325.469227,65.3730664 294.945815,46.5451992 269.885451,44.6828911 C267.738001,44.5233617 265.639177,44.4973392 263.578802,44.5776696 C264.017565,39.2894386 266.889877,34.8113004 272.49428,30.39539 C281.044499,23.6578172 290.541225,21.3463375 301.534041,23.3308384 C342.455451,30.7144488 392.402031,94.7151677 415.503794,129.509555 C408.86355,132.670727 402.735572,136.739293 397.241991,141.682443 Z M22.6166362,466.56017 C22.6166362,464.059745 23.989466,461.779945 26.1968497,460.612325 L26.2070272,460.606668 C28.8904911,464.96035 31.7537573,469.19184 34.7911715,473.286429 L29.3405622,473.286429 C25.6336955,473.286429 22.6166362,470.268947 22.6166362,466.56017 Z" id="XMLID_77_"></path>
        </g>
    </g>
</svg>