<?xml version="1.0" encoding="UTF-8"?>
<svg width="512px" height="512px" viewBox="0 0 512 512" version="1.1" xmlns="http://www.w3.org/2000/svg" xmlns:xlink="http://www.w3.org/1999/xlink">
    <!-- Generator: Sketch 53 (72520) - https://sketchapp.com -->
    <title>adventure</title>
    <desc>Created with Sketch.</desc>
    <g id="Page-1" stroke="none" stroke-width="1" fill="none" fill-rule="evenodd">
        <g id="adventure" fill-rule="nonzero">
            <path d="M328.652344,265.859375 C374.148438,265.859375 411.164062,228.84375 411.164062,183.347656 C411.164062,137.851562 374.148438,100.839844 328.652344,100.839844 C283.15625,100.839844 246.140625,137.851562 246.140625,183.347656 C246.140625,228.84375 283.15625,265.859375 328.652344,265.859375 Z M328.652344,245.859375 C297.589844,245.859375 271.753906,223.078125 266.953125,193.347656 L390.351562,193.347656 C385.550781,223.078125 359.714844,245.859375 328.652344,245.859375 Z M328.652344,120.839844 C359.714844,120.839844 385.550781,143.617188 390.351562,173.347656 L266.953125,173.347656 C271.753906,143.617188 297.589844,120.839844 328.652344,120.839844 Z" id="Shape" fill="#404348"></path>
            <path d="M406.414062,307.921875 C443.367188,269.800781 472.265625,223.429688 490.148438,173.460938 C508.667969,121.710938 515.613281,65.445312 510.230469,10.742188 C509.761719,5.996094 506.003906,2.238281 501.257812,1.769531 C446.554688,-3.609375 390.289062,3.335938 338.539062,21.855469 C288.570312,39.738281 242.199219,68.632812 204.078125,105.585938 L159.835938,114.839844 C140.710938,118.839844 120.660156,118.164062 101.847656,112.894531 C71.738281,104.457031 39.296875,112.953125 17.183594,135.0625 L2.929688,149.316406 C-0.976562,153.222656 -0.976562,159.554688 2.929688,163.460938 L81.660156,242.1875 C81.660156,242.191406 81.664062,242.195312 81.667969,242.195312 L104.039062,264.566406 L82.96875,285.636719 C79.0625,289.542969 79.0625,295.875 82.96875,299.78125 L102.492188,319.304688 L85.074219,336.722656 C51.679688,370.117188 35.175781,416.226562 39.800781,463.230469 C40.269531,467.976562 44.023438,471.734375 48.773438,472.203125 C53.976562,472.714844 59.164062,472.96875 64.328125,472.96875 C105.820312,472.96875 145.582031,456.628906 175.28125,426.929688 L192.699219,409.511719 L212.222656,429.035156 C214.175781,430.988281 216.734375,431.964844 219.292969,431.964844 C221.851562,431.964844 224.410156,430.988281 226.363281,429.035156 L247.433594,407.964844 L269.667969,430.195312 L348.542969,509.074219 C350.417969,510.949219 352.960938,512.003906 355.613281,512.003906 C358.265625,512.003906 360.808594,510.949219 362.683594,509.074219 L376.964844,494.792969 C399.109375,472.644531 407.621094,440.148438 399.167969,409.988281 C393.886719,391.136719 393.214844,371.046875 397.21875,351.882812 L406.414062,307.921875 Z M31.328125,149.207031 C48.335938,132.195312 73.292969,125.660156 96.449219,132.152344 C118.34375,138.285156 141.675781,139.070312 163.929688,134.414062 L178.15625,131.441406 L88.679688,220.917969 L24.144531,156.386719 L31.328125,149.207031 Z M214.167969,123.714844 C214.566406,123.316406 214.972656,122.925781 215.375,122.527344 C215.886719,122.109375 216.359375,121.648438 216.777344,121.144531 C289.851562,49.539062 389.191406,13.3125 491.042969,20.960938 C498.65625,122.285156 462.835938,221.132812 391.960938,294.101562 C390.695312,294.90625 389.621094,295.992188 388.820312,297.289062 C388.640625,297.46875 388.464844,297.652344 388.285156,297.832031 L276.9375,409.179688 L196.953125,329.191406 L229.585938,296.558594 C233.492188,292.652344 233.492188,286.320312 229.585938,282.414062 C225.679688,278.511719 219.347656,278.511719 215.441406,282.414062 L182.808594,315.050781 L102.820312,235.0625 L214.167969,123.714844 Z M161.136719,412.785156 C133.988281,439.933594 97.1875,454.28125 59.136719,452.867188 C57.710938,414.796875 72.066406,378.015625 99.214844,350.863281 L116.632812,333.445312 L178.554688,395.367188 L161.136719,412.785156 Z M219.292969,407.820312 L200.417969,388.941406 C200.222656,388.710938 104.183594,292.707031 104.183594,292.707031 L118.179688,278.710938 L233.292969,393.820312 L219.292969,407.820312 Z M362.820312,480.648438 L355.613281,487.855469 L291.082031,423.324219 L380.558594,333.84375 L377.644531,347.789062 C372.984375,370.078125 373.765625,393.453125 379.914062,415.382812 C386.414062,438.59375 379.867188,463.601562 362.820312,480.648438 Z" id="Shape" fill="#404348"></path>
            <path d="M249.515625,274.566406 C252.144531,274.566406 254.726562,273.496094 256.585938,271.636719 C258.445312,269.777344 259.515625,267.195312 259.515625,264.566406 C259.515625,261.9375 258.445312,259.355469 256.585938,257.496094 C254.726562,255.636719 252.144531,254.566406 249.515625,254.566406 C246.886719,254.566406 244.304688,255.632812 242.445312,257.496094 C240.585938,259.355469 239.515625,261.9375 239.515625,264.566406 C239.515625,267.195312 240.585938,269.777344 242.445312,271.636719 C244.304688,273.496094 246.886719,274.566406 249.515625,274.566406 Z" id="Path" fill="#000000"></path>
        </g>
    </g>
</svg>