<?xml version="1.0" encoding="UTF-8"?>
<svg width="361px" height="512px" viewBox="0 0 361 512" version="1.1" xmlns="http://www.w3.org/2000/svg" xmlns:xlink="http://www.w3.org/1999/xlink">
    <!-- Generator: Sketch 53 (72520) - https://sketchapp.com -->
    <title>geisha</title>
    <desc>Created with Sketch.</desc>
    <g id="Page-1" stroke="none" stroke-width="1" fill="none" fill-rule="evenodd">
        <g id="geisha" fill="#404348" fill-rule="nonzero">
            <path d="M158.929688,219.117188 C158.929688,224.648438 163.414062,229.136719 168.949219,229.136719 C174.480469,229.136719 178.96875,224.648438 178.96875,219.117188 C178.96875,200.445312 164.160156,190.371094 150.222656,190.371094 C136.289062,190.371094 121.480469,200.445312 121.480469,219.117188 C121.480469,224.648438 125.964844,229.136719 131.5,229.136719 C137.035156,229.136719 141.519531,224.648438 141.519531,219.117188 C141.519531,211.039062 148.179688,210.410156 150.222656,210.410156 C152.265625,210.410156 158.929688,211.039062 158.929688,219.117188 Z" id="Path"></path>
            <path d="M191.617188,229.136719 C197.152344,229.136719 201.636719,224.648438 201.636719,219.117188 C201.636719,211.039062 208.300781,210.410156 210.34375,210.410156 C212.386719,210.410156 219.046875,211.039062 219.046875,219.117188 C219.046875,224.648438 223.53125,229.136719 229.066406,229.136719 C234.601562,229.136719 239.085938,224.648438 239.085938,219.117188 C239.085938,200.445312 224.277344,190.371094 210.34375,190.371094 C196.40625,190.371094 181.597656,200.445312 181.597656,219.117188 C181.597656,224.648438 186.082031,229.136719 191.617188,229.136719 Z" id="Path"></path>
            <path d="M176.707031,250.941406 C176.105469,251.191406 175.523438,251.5 174.972656,251.863281 C174.429688,252.234375 173.910156,252.640625 173.449219,253.113281 C172.988281,253.574219 172.566406,254.085938 172.207031,254.636719 C171.84375,255.179688 171.535156,255.757812 171.285156,256.359375 C171.035156,256.972656 170.84375,257.601562 170.714844,258.234375 C170.582031,258.886719 170.523438,259.546875 170.523438,260.199219 C170.523438,260.847656 170.582031,261.511719 170.714844,262.152344 C170.84375,262.792969 171.035156,263.425781 171.285156,264.027344 C171.535156,264.636719 171.84375,265.21875 172.207031,265.757812 C172.566406,266.308594 172.988281,266.820312 173.449219,267.28125 C173.910156,267.742188 174.429688,268.164062 174.972656,268.523438 C175.523438,268.882812 176.105469,269.195312 176.707031,269.445312 C177.304688,269.695312 177.9375,269.886719 178.578125,270.015625 C179.230469,270.148438 179.882812,270.214844 180.53125,270.214844 C181.195312,270.214844 181.84375,270.148438 182.496094,270.015625 C183.136719,269.886719 183.769531,269.695312 184.371094,269.445312 C184.972656,269.195312 185.550781,268.882812 186.101562,268.523438 C186.644531,268.164062 187.15625,267.742188 187.625,267.28125 C188.085938,266.820312 188.5,266.308594 188.867188,265.757812 C189.230469,265.21875 189.539062,264.625 189.789062,264.027344 C190.042969,263.425781 190.230469,262.792969 190.363281,262.152344 C190.492188,261.511719 190.5625,260.847656 190.5625,260.199219 C190.5625,259.546875 190.492188,258.886719 190.363281,258.234375 C190.230469,257.601562 190.042969,256.972656 189.789062,256.359375 C189.539062,255.757812 189.230469,255.179688 188.867188,254.636719 C188.5,254.085938 188.085938,253.574219 187.625,253.113281 C187.15625,252.640625 186.644531,252.234375 186.101562,251.863281 C185.550781,251.5 184.972656,251.191406 184.371094,250.941406 C183.769531,250.691406 183.136719,250.5 182.496094,250.367188 C181.203125,250.109375 179.871094,250.109375 178.578125,250.367188 C177.9375,250.5 177.304688,250.691406 176.707031,250.941406 Z" id="Path"></path>
            <path d="M270.585938,338.855469 L230.378906,330.667969 L230.378906,308.03125 C244.375,299.929688 256.257812,288.546875 264.976562,274.8125 C275.117188,258.835938 280.476562,240.402344 280.476562,221.503906 L280.476562,160.511719 L330.207031,185.84375 C331.664062,186.585938 333.214844,186.9375 334.746094,186.9375 C335.203125,186.9375 335.65625,186.90625 336.101562,186.84375 C336.3125,186.816406 336.511719,186.757812 336.71875,186.714844 C336.957031,186.667969 337.195312,186.632812 337.429688,186.570312 C337.746094,186.480469 338.050781,186.363281 338.355469,186.246094 C338.46875,186.199219 338.589844,186.167969 338.707031,186.121094 C339.03125,185.980469 339.339844,185.8125 339.648438,185.636719 C339.738281,185.589844 339.828125,185.554688 339.914062,185.503906 C340.253906,185.300781 340.578125,185.066406 340.894531,184.820312 C340.9375,184.785156 340.988281,184.761719 341.03125,184.722656 C341.335938,184.476562 341.625,184.203125 341.902344,183.921875 C341.949219,183.875 342,183.835938 342.046875,183.789062 C342.332031,183.484375 342.59375,183.15625 342.839844,182.8125 C342.871094,182.773438 342.90625,182.742188 342.933594,182.699219 C343.160156,182.378906 343.355469,182.03125 343.546875,181.679688 C343.585938,181.605469 343.636719,181.542969 343.675781,181.46875 C343.675781,181.464844 343.675781,181.464844 343.679688,181.464844 C343.679688,181.457031 343.683594,181.453125 343.683594,181.449219 C354.234375,160.765625 358.039062,136.703125 354.394531,113.695312 C354.394531,113.695312 354.394531,113.695312 354.394531,113.691406 L354.394531,113.6875 C354.394531,113.683594 354.394531,113.679688 354.390625,113.675781 C350.726562,90.425781 339.953125,69.300781 323.238281,52.582031 C323.234375,52.578125 323.230469,52.574219 323.226562,52.570312 C323.226562,52.570312 323.222656,52.566406 323.222656,52.566406 C306.488281,35.84375 285.355469,25.070312 262.117188,21.40625 C262.113281,21.40625 262.113281,21.40625 262.113281,21.40625 C262.109375,21.40625 262.109375,21.40625 262.109375,21.40625 C250.269531,19.53125 238.347656,19.582031 226.589844,21.527344 C215.558594,8.378906 199.011719,0 180.542969,0 C147.394531,0 120.425781,26.96875 120.425781,60.117188 C120.425781,63.175781 120.667969,66.191406 121.117188,69.160156 L96.960938,45.007812 C99.304688,40.738281 100.636719,35.84375 100.636719,30.640625 C100.636719,14.105469 87.183594,0.652344 70.648438,0.652344 C54.113281,0.652344 40.660156,14.105469 40.660156,30.640625 C40.660156,47.175781 54.113281,60.628906 70.648438,60.628906 C74.664062,60.628906 78.5,59.828125 82.003906,58.390625 L111.078125,87.464844 C107.125,91.289062 103.488281,95.429688 100.207031,99.855469 L56.957031,97.113281 C52.085938,87.128906 41.828125,80.230469 29.988281,80.230469 C13.453125,80.230469 5.68434189e-14,93.683594 5.68434189e-14,110.21875 C5.68434189e-14,126.753906 13.453125,140.207031 29.988281,140.207031 C44.074219,140.207031 55.914062,130.441406 59.117188,117.332031 L88.972656,119.222656 C83.589844,131.484375 80.597656,145.019531 80.597656,159.242188 L80.597656,221.503906 C80.597656,257.269531 99.449219,289.761719 130.183594,307.734375 L130.183594,331.628906 L108.519531,338.851562 L91.089844,338.851562 C40.863281,338.851562 5.68434189e-14,379.710938 5.68434189e-14,429.929688 L5.68434189e-14,501.980469 C5.68434189e-14,507.511719 4.484375,512 10.019531,512 L350.613281,512 C356.148438,512 360.632812,507.511719 360.632812,501.980469 L360.632812,429.929688 C360.632812,380.054688 320.335938,339.414062 270.585938,338.855469 Z M29.988281,120.164062 C24.5,120.164062 20.039062,115.703125 20.039062,110.214844 C20.039062,104.730469 24.503906,100.265625 29.988281,100.265625 C35.472656,100.265625 39.9375,104.730469 39.9375,110.214844 C39.9375,115.703125 35.476562,120.164062 29.988281,120.164062 Z M301.585938,60.050781 L261.222656,100.410156 C260.824219,99.867188 260.417969,99.328125 260.007812,98.792969 L268.789062,43.308594 C280.765625,46.574219 291.871094,52.238281 301.585938,60.050781 L301.585938,60.050781 Z M332.496094,107.011719 L273.640625,116.332031 L315.757812,74.21875 C323.566406,83.929688 329.230469,95.03125 332.496094,107.011719 L332.496094,107.011719 Z M329.875,163.1875 L277.914062,136.71875 C277.859375,136.46875 277.796875,136.222656 277.738281,135.972656 L335.609375,126.808594 C336.167969,139.175781 334.210938,151.632812 329.875,163.1875 L329.875,163.1875 Z M248.996094,40.195312 L242.539062,80.980469 C241.070312,79.8125 239.578125,78.683594 238.058594,77.601562 C239.773438,71.972656 240.660156,66.125 240.660156,60.117188 C240.660156,53.203125 239.472656,46.5625 237.3125,40.375 C241.199219,40.058594 245.097656,40.011719 248.996094,40.195312 Z M180.542969,20.039062 C202.640625,20.039062 220.621094,38.019531 220.621094,60.117188 C220.621094,62.59375 220.386719,65.027344 219.949219,67.414062 C207.648438,62.101562 194.300781,59.304688 180.542969,59.304688 C166.554688,59.304688 153.234375,62.199219 141.132812,67.410156 C140.695312,65.023438 140.464844,62.59375 140.464844,60.117188 C140.464844,38.019531 158.445312,20.039062 180.542969,20.039062 Z M60.699219,30.640625 C60.699219,25.152344 65.164062,20.6875 70.648438,20.6875 C76.132812,20.6875 80.597656,25.152344 80.597656,30.640625 C80.597656,36.125 76.132812,40.589844 70.648438,40.589844 C65.164062,40.589844 60.699219,36.125 60.699219,30.640625 Z M142.027344,118.414062 C143.984375,120.367188 146.546875,121.347656 149.113281,121.347656 C151.675781,121.347656 154.242188,120.367188 156.195312,118.414062 C160.109375,114.5 160.109375,108.15625 156.195312,104.242188 L141.515625,89.558594 C153.066406,83.066406 166.375,79.34375 180.542969,79.34375 C194.757812,79.34375 208.425781,83.09375 220.453125,90.101562 C220.644531,90.222656 220.84375,90.332031 221.046875,90.441406 C226.769531,93.839844 232.117188,97.976562 236.957031,102.820312 C242.386719,108.25 246.925781,114.320312 250.535156,120.839844 C250.679688,121.125 250.839844,121.40625 251.011719,121.683594 C252.660156,124.746094 254.082031,127.914062 255.308594,131.160156 C255.355469,131.296875 255.414062,131.429688 255.464844,131.566406 C258.722656,140.324219 260.4375,149.65625 260.4375,159.242188 L260.4375,169.109375 C258.929688,167.203125 257.347656,165.015625 256.074219,163.253906 C250.667969,155.78125 243.9375,146.480469 234.507812,140.609375 C222.769531,133.296875 209.597656,132.832031 195.359375,139.226562 C185.917969,142.195312 175.429688,142.222656 165.925781,139.300781 C151.300781,132.886719 137.859375,133.363281 125.964844,140.726562 C116.355469,146.675781 109.652344,156.011719 104.261719,163.511719 C103.199219,164.996094 101.902344,166.796875 100.632812,168.449219 L100.632812,159.242188 C100.632812,143.457031 105.253906,128.742188 113.1875,116.335938 C113.539062,115.878906 113.851562,115.390625 114.125,114.875 C117.347656,110.066406 121.089844,105.636719 125.253906,101.640625 L142.027344,118.414062 Z M100.636719,221.503906 L100.636719,192.679688 C109.101562,191.117188 114.671875,183.375 120.542969,175.203125 C132.144531,159.046875 140.472656,149.816406 158.273438,157.828125 C158.621094,157.984375 158.976562,158.117188 159.339844,158.234375 C166.171875,160.414062 173.304688,161.519531 180.539062,161.519531 C187.910156,161.519531 195.160156,160.375 202.085938,158.113281 C202.457031,157.992188 202.820312,157.847656 203.175781,157.6875 C219.488281,150.160156 227.222656,157.554688 239.839844,175 C245.929688,183.417969 251.707031,191.398438 260.4375,193.035156 L260.4375,221.5 C260.4375,251.515625 242.953125,279.613281 215.886719,293.09375 C204.839844,298.601562 192.945312,301.398438 180.542969,301.398438 C167.964844,301.398438 155.914062,298.523438 144.726562,292.859375 C117.53125,279.097656 100.636719,251.757812 100.636719,221.503906 Z M143.371094,348.355469 C147.464844,346.992188 150.222656,343.164062 150.222656,338.851562 L150.222656,316.683594 C160,319.808594 170.265625,321.441406 180.542969,321.441406 C190.792969,321.441406 200.765625,319.90625 210.339844,316.882812 L210.339844,338.851562 C210.339844,343.617188 213.695312,347.71875 218.359375,348.671875 L247.480469,354.601562 L180.878906,411.742188 L127.910156,353.511719 L143.371094,348.355469 Z M205.203125,491.960938 L190.273438,475.957031 C186.496094,471.910156 180.15625,471.695312 176.109375,475.46875 C172.0625,479.246094 171.84375,485.585938 175.621094,489.628906 L177.796875,491.960938 L80.085938,491.960938 L80.085938,469.917969 C80.085938,464.386719 75.601562,459.898438 70.066406,459.898438 C64.535156,459.898438 60.046875,464.386719 60.046875,469.917969 L60.046875,491.960938 L20.039062,491.960938 L20.039062,429.929688 C20.039062,401.816406 36.460938,377.464844 60.214844,365.957031 L119.277344,429.25 C121.25,431.363281 123.921875,432.433594 126.601562,432.433594 C129.050781,432.433594 131.507812,431.539062 133.4375,429.738281 C137.484375,425.964844 137.703125,419.621094 133.925781,415.578125 L81.632812,359.539062 C84.730469,359.125 87.882812,358.890625 91.089844,358.890625 L105.714844,358.890625 L226.757812,491.960938 L205.203125,491.960938 Z M340.59375,491.960938 L300.515625,491.960938 L300.515625,469.917969 C300.515625,464.386719 296.03125,459.898438 290.496094,459.898438 C284.964844,459.898438 280.476562,464.386719 280.476562,469.917969 L280.476562,491.960938 L253.847656,491.960938 L194.367188,426.570312 L273.148438,358.980469 C310.660156,360.863281 340.59375,391.964844 340.59375,429.929688 L340.59375,491.960938 Z" id="Shape"></path>
            <path d="M147.507812,460.230469 C148.050781,460.589844 148.628906,460.898438 149.230469,461.152344 C149.84375,461.402344 150.472656,461.601562 151.105469,461.722656 C151.757812,461.851562 152.417969,461.921875 153.070312,461.921875 C153.71875,461.921875 154.382812,461.851562 155.023438,461.722656 C155.664062,461.601562 156.296875,461.402344 156.894531,461.152344 C157.507812,460.898438 158.089844,460.589844 158.628906,460.230469 C159.179688,459.867188 159.691406,459.449219 160.152344,458.988281 C162.015625,457.121094 163.089844,454.539062 163.089844,451.902344 C163.089844,451.253906 163.019531,450.589844 162.886719,449.949219 C162.757812,449.308594 162.566406,448.675781 162.316406,448.066406 C162.066406,447.464844 161.757812,446.882812 161.394531,446.339844 C161.035156,445.789062 160.613281,445.28125 160.152344,444.820312 C159.691406,444.359375 159.179688,443.9375 158.628906,443.566406 C158.089844,443.214844 157.507812,442.90625 156.894531,442.65625 C156.296875,442.402344 155.664062,442.203125 155.023438,442.074219 C153.730469,441.8125 152.398438,441.8125 151.105469,442.074219 C150.472656,442.203125 149.84375,442.402344 149.230469,442.65625 C148.628906,442.90625 148.050781,443.214844 147.507812,443.566406 C146.957031,443.9375 146.445312,444.359375 145.984375,444.820312 C145.523438,445.28125 145.101562,445.789062 144.734375,446.339844 C144.371094,446.882812 144.0625,447.464844 143.8125,448.066406 C143.558594,448.675781 143.371094,449.308594 143.238281,449.949219 C143.109375,450.589844 143.050781,451.253906 143.050781,451.902344 C143.050781,454.539062 144.113281,457.121094 145.984375,458.988281 C146.445312,459.449219 146.957031,459.867188 147.507812,460.230469 Z" id="Path"></path>
        </g>
    </g>
</svg>