<?xml version="1.0" encoding="UTF-8"?>
<svg width="74px" height="32px" viewBox="0 0 74 32" version="1.1" xmlns="http://www.w3.org/2000/svg" xmlns:xlink="http://www.w3.org/1999/xlink">
    <!-- Generator: Sketch 53 (72520) - https://sketchapp.com -->
    <title>GGTO_logo_Oranje_zonder ondertitel</title>
    <desc>Created with Sketch.</desc>
    <defs>
        <polygon id="path-1" points="0.0096969697 0.0808080808 73.2929293 0.0808080808 73.2929293 31.990303 0.0096969697 31.990303"></polygon>
    </defs>
    <g id="Forms" stroke="none" stroke-width="1" fill="none" fill-rule="evenodd">
        <g id="Desktop-HD---Form-1" transform="translate(-673.000000, -628.000000)">
            <g id="Form_1" transform="translate(245.000000, 255.000000)">
                <g id="Group" transform="translate(407.000000, 349.000000)">
                    <g id="GGTO_logo_Oranje_zonder-ondertitel" transform="translate(21.000000, 24.000000)">
                        <text id="---" font-family="LucidaGrande, Lucida Grande" font-size="12" font-weight="normal"></text>
                        <g id="Group-3">
                            <mask id="mask-2" fill="white">
                                <use xlink:href="#path-1"></use>
                            </mask>
                            <g id="Clip-2"></g>
                            <polygon id="Fill-1" fill="#ED9F2D" mask="url(#mask-2)" points="0.0096969697 31.990303 73.2929293 31.990303 73.2929293 0.0808080808 0.0096969697 0.0808080808"></polygon>
                        </g>
                        <path d="M20.7841616,24.9095758 C20.7841616,25.7667879 20.135596,26.4615758 19.3357576,26.4615758 L6.17923232,26.4615758 C5.37939394,26.4615758 4.7309899,25.7667879 4.7309899,24.9095758 L4.7309899,7.07183838 C4.7309899,6.21462626 5.37939394,5.51983838 6.17923232,5.51983838 L19.3357576,5.51983838 C20.135596,5.51983838 20.7841616,6.21462626 20.7841616,7.07183838 L20.7841616,24.9095758" id="Fill-4" fill="#005C9C"></path>
                        <path d="M11.7042424,11.9314747 C11.7042424,11.9314747 11.9655758,12.450101 12.3393939,12.5772929 C12.3393939,12.5772929 12.5785859,12.6453333 12.6831515,12.3642828 C12.6831515,12.3642828 12.8549495,11.9400404 12.8924444,11.735596 L12.9444848,11.735596 L13.2733737,12.5858586 C13.2733737,12.5858586 13.3255758,12.8832323 13.0642424,13.266101 C13.0642424,13.266101 12.7427879,13.911596 12.5113535,14.0903434 C12.279596,14.2684444 11.906101,14.6511515 11.5922424,14.8892121 C11.5922424,14.8892121 9.91094949,16.1811717 9.41042424,16.8101818 C9.41042424,16.8101818 8.39418182,18.1018182 8.23757576,19.1130505 C8.23757576,19.1130505 8.14771717,19.5384242 8.30480808,20.0219798 C8.30480808,20.0219798 8.41567677,20.4012929 8.35232323,20.5724444 C8.34537374,20.5900606 8.33745455,20.6050909 8.32694949,20.617697 C8.21494949,20.7534545 7.79652525,21.1783434 7.00460606,21.1269495 C7.00460606,21.1269495 5.85406061,21.1356768 5.53260606,20.9743838 C5.53260606,20.9743838 4.85252525,20.7872323 4.8749899,21.1864242 C4.8749899,21.1864242 4.91991919,21.5269495 5.62989899,21.5434343 C5.62989899,21.5434343 6.56371717,21.6879192 6.84767677,21.7561212 C6.84767677,21.7561212 7.49785859,21.8834747 7.92339394,21.5775354 C7.92339394,21.5775354 8.50327273,21.1151515 8.75054545,21.1928889 C8.76492929,21.197899 8.77834343,21.2035556 8.79046465,21.2121212 C9.00686869,21.3648485 9.26092929,21.7902222 9.216,22.1638788 C9.216,22.1638788 9.20145455,22.4360404 9.10416162,22.5042424 C9.10416162,22.5042424 8.96226263,22.8444444 9.36549495,22.9121616 C9.36549495,22.9121616 9.58222222,23.0652121 9.62715152,23.2011313 C9.62715152,23.2011313 10.1126465,23.3456162 10.3219394,23.7787475 C10.3219394,23.7787475 10.9498182,24.5267071 10.9271919,24.1192727 C10.9271919,24.1192727 11.0167273,24.0935758 11.0618182,24.2128485 C11.0618182,24.2128485 11.3981414,24.3988687 11.4278788,24.1527273 C11.4278788,24.1527273 11.6594747,24.2975354 11.622303,23.9660606 C11.622303,23.9660606 11.8089697,23.9148283 11.7042424,23.7281616 C11.7042424,23.7281616 11.5324444,23.4050909 11.5175758,23.2950303 C11.5175758,23.2950303 11.5027071,23.1671919 11.2709495,23.1754343 C11.2709495,23.1754343 10.120404,22.8783838 9.97074747,22.5042424 C9.97074747,22.5042424 9.97866667,22.2663434 9.97866667,22.2917172 C9.97866667,22.3170909 11.1290505,22.3594343 11.1437576,21.7050505 C11.1437576,21.7050505 11.5922424,21.5014141 12.9147475,21.560404 C12.9147475,21.560404 13.3330101,21.8495354 13.2135758,21.5094949 C13.2135758,21.5094949 13.5127273,21.5864242 13.4228687,21.348202 L13.4826667,21.2630303 L13.5723636,21.2294141 C13.5723636,21.2294141 13.6544646,21.1696162 13.5127273,21.0254545 L13.1314747,20.7274343 C13.1314747,20.7274343 12.1302626,20.7361616 11.6745051,20.9236364 L12.3692929,20.1330101 C12.3692929,20.1330101 12.5635556,19.878303 12.1598384,19.8275556 C12.1598384,19.8275556 11.9807677,19.7591919 12.1598384,19.5127273 C12.1598384,19.5127273 12.6980202,18.9517576 12.7203232,18.9517576 C12.7426263,18.9517576 14.1100606,18.8583434 14.1323636,18.8583434 C14.1551515,18.8583434 14.4538182,18.7901414 14.5360808,19.1896566 C14.5360808,19.1896566 15.3357576,21.5949899 15.4180202,22.121697 C15.4180202,22.121697 15.6195556,23.0564848 15.5523232,23.3541818 C15.5523232,23.3541818 15.4550303,23.7787475 15.7837576,23.6769293 C15.7837576,23.6769293 16.1128081,24.2041212 16.0602828,24.9687273 C16.0602828,24.9687273 16.0004848,25.4025051 16.2244848,25.4613333 C16.2244848,25.4613333 16.1564444,25.8104242 16.4638384,25.8104242 C16.4861414,25.8104242 16.7329293,25.8191515 16.8374949,25.7081212 L16.8822626,25.7252525 C16.8822626,25.7252525 16.9417374,25.9461818 17.3902222,25.8356364 C17.3902222,25.8356364 17.6143838,25.7339798 17.5549091,25.6746667 C17.5549091,25.6746667 17.9880404,25.7593535 17.5694545,25.1048081 C17.5694545,25.1048081 17.8387071,24.7985455 17.4349899,24.7568485 C17.4349899,24.7568485 16.605899,24.6118788 16.5385051,23.5667071 C16.5385051,23.5667071 16.434101,22.4360404 16.2695758,21.8665051 C16.2695758,21.8665051 15.9484444,20.2351515 15.9781818,19.1555556 C15.9781818,19.1555556 16.0155152,17.5064242 16.2993131,17.8291717 C16.2993131,17.8291717 16.695596,18.7138586 16.8972929,18.9858586 C17.0988283,19.257697 17.7494949,20.103596 17.7116768,20.3196768 C17.7040808,20.3623434 17.7116768,20.9488485 18.0329697,20.8551111 C18.0329697,20.8551111 18.5110303,21.3735758 18.4885657,21.382303 C18.466101,21.3908687 18.3151515,22.0455758 18.9519192,22.0455758 C19.0041212,22.0455758 19.6617374,22.0109899 19.6617374,22.0109899 C19.6617374,22.0109899 20.1848889,21.7734141 19.6017778,21.3569293 C19.6017778,21.3569293 19.2583434,21.3648485 19.1539394,21.3061818 C19.0490505,21.2462222 18.8774141,21.1864242 18.8101818,20.9826263 C18.8101818,20.9826263 18.2571313,19.5890101 18.0628687,19.2242424 C18.0628687,19.2242424 17.6072727,17.7787475 17.4650505,17.4980202 C17.4650505,17.4980202 17.3231515,17.0993131 17.4650505,16.4105051 C17.6072727,15.7220202 17.5694545,15.1271111 17.1660606,14.6939798 C17.1660606,14.6939798 16.9121616,14.1074747 16.9270303,13.9453737 C16.9270303,13.9453737 16.8748283,13.6651313 16.5608081,13.266101 C16.5608081,13.266101 16.3366465,12.9003636 16.2844444,12.5352727 C16.2844444,12.5352727 15.522101,10.8517172 15.2384646,10.4526869 C15.2384646,10.4526869 15.2234343,10.0530101 15.3205657,9.82367677 C15.3205657,9.82367677 16.1200808,8.65955556 16.0080808,8.21721212 C16.0080808,8.21721212 15.8364444,7.74141414 15.559596,8.01309091 C15.559596,8.01309091 15.4582626,8.15515152 15.4102626,7.93680808 C15.4029899,7.90286869 15.4029899,7.01090909 15.4029899,7.01090909 C15.4029899,7.01090909 15.320404,6.68783838 15.2158384,6.66214141 C15.2158384,6.66214141 15.216,6.39030303 15.0217374,6.4919596 C15.0217374,6.4919596 14.7977374,6.48339394 14.7229091,6.63660606 C14.7229091,6.63660606 14.1624242,7.51240404 14.0580202,7.68210101 C13.9531313,7.85212121 13.7811717,8.01309091 13.7811717,8.01309091 C13.7811717,8.01309091 13.3406061,7.98787879 13.2135758,8.14109091 C13.2135758,8.14109091 12.8625455,8.35361616 12.7652525,8.71078788 C12.7652525,8.71078788 12.461899,9.12759596 12.4216566,9.39862626 C12.4140606,9.44969697 12.3094949,9.7129697 12.1824646,9.74707071 C12.1824646,9.74707071 12.018101,9.78117172 12.0105051,10.0612525 C12.0105051,10.0612525 11.9733333,10.1719596 11.8537374,10.2826667 C11.8537374,10.2826667 11.846303,10.758303 11.8015354,10.9876364 C11.8015354,10.9876364 11.6370101,11.7782626 11.7042424,11.9314747" id="Fill-5" fill="#FFFFFE"></path>
                        <path d="M27.590303,12.1407677 C26.5889293,12.1407677 26.0879192,12.6673131 26.0879192,13.7212121 L26.0879192,17.7334949 C26.0879192,18.7870707 26.5921616,19.3137778 27.5998384,19.3137778 L31.0487273,19.3137778 L31.0487273,12.1407677 L27.590303,12.1407677 Z M34.0129293,10.6115556 L34.0129293,21.9814141 C34.0129293,25.0120404 32.5307475,26.5265455 29.5665455,26.5265455 L26.4832323,26.5265455 C25.5347071,26.5265455 25.0572929,26.0140606 25.0506667,24.9882828 C25.0438788,23.9683232 25.5148283,23.4587475 26.4635152,23.4587475 L29.9912727,23.4587475 C30.6960808,23.4658586 31.0487273,23.1101414 31.0487273,22.3914343 L27.5704242,22.3914343 C24.6062222,22.3914343 23.1238788,20.818101 23.1238788,17.671596 L23.1238788,13.7212121 C23.1238788,10.6084848 24.6223838,9.05179798 27.6198788,9.05179798 L32.5603232,9.05179798 C33.5287273,9.05179798 34.0129293,9.57236364 34.0129293,10.6115556 L34.0129293,10.6115556 Z" id="Fill-6" fill="#FFFFFE"></path>
                        <path d="M40.455596,12.1407677 C39.4545455,12.1407677 38.9540202,12.6673131 38.9540202,13.7212121 L38.9540202,17.7334949 C38.9540202,18.7870707 39.458101,19.3137778 40.4657778,19.3137778 L43.9143434,19.3137778 L43.9143434,12.1407677 L40.455596,12.1407677 Z M46.8783838,10.6115556 L46.8783838,21.9814141 C46.8783838,25.0120404 45.3965253,26.5265455 42.4321616,26.5265455 L39.3490101,26.5265455 C38.4006465,26.5265455 37.9225859,26.0140606 37.9164444,24.9882828 C37.9096566,23.9683232 38.3807677,23.4587475 39.3291313,23.4587475 L42.8570505,23.4587475 C43.5615354,23.4658586 43.9143434,23.1101414 43.9143434,22.3914343 L40.4363636,22.3914343 C37.472,22.3914343 35.9894949,20.818101 35.9894949,17.671596 L35.9894949,13.7212121 C35.9894949,10.6084848 37.4878384,9.05179798 40.4853333,9.05179798 L45.4259394,9.05179798 C46.3943434,9.05179798 46.8783838,9.57236364 46.8783838,10.6115556 L46.8783838,10.6115556 Z" id="Fill-7" fill="#FFFFFE"></path>
                        <path d="M55.8015354,20.9037576 C55.8015354,21.9167677 55.3073131,22.4226263 54.3188687,22.4226263 L53.3014949,22.4226263 C50.3371313,22.4226263 48.8552727,20.8494545 48.8552727,17.7027879 L48.8552727,7.54408081 C48.8552727,6.51765657 49.3488485,6.00452525 50.3371313,6.00452525 C51.3318788,5.99773737 51.8259394,6.51054545 51.8196364,7.54408081 L51.8196364,9.07264646 L54.2307879,9.0829899 C55.2644848,9.07620202 55.7819798,9.58545455 55.7819798,10.6115556 C55.7819798,11.6106667 55.2809697,12.1208889 54.2797576,12.1407677 L51.8196364,12.1307475 L51.8196364,17.7743838 C51.8196364,18.8213333 52.3230707,19.344 53.3312323,19.344 L54.3390707,19.3543434 C55.3139394,19.3543434 55.8015354,19.8705455 55.8015354,20.9037576" id="Fill-8" fill="#FFFFFE"></path>
                        <path d="M62.1651717,12.1611313 C61.1899798,12.1611313 60.7028687,12.6708687 60.7028687,13.6903434 L60.7028687,17.7438384 C60.7028687,18.7967677 61.1899798,19.3236364 62.1651717,19.3236364 L64.1614545,19.3236364 C65.1626667,19.3236364 65.6630303,18.7967677 65.6630303,17.7438384 L65.6630303,13.6489697 C65.6630303,12.6576162 65.1626667,12.1611313 64.1614545,12.1611313 L62.1651717,12.1611313 Z M62.1944242,9.06246465 L64.1614545,9.06246465 C67.1382626,9.06246465 68.6275556,10.6049293 68.6275556,13.6903434 L68.6275556,17.6816162 C68.6275556,20.8286061 67.145697,22.402101 64.1806869,22.402101 L62.1553131,22.402101 C59.2105051,22.402101 57.7383434,20.8628687 57.7383434,17.7845657 L57.7383434,13.7003636 C57.7383434,10.6084848 59.2240808,9.06246465 62.1944242,9.06246465 L62.1944242,9.06246465 Z" id="Fill-9" fill="#FFFFFE"></path>
                        <path d="M24.2616566,5.98092929 C24.1063434,5.98092929 24.0284444,6.06028283 24.0284444,6.21866667 L24.0284444,6.82149495 C24.0284444,6.98020202 24.1066667,7.05923232 24.2631111,7.05923232 L24.797899,7.05923232 L24.797899,5.98092929 L24.2616566,5.98092929 Z M25.2578586,5.75127273 L25.2578586,7.46084848 C25.2578586,7.91612121 25.0278788,8.144 24.5680808,8.144 L24.0898586,8.144 C23.9426263,8.144 23.8686061,8.06674747 23.8674747,7.91240404 C23.8665051,7.75935354 23.9395556,7.68290909 24.0867879,7.68290909 L24.6338586,7.68290909 C24.7432727,7.68371717 24.797899,7.62989899 24.797899,7.52226263 L24.2584242,7.52226263 C23.7986263,7.52226263 23.5686465,7.28565657 23.5686465,6.81244444 L23.5686465,6.21866667 C23.5686465,5.75062626 23.8012121,5.51660606 24.2660202,5.51660606 L25.032404,5.51660606 C25.1827071,5.51660606 25.2578586,5.59466667 25.2578586,5.75127273 L25.2578586,5.75127273 Z" id="Fill-10" fill="#1A1919"></path>
                        <path d="M26.7873939,6.44218182 L26.7873939,5.984 L26.2585859,5.984 C26.102303,5.984 26.0240808,6.06335354 26.0240808,6.22157576 L26.0240808,6.44218182 L26.7873939,6.44218182 Z M27.021899,7.52694949 C26.8652929,7.52694949 26.7873939,7.44872727 26.7873939,7.29244444 L26.7873939,6.90828283 L26.0255354,6.90682828 L26.0240808,7.29244444 C26.0240808,7.44872727 25.9476364,7.52694949 25.7942626,7.52694949 C25.6408889,7.52694949 25.5642828,7.44969697 25.5642828,7.29535354 L25.5642828,6.23111111 C25.5642828,5.75806061 25.7942626,5.52129293 26.253899,5.52129293 L27.0173737,5.52274747 C27.1704242,5.52274747 27.2471919,5.5990303 27.2471919,5.75127273 L27.2471919,7.29244444 C27.2471919,7.44872727 27.1718788,7.52694949 27.021899,7.52694949 L27.021899,7.52694949 Z" id="Fill-11" fill="#1A1919"></path>
                        <path d="M28.8670707,6.36993939 C28.7106263,6.36993939 28.6325657,6.29155556 28.6325657,6.13527273 L28.6325657,5.984 L28.2540606,5.984 C28.0976162,5.984 28.0195556,6.06335354 28.0195556,6.22157576 L28.0195556,7.29244444 C28.0195556,7.44872727 27.9429495,7.52694949 27.7895758,7.52694949 C27.6365253,7.52694949 27.5597576,7.44969697 27.5597576,7.29535354 L27.5597576,6.23111111 C27.5597576,5.75806061 27.7895758,5.52129293 28.2495354,5.52129293 L28.8627071,5.52274747 C29.0157576,5.52274747 29.0923636,5.5990303 29.0923636,5.75127273 L29.0923636,6.13527273 C29.0923636,6.29155556 29.0172121,6.36993939 28.8670707,6.36993939" id="Fill-12" fill="#1A1919"></path>
                        <path d="M30.6236768,6.44218182 L30.6236768,5.984 L30.0947071,5.984 C29.9385859,5.984 29.8603636,6.06335354 29.8603636,6.22157576 L29.8603636,6.44218182 L30.6236768,6.44218182 Z M30.8581818,7.52694949 C30.701899,7.52694949 30.6236768,7.44872727 30.6236768,7.29244444 L30.6236768,6.90828283 L29.8619798,6.90682828 L29.8603636,7.29244444 C29.8603636,7.44872727 29.7837576,7.52694949 29.6303838,7.52694949 C29.4771717,7.52694949 29.4005657,7.44969697 29.4005657,7.29535354 L29.4005657,6.23111111 C29.4005657,5.75806061 29.6303838,5.52129293 30.0901818,5.52129293 L30.8534949,5.52274747 C31.0067071,5.52274747 31.0833131,5.5990303 31.0833131,5.75127273 L31.0833131,7.29244444 C31.0833131,7.44872727 31.0084848,7.52694949 30.8581818,7.52694949 L30.8581818,7.52694949 Z" id="Fill-13" fill="#1A1919"></path>
                        <path d="M31.3960404,7.28921212 L31.3960404,5.75127273 C31.3960404,5.5990303 31.4726465,5.52274747 31.6260202,5.52274747 L32.3953131,5.52129293 C32.8552727,5.52129293 33.0849293,5.75806061 33.0849293,6.23111111 L33.0849293,7.29535354 C33.0849293,7.44969697 33.0084848,7.52694949 32.8552727,7.52694949 C32.701899,7.52694949 32.6252929,7.44872727 32.6252929,7.29244444 L32.6252929,6.22157576 C32.6252929,6.06335354 32.5475556,5.984 32.3922424,5.984 L31.8558384,5.984 L31.8558384,7.28921212 C31.8558384,7.44549495 31.778101,7.52387879 31.6229495,7.52387879 C31.4715152,7.52387879 31.3960404,7.44549495 31.3960404,7.28921212" id="Fill-14" fill="#1A1919"></path>
                        <path d="M34.4690101,7.29858586 C34.4690101,7.45066667 34.3925657,7.52694949 34.2391919,7.52694949 L34.0811313,7.52694949 C33.6214949,7.52694949 33.3915152,7.29018182 33.3915152,6.81713131 L33.3915152,5.28969697 C33.3915152,5.13567677 33.4681212,5.05858586 33.6214949,5.05858586 C33.7756768,5.05729293 33.8526061,5.13438384 33.8514747,5.28969697 L33.8514747,5.51967677 L34.2254545,5.52129293 C34.3857778,5.52032323 34.4659394,5.59692929 34.4659394,5.75127273 C34.4659394,5.90141414 34.3883636,5.97785859 34.2328889,5.98092929 L33.8514747,5.97947475 L33.8514747,6.82812121 C33.8514747,6.98553535 33.9295354,7.06424242 34.0861414,7.06424242 L34.2422626,7.06569697 C34.3935354,7.06569697 34.4690101,7.14311111 34.4690101,7.29858586" id="Fill-15" fill="#1A1919"></path>
                        <path d="M35.2583375,4.93187879 C35.20561,4.95143434 35.1645997,4.97987879 35.134838,5.01672727 C35.1050762,5.05373737 35.0903125,5.09236364 35.0903125,5.13228283 C35.0903125,5.17171717 35.1050762,5.20921212 35.134838,5.24573737 C35.1645997,5.28242424 35.2051413,5.31070707 35.2569314,5.33058586 C35.3089559,5.35062626 35.3635582,5.36080808 35.4214413,5.36080808 C35.4776839,5.36080808 35.5320518,5.35062626 35.5850137,5.33058586 C35.6375069,5.31070707 35.6782828,5.28242424 35.7071072,5.24573737 C35.7361659,5.20921212 35.7504609,5.17171717 35.7504609,5.13228283 C35.7504609,5.09236364 35.7356972,5.05373737 35.7059354,5.01672727 C35.6761737,4.97987879 35.6351634,4.95143434 35.5826703,4.93187879 C35.5299427,4.91232323 35.4762779,4.90262626 35.4214413,4.90262626 C35.3651986,4.90262626 35.3108307,4.91232323 35.2583375,4.93187879 Z M35.443704,7.52387879 C35.218499,7.52387879 35.1060136,7.44549495 35.1060136,7.28921212 L35.1060136,5.984 C34.8805742,5.984 34.7697293,5.90965657 34.7725414,5.76048485 C34.7725414,5.60420202 34.8836207,5.52436364 35.1060136,5.52129293 L35.4394858,5.51822222 C35.66141,5.52129293 35.7724893,5.5990303 35.7724893,5.75127273 L35.7724893,7.28921212 C35.7724893,7.44549495 35.6630504,7.52387879 35.443704,7.52387879 L35.443704,7.52387879 Z" id="Fill-16" fill="#1A1919"></path>
                        <path d="M37.4595556,7.29858586 C37.4595556,7.45066667 37.3826263,7.52694949 37.2295758,7.52694949 L36.4601212,7.52694949 C36.0001616,7.52694949 35.7703434,7.29018182 35.7703434,6.81713131 L35.7703434,5.75272727 C35.7703434,5.59838384 35.8471111,5.52129293 36.0001616,5.52129293 L37.2171313,5.52129293 C37.3776162,5.52032323 37.4579394,5.59692929 37.4579394,5.75127273 C37.4568081,5.90141414 37.3785859,5.97785859 37.2232727,5.98092929 L36.2301414,5.97947475 L36.2301414,6.28816162 L36.918303,6.28476768 C37.0736162,6.28686869 37.1513535,6.36654545 37.1513535,6.52379798 C37.1524848,6.67426263 37.076202,6.74941414 36.9229899,6.74941414 L36.2301414,6.75086869 L36.2301414,6.82812121 C36.2301414,6.98553535 36.3085253,7.06424242 36.4646465,7.06424242 L37.2339394,7.06569697 C37.384404,7.06569697 37.4595556,7.14311111 37.4595556,7.29858586" id="Fill-17" fill="#1A1919"></path>
                        <path d="M38.616404,5.36533333 L38.4601212,5.36694949 C38.3038384,5.36694949 38.2256162,5.44549495 38.2256162,5.60307071 L38.2256162,5.8299798 L38.6071919,5.8280404 C38.7625051,5.83143434 38.8402424,5.9080404 38.8402424,6.05818182 C38.8402424,6.21236364 38.7600808,6.28913131 38.5994343,6.28816162 L38.2256162,6.28961616 L38.2256162,7.29680808 C38.2267475,7.45115152 38.1499798,7.52775758 37.995798,7.52694949 C37.8424242,7.52694949 37.7658182,7.44969697 37.7658182,7.29535354 L37.7658182,5.61406061 C37.7658182,5.14084848 37.995798,4.90408081 38.4554343,4.90408081 L38.6133333,4.90408081 C38.7667071,4.90408081 38.8433131,4.98020202 38.8433131,5.13228283 C38.8433131,5.28791919 38.7676768,5.36533333 38.616404,5.36533333" id="Fill-18" fill="#1A1919"></path>
                        <path d="M39.830303,5.984 C39.6791919,5.984 39.6033939,6.06044444 39.6033939,6.2139798 L39.6033939,6.82311111 C39.6033939,6.98181818 39.6791919,7.06084848 39.830303,7.06084848 L40.1399596,7.06084848 C40.2952727,7.06084848 40.3730101,6.98181818 40.3730101,6.82311111 L40.3730101,6.20751515 C40.3730101,6.05882828 40.2952727,5.984 40.1399596,5.984 L39.830303,5.984 Z M39.8349899,5.51822222 L40.1399596,5.51822222 C40.6018586,5.51822222 40.8328081,5.7499798 40.8328081,6.2139798 L40.8328081,6.81406061 C40.8328081,7.28711111 40.6026667,7.52387879 40.1430303,7.52387879 L39.8286869,7.52387879 C39.3721212,7.52387879 39.1437576,7.29244444 39.1437576,6.82957576 L39.1437576,6.21543434 C39.1437576,5.75062626 39.3740606,5.51822222 39.8349899,5.51822222 L39.8349899,5.51822222 Z" id="Fill-19" fill="#1A1919"></path>
                        <path d="M41.1392323,7.28921212 L41.1392323,5.75127273 C41.1392323,5.5990303 41.2158384,5.52274747 41.3692121,5.52274747 L42.1386667,5.52129293 C42.5984646,5.52129293 42.8284444,5.75806061 42.8284444,6.23111111 L42.8284444,7.29535354 C42.8284444,7.44969697 42.7516768,7.52694949 42.5984646,7.52694949 C42.4450909,7.52694949 42.3684848,7.44872727 42.3684848,7.29244444 L42.3684848,6.22157576 C42.3684848,6.06335354 42.2909091,5.984 42.1354343,5.984 L41.5991919,5.984 L41.5991919,7.28921212 C41.5991919,7.44549495 41.5214545,7.52387879 41.3661414,7.52387879 C41.2150303,7.52387879 41.1392323,7.44549495 41.1392323,7.28921212" id="Fill-20" fill="#1A1919"></path>
                        <path d="M44.3639596,7.06230303 L44.3639596,5.984 L43.8290101,5.984 C43.6727273,5.984 43.5945051,6.06335354 43.5945051,6.22157576 L43.5945051,6.83878788 C43.5945051,6.9879596 43.6722424,7.06230303 43.8275556,7.06230303 L44.3639596,7.06230303 Z M44.5984646,7.52694949 L43.8290101,7.52694949 C43.3661414,7.52694949 43.1347071,7.29535354 43.1347071,6.83264646 L43.1347071,6.23111111 C43.1347071,5.75806061 43.3646869,5.52129293 43.8246465,5.52129293 L44.3639596,5.52129293 L44.3639596,5.13567677 C44.3639596,4.97826263 44.4407273,4.89955556 44.5939394,4.89955556 C44.7473131,4.89955556 44.8239192,4.97616162 44.8239192,5.12921212 L44.8239192,7.29244444 C44.8239192,7.44872727 44.7486061,7.52694949 44.5984646,7.52694949 L44.5984646,7.52694949 Z" id="Fill-21" fill="#1A1919"></path>
                        <path d="M46.4392727,5.984 L45.8246465,5.984 C45.6683636,5.984 45.5901414,6.03668687 45.5901414,6.14157576 C45.5901414,6.23983838 45.6688485,6.28961616 45.826101,6.28961616 L45.9747879,6.28961616 C46.4326465,6.29672727 46.6610101,6.50262626 46.6598788,6.90682828 C46.6579394,7.3170101 46.4295758,7.52258586 45.9747879,7.52387879 L45.3540202,7.52226263 C45.2059798,7.52323232 45.1314747,7.45212121 45.1303434,7.30941414 C45.1314747,7.14892929 45.2053333,7.06812121 45.352404,7.06715152 L45.9718788,7.06715152 C46.1241212,7.06715152 46.2012121,7.01446465 46.2031515,6.90973737 C46.2031515,6.80791919 46.1276768,6.7560404 45.976404,6.75393939 L45.8277172,6.75393939 C45.3650101,6.7560404 45.1340606,6.54868687 45.1348687,6.13220202 C45.131798,5.72509091 45.3603232,5.52129293 45.8201212,5.52129293 L46.4331313,5.52274747 C46.5863434,5.52274747 46.6631111,5.5990303 46.6631111,5.75127273 C46.6598788,5.9030303 46.5853737,5.98092929 46.4392727,5.984" id="Fill-22" fill="#1A1919"></path>
                    </g>
                </g>
            </g>
        </g>
    </g>
</svg>