<?xml version="1.0" encoding="UTF-8"?>
<svg width="74px" height="32px" viewBox="0 0 74 32" version="1.1" xmlns="http://www.w3.org/2000/svg" xmlns:xlink="http://www.w3.org/1999/xlink">
    <!-- Generator: Sketch 53 (72520) - https://sketchapp.com -->
    <title>GGTO_logo_zwart_zonder ondertitel</title>
    <desc>Created with Sketch.</desc>
    <g id="Forms" stroke="none" stroke-width="1" fill="none" fill-rule="evenodd">
        <g id="Desktop-HD---Form-1" transform="translate(-673.000000, -628.000000)">
            <g id="Form_1" transform="translate(245.000000, 255.000000)">
                <g id="Group" transform="translate(407.000000, 349.000000)">
                    <g id="GGTO_logo_zwart_zonder-ondertitel" transform="translate(21.000000, 24.000000)">
                        <text id="---" font-family="LucidaGrande, Lucida Grande" font-size="12" font-weight="normal"></text>
                        <polygon id="Fill-1" fill="#DEE2E6" points="0 32 73.0864198 32 73.0864198 0 0 0"></polygon>
                        <path d="M20.5432099,24.5516091 C20.5432099,25.3925082 19.9047729,26.0740741 19.1174256,26.0740741 L6.16636595,26.0740741 C5.37901865,26.0740741 4.74074074,25.3925082 4.74074074,24.5516091 L4.74074074,7.05332918 C4.74074074,6.21243006 5.37901865,5.5308642 6.16636595,5.5308642 L19.1174256,5.5308642 C19.9047729,5.5308642 20.5432099,6.21243006 20.5432099,7.05332918 L20.5432099,24.5516091" id="Fill-2" fill="#FFFFFE"></path>
                        <path d="M11.5747892,11.7721334 C11.5747892,11.7721334 11.8362852,12.2897082 12.2103361,12.4166423 C12.2103361,12.4166423 12.4496769,12.4845447 12.5544694,12.204064 C12.5544694,12.204064 12.7262126,11.7806817 12.7637309,11.5766518 L12.8158037,11.5766518 L13.1448973,12.4251906 C13.1448973,12.4251906 13.1971318,12.7219614 12.9356358,13.1040539 C12.9356358,13.1040539 12.6139812,13.7482401 12.3824027,13.9266252 C12.1505009,14.1043651 11.7767735,14.4862963 11.4628812,14.7238743 C11.4628812,14.7238743 9.78038,16.0132145 9.27954318,16.6409494 C9.27954318,16.6409494 8.26266817,17.929967 8.10596462,18.9391492 C8.10596462,18.9391492 8.0160501,19.3636605 8.1732388,19.8462357 C8.1732388,19.8462357 8.2841765,20.2247798 8.22078352,20.3955843 C8.2138297,20.4131648 8.20590558,20.4281646 8.19539399,20.4407451 C8.08332427,20.5762275 7.66463957,21.0002549 6.87222742,20.9489652 C6.87222742,20.9489652 5.72096578,20.9576748 5.39931113,20.7967088 C5.39931113,20.7967088 4.71880699,20.6099367 4.74128562,21.0083193 C4.74128562,21.0083193 4.78624288,21.3481542 5.49666462,21.3646056 C5.49666462,21.3646056 6.43106409,21.5087976 6.71520045,21.5768613 C6.71520045,21.5768613 7.36578699,21.7039566 7.79158723,21.3986375 C7.79158723,21.3986375 8.37182698,20.9371911 8.61925363,21.0147709 C8.63364643,21.0197708 8.64706892,21.0254159 8.65919767,21.0339642 C8.87573642,21.1863818 9.12995518,21.6108932 9.08499792,21.9837922 C9.08499792,21.9837922 9.07044341,22.255402 8.97308991,22.3234658 C8.97308991,22.3234658 8.83110259,22.6629781 9.23458592,22.7305579 C9.23458592,22.7305579 9.4514481,22.8832981 9.49640536,23.0189418 C9.49640536,23.0189418 9.98220253,23.1631337 10.1916257,23.5953869 C10.1916257,23.5953869 10.8198954,24.34183 10.797255,23.9352217 C10.797255,23.9352217 10.8868461,23.9095769 10.9319651,24.0286078 C10.9319651,24.0286078 11.2684977,24.2142508 11.2982536,23.9686084 C11.2982536,23.9686084 11.5299937,24.1131229 11.4927988,23.7823202 C11.4927988,23.7823202 11.6795817,23.7311918 11.5747892,23.5449036 C11.5747892,23.5449036 11.4028843,23.2224879 11.3880064,23.1126504 C11.3880064,23.1126504 11.3731284,22.9850712 11.1412266,22.9932969 C11.1412266,22.9932969 9.98996493,22.6968486 9.84021521,22.3234658 C9.84021521,22.3234658 9.84813933,22.0860491 9.84813933,22.1113714 C9.84813933,22.1366937 10.9992393,22.1789513 11.0139555,21.5258941 C11.0139555,21.5258941 11.4628812,21.3226706 12.7860478,21.3815409 C12.7860478,21.3815409 13.2045708,21.6700861 13.0850621,21.330735 C13.0850621,21.330735 13.3843998,21.4075084 13.2944853,21.1697691 L13.3543205,21.0847701 L13.4440733,21.0512221 C13.4440733,21.0512221 13.5262254,20.9915453 13.3843998,20.847676 L13.00291,20.55026 C13.00291,20.55026 12.0010746,20.5589696 11.5450333,20.7460642 L12.2402537,19.9570409 C12.2402537,19.9570409 12.4346373,19.7028502 12.0306688,19.6522056 C12.0306688,19.6522056 11.8514866,19.5839806 12.0306688,19.3380156 C12.0306688,19.3380156 12.5691856,18.7781833 12.5916642,18.7781833 C12.6138194,18.7781833 13.982105,18.6849585 14.0044219,18.6849585 C14.027224,18.6849585 14.3260765,18.6168948 14.4083904,19.0155999 C14.4083904,19.0155999 15.2085649,21.4160567 15.2908788,21.9416959 C15.2908788,21.9416959 15.4925396,22.8745886 15.4252654,23.171682 C15.4252654,23.171682 15.3279119,23.5953869 15.6568438,23.4937751 C15.6568438,23.4937751 15.9860991,24.0198982 15.9337029,24.7829541 C15.9337029,24.7829541 15.873706,25.2158524 16.0978454,25.2745614 C16.0978454,25.2745614 16.0297627,25.6229446 16.3373479,25.6229446 C16.3596649,25.6229446 16.6066064,25.6316542 16.7112371,25.520849 L16.7560326,25.5379455 C16.7560326,25.5379455 16.8155444,25.7584269 17.2643084,25.6481056 C17.2643084,25.6481056 17.4886096,25.5466551 17.4290978,25.4874622 C17.4290978,25.4874622 17.8624988,25.5719774 17.4436523,24.918759 C17.4436523,24.918759 17.7130725,24.6131173 17.309104,24.5715049 C17.309104,24.5715049 16.479497,24.4268291 16.4120611,23.3837764 C16.4120611,23.3837764 16.3075921,22.255402 16.1429644,21.6870213 C16.1429644,21.6870213 15.8216332,20.0589752 15.8513891,18.9815681 C15.8513891,18.9815681 15.8887456,17.3357802 16.1727203,17.6578734 C16.1727203,17.6578734 16.5692498,18.5407666 16.7710723,18.8122151 C16.9727331,19.0835024 17.6238048,19.9276864 17.5859631,20.1433291 C17.5783624,20.1859093 17.5859631,20.7712252 17.907456,20.6776779 C17.907456,20.6776779 18.3858142,21.1950914 18.3633356,21.203801 C18.3408569,21.2123493 18.1898135,21.865729 18.8269775,21.865729 C18.8792121,21.865729 19.5372376,21.8312133 19.5372376,21.8312133 C19.5372376,21.8312133 20.0607147,21.5941192 19.4772406,21.1784787 C19.4772406,21.1784787 19.1335925,21.1863818 19.0291235,21.1278341 C18.9241693,21.0679961 18.7524261,21.0083193 18.6851519,20.8049345 C18.6851519,20.8049345 18.1317572,19.4141438 17.9373736,19.0501157 C17.9373736,19.0501157 17.4814941,17.6075513 17.3391833,17.3273932 C17.3391833,17.3273932 17.197196,16.9294945 17.3391833,16.2420829 C17.4814941,15.5549939 17.4436523,14.9612909 17.0400073,14.5290378 C17.0400073,14.5290378 16.7859502,13.9437218 16.8008282,13.7819494 C16.8008282,13.7819494 16.7485937,13.5022752 16.434378,13.1040539 C16.434378,13.1040539 16.2100768,12.739058 16.1578423,12.3747073 C16.1578423,12.3747073 15.3950244,10.694565 15.1112114,10.2963437 C15.1112114,10.2963437 15.0961718,9.89747722 15.1933636,9.66860884 C15.1933636,9.66860884 15.9933764,8.50684778 15.8813067,8.06540116 C15.8813067,8.06540116 15.7095635,7.59056782 15.4325426,7.86185508 C15.4325426,7.86185508 15.3311462,8.00346638 15.2831164,7.78556562 C15.2758391,7.75169503 15.2758391,6.86154381 15.2758391,6.86154381 C15.2758391,6.86154381 15.1932018,6.5391281 15.0885711,6.51348322 C15.0885711,6.51348322 15.0887328,6.24235726 14.8943493,6.34364644 C14.8943493,6.34364644 14.6702098,6.33509814 14.595335,6.48799964 C14.595335,6.48799964 14.0345012,7.36202202 13.9300322,7.53137494 C13.825078,7.70105044 13.6531731,7.86185508 13.6531731,7.86185508 C13.6531731,7.86185508 13.2121715,7.83653278 13.0850621,7.98943428 C13.0850621,7.98943428 12.7338133,8.20152866 12.6364598,8.55797624 C12.6364598,8.55797624 12.3329174,8.97393928 12.2926499,9.24442009 C12.2850493,9.29538726 12.1804185,9.55812622 12.0533091,9.59215809 C12.0533091,9.59215809 11.8888432,9.62635126 11.8812425,9.90570294 C11.8812425,9.90570294 11.8440476,10.0163468 11.7243772,10.1268295 C11.7243772,10.1268295 11.7169383,10.6013402 11.6723044,10.8302086 C11.6723044,10.8302086 11.507515,11.6192319 11.5747892,11.7721334" id="Fill-3" fill="#DEE2E6"></path>
                        <path d="M27.288788,12.1591213 C26.3078651,12.1591213 25.8170869,12.6828937 25.8170869,13.7312422 L25.8170869,17.7223942 C25.8170869,18.7704213 26.3110314,19.2943544 27.2981287,19.2943544 L30.6765819,19.2943544 L30.6765819,12.1591213 L27.288788,12.1591213 Z M33.5802469,10.6379628 L33.5802469,21.9479416 C33.5802469,24.962607 32.1283353,26.4691358 29.2246702,26.4691358 L26.2043267,26.4691358 C25.2751729,26.4691358 24.8075088,25.95935 24.8010179,24.9389745 C24.7943687,23.9243866 25.2557001,23.4174945 26.1850122,23.4174945 L29.6407234,23.4174945 C30.3311374,23.4245682 30.6765819,23.0707244 30.6765819,22.3558024 L27.2693152,22.3558024 C24.3656502,22.3558024 22.9135802,20.7907551 22.9135802,17.6608212 L22.9135802,13.7312422 C22.9135802,10.6349083 24.3814818,9.08641975 27.3177598,9.08641975 L32.157307,9.08641975 C33.1059336,9.08641975 33.5802469,9.60424383 33.5802469,10.6379628 L33.5802469,10.6379628 Z" id="Fill-4" fill="#FFFFFE"></path>
                        <path d="M40.3255734,12.1591213 C39.3449525,12.1591213 38.854642,12.6828937 38.854642,13.7312422 L38.854642,17.7223942 C38.854642,18.7704213 39.3484355,19.2943544 40.3355474,19.2943544 L43.7137342,19.2943544 L43.7137342,12.1591213 L40.3255734,12.1591213 Z M46.617284,10.6379628 L46.617284,21.9479416 C46.617284,24.962607 45.1656674,26.4691358 42.261801,26.4691358 L39.2415709,26.4691358 C38.3125616,26.4691358 37.8442574,25.95935 37.8382413,24.9389745 C37.8315919,23.9243866 38.2930885,23.4174945 39.2220978,23.4174945 L42.6780186,23.4174945 C43.3681263,23.4245682 43.7137342,23.0707244 43.7137342,22.3558024 L40.3067335,22.3558024 C37.4028671,22.3558024 35.9506173,20.7907551 35.9506173,17.6608212 L35.9506173,13.7312422 C35.9506173,10.6349083 37.4183823,9.08641975 40.3547039,9.08641975 L45.1944812,9.08641975 C46.1431219,9.08641975 46.617284,9.60424383 46.617284,10.6379628 L46.617284,10.6379628 Z" id="Fill-5" fill="#FFFFFE"></path>
                        <path d="M55.308642,20.6249995 C55.308642,21.6243962 54.8307993,22.1234568 53.8751139,22.1234568 L52.891458,22.1234568 C50.0253394,22.1234568 48.5925926,20.5714262 48.5925926,17.4670463 L48.5925926,7.44485767 C48.5925926,6.4322271 49.0698102,5.92599154 50.0253394,5.92599154 C50.9871189,5.91929488 51.4648053,6.42521155 51.4587112,7.44485767 L51.4587112,8.9528816 L53.7899523,8.96308603 C54.7893904,8.95638937 55.2897345,9.45879827 55.2897345,10.47111 C55.2897345,11.4567944 54.8053289,11.9603195 53.837299,11.9797717 L51.4587112,11.9698861 L51.4587112,17.5376801 C51.4587112,18.5705601 51.9454607,19.0862029 52.9202098,19.0862029 L53.8946464,19.0964073 C54.8372059,19.0964073 55.308642,19.6056723 55.308642,20.6249995" id="Fill-6" fill="#FFFFFE"></path>
                        <path d="M61.6203067,12.1147956 C60.6650451,12.1147956 60.1878892,12.6129699 60.1878892,13.6093187 L60.1878892,17.5708632 C60.1878892,18.5999077 60.6650451,19.1148247 61.6203067,19.1148247 L63.5757911,19.1148247 C64.5565412,19.1148247 65.0466787,18.5999077 65.0466787,17.5708632 L65.0466787,13.5688835 C65.0466787,12.600018 64.5565412,12.1147956 63.5757911,12.1147956 L61.6203067,12.1147956 Z M61.6489614,9.08641975 L63.5757911,9.08641975 C66.4917614,9.08641975 67.9506173,10.5938948 67.9506173,13.6093187 L67.9506173,17.5100525 C67.9506173,20.5856554 66.4990438,22.1234568 63.5946303,22.1234568 L61.6106496,22.1234568 C58.7260253,22.1234568 57.2839506,20.6191408 57.2839506,17.6106667 L57.2839506,13.6192695 C57.2839506,10.5973697 58.7393236,9.08641975 61.6489614,9.08641975 L61.6489614,9.08641975 Z" id="Fill-7" fill="#FFFFFE"></path>
                        <path d="M23.9569484,6.01958207 C23.811654,6.01958207 23.73878,6.10310468 23.73878,6.2698097 L23.73878,6.90447951 C23.73878,7.07135464 23.8119564,7.15453704 23.9583091,7.15453704 L24.4585997,7.15453704 L24.4585997,6.01958207 L23.9569484,6.01958207 Z M24.8888889,5.77785979 L24.8888889,7.57725333 C24.8888889,8.0564452 24.6737443,8.2962963 24.2436063,8.2962963 L23.7962325,8.2962963 C23.6584976,8.2962963 23.5892522,8.21498507 23.5881939,8.05253274 C23.5872867,7.89144126 23.655625,7.81098057 23.7933599,7.81098057 L24.305141,7.81098057 C24.4074972,7.8118311 24.4585997,7.75518542 24.4585997,7.64189405 L23.9539246,7.64189405 C23.5237866,7.64189405 23.308642,7.39285717 23.308642,6.89478341 L23.308642,6.2698097 C23.308642,5.77717937 23.5262056,5.5308642 23.9610306,5.5308642 L24.6779776,5.5308642 C24.8185851,5.5308642 24.8888889,5.61302596 24.8888889,5.77785979 L24.8888889,5.77785979 Z" id="Fill-8" fill="#FFFFFE"></path>
                        <path d="M26.4324485,6.43781896 L26.4324485,5.98656997 L25.9358992,5.98656997 C25.7891501,5.98656997 25.7156996,6.06472279 25.7156996,6.22055093 L25.7156996,6.43781896 L26.4324485,6.43781896 Z M26.6526481,7.50617284 C26.5055955,7.50617284 26.4324485,7.42913421 26.4324485,7.27521612 L26.4324485,6.89686732 L25.7170654,6.89543478 L25.7156996,7.27521612 C25.7156996,7.42913421 25.6439185,7.50617284 25.499901,7.50617284 C25.3558835,7.50617284 25.2839506,7.43008924 25.2839506,7.2780812 L25.2839506,6.229942 C25.2839506,5.7640493 25.499901,5.5308642 25.9314983,5.5308642 L26.6483989,5.53229673 C26.7921129,5.53229673 26.8641975,5.60742531 26.8641975,5.75736413 L26.8641975,7.27521612 C26.8641975,7.42913421 26.7934787,7.50617284 26.6526481,7.50617284 L26.6526481,7.50617284 Z" id="Fill-9" fill="#FFFFFE"></path>
                        <path d="M28.60721,6.36666965 C28.4459025,6.36666965 28.3654154,6.28947185 28.3654154,6.13555376 L28.3654154,5.98656997 L27.9751446,5.98656997 C27.8138371,5.98656997 27.73335,6.06472279 27.73335,6.22055093 L27.73335,7.27521612 C27.73335,7.42913421 27.6543626,7.50617284 27.4962213,7.50617284 C27.3384132,7.50617284 27.2592593,7.43008924 27.2592593,7.2780812 L27.2592593,6.229942 C27.2592593,5.7640493 27.4962213,5.5308642 27.9704787,5.5308642 L28.6027108,5.53229673 C28.7605188,5.53229673 28.8395062,5.60742531 28.8395062,5.75736413 L28.8395062,6.13555376 C28.8395062,6.28947185 28.7620186,6.36666965 28.60721,6.36666965" id="Fill-10" fill="#FFFFFE"></path>
                        <path d="M30.3831761,6.43781896 L30.3831761,5.98656997 L29.8864273,5.98656997 C29.7398159,5.98656997 29.6663584,6.06472279 29.6663584,6.22055093 L29.6663584,6.43781896 L30.3831761,6.43781896 Z M30.6033968,7.50617284 C30.4566336,7.50617284 30.3831761,7.42913421 30.3831761,7.27521612 L30.3831761,6.89686732 L29.6678761,6.89543478 L29.6663584,7.27521612 C29.6663584,7.42913421 29.5944186,7.50617284 29.4503873,7.50617284 C29.3065077,7.50617284 29.2345679,7.43008924 29.2345679,7.2780812 L29.2345679,6.229942 C29.2345679,5.7640493 29.4503873,5.5308642 29.8821777,5.5308642 L30.5989955,5.53229673 C30.742875,5.53229673 30.8148148,5.60742531 30.8148148,5.75736413 L30.8148148,7.27521612 C30.8148148,7.42913421 30.7445445,7.50617284 30.6033968,7.50617284 L30.6033968,7.50617284 Z" id="Fill-11" fill="#FFFFFE"></path>
                        <path d="M31.2098765,7.27203271 L31.2098765,5.75736413 C31.2098765,5.60742531 31.2815547,5.53229673 31.4250623,5.53229673 L32.1448686,5.5308642 C32.5752401,5.5308642 32.7901235,5.7640493 32.7901235,6.229942 L32.7901235,7.2780812 C32.7901235,7.43008924 32.7185965,7.50617284 32.5752401,7.50617284 C32.4317325,7.50617284 32.3600543,7.42913421 32.3600543,7.27521612 L32.3600543,6.22055093 C32.3600543,6.06472279 32.2873176,5.98656997 32.1419954,5.98656997 L31.6400969,5.98656997 L31.6400969,7.27203271 C31.6400969,7.4259508 31.5673602,7.5031486 31.4221891,7.5031486 C31.2804962,7.5031486 31.2098765,7.4259508 31.2098765,7.27203271" id="Fill-12" fill="#FFFFFE"></path>
                        <path d="M34.3703704,7.28687659 C34.3703704,7.43291889 34.2862857,7.50617284 34.117583,7.50617284 L33.943725,7.50617284 C33.4381503,7.50617284 33.1851852,7.27880624 33.1851852,6.82453863 L33.1851852,5.35775246 C33.1851852,5.20984777 33.2694476,5.13581783 33.4381503,5.13581783 C33.6077418,5.13457624 33.6923598,5.20860618 33.6911154,5.35775246 L33.6911154,5.5786007 L34.1024727,5.58015269 C34.2788194,5.5792215 34.3669928,5.65278585 34.3669928,5.80100093 C34.3669928,5.94518085 34.2816637,6.01859 34.11065,6.02153878 L33.6911154,6.02014199 L33.6911154,6.83509217 C33.6911154,6.98625604 33.7769778,7.06183797 33.9492359,7.06183797 L34.1209606,7.06323477 C34.2873523,7.06323477 34.3703704,7.13757511 34.3703704,7.28687659" id="Fill-13" fill="#FFFFFE"></path>
                        <path d="M34.8562186,4.77160227 C34.8034911,4.79223346 34.7624808,4.82207196 34.7327191,4.86111777 C34.7029573,4.90016358 34.6881936,4.94091444 34.6881936,4.98302935 C34.6881936,5.02463275 34.7029573,5.06419007 34.7327191,5.10272436 C34.7624808,5.14142916 34.8030224,5.17126766 34.8548126,5.19223986 C34.906837,5.21338257 34.9614393,5.22412443 35.0193224,5.22412443 C35.075565,5.22412443 35.129933,5.21338257 35.1828948,5.19223986 C35.235388,5.17126766 35.2761639,5.14142916 35.3049883,5.10272436 C35.334047,5.06419007 35.348342,5.02463275 35.348342,4.98302935 C35.348342,4.94091444 35.3335783,4.90016358 35.3038165,4.86111777 C35.2740548,4.82207196 35.2330445,4.79223346 35.1805514,4.77160227 C35.1278239,4.75097108 35.074159,4.74074074 35.0193224,4.74074074 C34.9630797,4.74074074 34.9087118,4.75097108 34.8562186,4.77160227 Z M35.0415851,7.50617284 C34.8163801,7.50617284 34.7038947,7.42347757 34.7038947,7.25859855 L34.7038947,5.88159444 C34.4784553,5.88159444 34.3676104,5.80316182 34.3704226,5.64578505 C34.3704226,5.48090602 34.4815018,5.3966762 34.7038947,5.3934366 L35.0373669,5.39019699 C35.2592911,5.3934366 35.3703704,5.47544984 35.3703704,5.63606622 L35.3703704,7.25859855 C35.3703704,7.42347757 35.2609315,7.50617284 35.0415851,7.50617284 L35.0415851,7.50617284 Z" id="Fill-14" fill="#FFFFFE"></path>
                        <path d="M37.1358025,7.28126563 C37.1358025,7.4310446 37.0638356,7.50617284 36.9206579,7.50617284 L36.2008382,7.50617284 C35.770549,7.50617284 35.5555556,7.27298879 35.5555556,6.8070982 L35.5555556,5.75880459 C35.5555556,5.60679724 35.6273712,5.53087315 35.770549,5.53087315 L36.9090162,5.53087315 C37.0591487,5.52991813 37.1342906,5.60536471 37.1342906,5.75737206 C37.1332322,5.90524099 37.0600558,5.9805284 36.9147614,5.98355263 L35.9856936,5.9821201 L35.9856936,6.2861348 L36.6294643,6.28279223 C36.7747587,6.28486144 36.8474815,6.36333225 36.8474815,6.51820466 C36.8485398,6.66639192 36.7771777,6.74040597 36.6338488,6.74040597 L35.9856936,6.7418385 L35.9856936,6.81792176 C35.9856936,6.97295334 36.0590211,7.05046913 36.2050715,7.05046913 L36.92474,7.05190166 C37.0654987,7.05190166 37.1358025,7.12814409 37.1358025,7.28126563" id="Fill-15" fill="#FFFFFE"></path>
                        <path d="M38.4664619,5.22706301 L38.2945593,5.22876701 C38.1226568,5.22876701 38.0366167,5.31158153 38.0366167,5.47772176 L38.0366167,5.71696369 L38.456329,5.71508928 C38.6271649,5.71849729 38.7126718,5.799267 38.7126718,5.95756882 C38.7126718,6.12030104 38.6244984,6.20107076 38.4477961,6.20004835 L38.0366167,6.20158196 L38.0366167,7.26351622 C38.0378611,7.42641885 37.9534208,7.50701816 37.7838293,7.50616616 C37.6151267,7.50616616 37.5308642,7.42471484 37.5308642,7.26198262 L37.5308642,5.48930897 C37.5308642,4.99037709 37.7838293,4.74074074 38.289404,4.74074074 L38.4630843,4.74074074 C38.6317869,4.74074074 38.7160494,4.82099925 38.7160494,4.98134587 C38.7160494,5.1454413 38.6328535,5.22706301 38.4664619,5.22706301" id="Fill-16" fill="#FFFFFE"></path>
                        <path d="M39.3583696,5.98959421 C39.2169926,5.98959421 39.1460773,6.06504114 39.1460773,6.21609415 L39.1460773,6.8160086 C39.1460773,6.97231424 39.2169926,7.05014873 39.3583696,7.05014873 L39.648079,7.05014873 C39.7933874,7.05014873 39.8661171,6.97231424 39.8661171,6.8160086 L39.8661171,6.20972732 C39.8661171,6.06329026 39.7933874,5.98959421 39.648079,5.98959421 L39.3583696,5.98959421 Z M39.3627546,5.5308642 L39.648079,5.5308642 C40.0802239,5.5308642 40.2962963,5.75911501 40.2962963,6.21609415 L40.2962963,6.80709503 C40.2962963,7.27298773 40.0809799,7.50617284 39.6509519,7.50617284 L39.3568576,7.50617284 C38.9297025,7.50617284 38.7160494,7.27824037 38.7160494,6.82237542 L38.7160494,6.21768586 C38.7160494,5.75975169 38.931517,5.5308642 39.3627546,5.5308642 L39.3627546,5.5308642 Z" id="Fill-17" fill="#FFFFFE"></path>
                        <path d="M40.691358,7.27203271 L40.691358,5.75736413 C40.691358,5.60742531 40.7630225,5.53229673 40.9065026,5.53229673 L41.6263223,5.5308642 C42.0564603,5.5308642 42.2716049,5.7640493 42.2716049,6.229942 L42.2716049,7.2780812 C42.2716049,7.43008924 42.1997893,7.50617284 42.0564603,7.50617284 C41.9129802,7.50617284 41.8413157,7.42913421 41.8413157,7.27521612 L41.8413157,6.22055093 C41.8413157,6.06472279 41.7687441,5.98656997 41.6232985,5.98656997 L41.1216472,5.98656997 L41.1216472,7.27203271 C41.1216472,7.4259508 41.0489244,7.5031486 40.90363,7.5031486 C40.7622665,7.5031486 40.691358,7.4259508 40.691358,7.27203271" id="Fill-18" fill="#FFFFFE"></path>
                        <path d="M43.8166244,7.01711475 L43.8166244,5.88215978 L43.3161826,5.88215978 C43.1699811,5.88215978 43.0968047,5.9656824 43.0968047,6.13221731 L43.0968047,6.78185655 C43.0968047,6.93886546 43.1695275,7.01711475 43.3148219,7.01711475 L43.8166244,7.01711475 Z M44.0360023,7.50617284 L43.3161826,7.50617284 C42.883172,7.50617284 42.6666667,7.26240928 42.6666667,6.77539248 L42.6666667,6.14225363 C42.6666667,5.64434997 42.8818113,5.39514298 43.3121005,5.39514298 L43.8166244,5.39514298 L43.8166244,4.9892673 C43.8166244,4.82358293 43.88844,4.74074074 44.031769,4.74074074 C44.1752491,4.74074074 44.2469136,4.82137153 44.2469136,4.98246301 L44.2469136,7.25934735 C44.2469136,7.42384097 44.1764586,7.50617284 44.0360023,7.50617284 L44.0360023,7.50617284 Z" id="Fill-19" fill="#FFFFFE"></path>
                        <path d="M45.9914502,5.98726874 L45.3577852,5.98726874 C45.1966613,5.98726874 45.1160161,6.03939737 45.1160161,6.14269816 C45.1160161,6.23962235 45.1971612,6.2887221 45.3592848,6.2887221 L45.5125774,6.2887221 C45.9846187,6.29573635 46.2200561,6.49883079 46.2188898,6.89752718 C46.2168903,7.30212191 45.9814528,7.50489752 45.5125774,7.50617284 L44.8725807,7.50457869 C44.7199546,7.50553518 44.6431417,7.43539267 44.6419753,7.29462942 C44.6431417,7.13633053 44.7192881,7.05662314 44.8709145,7.05566665 L45.5095782,7.05566665 C45.6665365,7.05566665 45.7460154,7.00369743 45.7480149,6.90039664 C45.7480149,6.79996533 45.6702022,6.74879318 45.5142436,6.74672079 L45.360951,6.74672079 C44.883911,6.74879318 44.6458076,6.54426401 44.6466407,6.1334521 C44.6434749,5.73188625 44.879079,5.5308642 45.3531197,5.5308642 L45.9851185,5.53229893 C46.1430766,5.53229893 46.2222222,5.60754271 46.2222222,5.75771144 C46.2188898,5.90740193 46.1420768,5.98423986 45.9914502,5.98726874" id="Fill-20" fill="#FFFFFE"></path>
                    </g>
                </g>
            </g>
        </g>
    </g>
</svg>