<?xml version="1.0" encoding="UTF-8"?>
<svg width="545px" height="545px" viewBox="0 0 545 545" version="1.1" xmlns="http://www.w3.org/2000/svg" xmlns:xlink="http://www.w3.org/1999/xlink">
    <!-- Generator: Sketch 53 (72520) - https://sketchapp.com -->
    <title>gorilla</title>
    <desc>Created with Sketch.</desc>
    <g id="Page-1" stroke="none" stroke-width="1" fill="none" fill-rule="evenodd">
        <g id="gorilla" fill="#404348" fill-rule="nonzero">
            <path d="M545,225.664062 C545,190.445632 516.351243,161.796875 481.132812,161.796875 L453.3115,161.796875 C449.04953,152.823867 444.583816,144.021339 439.901886,135.459976 C417.889329,95.189552 393.190689,63.0106348 366.487885,39.8213575 C336.071968,13.397141 304.450226,0 272.5,0 C234.084053,0 194.973717,20.1830297 159.401855,58.3661267 C155.397682,62.6696777 155.63469,69.4056702 159.934082,73.4098437 C164.237633,77.418175 170.973625,77.1811671 174.977798,72.8776171 C206.869812,38.6446386 239.680748,21.2890625 272.5,21.2890625 C299.169541,21.2890625 326.096878,32.9315186 352.529412,55.8921046 C376.966095,77.1146387 400.720863,108.162575 421.22406,145.672073 C426.658592,155.613899 431.797905,165.884209 436.646156,176.374893 C436.795845,176.753273 436.958008,177.123337 437.149277,177.476769 C444.671135,193.85521 451.436233,210.782509 457.361412,227.921868 C457.536049,228.728523 457.810478,229.497756 458.155593,230.22541 C463.781395,246.73275 468.625488,263.418884 472.600555,279.984436 C472.700348,280.895043 472.908249,281.768226 473.2201,282.591515 C481.091233,316.13842 485.390625,349.103203 485.390625,378.94947 C485.390625,441.585884 466.425896,480.500793 425.702247,501.415635 C385.639724,521.989517 328.051147,523.710938 272.5,523.710938 C216.95301,523.710938 159.364434,521.989517 119.30191,501.415635 C78.5782618,480.500793 59.609375,441.585884 59.609375,378.94947 C59.609375,349.103203 63.9628222,315.976257 71.9129565,282.242241 C72.1291735,281.606064 72.28302,280.944939 72.374497,280.263024 C76.3953016,263.493728 81.3142395,246.583061 87.0232007,229.859504 C87.2227857,229.389648 87.3849487,228.90316 87.5180054,228.404198 C93.5512927,210.878143 100.461921,193.568306 108.1501,176.853065 C108.195839,176.753273 108.249893,176.65348 108.291473,176.54953 C112.578392,167.252197 117.098159,158.137817 121.842461,149.277076 C124.620018,144.092026 122.669907,137.642937 117.484856,134.869537 C112.303962,132.09198 105.850715,134.04625 103.077317,139.227142 C99.131355,146.590996 95.3433985,154.129486 91.7051318,161.796875 L63.8671875,161.796875 C28.6487574,161.796875 0,190.445632 0,225.664063 C0,242.23793 6.37424442,257.96772 17.9501722,269.95945 C26.5073779,278.824348 37.2101209,284.920006 48.8941577,287.739143 C42.0417407,319.535522 38.3203125,350.633354 38.3203125,378.94947 C38.3203125,449.477806 61.6260144,495.731621 109.572144,520.355415 C153.859215,543.099785 214.345933,545 272.5,545 C330.654067,545 391.140785,543.095627 435.423699,520.355415 C483.369827,495.731621 506.679688,449.477806 506.679688,378.94947 C506.679688,350.53772 502.983208,319.464836 496.155739,287.72667 C507.818984,284.903374 518.500939,278.811875 527.049828,269.95945 C538.625756,257.96772 545,242.23793 545,225.664062 Z M21.2890625,225.664062 C21.2890625,202.187881 40.3910059,183.085938 63.8671875,183.085938 L82.1375269,183.085938 C77.6842883,193.576622 73.5345838,204.250259 69.6884155,215.019531 L59.609375,215.019531 C53.7299342,215.019531 48.9648438,219.784622 48.9648438,225.664062 C48.9648438,231.543503 53.7299342,236.308594 59.609375,236.308594 L62.5283056,236.308594 C59.3141553,246.520691 56.391067,256.77021 53.7715149,266.998939 C35.2433777,262.375221 21.2890625,245.356445 21.2890625,225.664062 Z M491.270066,266.986465 C488.65467,256.761894 485.727424,246.516533 482.513275,236.308594 L485.390625,236.308594 C491.270066,236.308594 496.035156,231.543503 496.035156,225.664062 C496.035156,219.784622 491.270066,215.019531 485.390625,215.019531 L475.357323,215.019531 C471.511155,204.250259 467.344818,193.58078 462.883263,183.085938 L481.132812,183.085938 C504.613152,183.085938 523.710938,202.187881 523.710938,225.664062 C523.710938,245.339813 509.777412,262.350273 491.270066,266.986465 Z" id="Shape"></path>
            <path d="M221.672363,268.919945 L221.672363,268.911628 C221.672363,263.036346 216.907273,258.271255 211.027832,258.271255 C205.148391,258.271255 200.383301,263.040504 200.383301,268.919945 C200.383301,274.799385 205.148391,279.564476 211.027832,279.564476 C216.907273,279.564476 221.672363,274.799385 221.672363,268.919945 L221.672363,268.919945 Z" id="Path"></path>
            <path d="M333.972168,258.271255 C328.092727,258.271255 323.327637,263.040504 323.327637,268.919945 C323.327637,274.799385 328.092727,279.564476 333.972168,279.564476 C339.851609,279.564476 344.616699,274.799385 344.616699,268.919945 L344.616699,268.911628 C344.616699,263.036346 339.851609,258.271255 333.972168,258.271255 L333.972168,258.271255 Z" id="Path"></path>
            <path d="M241.165161,298.587417 C224.736824,298.587417 211.377106,311.951294 211.377106,328.375474 C211.377106,336.329766 214.47483,343.810044 220.100632,349.435845 C222.175483,351.514855 224.903145,352.554359 227.626648,352.554359 C230.350151,352.554359 233.073655,351.514855 235.152664,349.440002 C239.310684,345.281982 239.310684,338.541832 235.152664,334.383812 C233.572617,332.799607 232.666168,330.612488 232.666168,328.375474 C232.666168,323.689385 236.479072,319.87648 241.165161,319.87648 C243.43544,319.87648 245.568505,320.757981 247.1735,322.362976 C251.33152,326.520996 258.07167,326.520996 262.225532,322.362976 C266.383552,318.204956 266.383552,311.468964 262.225532,307.310944 C256.599731,301.685143 249.119453,298.587417 241.165161,298.587417 Z" id="Path"></path>
            <path d="M303.838997,298.587417 C295.880547,298.587417 288.400269,301.685143 282.774468,307.310944 C278.616448,311.468964 278.616448,318.209114 282.774468,322.367134 C286.932488,326.525154 293.672638,326.520996 297.830658,322.367134 C299.431495,320.762139 301.568718,319.87648 303.838997,319.87648 C308.525085,319.87648 312.33799,323.689385 312.33799,328.375474 C312.33799,330.645752 311.452332,332.778816 309.847336,334.383812 C305.689316,338.541832 305.689316,345.281982 309.847336,349.440002 C311.926345,351.519012 314.649849,352.558518 317.373352,352.558518 C320.096855,352.558518 322.824517,351.519012 324.899368,349.440002 C330.529327,343.814202 333.627052,336.333923 333.627052,328.375474 C333.627052,311.951294 320.263176,298.587417 303.838997,298.587417 L303.838997,298.587417 Z" id="Path"></path>
            <path d="M131.393433,112.062798 C133.206329,113.272781 135.256233,113.850746 137.285347,113.850746 C140.72403,113.850746 144.100342,112.187538 146.154404,109.110603 L146.158562,109.106445 C149.41845,104.212456 148.096199,97.6095202 143.202209,94.3496325 C138.312378,91.085586 131.701126,92.4119947 128.441238,97.3018262 C125.177192,102.191658 126.499443,108.80291 131.393433,112.062798 Z" id="Path"></path>
            <path d="M335.834961,148.719902 C312.491836,148.719902 289.95121,157.268791 272.5,172.47467 C255.04879,157.268791 232.508164,148.719902 209.165039,148.719902 C156.046333,148.719902 112.832031,191.934204 112.832031,245.05291 C112.832031,266.371079 119.82582,286.861802 132.678261,303.618622 C119.667816,323.381691 112.832031,345.618782 112.832031,368.413048 C112.832031,404.596138 129.705276,438.484001 160.33741,463.843765 C190.387421,488.721199 230.221252,502.421875 272.5,502.421875 C293.564529,502.421875 314.042778,499.033088 333.373413,492.346992 C338.928528,490.425988 341.876564,484.367752 339.955559,478.808479 C338.034553,473.253364 331.972161,470.309486 326.417046,472.226333 C309.331741,478.13488 291.1903,481.132812 272.5,481.132812 C213.190002,481.132812 162.482948,450.575524 142.836304,407.781182 C185.381165,398.400688 228.936425,393.635597 272.5,393.635597 C316.063575,393.635597 359.622993,398.400688 402.167854,407.781182 C400.542068,411.307183 398.700066,414.791603 396.625214,418.209496 C393.573227,423.236542 395.174065,429.781265 400.196953,432.833252 C405.219841,435.885239 411.768723,434.284401 414.820709,429.261512 C426.330109,410.309258 432.167969,389.835167 432.167969,368.413048 C432.167969,345.614624 425.332184,323.377533 412.325897,303.614464 C425.178337,286.857643 432.167969,266.371079 432.167969,245.05291 C432.167969,191.934204 388.953667,148.719902 335.834961,148.719902 L335.834961,148.719902 Z M272.5,372.346534 C226.666145,372.346534 180.83229,377.435951 136.108628,387.460938 C134.807167,381.269646 134.121094,374.907875 134.121094,368.413048 C134.121094,347.564735 141.198044,327.186279 154.591027,309.477272 C157.692909,305.373306 157.41848,299.635239 153.934059,295.847283 C141.156464,281.967811 134.121094,263.926162 134.121094,245.05291 C134.121094,203.672295 167.784424,170.008965 209.165039,170.008965 C230.221252,170.008965 250.437546,178.940392 264.633026,194.512177 C266.649666,196.724243 269.506226,197.984123 272.5,197.984123 C275.493774,197.984123 278.350334,196.724243 280.366974,194.512177 C294.562454,178.940392 314.782905,170.008965 335.834961,170.008965 C377.215576,170.008965 410.878906,203.672295 410.878906,245.05291 C410.878906,263.926162 403.843536,281.963654 391.070099,295.847283 C387.589836,299.635239 387.311249,305.369148 390.413132,309.477272 C403.801956,327.177964 410.878906,347.560577 410.878906,368.413048 C410.878906,374.870453 410.217781,381.228065 408.916321,387.465095 C364.180183,377.435951 318.346328,372.346534 272.5,372.346534 L272.5,372.346534 Z" id="Shape"></path>
            <path d="M366.941108,450.762634 C362.051277,454.022522 360.729027,460.633774 363.993073,465.523606 C366.042976,468.60054 369.419288,470.263748 372.857971,470.263748 C374.887085,470.263748 376.936989,469.685784 378.754043,468.4758 L378.758202,468.471642 C383.652191,465.211754 384.970283,458.604661 381.710396,453.71067 C378.44635,448.820839 371.83094,447.502747 366.941108,450.762634 L366.941108,450.762634 Z" id="Path"></path>
            <path d="M324.408722,228.878212 C330.288162,228.878212 335.053253,224.113121 335.053253,218.23368 C335.053253,212.354241 330.288162,207.589149 324.408722,207.589149 C314.371262,207.589149 304.7995,210.799141 295.539589,213.905182 C287.306709,216.666107 279.527053,219.273186 272.5,219.273186 C265.497894,219.273186 257.768135,216.674424 249.580994,213.925972 C240.312767,210.811615 230.724373,207.589149 220.595436,207.589149 C214.715996,207.589149 209.950905,212.354241 209.950905,218.23368 C209.950905,224.113121 214.715996,228.878212 220.595436,228.878212 C227.24411,228.878212 234.799232,231.418762 242.799263,234.104844 C252.246284,237.28157 262.017632,240.562248 272.5,240.562248 C283.003159,240.562248 292.816086,237.273254 302.308845,234.088211 C310.30056,231.406288 317.847366,228.878212 324.408722,228.878212 Z" id="Path"></path>
        </g>
    </g>
</svg>