<?xml version="1.0" encoding="UTF-8"?>
<svg width="512px" height="512px" viewBox="0 0 512 512" version="1.1" xmlns="http://www.w3.org/2000/svg" xmlns:xlink="http://www.w3.org/1999/xlink">
    <!-- Generator: Sketch 53 (72520) - https://sketchapp.com -->
    <title>grand-canyon</title>
    <desc>Created with Sketch.</desc>
    <g id="Page-1" stroke="none" stroke-width="1" fill="none" fill-rule="evenodd">
        <g id="grand-canyon" fill="#404348" fill-rule="nonzero">
            <path d="M489.710938,40.820312 L474.175781,40.820312 C470.8125,40.820312 467.4375,41.597656 464.414062,43.070312 L426.390625,61.597656 C418.777344,65.304688 413.863281,73.167969 413.863281,81.632812 L413.863281,121.285156 C413.109375,121.210938 412.347656,121.171875 411.574219,121.171875 L396.476562,121.171875 C385.59375,121.171875 376.355469,128.953125 374.511719,139.679688 L357.648438,237.695312 C357.320312,239.605469 356.601562,241.386719 355.515625,242.988281 L328.636719,282.710938 L309.351562,263.429688 C304.394531,258.472656 301.257812,251.914062 300.511719,244.957031 L281.863281,72.074219 C280.515625,59.511719 269.96875,50.039062 257.328125,50.039062 L223.871094,50.039062 C211.339844,50.039062 200.804688,59.421875 199.355469,71.863281 L191.261719,141.460938 L173.972656,124.171875 L164.113281,22.292969 C162.878906,9.585938 152.320312,0 139.550781,0 L126.460938,0 C112.851562,0 101.78125,11.070312 101.78125,24.679688 L101.78125,27.246094 C100.265625,26.953125 98.699219,26.800781 97.101562,26.800781 L69.320312,26.800781 C56.917969,26.800781 46.390625,36.078125 44.828125,48.382812 L22.3125,226.039062 C21.84375,229.699219 20.863281,233.269531 19.402344,236.632812 C17.933594,240.003906 15.992188,243.148438 13.640625,245.964844 C4.84375,256.480469 0,269.832031 0,283.5625 L0,502 C0,507.523438 4.476562,512 10,512 L502,512 C507.523438,512 512,507.523438 512,502 L512,63.109375 C512,50.820312 502,40.820312 489.710938,40.820312 Z M28.984375,258.789062 C32.5625,254.503906 35.507812,249.738281 37.742188,244.609375 C39.960938,239.5 41.441406,234.105469 42.148438,228.566406 L64.671875,50.898438 C64.96875,48.5625 66.964844,46.800781 69.320312,46.800781 L97.101562,46.800781 C99.679688,46.800781 101.78125,48.898438 101.78125,51.480469 L101.78125,102.296875 C101.78125,107.816406 106.257812,112.296875 111.78125,112.296875 C117.304688,112.296875 121.78125,107.816406 121.78125,102.296875 L121.78125,24.679688 C121.78125,22.101562 123.878906,20 126.460938,20 L139.550781,20 C141.972656,20 143.972656,21.816406 144.207031,24.222656 L154.152344,126.96875 C154.5625,131.03125 156.378906,134.859375 159.257812,137.742188 L180.460938,158.941406 C182.765625,161.246094 185.574219,162.8125 188.574219,163.585938 L181.46875,221.460938 C181.109375,224.371094 178.628906,226.566406 175.695312,226.566406 L147.128906,226.566406 C135.605469,226.566406 125.386719,234.316406 122.273438,245.410156 L116.390625,266.382812 C115.6875,268.878906 113.386719,270.625 110.789062,270.625 L83.773438,270.625 C78.25,270.625 73.773438,275.101562 73.773438,280.625 C73.773438,286.148438 78.25,290.625 83.773438,290.625 L110.789062,290.625 C122.3125,290.625 132.535156,282.878906 135.648438,271.78125 L141.53125,250.8125 C142.230469,248.3125 144.53125,246.566406 147.128906,246.566406 L175.695312,246.566406 C188.714844,246.566406 199.730469,236.820312 201.320312,223.898438 L210.574219,148.527344 C210.578125,148.519531 210.578125,148.515625 210.578125,148.507812 C210.578125,148.492188 210.582031,148.480469 210.585938,148.464844 L219.222656,74.175781 C219.496094,71.816406 221.496094,70.039062 223.871094,70.039062 L257.332031,70.039062 C259.726562,70.039062 261.722656,71.832031 261.976562,74.214844 L280.628906,247.09375 C281.855469,258.570312 287.03125,269.394531 295.210938,277.570312 L317.21875,299.582031 L306.875,314.867188 L294.390625,333.316406 C293.304688,334.917969 291.902344,336.21875 290.3125,337.210938 C288.199219,338.523438 285.742188,339.269531 283.175781,339.269531 L231.199219,339.269531 C220.535156,339.269531 210.414062,344.40625 204.121094,353.015625 L204.117188,353.019531 L182.628906,382.417969 C182.226562,382.96875 181.78125,383.460938 181.300781,383.941406 C178.78125,386.476562 175.324219,387.960938 171.699219,387.960938 L52.859375,387.960938 C45.710938,387.960938 38.875,390.242188 33.242188,394.3125 C30.097656,396.582031 27.324219,399.398438 25.085938,402.703125 L20,410.21875 L20,283.558594 C20,274.515625 23.1875,265.71875 28.984375,258.789062 L28.984375,258.789062 Z M20,492 L20,445.898438 L41.652344,413.914062 C42.417969,412.785156 43.351562,411.8125 44.382812,410.976562 C46.757812,409.0625 49.730469,407.964844 52.863281,407.964844 L171.699219,407.964844 C181.664062,407.964844 191.152344,403.476562 197.488281,395.863281 C197.933594,395.328125 198.367188,394.78125 198.777344,394.21875 L220.261719,364.820312 C222.804688,361.34375 226.894531,359.269531 231.199219,359.269531 L283.179688,359.269531 C290.304688,359.269531 297.113281,357.007812 302.734375,352.96875 C305.902344,350.691406 308.699219,347.855469 310.953125,344.527344 L321.417969,329.0625 L338.410156,303.957031 C338.417969,303.945312 338.425781,303.929688 338.433594,303.917969 L372.078125,254.199219 C374.769531,250.226562 376.542969,245.816406 377.355469,241.089844 L394.21875,143.074219 C394.410156,141.972656 395.359375,141.171875 396.476562,141.171875 L411.574219,141.171875 C412.835938,141.171875 413.863281,142.199219 413.863281,143.460938 L413.863281,239.523438 C413.863281,245.046875 418.339844,249.523438 423.863281,249.523438 C429.386719,249.523438 433.863281,245.046875 433.863281,239.523438 L433.863281,81.636719 C433.863281,80.765625 434.367188,79.957031 435.148438,79.578125 L473.175781,61.050781 C473.484375,60.902344 473.832031,60.820312 474.175781,60.820312 L489.710938,60.820312 C490.972656,60.820312 492,61.847656 492,63.109375 L492,453.273438 L447.351562,453.273438 C440.070312,453.273438 433.222656,450.4375 428.074219,445.289062 L399.226562,416.441406 C390.300781,407.515625 378.429688,402.597656 365.804688,402.597656 L302.324219,402.597656 C287.40625,402.597656 273.203125,409.757812 264.328125,421.75 L258.230469,429.992188 C253.113281,436.910156 244.917969,441.039062 236.3125,441.039062 L208.21875,441.039062 C202.695312,441.039062 198.21875,445.519531 198.21875,451.039062 C198.21875,456.5625 202.695312,461.039062 208.21875,461.039062 L236.3125,461.039062 C251.230469,461.039062 265.433594,453.882812 274.308594,441.890625 L280.40625,433.644531 C285.527344,426.726562 293.722656,422.597656 302.324219,422.597656 L365.804688,422.597656 C373.089844,422.597656 379.933594,425.433594 385.085938,430.582031 L413.933594,459.429688 C422.859375,468.359375 434.730469,473.273438 447.351562,473.273438 L492,473.273438 L492,492 L20,492 Z" id="Shape"></path>
            <path d="M116.023438,441.039062 L85.617188,441.039062 C80.09375,441.039062 75.617188,445.519531 75.617188,451.039062 C75.617188,456.5625 80.09375,461.039062 85.617188,461.039062 L116.023438,461.039062 C121.546875,461.039062 126.023438,456.5625 126.023438,451.039062 C126.023438,445.519531 121.546875,441.039062 116.023438,441.039062 Z" id="Path"></path>
            <path d="M171.75,447.21875 C169.6875,442.1875 163.703125,439.71875 158.691406,441.808594 C153.660156,443.90625 151.195312,449.8125 153.28125,454.859375 C155.359375,459.890625 161.308594,462.367188 166.339844,460.269531 C171.355469,458.179688 173.847656,452.253906 171.75,447.21875 Z" id="Path"></path>
            <path d="M355.109375,88.621094 C379.542969,88.621094 399.421875,68.742188 399.421875,44.3125 C399.421875,19.878906 379.542969,0 355.109375,0 C330.675781,0 310.796875,19.878906 310.796875,44.3125 C310.796875,68.742188 330.675781,88.621094 355.109375,88.621094 Z M355.109375,20 C368.515625,20 379.421875,30.90625 379.421875,44.3125 C379.421875,57.71875 368.515625,68.621094 355.109375,68.621094 C341.703125,68.621094 330.796875,57.71875 330.796875,44.3125 C330.796875,30.90625 341.703125,20 355.109375,20 Z" id="Shape"></path>
        </g>
    </g>
</svg>