<?xml version="1.0" encoding="UTF-8"?>
<svg width="512px" height="512px" viewBox="0 0 512 512" version="1.1" xmlns="http://www.w3.org/2000/svg" xmlns:xlink="http://www.w3.org/1999/xlink">
    <!-- Generator: Sketch 53 (72520) - https://sketchapp.com -->
    <title>hiking (1)</title>
    <desc>Created with Sketch.</desc>
    <g id="Page-1" stroke="none" stroke-width="1" fill="none" fill-rule="evenodd">
        <g id="hiking-(1)" fill="#404348" fill-rule="nonzero">
            <path d="M506.503,288.042 C503.135,286.342 499.094,286.684 496.058,288.925 L417.489,346.936 L417.489,97.971 C417.489,92.449 413.011,87.971 407.489,87.971 C401.967,87.971 397.489,92.449 397.489,97.971 L397.489,185.547 C393.554,184.222 389.292,183.71 384.938,184.193 L322.224,191.183 C320.113,191.408 318.062,190.31 317.097,188.429 L302.557,160.074 L313.147,140.751 C319.238,129.637 320.612,116.894 317.072,104.765 C320.042,104.65 323.045,104.283 326.058,103.626 C339.344,100.728 351.242,92.795 359.559,81.289 C367.876,69.784 371.678,55.999 370.264,42.474 C368.807,28.534 362.031,16.538 351.184,8.697 C329.148,-7.231 297.048,-0.592 279.627,23.506 C271.31,35.011 267.508,48.796 268.922,62.321 C269.081,63.839 269.314,65.33 269.597,66.799 C265.218,66.185 260.767,66.197 256.354,66.836 C255.883,66.449 255.375,66.094 254.822,65.79 L219.904,46.552 C206.278,39.045 190.51,37.177 175.507,41.286 C160.503,45.397 147.891,55.043 139.994,68.447 L87.302,157.891 C79.058,171.886 76.896,188.217 81.215,203.874 C85.534,219.532 95.763,232.444 110.015,240.233 L132.585,252.567 C129.386,268.68 131.42,285.748 139.065,301.306 L142.816,308.94 L134.524,401.392 C134.498,401.689 134.484,401.988 134.484,402.286 L134.484,482.877 C134.484,498.917 147.534,511.967 163.574,511.967 L210.747,511.967 C224.118,511.967 234.997,501.088 234.997,487.717 C234.997,474.346 224.118,463.467 210.747,463.467 L200.48,463.467 C197.278,463.467 194.23,461.932 192.324,459.358 C191.019,457.597 190.33,455.508 190.33,453.317 L190.33,407.254 L218.828,330.02 L233.305,340.385 C238.747,344.281 241.997,350.604 241.997,357.298 L241.997,451.134 C241.997,464.276 252.688,474.967 265.83,474.967 L299.122,474.967 L311.747,474.967 L356.997,474.967 C361.295,474.967 365.111,472.221 366.477,468.147 L392.642,390.138 L491.996,316.78 L491.996,491.966 L471.996,491.966 L471.996,423.134 C471.996,417.612 467.518,413.134 461.996,413.134 C456.474,413.134 451.996,417.612 451.996,423.134 L451.996,491.966 L407.487,491.966 C401.965,491.966 397.487,496.444 397.487,501.966 C397.487,507.488 401.965,511.966 407.487,511.966 L501.995,511.966 C507.517,511.966 511.995,507.488 511.995,501.966 L511.995,296.97 C511.997,293.195 509.872,289.743 506.503,288.042 Z M295.837,35.224 C302.944,25.392 313.674,19.991 323.912,19.991 C329.46,19.991 334.865,21.578 339.469,24.906 C345.644,29.369 349.516,36.347 350.374,44.554 C351.275,53.176 348.781,62.062 343.352,69.573 C337.923,77.084 330.267,82.238 321.797,84.087 C313.784,85.834 305.997,84.371 299.84,79.974 C299.687,79.861 299.537,79.745 299.382,79.634 C293.407,75.163 289.656,68.298 288.814,60.244 C287.913,51.62 290.407,42.735 295.837,35.224 Z M275.313,89.255 L283.883,93.552 C285.257,94.241 286.552,95.037 287.769,95.921 C287.848,95.979 287.923,96.042 288.002,96.099 C288.034,96.122 288.067,96.144 288.1,96.167 C292.645,99.576 296.001,104.3 297.734,109.852 C299.965,117.006 299.212,124.566 295.609,131.138 L291.534,138.574 L290.965,137.464 C288.445,132.549 282.417,130.609 277.504,133.128 C272.589,135.648 270.649,141.675 273.168,146.589 L299.301,197.554 C304.033,206.783 314.143,212.207 324.441,211.06 L387.154,204.07 C391.806,203.547 396.143,206.595 397.229,211.154 C397.855,213.775 397.348,216.434 395.804,218.642 C394.259,220.849 391.935,222.237 389.259,222.548 L307.564,232.05 C297.493,233.215 287.609,227.944 282.981,218.918 L264.897,183.642 C262.377,178.726 256.351,176.783 251.437,179.305 C246.522,181.825 244.581,187.851 247.1,192.765 L254.222,206.658 L234.998,241.737 L182.219,207.634 L238.91,100.877 C245.817,87.869 262.146,82.655 275.313,89.255 Z M157.228,78.601 C168.137,60.082 191.426,53.696 210.256,64.07 L226.798,73.184 L209.335,84.585 C191.503,96.227 169.227,98.806 149.371,91.939 L157.228,78.601 Z M101.701,202.22 C101.246,201.027 100.842,199.807 100.497,198.559 C97.631,188.168 99.065,177.33 104.536,168.044 L139.063,109.435 C149.577,113.616 160.701,115.692 171.809,115.692 C186.412,115.692 200.979,112.098 214.069,105.013 L176.819,175.159 L164.329,166.361 C157.505,161.554 149.221,159.719 141.004,161.199 C132.787,162.678 125.661,167.283 120.94,174.168 L101.701,202.22 Z M139.16,233.37 L119.608,222.685 C117.729,221.658 115.96,220.492 114.301,219.208 L137.433,185.479 C139.107,183.039 141.632,181.407 144.544,180.882 C147.456,180.357 150.393,181.008 152.811,182.712 L167.364,192.963 L160.841,205.247 L151.228,215.79 C146.317,221.177 142.293,227.101 139.16,233.37 Z M200.482,483.469 L210.749,483.469 C213.093,483.469 214.999,485.375 214.999,487.719 C214.999,490.063 213.093,491.969 210.749,491.969 L163.576,491.969 C158.564,491.969 154.486,487.891 154.486,482.879 L154.486,463.318 L172.068,463.318 C173.065,466.152 174.463,468.845 176.255,471.263 C181.914,478.906 190.972,483.469 200.482,483.469 Z M244.948,324.124 L213.82,301.839 C209.328,298.623 203.081,299.658 199.868,304.149 C196.705,308.568 197.663,314.679 201.971,317.937 L170.95,402.009 C170.541,403.117 170.332,404.289 170.332,405.471 L170.332,443.321 L154.486,443.321 L154.486,402.738 L162.988,307.942 C163.152,306.117 162.811,304.283 162.003,302.638 L157.017,292.491 C150.576,279.384 149.513,264.825 153.436,251.516 C153.719,250.862 153.931,250.193 154.066,249.516 C156.529,242.181 160.53,235.275 166.008,229.266 L170.767,224.047 L267.547,286.062 C286.94,298.298 296.063,321.422 290.249,343.603 L273.475,407.598 L261.998,407.598 L261.998,357.3 C261.998,344.169 255.625,331.767 244.948,324.124 Z M311.749,454.969 L299.123,454.969 L265.831,454.969 C263.718,454.969 261.998,453.249 261.998,451.136 L261.998,427.596 L273.515,427.596 C275.336,433.648 278.811,439.201 283.744,443.6 C290.155,449.32 298.418,452.469 307.01,452.469 L311.749,452.469 C312.438,452.469 312.999,453.03 312.999,453.719 C312.999,454.408 312.438,454.969 311.749,454.969 Z M397.49,361.702 L378.227,375.924 C376.575,377.144 375.338,378.842 374.686,380.789 L349.805,454.969 L332.935,454.969 C332.959,454.553 332.998,454.141 332.998,453.719 C332.998,442.001 323.466,432.469 311.748,432.469 L307.009,432.469 C303.333,432.469 299.8,431.122 297.056,428.674 C293.9,425.86 292.139,421.94 292.054,417.855 C292.056,417.768 292.067,417.684 292.067,417.596 C292.067,417.542 292.06,417.49 292.059,417.436 C292.068,416.202 292.222,414.957 292.545,413.725 L309.596,348.671 C317.631,318.017 305.023,286.058 278.222,269.146 L251.89,252.53 L265.248,228.155 C272.904,242.978 288.354,252.211 304.799,252.21 C306.483,252.21 308.179,252.113 309.876,251.915 L391.57,242.413 C393.601,242.177 395.582,241.728 397.49,241.088 L397.49,361.702 L397.49,361.702 Z" id="Shape"></path>
            <path d="M414.557,56.901 C412.698,55.041 410.118,53.971 407.488,53.971 C404.857,53.971 402.278,55.04 400.418,56.901 C398.558,58.762 397.488,61.341 397.488,63.971 C397.488,66.601 398.557,69.181 400.418,71.04 C402.278,72.901 404.857,73.971 407.488,73.971 C410.118,73.971 412.698,72.901 414.557,71.04 C416.417,69.181 417.488,66.601 417.488,63.971 C417.488,61.341 416.418,58.761 414.557,56.901 Z" id="Path"></path>
            <path d="M112.362,498.457 L73.362,394.458 C71.898,390.556 68.168,387.97 63.999,387.97 L10,387.97 C4.478,387.97 0,392.448 0,397.97 C0,403.492 4.478,407.97 10,407.97 L57.07,407.97 L93.636,505.481 C95.142,509.496 98.951,511.972 103.001,511.972 C104.167,511.972 105.354,511.766 106.511,511.332 C111.681,509.393 114.301,503.629 112.362,498.457 Z" id="Path"></path>
            <path d="M510.992,161.367 C508.578,156.398 502.594,154.331 497.627,156.742 L443.627,182.976 C440.184,184.65 437.997,188.142 437.997,191.971 L437.997,282.626 C437.997,288.149 442.475,292.626 447.997,292.626 C453.519,292.626 457.997,288.148 457.997,282.626 L457.997,198.23 L506.367,174.731 C511.335,172.318 513.405,166.335 510.992,161.367 Z" id="Path"></path>
            <path d="M469.066,377.759 C467.207,375.889 464.627,374.828 461.997,374.828 C459.367,374.828 456.787,375.889 454.927,377.759 C453.067,379.618 451.997,382.198 451.997,384.828 C451.997,387.459 453.066,390.028 454.927,391.898 C456.787,393.759 459.367,394.828 461.997,394.828 C464.627,394.828 467.207,393.759 469.066,391.898 C470.926,390.028 471.997,387.459 471.997,384.828 C471.997,382.198 470.927,379.618 469.066,377.759 Z" id="Path"></path>
        </g>
    </g>
</svg>