<?xml version="1.0" encoding="UTF-8"?>
<svg width="525px" height="503px" viewBox="0 0 525 503" version="1.1" xmlns="http://www.w3.org/2000/svg" xmlns:xlink="http://www.w3.org/1999/xlink">
    <!-- Generator: Sketch 53 (72520) - https://sketchapp.com -->
    <title>hiking</title>
    <desc>Created with Sketch.</desc>
    <g id="Page-1" stroke="none" stroke-width="1" fill="none" fill-rule="evenodd">
        <g id="hiking" fill="#404348" fill-rule="nonzero">
            <path d="M514.268839,257.966777 L488.429743,257.966777 C485.272387,257.966777 482.291107,259.423402 480.350274,261.912471 L464.767583,281.893052 C461.286087,286.354968 462.082429,292.789731 466.544345,296.271226 C468.41715,297.731853 470.634101,298.436155 472.839048,298.436155 C475.888357,298.436155 478.901651,297.083575 480.92252,294.494463 L493.431891,278.459577 L514.268839,278.459577 C519.927269,278.459577 524.513238,273.873608 524.513238,268.215178 C524.513238,262.556748 519.927269,257.966777 514.268839,257.966777 L514.268839,257.966777 Z" id="Path"></path>
            <path d="M430.808999,342.082898 C426.347083,338.605405 419.91232,339.397745 416.430825,343.859661 L402.024639,362.331594 L357.173379,362.331594 L321.349995,239.590886 C331.79448,235.61718 339.233675,225.504837 339.233675,213.683761 C339.233675,198.4052 326.804337,185.97186 311.521775,185.97186 L305.699274,185.97186 L298.276086,160.532937 C296.687405,155.102605 290.996961,151.985266 285.57063,153.569947 C280.140299,155.154627 277.02296,160.841069 278.607641,166.271401 L284.35811,185.97186 L278.895765,185.97186 L240.835421,149.648262 C241.643767,149.140044 242.448112,148.615819 243.23245,148.059581 C254.065101,140.392288 261.260192,128.967382 263.49315,115.885764 C265.730111,102.808148 262.736825,89.6424943 255.069533,78.8138448 C247.40224,67.9811927 235.977334,60.790105 222.895717,58.5531441 C195.896122,53.9351615 170.177079,72.1509838 165.563096,99.1505773 C162.7779,115.437572 168.312277,131.256365 179.064895,142.261091 C176.211669,143.601666 173.530518,145.162336 171.037447,146.923092 C166.235385,136.886783 156.947397,129.227493 145.370426,127.150602 C136.166473,125.501893 126.878484,127.566781 119.211193,132.973102 C111.375827,138.499474 106.177595,146.815046 104.584911,156.387156 C103.560472,162.529794 104.148723,168.588396 106.037534,174.110767 C105.53732,174.35087 105.053112,174.618985 104.596916,174.939123 C102.363957,176.499793 100.843304,178.888819 100.375104,181.577974 L85.9809227,264.221463 C83.3918107,279.107856 92.9759255,293.317957 107.346097,295.891062 L124.597505,298.98439 C126.154173,299.264511 127.698837,299.400569 129.227493,299.400569 C130.375987,299.400569 131.504472,299.300526 132.62095,299.152463 L129.427579,348.181517 L104.564902,399.463539 C102.20789,404.33363 101.011376,409.539866 101.011376,414.930181 C101.011376,420.184437 102.211893,425.286628 104.37282,429.912615 L92.4797135,429.912615 C90.5268749,429.912615 88.614053,430.472855 86.9693464,431.521305 L4.73803462,483.959823 C-0.0320137475,487.001129 -1.43261571,493.33585 1.6086903,498.105898 C3.56152889,501.167213 6.87495278,502.843933 10.2564046,502.843933 C12.1412132,502.843933 14.0460322,502.32371 15.7547652,501.235242 L95.4649949,450.401413 L134.473746,450.401413 C135.142033,450.44143 135.806318,450.461439 136.470604,450.461439 C137.022841,450.461439 137.571076,450.429425 138.119312,450.401413 L247.350218,450.401413 C249.975346,450.401413 252.500429,449.39298 254.405248,447.584203 L322.566518,382.824394 L349.426052,382.824394 L349.486078,382.824394 L349.522093,382.824394 L407.026787,382.824394 C410.180141,382.824394 413.161422,381.367768 415.102255,378.8787 L432.585762,356.465075 C436.067257,351.999156 435.270916,345.564393 430.808999,342.082898 L430.808999,342.082898 Z M174.510939,304.398716 C170.545236,303.718424 166.155351,303.426298 162.549803,301.529484 C156.175065,298.172042 152.941677,291.056986 154.122183,284.049978 C154.450325,282.109144 154.786469,280.164309 155.118612,278.223476 C184.835372,276.842883 205.568275,268.487294 219.45824,259.571466 L217.057209,273.625501 C216.288879,278.127435 218.593869,282.597354 222.707636,284.582207 L259.175296,302.153751 L301.549493,355.644722 C306.695702,362.143513 305.599232,371.61558 299.100441,376.761791 C292.605652,381.908 283.133584,380.807527 277.987375,374.312738 L241.363647,328.084887 C240.403235,326.868364 239.174707,325.887944 237.782109,325.215655 L206.916855,310.341268 C206.052484,309.925089 205.136091,309.632964 204.195687,309.472895 L174.510939,304.398716 Z M317.608388,342.92326 L273.765561,287.575492 C273.045252,286.671103 272.184882,285.902773 271.22447,285.294512 C270.888326,285.082421 270.532173,284.882336 270.164015,284.706259 L238.554441,269.471718 L243.352501,241.395661 L300.533056,241.395661 L335.828212,362.331594 L325.175638,362.331594 C324.675424,355.480652 322.190356,348.70174 317.608388,342.92326 L317.608388,342.92326 Z M274.794003,206.460659 L297.951948,206.460659 C297.971956,206.460659 297.991964,206.46466 298.011974,206.46466 C298.023978,206.46466 298.035983,206.460659 298.047989,206.460659 L311.521775,206.460659 C315.507487,206.460659 318.744877,209.702051 318.744877,213.683761 C318.744877,217.66547 315.507487,220.906863 311.521775,220.906863 L308.408438,220.906863 C308.396432,220.906863 308.384428,220.906863 308.376424,220.906863 L238.514424,220.906863 L217.801529,203.055197 C213.511687,199.365612 207.04491,199.845818 203.351324,204.131659 C199.657737,208.417499 200.137944,214.884276 204.423784,218.577862 L220.626742,232.539859 C212.519261,240.959474 194.019316,254.82943 158.664134,257.486571 L162.429752,235.457111 L169.544807,193.847242 C169.548808,193.81923 169.548808,193.791219 169.552809,193.763206 L171.661715,181.421907 C173.706594,169.468774 183.902972,156.915383 206.348611,156.915383 C206.864833,156.915383 207.385056,156.923387 207.917284,156.935391 C208.00132,156.939393 208.089358,156.939393 208.173394,156.939393 C215.200412,156.939393 221.515124,159.364435 225.945027,163.762324 C226.077083,163.89438 226.213141,164.022435 226.3492,164.146489 L267.718965,203.627442 C269.627784,205.448224 272.160873,206.460659 274.794003,206.460659 L274.794003,206.460659 Z M185.75977,102.600059 C188.188813,88.3939582 200.558125,78.3296371 214.512116,78.3296371 C216.140816,78.3296371 217.789524,78.465695 219.446236,78.7498173 C227.129535,80.0623809 233.840417,84.2881956 238.346351,90.6509274 C242.852287,97.0136602 244.613043,104.752983 243.296478,112.436283 C240.871436,126.642383 228.498122,136.710707 214.54413,136.706705 C212.915431,136.706705 211.266722,136.570647 209.610011,136.286524 C193.7472,133.577361 183.046605,118.462871 185.75977,102.600059 Z M124.793589,159.756603 C125.481885,155.626829 127.690833,152.061299 131.016261,149.716291 C133.465313,147.991552 136.310535,147.091164 139.223786,147.091164 C140.064147,147.091164 140.908509,147.167197 141.752872,147.319263 C149.860353,148.771886 155.310694,156.811338 153.906091,165.234956 C153.217795,169.364729 151.004845,172.930261 147.679417,175.275267 C144.526063,177.500223 140.716427,178.348587 136.946809,177.676298 C128.839327,176.219673 123.384984,168.180221 124.793589,159.756603 Z M128.215059,278.819732 L110.96365,275.722401 C107.65423,275.130147 105.501305,271.544607 106.165589,267.73097 L118.791011,195.235839 L147.631396,200.410061 L142.769308,228.862279 L135.021981,274.161732 C134.005545,277.307082 131.08429,279.331952 128.215059,278.819732 Z M129.971813,428.471996 C124.745568,425.938908 121.500175,420.74868 121.500175,414.926179 C121.500175,412.653203 122.008393,410.452258 123.004821,408.395375 L148.735871,355.316582 C149.31612,354.128071 149.656266,352.835516 149.740302,351.514949 L151.857211,319.049007 C159.580528,323.474907 168.788482,324.20322 177.42419,325.683856 C179.048888,325.959975 180.673585,326.240095 182.298283,326.516213 L179.993294,359.73848 L150.052436,421.505004 C147.6394,426.479141 142.82133,429.512443 137.667117,429.912615 L135.342119,429.912615 C133.525339,429.768553 131.708558,429.312356 129.971813,428.471996 Z M243.25646,429.912615 L168.744463,429.912615 L199.293581,366.893553 C199.505673,366.457366 199.681748,366.013175 199.829812,365.556979 C200.077919,364.784647 200.237987,363.968296 200.298012,363.123934 L202.526969,330.970127 L226.765379,342.651142 L261.928479,387.034201 C265.970214,392.136393 271.144436,395.821975 276.810869,398.030924 L243.25646,429.912615 Z" id="Shape"></path>
            <path d="M397.842843,132.953093 L450.257351,132.953093 C471.946665,132.953093 489.594243,115.305515 489.594243,93.612199 C489.594243,71.9228851 471.946665,54.2753073 450.257351,54.2753073 C445.019102,54.2753073 439.864889,55.3237571 435.090839,57.3166134 C426.327075,45.9197193 412.645199,38.9767375 397.842843,38.9767375 C371.931716,38.9767375 350.854665,60.0537888 350.854665,85.9649148 C350.854665,98.5143038 355.740763,110.315372 364.616575,119.191183 C373.492386,128.066995 385.289452,132.953093 397.842843,132.953093 L397.842843,132.953093 Z M397.842843,59.4655359 C408.399376,59.4655359 417.943474,65.7242235 422.157285,75.4163861 C423.445838,78.3816592 426.058959,80.5665969 429.208312,81.3069156 C432.353662,82.0432318 435.667086,81.2548925 438.144149,79.1739989 C441.577624,76.2887602 445.763421,74.7641057 450.257351,74.7641057 C460.649814,74.7641057 469.105444,83.2197365 469.105444,93.612199 C469.105444,104.008664 460.649814,112.464295 450.257351,112.464295 L397.842843,112.464295 C390.763803,112.464295 384.108945,109.707111 379.102796,104.700961 C374.096646,99.6988125 371.343464,93.0439555 371.343464,85.9649148 C371.343464,71.3506402 383.232569,59.4655359 397.842843,59.4655359 Z" id="Shape"></path>
            <path d="M61.9385984,107.117999 C82.5674561,107.117999 99.3506638,90.3347924 99.3506638,69.7059336 C99.3506638,49.0770748 82.5674561,32.2938683 61.9385984,32.2938683 C51.9463067,32.2938683 42.5502718,36.1835375 35.4872391,43.2505728 C28.4202048,50.3176081 24.526532,59.7136419 24.526532,69.7059336 C24.526532,90.3347924 41.3137411,107.117999 61.9385984,107.117999 Z M49.9734598,57.740795 C53.1708331,54.5434227 57.4206575,52.7826666 61.9385984,52.7826666 C71.2706048,52.7826666 78.8618654,60.3739262 78.8618654,69.7059336 C78.8618654,79.037941 71.2706048,86.6292006 61.9385984,86.6292006 C52.6105925,86.6292006 45.0153304,79.037941 45.0153304,69.7059336 C45.0153304,65.1839913 46.7760865,60.9341668 49.9734598,57.740795 Z" id="Shape"></path>
            <path d="M5.12219959,48.9610253 L9.92826317,51.7342159 C11.540956,52.666616 13.3057135,53.110807 15.0424598,53.110807 C18.5839804,53.110807 22.0254582,51.274018 23.9222723,47.984606 C26.7514875,43.0865026 25.0747672,36.819811 20.1726624,33.9905969 L15.3665988,31.2174052 C10.4684954,28.3881911 4.20180384,30.0649103 1.37258968,34.9670151 C-1.45262405,39.8651185 0.224096232,46.1318101 5.12219959,48.9610253 Z" id="Path"></path>
            <path d="M118.754996,90.9070374 L113.948933,88.1338467 C109.050829,85.3046316 102.784138,86.9813518 99.9549225,91.8834567 C97.1257083,96.78156 98.8064301,103.048252 103.704533,105.877466 L108.510597,108.650657 C110.12329,109.583058 111.884046,110.027249 113.624793,110.027249 C117.162313,110.027249 120.607792,108.19046 122.504606,104.901047 C125.333821,100.002944 123.6531,93.7362525 118.754996,90.9070374 Z" id="Path"></path>
            <path d="M10.2564046,110.027249 C11.9931499,110.027249 13.7579085,109.583058 15.3706002,108.650657 L20.1726624,105.877466 C25.0747672,103.048252 26.7514875,96.7855615 23.9222723,91.8834567 C21.0930581,86.9813518 14.830368,85.3046316 9.92826317,88.1338467 L5.12219959,90.9070374 C0.224096232,93.7362525 -1.45262405,100.002944 1.37258968,104.901047 C3.27340516,108.19046 6.71488404,110.027249 10.2564046,110.027249 Z" id="Path"></path>
            <path d="M108.838738,53.110807 C110.575484,53.110807 112.33624,52.666616 113.948933,51.7382173 L118.754996,48.9610253 C123.657101,46.1318101 125.333821,39.869121 122.504606,34.9670151 C119.675391,30.0689118 113.4087,28.3881911 108.510597,31.2174052 L103.704533,33.9905969 C98.8064301,36.819811 97.1257083,43.0865026 99.9549225,47.9886074 C101.855739,51.274018 105.297217,53.110807 108.838738,53.110807 Z" id="Path"></path>
            <path d="M61.9385984,26.3193019 C67.5970277,26.3193019 72.1829976,21.7333331 72.1829976,16.0749027 L72.1829976,10.2443992 C72.1829976,4.58596881 67.5970277,0 61.9385984,0 C56.280168,0 51.6941992,4.58596881 51.6941992,10.2443992 L51.6941992,16.0749027 C51.6941992,21.7333331 56.280168,26.3193019 61.9385984,26.3193019 Z" id="Path"></path>
            <path d="M51.6941992,124.289373 L51.6941992,130.119877 C51.6941992,135.778306 56.280168,140.364276 61.9385984,140.364276 C67.5970277,140.364276 72.1829976,135.778306 72.1829976,130.119877 L72.1829976,124.289373 C72.1829976,118.630943 67.5970277,114.044974 61.9385984,114.044974 C56.280168,114.044974 51.6941992,118.634945 51.6941992,124.289373 Z" id="Path"></path>
            <path d="M457.156314,314.358993 C455.503604,310.333265 451.301799,307.748154 446.963937,308.06429 C442.706108,308.372422 439.02853,311.365708 437.852024,315.463467 C436.671517,319.573232 438.256197,324.111181 441.725687,326.604252 C445.147157,329.057305 449.877188,329.125335 453.37469,326.796334 C457.396417,324.127188 459.013111,318.812905 457.156314,314.358993 L457.156314,314.358993 Z" id="Path"></path>
        </g>
    </g>
</svg>