<?xml version="1.0" encoding="UTF-8"?>
<svg width="44px" height="48px" viewBox="0 0 44 48" version="1.1" xmlns="http://www.w3.org/2000/svg" xmlns:xlink="http://www.w3.org/1999/xlink">
    <!-- Generator: Sketch 53 (72520) - https://sketchapp.com -->
    <title>Group</title>
    <desc>Created with Sketch.</desc>
    <g id="Page-1" stroke="none" stroke-width="1" fill="none" fill-rule="evenodd">
        <g id="Group" transform="translate(-14.000000, -12.000000)">
            <rect id="Rectangle" x="0" y="0" width="72" height="72"></rect>
            <g id="tourist-(1)" transform="translate(14.000000, 12.000000)" fill="#404348" fill-rule="nonzero">
                <path d="M18.2954813,17.6 C18.7372813,17.6 19.0954813,17.2418 19.0954813,16.8 L19.0954813,16 C19.0954813,15.5582 18.7372813,15.2 18.2954813,15.2 C17.8536813,15.2 17.4954813,15.5582 17.4954813,16 L17.4954813,16.8 C17.4954813,17.2418 17.8536813,17.6 18.2954813,17.6 Z" id="Path"></path>
                <path d="M26.2954813,17.6 C26.7372813,17.6 27.0954813,17.2418 27.0954813,16.8 L27.0954813,16 C27.0954813,15.5582 26.7372813,15.2 26.2954813,15.2 C25.8536813,15.2 25.4954813,15.5582 25.4954813,16 L25.4954813,16.8 C25.4954813,17.2418 25.8536813,17.6 26.2954813,17.6 Z" id="Path"></path>
                <path d="M20.2509813,19.8696 C20.2788813,19.8882 20.3078813,19.9051 20.3378813,19.92 L21.9378813,20.72 C22.3332813,20.9175 22.8139813,20.757 23.0114813,20.3616 C23.2089813,19.9662 23.0484813,19.4855 22.6530813,19.288 L21.8634813,18.8936 L22.9610813,17.248 C23.2062813,16.8804 23.1070813,16.3836 22.7394813,16.1384 C22.3718813,15.8932 21.8750813,15.9924 21.6298813,16.36 L20.0298813,18.76 C19.7845813,19.1274 19.8834813,19.6242 20.2509813,19.8696 Z" id="Path"></path>
                <path d="M18.7698813,22.408 C20.4994813,24.3554 23.4802813,24.5319 25.4276813,22.8022 C25.5667813,22.6787 25.6983813,22.547 25.8218813,22.408 L26.0618813,22.168 L24.9282813,21.04 L24.6882813,21.28 C23.5441813,22.6008 21.5459813,22.7442 20.2251813,21.6001 C20.1109813,21.5012 20.0039813,21.3942 19.9050813,21.28 L19.6650813,21.04 L18.5306813,22.168 L18.7698813,22.408 Z" id="Path"></path>
                <path d="M39.8954813,31.8192 L39.8954813,31.2 C39.8897813,26.3423 35.9531813,22.4057 31.0954813,22.4 L31.0154813,22.4 C31.4810813,21.3907 31.7663813,20.3077 31.8586813,19.2 L31.8954813,19.2 C33.6627813,19.2 35.0954813,17.7673 35.0954813,16 C35.0954813,14.2327 33.6627813,12.8 31.8954813,12.8 L31.8954813,8 L31.8482813,6.4 C31.4374813,2.7586 28.3599813,0.005 24.6954813,0 L19.8954813,0 C16.2309813,0.005 13.1534813,2.7586 12.7426813,6.4 L12.6954813,6.4 L12.6954813,12.8 C10.9281813,12.8 9.49548134,14.2327 9.49548134,16 C9.49548134,17.7673 10.9281813,19.2 12.6954813,19.2 L12.7362813,19.2 C12.8285813,20.3077 13.1138813,21.3907 13.5794813,22.4 L13.4954813,22.4 C8.63778134,22.4057 4.70118134,26.3423 4.69548134,31.2 L4.69548134,31.8192 C2.17318134,33.7844 0.697481336,36.8025 0.695481336,40 L0.695481336,48 L43.8954813,48 L43.8954813,40 C43.8934813,36.8025 42.4177813,33.7844 39.8954813,31.8192 Z M31.8954813,14.4 C32.7791813,14.4 33.4954813,15.1163 33.4954813,16 C33.4954813,16.8837 32.7791813,17.6 31.8954813,17.6 L31.8954813,14.4 Z M12.6954813,17.6 C11.8117813,17.6 11.0954813,16.8837 11.0954813,16 C11.0954813,15.1163 11.8117813,14.4 12.6954813,14.4 L12.6954813,17.6 Z M31.0954813,24 C34.9025813,24.0047 38.0479813,26.9724 38.2738813,30.7728 C36.7987813,30.0026 35.1594813,29.6003 33.4954813,29.6 L26.2954813,29.6 L26.2954813,27.12 C27.8035813,26.4228 29.1060813,25.3482 30.0770813,24 L31.0954813,24 Z M19.8954813,1.6 L24.6954813,1.6 C27.4780813,1.6035 29.8373813,3.6465 30.2386813,6.4 L14.3522813,6.4 C14.7535813,3.6465 17.1128813,1.6035 19.8954813,1.6 Z M14.2954813,12.8 L14.2954813,8 L30.2954813,8 L30.2954813,9.2688 L29.2626813,10.3008 C27.4467813,12.1193 24.6255813,12.4668 22.4226813,11.1432 L18.7074813,8.9144 C18.3287813,8.6869 17.8372813,8.8094 17.6096813,9.1882 C17.5349813,9.3125 17.4954813,9.4549 17.4954813,9.6 L17.4954813,10.4936 C17.4958813,11.5268 16.8348813,12.4444 15.8546813,12.7712 L14.2954813,13.2896 L14.2954813,12.8 Z M14.2954813,14.976 L16.3610813,14.288 C17.8213813,13.8025 18.8728813,12.5213 19.0642813,10.9944 L21.5986813,12.5144 C24.3884813,14.1898 27.9558813,13.7819 30.2954813,11.52 L30.2954813,18.4 C30.2954813,22.8183 26.7137813,26.4 22.2954813,26.4 C17.8771813,26.4 14.2954813,22.8183 14.2954813,18.4 L14.2954813,14.976 Z M24.6954813,27.68 L24.6954813,31.2 C24.6954813,32.5255 23.6209813,33.6 22.2954813,33.6 C20.9699813,33.6 19.8954813,32.5255 19.8954813,31.2 L19.8954813,27.68 C21.4677813,28.1013 23.1231813,28.1013 24.6954813,27.68 Z M13.4954813,24 L14.5138813,24 C15.4848813,25.3482 16.7873813,26.4228 18.2954813,27.12 L18.2954813,29.6 L11.0954813,29.6 C9.43148134,29.6003 7.79218134,30.0026 6.31708134,30.7728 C6.54298134,26.9724 9.68838134,24.0047 13.4954813,24 Z M15.0954813,31.2 L15.0954813,36.8 C15.0933813,37.5549 14.7381813,38.2654 14.1354813,38.72 L10.2954813,41.6 L10.2954813,39.6 L11.8954813,38.4 C12.9002813,37.6425 13.4923813,36.4583 13.4954813,35.2 L13.4954813,31.2 L15.0954813,31.2 Z M8.69548134,46.4 L2.29548134,46.4 L2.29548134,44.8 L8.69548134,44.8 L8.69548134,46.4 Z M8.69548134,39.2 L8.69548134,43.2 L2.29548134,43.2 L2.29548134,40 C2.30118134,35.1423 6.23778134,31.2057 11.0954813,31.2 L11.8954813,31.2 L11.8954813,35.2 C11.8933813,35.9549 11.5381813,36.6654 10.9354813,37.12 L9.01548134,38.56 C8.81408134,38.7111 8.69548134,38.9482 8.69548134,39.2 Z M34.2954813,44.8 L34.2954813,46.4 L10.2954813,46.4 L10.2954813,43.6 L15.0954813,40 C16.1002813,39.2425 16.6923813,38.0583 16.6954813,36.8 L16.6954813,31.2 L18.2954813,31.2 C18.2954813,33.4091 20.0863813,35.2 22.2954813,35.2 C24.5045813,35.2 26.2954813,33.4091 26.2954813,31.2 L27.8954813,31.2 L27.8954813,36.8 C27.8985813,38.0583 28.4906813,39.2425 29.4954813,40 L34.2954813,43.6 L34.2954813,44.8 Z M34.2954813,41.6 L30.4554813,38.72 C29.8527813,38.2653 29.4975813,37.5549 29.4954813,36.8 L29.4954813,31.2 L31.0954813,31.2 L31.0954813,35.2 C31.0985813,36.4583 31.6906813,37.6425 32.6954813,38.4 L34.2954813,39.6 L34.2954813,41.6 Z M42.2954813,46.4 L35.8954813,46.4 L35.8954813,44.8 L42.2954813,44.8 L42.2954813,46.4 Z M42.2954813,43.2 L35.8954813,43.2 L35.8954813,39.2 C35.8954813,38.9482 35.7768813,38.7111 35.5754813,38.56 L33.6554813,37.12 C33.0527813,36.6653 32.6975813,35.9549 32.6954813,35.2 L32.6954813,31.2 L33.4954813,31.2 C38.3531813,31.2057 42.2897813,35.1423 42.2954813,40 L42.2954813,43.2 Z" id="Shape"></path>
            </g>
        </g>
    </g>
</svg>