<?xml version="1.0" encoding="UTF-8"?>
<svg width="494px" height="513px" viewBox="0 0 494 513" version="1.1" xmlns="http://www.w3.org/2000/svg" xmlns:xlink="http://www.w3.org/1999/xlink">
    <!-- Generator: Sketch 53 (72520) - https://sketchapp.com -->
    <title>hallgrimskirkja</title>
    <desc>Created with Sketch.</desc>
    <g id="Page-1" stroke="none" stroke-width="1" fill="none" fill-rule="evenodd">
        <g id="hallgrimskirkja" fill="#404348" fill-rule="nonzero">
            <path d="M246.391389,259.792563 C263.514677,259.792563 277.444227,245.863013 277.444227,228.739726 C277.444227,211.616438 263.514677,197.682975 246.391389,197.682975 C229.268101,197.682975 215.334637,211.616438 215.334637,228.739726 C215.334637,245.863013 229.268101,259.792563 246.391389,259.792563 L246.391389,259.792563 Z M246.391389,217.722114 C252.465753,217.722114 257.405088,222.665362 257.405088,228.739726 C257.405088,234.81409 252.465753,239.753424 246.391389,239.753424 C240.317025,239.753424 235.373776,234.810176 235.373776,228.739726 C235.373776,222.665362 240.317025,217.722114 246.391389,217.722114 L246.391389,217.722114 Z" id="Shape"></path>
            <path d="M228.35225,309.076321 C222.818003,309.076321 218.332681,313.565558 218.332681,319.09589 L218.332681,335.076321 C218.332681,340.606653 222.818003,345.09589 228.35225,345.09589 C233.882583,345.09589 238.37182,340.606653 238.37182,335.076321 L238.37182,319.09589 C238.37182,313.561644 233.882583,309.076321 228.35225,309.076321 L228.35225,309.076321 Z" id="Path"></path>
            <path d="M263.945206,309.076321 C258.410959,309.076321 253.925637,313.565558 253.925637,319.09589 L253.925637,335.076321 C253.925637,340.606653 258.410959,345.09589 263.945206,345.09589 C269.475538,345.09589 273.964775,340.606653 273.964775,335.076321 L273.964775,319.09589 C273.964775,313.561644 269.479452,309.076321 263.945206,309.076321 L263.945206,309.076321 Z" id="Path"></path>
            <path d="M483.729941,403.577299 L458.101761,403.577299 L458.101761,392.152642 C458.101761,386.618395 453.616439,382.133073 448.082192,382.133073 L422.457925,382.133073 L422.457925,365.565557 C422.457925,360.031311 417.968689,355.545988 412.438356,355.545988 L386.837573,355.545988 L386.837573,327.992172 C386.837573,322.457926 382.352251,317.972602 376.818004,317.972602 L351.162426,317.972602 L351.162426,269.354207 C351.162426,263.823875 346.677104,259.334638 341.146771,259.334638 L315.518591,259.334638 L315.518591,206.55186 C315.518591,205.088063 315.197651,203.643836 314.58317,202.320939 L257.142857,78.9589046 L257.142857,36.0156551 L269.549903,36.0156551 C275.084149,36.0156551 279.569472,31.5303327 279.569472,25.9960856 C279.569472,20.4657532 275.084149,15.9765161 269.549903,15.9765161 L257.142857,15.9765161 L257.142857,10.0195695 C257.142857,4.4853224 252.657534,0 247.123288,0 C241.592955,0 237.103718,4.4853224 237.103718,10.0195695 L237.103718,15.9765161 L226.317025,15.9765161 C220.786693,15.9765161 216.297456,20.4657532 216.297456,25.9960856 C216.297456,31.5303327 220.786693,36.0156551 226.317025,36.0156551 L237.103718,36.0156551 L237.103718,78.9589046 L179.667319,202.320939 C179.052838,203.643836 178.731898,205.088063 178.731898,206.55186 L178.731898,259.334638 L153.09589,259.334638 C147.561644,259.334638 143.076321,263.823875 143.076321,269.354207 L143.076321,317.972602 L117.432485,317.972602 C111.898239,317.972602 107.412916,322.457926 107.412916,327.992172 L107.412916,355.545988 L81.8121333,355.545988 C76.2778862,355.545988 71.7925639,360.031311 71.7925639,365.565557 L71.7925639,382.133073 L46.1643838,382.133073 C40.6340514,382.133073 36.1448143,386.618395 36.1448143,392.152642 L36.1448143,403.577299 L10.5205479,403.577299 C4.98630087,403.577299 0.500978474,408.062622 0.500978474,413.596868 L0.500978474,502.982387 C0.500978474,508.516635 4.98630087,513.001957 10.5205479,513.001957 L483.726027,513.001957 C489.260274,513.001957 493.745597,508.516635 493.745597,502.982387 L493.745597,413.596868 C493.749511,408.062622 489.264188,403.577299 483.729941,403.577299 Z M20.5401174,423.616438 L36.1448143,423.616438 L36.1448143,492.962818 L20.5401174,492.962818 L20.5401174,423.616438 Z M56.1878669,402.172212 L71.7925639,402.172212 L71.7925639,492.962818 L56.1878669,492.962818 L56.1878669,402.172212 Z M91.8317028,375.585127 L107.412916,375.585127 L107.412916,492.962818 L91.8317028,492.962818 L91.8317028,375.585127 Z M153.09589,447.178083 C147.561644,447.178083 143.076321,451.663405 143.076321,457.197652 L143.076321,492.962818 L127.452055,492.962818 L127.452055,338.011741 L143.076321,338.011741 L143.076321,374.931507 C142.735812,380.93542 147.921722,385.925636 153.874756,385.495108 C156.497064,385.307241 158.966732,384.035225 160.688845,382.046966 C162.446184,380.015656 163.11546,377.5773 163.11546,374.943249 L163.11546,279.377691 L178.731898,279.377691 L178.731898,492.962818 L163.11546,492.962818 L163.11546,457.197652 C163.11546,451.663405 158.630136,447.178083 153.09589,447.178083 L153.09589,447.178083 Z M198.771037,208.767123 L247.123288,104.915852 L295.479452,208.767123 L295.479452,492.962818 L277.444227,492.962818 L277.444227,457.819961 C277.444227,434.786693 269.09589,412.547946 253.933464,395.209393 C252.031311,393.033268 249.279844,391.784736 246.391389,391.784736 C243.502936,391.784736 240.751468,393.033268 238.849315,395.209393 C223.686888,412.551859 215.334637,434.786693 215.334637,457.819961 L215.334637,492.962818 L198.771037,492.962818 L198.771037,208.767123 Z M235.373776,492.962818 L235.373776,457.819961 C235.373776,443.917808 239.228963,430.387476 246.391389,418.669275 C253.553816,430.387476 257.405088,443.917808 257.405088,457.819961 L257.405088,492.962818 L235.373776,492.962818 Z M315.518591,279.373777 L331.123287,279.373777 L331.123287,492.962818 L315.518591,492.962818 L315.518591,279.373777 Z M351.264188,338.011741 L366.798434,338.011741 L366.798434,492.962818 L351.170254,492.962818 L351.264188,338.011741 Z M386.833659,375.585127 L402.414873,375.585127 L402.414873,492.962818 L386.833659,492.962818 L386.833659,375.585127 Z M422.454011,402.172212 L438.062622,402.172212 L438.062622,492.962818 L422.454011,492.962818 L422.454011,402.172212 Z M473.710372,492.962818 L458.101761,492.962818 L458.101761,423.616438 L473.710372,423.616438 L473.710372,492.962818 Z" id="Shape"></path>
            <path d="M162.348337,412.414873 C160.731898,408.473581 156.630137,405.949119 152.379647,406.254404 C148.219179,406.555773 144.618396,409.48728 143.46771,413.495108 C142.313111,417.514677 143.8591,421.949119 147.25636,424.387476 C150.60274,426.790606 155.236791,426.853229 158.661448,424.579256 C162.587084,421.972603 164.156556,416.755381 162.348337,412.414873 L162.348337,412.414873 Z" id="Path"></path>
        </g>
    </g>
</svg>