<?xml version="1.0" encoding="UTF-8"?>
<svg width="512px" height="500px" viewBox="0 0 512 500" version="1.1" xmlns="http://www.w3.org/2000/svg" xmlns:xlink="http://www.w3.org/1999/xlink">
    <!-- Generator: Sketch 53 (72520) - https://sketchapp.com -->
    <title>christ-the-redeemer (1)</title>
    <desc>Created with Sketch.</desc>
    <g id="Page-1" stroke="none" stroke-width="1" fill="none" fill-rule="evenodd">
        <g id="christ-the-redeemer-(1)" fill="#404348" fill-rule="nonzero">
            <path d="M502,93.253906 L301.910156,93.253906 L301.910156,45.910156 C301.910156,20.597656 281.316406,0 256,0 C230.683594,0 210.089844,20.597656 210.089844,45.910156 L210.089844,93.253906 L10,93.253906 C4.476562,93.253906 0,97.730469 0,103.253906 C0,139.476562 29.402344,168.945312 65.542969,168.945312 L74.335938,168.945312 C74.835938,215.984375 111.078125,254.578125 157.070312,258.683594 C161.003906,278.785156 170.921875,296.765625 184.898438,310.683594 L184.898438,415.757812 L169.664062,415.757812 C146.4375,415.757812 127.542969,434.65625 127.542969,457.878906 L127.542969,490 C127.542969,495.523438 132.019531,500 137.542969,500 L374.191406,500 C379.714844,500 384.191406,495.523438 384.191406,490 L384.191406,457.878906 C384.191406,434.652344 365.292969,415.757812 342.070312,415.757812 L326.835938,415.757812 L326.835938,385.503906 L346.804688,385.503906 C352.328125,385.503906 356.804688,381.027344 356.804688,375.503906 L356.804688,354.914062 C356.804688,349.390625 352.328125,344.914062 346.804688,344.914062 C341.28125,344.914062 336.804688,349.390625 336.804688,354.914062 L336.804688,365.503906 L301.402344,365.503906 C281.882812,365.503906 266,349.621094 266,330.101562 L266,256.253906 C266,250.730469 261.523438,246.253906 256,246.253906 C250.476562,246.253906 246,250.730469 246,256.253906 L246,319.460938 C229.324219,317.390625 214.210938,310.238281 202.269531,299.582031 C201.867188,299.144531 201.429688,298.742188 200.957031,298.378906 C185.121094,283.617188 175.195312,262.601562 175.195312,239.296875 L175.195312,211.28125 C175.195312,205.757812 170.71875,201.28125 165.195312,201.28125 C159.671875,201.28125 155.195312,205.757812 155.195312,211.28125 L155.195312,238.332031 C120.835938,233.441406 94.324219,203.757812 94.324219,167.96875 L94.324219,113.257812 L155.195312,113.257812 L155.195312,131.28125 C155.195312,136.804688 159.671875,141.28125 165.195312,141.28125 C170.71875,141.28125 175.195312,136.804688 175.195312,131.28125 L175.195312,113.257812 L336.804688,113.257812 L336.804688,274.917969 C336.804688,280.441406 341.28125,284.917969 346.804688,284.917969 C352.328125,284.917969 356.804688,280.441406 356.804688,274.917969 L356.804688,258.5 C401.90625,253.527344 437.171875,215.34375 437.664062,168.949219 L446.457031,168.949219 C482.597656,168.949219 512,139.480469 512,103.257812 C512,97.730469 507.523438,93.253906 502,93.253906 L502,93.253906 Z M364.191406,457.878906 L364.191406,480 L147.542969,480 L147.542969,457.878906 C147.542969,445.679688 157.46875,435.757812 169.664062,435.757812 L342.070312,435.757812 C354.269531,435.757812 364.191406,445.683594 364.191406,457.878906 Z M301.402344,385.503906 L306.839844,385.503906 L306.839844,415.757812 L204.898438,415.757812 L204.898438,326.15625 C217.410156,333.542969 231.644531,338.304688 246.847656,339.679688 C251.398438,365.679688 274.121094,385.503906 301.402344,385.503906 Z M74.324219,148.945312 L65.542969,148.945312 C43.855469,148.945312 25.65625,133.65625 21.097656,113.253906 L74.324219,113.253906 L74.324219,148.945312 Z M230.089844,93.253906 L230.089844,45.910156 C230.089844,31.625 241.714844,20 256,20 C270.285156,20 281.910156,31.625 281.910156,45.910156 L281.910156,93.253906 L230.089844,93.253906 Z M417.675781,167.964844 C417.675781,203.757812 391.164062,233.441406 356.804688,238.328125 L356.804688,113.253906 L417.675781,113.253906 L417.675781,167.964844 Z M446.457031,148.945312 L437.675781,148.945312 L437.675781,113.253906 L490.902344,113.253906 C486.34375,133.65625 468.144531,148.945312 446.457031,148.945312 Z" id="Shape"></path>
            <path d="M165.195312,161.277344 C159.671875,161.277344 155.195312,165.757812 155.195312,171.28125 C155.195312,176.804688 159.671875,181.28125 165.195312,181.28125 C170.71875,181.28125 175.195312,176.804688 175.195312,171.28125 L175.195312,171.273438 C175.195312,165.75 170.71875,161.277344 165.195312,161.277344 Z" id="Path"></path>
            <path d="M346.804688,304.914062 C341.28125,304.914062 336.804688,309.394531 336.804688,314.917969 C336.804688,320.441406 341.28125,324.917969 346.804688,324.917969 C352.328125,324.917969 356.804688,320.441406 356.804688,314.917969 L356.804688,314.910156 C356.804688,309.386719 352.328125,304.914062 346.804688,304.914062 L346.804688,304.914062 Z" id="Path"></path>
        </g>
    </g>
</svg>