<?xml version="1.0" encoding="UTF-8"?>
<svg width="885px" height="650px" viewBox="0 0 885 650" version="1.1" xmlns="http://www.w3.org/2000/svg" xmlns:xlink="http://www.w3.org/1999/xlink">
    <!-- Generator: Sketch 53 (72520) - https://sketchapp.com -->
    <title>kamperen</title>
    <desc>Created with Sketch.</desc>
    <g id="Page-1" stroke="none" stroke-width="1" fill="none" fill-rule="evenodd">
        <g id="kamperen" transform="translate(9.000000, 9.231396)">
            <g id="jeep" transform="translate(140.000000, 93.768604)" fill="#404348" fill-rule="nonzero">
                <path d="M510.27027,183.783784 L467.5,183.783784 L416.326013,71.203547 C414.57348,67.3437503 410.726351,64.8648649 406.486486,64.8648649 L315.869933,64.8648649 L286.423142,5.97550703 C284.594595,2.31418919 280.85304,0 276.756757,0 L75.6756757,0 C69.7043914,0 64.8648649,4.83952649 64.8648649,10.8108108 L64.8648649,118.918919 L43.2432432,118.918919 C19.4003373,118.918919 -2.84217094e-14,138.319256 -2.84217094e-14,162.162162 L-2.84217094e-14,227.027027 C-2.84217094e-14,250.869933 19.4003373,270.27027 43.2432432,270.27027 L64.8648649,270.27027 L64.8648649,313.513514 L43.2432432,313.513514 C37.2719589,313.513514 32.4324324,318.35304 32.4324324,324.324324 C32.4324324,330.295609 37.2719589,335.122466 43.2432432,335.122466 L104.032939,335.122466 C103.872466,336.913006 103.783784,338.716216 103.783784,340.527871 C103.783784,373.315034 130.456081,400 163.243243,400 C196.030405,400 222.702703,373.327703 222.702703,340.540541 C222.702703,338.724662 222.618243,336.925676 222.453547,335.135135 L249.72973,335.135135 C255.701014,335.135135 260.540541,330.295609 260.540541,324.324324 C260.540541,318.35304 255.701014,313.513514 249.72973,313.513514 L216.199324,313.513514 C206.157094,293.842906 185.760135,281.081081 163.243243,281.081081 C140.726351,281.081081 120.329392,293.842906 110.287162,313.513514 L86.4864865,313.513514 C86.4864865,303.19679 86.4864865,96.296453 86.4864865,86.4864865 L399.527027,86.4864865 L409.353885,108.108108 L179.459459,108.108108 C173.488175,108.108108 168.648649,112.947635 168.648649,118.918919 L168.648649,194.594595 C168.648649,200.565879 173.488175,205.405405 179.459459,205.405405 L510.27027,205.405405 C522.191723,205.405405 531.891892,215.105574 531.891892,227.027027 L531.891892,248.648649 L510.27027,248.648649 C504.298986,248.648649 499.459459,253.488175 499.459459,259.459459 C499.459459,265.430744 504.298986,270.27027 510.27027,270.27027 L531.891892,270.27027 L531.891892,313.513514 L475.658784,313.513514 C465.616554,293.842906 445.219595,281.081081 422.702703,281.081081 C400.185811,281.081081 379.788852,293.842906 369.746622,313.513514 L347.027027,313.513514 C341.055743,313.513514 336.216216,318.35304 336.216216,324.324324 C336.216216,330.295609 341.055743,335.122466 347.027027,335.122466 L363.492399,335.122466 C363.331925,336.913006 363.243243,338.716216 363.243243,340.527871 C363.243243,373.315034 389.915541,400 422.702703,400 C455.489865,400 482.162162,373.327703 482.162162,340.540541 C482.162162,338.724662 482.077703,336.925676 481.913006,335.135135 L542.702703,335.135135 C548.673987,335.135135 553.513514,330.295609 553.513514,324.324324 L553.513514,227.027027 C553.513514,203.184121 534.113176,183.783784 510.27027,183.783784 L510.27027,183.783784 Z M163.243243,302.702703 C179.256757,302.702703 193.59375,312.837838 198.931588,327.951858 C200.35473,331.959459 201.081081,336.195102 201.081081,340.540541 C201.081081,361.40625 184.108952,378.378378 163.243243,378.378378 C142.377534,378.378378 125.405405,361.40625 125.405405,340.540541 C125.405405,336.195102 126.131757,331.959459 127.554898,327.951858 C127.559122,327.939189 127.563345,327.930744 127.567568,327.922297 C132.892736,312.837838 147.22973,302.702703 163.243243,302.702703 L163.243243,302.702703 Z M291.697635,64.8648649 L222.702703,64.8648649 L222.702703,21.6216216 L270.076013,21.6216216 L291.697635,64.8648649 Z M201.081081,64.8648649 L157.837838,64.8648649 L157.837838,21.6216216 L201.081081,21.6216216 L201.081081,64.8648649 Z M136.216216,21.6216216 L136.216216,64.8648649 L86.4864865,64.8648649 L86.4864865,21.6216216 L136.216216,21.6216216 Z M43.2432432,248.648649 C31.3217903,248.648649 21.6216216,238.94848 21.6216216,227.027027 L21.6216216,162.162162 C21.6216216,150.240709 31.3217903,140.540541 43.2432432,140.540541 L64.8648649,140.540541 L64.8648649,248.648649 L43.2432432,248.648649 Z M443.75,183.783784 L320,183.783784 L320,129.72973 L419.180744,129.72973 L443.75,183.783784 Z M190.27027,129.72973 L298.378378,129.72973 L298.378378,183.783784 L190.27027,183.783784 L190.27027,129.72973 Z M422.702703,378.378378 C401.836994,378.378378 384.864865,361.40625 384.864865,340.540541 C384.864865,319.628378 401.858108,302.702703 422.702703,302.702703 C443.530405,302.702703 460.540541,319.607264 460.540541,340.540541 C460.540541,361.40625 443.568412,378.378378 422.702703,378.378378 Z" id="Shape"></path>
                <path d="M352.432432,259.459459 C352.432432,253.488175 347.592906,248.648649 341.621622,248.648649 L276.756757,248.648649 C270.785472,248.648649 265.945946,253.488175 265.945946,259.459459 C265.945946,265.430744 270.785472,270.27027 276.756757,270.27027 L341.621622,270.27027 C347.592906,270.27027 352.432432,265.430744 352.432432,259.459459 Z" id="Path"></path>
                <path d="M164.539696,356.756757 C173.483952,356.756757 180.755912,349.480574 180.755912,340.540541 C180.755912,331.600507 173.483952,324.324324 164.539696,324.324324 C155.599663,324.324324 148.32348,331.600507 148.32348,340.540541 C148.32348,349.480574 155.599663,356.756757 164.539696,356.756757 Z" id="Path"></path>
                <path d="M423.999156,324.324324 C415.059122,324.324324 407.782939,331.600507 407.782939,340.540541 C407.782939,349.480574 415.059122,356.756757 423.999156,356.756757 C432.943412,356.756757 440.215372,349.480574 440.215372,340.540541 C440.215372,331.600507 432.943412,324.324324 423.999156,324.324324 Z" id="Path"></path>
                <path d="M309.189189,324.324324 C309.189189,330.295609 304.349663,335.135135 298.378378,335.135135 C292.407094,335.135135 287.567568,330.295609 287.567568,324.324324 C287.567568,318.35304 292.407094,313.513514 298.378378,313.513514 C304.349663,313.513514 309.189189,318.35304 309.189189,324.324324 Z" id="Path"></path>
            </g>
            <path d="M3.41060513e-13,80.1290777 C35.4994066,86.4080134 73.766306,89.5474812 114.800698,89.5474812 C339.188391,89.5474812 464.731618,-2.8945844e-13 622.628345,-2.91322522e-13 C727.892829,-2.92358122e-13 809.350048,23.5367074 867,70.6101222" id="Line-7" stroke="#404348" stroke-width="18" stroke-linecap="round" transform="translate(433.500000, 44.773741) scale(-1, 1) translate(-433.500000, -44.773741) "></path>
            <path d="M1.13686838e-13,493.768604 L867,493.768604" id="Line-8" stroke="#404348" stroke-width="18" stroke-linecap="round"></path>
            <path d="M0,613.768604 C226.486486,676.961302 521.651026,548.896972 629.083552,539.995893 C729.940737,531.639599 809.24622,542.651638 867,573.032011" id="Line-8" stroke="#404348" stroke-width="18" stroke-linecap="round"></path>
        </g>
    </g>
</svg>