<?xml version="1.0" encoding="UTF-8"?>
<svg width="512px" height="512px" viewBox="0 0 512 512" version="1.1" xmlns="http://www.w3.org/2000/svg" xmlns:xlink="http://www.w3.org/1999/xlink">
    <!-- Generator: Sketch 53 (72520) - https://sketchapp.com -->
    <title>canoe (1)</title>
    <desc>Created with Sketch.</desc>
    <g id="Page-1" stroke="none" stroke-width="1" fill="none" fill-rule="evenodd">
        <g id="canoe-(1)" fill="#404348" fill-rule="nonzero">
            <path d="M394.945312,248.546875 C395.105469,248.351562 395.257812,248.152344 395.402344,247.945312 C413.117188,224.550781 429.328125,200.304688 443.886719,175.316406 C474.550781,122.671875 497.363281,67.894531 511.683594,12.503906 C512.570312,9.074219 511.574219,5.433594 509.070312,2.929688 C506.566406,0.425781 502.929688,-0.570312 499.496094,0.320312 C484.738281,4.132812 469.78125,8.632812 455.035156,13.6875 C449.8125,15.480469 447.027344,21.167969 448.820312,26.390625 C450.613281,31.617188 456.304688,34.398438 461.523438,32.605469 C470.207031,29.628906 478.960938,26.851562 487.703125,24.304688 C468.074219,91.851562 435.902344,157.257812 392.777344,217.898438 C386.242188,194.492188 373.738281,172.917969 356.410156,155.589844 C339.097656,138.277344 317.542969,125.777344 294.15625,119.238281 C328.8125,94.648438 365.191406,73.53125 403.054688,56.082031 C408.070312,53.769531 410.261719,47.828125 407.949219,42.8125 C405.640625,37.796875 399.703125,35.605469 394.683594,37.917969 C321.230469,71.769531 253.226562,118.964844 192.414062,178.269531 L127.578125,113.433594 C127.914062,111.90625 128.097656,110.324219 128.074219,108.691406 L128.046875,83.542969 C128.035156,77.554688 125.503906,71.46875 121.070312,66.695312 C120.855469,66.433594 120.628906,66.183594 120.386719,65.941406 L89.371094,34.925781 C84.800781,30.351562 78.925781,27.839844 72.820312,27.839844 C72.785156,27.839844 72.75,27.839844 72.714844,27.839844 C66.296875,27.867188 60.199219,30.585938 55.089844,35.699219 L35.699219,55.089844 C25.542969,65.246094 25.21875,79.664062 34.925781,89.371094 L65.9375,120.386719 C66.175781,120.621094 66.421875,120.84375 66.679688,121.054688 C71.453125,125.496094 77.546875,128.03125 83.550781,128.042969 L108.691406,128.070312 C108.800781,128.074219 108.910156,128.074219 109.019531,128.074219 C110.539062,128.074219 112.011719,127.894531 113.4375,127.578125 L178.273438,192.414062 C156.246094,215.015625 135.808594,238.75 117.058594,263.453125 C116.894531,263.652344 116.738281,263.859375 116.585938,264.070312 C98.875,287.457031 82.671875,311.703125 68.117188,336.6875 C37.449219,389.332031 14.640625,444.109375 0.320312,499.5 C-0.566406,502.925781 0.425781,506.566406 2.929688,509.070312 C4.828125,510.972656 7.382812,512.003906 10,512.003906 C10.835938,512.003906 11.675781,511.898438 12.503906,511.683594 C27.269531,507.867188 42.230469,503.367188 56.964844,498.3125 C62.191406,496.519531 64.972656,490.835938 63.179688,485.609375 C61.390625,480.386719 55.699219,477.605469 50.476562,479.394531 C41.796875,482.371094 33.039062,485.148438 24.296875,487.699219 C43.929688,420.152344 76.101562,354.746094 119.222656,294.105469 C125.761719,317.507812 138.261719,339.082031 155.589844,356.410156 C172.90625,373.726562 194.460938,386.222656 217.847656,392.765625 C183.191406,417.355469 146.8125,438.472656 108.949219,455.921875 C103.933594,458.234375 101.742188,464.171875 104.050781,469.1875 C105.742188,472.851562 109.359375,475.007812 113.140625,475.007812 C114.539062,475.007812 115.964844,474.710938 117.320312,474.085938 C190.773438,440.234375 258.777344,393.039062 319.589844,333.734375 L384.425781,398.566406 C384.085938,400.097656 383.902344,401.679688 383.929688,403.3125 L383.957031,428.457031 C383.96875,434.445312 386.5,440.535156 390.933594,445.308594 C391.148438,445.570312 391.375,445.824219 391.617188,446.0625 L422.632812,477.078125 C427.351562,481.796875 433.183594,484.144531 439.101562,484.144531 C445.351562,484.144531 451.695312,481.519531 456.914062,476.304688 L476.304688,456.914062 C481.414062,451.800781 484.132812,445.707031 484.164062,439.285156 C484.191406,433.140625 481.675781,427.226562 477.078125,422.632812 L446.0625,391.617188 C445.824219,391.375 445.574219,391.152344 445.316406,390.941406 C440.542969,386.503906 434.449219,383.96875 428.453125,383.957031 L403.308594,383.929688 C401.671875,383.90625 400.089844,384.089844 398.566406,384.425781 L333.726562,319.585938 C355.757812,296.984375 376.195312,273.25 394.945312,248.546875 Z M272.589844,135.160156 C298.84375,138.757812 323.464844,150.933594 342.265625,169.734375 C361.078125,188.542969 373.253906,213.175781 376.847656,239.445312 C359.316406,262.242188 340.203125,284.292969 319.589844,305.445312 L309.035156,294.890625 L333.785156,270.140625 C359.125,244.800781 359.125,203.5625 333.785156,178.21875 C308.4375,152.875 267.203125,152.875 241.859375,178.21875 L217.109375,202.964844 L206.554688,192.410156 C227.707031,171.800781 249.742188,152.699219 272.589844,135.160156 L272.589844,135.160156 Z M231.253906,217.109375 L256,192.363281 C264.773438,183.589844 276.296875,179.203125 287.820312,179.203125 C299.34375,179.203125 310.867188,183.589844 319.640625,192.363281 C337.183594,209.90625 337.183594,238.457031 319.640625,256 L294.890625,280.75 L231.253906,217.109375 Z M280.75,294.890625 L256,319.640625 C247.546875,328.097656 236.246094,332.753906 224.179688,332.753906 C212.117188,332.753906 200.820312,328.097656 192.363281,319.640625 C174.816406,302.09375 174.816406,273.546875 192.363281,256 L217.113281,231.25 L280.75,294.890625 Z M80.097656,106.21875 C79.910156,106.03125 79.71875,105.851562 79.519531,105.679688 L49.066406,75.230469 C48.21875,74.382812 46.453125,72.617188 49.839844,69.230469 L69.230469,49.839844 C70.515625,48.554688 71.789062,47.84375 72.808594,47.839844 C73.796875,47.808594 74.667969,48.503906 75.230469,49.066406 L105.671875,79.511719 C105.84375,79.710938 106.027344,79.910156 106.214844,80.101562 C107.46875,81.355469 108.042969,82.785156 108.042969,83.574219 L108.070312,108.070312 L83.578125,108.042969 C82.78125,108.042969 81.355469,107.46875 80.097656,106.21875 Z M239.414062,376.84375 C213.15625,373.246094 188.535156,361.070312 169.734375,342.269531 C150.925781,323.460938 138.746094,298.828125 135.15625,272.558594 C152.6875,249.761719 171.800781,227.710938 192.414062,206.554688 L202.96875,217.113281 L178.21875,241.859375 C152.875,267.203125 152.875,308.441406 178.21875,333.785156 C190.453125,346.015625 206.777344,352.753906 224.179688,352.753906 C241.585938,352.753906 257.910156,346.015625 270.144531,333.785156 L294.890625,309.035156 L305.445312,319.589844 C284.296875,340.199219 262.261719,359.300781 239.414062,376.84375 Z M431.902344,405.785156 C432.089844,405.972656 432.285156,406.152344 432.484375,406.324219 L462.9375,436.773438 C463.496094,437.335938 464.164062,438.210938 464.160156,439.191406 C464.15625,440.214844 463.445312,441.484375 462.160156,442.769531 L442.769531,462.160156 C439.382812,465.550781 437.621094,463.78125 436.773438,462.933594 L406.332031,432.496094 C406.15625,432.289062 405.976562,432.09375 405.785156,431.902344 C404.53125,430.648438 403.960938,429.21875 403.957031,428.429688 L403.929688,403.929688 L428.421875,403.957031 C429.21875,403.960938 430.648438,404.53125 431.902344,405.785156 Z" id="Shape"></path>
            <path d="M424.867188,45.703125 C426.152344,45.703125 427.457031,45.453125 428.714844,44.929688 L428.929688,44.84375 C434.023438,42.714844 436.417969,36.863281 434.289062,31.765625 C432.160156,26.671875 426.292969,24.269531 421.191406,26.398438 L420.996094,26.480469 C415.898438,28.605469 413.5,34.453125 415.625,39.550781 C417.222656,43.390625 420.949219,45.703125 424.867188,45.703125 Z" id="Path"></path>
            <path d="M83.316406,467.058594 L83.164062,467.121094 C78.046875,469.199219 75.585938,475.035156 77.664062,480.148438 C79.242188,484.035156 82.984375,486.390625 86.933594,486.390625 C88.1875,486.390625 89.460938,486.152344 90.691406,485.652344 L91.007812,485.523438 C96.105469,483.398438 98.515625,477.542969 96.390625,472.445312 C94.265625,467.347656 88.410156,464.9375 83.316406,467.058594 L83.316406,467.058594 Z" id="Path"></path>
        </g>
    </g>
</svg>