<?xml version="1.0" encoding="UTF-8"?>
<svg width="512px" height="512px" viewBox="0 0 512 512" version="1.1" xmlns="http://www.w3.org/2000/svg" xmlns:xlink="http://www.w3.org/1999/xlink">
    <!-- Generator: Sketch 53 (72520) - https://sketchapp.com -->
    <title>cathedral-of-lima (1)</title>
    <desc>Created with Sketch.</desc>
    <g id="Page-1" stroke="none" stroke-width="1" fill="none" fill-rule="evenodd">
        <g id="cathedral-of-lima-(1)" fill="#404348" fill-rule="nonzero">
            <path d="M512,170.002 C512,164.479 507.522,160.002 502,160.002 L502,120 C507.522,120 512,115.523 512,110 C512,104.477 507.522,100 502,100 L494.31,100 C487.661,96.385 483.948,90.096 482.6,79.958 C486.15,79.745 489.343,77.679 490.947,74.472 C492.641,71.084 492.275,67.03 490.003,64 L462.002,26.667 L462.002,10 C462.002,4.477 457.524,0 452.002,0 C446.48,0 442.002,4.477 442.002,10 L442.002,26.667 L414.002,64 C411.73,67.03 411.363,71.084 413.058,74.472 C414.662,77.679 417.855,79.744 421.404,79.958 C420.055,90.096 416.343,96.385 409.694,100 L402.004,100 C396.482,100 392.004,104.477 392.004,110 C392.004,115.523 396.482,120 402.004,120 L402.004,160.002 C396.482,160.002 392.004,164.479 392.004,170.002 C392.004,175.525 396.482,180.002 402.004,180.002 L402.004,291.995 L323.225,291.995 C313.776,267.642 291.766,250.278 266.003,246.665 L266.003,235.955 C266.003,230.432 261.525,225.955 256.003,225.955 C250.481,225.955 246.003,230.432 246.003,235.955 L246.003,246.665 C220.24,250.278 198.23,267.642 188.781,291.995 L110.002,291.995 L110.002,180.002 C115.525,180.002 120.002,175.525 120.002,170.002 C120.002,164.479 115.525,160.002 110.002,160.002 L110.002,120 C115.525,120 120.002,115.523 120.002,110 C120.002,104.477 115.525,100 110.002,100 L102.311,100 C95.662,96.385 91.95,90.096 90.601,79.958 C94.15,79.744 97.344,77.679 98.947,74.472 C100.638,71.084 100.272,67.03 98,64 L70,26.667 L70,10 C70,4.477 65.523,0 60,0 C54.477,0 50,4.477 50,10 L50,26.667 L21.999,64 C19.727,67.03 19.361,71.084 21.055,74.472 C22.659,77.679 25.853,79.744 29.402,79.958 C28.053,90.096 24.341,96.385 17.692,100 L10,100 C4.477,100 3.55271368e-15,104.477 3.55271368e-15,110 C3.55271368e-15,115.523 4.477,120 10,120 L10,160.002 C4.477,160.002 3.55271368e-15,164.479 3.55271368e-15,170.002 C3.55271368e-15,175.525 4.477,180.002 10,180.002 L10,180.998 C10,186.521 14.477,190.998 20,190.998 C25.523,190.998 30,186.521 30,180.998 L30,180.002 L89.998,180.002 L89.998,291.976 C89.99,278.948 81.632,267.842 69.999,263.716 L69.999,225.998 C69.999,220.475 65.522,215.998 59.999,215.998 C54.476,215.998 49.999,220.475 49.999,225.998 L49.999,263.716 C38.371,267.84 30.017,278.937 30,291.957 L30,270.998 C30,265.475 25.523,260.998 20,260.998 C14.477,260.998 10,265.475 10,270.998 L10,291.995 C4.477,291.995 0,296.472 0,301.995 L0,502 C0,507.523 4.477,512 10,512 L502,512 C507.522,512 512,507.523 512,502 L512,301.996 C512,296.473 507.522,291.996 502,291.996 L502,180.002 C507.522,180.002 512,175.525 512,170.002 Z M75.827,100 L44.173,100 C47.603,93.136 49.007,85.93 49.588,80 L70.412,80 C70.993,85.93 72.397,93.136 75.827,100 L75.827,100 Z M60,46.667 L70,60 L50,60 L60,46.667 Z M30.001,160.002 L30.001,120 L89.999,120 L89.999,160.002 L30.001,160.002 Z M467.828,100 L436.174,100 C439.603,93.136 441.008,85.93 441.588,80 L462.413,80 C462.994,85.93 464.398,93.136 467.828,100 Z M452.001,46.667 L462.001,60 L442.001,60 L452.001,46.667 Z M422.002,120 L482,120 L482,160.002 L422.002,160.002 L422.002,120 Z M452.001,281.996 C457.515,281.996 462.001,286.482 462.001,291.996 L462.001,301.996 C462.001,307.519 466.479,311.996 472.001,311.996 L492,311.996 L492,452 L412.002,452 L412.002,311.996 L432.001,311.996 C437.523,311.996 442.001,307.519 442.001,301.996 L442.001,291.996 C442.001,286.482 446.487,281.996 452.001,281.996 L452.001,281.996 Z M266,492 L246,492 L246,451.998 C246,446.484 250.486,441.998 256,441.998 C261.514,441.998 266,446.484 266,451.998 L266,492 Z M256,421.999 C239.458,421.999 226,435.457 226,451.999 L226,492 L205.999,492 L205.999,411.997 L306.002,411.997 L306.002,492 L286,492 L286,451.998 C286,435.456 272.542,421.999 256,421.999 L256,421.999 Z M205.999,391.997 L205.999,371.996 L306.002,371.996 L306.002,391.997 L205.999,391.997 Z M306.002,311.996 L306.002,351.996 L266.001,351.996 L266.001,341.996 C266.001,336.473 261.523,331.996 256.001,331.996 C250.479,331.996 246.001,336.473 246.001,341.996 L246.001,351.996 L206,351.996 L206,311.996 L306.002,311.996 Z M392.002,351.996 L326.002,351.996 L326.002,311.996 L392.002,311.996 L392.002,351.996 Z M185.999,351.996 L119.999,351.996 L119.999,311.996 L185.999,311.996 L185.999,351.996 Z M119.999,371.996 L185.999,371.996 L185.999,391.997 L119.999,391.997 L119.999,371.996 Z M326.002,371.996 L392.002,371.996 L392.002,391.997 L326.002,391.997 L326.002,371.996 Z M256,265.955 C274.9,265.955 291.963,276.193 301.115,291.996 L210.886,291.996 C220.037,276.193 237.1,265.955 256,265.955 Z M40,311.996 C45.523,311.996 50,307.519 50,301.996 L50,291.996 C50,286.482 54.486,281.996 60,281.996 C65.514,281.996 70,286.482 70,291.996 L70,301.996 C70,307.519 74.477,311.996 80,311.996 L100,311.996 L100,452 L20,452 L20,311.996 L40,311.996 Z M20,492 L20,471.999 L99.999,472 L99.999,492 L20,492 Z M119.999,411.997 L185.999,411.997 L185.999,492 L162.999,492 L162.999,442 C162.999,436.477 158.522,432 152.999,432 C147.476,432 142.999,436.477 142.999,442 L142.999,492 L119.999,492 L119.999,411.997 Z M392.002,492 L369.002,492 L369.002,442 C369.002,436.477 364.524,432 359.002,432 C353.48,432 349.002,436.477 349.002,442 L349.002,492 L326.002,492 L326.002,411.997 L392.002,411.997 L392.002,492 Z M412.002,492 L412.002,471.999 L492,471.999 L492,492 L412.002,492 Z M482,291.957 C481.983,278.937 473.628,267.84 462.001,263.716 L462.001,225.998 C462.001,220.475 457.523,215.998 452.001,215.998 C446.479,215.998 442.001,220.475 442.001,225.998 L442.001,263.716 C430.374,267.84 422.019,278.937 422.002,291.957 L422.002,180.002 L482,180.002 L482,291.957 Z" id="Shape"></path>
            <path d="M442.001,391.997 C436.479,391.997 432.001,396.474 432.001,401.997 C432.001,407.52 436.479,411.997 442.001,411.997 L451.982,411.997 C451.988,411.997 451.995,411.998 452.001,411.998 C452.007,411.998 452.014,411.997 452.02,411.997 L462.001,411.997 C467.523,411.997 472.001,407.52 472.001,401.997 C472.001,396.474 467.523,391.997 462.001,391.997 L462.001,356 C462.001,350.477 457.523,346 452.001,346 C446.479,346 442.001,350.477 442.001,356 L442.001,391.997 Z" id="Path"></path>
            <path d="M50,411.997 L59.981,411.997 C59.988,411.997 59.994,411.998 60,411.998 C60.006,411.998 60.013,411.997 60.019,411.997 L70,411.997 C75.523,411.997 80,407.52 80,401.997 C80,396.474 75.523,391.997 70,391.997 L70,356 C70,350.477 65.523,346 60,346 C54.477,346 50,350.477 50,356 L50,391.997 C44.477,391.997 40,396.474 40,401.997 C40,407.52 44.477,411.997 50,411.997 Z" id="Path"></path>
            <path d="M20.001,235.999 C25.524,235.999 30.001,231.522 30.001,225.999 C30.001,220.476 25.524,215.999 20.001,215.999 L19.994,215.999 C14.471,215.999 9.998,220.476 9.998,225.999 C9.998,231.522 14.478,235.999 20.001,235.999 Z" id="Path"></path>
        </g>
    </g>
</svg>