<?xml version="1.0" encoding="UTF-8"?>
<svg width="380px" height="512px" viewBox="0 0 380 512" version="1.1" xmlns="http://www.w3.org/2000/svg" xmlns:xlink="http://www.w3.org/1999/xlink">
    <!-- Generator: Sketch 53 (72520) - https://sketchapp.com -->
    <title>la-ermita</title>
    <desc>Created with Sketch.</desc>
    <g id="Page-1" stroke="none" stroke-width="1" fill="none" fill-rule="evenodd">
        <g id="la-ermita" fill="#404348" fill-rule="nonzero">
            <path d="M370,451.999 L360,451.999 L360,370.005 C360,364.483 355.523,360.005 350,360.005 L334.143,360.005 L320,345.862 L320,330.004 C320,324.482 315.523,320.004 310,320.004 L294.143,320.004 L260,285.859 L260,270.001 C260,265.956 257.563,262.31 253.827,260.762 C250.09,259.216 245.788,260.071 242.929,262.93 L240,265.859 L240,200.001 C240,195.412 236.877,191.412 232.425,190.3 L230,189.693 L230,120 C230,115.492 227.016,111.684 222.917,110.435 L200,18.768 L200,10 C200,4.478 195.523,-2.84217094e-14 190,-2.84217094e-14 C184.477,-2.84217094e-14 180,4.478 180,10 L180,18.768 L157.083,110.435 C152.984,111.684 150,115.492 150,120 L150,189.693 L147.575,190.299 C143.123,191.411 140,195.411 140,200 L140,265.858 L137.071,262.929 C134.21,260.07 129.909,259.215 126.173,260.761 C122.436,262.309 120,265.955 120,270 L120,285.858 L85.857,320.002 L70,320.002 C64.477,320.002 60,324.48 60,330.002 L60,345.86 L45.857,360.003 L30,360.003 C24.477,360.003 20,364.481 20,370.003 L20,451.997 L10,451.997 C4.477,451.997 0,456.475 0,461.997 L0,502 C0,507.522 4.477,512 10,512 L370,512 C375.523,512 380,507.522 380,502 L380,461.999 C380,456.477 375.523,451.999 370,451.999 Z M322.929,377.076 C324.804,378.951 327.348,380.005 330,380.005 L340,380.005 L340,451.999 L320,451.999 L320,374.147 L322.929,377.076 Z M282.93,337.075 C284.805,338.95 287.349,340.004 290.001,340.004 L300,340.004 L300,350 L300,350.008 L300,451.999 L260,451.999 L260,314.145 L282.93,337.075 Z M190,227.503 C184.477,227.503 180,231.981 180,237.503 L180,265.86 L165.858,280.002 L160,280.002 L160,207.809 L190,200.309 L220,207.809 L220,280.002 L214.141,280.002 L200,265.86 L200,237.503 C200,231.98 195.523,227.503 190,227.503 Z M190,61.231 L202.192,110 L177.808,110 L190,61.231 Z M170,130 L210,130 L210,184.693 L192.425,180.299 C190.832,179.901 189.166,179.901 187.574,180.299 L170,184.693 L170,130 Z M89.999,340.004 C92.651,340.004 95.195,338.95 97.07,337.075 L121.649,312.495 C123.438,315.207 126.507,317 129.999,317 C135.522,317 139.999,312.522 139.999,307 L139.999,294.145 L142.928,297.074 C144.803,298.949 147.347,300.003 149.999,300.003 L169.999,300.003 C172.651,300.003 175.195,298.949 177.07,297.074 L190,284.145 L202.928,297.074 C204.803,298.949 207.347,300.003 209.999,300.003 L230,300.003 C232.652,300.003 235.196,298.949 237.071,297.074 L239.999,294.145 L239.999,451.999 L219.999,451.999 L219.999,421.998 C219.999,405.85 210.217,390.928 194.472,383.054 C191.656,381.646 188.342,381.646 185.527,383.054 C169.781,390.928 160,405.85 160,421.998 L160,451.999 L140,451.999 L140,397 C140,391.478 135.523,387 130,387 C124.477,387 120,391.478 120,397 L120,451.999 L80,451.999 L80,350.008 C80,350.005 80,350.003 80,350 L80,340.004 L89.999,340.004 Z M200,451.999 L180,451.999 L180,421.998 C180,415.006 183.731,408.32 190,403.68 C196.269,408.321 200,415.006 200,421.998 L200,451.999 Z M40,380.005 L50,380.005 C52.652,380.005 55.196,378.951 57.071,377.076 L60,374.147 L60,451.999 L40,451.999 L40,380.005 Z M360,492 L20,492 L20,471.999 L360,471.999 L360,492 Z" id="Shape"></path>
            <path d="M170,361.996 L210,361.996 C215.523,361.996 220,357.518 220,351.996 C220,346.474 215.523,341.996 210,341.996 L200,341.996 L200,320.002 C200,314.48 195.523,310.002 190,310.002 C184.477,310.002 180,314.48 180,320.002 L180,341.996 L170,341.996 C164.477,341.996 160,346.474 160,351.996 C160,357.518 164.477,361.996 170,361.996 Z" id="Path"></path>
            <path d="M130,362.004 C135.523,362.004 140,357.526 140,352.004 L140,351.996 C140,346.474 135.523,342 130,342 C124.477,342 120,346.481 120,352.004 C120,357.527 124.477,362.004 130,362.004 L130,362.004 Z" id="Path"></path>
        </g>
    </g>
</svg>