<?xml version="1.0" encoding="UTF-8"?>
<svg width="512px" height="512px" viewBox="0 0 512 512" version="1.1" xmlns="http://www.w3.org/2000/svg" xmlns:xlink="http://www.w3.org/1999/xlink">
    <!-- Generator: Sketch 53 (72520) - https://sketchapp.com -->
    <title>cartagena</title>
    <desc>Created with Sketch.</desc>
    <g id="Page-1" stroke="none" stroke-width="1" fill="none" fill-rule="evenodd">
        <g id="cartagena" fill="#404348" fill-rule="nonzero">
            <path d="M502,351.999 L346,351.999 L346,271.999 C346,266.476 341.522,261.999 336,261.999 C330.478,261.999 326,266.476 326,271.999 L315.999,271.999 L315.999,192.003 C315.999,186.48 311.521,182.003 305.999,182.003 L296,182.003 L296,132.186 C296,132.162 296,132.139 296,132.115 L296,132.003 C296,131.922 295.99,131.845 295.988,131.764 C295.982,131.529 295.975,131.295 295.952,131.059 C295.937,130.9 295.91,130.745 295.888,130.588 C295.864,130.424 295.845,130.259 295.813,130.095 C295.769,129.87 295.712,129.65 295.654,129.431 C295.632,129.348 295.618,129.264 295.594,129.181 L295.56,129.066 C295.554,129.047 295.549,129.029 295.544,129.01 L266,28.56 L266,10 C266,4.477 261.523,2.84217094e-14 256,2.84217094e-14 C250.477,2.84217094e-14 246,4.477 246,10 L246,28.56 L216.457,129.011 C216.451,129.029 216.446,129.048 216.441,129.067 L216.407,129.182 C216.383,129.265 216.369,129.348 216.347,129.432 C216.288,129.652 216.231,129.872 216.187,130.098 C216.155,130.26 216.136,130.422 216.113,130.584 C216.09,130.743 216.063,130.901 216.048,131.063 C216.026,131.294 216.019,131.524 216.013,131.754 C216.011,131.838 216,131.92 216,132.004 L216,132.121 L216,132.184 L216,182.004 L206.001,182.004 C200.478,182.004 196.001,186.481 196.001,192.004 L196.001,271.999 L186,271.999 C186,266.476 181.523,261.999 176,261.999 C170.477,261.999 166,266.476 166,271.999 L166,351.999 L120.001,351.999 C114.478,351.999 110.001,356.476 110.001,361.999 C110.001,367.522 114.478,371.999 120.001,371.999 L166,371.999 L166,392 L20,392 L20,371.999 L30.001,371.999 C35.524,371.999 40.001,367.522 40.001,361.999 C40.001,356.476 35.524,351.999 30.001,351.999 L10,351.999 C4.477,351.999 0,356.476 0,361.999 L0,501.999 C0,507.522 4.477,511.999 10,511.999 L502,511.999 C507.522,511.999 512,507.522 512,501.999 L512,361.999 C512,356.476 507.522,351.999 502,351.999 Z M492,371.999 L492,392 L346,392 L346,371.999 L492,371.999 Z M276,492 L236,492 L236,442 C236,430.972 244.972,422 256,422 C267.028,422 276,430.972 276,442 L276,492 Z M256,402 C233.944,402 216,419.944 216,442 L216,492 L186,492 L186,392 L326,392 L326,492 L296,492 L296,442 C296,419.944 278.056,402 256,402 Z M186,351.999 L326,351.999 L326,372 L186,372 L186,351.999 Z M285.998,291.999 L285.998,331.999 L226.002,331.999 L226.002,291.999 L285.998,291.999 Z M326,331.999 L305.998,331.999 L305.998,291.999 L326,291.999 L326,331.999 Z M256,65.441 L272.635,122.003 L239.365,122.003 L256,65.441 Z M236,142.003 L276,142.003 L276,182.003 L236,182.003 L236,142.003 Z M216.001,202.003 L295.999,202.003 L295.999,271.998 L216.001,271.998 L216.001,202.003 Z M206.001,291.999 L206.001,331.999 L186,331.999 L186,291.999 L206.001,291.999 Z M20,412 L166,412 L166,492 L110.002,492 L110.002,455.333 C110.002,438.791 96.544,425.333 80.002,425.333 C63.46,425.333 50.002,438.791 50.002,455.333 L50.002,492 L20,492 L20,412 Z M90.002,492 L70.002,492 L70.002,455.333 C70.002,449.819 74.488,445.333 80.002,445.333 C85.516,445.333 90.002,449.819 90.002,455.333 L90.002,492 Z M441.999,492 L421.999,492 L421.999,455.333 C421.999,449.819 426.485,445.333 431.999,445.333 C437.513,445.333 441.999,449.819 441.999,455.333 L441.999,492 Z M461.999,492 L461.999,455.333 C461.999,438.791 448.541,425.333 431.999,425.333 C415.457,425.333 401.999,438.791 401.999,455.333 L401.999,492 L346,492 L346,412 L492,412 L492,492 L461.999,492 Z" id="Shape"></path>
            <path d="M256,207.001 C239.458,207.001 226,220.459 226,237.001 C226,253.543 239.458,267.001 256,267.001 C272.542,267.001 286,253.543 286,237.001 C286,220.459 272.542,207.001 256,207.001 L256,207.001 Z M256,247.001 C250.486,247.001 246,242.515 246,237.001 C246,231.487 250.486,227.001 256,227.001 C261.514,227.001 266,231.487 266,237.001 C266,242.515 261.514,247.001 256,247.001 Z" id="Shape"></path>
            <path d="M75.004,371.999 C80.527,371.999 85.004,367.522 85.004,361.999 C85.004,356.476 80.527,351.999 75.004,351.999 L74.997,351.999 C69.474,351.999 65.001,356.476 65.001,361.999 C65.001,367.522 69.481,371.999 75.004,371.999 Z" id="Path"></path>
        </g>
    </g>
</svg>