<?xml version="1.0" encoding="UTF-8"?>
<svg width="1222px" height="743px" viewBox="0 0 1222 743" version="1.1" xmlns="http://www.w3.org/2000/svg" xmlns:xlink="http://www.w3.org/1999/xlink">
    <!-- Generator: Sketch 53 (72520) - https://sketchapp.com -->
    <title>palm-tree</title>
    <desc>Created with Sketch.</desc>
    <g id="Page-1" stroke="none" stroke-width="1" fill="none" fill-rule="evenodd">
        <g id="palm-tree" fill="#404348" fill-rule="nonzero">
            <path d="M742.697349,118.769425 C739.196798,95.0862887 723.637342,60.6673784 690.461929,35.0948159 C662.99015,13.9222085 612.944751,-8.7610695 530.532316,3.41717046 C462.040812,13.5376478 396.959879,69.3744136 368.829207,115.885945 C333.968827,74.1835994 261.86357,28.9824771 193.023753,28.9824771 C108.183283,28.9824771 0,74.1342595 0,174.108438 C0,187.797349 7.53228029,194.524985 12.0226223,197.317041 C25.3688361,205.616296 46.7973753,202.280051 77.5345938,187.124005 C85.1554038,183.365468 89.6225249,176.266332 92.6775249,168.614299 C97.2738124,157.099245 96.7411829,142.523668 112.680881,152.950343 C120.668872,158.177466 132.739387,166.071845 149.845936,162.126107 C158.775824,160.065442 166.093311,154.556791 172.733038,148.492341 C174.07985,147.261746 190.203865,130.494899 191.177691,131.544096 C192.927967,133.432072 206.834385,160.859233 206.555734,160.975327 C179.570143,172.142099 148.454133,189.276094 122.747143,214.982164 C69.9587743,267.768565 42.0457981,321.424219 39.7803088,374.457319 C37.8732922,419.093935 55.4718337,453.279207 72.5783824,470.385629 C104.865596,502.674218 133.190743,441.545026 141.547366,420.230203 C146.204608,408.349454 143.225076,395.158295 140.48501,383.200634 C139.281876,377.953194 133.332971,362.501109 138.875511,358.270941 C143.805599,354.50805 186.497228,346.959051 186.786038,344.365805 C179.442428,410.209857 197.117888,453.01074 214.537919,478.176974 C232.904202,504.711664 267.423525,535.296577 301.894955,535.296577 C311.501152,535.296577 317.550197,530.594778 320.547145,527.4051 C331.308582,515.952447 332.253382,494.287892 323.436696,461.172134 C318.136525,441.267852 295.918475,437.114596 287.672152,420.691676 C280.691368,406.779285 306.781504,388.598996 306.899059,372.78702 C306.960014,364.599504 289.608195,342.023613 292.194423,337.025775 C304.066109,314.081286 328.066363,313.928913 325.959067,282.825931 C325.602045,277.566882 322.906969,269.877119 325.847316,264.996826 C333.646637,252.049464 342.255786,242.889663 350.507914,235.686043 C379.101553,306.625161 387.813746,383.813029 377.663309,459.533761 C371.969834,502.012483 360.716404,543.978942 345.92614,584.157556 C336.470879,612.017166 299.120057,699.59688 284.73761,713.978 L14.5130641,713.978 C6.5163658,713.978 0,720.479253 0,728.491177 C0,736.484235 6.5163658,743 14.5130641,743 L1207.48694,743 C1215.48363,743 1222,736.484235 1222,728.486823 C1222,720.4749 1215.48363,713.973647 1207.48694,713.973647 L435.177131,713.973647 C464.418052,670.419605 478.931116,600.763323 487.752157,526.473448 C494.081304,473.170429 490.868112,419.01267 481.930967,366.036165 C475.848542,329.983234 468.954836,295.928568 456.263162,261.627203 C454.409843,256.617755 436.622632,201.952086 432.035052,202.869227 C443.802245,200.516876 457.704309,199.03668 474.773124,201.489162 C485.504083,203.031758 492.257012,213.705132 500.118739,220.022086 C510.894689,228.681233 522.397743,227.396945 535.262124,223.873498 C548.364518,220.2862 551.705425,218.105087 556.583266,231.75917 C563.488582,251.09169 574.582368,262.200416 595.801919,263.396182 C601.836451,263.735757 611.550045,261.585119 616.636874,265.828347 C623.436245,271.49953 620.384147,284.429477 620.72085,292.271614 C621.176561,302.882587 621.799171,314.763337 628.250228,323.688048 C642.455615,343.339826 682.314295,387.282782 702.867696,348.447954 C714.064525,327.285505 721.897226,290.332847 710.294031,250.086028 C700.686382,216.761302 673.77771,168.858096 600.144228,129.891211 C578.782449,118.586577 555.825684,113.270932 532.188257,109.312133 C584.394651,90.6979429 640.828701,109.905663 690.088943,128.630142 C715.465036,138.276086 727.047912,142.680395 736.664268,134.952901 C741.379563,131.163889 743.634893,125.1125 742.697349,118.769425 Z M161.691499,320.804568 C139.303646,326.118762 119.967891,330.710272 113.106114,344.777938 C106.181931,358.973308 109.454627,375.426702 112.344178,389.945684 C113.589399,396.208944 115.676378,406.692215 114.522589,409.635193 C104.420045,435.406566 95.9734418,445.785352 92.1013563,448.825558 C69.2679525,424.60694 36.3450665,342.425588 143.272969,235.501744 C185.357952,193.41774 253.357463,170.724304 302.180862,166.617486 C257.659135,194.118656 206.985321,249.900278 192.361957,311.117991 C187.823722,314.59355 171.593762,318.45512 161.691499,320.804568 Z M300.897907,250.161489 C295.419226,259.279206 296.096986,270.62157 296.696375,280.630307 C296.983734,285.43514 297.419126,292.693905 296.451105,294.966441 C295.449703,297.011143 289.539983,301.395135 286.008955,304.013051 C276.729302,310.89306 266.213135,318.693112 263.664641,331.393774 C261.232252,343.519772 267.593328,354.055284 272.704829,362.521425 C274.57266,365.613874 277.695872,370.790206 277.875834,372.567893 C277.851162,375.851896 273.613347,381.40118 269.874781,386.297436 C263.132012,395.127821 254.740558,406.119002 257.207779,420.253422 C259.754822,434.844962 271.924026,445.785352 282.662242,455.4371 C287.052444,459.38429 294.40186,465.990027 295.3902,468.635515 C301.096736,490.06498 300.820988,501.410247 299.826843,505.887114 C282.697074,502.037153 256.871076,488.330828 238.406105,461.653924 C214.690306,427.390289 208.171038,379.288273 219.555086,322.544524 C230.667739,267.147463 277.652333,216.754046 315.416777,192.578962 C317.805627,201.600902 322.314836,209.76665 328.379846,216.508798 C319.300473,224.821114 309.704435,235.506097 300.897907,250.161489 Z M329.841311,137.40248 C307.269143,135.735083 278.990437,138.797057 249.541979,146.512941 C235.769081,150.120556 233.653076,150.902738 227.315221,137.305251 C220.633406,122.969118 213.723736,108.143939 200.515397,103.741082 C182.226033,97.6505106 168.662124,111.423589 158.755506,121.48602 C148.258207,132.150687 142.068385,137.488099 128.572686,128.660617 C120.359743,123.288376 107.952525,115.169065 90.9040285,121.258185 C74.7277672,127.035303 70.373848,142.202959 67.4944561,152.24217 C64.3001306,163.377017 56.7649477,165.356417 46.2618432,169.001762 C40.8542755,170.878128 34.8589287,172.940244 29.0420926,172.767555 C29.4499097,155.217074 37.8079834,127.199286 60.3351615,103.84992 C89.2640523,73.8599879 135.148556,58.0073791 193.023753,58.0073791 C250.633361,58.0073791 310.479432,95.5927479 341.106352,128.325396 C336.978836,130.876557 333.199634,133.932726 329.841311,137.40248 Z M342.508314,177.73637 C342.508314,161.731388 355.529435,148.711468 371.534442,148.711468 C387.539449,148.711468 400.56057,161.731388 400.56057,177.73637 C400.56057,193.741352 387.539449,206.761272 371.534442,206.761272 C355.529435,206.761272 342.508314,193.741352 342.508314,177.73637 Z M381.383007,234.91547 C391.694539,233.143588 401.078686,228.656563 408.774964,222.198845 C414.812399,236.32601 420.35639,250.432858 425.343078,264.456989 L392.862841,269.254566 C389.513226,257.74967 385.67452,246.291212 381.383007,234.91547 Z M402.262952,713.975098 L317.971076,713.975098 C325.469976,700.281834 332.529131,686.694505 339.084682,673.339365 L422.492713,673.339365 C416.542356,686.899121 409.843126,700.352941 402.262952,713.975098 Z M434.034952,644.314463 L352.700838,644.314463 C358.807936,630.653124 364.459323,617.064345 369.594045,603.678729 L446.286881,603.678729 C442.869055,617.488087 438.811202,630.939005 434.034952,644.314463 Z M452.446226,574.653827 L380.034743,574.653827 C383.96343,562.948669 387.526387,551.305912 390.693138,539.824235 L457.367606,539.824235 C456.086102,551.848651 454.456285,563.389826 452.446226,574.653827 Z M459.733235,510.799333 L397.938059,510.799333 C400.541703,499.127552 402.765105,487.486246 404.589397,475.969741 L460.926209,475.969741 C460.770919,488.203125 460.374713,499.744301 459.733235,510.799333 Z M458.956786,414.810074 C459.905941,425.598091 460.5271,436.341121 460.814458,446.944839 L408.367147,446.944839 C409.355487,437.210373 410.060822,427.497676 410.480249,417.872048 L458.956786,414.810074 Z M455.647808,385.936094 L410.864846,388.764429 C410.697945,379.088011 410.234979,369.456579 409.480299,359.933984 L450.492767,355.377303 C452.489765,365.561632 454.212466,375.772082 455.647808,385.936094 Z M434.611121,292.42834 C438.143601,303.92598 441.336475,315.441034 444.165071,326.877725 L406.254045,331.090479 C404.628582,319.849696 402.572081,308.633584 400.10486,297.526309 L400.248539,297.504542 L434.611121,292.42834 Z M586.564354,155.547941 C637.718551,182.616663 670.859133,218.089124 682.401373,258.128426 C691.390765,289.299612 685.674069,317.97333 677.823952,333.67792 C673.728366,331.620157 664.775257,324.671943 651.835409,306.776083 C650.349271,304.243787 649.879048,294.372911 649.597494,288.475346 C648.911026,274.055045 648.133126,257.710488 638.441302,246.507436 C629.0528,235.657019 615.230558,235.205705 604.125162,234.842911 C597.967268,234.64265 590.989387,234.414816 588.510556,232.42816 C587.165195,231.094533 585.133366,225.405936 583.918622,222.004388 C578.378986,206.500061 568.842451,191.867888 550.734501,191.867888 C541.04558,191.867888 525.753164,200.358698 516.585261,197.67548 C501.773228,193.339377 496.114584,175.241804 479.04577,172.776262 C459.165774,169.904391 442.855993,171.341052 429.437214,173.806594 C428.827665,164.733864 426.123881,156.229993 421.806245,148.766612 C464.078447,133.908056 535.259221,128.396503 586.564354,155.547941 Z M700.404829,101.49902 C662.827603,87.2151288 599.93524,63.3012565 540.263325,76.8406963 C512.292297,83.1852227 489.053979,95.4461795 469.107223,108.994326 C442.469945,111.802345 417.93561,118.171541 399.068627,126.646389 C398.392318,126.280694 397.70585,125.932412 397.015029,125.592838 C421.864297,88.377518 476.620637,40.722463 534.775936,32.1300704 C548.763627,30.0636007 562.17515,29.0376217 574.949549,29.0376217 C614.457012,29.0376217 647.800777,38.8606086 672.741477,58.0842912 C690.956824,72.1229344 702.471489,89.5224932 708.691789,104.627748 C705.90528,103.59016 703.063622,102.510487 700.404829,101.49902 Z" id="Shape"></path>
            <g id="convertible" transform="translate(456.000000, 382.000000)">
                <path d="M611.666266,96.7186036 C588.306215,92.9536108 562.381398,89.6789234 533.675328,82.7580215 L453.675324,3.9638772 C448.245191,-1.38528531 439.512578,-1.30794136 434.174832,4.12685194 C428.834328,9.56578866 428.908789,18.3111791 434.337543,23.6589604 L493.051371,81.487371 L321.285156,81.487371 L321.285156,13.8114188 C321.285156,6.18475334 315.110414,0 307.496094,0 C299.881773,0 293.707031,6.18475334 293.707031,13.8114188 L293.707031,81.487371 L267.636051,81.487371 L188.926703,3.9638772 C186.34677,1.42257614 182.874684,0 179.257813,0 C129.527559,0 87.5109063,36.8019065 83.1273633,86.7370912 C29.4520586,115.924763 0,158.96943 0,208.664296 L0,254.131487 C0,276.978336 18.5573203,295.565744 41.3671875,295.565744 L84.4800703,295.565744 C90.6189609,319.366962 112.237453,337 137.890625,337 C163.543797,337 185.162289,319.366962 191.30118,295.565744 L290.949219,295.565744 C298.563539,295.565744 304.738281,289.38099 304.738281,281.754325 C304.738281,274.127659 298.563539,267.942906 290.949219,267.942906 L191.30118,267.942906 C185.162289,244.141688 163.543797,226.50865 137.890625,226.50865 C112.237453,226.50865 90.6189609,244.141688 84.4800703,267.942906 L41.3671875,267.942906 C33.7638984,267.942906 27.578125,261.747103 27.578125,254.131487 L27.578125,208.664296 C27.578125,155.338408 71.5652344,123.840087 99.8355703,109.11159 L339.210938,109.11159 L339.210938,219.60294 C339.210938,227.229606 345.38568,233.414359 353,233.414359 C360.61432,233.414359 366.789063,227.229606 366.789063,219.60294 L366.789063,109.11159 L525.058543,109.11159 C549.731313,115.188614 571.78416,118.517166 595.6875,122.179954 L595.6875,157.451556 C595.6875,187.914021 620.430594,212.697231 650.84375,212.697231 L678.421875,212.697231 L678.421875,254.131487 C678.421875,261.747103 672.236102,267.942906 664.632813,267.942906 L580.152742,267.942906 C574.013852,244.141688 552.395359,226.50865 526.742188,226.50865 C501.089016,226.50865 479.470523,244.141688 473.331633,267.942906 L415.050781,267.942906 C407.436461,267.942906 401.261719,274.127659 401.261719,281.754325 C401.261719,289.38099 407.436461,295.565744 415.050781,295.565744 L473.331633,295.565744 C479.470523,319.366962 501.089016,337 526.742188,337 C552.395359,337 574.013852,319.366962 580.152742,295.565744 L664.632813,295.565744 C687.44268,295.565744 706,276.978336 706,254.131487 L706,180.723796 C706,120.884443 670.022957,106.110368 611.666266,96.7186036 Z M137.890625,254.131487 C153.097203,254.131487 165.46875,266.523092 165.46875,281.754325 C165.46875,296.985557 153.097203,309.377162 137.890625,309.377162 C122.684047,309.377162 110.3125,296.985557 110.3125,281.754325 C110.3125,266.523092 122.684047,254.131487 137.890625,254.131487 Z M173.81527,27.8231032 L228.30275,81.4887521 L111.703816,81.4887521 C117.689648,52.0676678 142.522371,30.1157987 173.81527,27.8231032 Z M526.742188,309.377162 C511.535609,309.377162 499.164063,296.985557 499.164063,281.754325 C499.164063,266.523092 511.535609,254.131487 526.742188,254.131487 C541.948766,254.131487 554.320312,266.523092 554.320312,281.754325 C554.320312,296.985557 541.948766,309.377162 526.742188,309.377162 Z M650.84375,185.074393 C635.637172,185.074393 623.265625,172.682788 623.265625,157.451556 L623.265625,126.827497 C664.250855,134.943086 678.421875,146.14829 678.421875,180.722415 L678.421875,185.074393 L650.84375,185.074393 Z" id="Shape"></path>
                <path d="M220.8,165 C213.17964,165 207,171.0453 207,178.5 C207,185.9547 213.17964,192 220.8,192 L262.2,192 C269.82036,192 276,185.9547 276,178.5 C276,171.0453 269.82036,165 262.2,165 L220.8,165 Z" id="Path"></path>
                <circle id="Oval" cx="352.5" cy="281.5" r="13.5"></circle>
            </g>
        </g>
    </g>
</svg>