<?xml version="1.0" encoding="UTF-8"?>
<svg width="500px" height="498px" viewBox="0 0 500 498" version="1.1" xmlns="http://www.w3.org/2000/svg" xmlns:xlink="http://www.w3.org/1999/xlink">
    <!-- Generator: Sketch 53 (72520) - https://sketchapp.com -->
    <title>coffee-plant</title>
    <desc>Created with Sketch.</desc>
    <g id="Page-1" stroke="none" stroke-width="1" fill="none" fill-rule="evenodd">
        <g id="coffee-plant" fill="#404348" fill-rule="nonzero">
            <path d="M490.003,498 C495.526,498 500.003,493.523 500.003,488 C500.003,482.477 495.526,478 490.003,478 L489.996,478 C484.473,478 480,482.477 480,488 C480,493.523 484.48,498 490.003,498 Z" id="Path"></path>
            <path d="M10.003,498 C15.526,498 20.003,493.523 20.003,488 C20.003,482.477 15.526,478 10.003,478 L9.996,478 C4.473,478 0,482.477 0,488 C0,493.523 4.48,498 10.003,498 Z" id="Path"></path>
            <path d="M387.589844,415.921875 C426.546875,415.0625 458.003906,383.167969 458.003906,344 L458.003906,336 L386.003906,336 C363.164062,336 342.820312,346.71875 329.621094,363.359375 C328.898438,324.726562 326.964844,292.28125 322.699219,264 L370.003906,264 C409.699219,264 442.003906,231.695312 442.003906,192 L442.003906,184 L370.003906,184 C346.179688,184 324.554688,195.617188 311.316406,214.28125 C310.101562,210.527344 308.796875,206.847656 307.421875,203.222656 C311.492188,197.855469 314.003906,191.246094 314.003906,184 C314.003906,176.113281 311.027344,168.984375 306.285156,163.398438 C315.652344,157.808594 322.003906,147.679688 322.003906,136 C322.003906,118.351562 307.652344,104 290.003906,104 C277.371094,104 266.523438,111.425781 261.324219,122.078125 C258.164062,120.886719 254.804688,120.28125 251.378906,120.128906 C246.453125,115.34375 241.171875,110.519531 235.5,105.632812 C253.730469,96.199219 266.003906,77.265625 266.003906,56 L266.003906,0 L258.003906,0 C227.125,0 202.003906,25.121094 202.003906,56 L202.003906,79.207031 C196.941406,75.503906 191.597656,71.710938 186.003906,67.832031 L186.003906,64 L185.53125,64 C181.53125,28.054688 150.996094,0 114.003906,0 L74.003906,0 L74.003906,8 C74.003906,45.425781 102.714844,76.246094 139.261719,79.65625 C128.652344,89.855469 122.003906,104.152344 122.003906,120 L122.003906,176 L130.003906,176 C160.882812,176 186.003906,150.878906 186.003906,120 L186.003906,87.382812 C204.820312,100.816406 220.179688,113.054688 233.148438,124.921875 C224.09375,130.574219 218.003906,140.558594 218.003906,152 C218.003906,169.648438 232.355469,184 250.003906,184 C250.003906,201.648438 264.355469,216 282.003906,216 C286.332031,216 290.445312,215.121094 294.210938,213.550781 C299.941406,229.742188 304.058594,247.425781 307.011719,267.289062 C293.996094,255.183594 276.660156,248 258.003906,248 L186.003906,248 L186.003906,256 C186.003906,295.695312 218.308594,328 258.003906,328 L312.523438,328 C313.539062,349.65625 313.925781,373.65625 313.980469,400.335938 C300.125,400.960938 286.636719,403.59375 273.691406,408.351562 C270.605469,367.816406 243.226562,336 210.003906,336 C189.84375,336 171.859375,347.742188 160.117188,366.007812 C147.980469,355.078125 131.386719,350.273438 112.949219,352.558594 C94.226562,354.894531 75.796875,364.3125 61.058594,379.054688 C46.316406,393.800781 36.898438,412.222656 34.5625,430.945312 C32.140625,450.320312 37.515625,467.726562 49.683594,480 L34.003906,480 L34.003906,496 L89.8125,496 C89.898438,496 89.988281,496.007812 90.085938,496.007812 C90.148438,496.007812 90.210938,496 90.269531,496 L466.003906,496 L466.003906,480 L447.195312,480 C434.667969,451.960938 413.539062,429.753906 387.589844,415.921875 Z M386.003906,352 L441.4375,352 C437.539062,379.105469 414.171875,400 386.003906,400 L330.570312,400 C334.46875,372.894531 357.835938,352 386.003906,352 Z M370.003906,200 L425.4375,200 C421.539062,227.105469 398.171875,248 370.003906,248 L319.949219,248 C319.195312,244.167969 318.394531,240.414062 317.539062,236.726562 C325.621094,214.710938 346.378906,200 370.003906,200 Z M290.003906,120 C298.828125,120 306.003906,127.175781 306.003906,136 C306.003906,144.824219 298.828125,152 290.003906,152 C281.179688,152 274.003906,144.824219 274.003906,136 C274.003906,127.175781 281.179688,120 290.003906,120 Z M218.003906,56 C218.003906,36.679688 231.773438,20.519531 250.003906,16.808594 L250.003906,56 C250.003906,73.640625 238.226562,89.054688 221.628906,94.128906 C220.453125,93.191406 219.21875,92.238281 218.003906,91.296875 L218.003906,56 Z M90.570312,16 L114.003906,16 C142.171875,16 165.539062,36.894531 169.4375,64 L146.003906,64 C117.835938,64 94.46875,43.105469 90.570312,16 Z M170.003906,120 C170.003906,139.320312 156.234375,155.480469 138.003906,159.191406 L138.003906,120 C138.003906,100.679688 151.773438,84.519531 170.003906,80.808594 L170.003906,120 Z M250.003906,168 C241.179688,168 234.003906,160.824219 234.003906,152 C234.003906,143.175781 241.179688,136 250.003906,136 C252.925781,136 255.765625,136.808594 258.234375,138.289062 C258.738281,145.265625 261.453125,151.574219 265.722656,156.601562 C261.339844,159.214844 257.636719,162.800781 254.925781,167.128906 C253.339844,167.648438 251.707031,168 250.003906,168 L250.003906,168 Z M266.003906,184 C266.003906,175.175781 273.179688,168 282.003906,168 C290.828125,168 298.003906,175.175781 298.003906,184 C298.003906,192.824219 290.828125,200 282.003906,200 C273.179688,200 266.003906,192.824219 266.003906,184 Z M258.003906,312 C229.835938,312 206.46875,291.105469 202.570312,264 L258.003906,264 C281.90625,264 303.050781,279.113281 310.875,301.625 C311.148438,305.007812 311.386719,308.488281 311.621094,312 L258.003906,312 Z M258.003906,416 C258.003906,450.871094 236.964844,479.273438 210.925781,479.9375 C212.066406,475.382812 214.179688,472.152344 216.660156,468.433594 C220.828125,462.183594 226.003906,454.414062 226.003906,439.992188 C226.003906,425.566406 220.828125,417.800781 216.660156,411.550781 C212.941406,405.96875 210.003906,401.558594 210.003906,391.976562 C210.003906,382.40625 212.941406,378 216.660156,372.425781 C219.589844,368.03125 222.988281,362.824219 224.765625,355.128906 C244.027344,363.457031 258.003906,387.585938 258.003906,416 L258.003906,416 Z M209.074219,352.0625 C207.933594,356.609375 205.820312,359.839844 203.347656,363.550781 C199.179688,369.792969 194.003906,377.558594 194.003906,391.976562 C194.003906,406.398438 199.179688,414.175781 203.347656,420.425781 C207.066406,426 210.003906,430.40625 210.003906,439.992188 C210.003906,449.574219 207.066406,453.984375 203.347656,459.558594 C200.410156,463.960938 197.011719,469.167969 195.234375,476.871094 C175.980469,468.542969 162.003906,444.414062 162.003906,416 C162.003906,381.128906 183.035156,352.726562 209.074219,352.0625 L209.074219,352.0625 Z M150.234375,444.359375 C147.140625,449.105469 143.660156,453.609375 139.636719,457.632812 C127.394531,469.871094 112.285156,477.664062 97.074219,479.566406 C83.027344,481.304688 70.636719,477.742188 61.949219,469.566406 C65.789062,467.382812 69.421875,466.625 73.636719,465.785156 C80.996094,464.3125 90.15625,462.480469 100.355469,452.28125 C110.554688,442.078125 112.386719,432.921875 113.859375,425.558594 C115.179688,418.984375 116.210938,413.792969 122.988281,407.015625 C129.757812,400.246094 134.949219,399.207031 141.515625,397.894531 C143.546875,397.488281 145.730469,397.03125 148.019531,396.40625 C146.757812,402.6875 146.003906,409.230469 146.003906,416 C146.003906,426 147.539062,435.527344 150.234375,444.359375 L150.234375,444.359375 Z M50.4375,432.929688 C52.339844,417.71875 60.125,402.609375 72.371094,390.367188 C84.621094,378.128906 99.722656,370.335938 114.933594,368.433594 C128.972656,366.671875 141.378906,370.246094 150.066406,378.441406 C146.21875,380.625 142.589844,381.367188 138.386719,382.207031 C131.027344,383.679688 121.875,385.503906 111.675781,395.703125 C101.476562,405.902344 99.644531,415.0625 98.171875,422.425781 C96.851562,429 95.820312,434.191406 89.042969,440.96875 C82.269531,447.742188 77.074219,448.785156 70.5,450.097656 C65.460938,451.105469 59.53125,452.335938 53.019531,456.28125 C50.308594,449.40625 49.371094,441.480469 50.4375,432.929688 L50.4375,432.929688 Z M137.730469,480 C142.371094,476.742188 146.8125,473.078125 150.949219,468.945312 C153.277344,466.617188 155.386719,464.105469 157.46875,461.566406 C161.402344,468.640625 166.253906,474.839844 171.765625,480 L137.730469,480 Z M273.484375,425.6875 C288.300781,419.359375 303.957031,416 320.171875,416 L323.84375,416 C368.820312,416 409.035156,440.785156 429.46875,480 L248.242188,480 C261.882812,467.230469 271.332031,447.871094 273.484375,425.6875 Z" id="Shape"></path>
            <path d="M362.003,466 C367.526,466 372.003,461.523 372.003,456 C372.003,450.477 367.526,446 362.003,446 L361.996,446 C356.473,446 352,450.477 352,456 C352,461.523 356.48,466 362.003,466 Z" id="Path"></path>
            <path d="M290.003,466 C295.526,466 300.003,461.523 300.003,456 C300.003,450.477 295.526,446 290.003,446 L289.996,446 C284.473,446 280,450.477 280,456 C280,461.523 284.48,466 290.003,466 Z" id="Path"></path>
        </g>
    </g>
</svg>