<?xml version="1.0" encoding="UTF-8"?>
<svg width="512px" height="511px" viewBox="0 0 512 511" version="1.1" xmlns="http://www.w3.org/2000/svg" xmlns:xlink="http://www.w3.org/1999/xlink">
    <!-- Generator: Sketch 53 (72520) - https://sketchapp.com -->
    <title>las-vegas</title>
    <desc>Created with Sketch.</desc>
    <g id="Page-1" stroke="none" stroke-width="1" fill="none" fill-rule="evenodd">
        <g id="las-vegas" fill="#404348" fill-rule="nonzero">
            <path d="M501.996094,490.769531 L458.5625,490.769531 L458.5625,370.644531 C465.824219,373.40625 474.660156,379.777344 476.707031,394.507812 C477.402344,399.511719 481.683594,403.132812 486.597656,403.132812 C487.058594,403.132812 487.519531,403.101562 487.988281,403.035156 C493.457031,402.277344 497.277344,397.226562 496.515625,391.757812 C494.527344,377.421875 488.226562,367.5 480.527344,360.816406 C485.722656,361.292969 491.433594,362.757812 497.421875,365.839844 C502.335938,368.367188 508.363281,366.429688 510.890625,361.519531 C513.417969,356.609375 511.484375,350.578125 506.570312,348.054688 C487.089844,338.03125 469.511719,339.90625 457.777344,343.515625 C456.261719,339.921875 452.707031,337.402344 448.5625,337.402344 C444.40625,337.402344 440.84375,339.9375 439.335938,343.542969 C427.597656,339.917969 409.984375,338.007812 390.453125,348.050781 C385.542969,350.578125 383.609375,356.609375 386.136719,361.519531 C388.660156,366.429688 394.691406,368.367188 399.601562,365.835938 C405.585938,362.757812 411.296875,361.292969 416.492188,360.820312 C408.792969,367.503906 402.496094,377.425781 400.507812,391.753906 C399.746094,397.226562 403.566406,402.277344 409.039062,403.035156 C409.503906,403.097656 409.96875,403.132812 410.425781,403.132812 C415.339844,403.132812 419.625,399.507812 420.316406,394.503906 C422.367188,379.730469 431.25,373.359375 438.558594,370.613281 L438.558594,490.769531 L380.679688,490.769531 L378.851562,467.425781 C373.488281,398.769531 370.664062,329.050781 370.441406,260.097656 L375.511719,256.757812 C385.144531,250.414062 390.898438,239.742188 390.902344,228.207031 C390.90625,216.667969 385.152344,205.984375 375.511719,199.632812 L370.410156,196.273438 L370.410156,82.226562 L471.976562,146.125 C473.605469,147.152344 475.453125,147.660156 477.300781,147.660156 C479.253906,147.660156 481.207031,147.089844 482.894531,145.953125 C486.179688,143.734375 487.84375,139.792969 487.144531,135.890625 C486.929688,134.703125 481.667969,106.472656 460.890625,80.769531 C453.949219,72.179688 446.414062,65.234375 438.519531,59.660156 L501.996094,59.660156 C505.957031,59.660156 509.546875,57.324219 511.144531,53.699219 C512.746094,50.074219 512.054688,45.847656 509.386719,42.921875 C508.570312,42.03125 489.085938,20.9375 457.8125,10.242188 C414.734375,-4.484375 377.972656,9.703125 351.183594,28.753906 L351.183594,10.5 C351.183594,4.976562 346.707031,0.5 341.183594,0.5 C335.660156,0.5 331.183594,4.976562 331.183594,10.5 L331.183594,28.753906 C304.398438,9.703125 267.636719,-4.480469 224.558594,10.242188 C193.285156,20.933594 173.796875,42.03125 172.984375,42.921875 C170.316406,45.851562 169.625,50.074219 171.222656,53.699219 C172.824219,57.324219 176.410156,59.660156 180.371094,59.660156 L243.894531,59.660156 C231.78125,68.191406 221.445312,79.226562 213.019531,92.617188 L210.648438,91.054688 C201.753906,85.203125 190.257812,85.203125 181.359375,91.058594 L16.488281,199.632812 C6.851562,205.988281 1.097656,216.667969 1.101562,228.207031 C1.105469,239.742188 6.859375,250.414062 16.492188,256.757812 L56.988281,283.425781 C61.601562,286.46875 67.800781,285.1875 70.839844,280.574219 C73.878906,275.960938 72.601562,269.761719 67.988281,266.722656 L27.492188,240.050781 C23.433594,237.378906 21.101562,233.058594 21.101562,228.199219 C21.101562,223.335938 23.429688,219.011719 27.492188,216.335938 L91.503906,174.179688 C91.773438,181.308594 93.871094,188.179688 97.511719,194.167969 L58.535156,219.839844 C55.726562,221.691406 54.035156,224.828125 54.035156,228.195312 C54.035156,231.558594 55.722656,234.695312 58.53125,236.546875 L190.5,323.472656 C192.167969,324.570312 194.085938,325.121094 196,325.121094 C197.917969,325.121094 199.832031,324.570312 201.5,323.472656 L333.476562,236.546875 C336.285156,234.695312 337.976562,231.558594 337.976562,228.195312 C337.976562,224.828125 336.285156,221.691406 333.476562,219.839844 L294.492188,194.167969 C298.132812,188.179688 300.230469,181.308594 300.496094,174.175781 C300.496094,174.175781 354.921875,210.023438 354.929688,210.027344 L364.503906,216.335938 C368.570312,219.011719 370.898438,223.339844 370.898438,228.203125 C370.898438,233.058594 368.566406,237.378906 364.507812,240.054688 L211.082031,341.113281 C211.050781,341.132812 211.019531,341.152344 210.988281,341.171875 L199.65625,348.636719 C197.441406,350.09375 194.574219,350.09375 192.363281,348.640625 L143.097656,316.191406 C138.484375,313.152344 132.28125,314.429688 129.242188,319.042969 C126.207031,323.65625 127.480469,329.855469 132.09375,332.894531 L165.390625,354.828125 L165.390625,490.769531 L58.960938,490.769531 C53.4375,490.769531 48.960938,495.246094 48.960938,500.769531 C48.960938,506.292969 53.4375,510.769531 58.960938,510.769531 L501.996094,510.769531 C507.519531,510.769531 512,506.292969 512,500.769531 C512,495.246094 507.519531,490.769531 501.996094,490.769531 Z M332.136719,171.066406 L332.136719,141.796875 L350.410156,141.796875 L350.410156,183.101562 L332.136719,171.066406 Z M350.410156,121.796875 L332.136719,121.796875 L332.136719,69.535156 L341.1875,63.84375 L350.410156,69.644531 L350.410156,121.796875 Z M444.875,92.773438 C450.664062,99.828125 455.070312,107.199219 458.382812,113.945312 L372.101562,59.664062 L379.410156,59.664062 C406.496094,61.667969 428.429688,72.738281 444.875,92.773438 Z M450.644531,28.933594 C459.300781,31.824219 466.957031,35.714844 473.351562,39.660156 L378.765625,39.660156 C376.234375,39.507812 373.71875,39.425781 371.226562,39.402344 C397.257812,23.535156 423.878906,20 450.644531,28.933594 L450.644531,28.933594 Z M231.722656,28.933594 C258.457031,20.011719 285.039062,23.527344 311.035156,39.339844 C308.152344,39.363281 305.3125,39.472656 302.511719,39.660156 L209.015625,39.660156 C215.414062,35.714844 223.066406,31.824219 231.722656,28.933594 Z M304.4375,59.660156 L310.265625,59.660156 L234.9375,107.054688 L229.710938,103.609375 C249.171875,72.347656 277.347656,61.40625 304.4375,59.660156 Z M270.40625,154.371094 C270.546875,154.457031 270.691406,154.527344 270.832031,154.605469 C270.925781,154.675781 271.007812,154.75 271.105469,154.8125 C277.003906,158.835938 280.527344,165.492188 280.527344,172.621094 C280.527344,178.851562 277.832031,184.761719 273.113281,188.855469 C269.214844,192.25 264.210938,194.125 259.023438,194.125 C247.164062,194.125 237.515625,184.476562 237.515625,172.621094 C237.515625,170.367188 237.855469,168.175781 238.542969,166.058594 C241.390625,157.117188 249.621094,151.113281 259.023438,151.113281 C263.078125,151.113281 267.011719,152.238281 270.40625,154.371094 Z M174.5,172.621094 C174.5,169.789062 175.066406,166.910156 176.160156,164.292969 C179.527344,156.285156 187.316406,151.113281 196,151.113281 C204.695312,151.113281 212.484375,156.285156 215.847656,164.304688 C216.953125,166.929688 217.515625,169.726562 217.515625,172.621094 C217.515625,184.476562 207.863281,194.125 196.003906,194.125 C184.144531,194.125 174.5,184.480469 174.5,172.621094 Z M192.355469,107.765625 C194.574219,106.304688 197.441406,106.304688 199.648438,107.761719 L241.167969,135.109375 C235.929688,137.59375 231.273438,141.148438 227.5,145.554688 C219.757812,136.527344 208.355469,131.109375 196,131.109375 C183.65625,131.109375 172.25,136.527344 164.503906,145.558594 C160.730469,141.148438 156.070312,137.589844 150.835938,135.109375 L192.355469,107.765625 Z M153.484375,166.089844 C154.160156,168.171875 154.5,170.371094 154.5,172.621094 C154.5,184.476562 144.851562,194.125 132.988281,194.125 C132.339844,194.125 131.695312,194.09375 131.054688,194.035156 C127.210938,193.6875 123.527344,192.3125 120.394531,190.050781 C119.875,189.675781 119.371094,189.273438 118.882812,188.847656 C118.878906,188.847656 118.878906,188.84375 118.875,188.84375 C114.175781,184.757812 111.476562,178.84375 111.476562,172.625 C111.476562,165.46875 115.023438,158.800781 120.960938,154.785156 C121.039062,154.734375 121.105469,154.671875 121.183594,154.617188 C121.253906,154.574219 121.332031,154.539062 121.402344,154.492188 C124.851562,152.28125 128.859375,151.113281 132.988281,151.113281 C142.386719,151.113281 150.621094,157.117188 153.484375,166.089844 Z M196,303.144531 L82.214844,228.195312 L112.121094,208.496094 C112.21875,208.554688 112.320312,208.601562 112.417969,208.65625 C122.695312,214.523438 135.285156,215.734375 146.484375,211.875 C153.539062,209.441406 159.738281,205.160156 164.5,199.613281 C169.261719,205.160156 175.460938,209.441406 182.511719,211.875 C186.742188,213.332031 191.28125,214.125 196.003906,214.125 C208.59375,214.125 219.894531,208.492188 227.515625,199.613281 C235.132812,208.492188 246.433594,214.125 259.027344,214.125 C266.316406,214.125 273.585938,212.164062 279.886719,208.5 L309.796875,228.195312 L196,303.144531 Z M253.285156,119.144531 L312.136719,82.121094 L312.136719,157.894531 L253.285156,119.144531 Z M330.839844,345.765625 L352.027344,345.765625 C352.488281,359.324219 353.066406,372.882812 353.722656,386.429688 L329.308594,386.429688 C329.917969,372.878906 330.429688,359.320312 330.839844,345.765625 Z M331.375,325.765625 C331.6875,312.289062 331.914062,298.828125 332.027344,285.402344 L350.503906,273.230469 C350.644531,290.710938 350.960938,308.230469 351.429688,325.765625 L331.375,325.765625 Z M328.34375,406.429688 L354.761719,406.429688 C355.488281,419.546875 356.285156,432.648438 357.195312,445.714844 L326.035156,445.714844 C326.898438,432.648438 327.664062,419.550781 328.34375,406.429688 L328.34375,406.429688 Z M304.921875,461.296875 L302.792969,490.769531 L226.613281,490.769531 L226.613281,354.832031 L311.867188,298.679688 C311.140625,352.828125 308.816406,407.4375 304.921875,461.296875 L304.921875,461.296875 Z M185.390625,367.511719 C188.777344,368.984375 192.386719,369.734375 196.003906,369.734375 C199.617188,369.734375 203.230469,368.984375 206.613281,367.511719 L206.613281,490.769531 L185.390625,490.769531 L185.390625,367.511719 Z M322.847656,490.769531 L324.65625,465.714844 L358.671875,465.714844 C358.753906,466.804688 358.828125,467.898438 358.910156,468.984375 L360.617188,490.765625 L322.847656,490.765625 L322.847656,490.769531 Z" id="Shape"></path>
            <path d="M19.203125,496.9375 C17.109375,491.910156 11.183594,489.445312 6.152344,491.539062 C1.117188,493.632812 -1.339844,499.542969 0.742188,504.589844 C2.820312,509.621094 8.761719,512.085938 13.792969,510 C18.84375,507.902344 21.273438,501.988281 19.203125,496.9375 Z" id="Path"></path>
            <path d="M235.859375,227.464844 L158.941406,227.464844 C153.417969,227.464844 148.941406,231.941406 148.941406,237.464844 C148.941406,242.984375 153.417969,247.464844 158.941406,247.464844 L235.859375,247.464844 C241.382812,247.464844 245.859375,242.984375 245.859375,237.464844 C245.859375,231.941406 241.382812,227.464844 235.859375,227.464844 Z" id="Path"></path>
            <path d="M204.523438,260.328125 L186.480469,260.328125 C180.957031,260.328125 176.480469,264.804688 176.480469,270.328125 C176.480469,275.847656 180.957031,280.328125 186.480469,280.328125 L204.523438,280.328125 C210.046875,280.328125 214.523438,275.847656 214.523438,270.328125 C214.523438,264.804688 210.046875,260.328125 204.523438,260.328125 Z" id="Path"></path>
            <path d="M93.167969,306.308594 C98.046875,313.761719 109.796875,311.089844 111.332031,302.46875 C112.964844,293.277344 101.640625,287.148438 94.761719,293.351562 C91.128906,296.625 90.460938,302.253906 93.167969,306.308594 Z" id="Path"></path>
        </g>
    </g>
</svg>