<?xml version="1.0" encoding="UTF-8"?>
<svg width="143px" height="37px" viewBox="0 0 143 37" version="1.1" xmlns="http://www.w3.org/2000/svg" xmlns:xlink="http://www.w3.org/1999/xlink">
    <!-- Generator: Sketch 53 (72520) - https://sketchapp.com -->
    <title>Group</title>
    <desc>Created with Sketch.</desc>
    <g id="Page-1" stroke="none" stroke-width="1" fill="none" fill-rule="evenodd">
        <g id="Desktop-HD" transform="translate(-16.000000, -235.000000)" fill-rule="nonzero">
            <g id="Group" transform="translate(16.000000, 235.000000)">
                <g id="Bestemmingen_footer">
                    <path d="M21.0783006,21.9711383 L21.1349551,20.1186746 L22.3704616,18.8625733 C24.3831682,18.194908 25.5473363,18.0661855 25.8629657,18.4764057 C25.9652413,18.6093323 26.3978965,18.8019628 27.1609311,19.0542971 L29.0626086,18.0909851 L29.3602307,20.7964955 L31.440304,21.7226038 L29.9145641,25.1494717 L27.5973458,28.0640592 L23.6418792,30.398458 L22.0294376,30.7964377 L22.1920699,28.2159227 L23.0951721,27.1257565 L23.4913405,26.2359478 L21.7892157,24.5035163 L21.0783006,21.9711383 Z" id="Rectangle" fill="#17AC61" transform="translate(26.259302, 24.443711) rotate(-24.000000) translate(-26.259302, -24.443711) "></path>
                    <path d="M5.11445436,21.8164684 C5.17559426,21.057763 5.1495809,20.200831 5.03641429,19.2456724 C4.92324768,18.2905138 5.02684915,17.4128325 5.34721871,16.6126285 L7.07607435,15.3162817 C8.19894023,15.4357823 8.91257853,15.59303 9.21698926,15.7880247 C10.270841,16.4630847 10.3223261,18.0163864 10.5425404,18.3025966 C10.8019735,18.639779 9.58394832,21.0011664 6.44991695,22.6265534 C6.2160475,22.747844 5.77089331,22.4778156 5.11445436,21.8164684 Z" id="Rectangle" fill="#17AC61" transform="translate(7.784260, 18.985515) rotate(-24.000000) translate(-7.784260, -18.985515) "></path>
                    <g id="020-destination" fill="#000000">
                        <path d="M19.2258727,4.11132212 C19.2088023,2.99628606 18.2914545,2.10622596 17.1769977,2.12330529 C16.0625409,2.14038462 15.1729432,3.05820913 15.1900136,4.17324519 C15.2069159,5.27616587 16.1052591,6.16134615 17.2076909,6.16151442 C18.3302205,6.1515024 19.2329364,5.23451923 19.2258727,4.11132212 Z M16.5349636,4.11132212 C16.5520341,3.73995192 16.8667864,3.45280048 17.2378795,3.46996394 C17.6090568,3.48704327 17.8960591,3.80195913 17.8789886,4.17324519 C17.8624227,4.5322476 17.5669273,4.81502404 17.2076909,4.81536058 C16.8278523,4.8061899 16.5270591,4.49135817 16.5349636,4.11132212 Z" id="Shape"></path>
                        <path d="M29.5954591,12.3800721 C28.5967114,11.9515745 27.4518977,12.0369712 26.5276545,12.6089183 C26.3931091,12.4891106 26.2585636,12.3645913 26.1172909,12.2508413 C26.1024909,12.238726 26.0870182,12.2286298 26.0722182,12.2165144 C25.7950545,11.9921274 25.5098182,11.7823798 25.2165091,11.5871875 L25.1882545,11.5690144 C24.8882182,11.3670913 24.5828,11.1813221 24.2652727,11.0069952 L24.2417273,10.9948798 C23.9278159,10.8225721 23.6089432,10.6654928 23.2851091,10.523726 C23.2602182,10.5129567 23.2353273,10.5035337 23.2104364,10.4920913 C22.909475,10.3605889 22.6038886,10.2410337 22.2935091,10.1333413 C22.2329636,10.1118029 22.1710727,10.0929567 22.1098545,10.0727644 C21.8407636,9.98459135 21.5716727,9.90449519 21.3025818,9.83449519 C21.1949455,9.80622596 21.0866364,9.78064904 20.9776545,9.75574519 C20.7533841,9.70417067 20.5260023,9.65924279 20.2955091,9.62112981 C20.1479295,9.59555288 19.9997614,9.57308894 19.8508364,9.55382212 L19.8454545,9.55382212 L21.2198364,6.03766827 C21.7577659,4.66248798 21.5815114,3.11020433 20.7489273,1.89084135 C19.4322318,-0.0664663462 16.7789955,-0.585324519 14.8226205,0.732055288 C14.3654182,1.03990385 13.972125,1.43340144 13.6644364,1.89084135 C12.8316,3.11012019 12.6553455,4.66257212 13.1935273,6.03766827 L14.7058182,9.88901442 C11.8600977,10.6665865 9.37361364,12.4109495 7.67312727,14.8226683 C7.57356364,14.8132452 7.47467273,14.8038221 7.37309091,14.8038221 C6.25224318,14.8018029 5.2059,15.3651683 4.59001818,16.3020913 C3.97152955,17.2377524 3.86574318,18.4222837 4.30881818,19.4527644 L5.32463636,21.8233413 C5.32463636,21.8334375 5.31858182,21.8415144 5.31790909,21.8516106 C5.31790909,21.969399 5.3132,22.0878606 5.3132,22.2063221 C5.30790227,29.2647115 11.0226364,34.9909976 18.0773591,34.9962981 C23.8565909,35.0006731 28.9187795,31.1221514 30.4214,25.538726 C31.0056636,23.7522115 31.0953886,21.8407572 30.6810727,20.0073798 C30.6138,19.6277644 30.5377818,19.2508413 30.4375455,18.8793029 L31.3457273,16.7604567 C32.0714318,15.0672476 31.2877886,13.1060697 29.5954591,12.3800721 Z M14.4501818,5.53824519 C14.0737068,4.57776442 14.1958068,3.49326923 14.7764545,2.64064904 C15.6735364,1.2974399 17.4891432,0.936081731 18.8317386,1.83371394 C19.1509477,2.04707933 19.425,2.32127404 19.6382545,2.64064904 C20.2189864,3.4931851 20.3409182,4.57793269 19.9638545,5.53824519 L17.8272727,10.9995913 C17.7338477,11.2628486 17.4842659,11.4383534 17.205,11.4370913 C16.9257341,11.4383534 16.6761523,11.2628486 16.5827273,10.9995913 L14.4501818,5.53824519 Z M14.1272727,11.819399 C14.4898727,11.6167187 14.867525,11.4420553 15.2567818,11.2970913 L15.3321273,11.4895913 C15.6282955,12.2682572 16.37435,12.7829928 17.2070182,12.7832452 C18.0397705,12.7826562 18.785825,12.2680889 19.0825818,11.4895913 L19.3328364,10.8494952 C19.35655,10.8596755 19.3808523,10.8686779 19.4054909,10.8764183 C20.8484068,11.1184736 22.2295159,11.6424639 23.4701091,12.4184375 L23.3396,13.0686298 C22.5504909,13.5107572 22.0361909,14.3199639 21.9706,15.222476 C21.8744,15.704399 21.8044364,16.0093029 21.5938727,16.1775721 L21.3214182,16.395649 C20.5000182,17.0487861 19.4223932,17.2839423 18.4038,17.0323798 C18.3533455,17.0138702 18.3227364,16.9624639 18.3304727,16.9092067 C18.3667159,16.7639062 18.3534295,16.610613 18.2928,16.473726 L17.4330545,14.5332452 C17.3263432,14.2884976 17.0850864,14.1300721 16.8181818,14.129399 L14.9197455,14.129399 C14.5161091,13.962476 14.1272727,13.5640144 14.1272727,12.1889183 L14.1272727,11.819399 L14.1272727,11.819399 Z M5.7128,17.043149 C6.31884318,16.1263341 7.55304545,15.8746875 8.46938409,16.4810457 C9.27051818,17.0111779 9.57862727,18.0384615 9.20156364,18.9223798 L7.99065455,21.7493029 C7.84374773,22.0907212 7.44801591,22.2483894 7.106775,22.1014062 C6.94885227,22.0333413 6.82288409,21.9073918 6.75485455,21.7493029 L5.54394545,18.9223798 C5.27561136,18.3082812 5.33926818,17.5995312 5.7128,17.043149 Z M17.5608727,32.0043029 L17.5615455,32.0016106 C17.5473341,32.0301322 17.535225,32.0595793 17.5252182,32.0897837 L17.0240364,33.5941106 C11.6016023,33.077524 7.29303636,28.811226 6.72054545,23.3916106 C6.93077273,23.4627885 7.151175,23.499387 7.37309091,23.499976 C8.183475,23.5072957 8.91725227,23.0222596 9.22847273,22.2736298 L10.2678364,19.8505529 L12.4878364,19.8505529 L13.3852545,20.5236298 C14.32825,21.0742067 14.8562568,22.1308534 14.7307091,23.2159375 L14.7307091,25.2351683 C14.7307091,25.4470192 14.6309773,25.6465024 14.4616182,25.7736298 L13.0038182,26.8673798 C12.4092114,27.3132933 12.2884568,28.1569952 12.7341386,28.7519111 C12.8022523,28.8427764 12.88155,28.9247236 12.9701818,28.995649 L14.8982182,30.5390144 C15.1178636,30.7151082 15.4237864,30.7358053 15.6651273,30.5908413 C16.2187818,30.1890144 16.9932591,30.3124399 17.3947932,30.8663822 C17.6333591,31.1955168 17.6954182,31.6207332 17.5608727,32.0043029 Z M18.4327273,33.6318029 L18.7906182,32.5548798 C19.2030841,31.5520793 18.9373568,30.3980048 18.1279818,29.6768029 C17.3954659,28.9902644 16.3231386,28.809375 15.4061273,29.2177644 L13.8144545,27.9429567 L15.2709091,26.8505529 C15.7778091,26.4680769 16.0765,25.8703005 16.0781818,25.2351683 L16.0781818,23.2435337 C16.2159227,21.7238101 15.4876114,20.2558293 14.1945455,19.4467067 L13.1181818,18.6390144 C13.0017159,18.5515986 12.8601068,18.504399 12.7145455,18.504399 L10.6822364,18.504399 C10.8341886,17.1854207 10.1837455,15.9032933 9.03001818,15.2473798 C10.0350727,13.93 11.315525,12.848113 12.7818182,12.0771875 L12.7818182,12.1889183 C12.7818182,12.8444952 12.7818182,14.8388221 14.5874182,15.441226 C14.6559523,15.4640264 14.7277659,15.475637 14.8,15.4755529 L16.3809091,15.4755529 L16.9863636,16.8405529 C16.9438977,17.5374399 17.4034545,18.1657572 18.0802182,18.3361298 C18.4505545,18.4283413 18.8308136,18.4748678 19.2124182,18.4747837 C20.284325,18.4752043 21.3247818,18.1119111 22.1636727,17.4443029 L22.4327636,17.226226 C22.9229295,16.7704687 23.2275909,16.1496394 23.2884727,15.4829567 C23.4337818,14.7540144 23.5306545,14.3945913 24.1408182,14.190649 C24.3696295,14.1142548 24.5400818,13.9211659 24.5875091,13.6844952 L24.7422364,12.9091106 C24.9050364,13.0255529 25.0685091,13.1393029 25.2252545,13.2644952 C25.2400545,13.2766106 25.2562,13.2873798 25.2716727,13.2994952 C25.3678727,13.376899 25.4566727,13.464399 25.5508545,13.5451683 C24.9108386,14.4622356 24.7741068,15.6396154 25.1869091,16.6790144 C24.9511182,17.0169832 24.8243091,17.4191466 24.8236364,17.8313221 C24.8236364,18.2030288 24.5224227,18.504399 24.1509091,18.504399 L22.7778727,18.504399 C22.2470909,18.504399 21.7015091,18.8941106 21.0341636,19.729399 L19.5299455,21.3535337 C18.9785614,22.0392308 18.9366,23.0038341 19.4263455,23.7348798 L21.1720727,26.3551683 C21.5468659,26.9176923 22.1781364,27.2552404 22.8538909,27.254399 L23.4795273,27.254399 C23.7912523,27.254399 24.0621091,27.4686058 24.1340909,27.7719952 L23.6436727,28.5911298 C23.5801841,28.6953726 23.5462114,28.815012 23.5454545,28.9370913 L23.5454545,29.6101683 C23.5453705,29.6824399 23.556975,29.7542909 23.5797636,29.8228606 L24.2524909,31.8346875 C22.5123977,32.9530048 20.5000182,33.5744231 18.4327273,33.6318029 Z M29.1290909,25.1678606 C28.6966955,26.5121635 28.0707227,27.7862139 27.2710182,28.9498798 C26.7436,29.7086058 26.1036682,30.382524 25.3732545,30.9482452 L24.8909091,29.5011298 L24.8909091,29.1228606 L25.3994909,28.2734375 C25.462475,28.1690264 25.4960273,28.0494712 25.4963636,27.927476 C25.4963636,26.8122716 24.5928068,25.9082452 23.4781818,25.9082452 L22.8525455,25.9082452 C22.6276864,25.9082452 22.4176273,25.7959255 22.2928364,25.608726 L20.5437455,22.9884375 C20.3858227,22.7610216 20.3858227,22.4593149 20.5437455,22.231899 L22.0486364,20.6077644 C22.2607977,20.3259976 22.5071,20.0716587 22.7819091,19.8505529 L24.1509091,19.8505529 C24.9637318,19.8504687 25.6970886,19.3625721 26.0116727,18.6127644 L26.4260727,19.5813221 C26.7379659,20.3286899 27.4713227,20.8124639 28.2807818,20.804976 C28.6771023,20.8073317 29.06535,20.6925721 29.3968364,20.4751683 C29.4853841,21.0480409 29.5308773,21.6267187 29.5327273,22.2063221 C29.5288591,23.2070192 29.3931364,24.2027524 29.1290909,25.1678606 Z M30.1092545,16.2300721 L28.8983455,19.0569952 C28.7518591,19.3985817 28.3562955,19.5567548 28.0148864,19.4101923 C27.8562909,19.3421274 27.7299023,19.2156731 27.6618727,19.0569952 L26.4509636,16.2334375 C26.1135909,15.4444231 26.3184364,14.5279447 26.9595455,13.9577644 C27.7806932,13.227476 29.0380205,13.3014303 29.7679295,14.1230048 C30.2803795,14.6997476 30.4134114,15.5209014 30.1092545,16.2300721 Z" id="Shape"></path>
                        <path d="M6.89545455,18.6457452 C6.96087727,18.7051442 7.03597045,18.7529327 7.11745455,18.7870913 C7.19835,18.8215865 7.28521591,18.8398438 7.37309091,18.8409375 C7.55144773,18.8395913 7.72248864,18.7697596 7.85072727,18.6457452 C7.87965455,18.613774 7.90664773,18.5800361 7.93145455,18.5447837 C7.95693409,18.5072596 7.97728409,18.4665385 7.992,18.4236298 C8.011425,18.3855168 8.02504773,18.3446274 8.03236364,18.302476 C8.04312727,18.2584736 8.04766818,18.213125 8.04581818,18.1678606 C8.04321136,17.9896635 7.97358409,17.8190385 7.85072727,17.689976 C7.65731818,17.4989904 7.36796136,17.4432091 7.11745455,17.5486298 C7.03597045,17.5827885 6.96087727,17.6305769 6.89545455,17.689976 C6.77259773,17.8190385 6.70297045,17.9896635 6.70036364,18.1678606 C6.70187727,18.2129567 6.70633409,18.2579687 6.71381818,18.302476 C6.72113409,18.3446274 6.73475682,18.3855168 6.75418182,18.4236298 C6.76889773,18.4665385 6.78924773,18.5072596 6.81472727,18.5447837 L6.89545455,18.6457452 Z" id="Path"></path>
                        <path d="M28.7590909,14.9976683 C28.4893273,14.7486298 28.0735818,14.7486298 27.8038182,14.9976683 C27.74445,15.063125 27.6966864,15.1382572 27.6625455,15.2197837 C27.5907318,15.3827524 27.5907318,15.5683534 27.6625455,15.7313221 C27.6950886,15.8136899 27.7430205,15.8890745 27.8038182,15.9534375 C28.065425,16.2173678 28.4914295,16.2191346 28.7552227,15.9573918 C28.8835455,15.8300962 28.955275,15.6564423 28.9541818,15.4755529 C28.9530886,15.3876322 28.9348409,15.3007212 28.9003636,15.2197837 C28.8662227,15.1382572 28.8184591,15.063125 28.7590909,14.9976683 Z" id="Path"></path>
                        <path d="M26.9090909,6.72555288 L28.2545455,6.72555288 C28.6260591,6.72555288 28.9272727,6.42418269 28.9272727,6.05247596 C28.9272727,5.68076923 28.6260591,5.37939904 28.2545455,5.37939904 L26.9090909,5.37939904 C26.5375773,5.37939904 26.2363636,5.68076923 26.2363636,6.05247596 C26.2363636,6.42418269 26.5375773,6.72555288 26.9090909,6.72555288 Z" id="Path"></path>
                        <path d="M22.8727273,6.72555288 L24.2181818,6.72555288 C24.5896955,6.72555288 24.8909091,6.42418269 24.8909091,6.05247596 C24.8909091,5.68076923 24.5896955,5.37939904 24.2181818,5.37939904 L22.8727273,5.37939904 C22.5012136,5.37939904 22.2,5.68076923 22.2,6.05247596 C22.2,6.42418269 22.5012136,6.72555288 22.8727273,6.72555288 Z" id="Path"></path>
                        <path d="M8.74545455,6.72555288 L10.0909091,6.72555288 C10.4624227,6.72555288 10.7636364,6.42418269 10.7636364,6.05247596 C10.7636364,5.68076923 10.4624227,5.37939904 10.0909091,5.37939904 L8.74545455,5.37939904 C8.37394091,5.37939904 8.07272727,5.68076923 8.07272727,6.05247596 C8.07272727,6.42418269 8.37394091,6.72555288 8.74545455,6.72555288 Z" id="Path"></path>
                        <path d="M4.70909091,6.72555288 L6.05454545,6.72555288 C6.42605909,6.72555288 6.72727273,6.42418269 6.72727273,6.05247596 C6.72727273,5.68076923 6.42605909,5.37939904 6.05454545,5.37939904 L4.70909091,5.37939904 C4.33757727,5.37939904 4.03636364,5.68076923 4.03636364,6.05247596 C4.03636364,6.42418269 4.33757727,6.72555288 4.70909091,6.72555288 Z" id="Path"></path>
                        <path d="M2.01818182,5.37939904 L0.672727273,5.37939904 C0.301213636,5.37939904 0,5.68076923 0,6.05247596 C0,6.42418269 0.301213636,6.72555288 0.672727273,6.72555288 L2.01818182,6.72555288 C2.38969545,6.72555288 2.69090909,6.42418269 2.69090909,6.05247596 C2.69090909,5.68076923 2.38969545,5.37939904 2.01818182,5.37939904 Z" id="Path"></path>
                        <path d="M36.2431818,5.37939904 L34.7941273,5.37939904 L34.2747818,3.81987981 C34.1572227,3.46676683 33.7757023,3.27586538 33.4227727,3.39348558 C33.0698432,3.51110577 32.8790409,3.89282452 32.9966,4.2459375 L33.3753455,5.37939904 L31.8953455,5.37939904 L31.4197273,4.90286058 C31.1568591,4.64002404 30.7308545,4.64019231 30.4681545,4.90319712 C30.2054545,5.16620192 30.2056227,5.59242788 30.4684909,5.85526442 L31.1425636,6.52901442 C31.2687841,6.65496394 31.4399091,6.72572115 31.6181818,6.72555288 C31.6316364,6.72555288 31.6444182,6.71882212 31.6578727,6.71814904 C31.6713273,6.71747596 31.6868,6.72622596 31.7022727,6.72622596 L33.0517636,6.72622596 L32.4039273,7.69882212 C32.1925227,8.00448317 32.2687932,8.4238101 32.5742955,8.63532452 C32.8797977,8.84683894 33.2989068,8.77052885 33.5103114,8.46486779 C33.5147682,8.45838942 33.5191409,8.45191106 33.5233455,8.44534856 L34.669,6.72563702 L36.2431818,6.72563702 C36.6374841,6.74751202 36.9754455,6.44689904 37,6.0525601 C36.9754455,5.65813702 36.6374841,5.35760817 36.2431818,5.37939904 Z" id="Path"></path>
                    </g>
                </g>
                <g id="Group-2" transform="translate(42.000000, 2.000000)" fill="#404348">
                    <path d="M11.886,0.945 L12.285,3.528 L7.56,3.528 L7.56,15.225 L4.263,15.225 L4.263,3.528 L0,3.528 L0,0.945 L11.886,0.945 Z M16.884,9.135 L16.884,15.225 L13.587,15.225 L13.587,5.061 L15.267,5.061 L16.191,6.51 C16.6810025,6.13199811 17.2479968,5.79250151 17.892,5.4915 C18.5360032,5.1904985 19.1169974,5.04 19.635,5.04 L20.286,7.665 C19.7959976,7.665 19.2325032,7.80149864 18.5955,8.0745 C17.9584968,8.34750136 17.3880025,8.70099783 16.884,9.135 Z M23.226,3.633 C22.7359976,3.633 22.3125018,3.45450179 21.9555,3.0975 C21.5984982,2.74049822 21.42,2.31700245 21.42,1.827 C21.42,1.32299748 21.5984982,0.892501785 21.9555,0.5355 C22.3125018,0.178498215 22.7359976,0 23.226,0 C23.7300025,0 24.1604982,0.178498215 24.5175,0.5355 C24.8745018,0.892501785 25.053,1.32299748 25.053,1.827 C25.053,2.31700245 24.8745018,2.74049822 24.5175,3.0975 C24.1604982,3.45450179 23.7300025,3.633 23.226,3.633 Z M24.885,15.225 L21.588,15.225 L21.588,5.04 L24.885,5.04 L24.885,15.225 Z M32.193,4.725 C33.7750079,4.725 35.0314953,5.18699538 35.9625,6.111 C36.8935047,7.03500462 37.359,8.34399153 37.359,10.038 C37.359,11.7320085 36.8865047,13.0584952 35.9415,14.0175 C34.9964953,14.9765048 33.7050082,15.456 32.067,15.456 C31.5629975,15.456 31.0310028,15.3440011 30.471,15.12 L30.471,19.614 L27.195,19.824 L27.195,5.061 L28.854,5.061 L29.421,5.691 C30.3030044,5.04699678 31.2269952,4.725 32.193,4.725 Z M31.92,12.831 C32.5360031,12.831 33.0329981,12.5755026 33.411,12.0645 C33.7890019,11.5534974 33.978,10.8850041 33.978,10.059 C33.978,9.2189958 33.7890019,8.56100238 33.411,8.085 C33.0329981,7.60899762 32.5080034,7.371 31.836,7.371 C31.4019978,7.371 30.9470024,7.53199839 30.471,7.854 L30.471,12.39 C30.9470024,12.6840015 31.4299976,12.831 31.92,12.831 Z M38.346,14.343 L39.312,12.201 C39.7460022,12.4110011 40.2254974,12.5824993 40.7505,12.7155 C41.2755026,12.8485007 41.7199982,12.915 42.084,12.915 C42.4200017,12.915 42.7174987,12.8555006 42.9765,12.7365 C43.2355013,12.6174994 43.365,12.4530011 43.365,12.243 C43.365,12.0609991 43.2425012,11.8860008 42.9975,11.718 C42.7524988,11.5499992 42.4130022,11.3960007 41.979,11.256 C40.9569949,10.9059982 40.1170033,10.4720026 39.459,9.954 C38.8009967,9.43599741 38.472,8.77800399 38.472,7.98 C38.472,6.97199496 38.8499962,6.17750291 39.606,5.5965 C40.3620038,5.0154971 41.3979934,4.725 42.714,4.725 C43.2460027,4.725 43.8654965,4.81249913 44.5725,4.9875 C45.2795035,5.16250088 45.8779976,5.43199818 46.368,5.796 L45.423,7.938 C44.4429951,7.50399783 43.5750038,7.287 42.819,7.287 C42.4969984,7.287 42.2310011,7.34999937 42.021,7.476 C41.810999,7.60200063 41.706,7.76299902 41.706,7.959 C41.706,8.18300112 42.1469956,8.44899846 43.029,8.757 C45.3670117,9.56900406 46.536,10.7029927 46.536,12.159 C46.536,13.2090053 46.1755036,14.0209971 45.4545,14.595 C44.7334964,15.1690029 43.6800069,15.456 42.294,15.456 C41.7339972,15.456 41.055004,15.3650009 40.257,15.183 C39.458996,15.0009991 38.8220024,14.7210019 38.346,14.343 Z M50.526,15.477 L50.82,14.784 L47.229,5.565 L50.337,4.662 L52.563,11.004 L54.642,5.04 L58.002,5.04 L53.487,16.485 C53.1649984,17.283004 52.5875042,17.986497 51.7545,18.5955 C50.9214958,19.204503 50.008005,19.6209989 49.014,19.845 L47.901,17.241 C48.6290036,16.9329985 49.2169978,16.6460013 49.665,16.38 C50.1130022,16.1139987 50.3999994,15.8130017 50.526,15.477 Z" id="Tripsy"></path>
                    <path d="M8.0795,32.5745 L7.1435,32.5745 C7.03516612,32.5745 6.95066697,32.5474169 6.89,32.49325 C6.82933303,32.4390831 6.78816678,32.3686671 6.7665,32.282 L6.2595,30.007 L2.4635,30.007 L1.3975,32.282 C1.35849981,32.3600004 1.29891707,32.4282497 1.21875,32.48675 C1.13858293,32.5452503 1.04866717,32.5745 0.949,32.5745 L0,32.5745 L4.5695,23.26 L5.798,23.26 L8.0795,32.5745 Z M2.873,29.123 L6.0645,29.123 L5.2065,25.2685 C5.18049987,25.1558328 5.15233348,25.0280007 5.122,24.885 C5.09166652,24.7419993 5.06566678,24.5881675 5.044,24.4235 C4.98333303,24.5881675 4.92158365,24.7430826 4.85875,24.88825 C4.79591635,25.0334174 4.73633361,25.1623328 4.68,25.275 L2.873,29.123 Z M13.754,32.5745 L13.156,32.5745 C13.0043326,32.5745 12.9014169,32.5355004 12.84725,32.4575 C12.7930831,32.3794996 12.766,32.2841672 12.766,32.1715 L12.883,30.839 C12.7269992,31.1163347 12.5590842,31.3676655 12.37925,31.593 C12.1994158,31.8183345 12.008751,32.0100825 11.80725,32.16825 C11.605749,32.3264175 11.3945011,32.4488329 11.1735,32.5355 C10.9524989,32.6221671 10.7228345,32.6655 10.4845,32.6655 C10.2244987,32.6655 9.9883344,32.6145838 9.776,32.51275 C9.56366561,32.4109162 9.38275075,32.2614177 9.23325,32.06425 C9.08374925,31.8670823 8.96783375,31.6244181 8.8855,31.33625 C8.80316626,31.0480819 8.762,30.7176685 8.762,30.345 C8.762,29.9549981 8.81074951,29.5747519 8.90825,29.20425 C9.00575049,28.8337481 9.14441577,28.483835 9.32425,28.1545 C9.50408423,27.825165 9.71966541,27.522918 9.971,27.24775 C10.2223346,26.972582 10.5029151,26.734251 10.81275,26.53275 C11.1225849,26.331249 11.4551649,26.1752506 11.8105,26.06475 C12.1658351,25.9542494 12.5384981,25.899 12.9285,25.899 C13.2101681,25.899 13.4842487,25.9217498 13.75075,25.96725 C14.0172513,26.0127502 14.2804987,26.0918328 14.5405,26.2045 L13.754,32.5745 Z M10.92,31.7035 C11.1323344,31.7035 11.3403323,31.6374173 11.544,31.50525 C11.7476677,31.3730827 11.9404991,31.1900012 12.1225,30.956 C12.3045009,30.7219988 12.4745825,30.4435849 12.63275,30.12075 C12.7909175,29.7979151 12.9306661,29.4436686 13.052,29.058 L13.3315,26.796 C13.2361662,26.7743332 13.1419171,26.76025 13.04875,26.75375 C12.9555829,26.74725 12.8635005,26.744 12.7725,26.744 C12.5124987,26.744 12.2611679,26.7862496 12.0185,26.87075 C11.7758321,26.9552504 11.5483344,27.0733326 11.336,27.225 C11.1236656,27.3766674 10.9308342,27.5575823 10.7575,27.76775 C10.5841658,27.9779177 10.4357506,28.2086654 10.31225,28.46 C10.1887494,28.7113346 10.0923337,28.9789152 10.023,29.26275 C9.95366632,29.5465848 9.919,29.8379985 9.919,30.137 C9.919,31.1813386 10.2526633,31.7035 10.92,31.7035 Z M15.4765,32.5745 L16.263,25.9835 L16.8415,25.9835 C17.1015013,25.9835 17.2315,26.1134987 17.2315,26.3735 L17.134,27.6475 C17.4850018,27.0668304 17.8804145,26.6291681 18.32025,26.3345 C18.7600855,26.0398319 19.2161643,25.8925 19.6885,25.8925 C20.1781691,25.8925 20.5584153,26.057165 20.82925,26.3865 C21.1000847,26.715835 21.2355,27.1968302 21.2355,27.8295 C21.2355,27.9161671 21.2333334,28.0049995 21.229,28.096 C21.2246666,28.1870005 21.2160001,28.2823328 21.203,28.382 L20.709,32.5745 L19.552,32.5745 L20.046,28.382 C20.0546667,28.2953329 20.06225,28.2119171 20.06875,28.13175 C20.07525,28.0515829 20.0785,27.974667 20.0785,27.901 C20.0785,27.5456649 20.0124173,27.2824175 19.88025,27.11125 C19.7480827,26.9400825 19.5411681,26.8545 19.2595,26.8545 C19.051499,26.8545 18.8402511,26.9108328 18.62575,27.0235 C18.4112489,27.1361672 18.2043343,27.2954156 18.005,27.50125 C17.8056657,27.7070844 17.6204175,27.9562485 17.44925,28.24875 C17.2780825,28.5412515 17.1318339,28.8673315 17.0105,29.227 L16.6335,32.5745 L15.4765,32.5745 Z M22.139,25.99 L23.075,25.99 C23.1616671,25.99 23.2309997,26.0138331 23.283,26.0615 C23.3350003,26.1091669 23.3674999,26.1654997 23.3805,26.2305 L24.362,30.4685 C24.3966668,30.6288341 24.4215833,30.7891659 24.43675,30.9495 C24.4519167,31.1098341 24.4638333,31.2679992 24.4725,31.424 C24.5201669,31.2679992 24.5699997,31.1109175 24.622,30.95275 C24.6740003,30.7945825 24.7389996,30.6331675 24.817,30.4685 L26.858,26.2305 C26.8926668,26.1611663 26.940333,26.1037502 27.001,26.05825 C27.061667,26.0127498 27.128833,25.99 27.2025,25.99 L28.106,25.99 L24.804,32.5745 L23.8355,32.5745 L22.139,25.99 Z M28.301,32.5745 L29.094,25.9835 L29.6725,25.9835 C29.7938339,25.9835 29.8891663,26.0116664 29.9585,26.068 C30.0278337,26.1243336 30.0625,26.2109994 30.0625,26.328 C30.0625,26.3453334 30.0614167,26.3702498 30.05925,26.40275 C30.0570833,26.4352502 30.0549167,26.4688332 30.05275,26.5035 C30.0505833,26.5381668 30.0484167,26.5684999 30.04625,26.5945 C30.0440833,26.6205001 30.043,26.6356666 30.043,26.64 L29.952,27.836 C30.2336681,27.2293303 30.5489149,26.761335 30.89775,26.432 C31.2465851,26.102665 31.6138314,25.938 31.9995,25.938 C32.1815009,25.938 32.3634991,25.9769996 32.5455,26.055 L32.3375,27.1665 C32.1338323,27.0841663 31.9366676,27.043 31.746,27.043 C31.3256646,27.043 30.950835,27.247748 30.6215,27.65725 C30.292165,28.066752 30.0170011,28.6874958 29.796,29.5195 L29.432,32.5745 L28.301,32.5745 Z M37.4465,32.5745 L36.8485,32.5745 C36.6968326,32.5745 36.5939169,32.5355004 36.53975,32.4575 C36.4855831,32.3794996 36.4585,32.2841672 36.4585,32.1715 L36.5755,30.839 C36.4194992,31.1163347 36.2515842,31.3676655 36.07175,31.593 C35.8919158,31.8183345 35.701251,32.0100825 35.49975,32.16825 C35.298249,32.3264175 35.0870011,32.4488329 34.866,32.5355 C34.6449989,32.6221671 34.4153345,32.6655 34.177,32.6655 C33.9169987,32.6655 33.6808344,32.6145838 33.4685,32.51275 C33.2561656,32.4109162 33.0752507,32.2614177 32.92575,32.06425 C32.7762493,31.8670823 32.6603337,31.6244181 32.578,31.33625 C32.4956663,31.0480819 32.4545,30.7176685 32.4545,30.345 C32.4545,29.9549981 32.5032495,29.5747519 32.60075,29.20425 C32.6982505,28.8337481 32.8369158,28.483835 33.01675,28.1545 C33.1965842,27.825165 33.4121654,27.522918 33.6635,27.24775 C33.9148346,26.972582 34.1954151,26.734251 34.50525,26.53275 C34.8150849,26.331249 35.1476649,26.1752506 35.503,26.06475 C35.8583351,25.9542494 36.2309981,25.899 36.621,25.899 C36.9026681,25.899 37.1767487,25.9217498 37.44325,25.96725 C37.7097513,26.0127502 37.9729987,26.0918328 38.233,26.2045 L37.4465,32.5745 Z M34.6125,31.7035 C34.8248344,31.7035 35.0328323,31.6374173 35.2365,31.50525 C35.4401677,31.3730827 35.6329991,31.1900012 35.815,30.956 C35.9970009,30.7219988 36.1670825,30.4435849 36.32525,30.12075 C36.4834175,29.7979151 36.6231661,29.4436686 36.7445,29.058 L37.024,26.796 C36.9286662,26.7743332 36.8344171,26.76025 36.74125,26.75375 C36.6480829,26.74725 36.5560005,26.744 36.465,26.744 C36.2049987,26.744 35.9536679,26.7862496 35.711,26.87075 C35.4683321,26.9552504 35.2408344,27.0733326 35.0285,27.225 C34.8161656,27.3766674 34.6233342,27.5575823 34.45,27.76775 C34.2766658,27.9779177 34.1282506,28.2086654 34.00475,28.46 C33.8812494,28.7113346 33.7848337,28.9789152 33.7155,29.26275 C33.6461663,29.5465848 33.6115,29.8379985 33.6115,30.137 C33.6115,31.1813386 33.9451633,31.7035 34.6125,31.7035 Z M44.0115,32.5745 L43.4135,32.5745 C43.2618326,32.5745 43.1589169,32.5355004 43.10475,32.4575 C43.0505831,32.3794996 43.0235,32.2841672 43.0235,32.1715 L43.1405,30.839 C42.9844992,31.1163347 42.8165842,31.3676655 42.63675,31.593 C42.4569158,31.8183345 42.266251,32.0100825 42.06475,32.16825 C41.863249,32.3264175 41.6520011,32.4488329 41.431,32.5355 C41.2099989,32.6221671 40.9803345,32.6655 40.742,32.6655 C40.4819987,32.6655 40.2458344,32.6145838 40.0335,32.51275 C39.8211656,32.4109162 39.6402507,32.2614177 39.49075,32.06425 C39.3412493,31.8670823 39.2253337,31.6244181 39.143,31.33625 C39.0606663,31.0480819 39.0195,30.7176685 39.0195,30.345 C39.0195,29.9549981 39.0682495,29.5747519 39.16575,29.20425 C39.2632505,28.8337481 39.4019158,28.483835 39.58175,28.1545 C39.7615842,27.825165 39.9771654,27.522918 40.2285,27.24775 C40.4798346,26.972582 40.7604151,26.734251 41.07025,26.53275 C41.3800849,26.331249 41.7126649,26.1752506 42.068,26.06475 C42.4233351,25.9542494 42.7959981,25.899 43.186,25.899 C43.4676681,25.899 43.7417487,25.9217498 44.00825,25.96725 C44.2747513,26.0127502 44.5379987,26.0918328 44.798,26.2045 L44.0115,32.5745 Z M41.1775,31.7035 C41.3898344,31.7035 41.5978323,31.6374173 41.8015,31.50525 C42.0051677,31.3730827 42.1979991,31.1900012 42.38,30.956 C42.5620009,30.7219988 42.7320825,30.4435849 42.89025,30.12075 C43.0484175,29.7979151 43.1881661,29.4436686 43.3095,29.058 L43.589,26.796 C43.4936662,26.7743332 43.3994171,26.76025 43.30625,26.75375 C43.2130829,26.74725 43.1210005,26.744 43.03,26.744 C42.7699987,26.744 42.5186679,26.7862496 42.276,26.87075 C42.0333321,26.9552504 41.8058344,27.0733326 41.5935,27.225 C41.3811656,27.3766674 41.1883342,27.5575823 41.015,27.76775 C40.8416658,27.9779177 40.6932506,28.2086654 40.56975,28.46 C40.4462494,28.7113346 40.3498337,28.9789152 40.2805,29.26275 C40.2111663,29.5465848 40.1765,29.8379985 40.1765,30.137 C40.1765,31.1813386 40.5101633,31.7035 41.1775,31.7035 Z M50.5765,27.8165 C50.5721666,28.0331678 50.5450836,28.2281658 50.49525,28.4015 C50.4454164,28.5748342 50.383667,28.7351659 50.31,28.8825 C50.236333,29.0298341 50.1561671,29.1684993 50.0695,29.2985 C49.9828329,29.4285006 49.902667,29.5584993 49.829,29.6885 C49.755333,29.8185006 49.6935836,29.9517493 49.64375,30.08825 C49.5939164,30.2247507 49.569,30.3731659 49.569,30.5335 C49.569,30.7155009 49.6134162,30.8801659 49.70225,31.0275 C49.7910838,31.1748341 49.8885828,31.3264992 49.99475,31.4825 C50.1009172,31.6385008 50.1984162,31.8085824 50.28725,31.99275 C50.3760838,32.1769176 50.4205,32.3946654 50.4205,32.646 C50.4205,32.9536682 50.3490007,33.245082 50.206,33.52025 C50.0629993,33.795418 49.8593347,34.0391656 49.595,34.2515 C49.3306653,34.4638344 49.0089186,34.6317494 48.62975,34.75525 C48.2505814,34.8787506 47.8248357,34.9405 47.3525,34.9405 C46.9754981,34.9405 46.6320849,34.9015004 46.32225,34.8235 C46.0124151,34.7454996 45.7480844,34.6350007 45.52925,34.492 C45.3104156,34.3489993 45.1414173,34.176751 45.02225,33.97525 C44.9030827,33.773749 44.8435,33.5516679 44.8435,33.309 C44.8435,32.966665 44.9323324,32.6720012 45.11,32.425 C45.2876676,32.1779988 45.5216652,31.9743341 45.812,31.814 C46.1023348,31.6536659 46.4327481,31.536667 46.80325,31.463 C47.1737519,31.389333 47.5518314,31.3525 47.9375,31.3525 C48.0935008,31.3525 48.2484159,31.3589999 48.40225,31.372 C48.5560841,31.3850001 48.7088326,31.4023332 48.8605,31.424 C48.8214998,31.3416663 48.7900835,31.2560838 48.76625,31.16725 C48.7424165,31.0784162 48.7305,30.9820005 48.7305,30.878 C48.7305,30.743666 48.7510831,30.6050007 48.79225,30.462 C48.8334169,30.3189993 48.9016662,30.1586676 48.997,29.981 C48.8323325,30.0936672 48.6481677,30.180333 48.4445,30.241 C48.2408323,30.301667 48.0090013,30.332 47.749,30.332 C47.4976654,30.332 47.2625844,30.2908337 47.04375,30.2085 C46.8249156,30.1261663 46.6331675,30.0048341 46.4685,29.8445 C46.3038325,29.6841659 46.1738338,29.4837512 46.0785,29.24325 C45.9831662,29.0027488 45.9355,28.7221683 45.9355,28.4015 C45.9355,28.0894984 45.9929161,27.7829182 46.10775,27.48175 C46.2225839,27.1805818 46.3904989,26.9119178 46.6115,26.67575 C46.8325011,26.4395822 47.1054984,26.2500007 47.4305,26.107 C47.7555016,25.9639993 48.1303312,25.8925 48.555,25.8925 C49.0316691,25.8925 49.4454982,26.0051655 49.7965,26.2305 L51.584,26.2305 L51.532,26.614 C51.5233333,26.687667 51.4984169,26.754833 51.45725,26.8155 C51.4160831,26.876167 51.3543337,26.9129999 51.272,26.926 L50.453,27.069 C50.4920002,27.1816672 50.5223332,27.2997494 50.544,27.42325 C50.5656668,27.5467506 50.5765,27.6778326 50.5765,27.8165 Z M48.0675,29.604 C48.3015012,29.604 48.5073324,29.5530838 48.685,29.45125 C48.8626676,29.3494162 49.0132494,29.2150842 49.13675,29.04825 C49.2602506,28.8814158 49.3544997,28.694001 49.4195,28.486 C49.4845003,28.277999 49.517,28.0678344 49.517,27.8555 C49.517,27.4741648 49.4205843,27.186001 49.22775,26.991 C49.0349157,26.795999 48.7695017,26.6985 48.4315,26.6985 C48.1974988,26.6985 47.9916676,26.7461662 47.814,26.8415 C47.6363324,26.9368338 47.4868339,27.0646659 47.3655,27.225 C47.2441661,27.3853341 47.1520836,27.5673323 47.08925,27.771 C47.0264164,27.9746677 46.995,28.1869989 46.995,28.408 C46.995,28.798002 47.0892491,29.0948323 47.27775,29.2985 C47.4662509,29.5021677 47.7294983,29.604 48.0675,29.604 Z M49.3675,32.737 C49.3675,32.6243328 49.3566668,32.5192505 49.335,32.42175 C49.3133332,32.3242495 49.2851668,32.2321671 49.2505,32.1455 C49.0164988,32.1064998 48.7965844,32.0783334 48.59075,32.061 C48.3849156,32.0436666 48.1910009,32.035 48.009,32.035 C47.6536649,32.035 47.3460013,32.0664164 47.086,32.12925 C46.8259987,32.1920836 46.6115008,32.2754995 46.4425,32.3795 C46.2734992,32.4835005 46.1478337,32.6037493 46.0655,32.74025 C45.9831663,32.8767507 45.942,33.0186659 45.942,33.166 C45.942,33.4780016 46.073082,33.7163325 46.33525,33.881 C46.597418,34.0456675 46.9689976,34.128 47.45,34.128 C47.7360014,34.128 47.9970822,34.0900837 48.23325,34.01425 C48.4694178,33.9384163 48.6709158,33.8376673 48.83775,33.712 C49.0045842,33.5863327 49.1345829,33.4390008 49.22775,33.27 C49.3209171,33.1009992 49.3675,32.9233343 49.3675,32.737 Z M53.742,26.952 L53.0855,32.36 L52.7865,33.7055 C52.712833,34.0305016 52.5135016,34.193 52.1885,34.193 L51.7335,34.193 L52.611,26.9715 L51.961,26.887 C51.887333,26.8653332 51.8288336,26.8350002 51.7855,26.796 C51.7421665,26.7569998 51.7205,26.700667 51.7205,26.627 L51.7725,26.12 L52.715,26.12 L52.793,25.483 C52.8406669,25.1059981 52.934916,24.7712515 53.07575,24.47875 C53.216584,24.1862485 53.3942489,23.939251 53.60875,23.73775 C53.8232511,23.536249 54.068082,23.3835005 54.34325,23.2795 C54.618418,23.1754995 54.9141651,23.1235 55.2305,23.1235 C55.499168,23.1235 55.7439989,23.1668329 55.965,23.2535 L55.8545,23.8515 C55.8458333,23.912167 55.8165836,23.9500833 55.76675,23.96525 C55.7169164,23.9804167 55.6530004,23.988 55.575,23.988 C55.5359998,23.988 55.4937502,23.9869167 55.44825,23.98475 C55.4027498,23.9825833 55.3540003,23.9815 55.302,23.9815 C55.1156657,23.9815 54.9434175,24.0085831 54.78525,24.06275 C54.6270825,24.1169169 54.4873339,24.2046661 54.366,24.326 C54.2446661,24.4473339 54.1428337,24.605499 54.0605,24.8005 C53.9781663,24.995501 53.9196668,25.2338319 53.885,25.5155 L53.807,26.12 L55.4515,26.12 L55.341,26.952 L53.742,26.952 Z M58.1555,31.762 C58.4718349,31.762 58.7599987,31.6753342 59.02,31.502 C59.2800013,31.3286658 59.5009991,31.0979181 59.683,30.80975 C59.8650009,30.5215819 60.0058328,30.1890019 60.1055,29.812 C60.2051672,29.4349981 60.255,29.0406687 60.255,28.629 C60.255,28.0223303 60.1358345,27.5651682 59.8975,27.2575 C59.6591655,26.9498318 59.3146689,26.796 58.864,26.796 C58.5433317,26.796 58.2540846,26.8815825 57.99625,27.05275 C57.7384154,27.2239175 57.5185009,27.4535819 57.3365,27.74175 C57.1544991,28.0299181 57.0136672,28.3624981 56.914,28.7395 C56.8143328,29.1165019 56.7645,29.5108313 56.7645,29.9225 C56.7645,30.5291697 56.8825822,30.9874151 57.11875,31.29725 C57.3549178,31.6070849 57.7004977,31.762 58.1555,31.762 Z M58.0515,32.6655 C57.6918315,32.6655 57.3625015,32.6037506 57.0635,32.48025 C56.7644985,32.3567494 56.5066678,32.1780012 56.29,31.944 C56.0733323,31.7099988 55.9043339,31.4240017 55.783,31.086 C55.6616661,30.7479983 55.601,30.3623355 55.601,29.929 C55.601,29.3743306 55.6876658,28.8521691 55.861,28.3625 C56.0343342,27.8728309 56.2715818,27.4438352 56.57275,27.0755 C56.8739182,26.7071648 57.229248,26.4168344 57.63875,26.2045 C58.048252,25.9921656 58.491331,25.886 58.968,25.886 C59.3276685,25.886 59.6569985,25.9477494 59.956,26.07125 C60.2550015,26.1947506 60.5128323,26.3734988 60.7295,26.6075 C60.9461678,26.8415012 61.1151661,27.1285816 61.2365,27.46875 C61.3578339,27.8089184 61.4185,28.1934979 61.4185,28.6225 C61.4185,29.1728361 61.3318342,29.6928309 61.1585,30.1825 C60.9851658,30.6721691 60.7479182,31.1011648 60.44675,31.4695 C60.1455818,31.8378352 59.7891687,32.1292489 59.3775,32.34375 C58.9658313,32.5582511 58.5238357,32.6655 58.0515,32.6655 Z M62.2375,32.5745 L63.0305,25.9835 L63.609,25.9835 C63.7303339,25.9835 63.8256663,26.0116664 63.895,26.068 C63.9643337,26.1243336 63.999,26.2109994 63.999,26.328 C63.999,26.3453334 63.9979167,26.3702498 63.99575,26.40275 C63.9935833,26.4352502 63.9914167,26.4688332 63.98925,26.5035 C63.9870833,26.5381668 63.9849167,26.5684999 63.98275,26.5945 C63.9805833,26.6205001 63.9795,26.6356666 63.9795,26.64 L63.8885,27.836 C64.1701681,27.2293303 64.4854149,26.761335 64.83425,26.432 C65.1830851,26.102665 65.5503314,25.938 65.936,25.938 C66.1180009,25.938 66.2999991,25.9769996 66.482,26.055 L66.274,27.1665 C66.0703323,27.0841663 65.8731676,27.043 65.6825,27.043 C65.2621646,27.043 64.887335,27.247748 64.558,27.65725 C64.228665,28.066752 63.9535011,28.6874958 63.7325,29.5195 L63.3685,32.5745 L62.2375,32.5745 Z M66.8005,32.5745 L67.5935,25.9835 L68.172,25.9835 C68.4320013,25.9835 68.562,26.1134987 68.562,26.3735 L68.471,27.55 C68.7960016,27.0039973 69.1513314,26.5912514 69.537,26.31175 C69.9226686,26.0322486 70.3299979,25.8925 70.759,25.8925 C71.2053356,25.8925 71.5346656,26.0452485 71.747,26.35075 C71.9593344,26.6562515 72.0655,27.0928305 72.0655,27.6605 C72.394835,27.0581637 72.764248,26.6129181 73.17375,26.32475 C73.583252,26.0365819 74.0133311,25.8925 74.464,25.8925 C74.9493358,25.8925 75.3122488,26.0506651 75.55275,26.367 C75.7932512,26.6833349 75.9135,27.1383304 75.9135,27.732 C75.9135,27.8316672 75.9091667,27.9356661 75.9005,28.044 C75.8918333,28.1523339 75.8810001,28.2649994 75.868,28.382 L75.374,32.5745 L74.2365,32.5745 L74.7305,28.382 C74.7565001,28.1696656 74.7695,27.9768342 74.7695,27.8035 C74.7695,27.4784984 74.7153339,27.2390841 74.607,27.08525 C74.4986661,26.9314159 74.3166679,26.8545 74.061,26.8545 C73.8746657,26.8545 73.6883343,26.9010829 73.502,26.99425 C73.3156657,27.0874171 73.1358342,27.2239158 72.9625,27.40375 C72.7891658,27.5835842 72.6277507,27.8067487 72.47825,28.07325 C72.3287493,28.3397513 72.1955006,28.6463316 72.0785,28.993 L71.656,32.5745 L70.512,32.5745 L71.0125,28.382 C71.0255001,28.2649994 71.0363333,28.1545005 71.045,28.0505 C71.0536667,27.9464995 71.058,27.8490005 71.058,27.758 C71.058,27.4503318 71.0070838,27.2228341 70.90525,27.0755 C70.8034162,26.9281659 70.6246679,26.8545 70.369,26.8545 C70.160999,26.8545 69.9605843,26.9064995 69.76775,27.0105 C69.5749157,27.1145005 69.3929175,27.2650823 69.22175,27.46225 C69.0505825,27.6594177 68.8913341,27.8999152 68.744,28.18375 C68.5966659,28.4675848 68.4623339,28.7871649 68.341,29.1425 L67.9315,32.5745 L66.8005,32.5745 Z M78.8255,25.99 L78.3315,30.176 C78.3228333,30.2626671 78.31525,30.3449996 78.30875,30.423 C78.30225,30.5010004 78.299,30.576833 78.299,30.6505 C78.299,31.0058351 78.3650827,31.2701658 78.49725,31.4435 C78.6294173,31.6168342 78.8384986,31.7035 79.1245,31.7035 C79.3238343,31.7035 79.5285823,31.6493339 79.73875,31.541 C79.9489177,31.4326661 80.1525823,31.2788343 80.34975,31.0795 C80.5469177,30.8801657 80.7299992,30.6396681 80.899,30.358 C81.0680008,30.0763319 81.2153327,29.7621684 81.341,29.4155 L81.7505,25.99 L82.901,25.99 L82.108,32.5745 L81.536,32.5745 C81.401666,32.5745 81.297667,32.544167 81.224,32.4835 C81.150333,32.422833 81.1135,32.3296673 81.1135,32.204 C81.1135,32.1996666 81.1156666,32.160667 81.12,32.087 C81.1243334,32.013333 81.12975,31.9331671 81.13625,31.8465 C81.14275,31.7598329 81.14925,31.679667 81.15575,31.606 C81.16225,31.532333 81.1655,31.4933334 81.1655,31.489 L81.211,30.9625 C80.8599982,31.5215028 80.4678355,31.9450819 80.0345,32.23325 C79.6011645,32.5214181 79.1548356,32.6655 78.6955,32.6655 C78.2058309,32.6655 77.8255847,32.4986683 77.55475,32.165 C77.2839153,31.8313317 77.1485,31.3525031 77.1485,30.7285 C77.1485,30.6418329 77.1506666,30.5530005 77.155,30.462 C77.1593334,30.3709995 77.1679999,30.2756672 77.181,30.176 L77.675,25.99 L78.8255,25.99 Z M83.9215,32.5745 L85.085,23 L86.2225,23 L85.059,32.5745 L83.9215,32.5745 Z M88.985,25.99 L88.192,32.5745 L87.0545,32.5745 L87.8475,25.99 L88.985,25.99 Z M89.4205,23.923 C89.4205,24.0356672 89.3977502,24.1407495 89.35225,24.23825 C89.3067498,24.3357505 89.2460837,24.4224163 89.17025,24.49825 C89.0944163,24.5740837 89.0088338,24.6336665 88.9135,24.677 C88.8181662,24.7203336 88.7185005,24.742 88.6145,24.742 C88.5148328,24.742 88.4173338,24.7203336 88.322,24.677 C88.2266662,24.6336665 88.1432504,24.5740837 88.07175,24.49825 C88.0002496,24.4224163 87.9428336,24.3357505 87.8995,24.23825 C87.8561665,24.1407495 87.8345,24.0356672 87.8345,23.923 C87.8345,23.8103328 87.8561665,23.7041672 87.8995,23.6045 C87.9428336,23.5048328 88.001333,23.4170837 88.075,23.34125 C88.148667,23.2654163 88.2331662,23.2047502 88.3285,23.15925 C88.4238338,23.1137498 88.5213328,23.091 88.621,23.091 C88.7250005,23.091 88.8246662,23.1126665 88.92,23.156 C89.0153338,23.1993336 89.1009163,23.2589163 89.17675,23.33475 C89.2525837,23.4105837 89.3121665,23.4994162 89.3555,23.60125 C89.3988336,23.7030838 89.4205,23.8103328 89.4205,23.923 Z M95.329,27.4005 C95.329,27.6865014 95.2705006,27.9497488 95.1535,28.19025 C95.0364994,28.4307512 94.8220016,28.6474157 94.51,28.84025 C94.1979984,29.0330843 93.7690027,29.2009993 93.223,29.344 C92.6769973,29.4870007 91.9750043,29.6018329 91.117,29.6885 C91.1126666,29.7361669 91.1105,29.7827498 91.1105,29.82825 L91.1105,29.968 C91.1105,30.5486696 91.2372487,30.9917485 91.49075,31.29725 C91.7442513,31.6027515 92.1266641,31.7555 92.638,31.7555 C92.846001,31.7555 93.0312492,31.7338335 93.19375,31.6905 C93.3562508,31.6471664 93.501416,31.5940836 93.62925,31.53125 C93.757084,31.4684164 93.8697495,31.3990837 93.96725,31.32325 C94.0647505,31.2474163 94.1546663,31.1780836 94.237,31.11525 C94.3193337,31.0524164 94.3951663,30.9993336 94.4645,30.956 C94.5338337,30.9126665 94.6031663,30.891 94.6725,30.891 C94.7505004,30.891 94.8219997,30.927833 94.887,31.0015 L95.173,31.359 C94.9519989,31.5886678 94.7364177,31.7847492 94.52625,31.94725 C94.3160823,32.1097508 94.1005011,32.2451661 93.8795,32.3535 C93.6584989,32.4618339 93.4277512,32.5409164 93.18725,32.59075 C92.9467488,32.6405836 92.6878347,32.6655 92.4105,32.6655 C92.0334981,32.6655 91.6955015,32.6026673 91.3965,32.477 C91.0974985,32.3513327 90.844001,32.1725845 90.636,31.94075 C90.427999,31.7089155 90.2676672,31.428335 90.155,31.099 C90.0423328,30.769665 89.986,30.4013354 89.986,29.994 C89.986,29.6559983 90.0217496,29.319085 90.09325,28.98325 C90.1647504,28.647415 90.2687493,28.3278348 90.40525,28.0245 C90.5417507,27.7211651 90.7085823,27.4395013 90.90575,27.1795 C91.1029177,26.9194987 91.3282487,26.6952509 91.58175,26.50675 C91.8352513,26.3182491 92.1147485,26.1698339 92.42025,26.0615 C92.7257515,25.9531661 93.0539982,25.899 93.405,25.899 C93.7386683,25.899 94.0268321,25.9466662 94.2695,26.042 C94.5121679,26.1373338 94.7114992,26.2586659 94.8675,26.406 C95.0235008,26.5533341 95.1394163,26.7158324 95.21525,26.8935 C95.2910837,27.0711676 95.329,27.2401659 95.329,27.4005 Z M93.34,26.731 C93.0669986,26.731 92.8156678,26.7873328 92.586,26.9 C92.3563322,27.0126672 92.1526676,27.1675823 91.975,27.36475 C91.7973324,27.5619177 91.6456673,27.7937487 91.52,28.06025 C91.3943327,28.3267513 91.2968337,28.6138318 91.2275,28.9215 C91.8948367,28.8391663 92.429998,28.7449172 92.833,28.63875 C93.236002,28.5325828 93.5458323,28.4177506 93.7625,28.29425 C93.9791678,28.1707494 94.1221663,28.0375007 94.1915,27.8945 C94.2608337,27.7514993 94.2955,27.6020008 94.2955,27.446 C94.2955,27.3679996 94.2781668,27.2867504 94.2435,27.20225 C94.2088332,27.1177496 94.1535837,27.0408337 94.07775,26.9715 C94.0019163,26.9021663 93.9033339,26.8447502 93.782,26.79925 C93.6606661,26.7537498 93.5133342,26.731 93.34,26.731 Z M96.057,32.5745 L96.85,25.9835 L97.4285,25.9835 C97.5498339,25.9835 97.6451663,26.0116664 97.7145,26.068 C97.7838337,26.1243336 97.8185,26.2109994 97.8185,26.328 C97.8185,26.3453334 97.8174167,26.3702498 97.81525,26.40275 C97.8130833,26.4352502 97.8109167,26.4688332 97.80875,26.5035 C97.8065833,26.5381668 97.8044167,26.5684999 97.80225,26.5945 C97.8000833,26.6205001 97.799,26.6356666 97.799,26.64 L97.708,27.836 C97.9896681,27.2293303 98.3049149,26.761335 98.65375,26.432 C99.0025851,26.102665 99.3698314,25.938 99.7555,25.938 C99.9375009,25.938 100.119499,25.9769996 100.3015,26.055 L100.0935,27.1665 C99.8898323,27.0841663 99.6926676,27.043 99.502,27.043 C99.0816646,27.043 98.706835,27.247748 98.3775,27.65725 C98.048165,28.066752 97.7730011,28.6874958 97.552,29.5195 L97.188,32.5745 L96.057,32.5745 Z" id="Aanvraagformulier"></path>
                </g>
            </g>
        </g>
    </g>
</svg>