<?xml version="1.0" encoding="UTF-8"?>
<svg width="512px" height="460px" viewBox="0 0 512 460" version="1.1" xmlns="http://www.w3.org/2000/svg" xmlns:xlink="http://www.w3.org/1999/xlink">
    <!-- Generator: Sketch 53 (72520) - https://sketchapp.com -->
    <title>machu-picchu</title>
    <desc>Created with Sketch.</desc>
    <g id="Page-1" stroke="none" stroke-width="1" fill="none" fill-rule="evenodd">
        <g id="machu-picchu" transform="translate(0.000000, -1.000000)" fill="#404348" fill-rule="nonzero">
            <path d="M492,401.001 L490.301,401.001 L443.335,150.09 C442.726,146.835 440.545,144.092 437.51,142.767 L384.896,119.774 L366.342,17.689 C365.61,13.66 362.495,10.485 358.482,9.675 L316.482,1.198 C311.07,0.105 305.794,3.608 304.701,9.022 C303.608,14.436 307.111,19.71 312.525,20.803 L347.878,27.938 L366.173,128.595 C366.174,128.602 366.176,128.61 366.177,128.617 L372.665,164.314 C373.543,169.144 377.752,172.528 382.492,172.528 C383.085,172.528 383.688,172.475 384.292,172.365 C389.726,171.377 393.331,166.172 392.343,160.738 L389.207,143.484 L424.652,158.974 L469.955,401.001 L440,401.001 L440,381.001 C440,369.973 431.028,361.001 420,361.001 L420,291.002 C420,285.479 415.523,281.002 410,281.002 L340.005,281.002 L340.005,210.999 C340.005,205.476 335.528,200.999 330.005,200.999 L300.004,200.999 L300.004,190.999 C300.004,185.476 295.527,180.999 290.004,180.999 L250.004,180.999 C244.481,180.999 240.004,185.476 240.004,190.999 L240.004,200.999 L220.003,200.999 L220.003,170.999 C220.003,165.476 215.526,160.999 210.003,160.999 L206.582,160.999 L229.205,118.097 L276.83,95.249 C281.809,92.86 283.91,86.887 281.52,81.907 C279.131,76.927 273.156,74.827 268.178,77.217 L217.574,101.494 C215.639,102.422 214.055,103.948 213.054,105.846 L183.97,161 L170.002,161 C164.479,161 160.002,165.477 160.002,171 L160.002,179.019 L103.176,197.563 C100.273,198.51 97.962,200.732 96.901,203.595 L83.041,241.001 L70,241.001 C64.477,241.001 60,245.478 60,251.001 L60,321.001 C48.972,321.001 40,329.973 40,341.001 L40,361.001 C28.972,361.001 20,369.973 20,381.001 L20,401.001 C8.972,401.001 8.52651283e-14,409.973 8.52651283e-14,421.001 L8.52651283e-14,451.001 C8.52651283e-14,456.524 4.477,461.001 10,461.001 L502,461.001 C507.523,461.001 512,456.524 512,451.001 L512,421.001 C512,409.973 503.028,401.001 492,401.001 Z M400,361.001 L370,361.001 L370,341.001 C370,329.973 361.028,321.001 350,321.001 L280.003,321.001 L280.003,301.002 L400,301.002 L400,361.001 Z M250.004,220.999 C255.527,220.999 260.004,216.522 260.004,210.999 L260.004,200.999 L280.004,200.999 L280.004,210.999 C280.004,216.522 284.481,220.999 290.004,220.999 L320.005,220.999 L320.005,281.002 L280.004,281.002 L280.004,251.001 C280.004,245.478 275.527,241.001 270.004,241.001 L230.004,241.001 C224.481,241.001 220.004,245.478 220.004,251.001 L220.004,261 L200.003,261 L200.003,251.001 C200.003,245.478 195.526,241.001 190.003,241.001 L180.003,241.001 L180.003,186.194 C180.003,186.165 180.003,186.137 180.003,186.108 L180.003,180.999 L200.003,180.999 L200.003,210.999 C200.003,216.522 204.48,220.999 210.003,220.999 L250.004,220.999 Z M113.976,215.076 L160.002,200.057 L160.002,241.001 L150.002,241.001 C144.479,241.001 140.002,245.478 140.002,251.001 L140.002,261 L120.001,261 L120.001,251.001 C120.001,245.478 115.524,241.001 110.001,241.001 L104.37,241.001 L113.976,215.076 Z M80,261.001 L100,261.001 L100,271 C100,276.523 104.477,281 110,281 L150.001,281 C155.524,281 160.001,276.523 160.001,271 L160.001,261.001 L180.001,261.001 L180.001,271 C180.001,276.523 184.478,281 190.001,281 L230.002,281 C235.525,281 240.002,276.523 240.002,271 L240.002,261.001 L260.002,261.001 L260.002,321.001 L80,321.001 L80,261.001 Z M60,341.001 L70,341.001 L350,341 L350,361 L60,361 L60,341.001 Z M40,381.001 L50,381.001 L420,381 L420,401 L40,401 L40,381.001 Z M492,441 L20,441 L20,421 L30,421 L492,421 L492,441 Z" id="Shape"></path>
            <path d="M293.511,58.617 C299.034,58.617 303.511,54.14 303.511,48.617 C303.511,43.094 299.034,38.617 293.511,38.617 L293.504,38.617 C287.981,38.617 283.508,43.094 283.508,48.617 C283.508,54.14 287.988,58.617 293.511,58.617 Z" id="Path"></path>
        </g>
    </g>
</svg>