<?xml version="1.0" encoding="UTF-8"?>
<svg width="777px" height="512px" viewBox="0 0 777 512" version="1.1" xmlns="http://www.w3.org/2000/svg" xmlns:xlink="http://www.w3.org/1999/xlink">
    <!-- Generator: Sketch 53 (72520) - https://sketchapp.com -->
    <title>Met-jezelf</title>
    <desc>Created with Sketch.</desc>
    <g id="Page-1" stroke="none" stroke-width="1" fill="none" fill-rule="evenodd">
        <g id="Met-jezelf" transform="translate(10.000000, 0.000000)">
            <g id="Group-2" transform="translate(98.000000, 0.000000)">
                <path d="M403.137207,46.8627931 C372.917481,16.6430662 332.736816,0 290,0 C257.48291,0 226.171875,9.7094725 199.458007,28.0761719 C196.613769,30.03418 195.056786,37.8821371 198.565583,41.615358 C202.074379,45.3485788 208.696289,45.3344725 211.540527,43.376465 C236.162109,26.4477537 260.021972,19.5 290,19.5 C366.330566,19.5 430.5,83.6694337 430.5,160 C430.5,236.330566 366.330566,300.5 290,300.5 C213.669434,300.5 149.5,236.330566 149.5,160 C149.5,130.01709 156.447754,105.159668 173.374024,80.5429687 C175.32959,77.6987306 173.787171,70.2582628 170.942933,68.3026966 C168.101136,66.3471303 160.031738,66.6162112 158.073731,69.4604494 C139.707031,96.1694337 130,127.478027 130,160 C130,202.736816 146.643066,242.917481 176.862793,273.137207 C207.082519,303.356934 247.263184,320 290,320 C332.736816,320 372.917481,303.356934 403.137207,273.137207 C433.356934,242.917481 450,202.736816 450,160 C450,117.263184 433.356934,77.0825194 403.137207,46.8627931 Z" id="Path" fill="#404348" fill-rule="nonzero"></path>
                <path d="M183.996827,64 C186.558889,64 189.120951,63.023438 191.073742,61.0703129 C194.975419,57.1679688 194.975419,50.8359377 191.073742,46.9296876 C187.16816,43.0234375 180.837211,43.0234375 176.931628,46.9296876 L176.927722,46.9335936 C173.02214,50.8398437 173.026046,57.1679688 176.927722,61.0742189 C178.880514,63.027344 181.43867,64 183.996827,64 Z" id="Path" fill="#404348" fill-rule="nonzero"></path>
                <path d="M235.85176,197.213625 C232.516911,198.112615 225.630022,201.590213 227.240326,206.913989 C234.781578,235.224798 261.393518,254.997661 290.525847,254.997661 C319.658176,254.997661 345.270115,235.227254 352.811368,206.913989 C353.992573,202.659449 349.057144,198.112615 345.722295,197.213625 C342.387445,196.314635 334.782703,198.213625 333.736575,203.659449 C325.936963,224.342461 312.025847,236.421629 290.525847,236.421629 C269.025847,236.421629 257.10677,226.996887 247.315118,203.659449 C244.876298,198.213625 239.184718,196.315145 235.85176,197.213625 Z" id="Path" fill="#404348" fill-rule="nonzero"></path>
                <path d="M212.213087,154.225337 C211.326076,157.51805 213.289131,161.904841 216.599665,162.787723 C219.912622,163.670604 225.312826,162.714274 226.197412,159.42156 C228.111996,152.315089 232.609464,148.35069 239.998788,148.35069 C247.390536,148.35069 250.888004,151.315089 252.802588,158.42156 C253.544186,161.178755 257.898739,163.663676 261.791116,163 C264.87457,162.47425 269.13565,159.42156 267.786913,154.225337 C264.423062,141.7275 252.996147,133 239.998788,133 C227.001429,133 215.576937,141.7275 212.213087,154.225337 Z" id="Path" fill="#404348" fill-rule="nonzero"></path>
                <path d="M312.213087,154.225337 C311.326076,157.51805 313.289131,161.904841 316.599665,162.787723 C319.912622,163.670604 325.312826,162.714274 326.197412,159.42156 C328.111996,152.315089 332.609464,148.35069 339.998788,148.35069 C347.390536,148.35069 350.888004,151.315089 352.802588,158.42156 C353.544186,161.178755 357.898739,163.663676 361.791116,163 C364.87457,162.47425 369.13565,159.42156 367.786913,154.225337 C364.423062,141.7275 352.996147,133 339.998788,133 C327.001429,133 315.576937,141.7275 312.213087,154.225337 Z" id="Path" fill="#404348" fill-rule="nonzero"></path>
                <path d="M186,274 C115.333333,308.065256 80,384.398589 80,503" id="Line-2" stroke="#404348" stroke-width="18" stroke-linecap="round"></path>
                <path d="M499,274 C428.333333,308.065256 393,384.398589 393,503" id="Line-2" stroke="#404348" stroke-width="18" stroke-linecap="round" transform="translate(446.000000, 388.500000) scale(-1, 1) translate(-446.000000, -388.500000) "></path>
                <g transform="translate(0.000000, 100.000000)">
                    <g id="happy" transform="translate(40.059642, 1.000000)" fill="#404348" fill-rule="nonzero">
                        <path d="M100.385837,2.04038158 C84.4072933,5.55870086 69.3281455,12.0897244 55.6492585,21.494428 C53.3704753,23.0631701 52.1230314,29.3508971 54.9342541,32.3419269 C57.7454767,35.3329568 63.0509033,35.3216549 65.329687,33.7529133 C75.1522993,26.9993194 84.7386346,22.2590564 94.9391371,19.1708374 C97.5343992,18.3851175 91.4849173,38.2093853 94.9391371,70.9553118 C96.6726893,87.3893478 104.167692,106.790531 109.577006,129.052494 C112.049525,139.228115 121.244309,152.363994 137.161359,168.460133 C97.8803635,208.040656 76.6024879,226.896504 73.3277321,225.027678 C39.0994956,205.494431 15.6232604,168.615711 15.6232604,127.190855 C15.6232604,103.168762 21.189751,83.2531735 34.7509574,63.5304501 C36.3177431,61.2516669 35.0819681,55.2904173 32.8031848,53.7236316 C30.5263575,52.156846 24.0612136,52.3724317 22.4924721,54.6512149 C7.77720396,76.050262 0,101.134483 0,127.190855 C0,161.431286 13.3343056,193.623747 37.5461345,217.835575 C45.9487503,226.238191 54.8941723,233.110733 64.9712002,238.790463 C67.3005818,240.103376 77.2543012,242.591 79.7043913,237 C83.2497348,228.909678 107.348271,206.063056 152,168.460133 C133.491068,151.956399 122.86192,138.82052 120.112558,129.052494 C114.505989,109.133292 106.334473,88.8830187 105.077395,70.9553118 C103.100283,42.7588846 110.158364,19.5941916 109.577006,7.04965458 C109.050782,-4.305188 101.490565,1.79713122 100.385837,2.04038158 Z" id="Path"></path>
                        <path d="M43.2618712,50.2763419 C45.314577,50.2763419 47.3672828,49.4939274 48.9318451,47.9290976 C52.0578409,44.8025675 52.0578409,39.7293894 48.9318451,36.5997298 C45.8027204,33.4700702 40.7304095,33.4700702 37.6012848,36.5997298 L37.5981551,36.6028593 C34.4690304,39.7325189 34.4721601,44.8025675 37.5981551,47.9322271 C39.1627183,49.4970569 41.2122943,50.2763419 43.2618712,50.2763419 Z" id="Path"></path>
                    </g>
                    <path d="M84.9264414,219.526839 C28.3088138,246.819678 0,307.977398 0,403" id="Line-2" stroke="#404348" stroke-width="18" stroke-linecap="round"></path>
                    <g transform="translate(437.000000, 0.000000)">
                        <g id="happy" transform="translate(0.059642, 0.000000)" fill="#404348" fill-rule="nonzero">
                            <path d="M64.8355753,35.5461345 C47.2530938,17.9636526 25.4619657,6.11751478 1.73418573,0.948579611 C-1.40610258,10.6297122 0.55963707,16.6070442 7.63140469,18.8805758 C52.9887279,33.4626874 86.7584493,76.6268204 86.7584493,126.190855 C86.7584493,168.09947 62.6149183,205.432499 27.7373693,224.780432 C11.7195574,233.666134 17.3951936,248.807869 36.1575165,238.411192 C46.5401915,232.65789 56.210303,225.460848 64.8355753,216.835575 C89.0474042,192.623747 102.38171,160.431286 102.38171,126.190855 C102.38171,91.9504236 89.0474042,59.7579628 64.8355753,35.5461345 Z" id="Path"></path>
                        </g>
                        <path d="M141.699801,217.526839 C85.0821736,244.819678 56.7733598,305.977398 56.7733598,401" id="Line-2" stroke="#404348" stroke-width="18" stroke-linecap="round" transform="translate(99.236581, 309.263419) scale(-1, 1) translate(-99.236581, -309.263419) "></path>
                    </g>
                </g>
            </g>
            <g id="Group-4" transform="translate(0.000000, 421.000000)">
                <path d="M496,-2.25597319e-13 C490.49,-2.25597319e-13 486,4.48 486,10.001 C486,15.511 490.49,20.002 496,20.002 C501.51,20.002 506,15.512 506,10.001 C506,4.48 501.51,-2.25597319e-13 496,-2.25597319e-13 Z" id="Path" fill="#404348" fill-rule="nonzero"></path>
                <path d="M0.5,81 L757,81" id="Line-3" stroke="#404348" stroke-width="20" stroke-linecap="round"></path>
            </g>
            <g id="Group-8" transform="translate(328.000000, 338.000000)" stroke="#404348" stroke-linecap="round" stroke-width="18">
                <path d="M1,0.715234895 L59.4550079,46.7152349" id="Line-5"></path>
                <path d="M61,0.715234895 L119.455008,46.7152349" id="Line-5" transform="translate(90.000000, 23.500000) scale(-1, 1) translate(-90.000000, -23.500000) "></path>
            </g>
            <path d="M284,429.994765 L284,493" id="Line-6" stroke="#404348" stroke-width="18" stroke-linecap="round"></path>
            <path d="M496,461.497383 L496,493" id="Line-6" stroke="#404348" stroke-width="18" stroke-linecap="round"></path>
        </g>
    </g>
</svg>