<?xml version="1.0" encoding="UTF-8"?>
<svg width="777px" height="512px" viewBox="0 0 777 512" version="1.1" xmlns="http://www.w3.org/2000/svg" xmlns:xlink="http://www.w3.org/1999/xlink">
    <!-- Generator: Sketch 53 (72520) - https://sketchapp.com -->
    <title>Met-jezelf</title>
    <desc>Created with Sketch.</desc>
    <g id="Page-1" stroke="none" stroke-width="1" fill="none" fill-rule="evenodd">
        <g id="Met-jezelf" transform="translate(10.000000, 0.000000)">
            <g id="Group-2" transform="translate(178.000000, 0.000000)">
                <g id="happy" transform="translate(50.000000, 0.000000)" fill="#404348" fill-rule="nonzero">
                    <path d="M273.137207,46.8627931 C242.917481,16.6430662 202.736816,0 160,0 C127.48291,0 96.171875,9.7094725 69.4580075,28.0761719 C66.6137694,30.03418 65.0567861,37.8821371 68.5655826,41.615358 C72.0743792,45.3485788 78.6962887,45.3344725 81.5405275,43.376465 C106.162109,26.4477537 130.021972,19.5 160,19.5 C236.330566,19.5 300.5,83.6694337 300.5,160 C300.5,236.330566 236.330566,300.5 160,300.5 C83.6694338,300.5 19.5,236.330566 19.5,160 C19.5,130.01709 26.4477537,105.159668 43.3740237,80.5429687 C45.32959,77.6987306 43.787171,70.2582628 40.9429329,68.3026966 C38.101136,66.3471303 30.0317381,66.6162112 28.0737306,69.4604494 C9.70703125,96.1694337 0,127.478027 0,160 C0,202.736816 16.6430662,242.917481 46.8627931,273.137207 C77.0825194,303.356934 117.263184,320 160,320 C202.736816,320 242.917481,303.356934 273.137207,273.137207 C303.356934,242.917481 320,202.736816 320,160 C320,117.263184 303.356934,77.0825194 273.137207,46.8627931 Z" id="Path"></path>
                    <path d="M53.9968268,64 C56.5588889,64 59.120951,63.023438 61.0737422,61.0703129 C64.9754193,57.1679688 64.9754193,50.8359377 61.0737422,46.9296876 C57.1681598,43.0234375 50.8372109,43.0234375 46.9316285,46.9296876 L46.9277221,46.9335936 C43.0221397,50.8398437 43.026046,57.1679688 46.9277221,61.0742189 C48.8805143,63.027344 51.4386701,64 53.9968268,64 Z" id="Path"></path>
                    <path d="M105.825913,197.215964 C102.491064,198.114955 95.6041747,201.592552 97.2144792,206.916328 C104.755731,235.227137 131.367671,255 160.5,255 C189.632329,255 215.244269,235.229594 222.785521,206.916328 C223.966726,202.661788 219.031298,198.114955 215.696448,197.215964 C212.361598,196.316974 204.756857,198.215964 203.710728,203.661788 C195.911117,224.3448 182,236.423968 160.5,236.423968 C139,236.423968 127.080923,226.999226 117.289272,203.661788 C114.850451,198.215964 109.158871,196.317484 105.825913,197.215964 Z" id="Path"></path>
                    <path d="M82.2130866,154.225337 C81.3260765,157.51805 83.2891306,161.904841 86.5996646,162.787723 C89.9126219,163.670604 95.3128256,162.714274 96.1974123,159.42156 C98.1119959,152.315089 102.609464,148.35069 109.998788,148.35069 C117.390536,148.35069 120.888004,151.315089 122.802588,158.42156 C123.544186,161.178755 127.898739,163.663676 131.791116,163 C134.87457,162.47425 139.13565,159.42156 137.786913,154.225337 C134.423062,141.7275 122.996147,133 109.998788,133 C97.0014293,133 85.5769372,141.7275 82.2130866,154.225337 Z" id="Path"></path>
                    <path d="M182.213087,154.225337 C181.326076,157.51805 183.289131,161.904841 186.599665,162.787723 C189.912622,163.670604 195.312826,162.714274 196.197412,159.42156 C198.111996,152.315089 202.609464,148.35069 209.998788,148.35069 C217.390536,148.35069 220.888004,151.315089 222.802588,158.42156 C223.544186,161.178755 227.898739,163.663676 231.791116,163 C234.87457,162.47425 239.13565,159.42156 237.786913,154.225337 C234.423062,141.7275 222.996147,133 209.998788,133 C197.001429,133 185.576937,141.7275 182.213087,154.225337 Z" id="Path"></path>
                </g>
                <path d="M106,274 C35.3333333,308.065256 0,384.398589 0,503" id="Line-2" stroke="#404348" stroke-width="18" stroke-linecap="round"></path>
                <path d="M419,274 C348.333333,308.065256 313,384.398589 313,503" id="Line-2" stroke="#404348" stroke-width="18" stroke-linecap="round" transform="translate(366.000000, 388.500000) scale(-1, 1) translate(-366.000000, -388.500000) "></path>
            </g>
            <g id="Group-4" transform="translate(0.000000, 421.000000)">
                <path d="M496,-2.25597319e-13 C490.49,-2.25597319e-13 486,4.48 486,10.001 C486,15.511 490.49,20.002 496,20.002 C501.51,20.002 506,15.512 506,10.001 C506,4.48 501.51,-2.25597319e-13 496,-2.25597319e-13 Z" id="Path" fill="#404348" fill-rule="nonzero"></path>
                <path d="M0.5,81 L757,81" id="Line-3" stroke="#404348" stroke-width="20" stroke-linecap="round"></path>
            </g>
            <g id="Group-8" transform="translate(328.000000, 333.000000)" stroke="#404348" stroke-linecap="round" stroke-width="18">
                <path d="M1,0.715234895 L59.4550079,46.7152349" id="Line-5"></path>
                <path d="M61,0.715234895 L119.455008,46.7152349" id="Line-5" transform="translate(90.000000, 23.500000) scale(-1, 1) translate(-90.000000, -23.500000) "></path>
            </g>
            <path d="M284,429.994765 L284,493" id="Line-6" stroke="#404348" stroke-width="18" stroke-linecap="round"></path>
            <path d="M496,461.497383 L496,493" id="Line-6" stroke="#404348" stroke-width="18" stroke-linecap="round"></path>
        </g>
    </g>
</svg>