<?xml version="1.0" encoding="UTF-8"?>
<svg width="777px" height="514px" viewBox="0 0 777 514" version="1.1" xmlns="http://www.w3.org/2000/svg" xmlns:xlink="http://www.w3.org/1999/xlink">
    <!-- Generator: Sketch 53 (72520) - https://sketchapp.com -->
    <title>Met-jezelf</title>
    <desc>Created with Sketch.</desc>
    <g id="Page-1" stroke="none" stroke-width="1" fill="none" fill-rule="evenodd">
        <g id="Met-jezelf" transform="translate(10.000000, 0.000000)">
            <g id="Group-3" transform="translate(129.000000, 0.000000)">
                <g id="Group-2">
                    <g id="happy" transform="translate(50.000000, 0.000000)" fill="#404348" fill-rule="nonzero">
                        <path d="M273.137207,46.8627931 C242.917481,16.6430662 202.736816,0 160,0 C127.48291,0 96.171875,9.7094725 69.4580075,28.0761719 C66.6137694,30.03418 65.0567861,37.8821371 68.5655826,41.615358 C72.0743792,45.3485788 78.6962887,45.3344725 81.5405275,43.376465 C106.162109,26.4477537 130.021972,19.5 160,19.5 C236.330566,19.5 300.5,83.6694337 300.5,160 C300.5,236.330566 236.330566,300.5 160,300.5 C83.6694338,300.5 19.5,236.330566 19.5,160 C19.5,130.01709 26.4477537,105.159668 43.3740237,80.5429687 C45.32959,77.6987306 43.787171,70.2582628 40.9429329,68.3026966 C38.101136,66.3471303 30.0317381,66.6162112 28.0737306,69.4604494 C9.70703125,96.1694337 0,127.478027 0,160 C0,202.736816 16.6430662,242.917481 46.8627931,273.137207 C77.0825194,303.356934 117.263184,320 160,320 C202.736816,320 242.917481,303.356934 273.137207,273.137207 C303.356934,242.917481 320,202.736816 320,160 C320,117.263184 303.356934,77.0825194 273.137207,46.8627931 Z" id="Path"></path>
                        <path d="M53.9968268,64 C56.5588889,64 59.120951,63.023438 61.0737422,61.0703129 C64.9754193,57.1679688 64.9754193,50.8359377 61.0737422,46.9296876 C57.1681598,43.0234375 50.8372109,43.0234375 46.9316285,46.9296876 L46.9277221,46.9335936 C43.0221397,50.8398437 43.026046,57.1679688 46.9277221,61.0742189 C48.8805143,63.027344 51.4386701,64 53.9968268,64 Z" id="Path"></path>
                    </g>
                    <path d="M106,274 C35.3333333,308.065256 0,384.398589 0,503" id="Line-2" stroke="#404348" stroke-width="18" stroke-linecap="round"></path>
                    <path d="M419,274 C348.333333,308.065256 313,384.398589 313,503" id="Line-2" stroke="#404348" stroke-width="18" stroke-linecap="round" transform="translate(366.000000, 388.500000) scale(-1, 1) translate(-366.000000, -388.500000) "></path>
                </g>
                <path d="M186,275.426862 C71.1543969,148.926862 183.664231,8.54604888 289.5,10.0113746 C397.658312,11.5088565 507.327722,148.926862 393,275.426862 C463.666667,311.426862 499,387.426862 499,503.426862 L80,503.426862 C80,383.575249 115.333333,307.575249 186,275.426862 Z" id="Rectangle" fill="#FFFFFF"></path>
                <g id="Group-2" transform="translate(80.000000, 2.000000)">
                    <g id="happy" transform="translate(50.000000, 0.000000)" fill="#404348" fill-rule="nonzero">
                        <path d="M273.137207,46.8627931 C242.917481,16.6430662 202.736816,0 160,0 C127.48291,0 96.171875,9.7094725 69.4580075,28.0761719 C66.6137694,30.03418 65.0567861,37.8821371 68.5655826,41.615358 C72.0743792,45.3485788 78.6962887,45.3344725 81.5405275,43.376465 C106.162109,26.4477537 130.021972,19.5 160,19.5 C236.330566,19.5 300.5,83.6694337 300.5,160 C300.5,236.330566 236.330566,300.5 160,300.5 C83.6694338,300.5 19.5,236.330566 19.5,160 C19.5,130.01709 26.4477537,105.159668 43.3740237,80.5429687 C45.32959,77.6987306 43.787171,70.2582628 40.9429329,68.3026966 C38.101136,66.3471303 30.0317381,66.6162112 28.0737306,69.4604494 C9.70703125,96.1694337 0,127.478027 0,160 C0,202.736816 16.6430662,242.917481 46.8627931,273.137207 C77.0825194,303.356934 117.263184,320 160,320 C202.736816,320 242.917481,303.356934 273.137207,273.137207 C303.356934,242.917481 320,202.736816 320,160 C320,117.263184 303.356934,77.0825194 273.137207,46.8627931 Z" id="Path"></path>
                        <path d="M53.9968268,64 C56.5588889,64 59.120951,63.023438 61.0737422,61.0703129 C64.9754193,57.1679688 64.9754193,50.8359377 61.0737422,46.9296876 C57.1681598,43.0234375 50.8372109,43.0234375 46.9316285,46.9296876 L46.9277221,46.9335936 C43.0221397,50.8398437 43.026046,57.1679688 46.9277221,61.0742189 C48.8805143,63.027344 51.4386701,64 53.9968268,64 Z" id="Path"></path>
                        <path d="M105.85176,197.213625 C102.516911,198.112615 95.6300215,201.590213 97.240326,206.913989 C104.781578,235.224798 131.393518,254.997661 160.525847,254.997661 C189.658176,254.997661 215.270115,235.227254 222.811368,206.913989 C223.992573,202.659449 219.057144,198.112615 215.722295,197.213625 C212.387445,196.314635 204.782703,198.213625 203.736575,203.659449 C195.936963,224.342461 182.025847,236.421629 160.525847,236.421629 C139.025847,236.421629 127.10677,226.996887 117.315118,203.659449 C114.876298,198.213625 109.184718,196.315145 105.85176,197.213625 Z" id="Path"></path>
                        <path d="M82.2130866,154.225337 C81.3260765,157.51805 83.2891306,161.904841 86.5996646,162.787723 C89.9126219,163.670604 95.3128256,162.714274 96.1974123,159.42156 C98.1119959,152.315089 102.609464,148.35069 109.998788,148.35069 C117.390536,148.35069 120.888004,151.315089 122.802588,158.42156 C123.544186,161.178755 127.898739,163.663676 131.791116,163 C134.87457,162.47425 139.13565,159.42156 137.786913,154.225337 C134.423062,141.7275 122.996147,133 109.998788,133 C97.0014293,133 85.5769372,141.7275 82.2130866,154.225337 Z" id="Path"></path>
                        <path d="M182.213087,154.225337 C181.326076,157.51805 183.289131,161.904841 186.599665,162.787723 C189.912622,163.670604 195.312826,162.714274 196.197412,159.42156 C198.111996,152.315089 202.609464,148.35069 209.998788,148.35069 C217.390536,148.35069 220.888004,151.315089 222.802588,158.42156 C223.544186,161.178755 227.898739,163.663676 231.791116,163 C234.87457,162.47425 239.13565,159.42156 237.786913,154.225337 C234.423062,141.7275 222.996147,133 209.998788,133 C197.001429,133 185.576937,141.7275 182.213087,154.225337 Z" id="Path"></path>
                    </g>
                    <path d="M106,274 C35.3333333,308.065256 0,384.398589 0,503" id="Line-2" stroke="#404348" stroke-width="18" stroke-linecap="round"></path>
                    <path d="M419,274 C348.333333,308.065256 313,384.398589 313,503" id="Line-2" stroke="#404348" stroke-width="18" stroke-linecap="round" transform="translate(366.000000, 388.500000) scale(-1, 1) translate(-366.000000, -388.500000) "></path>
                </g>
                <g id="Group-8" transform="translate(230.000000, 335.000000)" stroke="#404348" stroke-linecap="round" stroke-width="18">
                    <path d="M1,0.715234895 L59.4550079,46.7152349" id="Line-5"></path>
                    <path d="M61,0.715234895 L119.455008,46.7152349" id="Line-5" transform="translate(90.000000, 23.500000) scale(-1, 1) translate(-90.000000, -23.500000) "></path>
                </g>
                <path d="M186,431.994765 L186,495" id="Line-6" stroke="#404348" stroke-width="18" stroke-linecap="round"></path>
                <path d="M398,463.497383 L398,495" id="Line-6" stroke="#404348" stroke-width="18" stroke-linecap="round"></path>
                <path d="M398,423 C392.49,423 388,427.48 388,433.001 C388,438.511 392.49,443.002 398,443.002 C403.51,443.002 408,438.512 408,433.001 C408,427.48 403.51,423 398,423 Z" id="Path" fill="#404348" fill-rule="nonzero"></path>
            </g>
            <path d="M0.5,504 L757,504" id="Line-3" stroke="#404348" stroke-width="20" stroke-linecap="round"></path>
        </g>
    </g>
</svg>