<?xml version="1.0" encoding="UTF-8"?>
<svg width="638px" height="545px" viewBox="0 0 638 545" version="1.1" xmlns="http://www.w3.org/2000/svg" xmlns:xlink="http://www.w3.org/1999/xlink">
    <!-- Generator: Sketch 53 (72520) - https://sketchapp.com -->
    <title>monkey (1)</title>
    <desc>Created with Sketch.</desc>
    <g id="Page-1" stroke="none" stroke-width="1" fill="none" fill-rule="evenodd">
        <g id="monkey-(1)" fill="#404348" fill-rule="nonzero">
            <path d="M558.407249,190.883139 C550.639132,190.883139 542.900879,192.057751 535.494852,194.303699 C521.935799,162.489635 501.331564,133.776347 475.338299,110.656153 C469.885811,105.804658 461.535365,106.294909 456.688847,111.747397 C451.838596,117.198642 452.327603,125.549087 457.780091,130.396849 C483.912717,153.641473 503.919692,183.234475 515.640925,215.990468 C520.063139,228.316427 523.323185,241.182409 525.33645,254.22508 C526.95403,264.751792 527.772774,275.521142 527.772774,286.236986 C527.772774,287.279703 527.759087,288.308733 527.747888,289.31661 C527.562489,302.543436 526.122842,315.747865 523.461301,328.579007 C511.81597,385.088539 476.344932,434.460811 427.663242,464.308893 C430.920799,453.640331 432.575708,442.56613 432.575708,431.238094 C432.575708,421.620959 431.374966,412.151895 428.99339,402.942888 C449.70339,396.942911 468.428744,385.072363 482.802808,368.621575 C500.822648,348.002409 510.74339,321.548756 510.74339,294.136998 C510.74339,231.666062 459.925251,180.841701 397.460537,180.841701 C368.003162,180.841701 340.240514,192.096324 319.279167,212.146849 C298.319064,192.093836 270.561393,180.841701 241.11024,180.841701 C178.645525,180.841701 127.827386,231.666062 127.827386,294.136998 C127.827386,321.551244 137.746884,348.001164 155.760502,368.621575 C170.133322,385.074852 188.857432,396.944155 209.568676,402.944132 C207.194566,412.144429 205.995068,421.611005 205.995068,431.238094 C205.995068,442.572352 207.664909,453.650285 210.926199,464.326313 C162.070308,434.396107 126.542032,384.832215 114.993756,328.077557 C112.319772,315.02742 110.9075,301.539292 110.796758,287.990194 L110.796758,287.975263 L110.796758,287.967797 C110.796758,287.919269 110.795514,287.869498 110.795514,287.822215 C110.785559,287.29339 110.785559,286.764566 110.785559,286.235742 C110.785559,276.012637 111.533379,265.742249 113.010354,255.702055 C114.958916,242.389372 118.215228,229.240936 122.698413,216.612614 C152.109749,133.55113 231.109863,77.7446233 319.356313,77.7446233 C346.887523,77.7545776 373.631096,83.0440639 398.845434,93.4625228 C405.593231,96.2447603 413.315308,93.0407078 416.101279,86.2978881 C418.887249,79.5550685 415.679463,71.829258 408.936644,69.0420434 C389.772055,61.1233676 369.828539,55.8438356 349.342511,53.2345548 L373.804053,28.7717694 C378.962888,23.6129338 378.962888,15.2475571 373.804053,10.0874772 C368.643973,4.92988584 360.281084,4.92988584 355.11976,10.0874772 L332.492306,32.7149315 L332.492306,13.6735274 C332.492306,6.37824201 326.576941,0.462876712 319.281655,0.462876712 C311.98637,0.462876712 306.071005,6.37824201 306.071005,13.6735274 L306.071005,32.6415183 L283.521941,10.0924543 C278.363105,4.93486301 269.997728,4.93486301 264.838893,10.0924543 C259.680057,15.25129 259.680057,23.6166667 264.838893,28.7767466 L289.31661,53.2557078 C206.984281,63.8645434 135.486005,117.610502 102.876838,194.696895 C95.0913014,192.184669 86.9100799,190.881895 78.6703767,190.881895 C35.2918607,190.883139 0,226.181221 0,269.567203 C0,312.945719 35.2918607,348.23758 78.6703767,348.23758 C83.2867009,348.23758 87.8507648,347.829452 92.3376826,347.043059 C101.376221,380.813151 117.998721,412.404486 140.901164,439.104509 C165.841758,468.18113 197.683196,490.829737 233.145525,504.821804 C254.725285,530.107066 285.910982,544.537123 319.279167,544.537123 C352.646107,544.537123 383.840514,530.103333 405.425251,504.821804 C440.800479,490.862089 472.577215,468.281918 497.487945,439.303596 C520.419007,412.62597 537.078836,381.034635 546.153459,347.273253 C550.187454,347.905354 554.277443,348.23758 558.407249,348.23758 C601.785765,348.23758 637.077626,312.945719 637.077626,269.567203 C637.077626,226.181221 601.785765,190.883139 558.407249,190.883139 Z M90.7325457,231.788002 C86.867774,230.548687 82.8051598,229.881747 78.671621,229.881747 C56.7894977,229.881747 38.9861644,247.68508 38.9861644,269.567203 C38.9861644,291.449326 56.7894977,309.25266 78.671621,309.25266 C80.9673402,309.25266 83.2294635,309.047352 85.4443037,308.670331 C85.8399886,312.853642 86.3426826,317.017043 86.9598516,321.151826 C84.2348516,321.58484 81.4700342,321.815034 78.671621,321.815034 C49.8600342,321.816279 26.4213014,298.377546 26.4213014,269.567203 C26.4213014,240.750639 49.8600342,217.304441 78.6703767,217.304441 C83.8727626,217.304441 89.0328425,218.102032 93.9652169,219.610114 C92.7781621,223.6354 91.7030936,227.699258 90.7325457,231.788002 Z M86.0005023,258.497979 C85.1033676,266.114292 84.5670776,273.81895 84.4140297,281.517386 C82.6434018,282.368482 80.6960845,282.830114 78.6703767,282.830114 C71.3564269,282.830114 65.4062215,276.879909 65.4062215,269.565959 C65.4062215,262.252009 71.3564269,256.301804 78.6703767,256.301804 C81.3406279,256.303048 83.8652968,257.078242 86.0005023,258.497979 Z M387.111758,485.519098 C370.507922,506.23532 345.783836,518.115822 319.277922,518.115822 C292.769521,518.115822 268.050411,506.236564 251.451553,485.511632 C251.105639,485.081107 250.773413,484.639384 250.437454,484.203881 L388.133322,484.203881 C387.794874,484.643116 387.461404,485.087329 387.111758,485.519098 Z M399.615651,398.197158 C403.953253,408.731336 406.150674,419.849087 406.150674,431.243071 C406.150674,440.353779 404.763288,449.244247 402.022112,457.783824 L236.549909,457.783824 C233.811221,449.246735 232.417614,440.355023 232.417614,431.243071 C232.417614,419.827934 234.611301,408.710183 238.940194,398.197158 C240.490582,394.429441 240.216838,390.157785 238.197352,386.619018 C236.177865,383.080251 232.637854,380.671301 228.606347,380.091461 C186.217043,373.988208 154.249932,337.03895 154.249932,294.139486 C154.249932,246.236724 193.214943,207.265491 241.111484,207.265491 C267.623619,207.265491 292.356416,219.172123 308.963984,239.931895 C311.469989,243.065023 315.266324,244.8904 319.280411,244.8904 C323.294498,244.8904 327.089589,243.066267 329.595594,239.931895 C346.204406,219.172123 370.940936,207.265491 397.461781,207.265491 C445.357078,207.265491 484.323333,246.237968 484.323333,294.139486 C484.323333,337.037705 452.352489,373.988208 409.953231,380.091461 C405.920479,380.671301 402.381712,383.081495 400.362226,386.619018 C398.340251,390.157785 398.066507,394.429441 399.615651,398.197158 Z M558.407249,321.816279 C556.104064,321.816279 553.820788,321.666963 551.562397,321.372066 C552.184543,317.236039 552.693459,313.073881 553.095365,308.895548 C554.847329,309.131963 556.621689,309.253904 558.407249,309.253904 C580.289372,309.253904 598.092705,291.450571 598.092705,269.568447 C598.092705,247.686324 580.289372,229.882991 558.407249,229.882991 C554.758984,229.882991 551.169201,230.390662 547.725,231.3525 C546.746986,227.267489 545.661963,223.213584 544.468687,219.198253 C548.965559,217.955205 553.621701,217.305685 558.407249,217.305685 C587.217591,217.305685 610.656324,240.750639 610.656324,269.568447 C610.656324,298.377546 587.217591,321.816279 558.407249,321.816279 Z M552.468242,257.70661 C554.28242,256.798276 556.293196,256.303048 558.407249,256.303048 C565.721199,256.303048 571.671404,262.253253 571.671404,269.567203 C571.671404,276.881153 565.721199,282.831358 558.407249,282.831358 C556.803356,282.831358 555.38984,282.557614 554.153014,282.140776 C554.012409,273.974486 553.443767,265.796998 552.468242,257.70661 Z" id="Shape"></path>
            <path d="M444.150114,87.2323516 C443.547877,86.8528425 442.943151,86.4770662 442.334692,86.10129 C436.125674,82.273847 427.985514,84.2074772 424.156826,90.418984 C420.328139,96.6304909 422.261769,104.766918 428.474521,108.595605 C429.009566,108.924098 429.543368,109.257568 430.075925,109.593527 C432.260902,110.969715 434.695982,111.625457 437.099954,111.625457 C441.488573,111.625457 445.782626,109.440479 448.293607,105.451279 C452.179532,99.2758562 450.324292,91.1182763 444.150114,87.2323516 Z" id="Path"></path>
            <path d="M242.180331,260.57097 C220.697626,260.57097 203.221541,278.047055 203.221541,299.52976 C203.221541,306.825046 209.135662,312.740411 216.432192,312.740411 C223.728721,312.740411 229.642842,306.825046 229.642842,299.52976 C229.642842,292.616473 235.267043,286.992272 242.180331,286.992272 C249.093619,286.992272 254.71782,292.616473 254.71782,299.52976 C254.71782,306.825046 260.631941,312.740411 267.92847,312.740411 C275.225,312.740411 281.139121,306.825046 281.139121,299.52976 C281.139121,278.047055 263.663037,260.57097 242.180331,260.57097 Z" id="Path"></path>
            <path d="M407.473356,260.57097 C385.983185,260.57097 368.500879,278.047055 368.500879,299.52976 C368.500879,306.82629 374.416244,312.740411 381.71153,312.740411 C389.006815,312.740411 394.92218,306.825046 394.92218,299.52976 C394.92218,292.616473 400.552603,286.992272 407.472112,286.992272 C414.384155,286.992272 420.008356,292.616473 420.008356,299.52976 C420.008356,306.825046 425.923721,312.740411 433.219007,312.740411 C440.514292,312.740411 446.429658,306.825046 446.429658,299.52976 C446.430902,278.047055 428.954817,260.57097 407.473356,260.57097 Z" id="Path"></path>
            <path d="M282.909749,348.21145 C264.429521,348.21145 249.393493,363.246233 249.393493,381.727705 C249.393493,400.209178 264.428276,415.243961 282.909749,415.243961 C301.383756,415.243961 316.412317,400.209178 316.412317,381.727705 C316.412317,363.246233 301.383756,348.21145 282.909749,348.21145 Z M282.909749,388.821416 C278.997694,388.821416 275.816039,385.638516 275.816039,381.727705 C275.816039,377.816895 278.998938,374.633995 282.909749,374.633995 C286.814338,374.633995 289.991016,377.816895 289.991016,381.727705 C289.991016,385.638516 286.813094,388.821416 282.909749,388.821416 Z" id="Shape"></path>
            <path d="M356.202295,348.21145 C337.729532,348.21145 322.70097,363.246233 322.70097,381.727705 C322.70097,400.207934 337.728288,415.243961 356.202295,415.243961 C374.682523,415.243961 389.71855,400.209178 389.71855,381.727705 C389.71855,363.246233 374.683767,348.21145 356.202295,348.21145 Z M356.202295,388.821416 C352.29895,388.821416 349.122272,385.638516 349.122272,381.727705 C349.122272,377.816895 352.297705,374.633995 356.202295,374.633995 C360.114349,374.633995 363.296005,377.816895 363.296005,381.727705 C363.296005,385.638516 360.114349,388.821416 356.202295,388.821416 Z" id="Shape"></path>
        </g>
    </g>
</svg>