<?xml version="1.0" encoding="UTF-8"?>
<svg width="512px" height="418px" viewBox="0 0 512 418" version="1.1" xmlns="http://www.w3.org/2000/svg" xmlns:xlink="http://www.w3.org/1999/xlink">
    <!-- Generator: Sketch 53 (72520) - https://sketchapp.com -->
    <title>mount-fuji</title>
    <desc>Created with Sketch.</desc>
    <g id="Page-1" stroke="none" stroke-width="1" fill="none" fill-rule="evenodd">
        <g id="mount-fuji" fill="#404348" fill-rule="nonzero">
            <path d="M502,397.566406 L486.59375,397.566406 C478.242188,395.289062 414.859375,375.558594 343.542969,286.921875 C330.402344,270.589844 318.214844,253.472656 306.925781,235.8125 C303.734375,230.820312 300.601562,225.785156 297.539062,220.710938 C293.152344,213.445312 288.773438,205.898438 284.414062,198.039062 C282.648438,194.859375 279.300781,192.890625 275.667969,192.890625 L236.328125,192.890625 C232.695312,192.890625 229.347656,194.859375 227.585938,198.039062 C222.886719,206.507812 218.015625,214.878906 212.976562,223.148438 C167.296875,298.027344 121.269531,340.675781 89.390625,363.777344 C55.246094,388.523438 30.355469,396.203125 25.394531,397.566406 L10,397.566406 C4.476562,397.566406 -2.84217094e-14,402.046875 -2.84217094e-14,407.566406 C-2.84217094e-14,413.089844 4.476562,417.566406 10,417.566406 L502,417.566406 C507.523438,417.566406 512,413.089844 512,407.566406 C512,402.046875 507.523438,397.566406 502,397.566406 Z M284.507812,237.726562 C302.589844,266.929688 321.9375,293.339844 342.296875,316.558594 L340.90625,318.191406 L332.144531,307.996094 C330.210938,305.746094 327.386719,304.496094 324.414062,304.515625 C321.449219,304.558594 318.65625,305.914062 316.789062,308.21875 L300.308594,328.558594 L263.601562,285.59375 C261.773438,283.453125 259.125,282.183594 256.3125,282.09375 C256.207031,282.089844 256.101562,282.089844 256,282.089844 C253.296875,282.089844 250.703125,283.183594 248.816406,285.132812 L232.640625,301.84375 L225.351562,294.191406 C223.492188,292.234375 220.917969,291.113281 218.21875,291.085938 C215.507812,291.066406 212.921875,292.121094 211.019531,294.035156 L188.066406,317.121094 L178.152344,306.679688 C200.957031,279.308594 222.460938,247.820312 242.191406,212.890625 L269.808594,212.890625 C274.539062,221.269531 279.441406,229.550781 284.507812,237.726562 L284.507812,237.726562 Z M74.089844,397.566406 C81.929688,393.046875 90.578125,387.546875 99.859375,380.886719 C123.964844,363.585938 145.667969,343.222656 164.941406,321.8125 L180.648438,338.359375 C182.507812,340.316406 185.082031,341.441406 187.785156,341.472656 C190.484375,341.511719 193.085938,340.441406 194.992188,338.523438 L217.953125,315.425781 L225.335938,323.179688 C227.214844,325.152344 229.816406,326.273438 232.539062,326.285156 L232.578125,326.285156 C235.289062,326.285156 237.882812,325.1875 239.765625,323.242188 L255.539062,306.945312 L292.90625,350.6875 C294.808594,352.914062 297.589844,354.191406 300.511719,354.191406 L300.640625,354.191406 C303.609375,354.152344 306.410156,352.796875 308.28125,350.488281 L324.785156,330.117188 L333.378906,340.109375 C335.277344,342.320312 338.046875,343.59375 340.960938,343.59375 L340.992188,343.59375 C343.921875,343.582031 346.695312,342.289062 348.585938,340.058594 L355.945312,331.382812 C376.90625,353.402344 396.1875,369.4375 412.140625,380.886719 C421.421875,387.546875 430.070312,393.042969 437.910156,397.566406 L74.089844,397.566406 Z" id="Shape"></path>
            <path d="M411.890625,108.75 C441.3125,108.75 465.25,84.816406 465.25,55.394531 C465.25,25.972656 441.3125,2.035156 411.890625,2.035156 C382.46875,2.035156 358.535156,25.972656 358.535156,55.394531 C358.535156,84.816406 382.46875,108.75 411.890625,108.75 Z M411.890625,22.035156 C430.285156,22.035156 445.25,37 445.25,55.394531 C445.25,73.785156 430.285156,88.75 411.890625,88.75 C393.496094,88.75 378.535156,73.785156 378.535156,55.394531 C378.535156,37 393.5,22.035156 411.890625,22.035156 Z" id="Shape"></path>
            <path d="M213.449219,150.183594 C211.277344,146.859375 207.0625,145.144531 203.179688,145.933594 C199.035156,146.773438 195.773438,150.222656 195.222656,154.425781 C194.679688,158.570312 196.855469,162.71875 200.574219,164.628906 C204.289062,166.539062 208.929688,165.882812 211.976562,163.027344 C215.5,159.726562 216.128906,154.195312 213.449219,150.183594 Z" id="Path"></path>
            <path d="M48.011719,110.789062 L150.703125,110.789062 C156.226562,110.789062 160.703125,106.3125 160.703125,100.789062 C160.703125,95.265625 156.226562,90.789062 150.703125,90.789062 L59.140625,90.789062 C63.691406,71.019531 81.4375,56.238281 102.570312,56.238281 C110.699219,56.238281 118.65625,58.445312 125.582031,62.628906 C128.164062,64.1875 131.3125,64.496094 134.152344,63.472656 C136.988281,62.445312 139.210938,60.195312 140.199219,57.34375 C147.941406,35.007812 169.027344,19.996094 192.671875,19.996094 C221.769531,19.996094 245.710938,42.492188 248.027344,71.003906 C233.933594,74.160156 220.480469,83.160156 212.984375,95.648438 C212.140625,96.976562 211.34375,98.339844 210.609375,99.742188 C210.605469,99.742188 210.601562,99.742188 210.59375,99.742188 C179.722656,99.742188 154.601562,124.863281 154.601562,155.734375 C154.601562,161.257812 159.078125,165.734375 164.601562,165.734375 C170.125,165.734375 174.601562,161.257812 174.601562,155.734375 C174.601562,135.890625 190.75,119.742188 210.59375,119.742188 C212.203125,119.742188 213.875,119.863281 215.5625,120.09375 C220.257812,120.738281 224.757812,118.007812 226.347656,113.550781 C231.390625,99.410156 245.234375,89.652344 260.253906,89.652344 C280.097656,89.652344 296.242188,105.796875 296.242188,125.628906 L296.222656,126.335938 C296.171875,129.019531 297.199219,131.613281 299.078125,133.53125 C300.960938,135.449219 303.535156,136.53125 306.222656,136.53125 L306.308594,136.53125 C313.210938,136.554688 319.265625,140.238281 322.636719,145.738281 L244.28125,145.738281 C238.761719,145.738281 234.28125,150.214844 234.28125,155.738281 C234.28125,161.261719 238.761719,165.738281 244.28125,165.738281 L335.449219,165.738281 C340.972656,165.738281 345.449219,161.261719 345.449219,155.738281 C345.449219,137.371094 332.757812,121.914062 315.679688,117.679688 C312.160156,93.09375 292.613281,73.609375 267.996094,70.1875 C265.238281,31.023438 232.519531,0 192.667969,0 C164.285156,0 138.609375,15.90625 125.734375,40.527344 C118.378906,37.703125 110.53125,36.238281 102.566406,36.238281 C66.96875,36.238281 38.007812,65.195312 38.007812,100.789062 C38.011719,106.3125 42.488281,110.789062 48.011719,110.789062 L48.011719,110.789062 Z" id="Path"></path>
        </g>
    </g>
</svg>