<?xml version="1.0" encoding="UTF-8"?>
<svg width="492px" height="503px" viewBox="0 0 492 503" version="1.1" xmlns="http://www.w3.org/2000/svg" xmlns:xlink="http://www.w3.org/1999/xlink">
    <!-- Generator: Sketch 53 (72520) - https://sketchapp.com -->
    <title>elephant (1)</title>
    <desc>Created with Sketch.</desc>
    <g id="Page-1" stroke="none" stroke-width="1" fill="none" fill-rule="evenodd">
        <g id="elephant-(1)" fill="#404348" fill-rule="nonzero">
            <path d="M442.454415,0 C418.400429,0 393.083878,9.57477594 364.605156,29.7297747 C351.741569,11.7353358 330.746139,0 307.075912,0 C294.580734,0 283.186943,5.72951483 272.169235,11.2748256 C262.790177,15.9912188 253.929191,20.4504926 246.09668,20.4504926 C238.264168,20.4504926 229.403182,15.9912188 220.020286,11.2748256 C209.002579,5.72951483 197.612626,1.74513182e-15 185.117447,1.74513182e-15 C161.46257,1.74513182e-15 140.482491,11.7199865 127.618904,29.6837237 C101.588562,11.2633135 75.7155604,0 49.7389448,0 C19.8211286,0 0.491210938,23.3210065 0.491210938,59.4134974 L0.491210938,73.5358119 C0.491210938,78.9583209 4.88908337,83.3600306 10.3154297,83.3600306 C15.741776,83.3600306 20.1396484,78.9583209 20.1396484,73.5358119 L20.1396484,59.4134974 C20.1396484,47.4555822 23.0216754,19.6484375 49.7389448,19.6484375 C70.081986,19.6484375 92.6930384,28.7320025 118.408699,47.3059161 C115.756927,54.7700195 114.313995,62.8020856 114.313995,71.1680219 L114.313995,99.220772 C113.327736,97.5207214 112.318451,95.8475342 111.266952,94.2280726 C95.4868007,69.8901062 74.1651769,56.4854205 51.2279279,56.4854205 C45.8015826,56.4854205 41.4037092,60.8832929 41.4037092,66.3096392 C41.4037092,71.7359846 45.8015826,76.133858 51.2279279,76.133858 C67.2805481,76.133858 82.746017,86.3533483 94.7806849,104.915749 C107.191437,124.053788 114.310158,149.942139 114.313995,175.94178 L114.313995,270.480697 C61.5587079,265.480324 20.1396484,220.645813 20.1396484,166.259552 L20.1396484,152.129562 C20.1396484,146.703217 15.741776,142.305343 10.3154297,142.305343 C4.88908337,142.305343 0.491210938,146.703217 0.491210938,152.129562 L0.491210938,166.259552 C0.491210938,231.352677 50.4872742,284.921531 113.899536,290.171348 C110.856331,324.671242 91.2155683,356.012802 61.113548,373.493004 C57.1761859,375.780205 55.3264692,380.473572 56.6465986,384.833069 C57.9053266,388.996849 61.742912,391.813637 66.0448451,391.813637 C66.2444005,391.813637 66.4477923,391.805961 66.6511841,391.794449 C105.456848,389.411308 156.807579,379.103554 187.047752,323.523804 L198.706337,458.234566 C200.912948,483.754509 220.411721,502.996163 244.06276,502.996163 C267.713798,502.996163 287.21257,483.754509 289.423019,458.234566 L301.668754,316.715927 C303.506958,320.538163 305.444938,324.218406 307.505722,327.722123 C310.253434,332.403976 316.274605,333.965873 320.952621,331.218162 C325.630638,328.470451 327.196373,322.44928 324.448662,317.771263 C319.716919,309.720009 315.618378,300.613419 312.210602,290.589645 L358.610848,290.589645 C360.855835,319.398399 372.890503,346.418839 392.17437,367.233902 C387.864762,366.170891 383.762382,364.950539 379.84037,363.569008 C374.724869,361.765342 369.114319,364.447815 367.306816,369.567154 C365.503151,374.682656 368.189461,380.293205 373.304962,382.100708 C388.290733,387.385063 405.375664,390.554909 425.542175,391.794449 C430.085876,392.07843 434.226631,389.192566 435.546761,384.833069 C436.86689,380.473572 435.017174,375.780205 431.075973,373.493004 C400.977791,356.008964 381.337028,324.667404 378.293823,290.171348 C441.702248,284.921531 491.702148,231.352677 491.702148,166.259552 L491.702148,59.4134974 C491.702148,23.3210065 472.368392,2.79221091e-14 442.454415,0 Z M246.09668,40.0989301 C258.591858,40.0989301 269.981812,34.3655779 280.99952,28.8241046 C285.692887,26.4639893 290.255776,24.1691127 294.622947,22.4652257 C278.378448,37.8270795 262.087899,54.2519452 246.09668,70.5079572 C230.101624,54.2519452 213.814911,37.8309169 197.566574,22.4652257 C201.937584,24.1691127 206.496635,26.4639893 211.190002,28.8241046 C222.207711,34.3655779 233.601501,40.0989301 246.09668,40.0989301 Z M100.003639,367.249252 C119.295182,346.434188 131.337524,319.406075 133.578674,290.593483 L179.97892,290.593483 C163.185646,339.791329 131.917,359.320801 100.003639,367.249252 Z M358.227089,270.945046 L305.629143,270.945046 L309.746871,223.339798 C310.215057,217.93264 306.212456,213.170197 300.809135,212.702011 C295.390465,212.233826 290.639534,216.240265 290.171348,221.643585 L269.847496,456.546028 C268.69622,469.866288 259.466827,483.351562 244.06276,483.351562 C228.658691,483.351562 219.433136,469.866288 218.278023,456.542191 L197.950333,221.643585 C197.485985,216.240265 192.735054,212.245339 187.316384,212.702011 C181.913063,213.170197 177.910461,217.928802 178.374809,223.33596 L182.496376,270.945046 L133.962433,270.945046 L133.962433,175.980156 C133.962433,175.976318 133.962433,175.972481 133.962433,175.972481 C133.962433,175.960968 133.962433,175.949455 133.962433,175.94178 L133.962433,71.1680219 C133.962433,67.4532392 134.353866,63.8267212 135.102195,60.3306806 C136.387787,61.4090419 137.677216,62.4989171 138.981995,63.6194911 C171.501693,91.5532758 205.67923,130.236137 238.732353,167.648758 C240.59742,169.75943 243.279891,170.96827 246.09668,170.96827 C248.913468,170.96827 251.592102,169.75943 253.457169,167.648758 C265.806519,153.672272 276.08741,142.059738 286.644608,130.416504 C290.290314,126.394714 289.987144,120.181663 285.965355,116.539795 C281.947403,112.894088 275.730514,113.197258 272.088646,117.219047 C263.630607,126.548218 255.364449,135.839012 246.09668,146.311783 C211.078713,106.719414 176.997116,68.857796 143.268577,41.5687256 C149.427902,32.7614667 158.269699,25.9958043 168.573616,22.4383624 C191.948349,43.4414673 215.891044,67.8024597 239.089249,91.4074481 C240.935128,93.2840271 243.460258,94.3432007 246.09668,94.3432007 C248.729264,94.3432007 251.254395,93.2878644 253.10411,91.4074481 C276.302315,67.7986224 300.245011,43.4376299 323.615906,22.4383624 C333.93901,25.9996417 342.788483,32.7806554 348.951644,41.6109393 C341.994102,47.2330017 334.848519,53.4422155 327.484192,60.2577672 C323.500778,63.9418492 323.262848,70.1548994 326.94693,74.1383135 C330.631012,78.1217267 336.8479,78.3634949 340.831315,74.6794128 C346.39965,69.521698 351.818321,64.7439044 357.091164,60.3383563 C357.835655,63.8305585 358.227089,67.4532392 358.227089,71.1718592 L358.227089,270.945046 Z M472.053711,166.259552 C472.053711,220.64965 430.634651,265.484161 377.879364,270.480697 L377.879364,175.968644 C377.879364,149.957489 384.998085,124.061462 397.408836,104.915749 C409.443504,86.3533483 424.912811,76.133858 440.965431,76.133858 C446.391777,76.133858 450.78965,71.7359846 450.78965,66.3096392 C450.78965,60.8832929 446.391777,56.4854205 440.965431,56.4854205 C418.028182,56.4854205 396.70272,69.8901062 380.922569,94.2280726 C379.871071,95.8475342 378.861786,97.5207214 377.879364,99.220772 L377.879364,71.1680219 C377.879364,62.7982483 376.428756,54.7546692 373.776985,47.2867274 C399.615448,28.5477984 421.934845,19.6484375 442.454415,19.6484375 C469.167847,19.6484375 472.053711,47.4555822 472.053711,59.4134974 L472.053711,166.259552 Z" id="Shape"></path>
            <path d="M256.77668,270.945046 L231.348839,270.945046 C225.922493,270.945046 221.52462,275.342918 221.52462,280.769264 C221.52462,286.19561 225.922493,290.593483 231.348839,290.593483 L256.77668,290.593483 C262.203026,290.593483 266.600899,286.19561 266.600899,280.769264 C266.600899,275.342918 262.203026,270.945046 256.77668,270.945046 Z" id="Path"></path>
            <path d="M251.695717,332.292686 L236.429802,332.292686 C231.003456,332.292686 226.605583,336.694397 226.605583,342.116905 C226.605583,347.543251 231.003456,351.941124 236.429802,351.941124 L251.695717,351.941124 C257.122062,351.941124 261.519936,347.543251 261.519936,342.116905 C261.519936,336.694397 257.122062,332.292686 251.695717,332.292686 Z" id="Path"></path>
            <path d="M251.695717,393.644165 L236.429802,393.644165 C231.003456,393.644165 226.605583,398.042037 226.605583,403.468384 C226.605583,408.890892 231.003456,413.292603 236.429802,413.292603 L251.695717,413.292603 C257.122062,413.292603 261.519936,408.890892 261.519936,403.468384 C261.519936,398.042037 257.122062,393.644165 251.695717,393.644165 Z" id="Path"></path>
            <path d="M256.77668,219.820732 L231.348839,219.820732 C225.922493,219.820732 221.52462,224.222443 221.52462,229.644951 C221.52462,235.071297 225.922493,239.469169 231.348839,239.469169 L256.77668,239.469169 C262.203026,239.469169 266.600899,235.071297 266.600899,229.644951 C266.600899,224.222443 262.203026,219.820732 256.77668,219.820732 Z" id="Path"></path>
            <path d="M188.16449,173.370598 C188.149139,173.370598 188.137626,173.370598 188.118439,173.370598 L167.744698,173.4627 C162.318352,173.485726 157.939667,177.906624 157.962692,183.332969 C157.989555,188.740128 162.38359,193.111137 167.786911,193.111137 L167.832963,193.111137 L188.210541,193.019035 C193.636886,192.992172 198.015572,188.575112 197.988708,183.148765 C197.965682,177.73777 193.571647,173.370598 188.16449,173.370598 Z" id="Path"></path>
            <path d="M320.384659,173.4627 L300.00708,173.36676 C299.99173,173.36676 299.976379,173.36676 299.961029,173.36676 C294.557709,173.36676 290.163674,177.73777 290.13681,183.148765 C290.113785,188.571273 294.49247,192.992172 299.914978,193.015198 L320.292557,193.111137 L320.338607,193.111137 C325.741928,193.111137 330.139801,188.740128 330.162826,183.329132 C330.185852,177.906624 325.807167,173.485726 320.384659,173.4627 Z" id="Path"></path>
            <path d="M306.154891,104.885048 C308.511169,104.885048 310.875122,104.040779 312.759377,102.329216 L312.763214,102.325378 C316.777328,98.6758344 317.072823,92.4627843 313.423279,88.4486694 C309.773735,84.4345546 303.556846,84.1428991 299.542732,87.7924421 C295.528618,91.4419861 295.233124,97.6550372 298.882668,101.669151 C300.820648,103.802849 303.480095,104.885048 306.154891,104.885048 L306.154891,104.885048 Z" id="Path"></path>
            <path d="M10.3154297,122.660744 C15.741776,122.660744 20.1396484,118.259033 20.1396484,112.836525 L20.1396484,112.82885 C20.1396484,107.402504 15.741776,103.008468 10.3154297,103.008468 C4.88908337,103.008468 0.491210938,107.410179 0.491210938,112.836525 C0.491210938,118.262871 4.88908337,122.660744 10.3154297,122.660744 Z" id="Path"></path>
            <path d="M348.145752,345.973678 C344.131637,342.324135 337.922424,342.623466 334.27288,346.637581 C330.623336,350.651695 330.922668,356.868583 334.936783,360.518127 C336.8172,362.229691 339.181152,363.073959 341.541268,363.073959 C344.212227,363.073959 346.875511,361.987923 348.813492,359.858063 C352.463035,355.843949 352.167542,349.630898 348.153427,345.981354 L348.145752,345.973678 Z" id="Path"></path>
        </g>
    </g>
</svg>