<?xml version="1.0" encoding="UTF-8"?>
<svg width="513px" height="352px" viewBox="0 0 513 352" version="1.1" xmlns="http://www.w3.org/2000/svg" xmlns:xlink="http://www.w3.org/1999/xlink">
    <!-- Generator: Sketch 53 (72520) - https://sketchapp.com -->
    <title>opera-house</title>
    <desc>Created with Sketch.</desc>
    <g id="Page-1" stroke="none" stroke-width="1" fill="none" fill-rule="evenodd">
        <g id="opera-house" fill="#404348" fill-rule="nonzero">
            <path d="M501.992188,217.601562 L473.339844,217.601562 L509.988281,168.921875 C511.773438,166.546875 512.414062,163.503906 511.734375,160.609375 C511.054688,157.71875 509.125,155.277344 506.464844,153.949219 C504.933594,153.183594 468.441406,135.332031 430.589844,150.828125 C425.703125,152.828125 421.042969,155.285156 416.601562,158.179688 C412.160156,155.285156 407.5,152.828125 402.613281,150.828125 C395.148438,147.773438 387.746094,146.027344 380.644531,145.179688 L404.128906,113.988281 C405.914062,111.613281 406.554688,108.570312 405.875,105.675781 C405.195312,102.78125 403.265625,100.34375 400.605469,99.015625 C398.085938,97.753906 341.90625,70.277344 280.328125,88.890625 C267.644531,67.953125 251.636719,50.445312 232.335938,36.445312 C227.859375,33.199219 221.601562,34.195312 218.355469,38.671875 C215.109375,43.144531 216.105469,49.40625 220.582031,52.648438 C236.675781,64.324219 250.234375,78.855469 261.230469,96.167969 C223.121094,113.859375 192.910156,148.035156 171.15625,198.023438 L112.015625,20.050781 C121.28125,19.949219 135.003906,20.503906 150.761719,23.441406 C156.195312,24.460938 161.421875,20.871094 162.4375,15.4375 C163.449219,10.003906 159.867188,4.777344 154.433594,3.761719 C122.3125,-2.226562 98.144531,0.699219 97.132812,0.828125 C94.160156,1.203125 91.511719,2.890625 89.914062,5.421875 C88.316406,7.957031 87.9375,11.074219 88.882812,13.914062 L111.710938,82.605469 C73.222656,80.941406 48.242188,90.730469 47.070312,91.203125 C44.449219,92.253906 42.394531,94.363281 41.414062,97.007812 C40.429688,99.65625 40.613281,102.59375 41.914062,105.101562 L52.574219,125.65625 C23.582031,131.46875 4.238281,148.640625 3.300781,149.484375 C1.3125,151.28125 0.128906,153.796875 0.0117188,156.472656 C-0.109375,159.148438 0.851562,161.761719 2.671875,163.722656 L52.667969,217.601562 L10.007812,217.601562 C4.480469,217.601562 1.13686838e-13,222.085938 1.13686838e-13,227.613281 L1.13686838e-13,267.652344 C1.13686838e-13,273.179688 4.480469,277.660156 10.007812,277.660156 C15.25,277.660156 17.957031,280.382812 23.101562,286.046875 C28.828125,292.351562 36.671875,300.992188 51.007812,300.992188 C65.347656,300.992188 73.191406,292.351562 78.917969,286.046875 C84.0625,280.382812 86.765625,277.660156 92.007812,277.660156 C97.25,277.660156 99.953125,280.382812 105.097656,286.046875 C110.824219,292.351562 118.671875,300.992188 133.007812,300.992188 C147.34375,300.992188 155.1875,292.351562 160.917969,286.046875 C166.058594,280.382812 168.761719,277.660156 174.003906,277.660156 C179.246094,277.660156 181.953125,280.382812 187.09375,286.046875 C192.824219,292.351562 200.667969,300.992188 215.003906,300.992188 C229.339844,300.992188 237.1875,292.351562 242.914062,286.046875 C248.054688,280.382812 250.761719,277.660156 256.003906,277.660156 C261.246094,277.660156 263.949219,280.382812 269.09375,286.046875 C274.820312,292.351562 282.664062,300.992188 297,300.992188 C302.527344,300.992188 307.011719,296.507812 307.011719,290.980469 C307.011719,285.453125 302.527344,280.972656 297,280.972656 C291.761719,280.972656 289.054688,278.25 283.914062,272.585938 C278.183594,266.28125 270.339844,257.640625 256.003906,257.640625 C241.667969,257.640625 233.820312,266.28125 228.09375,272.585938 C222.953125,278.25 220.246094,280.972656 215.003906,280.972656 C209.761719,280.972656 207.058594,278.25 201.914062,272.585938 C196.1875,266.28125 188.34375,257.640625 174.007812,257.640625 C159.671875,257.640625 151.824219,266.28125 146.097656,272.585938 C140.953125,278.25 138.25,280.972656 133.007812,280.972656 C127.765625,280.972656 125.0625,278.25 119.917969,272.585938 C114.191406,266.28125 106.34375,257.640625 92.007812,257.640625 C77.671875,257.640625 69.828125,266.28125 64.097656,272.585938 C58.957031,278.25 56.253906,280.972656 51.011719,280.972656 C45.769531,280.972656 43.0625,278.25 37.921875,272.585938 C33.691406,267.933594 28.3125,262.007812 20.019531,259.222656 L20.019531,237.621094 L116.71875,237.621094 C116.726562,237.621094 116.738281,237.625 116.746094,237.625 C116.757812,237.625 116.769531,237.621094 116.78125,237.621094 L306.035156,237.621094 L306.058594,237.621094 L306.078125,237.621094 L379.859375,237.621094 C379.882812,237.621094 379.90625,237.625 379.929688,237.625 C379.957031,237.625 379.980469,237.621094 380.007812,237.621094 L453.203125,237.621094 C453.226562,237.621094 453.25,237.625 453.277344,237.625 C453.300781,237.625 453.324219,237.621094 453.347656,237.621094 L491.984375,237.621094 L491.984375,259.222656 C483.691406,262.007812 478.3125,267.929688 474.082031,272.585938 C468.941406,278.25 466.234375,280.972656 460.992188,280.972656 C455.753906,280.972656 453.046875,278.25 447.90625,272.585938 C442.175781,266.28125 434.332031,257.640625 419.996094,257.640625 C405.660156,257.640625 397.816406,266.28125 392.085938,272.585938 C386.945312,278.25 384.238281,280.972656 378.996094,280.972656 C373.46875,280.972656 368.988281,285.453125 368.988281,290.980469 C368.988281,296.507812 373.46875,300.992188 378.996094,300.992188 C393.332031,300.992188 401.179688,292.351562 406.90625,286.046875 C412.050781,280.382812 414.753906,277.660156 419.996094,277.660156 C425.238281,277.660156 427.941406,280.382812 433.085938,286.046875 C438.8125,292.351562 446.65625,300.992188 460.992188,300.992188 C475.328125,300.992188 483.175781,292.351562 488.902344,286.046875 C494.046875,280.382812 496.75,277.660156 501.992188,277.660156 C507.519531,277.660156 512.003906,273.179688 512.003906,267.652344 L512.003906,227.613281 C512,222.082031 507.519531,217.601562 501.992188,217.601562 L501.992188,217.601562 Z M359.863281,217.601562 L326.121094,217.601562 L342.992188,195.191406 L359.863281,217.601562 Z M416.601562,183.855469 C425.195312,192.351562 432.566406,203.625 438.671875,217.601562 L394.53125,217.601562 C400.636719,203.625 408.007812,192.351562 416.601562,183.855469 Z M485.84375,167.707031 L456.015625,207.328125 C449.574219,193.136719 441.84375,181.289062 432.871094,171.832031 C434.546875,170.953125 436.25,170.148438 437.992188,169.429688 C456.089844,161.953125 474.402344,164.570312 485.84375,167.707031 L485.84375,167.707031 Z M400.332031,171.832031 C391.359375,181.289062 383.628906,193.136719 377.1875,207.328125 L351.121094,172.707031 C351.117188,172.703125 351.117188,172.699219 351.113281,172.695312 L347.359375,167.707031 C358.808594,164.570312 377.117188,161.953125 395.207031,169.429688 C396.949219,170.148438 398.65625,170.953125 400.332031,171.832031 Z M380.304688,112.347656 L355.269531,145.597656 C338.945312,147.976562 327.578125,153.527344 326.738281,153.949219 C324.078125,155.277344 322.148438,157.71875 321.46875,160.609375 C320.789062,163.503906 321.429688,166.546875 323.214844,168.921875 L330.464844,178.546875 L314.273438,200.054688 C310.742188,164.527344 302.644531,133.453125 290.046875,106.960938 C327.414062,97.066406 362.828125,106.183594 380.304688,112.347656 Z M271.023438,113.703125 C284.976562,142.230469 293.179688,176.941406 295.5625,217.601562 L184.757812,217.601562 C205.09375,165.25 234.054688,130.34375 271.023438,113.703125 Z M118.519531,103.101562 L156.566406,217.601562 L122.820312,217.601562 L65.253906,106.621094 C76.15625,104.027344 94.804688,101.089844 118.519531,103.101562 Z M24.972656,158.324219 C32.964844,153.191406 46.203125,146.359375 62.273438,144.351562 L100.269531,217.601562 L79.976562,217.601562 L24.972656,158.324219 Z" id="Shape"></path>
            <path d="M501.992188,307.691406 C487.65625,307.691406 479.808594,316.328125 474.082031,322.636719 C468.9375,328.296875 466.234375,331.019531 460.992188,331.019531 C455.75,331.019531 453.046875,328.296875 447.902344,322.636719 C442.175781,316.328125 434.332031,307.691406 419.992188,307.691406 C405.660156,307.691406 397.8125,316.328125 392.085938,322.636719 C386.941406,328.296875 384.238281,331.019531 378.996094,331.019531 C373.753906,331.019531 371.050781,328.296875 365.90625,322.636719 C360.179688,316.328125 352.335938,307.691406 337.996094,307.691406 C323.660156,307.691406 315.816406,316.328125 310.085938,322.636719 C304.945312,328.296875 302.238281,331.019531 297,331.019531 C291.757812,331.019531 289.050781,328.296875 283.910156,322.636719 C278.179688,316.328125 270.335938,307.691406 256,307.691406 C241.664062,307.691406 233.820312,316.328125 228.089844,322.636719 C222.949219,328.296875 220.246094,331.019531 215.003906,331.019531 C209.761719,331.019531 207.054688,328.296875 201.914062,322.636719 C196.183594,316.328125 188.339844,307.691406 174.003906,307.691406 C159.667969,307.691406 151.824219,316.328125 146.09375,322.636719 C140.953125,328.296875 138.246094,331.019531 133.003906,331.019531 C127.761719,331.019531 125.058594,328.296875 119.914062,322.636719 C114.1875,316.328125 106.34375,307.691406 92.007812,307.691406 C77.667969,307.691406 69.824219,316.328125 64.097656,322.636719 C58.953125,328.296875 56.25,331.019531 51.007812,331.019531 C45.765625,331.019531 43.0625,328.296875 37.917969,322.636719 C32.191406,316.328125 24.347656,307.691406 10.007812,307.691406 C4.480469,307.691406 -8.52651283e-14,312.171875 -8.52651283e-14,317.699219 C-8.52651283e-14,323.226562 4.480469,327.707031 10.007812,327.707031 C15.25,327.707031 17.957031,330.429688 23.097656,336.09375 C28.828125,342.402344 36.671875,351.039062 51.007812,351.039062 C65.34375,351.039062 73.1875,342.402344 78.917969,336.09375 C84.058594,330.429688 86.765625,327.707031 92.007812,327.707031 C97.246094,327.707031 99.953125,330.429688 105.09375,336.09375 C110.824219,342.402344 118.667969,351.039062 133.003906,351.039062 C147.339844,351.039062 155.183594,342.402344 160.914062,336.09375 C166.054688,330.429688 168.761719,327.707031 174.003906,327.707031 C179.246094,327.707031 181.949219,330.429688 187.09375,336.09375 C192.820312,342.402344 200.664062,351.039062 215,351.039062 C229.335938,351.039062 237.183594,342.402344 242.910156,336.09375 C248.050781,330.429688 250.757812,327.707031 256,327.707031 C261.242188,327.707031 263.945312,330.429688 269.089844,336.09375 C274.816406,342.402344 282.664062,351.039062 296.996094,351.039062 C311.332031,351.039062 319.179688,342.402344 324.90625,336.09375 C330.050781,330.429688 332.753906,327.707031 337.996094,327.707031 C343.238281,327.707031 345.941406,330.429688 351.085938,336.09375 C356.8125,342.402344 364.65625,351.039062 378.996094,351.039062 C393.328125,351.039062 401.175781,342.402344 406.902344,336.09375 C412.046875,330.429688 414.75,327.707031 419.992188,327.707031 C425.234375,327.707031 427.9375,330.429688 433.082031,336.09375 C438.808594,342.402344 446.652344,351.039062 460.992188,351.039062 C475.328125,351.039062 483.171875,342.402344 488.898438,336.09375 C494.042969,330.429688 496.746094,327.707031 501.988281,327.707031 C507.515625,327.707031 512,323.226562 512,317.699219 C512,312.171875 507.519531,307.691406 501.992188,307.691406 L501.992188,307.691406 Z" id="Path"></path>
            <path d="M187.367188,34.164062 C188.652344,34.714844 189.992188,34.976562 191.304688,34.976562 C195.191406,34.976562 198.882812,32.703125 200.511719,28.90625 C202.6875,23.828125 200.335938,17.941406 195.253906,15.765625 L195.246094,15.761719 C190.164062,13.582031 184.285156,15.9375 182.105469,21.019531 C179.929688,26.101562 182.289062,31.984375 187.367188,34.164062 Z" id="Path"></path>
            <path d="M348.007812,267.648438 C348.007812,262.121094 343.523438,257.640625 337.996094,257.640625 L337.988281,257.640625 C332.460938,257.640625 327.984375,262.121094 327.984375,267.648438 C327.984375,273.175781 332.46875,277.660156 337.996094,277.660156 C343.523438,277.660156 348.007812,273.175781 348.007812,267.648438 L348.007812,267.648438 Z" id="Path"></path>
        </g>
    </g>
</svg>