<svg height="512pt" viewBox="0 0 512.00024 512" width="512pt" xmlns="http://www.w3.org/2000/svg"><path d="m509.65625 498.34375-32-32c-1.5-1.5-3.535156-2.34375-5.65625-2.34375h-56v-32.121094c32.816406-.929687 53.910156-8.3125 63.589844-37.347656.8125-2.441406.402344-5.121094-1.101563-7.207031-1.503906-2.089844-3.917969-3.324219-6.488281-3.324219h-16.953125c-13.609375 0-26.101563-5.6875-33.421875-15.210938-2.640625-3.433593-4.671875-7.246093-6.039062-11.332031-1.09375-3.257812-4.148438-5.457031-7.585938-5.457031h-40v-32.023438c27.902344-.183593 45.84375-2.316406 62.65625-27.539062 1.636719-2.453125 1.789062-5.609375.398438-8.210938-1.394532-2.601562-4.105469-4.226562-7.054688-4.226562h-6.859375c-22.558594 0-42.417969-13.71875-49.5625-34.566406-1.101563-3.25-4.148437-5.433594-7.578125-5.433594h-24v-16.039062c22.371094-.285157 46.253906-2.921876 62.65625-27.523438 1.636719-2.453125 1.789062-5.609375.398438-8.210938-1.394532-2.601562-4.105469-4.226562-7.054688-4.226562h-6.859375c-22.558594 0-42.417969-13.71875-49.5625-34.566406-1.101563-3.25-4.148437-5.429688-7.578125-5.429688h-16v-16.003906c28.617188 0 46.410156-34.933594 47.15625-36.417969 1.367188-2.734375 1.054688-6.011719-.796875-8.433593-1.855469-2.429688-4.914063-3.589844-7.929687-2.988282-30.234376 6.042969-61.8125-19.898437-70.429688-27.644531v-20.515625c0-4.417969-3.582031-8-8-8h-8v-24h-16v24h-8c-4.417969 0-8 3.582031-8 8v20.519531c-8.601562 7.753907-40.109375 33.710938-70.429688 27.636719-3.007812-.601562-6.078124.5625-7.929687 2.988281s-2.164063 5.699219-.796875 8.433594c.746094 1.488281 18.539062 36.421875 47.15625 36.421875v16h-16c-3.417969 0-6.613281 2.632812-7.722656 5.867188-7 20.414062-26.859375 34.132812-49.417969 34.132812h-6.863281c-2.949219 0-5.65625 1.625-7.054688 4.226562-1.390625 2.601563-1.238281 5.757813.398438 8.210938 16.402344 24.601562 40.289062 27.238281 62.65625 27.523438v16.039062h-24c-3.417969 0-6.613282 2.632812-7.722656 5.867188-7 20.414062-26.859376 34.132812-49.417969 34.132812h-6.859375c-2.949219 0-5.660156 1.625-7.054688 4.226562-1.390625 2.601563-1.238281 5.757813.398438 8.210938 16.816406 25.222656 34.753906 27.355469 62.65625 27.539062v32.023438h-40c-3.4375 0-6.492188 2.199219-7.585938 5.457031-1.367187 4.085938-3.398437 7.898438-6.039062 11.332031-7.320313 9.523438-19.8125 15.210938-33.421875 15.210938h-16.949219c-2.570312 0-4.984375 1.234375-6.488281 3.324219-1.503907 2.085937-1.914063 4.765625-1.101563 7.207031 9.679688 29.035156 30.773438 36.417969 63.589844 37.347656v32.121094h-56c-2.121094 0-4.15625.84375-5.65625 2.34375l-32 32c-2.2890625 2.289062-2.972656 5.726562-1.734375 8.71875 1.238281 2.988281 4.15625 4.9375 7.390625 4.9375h496c3.234375 0 6.152344-1.949219 7.390625-4.9375 1.238281-2.992188.554687-6.429688-1.734375-8.71875zm-301.65625-34.34375v-32h96v32zm-23.488281-67.421875c.621093-1.109375 1.183593-2.246094 1.785156-3.363281 1.230469-2.300782 2.445313-4.605469 3.582031-6.941406.644532-1.328126 1.242188-2.667969 1.855469-4.007813 1-2.179687 1.976563-4.363281 2.894531-6.574219.585938-1.417968 1.144532-2.84375 1.695313-4.273437.445312-1.140625.941406-2.265625 1.359375-3.417969h116.632812c.417969 1.136719.90625 2.25 1.34375 3.378906.5625 1.449219 1.128906 2.894532 1.722656 4.332032.90625 2.175781 1.867188 4.332031 2.851563 6.480468.625 1.363282 1.234375 2.734375 1.890625 4.085938 1.128906 2.320312 2.335938 4.605468 3.558594 6.890625.605468 1.128906 1.175781 2.277343 1.804687 3.398437 1.890625 3.378906 3.871094 6.722656 5.972657 10.015625-8.046876 6.042969-17.988282 9.417969-28.101563 9.417969h-98.71875c-10.113281 0-20.054687-3.375-28.097656-9.417969 2.097656-3.285156 4.074219-6.625 5.96875-10.003906zm15.996093-111.996094c.625-1.113281 1.1875-2.25 1.789063-3.367187 1.230469-2.300782 2.445313-4.605469 3.582031-6.941406.644532-1.328126 1.238282-2.667969 1.851563-4.007813 1-2.179687 1.980469-4.363281 2.894531-6.574219.589844-1.417968 1.144531-2.84375 1.699219-4.273437.445312-1.140625.9375-2.265625 1.359375-3.417969h84.632812c.417969 1.136719.90625 2.25 1.34375 3.378906.5625 1.449219 1.125 2.898438 1.722656 4.332032.902344 2.175781 1.867188 4.332031 2.851563 6.480468.625 1.363282 1.234375 2.734375 1.890625 4.085938 1.128906 2.320312 2.335938 4.605468 3.558594 6.890625.605468 1.132812 1.171875 2.277343 1.800781 3.398437 1.894531 3.382813 3.875 6.726563 5.976563 10.015625-8.046876 6.042969-17.988282 9.421875-28.101563 9.421875h-66.71875c-10.113281 0-20.054687-3.378906-28.097656-9.421875 2.097656-3.285156 4.074219-6.625 5.964843-10zm16-96.003906c.625-1.109375 1.1875-2.246094 1.789063-3.363281 1.230469-2.300782 2.445313-4.605469 3.582031-6.941406.644532-1.328126 1.238282-2.667969 1.855469-4.007813.996094-2.179687 1.976563-4.363281 2.890625-6.574219.589844-1.417968 1.144531-2.84375 1.699219-4.273437.445312-1.140625.9375-2.265625 1.359375-3.417969h52.632812c.417969 1.136719.90625 2.25 1.34375 3.378906.5625 1.449219 1.125 2.894532 1.722656 4.332032.90625 2.175781 1.867188 4.332031 2.851563 6.480468.625 1.363282 1.234375 2.734375 1.890625 4.085938 1.128906 2.320312 2.335938 4.605468 3.558594 6.890625.605468 1.128906 1.171875 2.277343 1.800781 3.398437 1.894531 3.382813 3.875 6.726563 5.976563 10.015625-8.046876 6.042969-17.988282 9.421875-28.101563 9.421875h-34.71875c-10.113281 0-20.054687-3.378906-28.097656-9.421875 2.097656-3.285156 4.074219-6.625 5.964843-10.003906zm8.320313-90.964844c.617187-.382812 1.183594-.824219 1.78125-1.230469 1.222656-.832031 2.421875-1.6875 3.554687-2.621093.648438-.535157 1.257813-1.109375 1.878907-1.679688.996093-.910156 1.960937-1.84375 2.875-2.832031.59375-.640625 1.164062-1.296875 1.71875-1.96875.855469-1.027344 1.652343-2.085938 2.421875-3.179688.492187-.699218.984375-1.394531 1.4375-2.117187.75-1.199219 1.417968-2.449219 2.066406-3.710937.347656-.683594.730469-1.34375 1.046875-2.042969.75-1.660157 1.386719-3.371094 1.953125-5.113281.113281-.355469.273438-.6875.378906-1.042969.59375-1.980469 1.070313-4.003907 1.410156-6.074219h17.304688c.339844 2.070312.816406 4.097656 1.40625 6.078125.097656.328125.246094.632813.347656.957031.574219 1.777344 1.226563 3.519532 1.992188 5.207032.300781.667968.664062 1.296874.996094 1.949218.664062 1.304688 1.355468 2.585938 2.128906 3.824219.429687.6875.898437 1.339844 1.359375 2.003906.800781 1.144531 1.636719 2.253907 2.53125 3.324219.519531.625 1.050781 1.234375 1.601562 1.832031.964844 1.046875 1.980469 2.03125 3.03125 2.992188.574219.519531 1.128907 1.050781 1.726563 1.542969 1.207031 1 2.484375 1.910156 3.789062 2.792968.523438.355469 1.015625.742188 1.550782 1.078125 1.882812 1.167969 3.835937 2.242188 5.890624 3.152344-.160156.238281-.371093.433594-.535156.664063-.867187 1.199218-1.828125 2.3125-2.875 3.335937-.53125.519531-1.109375.992187-1.691406 1.464844-.972656.796875-1.984375 1.53125-3.0625 2.171875-.40625.242187-.792969.523437-1.207031.742187-1.535157.796875-3.164063 1.425781-4.847657 1.894531-.402343.113282-.816406.203126-1.226562.296876-1.804688.40625-3.652344.695312-5.558594.695312h-32c-8.589844 0-16.410156-4.339844-21.03125-11.253906 2.039063-.910156 3.984375-1.972656 5.855469-3.132813zm77.152344-10.640625c-1.320313-.472656-2.609375-1-3.839844-1.621094-.671875-.339843-1.335937-.691406-1.976563-1.074218-1.234374-.730469-2.398437-1.554688-3.515624-2.433594-.207032-.164062-.421876-.320312-.625-.488281 3.332031 2.03125 6.910156 4.019531 10.695312 5.867187-.246094-.082031-.492188-.164062-.738281-.25zm-82.671875-5.097656c-1.105469.867188-2.257813 1.679688-3.476563 2.402344-.632812.378906-1.289062.726562-1.953125 1.0625-1.246094.628906-2.550781 1.167968-3.890625 1.640625-.234375.082031-.46875.164062-.707031.242187 3.773438-1.84375 7.34375-3.828125 10.667969-5.847656-.207031.171875-.425781.332031-.640625.5zm28.691406 46.125h16v16h-16zm-8 96h32v16h-32zm-16 96h64v32h-64zm96 112h80v32h-80zm88.9375-53.460938c10.328125 13.4375 27.566406 21.460938 46.109375 21.460938h4.53125c-7.039063 10.804688-20.050781 16-51.578125 16h-60.820312c.84375-.757812 1.671874-1.539062 2.476562-2.34375 2.710938-2.707031 3.117188-6.957031.972656-10.132812l-1.960937-2.90625c-3.054688-4.609376-5.808594-9.367188-8.417969-14.179688-.628906-1.160156-1.246094-2.320312-1.847656-3.492188-2.476563-4.8125-4.796875-9.6875-6.816406-14.664062-.035157-.09375-.066407-.1875-.101563-.28125h71.089844c1.714843 3.726562 3.84375 7.257812 6.363281 10.539062zm-88.9375-26.539062h-16v-32h48v32zm87.199219-56.695312c-10.605469 8.695312-23.269531 8.695312-47.199219 8.695312h-28.820312c.84375-.757812 1.671874-1.539062 2.476562-2.34375 2.710938-2.707031 3.117188-6.957031.972656-10.132812l-1.960937-2.90625c-3.054688-4.609376-5.808594-9.367188-8.417969-14.183594-.628906-1.15625-1.246094-2.320313-1.847656-3.488282-2.476563-4.8125-4.792969-9.691406-6.816406-14.667968-.035157-.089844-.066407-.1875-.101563-.277344h39.03125c9.265625 21.183594 29.292969 36 52.683594 39.304688zm-103.199219-55.304688h-16v-16h32v16zm70.136719-40.855469c-12.828125 8.855469-29.125 8.855469-46.136719 8.855469h-12.820312c.84375-.757812 1.671874-1.539062 2.476562-2.34375 2.710938-2.707031 3.117188-6.957031.972656-10.132812l-1.960937-2.90625c-3.054688-4.609376-5.808594-9.367188-8.417969-14.183594-.628906-1.15625-1.25-2.320313-1.851562-3.488282-2.472657-4.8125-4.792969-9.6875-6.8125-14.664062-.039063-.09375-.066407-.191406-.101563-.28125h23.03125c9.125 20.863281 28.683594 35.550781 51.621094 39.144531zm-78.136719-55.144531h-16v-16h16zm40.5-47.09375c-5.9375 7.300781-14.59375 15.09375-24.5 15.09375h-7.371094c.148438-.191406.25-.417969.394532-.609375.5625-.75 1.023437-1.574219 1.535156-2.363281.683594-1.054688 1.40625-2.074219 1.996094-3.195313 1.027343-1.949219 1.914062-3.984375 2.640624-6.109375l.398438-1.199218c.347656-1.054688.472656-2.164063.371094-3.25-.023438-.246094-.171875-.472657-.21875-.71875-.152344-.824219-.320313-1.652344-.730469-2.402344-.003906 0-.007813-.003906-.007813-.007813 0 0 0 0 0-.003906-.363281-.65625-.808593-1.25-1.324218-1.773437 8.324218 3.40625 17.398437 5.90625 26.816406 6.539062zm-88.5-56.90625h16v8h-16zm-72.527344 56.90625c9.425782-.628906 18.511719-3.132812 26.847656-6.539062-.523437.527343-.972656 1.125-1.335937 1.785156-1.070313 1.953125-1.277344 4.257812-.578125 6.371094l.40625 1.21875c.734375 2.1875 1.652344 4.273437 2.707031 6.265624.367188.6875.832031 1.300782 1.230469 1.964844.757812 1.25 1.503906 2.507813 2.378906 3.660156.085938.117188.148438.253907.238282.367188h-7.367188c-9.542969 0-18.296875-7.515625-24.527344-15.09375zm40.527344 31.09375h16v16h-16zm-26.554688 32h23.070313c-.035156.09375-.0625.1875-.101563.28125-2.015624 4.964844-4.328124 9.832031-6.792968 14.632812-.609375 1.183594-1.238282 2.355469-1.871094 3.527344-2.601562 4.800782-5.339844 9.539063-8.378906 14.121094l-2 2.960938c-2.144532 3.175781-1.738282 7.425781.972656 10.132812.804688.804688 1.632812 1.585938 2.476562 2.34375h-12.820312c-17.011719 0-33.3125 0-46.140625-8.855469 22.796875-3.578125 42.273437-18.152343 51.585937-39.144531zm2.554688 64h32v16h-32zm-34.554688 32h39.074219c-.039062.09375-.066406.1875-.105469.28125-2.015624 4.964844-4.328124 9.832031-6.792968 14.632812-.609375 1.183594-1.238282 2.355469-1.871094 3.527344-2.597656 4.800782-5.339844 9.539063-8.378906 14.121094l-2 2.960938c-2.144532 3.175781-1.738282 7.425781.972656 10.132812.804688.804688 1.632812 1.585938 2.476562 2.34375h-28.820312c-23.929688 0-36.59375 0-47.199219-8.695312 23.246094-3.289063 43.1875-17.988282 52.644531-39.304688zm2.554688 64h48v32h-48zm-107.578125 80h4.53125c18.542969 0 35.78125-8.023438 46.109375-21.460938 2.519531-3.285156 4.648438-6.8125 6.363281-10.539062h71.089844c-.035156.089844-.066406.1875-.101563.28125-2.015624 4.964844-4.328124 9.832031-6.796874 14.632812-.605469 1.183594-1.234376 2.355469-1.867188 3.527344-2.601562 4.796875-5.339844 9.539063-8.378906 14.121094l-2 2.960938c-2.144532 3.175781-1.738282 7.425781.972656 10.132812.804688.804688 1.632812 1.585938 2.476562 2.34375h-60.820312c-31.527344 0-44.539062-5.195312-51.578125-16zm59.578125 32h80v32h-80zm-84.6875 64 16-16h425.375l16 16zm0 0"/></svg>