<?xml version="1.0" encoding="UTF-8"?>
<svg width="451px" height="451px" viewBox="0 0 451 451" version="1.1" xmlns="http://www.w3.org/2000/svg" xmlns:xlink="http://www.w3.org/1999/xlink">
    <!-- Generator: Sketch 53 (72520) - https://sketchapp.com -->
    <title>Group 17</title>
    <desc>Created with Sketch.</desc>
    <g id="Page-1" stroke="none" stroke-width="1" fill="none" fill-rule="evenodd">
        <g id="Group-17" fill="#404348">
            <g id="Group-15" transform="translate(225.500000, 225.500000) scale(-1, 1) rotate(-90.000000) translate(-225.500000, -225.500000) ">
                <path d="M393.2565,360.664549 C389.158818,356.99815 383.031453,357.3754 379.303162,361.523186 C379.286461,361.541852 379.26976,361.560518 379.253059,361.579184 C375.557188,365.756441 375.881387,371.887736 379.992822,375.539398 C381.877107,377.212463 384.182852,378.03475 386.485648,378.03475 C389.210887,378.03475 391.933178,376.883352 393.944195,374.627711 C397.654803,370.465189 397.354182,364.33193 393.2565,360.664549 Z" id="Path" fill-rule="nonzero"></path>
                <path d="M225.482422,450.552077 C284.59994,450.552077 332.887726,426.64896 355.318983,409.068834 C356.77744,407.925793 360.204714,401.577356 356.278141,396.630031 C352.351568,391.682707 346.958458,391.682707 343.457424,393.677904 C339.456602,396.077228 292.737641,431.695092 225.482422,430.688485 C101.381611,430.688485 20.1857227,327.780789 20.1857227,226.651207 C16.5206712,145.372566 88.1746119,20.8063489 225.482422,20.8063489 C376.661785,20.8063489 434.146621,158.91052 431.027344,225.500319 C429.356702,284.931001 411.24599,310.856219 405.682156,323.786361 C402.280693,335.042479 415.192495,342.777655 423.435052,332.986442 C440.82053,301.014904 451,264.452728 451,225.5 C451,100.959789 350.040211,-3.41060513e-13 225.5,-3.41060513e-13 C100.959789,-3.41060513e-13 -5.68434189e-14,100.959789 -5.68434189e-14,225.5 C-5.68434189e-14,350.040211 100.942211,450.552077 225.482422,450.552077 Z" id="Oval"></path>
            </g>
            <g id="Group-16" transform="translate(156.000000, 116.000000)" fill-rule="nonzero">
                <path d="M78.5748836,212.519309 C74.477202,208.85291 68.3498367,209.23016 64.6215457,213.377945 C64.6048445,213.396611 64.5881434,213.415277 64.5714422,213.433943 C60.8755711,217.611201 61.1997703,223.742496 65.3112059,227.394158 C67.195491,229.067223 69.5012352,229.88951 71.804032,229.88951 C74.5292703,229.88951 77.2515613,228.738111 79.2625789,226.482471 C82.9731863,222.319949 82.6725652,216.18669 78.5748836,212.519309 Z" id="Path"></path>
                <path d="M72.1255147,186.907239 C65.7763725,186.907239 63.6313072,181.762173 63.6313072,175.413031 L63.6313072,132.760931 C63.6313072,126.411789 68.7763725,121.266724 75.1255147,121.266724 C100.564,121.266724 121.258505,94.5730408 121.258505,69.1345556 C121.258505,43.6911389 94.564,16.988415 69.1255147,16.988415 C43.6870294,16.988415 16.988415,43.6911389 16.988415,69.1345556 C16.988415,75.4836977 14.8433497,79.6287631 8.49420752,79.6287631 C2.14506536,79.6287631 -4.12114787e-13,75.4836977 -4.12114787e-13,69.1345556 C-4.12114787e-13,31.0158676 31.0109363,-1.27897692e-13 69.1255147,-1.27897692e-13 C107.240093,-1.27897692e-13 138.24692,31.0158676 138.24692,69.1345556 C138.24692,103.33198 113.281846,131.809835 80.6205441,137.299275 L80.6205441,175.413853 C80.6189003,181.762173 78.4754788,186.907239 72.1255147,186.907239 Z" id="Path"></path>
            </g>
        </g>
    </g>
</svg>