<?xml version="1.0" encoding="UTF-8"?>
<svg width="251px" height="503px" viewBox="0 0 251 503" version="1.1" xmlns="http://www.w3.org/2000/svg" xmlns:xlink="http://www.w3.org/1999/xlink">
    <!-- Generator: Sketch 53 (72520) - https://sketchapp.com -->
    <title>Group 16</title>
    <desc>Created with Sketch.</desc>
    <g id="Page-1" stroke="none" stroke-width="1" fill="none" fill-rule="evenodd">
        <g id="Group-16" fill="#404348" fill-rule="nonzero">
            <path d="M0,61.5605734 C0,47.569464 11.0045288,33.8117462 33.0139165,20.2870071 C55.0233043,6.76226809 81.949279,0 113.792648,0 C156.406569,0 189.771364,11.5424921 213.888034,34.6278225 C238.004703,57.713153 250.062857,86.9774511 250.062857,122.421595 C250.062857,141.542778 246.199565,160.080719 238.472865,178.035976 C230.746165,195.991233 222.902512,209.51577 214.941669,218.609991 C206.980827,227.704212 196.210437,238.66375 182.630177,251.488933 C169.049916,264.314117 161.089193,272.125702 158.747769,274.923924 C147.040648,286.583182 139.665272,299.408173 136.621421,313.399283 C133.577569,327.390392 132.055666,375.183508 132.055666,403.632097 C132.055666,416.224095 124.094943,422.52 108.173258,422.52 C93.1881434,422.52 85.6956982,413.892279 85.6956982,396.636577 C85.6956982,313.399283 96.9343659,274.224484 119.412039,251.838709 C122.690032,248.574117 128.894714,242.977757 138.026268,235.049462 C147.157823,227.121167 154.650268,220.125717 160.503828,214.062903 C166.357389,208.000089 172.56207,200.538276 179.118058,191.67724 C185.674046,182.816204 190.708032,173.022574 194.220169,162.296057 C197.732305,151.56954 199.488347,139.910457 199.488347,127.318459 C199.488347,101.668091 191.761763,81.7310596 176.308363,67.5067651 C160.854963,53.2824706 139.080044,46.17043 110.982953,46.17043 C96.4661232,46.17043 83.9396915,48.1524741 73.4032825,52.1166218 C62.8668735,56.0807694 55.3744283,60.5112209 50.9257223,65.4081092 C46.4770163,70.3049975 41.7942381,74.735449 36.8772472,78.6995966 C31.9602563,82.6637443 27.1604086,84.6457884 22.4775602,84.6457884 C16.858142,84.6457884 11.707086,82.5471535 7.02423756,78.3498207 C2.34138911,74.1524878 0,68.5561281 0,61.5605734 Z M107.77705,503 C114.772943,503 121.768837,500.333428 127.101073,495.00028 C137.754881,484.344651 137.754881,467.054588 127.101073,456.388293 C116.436601,445.721998 99.1494927,445.721998 88.4850209,456.388293 L88.4743544,456.398958 C77.8098826,467.065253 77.8205491,484.344651 88.4743544,495.010946 C93.806593,500.344093 100.79182,503 107.77705,503 Z" id="?"></path>
        </g>
    </g>
</svg>