<?xml version="1.0" encoding="UTF-8"?>
<svg width="503px" height="503px" viewBox="0 0 503 503" version="1.1" xmlns="http://www.w3.org/2000/svg" xmlns:xlink="http://www.w3.org/1999/xlink">
    <!-- Generator: Sketch 53 (72520) - https://sketchapp.com -->
    <title>question-mark-button</title>
    <desc>Created with Sketch.</desc>
    <g id="Page-1" stroke="none" stroke-width="1" fill="none" fill-rule="evenodd">
        <g id="question-mark-button" fill="#404348" fill-rule="nonzero">
            <path d="M251.518082,503 L251.518082,491.506614 L251.5,503 C112.821585,503 0,390.174306 0,251.495891 C0,112.821585 112.821585,0 251.5,0 C390.178415,0 503,112.821585 503,251.495891 C503,390.174306 390.182525,503 251.518082,503 Z M251.5,22.988415 C125.496856,22.988415 22.988415,125.497678 22.988415,251.495891 C22.988415,377.498212 125.496856,480.011585 251.5,480.011585 L251.518082,480.011585 C377.506431,480.011585 480.011585,377.497391 480.011585,251.495069 C480.011585,125.496856 377.503144,22.988415 251.5,22.988415 Z" id="Shape"></path>
            <g id="Group" transform="translate(181.638889, 116.709150)">
                <path d="M69.8611111,187.728312 C63.511969,187.728312 58.3669036,182.583247 58.3669036,176.234105 L58.3669036,127.582005 C58.3669036,121.232863 63.511969,116.087797 69.8611111,116.087797 C95.2995964,116.087797 115.994101,95.3941144 115.994101,69.9556291 C115.994101,44.5122124 95.2995964,23.8094886 69.8611111,23.8094886 C44.4226258,23.8094886 23.7240114,44.5122124 23.7240114,69.9556291 C23.7240114,76.3047712 18.5789461,81.4498366 12.2298039,81.4498366 C5.88066176,81.4498366 0.735596405,76.3047712 0.735596405,69.9556291 C0.735596405,31.8369412 31.7465327,0.821073529 69.8611111,0.821073529 C107.97569,0.821073529 138.982516,31.8369412 138.982516,69.9556291 C138.982516,104.153054 114.017443,132.630908 81.3561405,138.120348 L81.3561405,176.234926 C81.3544967,182.583247 76.2110752,187.728312 69.8611111,187.728312 Z" id="Path"></path>
                <circle id="Oval" cx="69.8570016" cy="239.782237" r="18.9282516"></circle>
            </g>
        </g>
    </g>
</svg>