<?xml version="1.0" encoding="UTF-8"?>
<svg width="320px" height="320px" viewBox="0 0 320 320" version="1.1" xmlns="http://www.w3.org/2000/svg" xmlns:xlink="http://www.w3.org/1999/xlink">
    <!-- Generator: Sketch 53 (72520) - https://sketchapp.com -->
    <title>Group 16</title>
    <desc>Created with Sketch.</desc>
    <g id="Page-1" stroke="none" stroke-width="1" fill="none" fill-rule="evenodd">
        <g id="Group-16" fill="#404348" fill-rule="nonzero">
            <g id="happy">
                <path d="M273.137207,46.8627931 C242.917481,16.6430662 202.736816,0 160,0 C127.48291,0 96.171875,9.7094725 69.4580075,28.0761719 C66.6137694,30.03418 65.0567861,37.8821371 68.5655826,41.615358 C72.0743792,45.3485788 78.6962887,45.3344725 81.5405275,43.376465 C106.162109,26.4477537 130.021972,19.5 160,19.5 C236.330566,19.5 300.5,83.6694337 300.5,160 C300.5,236.330566 236.330566,300.5 160,300.5 C83.6694338,300.5 19.5,236.330566 19.5,160 C19.5,130.01709 26.4477537,105.159668 43.3740237,80.5429687 C45.32959,77.6987306 43.787171,70.2582628 40.9429329,68.3026966 C38.101136,66.3471303 30.0317381,66.6162112 28.0737306,69.4604494 C9.70703125,96.1694337 0,127.478027 0,160 C0,202.736816 16.6430662,242.917481 46.8627931,273.137207 C77.0825194,303.356934 117.263184,320 160,320 C202.736816,320 242.917481,303.356934 273.137207,273.137207 C303.356934,242.917481 320,202.736816 320,160 C320,117.263184 303.356934,77.0825194 273.137207,46.8627931 Z" id="Path"></path>
                <path d="M53.9968268,64 C56.5588889,64 59.120951,63.023438 61.0737422,61.0703129 C64.9754193,57.1679688 64.9754193,50.8359377 61.0737422,46.9296876 C57.1681598,43.0234375 50.8372109,43.0234375 46.9316285,46.9296876 L46.9277221,46.9335936 C43.0221397,50.8398437 43.026046,57.1679688 46.9277221,61.0742189 C48.8805143,63.027344 51.4386701,64 53.9968268,64 Z" id="Path"></path>
            </g>
            <path d="M117,94.4176945 C117,89.5500123 120.828613,84.76353 128.485955,80.0581039 C136.143297,75.3526778 145.511181,73 156.589888,73 C171.415804,73 183.023834,77.0157776 191.414326,85.0474532 C199.804817,93.0791288 204,103.260545 204,115.592006 C204,122.244505 202.655912,128.694087 199.967697,134.940946 C197.279481,141.187805 194.550576,145.89316 191.780899,149.057154 C189.011222,152.221147 185.264069,156.034108 180.539326,160.49615 C175.814583,164.958192 173.044948,167.67594 172.230337,168.649477 C168.157283,172.705878 165.591297,177.167854 164.532303,182.035536 C163.473309,186.903218 162.94382,203.531041 162.94382,213.428662 C162.94382,217.809576 160.174185,220 154.634831,220 C149.421322,220 146.814607,216.998308 146.814607,210.994833 C146.814607,182.035536 150.72468,168.406133 158.544944,160.617841 C159.685399,159.482049 161.844085,157.535005 165.021067,154.776652 C168.19805,152.018299 170.804765,149.584494 172.841292,147.475165 C174.877819,145.365836 177.036505,142.769778 179.317416,139.686912 C181.598326,136.604047 183.349713,133.196721 184.571629,129.464831 C185.793545,125.732941 186.404494,121.6766 186.404494,117.295686 C186.404494,108.371602 183.716319,101.435259 178.339888,96.4864491 C172.963456,91.5376389 165.387689,89.0632709 155.61236,89.0632709 C150.561773,89.0632709 146.20367,89.7528489 142.537921,91.1320255 C138.872173,92.5112021 136.265457,94.0526117 134.717697,95.7563004 C133.169936,97.4599892 131.540739,99.0013988 129.830056,100.380575 C128.119373,101.759752 126.449446,102.44933 124.820225,102.44933 C122.865159,102.44933 121.073042,101.719189 119.44382,100.258884 C117.814599,98.7985793 117,96.8515356 117,94.4176945 Z M154.496985,248 C156.930944,248 159.364903,247.072266 161.220055,245.216797 C164.926648,241.50957 164.926648,235.494141 161.220055,231.783203 C157.509752,228.072266 151.49535,228.072266 147.785047,231.783203 L147.781336,231.786914 C144.071033,235.497851 144.074744,241.50957 147.781336,245.220508 C149.636489,247.075977 152.066737,248 154.496985,248 Z" id="?"></path>
        </g>
    </g>
</svg>