<?xml version="1.0" encoding="UTF-8"?>
<svg width="451px" height="451px" viewBox="0 0 451 451" version="1.1" xmlns="http://www.w3.org/2000/svg" xmlns:xlink="http://www.w3.org/1999/xlink">
    <!-- Generator: Sketch 53 (72520) - https://sketchapp.com -->
    <title>Group 17</title>
    <desc>Created with Sketch.</desc>
    <g id="Page-1" stroke="none" stroke-width="1" fill="none" fill-rule="evenodd">
        <g id="Group-17">
            <path d="M89.5556083,56.9636571 C85.4579267,53.2972587 79.3305614,53.6745087 75.6022704,57.8222939 C75.5855693,57.8409599 75.5688681,57.8596259 75.5521669,57.8782919 C71.8562958,62.0555497 72.180495,68.1868446 76.2919306,71.8385068 C78.1762157,73.5115712 80.4819599,74.3338583 82.7847568,74.3338583 C85.509995,74.3338583 88.2322861,73.1824599 90.2433036,70.9268193 C93.9539111,66.7642978 93.65329,60.631038 89.5556083,56.9636571 Z" id="Path" fill="#404348" fill-rule="nonzero" transform="translate(82.910005, 64.389103) scale(-1, 1) rotate(-90.000000) translate(-82.910005, -64.389103) "></path>
            <path d="M225.706384,450.776038 C284.823902,450.776038 333.111688,426.872922 355.542945,409.292796 C357.001401,408.149755 360.428675,401.801317 356.502102,396.853993 C352.575529,391.906669 347.182419,391.906669 343.681385,393.901866 C339.680563,396.301189 292.961602,431.919054 225.706384,430.912447 C101.605573,430.912447 20.4096844,328.00475 20.4096844,226.875168 C16.744633,145.596528 88.3985736,21.0303106 225.706384,21.0303106 C376.885746,21.0303106 434.370583,159.134482 431.251305,225.724281 C429.580664,285.154962 411.469952,311.080181 405.906117,324.010323 C402.504655,335.26644 415.416457,343.001616 423.659014,333.210404 C441.044492,301.238866 451.223962,264.67669 451.223962,225.723962 C451.223962,101.183751 350.264173,0.223961734 225.723962,0.223961734 C101.183751,0.223961734 0.223961734,101.183751 0.223961734,225.723962 C0.223961734,350.264173 101.166173,450.776038 225.706384,450.776038 Z" id="Oval" fill="#404348" transform="translate(225.723962, 225.500000) scale(-1, 1) rotate(-90.000000) translate(-225.723962, -225.500000) "></path>
            <path d="M225,136 L227,316" id="Line-9" stroke="#404348" stroke-width="20" stroke-linecap="round"></path>
            <path d="M223.574464,136.99417 L226.68553,315.227014" id="Line-9" stroke="#404348" stroke-width="20" stroke-linecap="round" transform="translate(225.129997, 226.110592) rotate(91.000000) translate(-225.129997, -226.110592) "></path>
        </g>
    </g>
</svg>