<?xml version="1.0" encoding="UTF-8"?>
<svg width="512px" height="512px" viewBox="0 0 512 512" version="1.1" xmlns="http://www.w3.org/2000/svg" xmlns:xlink="http://www.w3.org/1999/xlink">
    <!-- Generator: Sketch 53 (72520) - https://sketchapp.com -->
    <title>rafting</title>
    <desc>Created with Sketch.</desc>
    <g id="Page-1" stroke="none" stroke-width="1" fill="none" fill-rule="evenodd">
        <g id="rafting" fill="#404348" fill-rule="nonzero">
            <path d="M175.121094,491.84375 L174.695312,491.863281 C169.179688,492.09375 164.890625,496.753906 165.121094,502.273438 C165.347656,507.648438 169.773438,511.855469 175.105469,511.855469 C175.246094,511.855469 175.386719,511.851562 175.53125,511.847656 L176.019531,511.824219 C181.535156,511.578125 185.808594,506.902344 185.558594,501.386719 C185.3125,495.867188 180.625,491.605469 175.121094,491.84375 Z" id="Path"></path>
            <path d="M365.667969,61.632812 L365.460938,61.589844 C360.050781,60.496094 354.8125,64 353.714844,69.410156 C352.617188,74.820312 356.152344,80.105469 361.5625,81.207031 L361.828125,81.257812 C362.476562,81.386719 363.121094,81.445312 363.757812,81.445312 C368.445312,81.445312 372.628906,78.136719 373.5625,73.363281 C374.621094,67.945312 371.089844,62.691406 365.667969,61.632812 L365.667969,61.632812 Z" id="Path"></path>
            <path d="M446.0625,391.617188 C445.820312,391.371094 445.566406,391.144531 445.308594,390.933594 C440.53125,386.496094 434.445312,383.96875 428.449219,383.957031 L403.3125,383.929688 C401.683594,383.914062 400.101562,384.097656 398.578125,384.4375 L382.21875,368.074219 L462.839844,287.453125 C494.539062,255.753906 512,213.4375 512,168.308594 C512,123.175781 494.539062,80.863281 462.839844,49.160156 C431.136719,17.460938 388.824219,0 343.695312,0 C298.5625,0 256.25,17.460938 224.546875,49.160156 L143.925781,129.78125 L127.578125,113.433594 C127.914062,111.90625 128.097656,110.320312 128.070312,108.6875 L128.042969,83.546875 C128.035156,77.554688 125.503906,71.464844 121.066406,66.691406 C120.855469,66.429688 120.628906,66.179688 120.386719,65.9375 L89.367188,34.925781 C84.796875,30.351562 78.921875,27.839844 72.816406,27.839844 C72.78125,27.839844 72.746094,27.839844 72.714844,27.839844 C66.292969,27.867188 60.199219,30.585938 55.085938,35.699219 L35.695312,55.089844 C30.585938,60.199219 27.867188,66.296875 27.839844,72.714844 C27.808594,78.859375 30.324219,84.773438 34.921875,89.371094 L65.9375,120.386719 C66.171875,120.621094 66.417969,120.84375 66.671875,121.050781 C71.449219,125.496094 77.546875,128.035156 83.546875,128.042969 L108.691406,128.070312 C108.800781,128.074219 108.910156,128.074219 109.019531,128.074219 C110.535156,128.074219 112.011719,127.894531 113.4375,127.578125 L129.78125,143.925781 L49.160156,224.546875 C17.457031,256.246094 -5.68434189e-14,298.5625 -5.68434189e-14,343.695312 C-5.68434189e-14,388.824219 17.460938,431.140625 49.160156,462.839844 C71.933594,485.613281 100.632812,501.273438 132.152344,508.121094 C132.867188,508.277344 133.582031,508.351562 134.285156,508.351562 C138.890625,508.351562 143.03125,505.15625 144.046875,500.472656 C145.222656,495.078125 141.796875,489.75 136.398438,488.578125 C108.632812,482.542969 83.355469,468.753906 63.300781,448.699219 C5.402344,390.800781 5.402344,296.589844 63.300781,238.691406 L143.921875,158.066406 L171.808594,185.953125 L91.1875,266.574219 C70.707031,287.058594 59.425781,314.445312 59.425781,343.695312 C59.425781,372.945312 70.707031,400.332031 91.1875,420.8125 C111.667969,441.292969 139.058594,452.574219 168.304688,452.574219 C197.554688,452.574219 224.945312,441.292969 245.425781,420.8125 L326.046875,340.191406 L353.933594,368.074219 L273.308594,448.699219 C253.921875,468.089844 229.550781,481.675781 202.832031,487.984375 C197.457031,489.253906 194.128906,494.640625 195.398438,500.015625 C196.667969,505.390625 202.050781,508.71875 207.429688,507.449219 C237.761719,500.285156 265.433594,484.859375 287.453125,462.839844 L368.074219,382.21875 L384.421875,398.566406 C384.085938,400.09375 383.902344,401.675781 383.929688,403.308594 L383.957031,428.457031 C383.964844,434.449219 386.496094,440.535156 390.933594,445.3125 C391.144531,445.570312 391.371094,445.820312 391.613281,446.0625 L422.628906,477.078125 C427.199219,481.648438 433.074219,484.164062 439.179688,484.164062 L439.285156,484.164062 C445.703125,484.132812 451.800781,481.414062 456.910156,476.304688 L476.300781,456.914062 C486.457031,446.757812 486.78125,432.339844 477.074219,422.632812 L446.0625,391.617188 Z M80.097656,106.214844 C79.90625,106.027344 79.714844,105.847656 79.515625,105.679688 L49.0625,75.226562 C48.5,74.664062 47.832031,73.789062 47.835938,72.808594 C47.839844,71.785156 48.550781,70.515625 49.839844,69.230469 L69.226562,49.839844 C70.515625,48.554688 71.785156,47.84375 72.804688,47.839844 L72.816406,47.839844 C73.792969,47.839844 74.667969,48.507812 75.226562,49.066406 L105.675781,79.511719 C105.84375,79.714844 106.023438,79.90625 106.214844,80.097656 C107.46875,81.351562 108.039062,82.78125 108.039062,83.570312 L108.070312,108.070312 L83.574219,108.042969 C82.78125,108.042969 81.351562,107.46875 80.097656,106.214844 Z M238.355469,399.597656 L112.402344,273.644531 L142.105469,243.941406 L268.058594,369.894531 L238.355469,399.597656 Z M105.332031,406.667969 C88.628906,389.964844 79.429688,367.601562 79.425781,343.691406 C79.425781,323.191406 86.210938,303.835938 98.671875,288.199219 L223.804688,413.332031 C188.867188,441.210938 137.664062,439.003906 105.332031,406.667969 Z M282.199219,355.753906 L156.25,229.800781 L185.953125,200.097656 L220.644531,234.785156 C222.597656,236.738281 225.15625,237.714844 227.714844,237.714844 C230.273438,237.714844 232.832031,236.738281 234.785156,234.785156 C238.691406,230.882812 238.691406,224.550781 234.785156,220.644531 L200.09375,185.953125 L229.796875,156.25 L355.75,282.199219 L326.046875,311.90625 L291.355469,277.214844 C287.449219,273.308594 281.117188,273.308594 277.210938,277.214844 C273.304688,281.117188 273.304688,287.449219 277.210938,291.355469 L311.902344,326.046875 L282.199219,355.753906 Z M273.644531,112.402344 L399.597656,238.355469 L369.894531,268.058594 L243.941406,142.105469 L273.644531,112.402344 Z M340.1875,326.046875 L420.8125,245.425781 C441.292969,224.941406 452.570312,197.554688 452.570312,168.304688 C452.570312,139.058594 441.292969,111.671875 420.8125,91.1875 C416.183594,86.5625 411.121094,82.339844 405.757812,78.640625 C401.214844,75.503906 394.984375,76.644531 391.847656,81.191406 C388.710938,85.738281 389.851562,91.964844 394.398438,95.101562 C398.769531,98.117188 402.894531,101.558594 406.667969,105.332031 C439.003906,137.664062 441.210938,188.871094 413.332031,223.804688 L288.210938,98.679688 C301.933594,87.792969 318.738281,81.128906 336.492188,79.714844 C341.996094,79.277344 346.105469,74.457031 345.667969,68.953125 C345.230469,63.445312 340.421875,59.339844 334.90625,59.777344 C309.039062,61.835938 284.773438,72.992188 266.574219,91.1875 L185.953125,171.8125 L158.066406,143.925781 L238.6875,63.304688 C266.613281,35.378906 303.902344,20 343.691406,20 C383.480469,20 420.773438,35.378906 448.695312,63.304688 C506.597656,121.203125 506.597656,215.410156 448.695312,273.3125 L368.074219,353.933594 L340.1875,326.046875 Z M462.160156,442.769531 L442.769531,462.160156 C441.484375,463.445312 440.214844,464.15625 439.191406,464.160156 C439.1875,464.160156 439.1875,464.160156 439.183594,464.160156 C438.203125,464.160156 437.332031,463.492188 436.769531,462.933594 L406.324219,432.484375 C406.152344,432.285156 405.972656,432.089844 405.785156,431.902344 C404.53125,430.644531 403.957031,429.21875 403.957031,428.425781 L403.929688,403.929688 L428.421875,403.957031 C429.21875,403.957031 430.644531,404.53125 431.902344,405.78125 C432.09375,405.972656 432.289062,406.15625 432.492188,406.328125 L462.933594,436.769531 C463.78125,437.617188 465.546875,439.382812 462.160156,442.769531 L462.160156,442.769531 Z" id="Shape"></path>
        </g>
    </g>
</svg>