<?xml version="1.0" encoding="UTF-8"?>
<svg width="512px" height="513px" viewBox="0 0 512 513" version="1.1" xmlns="http://www.w3.org/2000/svg" xmlns:xlink="http://www.w3.org/1999/xlink">
    <!-- Generator: Sketch 53 (72520) - https://sketchapp.com -->
    <title>rice (1)</title>
    <desc>Created with Sketch.</desc>
    <g id="Page-1" stroke="none" stroke-width="1" fill="none" fill-rule="evenodd">
        <g id="rice-(1)" fill="#404348" fill-rule="nonzero">
            <path d="M502,252.5 L491.28125,252.5 C486.855469,221.679688 462.28125,197.28125 431.375,193.125 C426.78125,158.945312 397.421875,132.5 362,132.5 C356.597656,132.5 351.277344,133.109375 346.09375,134.316406 C335.0625,109.261719 310,92.5 282,92.5 C254,92.5 228.9375,109.261719 217.90625,134.316406 C212.722656,133.109375 207.402344,132.5 202,132.5 C187.402344,132.5 173.460938,136.96875 161.757812,145.226562 L58.050781,4.566406 C54.773438,0.121094 48.511719,-0.828125 44.066406,2.449219 C39.621094,5.726562 38.675781,11.988281 41.953125,16.433594 L147.101562,159.050781 C139.246094,168.925781 134.277344,180.621094 132.617188,193.117188 C131.078125,193.324219 129.546875,193.597656 128.027344,193.90625 L18.054688,44.570312 C14.777344,40.121094 8.515625,39.171875 4.070312,42.449219 C-0.375,45.722656 -1.324219,51.984375 1.949219,56.429688 L108.433594,201.027344 C89.089844,211.535156 75.835938,230.539062 72.71875,252.5 L62,252.5 C56.476562,252.5 52,256.976562 52,262.5 C52,290.558594 57.539062,318.710938 66.945312,344.554688 C68.832031,349.742188 74.570312,352.421875 79.761719,350.53125 C84.949219,348.644531 87.625,342.90625 85.738281,337.714844 C82.71875,329.421875 80.1875,320.972656 78.140625,312.488281 L485.863281,312.488281 C470.824219,374.699219 429.683594,429.804688 380.589844,452.5 L183.394531,452.5 C161.457031,442.367188 140.679688,425.742188 123.195312,404.28125 C119.707031,399.996094 113.40625,399.355469 109.125,402.84375 C104.84375,406.328125 104.199219,412.628906 107.6875,416.910156 C126.296875,439.757812 148.4375,457.753906 172,469.246094 L172,502.496094 C172,508.019531 176.476562,512.496094 182,512.496094 L382,512.496094 C387.523438,512.496094 392,508.019531 392,502.496094 L392,469.25 C464.421875,433.972656 512,344.5 512,262.5 C512,256.976562 507.523438,252.5 502,252.5 L502,252.5 Z M192,492.5 L192,472.5 L372,472.5 L372,492.5 L192,492.5 Z M72.253906,272.492188 L491.746094,272.492188 C491.410156,279.109375 490.742188,285.800781 489.757812,292.5 L74.246094,292.5 C73.257812,285.804688 72.589844,279.109375 72.253906,272.492188 Z M141.90625,212.5 L142,212.5 C144.648438,212.5 147.191406,211.449219 149.066406,209.578125 C150.945312,207.703125 152,205.15625 152,202.5 C152,174.832031 174.394531,152.5 202,152.5 C208.363281,152.5 214.558594,153.675781 220.417969,155.996094 C223.0625,157.046875 226.027344,156.917969 228.574219,155.644531 C231.117188,154.371094 233,152.074219 233.746094,149.328125 C239.65625,127.644531 259.496094,112.5 282,112.5 C304.5,112.5 324.339844,127.644531 330.25,149.328125 C330.996094,152.074219 332.878906,154.371094 335.425781,155.644531 C337.96875,156.917969 340.933594,157.046875 343.582031,155.996094 C349.4375,153.675781 355.632812,152.5 361.996094,152.5 C389.566406,152.5 411.996094,174.929688 411.996094,202.5 C411.996094,208.023438 416.472656,212.5 421.996094,212.5 C446.144531,212.5 466.34375,229.707031 470.992188,252.5 L92.992188,252.5 C97.742188,228.890625 118.496094,212.5 141.90625,212.5 Z" id="Shape"></path>
            <path d="M305.699219,167.960938 C290.417969,161.871094 273.582031,161.871094 258.300781,167.960938 C253.167969,170.003906 250.667969,175.820312 252.710938,180.949219 C254.753906,186.082031 260.570312,188.585938 265.703125,186.539062 C276.210938,182.355469 287.789062,182.355469 298.300781,186.539062 C303.410156,188.578125 309.238281,186.101562 311.292969,180.949219 C313.335938,175.820312 310.832031,170.003906 305.699219,167.960938 Z" id="Path"></path>
            <path d="M385.699219,207.960938 C370.417969,201.871094 353.582031,201.871094 338.300781,207.960938 C333.167969,210.003906 330.667969,215.820312 332.710938,220.949219 C334.753906,226.082031 340.570312,228.582031 345.699219,226.539062 C356.210938,222.355469 367.789062,222.355469 378.300781,226.539062 C383.410156,228.578125 389.238281,226.101562 391.292969,220.949219 C393.335938,215.820312 390.832031,210.003906 385.699219,207.960938 L385.699219,207.960938 Z" id="Path"></path>
            <path d="M225.699219,207.960938 C210.417969,201.871094 193.582031,201.871094 178.300781,207.960938 C173.167969,210.003906 170.667969,215.820312 172.710938,220.949219 C174.753906,226.082031 180.570312,228.582031 185.703125,226.539062 C196.210938,222.355469 207.789062,222.355469 218.300781,226.539062 C223.410156,228.578125 229.242188,226.101562 231.292969,220.949219 C233.335938,215.820312 230.832031,210.003906 225.699219,207.960938 Z" id="Path"></path>
            <path d="M103,377.5 C103,371.980469 98.519531,367.5 93,367.5 C87.480469,367.5 83,371.980469 83,377.5 C83,383.019531 87.480469,387.5 93,387.5 C98.519531,387.5 103,383.019531 103,377.5 Z" id="Path"></path>
        </g>
    </g>
</svg>