<?xml version="1.0" encoding="UTF-8"?>
<svg width="542px" height="503px" viewBox="0 0 542 503" version="1.1" xmlns="http://www.w3.org/2000/svg" xmlns:xlink="http://www.w3.org/1999/xlink">
    <!-- Generator: Sketch 53 (72520) - https://sketchapp.com -->
    <title>snail</title>
    <desc>Created with Sketch.</desc>
    <g id="Page-1" stroke="none" stroke-width="1" fill="none" fill-rule="evenodd">
        <g id="snail" fill="#404348" fill-rule="nonzero">
            <path d="M537.917288,150.272307 L528.461733,140.815695 C519.881145,132.235107 509.596063,126.268851 498.645246,122.948628 L520.67263,84.7956555 C523.590242,79.7424076 521.85933,73.2805483 516.806082,70.3639937 C511.753891,67.4484958 505.292032,69.1772941 502.37442,74.230542 L482.146634,109.267239 L462.516954,75.267187 C459.599342,70.2128824 453.137483,68.4819706 448.085292,71.4006387 C443.032044,74.3171933 441.300076,80.7790525 444.218744,85.8323004 L464.571223,121.084569 C454.890586,122.896849 445.488924,126.720071 437.010838,132.600733 C408.698067,78.6423592 362.0892,37.5960798 304.514721,16.2840966 C242.803172,-6.55802101 175.891492,-4.00286555 116.103179,23.4814349 C67.7591723,45.7032563 30.9630315,85.422292 12.4936324,135.319681 C-5.97682353,185.217069 -3.90987395,239.320214 18.3130042,287.664221 C30.0479097,313.192527 47.8050777,334.74333 69.9370777,350.807628 L4.51009244,398.546132 C0.815789916,401.241832 -0.724911765,406.008708 0.693210084,410.356065 C2.11133193,414.704479 6.16492017,417.646395 10.7373592,417.646395 L248.840229,417.646395 C329.569616,417.646395 404.781853,374.207695 445.126468,304.283298 L472.919332,256.114708 C479.100103,245.40271 485.985708,234.946439 493.383824,225.03755 L538.910607,164.063595 C542.052244,159.857838 541.628498,153.983517 537.917288,150.272307 Z M37.511542,278.839529 C17.6462122,235.623798 15.7990609,187.259714 32.3103529,142.65545 C48.821645,98.0501282 81.7142521,62.5453025 124.929983,42.6810294 C154.908149,28.9013655 186.839139,21.975605 218.877914,21.975605 C245.253712,21.975605 271.705595,26.6716807 297.180008,36.1018739 C351.552618,56.2282143 395.23225,95.5953613 420.819733,147.351525 C391.174435,182.673538 350.636439,208.062357 305.855702,219.255164 C303.842645,210.25083 300.862687,201.395494 296.917941,192.813849 C284.965351,166.811074 263.600532,147.018658 236.761889,137.083351 C209.922189,127.149101 180.82216,128.260773 154.817271,140.212307 C110.815338,160.439036 91.4730861,212.692916 111.699815,256.694849 C128.368559,292.954174 171.428952,308.895893 207.688277,292.226092 C222.253086,285.530697 233.339164,273.56437 238.903866,258.530376 C244.468567,243.497439 243.846158,227.196435 237.149706,212.632683 C231.558586,200.467691 221.564103,191.208687 209.007067,186.561221 C196.451088,181.912697 182.83733,182.432605 170.672338,188.025838 C149.524147,197.74663 140.228158,222.860702 149.94895,244.008893 C152.386809,249.310471 158.660571,251.634204 163.960036,249.196345 C169.261613,246.758485 171.58429,240.486836 169.147487,235.185258 C164.292903,224.622258 168.935086,212.080017 179.497029,207.224376 C186.533746,203.989748 194.408443,203.689639 201.671298,206.376884 C208.93521,209.065187 214.715483,214.420658 217.950111,221.457374 C222.287958,230.893908 222.691626,241.454794 219.086088,251.194607 C215.48055,260.93442 208.298006,268.688651 198.861473,273.026498 C173.188395,284.82692 142.699832,273.542179 130.897296,247.869101 C115.536775,214.453416 130.226277,174.771366 163.641962,159.410845 C206.734057,139.602578 257.909023,158.544332 277.718347,201.637483 C290.008032,228.371511 291.150349,258.291557 280.936067,285.885756 C270.721786,313.481013 250.373534,335.444994 223.63845,347.734679 C189.579221,363.391082 151.462176,364.847246 116.307126,351.833706 C108.65434,349.001689 101.343933,345.555716 94.4245126,341.549681 C94.0937584,341.327769 93.752437,341.124878 93.401605,340.943122 C69.0135021,326.545275 49.5909391,305.118109 37.511542,278.839529 Z M476.451956,212.39492 C468.557181,222.967431 461.210845,234.124309 454.615838,245.553821 L426.822975,293.722412 C390.240292,357.12683 322.040466,396.515111 248.839172,396.515111 L43.1428172,396.515111 L89.2856702,362.847926 C95.5964181,366.181887 102.16395,369.133313 108.969244,371.651483 C127.235752,378.413452 146.193357,381.779113 165.10658,381.778057 C188.073391,381.778057 210.970458,376.812517 232.461027,366.934273 C264.324387,352.288097 288.575116,326.109905 300.749618,293.221525 C307.116372,276.023363 309.78037,258.067532 308.779653,240.291342 L309.229817,240.1825 C360.909897,227.680414 407.543069,197.944237 440.701971,156.398128 L446.559384,151.78659 C466.649796,135.968508 495.438092,137.675116 513.517561,155.756697 L516.508086,158.747223 L476.451956,212.39492 Z" id="Shape"></path>
            <path d="M441.275771,39.2096954 C439.310267,37.2441912 436.584979,36.1145546 433.805798,36.1145546 C431.027674,36.1145546 428.30133,37.2452479 426.335826,39.2096954 C424.370321,41.1751996 423.240685,43.9004874 423.240685,46.6796681 C423.240685,49.4588487 424.371378,52.1841366 426.335826,54.1496408 C428.30133,56.115145 431.026618,57.2447815 433.805798,57.2447815 C436.584979,57.2447815 439.310267,56.1140882 441.275771,54.1496408 C443.241275,52.1851933 444.370912,49.4588487 444.370912,46.6796681 C444.370912,43.9004874 443.240218,41.1751996 441.275771,39.2096954 Z" id="Path"></path>
            <path d="M537.946876,39.2096954 C535.981372,37.2441912 533.256084,36.1145546 530.476903,36.1145546 C527.697723,36.1145546 524.972435,37.2452479 523.006931,39.2096954 C521.041426,41.1751996 519.91179,43.9004874 519.91179,46.6796681 C519.91179,49.4588487 521.042483,52.1841366 523.006931,54.1496408 C524.971378,56.115145 527.697723,57.2447815 530.476903,57.2447815 C533.255027,57.2447815 535.981372,56.1140882 537.946876,54.1496408 C539.922947,52.1841366 541.042017,49.4588487 541.042017,46.6796681 C541.042017,43.9004874 539.921891,41.1751996 537.946876,39.2096954 Z" id="Path"></path>
            <path d="M75.9043908,261.180637 L75.7680735,260.880527 C73.3460651,255.571553 67.0796996,253.230912 61.7707248,255.653977 C56.4628067,258.075985 54.122166,264.342351 56.5441744,269.651326 L56.7153634,270.023292 C58.4980546,273.890897 62.3212773,276.169191 66.3167458,276.169191 C67.7961576,276.169191 69.2998739,275.856401 70.7317332,275.197006 C76.0301408,272.75492 78.3464769,266.479044 75.9043908,261.180637 Z" id="Path"></path>
            <path d="M147.766817,67.0649055 C145.328958,61.7633277 139.058366,59.4406513 133.754674,61.8785105 C102.599319,76.2002731 77.5370273,99.7229202 61.2751218,129.903977 C45.5553151,159.08009 39.3502395,193.123468 43.8022122,225.760349 C44.5250105,231.0577 49.0562374,234.89783 54.2574265,234.89783 C54.7329517,234.89783 55.2148172,234.866128 55.6987962,234.799555 C61.4801261,234.012296 65.5273739,228.686414 64.7390588,222.905084 C56.7248739,164.151303 88.7330042,105.829721 142.580422,81.0770483 C147.882,78.6402458 150.204676,72.3664832 147.766817,67.0649055 Z" id="Path"></path>
            <path d="M530.446258,396.516168 L393.099784,396.516168 C387.264561,396.516168 382.53467,401.246059 382.53467,407.081282 C382.53467,412.916504 387.264561,417.646395 393.099784,417.646395 L530.446258,417.646395 C536.281481,417.646395 541.011372,412.916504 541.011372,407.081282 C541.011372,401.246059 536.281481,396.516168 530.446258,396.516168 Z" id="Path"></path>
            <path d="M488.441532,438.776622 L423.950803,438.776622 C418.11558,438.776622 413.385689,443.506513 413.385689,449.341735 C413.385689,455.176958 418.11558,459.906849 423.950803,459.906849 L488.441532,459.906849 C494.276754,459.906849 499.006645,455.176958 499.006645,449.341735 C499.006645,443.506513 494.276754,438.776622 488.441532,438.776622 Z" id="Path"></path>
            <path d="M373.517655,438.776622 L84.3771933,438.776622 C78.5419706,438.776622 73.8120798,443.506513 73.8120798,449.341735 C73.8120798,455.176958 78.5419706,459.906849 84.3771933,459.906849 L373.518712,459.906849 C379.352878,459.906849 384.082769,455.176958 384.082769,449.341735 C384.082769,443.506513 379.352878,438.776622 373.517655,438.776622 Z" id="Path"></path>
            <path d="M155.369937,481.037076 L122.17405,481.037076 C116.338828,481.037076 111.608937,485.766966 111.608937,491.602189 C111.608937,497.437412 116.338828,502.167303 122.17405,502.167303 L155.369937,502.167303 C161.20516,502.167303 165.93505,497.437412 165.93505,491.602189 C165.93505,485.766966 161.20516,481.037076 155.369937,481.037076 Z" id="Path"></path>
            <path d="M452.250893,481.037076 L210.322687,481.037076 C204.487464,481.037076 199.757574,485.766966 199.757574,491.602189 C199.757574,497.437412 204.487464,502.167303 210.322687,502.167303 L452.249836,502.167303 C458.085059,502.167303 462.81495,497.437412 462.81495,491.602189 C462.81495,485.766966 458.086116,481.037076 452.250893,481.037076 Z" id="Path"></path>
        </g>
    </g>
</svg>