<?xml version="1.0" encoding="UTF-8"?>
<svg width="579px" height="341px" viewBox="0 0 579 341" version="1.1" xmlns="http://www.w3.org/2000/svg" xmlns:xlink="http://www.w3.org/1999/xlink">
    <!-- Generator: Sketch 53 (72520) - https://sketchapp.com -->
    <title>tortoise</title>
    <desc>Created with Sketch.</desc>
    <g id="Page-1" stroke="none" stroke-width="1" fill="none" fill-rule="evenodd">
        <g id="tortoise" fill="#404348" fill-rule="nonzero">
            <path d="M514.697074,0.559775391 C514.693682,0.559775391 514.689158,0.559775391 514.685766,0.559775391 C514.682373,0.559775391 514.67785,0.559775391 514.674457,0.559775391 C464.630537,0.559775391 423.916207,41.2707129 423.916207,91.3123711 L423.916207,132.119432 C421.125246,126.841711 418.114898,121.663506 414.829752,116.62892 C394.582846,85.5902227 366.139471,60.9748066 332.577826,45.4447148 C332.55634,45.4345371 332.534854,45.4254902 332.513367,45.4153125 C332.473787,45.3972188 332.435338,45.3802559 332.395758,45.363293 C306.520564,33.4078477 278.823557,27.3441797 250.069195,27.3441797 C221.421135,27.3441797 193.797633,33.372791 167.96315,45.2626465 C167.96202,45.2626465 167.96202,45.2637773 167.960889,45.2637773 C134.289551,60.7520273 105.747791,85.3674434 85.4239863,116.449113 C64.5585,148.357441 53.5303594,185.457545 53.5303594,223.736004 C53.5303594,225.411938 53.6818945,227.064123 53.9827031,228.693691 L11.3436504,228.693691 C5.07982031,228.692561 0,233.77125 0,240.036211 C0,246.301172 5.07982031,251.379861 11.3436504,251.379861 L46.6061074,251.379861 C35.8312793,262.126418 22.7879473,275.14374 6.97740234,290.929406 C4.84686328,293.056553 3.6492832,295.942506 3.64815234,298.952854 C3.64702148,301.963201 4.84233984,304.850285 6.97061719,306.978563 C29.625123,329.631937 59.3802949,340.958625 89.1377285,340.958625 C118.895162,340.958625 148.651465,329.633068 171.305971,306.978563 C171.393047,306.890355 171.480123,306.799887 171.566068,306.709418 C178.091127,299.738801 185.742521,291.313898 190.722826,285.024059 C209.824172,286.820994 229.748783,287.738121 250.066934,287.738121 L250.282928,287.738121 C253.27292,287.738121 257.268246,287.664615 261.584736,287.55266 L258.201205,290.936191 C256.072928,293.063338 254.877609,295.94816 254.877609,298.957377 C254.877609,301.966594 256.072928,304.851416 258.200074,306.979693 C280.85458,329.633068 310.608621,340.958625 340.366055,340.958625 C370.123488,340.958625 399.883184,329.630807 422.53882,306.97517 L434.730615,294.773197 C446.77766,282.725021 453.413543,266.709791 453.413543,249.679049 C453.413543,244.279195 452.721457,238.91666 451.38365,233.727146 C469.566738,230.681742 486.174539,222.503367 499.237096,209.915771 C516.523412,193.25482 526.042986,170.267842 526.042986,145.186512 L526.042986,128.14333 C556.102359,122.764963 579,96.4453418 579,64.8604395 C579,29.4057363 550.154039,0.559775391 514.697074,0.559775391 Z M334.625813,71.9384883 C380.651789,97.6010801 412.473041,142.974551 421.36725,194.356277 C410.992746,188.3729 399.132293,185.456414 386.941629,185.996965 L308.752881,107.807086 C320.176822,98.1597246 329.092518,85.7926465 334.625813,71.9384883 Z M361.353674,192.494883 C355.201799,195.540287 349.544109,199.602334 344.551365,204.595078 L336.755221,212.390092 L261.624316,212.390092 L261.624316,128.449793 C271.215135,127.247689 280.542463,124.532496 289.248949,120.391289 L361.353674,192.494883 Z M179.42441,252.04933 C179.408578,252.317344 179.375783,252.581965 179.355428,252.848848 C179.314717,253.367912 179.27966,253.889238 179.219725,254.407172 C179.177883,254.770178 179.114555,255.129791 179.063666,255.491666 C179.00373,255.911215 178.952842,256.331895 178.879336,256.749182 C178.80583,257.172123 178.709707,257.590541 178.6215,258.01009 C178.549125,258.360656 178.488059,258.713484 178.405506,259.061789 C178.294682,259.535619 178.160109,260.004926 178.033453,260.474232 C177.955424,260.763732 177.887572,261.056625 177.801627,261.343863 C177.654615,261.842572 177.483855,262.334496 177.31875,262.827551 C177.233936,263.080863 177.159299,263.336437 177.06883,263.587488 C176.896939,264.069234 176.70017,264.544195 176.509055,265.019156 C176.406146,265.275861 176.312285,265.535959 176.204854,265.790402 C176.030701,266.199773 175.836193,266.600098 175.64734,267.003814 C175.507113,267.306885 175.373672,267.614479 175.225529,267.914156 C173.442164,270.819334 163.48834,282.125666 155.130158,291.062848 C121.37966,324.679904 68.1399316,327.154225 31.5260977,298.477893 C65.0255449,265.03725 108.795457,221.396256 112.725193,217.622578 C129.080812,204.458244 152.556322,205.731592 167.455395,220.637449 C170.074465,223.255389 172.314697,226.186576 174.117287,229.350721 C177.63426,235.518428 179.491131,242.546719 179.491131,249.675656 C179.493393,250.468389 179.469645,251.258859 179.42441,252.04933 Z M112.425516,217.871367 C112.454918,217.847619 112.506938,217.803516 112.555564,217.762805 C112.573658,217.746973 112.594014,217.731141 112.613238,217.716439 C112.530686,217.786553 112.466227,217.838572 112.425516,217.871367 Z M238.937016,264.941127 C225.953619,264.719479 213.17717,264.121254 200.744502,263.128359 C200.844018,262.663576 200.917523,262.190877 201.007992,261.722701 C201.099592,261.244348 201.196846,260.767125 201.278268,260.28651 C201.39927,259.569545 201.497654,258.849187 201.593777,258.12883 C201.654844,257.674225 201.724957,257.221881 201.775846,256.766145 C201.864053,255.974543 201.925119,255.18068 201.985055,254.385686 C202.014457,253.997801 202.056299,253.612178 202.077785,253.224293 C202.144506,252.042545 202.181824,250.859666 202.181824,249.675656 C202.181824,248.538012 202.143375,247.40376 202.083439,246.270639 C202.075523,246.125889 202.071,245.981139 202.061953,245.836389 C201.997494,244.759811 201.901371,243.685494 201.7815,242.615701 C201.761145,242.427979 201.740789,242.242518 201.718172,242.054795 C201.591516,240.99518 201.437719,239.940088 201.257912,238.89065 C201.22851,238.717629 201.195715,238.545738 201.165182,238.373848 C200.970674,237.29727 200.755811,236.225215 200.507021,235.159945 C200.500236,235.131674 200.496844,235.103402 200.490059,235.076262 L238.938146,235.076262 L238.938146,264.941127 L238.937016,264.941127 Z M238.937016,212.390092 L190.103115,212.390092 C188.112803,209.63758 185.923459,207.01851 183.50342,204.59734 C160.272176,181.351395 123.581443,179.474168 98.1529395,200.232223 C98.1043125,200.271803 97.9889648,200.367926 97.9403379,200.407506 L97.9414688,200.408637 C97.3669922,200.915262 94.867793,203.317207 76.2493242,221.841814 C76.934625,159.312076 111.543445,101.85198 165.841658,71.7439805 C165.856359,71.7812988 165.873322,71.8163555 165.888023,71.8536738 C166.105148,72.3953555 166.340367,72.9291211 166.56767,73.4662793 C166.811936,74.0464102 167.047154,74.6276719 167.303859,75.2021484 C167.540209,75.7291289 167.793521,76.2470625 168.038918,76.7695195 C168.308063,77.3428652 168.569291,77.9196035 168.849744,78.4872949 C169.104188,79.0007051 169.375594,79.5050684 169.640215,80.0128242 C169.934238,80.5793848 170.220346,81.148207 170.526809,81.7079824 C170.799346,82.2078223 171.089977,82.6974844 171.371561,83.1916699 C171.688201,83.7480527 171.998057,84.3066973 172.327137,84.8562949 C172.623422,85.3516113 172.93667,85.83675 173.243133,86.3252812 C173.577867,86.8613086 173.904686,87.4007285 174.249598,87.927709 C174.569631,88.4162402 174.905496,88.8945937 175.234576,89.3774707 C175.586273,89.8931426 175.931186,90.4144687 176.293061,90.9233555 C176.633449,91.401709 176.98967,91.8687539 177.339105,92.3403223 C177.708896,92.8401621 178.073033,93.3445254 178.453002,93.8364492 C178.814877,94.3057559 179.192584,94.762623 179.564637,95.2251445 C179.95026,95.7057598 180.330229,96.1920293 180.726029,96.6635977 C181.10826,97.1204648 181.506322,97.5660234 181.89873,98.0161055 C182.301316,98.478627 182.698248,98.9468027 183.111012,99.4014082 C183.515859,99.8480977 183.936539,100.282348 184.350434,100.722252 C184.76659,101.163287 185.177092,101.608846 185.602295,102.043096 C186.028629,102.477346 186.468533,102.896895 186.903914,103.324359 C187.335902,103.747301 187.762236,104.174766 188.203271,104.590922 C188.646568,105.008209 189.103436,105.410795 189.554648,105.819035 C190.0036,106.223883 190.445766,106.635516 190.903764,107.031316 C190.967092,107.086729 191.028158,107.145533 191.092617,107.199814 L165.777199,132.520887 C161.347623,136.950463 161.348754,144.133682 165.77833,148.564389 C170.206775,152.992834 177.391125,152.993965 181.821832,148.563258 L210.421266,119.959301 C219.38785,124.344773 229.019379,127.203586 238.939277,128.447531 L238.939277,212.390092 L238.937016,212.390092 Z M250.346256,106.479457 C250.323639,106.479457 250.302152,106.476064 250.280666,106.476064 C250.25918,106.476064 250.237693,106.479457 250.216207,106.479457 C237.516656,106.467018 225.134877,102.940998 214.412068,96.2791055 C214.412068,96.2791055 214.410938,96.2791055 214.410938,96.2779746 C213.509643,95.7170684 212.626441,95.1324141 211.75568,94.5319277 C211.489928,94.3498594 211.232092,94.1576133 210.968602,93.9710215 C210.366984,93.5435566 209.771021,93.1104375 209.184105,92.663748 C208.883297,92.4341836 208.585881,92.2023574 208.288465,91.9682695 C207.743391,91.538543 207.203971,91.1009004 206.672467,90.6542109 C206.384098,90.412207 206.095729,90.1724648 205.813014,89.9259375 C205.249846,89.4385371 204.699117,88.9398281 204.152912,88.4354648 C203.924479,88.2239941 203.692652,88.0193086 203.467611,87.8055762 C202.707674,87.0840879 201.962438,86.3478984 201.237557,85.5924844 C201.159527,85.5110625 201.084891,85.4251172 201.00573,85.3425645 C200.363402,84.6663105 199.734645,83.978748 199.121719,83.2776152 C198.893285,83.0175176 198.673898,82.7506348 198.448857,82.4871445 C197.99199,81.9499863 197.539646,81.4071738 197.099742,80.8553145 C196.857738,80.553375 196.621389,80.248043 196.385039,79.9415801 C195.968883,79.4021602 195.560643,78.8548242 195.160318,78.301834 C194.93867,77.9976328 194.718152,77.6934316 194.501027,77.3858379 C194.067908,76.7672578 193.64949,76.1396309 193.236727,75.5074805 C193.077275,75.2632148 192.91217,75.0234727 192.756111,74.7769453 C192.197467,73.8982676 191.658047,73.0071504 191.141244,72.1035937 C191.04399,71.932834 190.952391,71.7564199 190.857398,71.5856602 C190.442373,70.847209 190.038656,70.1019727 189.651902,69.3488203 C189.489059,69.0310488 189.333,68.707623 189.175811,68.386459 C188.868217,67.7622246 188.566277,67.1357285 188.277908,66.5024473 C188.118457,66.15075 187.960137,65.7979219 187.80634,65.4439629 C187.53041,64.8129434 187.26692,64.1762695 187.011346,63.537334 C186.874512,63.1946836 186.734285,62.8542949 186.604236,62.5093828 C186.544301,62.3521934 186.492281,62.1916113 186.433477,62.0344219 C206.654373,54.0629941 228.015176,50.0292187 250.072588,50.0292187 C272.279273,50.0303496 293.761078,54.1138828 314.076967,62.1791719 C308.739311,76.4449629 298.649783,88.7351426 285.448131,96.7054395 C274.892689,103.089141 262.757438,106.467018 250.346256,106.479457 Z M261.625447,235.078523 L314.064527,235.078523 L285.098695,264.03757 C279.651346,264.266004 270.02434,264.631271 261.626578,264.854051 L261.626578,235.078523 L261.625447,235.078523 Z M418.681459,278.733088 L406.489664,290.935061 C372.743689,324.679904 319.41123,327.193805 282.74877,298.473369 L344.541188,236.688867 L349.475127,231.756059 C349.476258,231.754928 349.476258,231.753797 349.477389,231.752666 L360.594867,220.637449 C367.029457,214.202859 375.167121,210.170215 384.143883,208.976027 C396.975744,207.251467 409.561078,211.504629 418.685982,220.63858 C421.305053,223.25652 423.545285,226.187707 425.347875,229.348459 C425.3671,229.383516 425.386324,229.417441 425.40668,229.451367 C425.408941,229.45476 425.410072,229.457021 425.412334,229.460414 C425.412334,229.461545 425.413465,229.461545 425.413465,229.462676 C425.413465,229.463807 425.414596,229.464937 425.415727,229.464937 C425.442867,229.511303 425.470008,229.556537 425.497148,229.602902 C428.916867,235.703889 430.72285,242.639449 430.72285,249.676787 C430.72285,260.648385 426.448201,270.967477 418.681459,278.733088 Z M503.352293,117.819715 L503.352293,145.185381 C503.352293,179.667545 479.643826,206.517539 446.603508,211.54534 L446.603508,91.3101094 C446.603508,57.6353789 471.186129,29.593459 503.352293,24.1879512 L503.352293,117.819715 Z M526.040725,104.90417 L526.040725,24.8189707 C543.491016,29.769873 556.311568,45.8461699 556.311568,64.8615703 C556.311568,83.8769707 543.491016,99.9532676 526.040725,104.90417 Z" id="Shape"></path>
            <path d="M483.43899,59.5601016 C482.917664,59.0387754 482.339795,58.5615527 481.715561,58.1533125 C481.102635,57.7450723 480.444475,57.393375 479.75352,57.1095293 C479.072742,56.8256836 478.35917,56.6108203 477.632027,56.4626777 C476.168695,56.1675234 474.660129,56.1675234 473.196797,56.4626777 C472.482094,56.5983809 471.767391,56.8256836 471.076436,57.1095293 C470.394527,57.393375 469.736367,57.7450723 469.124572,58.1533125 C468.500338,58.5615527 467.922469,59.0376445 467.400012,59.5601016 C465.289828,61.6702852 464.076416,64.5969492 464.076416,67.5801563 C464.076416,68.3174766 464.154445,69.0661055 464.302588,69.7921172 C464.438291,70.5181289 464.665594,71.232832 464.939262,71.9136094 C465.223107,72.6056953 465.574805,73.2638555 465.983045,73.8756504 C466.402594,74.4998848 466.879816,75.0777539 467.401143,75.6002109 C467.922469,76.1215371 468.501469,76.5987598 469.125703,77.007 C469.738629,77.4152402 470.395658,77.7669375 471.077566,78.0507832 C471.768521,78.3346289 472.483225,78.5608008 473.197928,78.7089434 C473.935248,78.8559551 474.685008,78.9249375 475.422328,78.9249375 C476.158518,78.9249375 476.908277,78.8570859 477.633158,78.7089434 C478.360301,78.5619316 479.075004,78.3346289 479.75465,78.0507832 C480.446736,77.7669375 481.104896,77.4152402 481.716691,77.007 C482.340926,76.5987598 482.918795,76.122668 483.441252,75.6002109 C483.962578,75.0788848 484.439801,74.4998848 484.848041,73.8756504 C485.256281,73.2627246 485.607979,72.6045645 485.891824,71.9136094 C486.17567,71.232832 486.390533,70.5181289 486.538676,69.7921172 C486.686818,69.0661055 486.765979,68.3174766 486.765979,67.5801563 C486.763717,64.5969492 485.550305,61.6702852 483.43899,59.5601016 Z" id="Path"></path>
            <path d="M157.80351,162.838096 C157.667807,162.112084 157.440504,161.397381 157.156658,160.705295 C156.872813,160.024518 156.521115,159.366357 156.112875,158.754562 C155.705766,158.130328 155.229674,157.552459 154.706086,157.030002 C154.18476,156.508676 153.60576,156.031453 152.981525,155.623213 C152.3686,155.214973 151.710439,154.863275 151.019484,154.57943 C150.338707,154.295584 149.625135,154.069412 148.899123,153.932578 C147.435791,153.637424 145.927225,153.637424 144.475201,153.932578 C143.749189,154.068281 143.034486,154.295584 142.3424,154.57943 C141.660492,154.863275 141.003463,155.214973 140.391668,155.623213 C139.766303,156.031453 139.188434,156.507545 138.665977,157.030002 C138.14465,157.551328 137.667428,158.130328 137.247879,158.754562 C136.839639,159.367488 136.49925,160.025648 136.215404,160.705295 C135.931559,161.397381 135.705387,162.112084 135.557244,162.838096 C135.410232,163.564107 135.342381,164.312736 135.342381,165.050057 C135.342381,165.787377 135.410232,166.536006 135.557244,167.262018 C135.704256,167.988029 135.931559,168.702732 136.215404,169.38351 C136.49925,170.075596 136.839639,170.733756 137.247879,171.345551 C137.667428,171.969785 138.14465,172.547654 138.665977,173.070111 C139.187303,173.592568 139.766303,174.06866 140.391668,174.4769 C141.004594,174.885141 141.661623,175.236838 142.3424,175.520684 C143.034486,175.804529 143.749189,176.030701 144.475201,176.167535 C145.201213,176.314547 145.949842,176.394838 146.687162,176.394838 C147.423352,176.394838 148.173111,176.315678 148.899123,176.167535 C149.625135,176.031832 150.339838,175.804529 151.019484,175.520684 C151.71157,175.236838 152.36973,174.885141 152.981525,174.4769 C153.60576,174.06866 154.183629,173.592568 154.706086,173.070111 C155.228543,172.548785 155.705766,171.969785 156.112875,171.345551 C156.521115,170.732625 156.872812,170.074465 157.156658,169.38351 C157.440504,168.702732 157.666676,167.988029 157.80351,167.262018 C157.950521,166.536006 158.030812,165.787377 158.030812,165.050057 C158.030812,164.312736 157.950521,163.564107 157.80351,162.838096 Z" id="Path"></path>
        </g>
    </g>
</svg>