<?xml version="1.0" encoding="UTF-8"?>
<svg width="546px" height="545px" viewBox="0 0 546 545" version="1.1" xmlns="http://www.w3.org/2000/svg" xmlns:xlink="http://www.w3.org/1999/xlink">
    <!-- Generator: Sketch 53 (72520) - https://sketchapp.com -->
    <title>surfboard</title>
    <desc>Created with Sketch.</desc>
    <g id="Page-1" stroke="none" stroke-width="1" fill="none" fill-rule="evenodd">
        <g id="surfboard" fill="#404348" fill-rule="nonzero">
            <path d="M529.386635,16.1289599 C508.442688,-4.81914547 473.902015,-5.36384529 426.725121,14.5073316 C421.30722,16.7900854 418.76667,23.0312732 421.049424,28.4450147 C423.332176,33.862915 429.569207,36.4076233 434.991265,34.1248706 C461.403008,22.998009 496.613121,13.4553528 514.334602,31.1809924 C522.280579,39.1228101 525.369988,50.7403186 523.78994,66.7029566 C519.266014,112.428704 475.88955,186.06308 404.779091,268.728676 C374.824714,303.547936 341.82251,337.755967 308.1176,369.22802 L176.287575,237.402153 C235.934372,173.534966 303.111343,114.636611 362.492028,74.7362524 C367.373543,71.4555738 368.670845,64.8443225 365.390167,59.9628064 C362.113647,55.0854492 355.502395,53.788147 350.62088,57.0646667 C287.74746,99.3143079 216.420784,162.295837 154.054641,230.075721 C154.029694,230.10067 154.000587,230.12146 153.97564,230.146409 C153.717842,230.404205 153.472519,230.674476 153.247986,230.957222 C143.281212,241.809655 133.534813,252.778511 124.104424,263.809739 C80.9691236,314.250679 7.61749268,409.036903 1.00624031,477.078743 C-1.14345577,499.211884 4.04159546,516.71299 16.4241796,529.095574 C27.0271301,539.698524 41.2018201,545 58.8276672,545 C75.3059008,545 94.8070142,540.35965 117.206268,531.083107 C122.640801,528.837776 125.218773,522.609062 122.969285,517.178688 C120.719795,511.748314 114.491082,509.170342 109.064866,511.41983 C83.185349,522.135048 48.7195203,531.291008 31.476211,514.043541 C23.8088232,506.38031 20.6861499,494.633904 22.1913526,479.136963 C26.6113281,433.681488 69.6509936,360.242539 140.283279,277.64347 C147.31865,269.414749 154.532814,261.227607 161.875878,253.09452 L292.425232,383.635559 C254.882469,417.527581 216.919746,447.66491 181.717949,471.14109 C176.828118,474.400978 175.505867,481.01223 178.765754,485.902062 C180.815659,488.978997 184.19197,490.642205 187.630653,490.642205 C189.659767,490.642205 191.713829,490.060082 193.526726,488.850098 C231.980095,463.207588 273.618507,429.831162 314.471055,392.338295 C314.782905,392.088814 315.086441,391.8227 315.373345,391.535797 C315.423241,391.490059 315.460663,391.436005 315.506401,391.390266 C352.275772,357.568932 388.37986,320.437813 420.920525,282.612305 C464.346886,232.129784 538.205796,137.227135 544.97921,68.8027575 C547.191277,46.4076612 541.948013,28.6861804 529.386635,16.1289599 L529.386635,16.1289599 Z" id="Path"></path>
            <path d="M197.04441,348.471184 C191.726304,343.153076 181.135826,338.936843 160.890427,349.061622 C148.524475,355.244598 134.636688,365.726967 121.784248,378.575249 C95.5637744,404.795723 76.0876086,438.238678 91.6843409,453.835411 C94.6406934,456.791763 99.2269897,459.407158 106.195831,459.407158 C111.76342,459.407158 118.848686,457.739792 127.838325,453.244972 C140.204277,447.061997 154.092064,436.579628 166.940345,423.731346 C179.788628,410.883064 190.270996,396.995277 196.45813,384.625168 C206.57875,364.379768 202.362518,353.789292 197.04441,348.471184 L197.04441,348.471184 Z M151.888313,408.679314 C131.089897,429.47773 113.734321,437.348862 107.418289,438.097305 C108.170891,431.781273 116.037865,414.425697 136.840439,393.627281 C157.638855,372.824707 174.998589,364.957733 181.310463,364.205132 C180.557861,370.521164 172.690887,387.87674 151.888313,408.679314 L151.888313,408.679314 Z" id="Shape"></path>
            <path d="M392.737465,54.004364 C394.442253,54.004364 396.167832,53.5968775 397.772827,52.7320094 L397.781143,52.7278516 C402.953721,49.9419787 404.8872,43.4887317 402.101326,38.311997 C399.315453,33.139419 392.858047,31.2017822 387.681312,33.9918139 C382.508735,36.7776868 380.571099,43.2309339 383.356971,48.4076685 C385.277977,51.9752502 388.949509,54.004364 392.737465,54.004364 L392.737465,54.004364 Z" id="Path"></path>
            <path d="M146.611786,492.887535 C141.356049,495.515404 139.222985,501.910438 141.850853,507.170334 C143.717804,510.89592 147.476654,513.053932 151.381035,513.053932 C152.977715,513.053932 154.603501,512.692185 156.129493,511.927109 L156.13781,511.92295 C161.393547,509.295082 163.522454,502.904205 160.894585,497.648468 C158.266716,492.388573 151.871681,490.263824 146.611786,492.887535 Z" id="Path"></path>
        </g>
    </g>
</svg>