<?xml version="1.0" encoding="UTF-8"?>
<svg width="512px" height="512px" viewBox="0 0 512 512" version="1.1" xmlns="http://www.w3.org/2000/svg" xmlns:xlink="http://www.w3.org/1999/xlink">
    <!-- Generator: Sketch 53 (72520) - https://sketchapp.com -->
    <title>taj-mahal</title>
    <desc>Created with Sketch.</desc>
    <g id="Page-1" stroke="none" stroke-width="1" fill="none" fill-rule="evenodd">
        <g id="taj-mahal" fill="#404348" fill-rule="nonzero">
            <path d="M459.54,468.391 C459.41,467.751 459.22,467.131 458.97,466.521 C458.72,465.921 458.41,465.341 458.05,464.801 C457.69,464.251 457.27,463.742 456.81,463.271 C456.35,462.811 455.84,462.401 455.29,462.031 C454.75,461.671 454.17,461.361 453.56,461.111 C452.96,460.861 452.33,460.672 451.69,460.542 C450.4,460.281 449.07,460.281 447.78,460.542 C447.15,460.671 446.52,460.861 445.91,461.111 C445.31,461.361 444.73,461.672 444.19,462.031 C443.64,462.401 443.13,462.811 442.67,463.271 C442.21,463.741 441.79,464.251 441.42,464.801 C441.06,465.341 440.75,465.921 440.5,466.521 C440.26,467.131 440.06,467.751 439.94,468.391 C439.81,469.041 439.74,469.691 439.74,470.351 C439.74,471.001 439.81,471.661 439.94,472.301 C440.06,472.941 440.26,473.57 440.5,474.171 C440.75,474.771 441.06,475.361 441.42,475.901 C441.79,476.441 442.21,476.961 442.67,477.421 C443.13,477.881 443.64,478.301 444.19,478.661 C444.73,479.02 445.31,479.331 445.91,479.581 C446.52,479.831 447.15,480.02 447.79,480.15 C448.43,480.28 449.09,480.35 449.74,480.35 C452.37,480.35 454.95,479.279 456.81,477.421 C457.27,476.962 457.69,476.441 458.05,475.901 C458.41,475.361 458.72,474.771 458.97,474.171 C459.22,473.571 459.41,472.941 459.54,472.301 C459.67,471.662 459.74,471.001 459.74,470.351 C459.74,469.691 459.67,469.041 459.54,468.391 Z" id="Path"></path>
            <path d="M409.738,460.347 L62.137,460.347 C56.614,460.347 52.137,464.824 52.137,470.347 C52.137,475.869 56.614,480.347 62.137,480.347 L409.737,480.347 C415.26,480.347 419.737,475.869 419.738,470.347 C419.738,464.824 415.261,460.347 409.738,460.347 Z" id="Path"></path>
            <path d="M424.898,0 C391.814,0 364.898,26.916 364.898,60 C364.898,93.084 391.814,120 424.898,120 C457.982,120 484.898,93.084 484.898,60 C484.898,26.916 457.982,0 424.898,0 Z M424.898,100 C402.842,100 384.898,82.056 384.898,60 C384.898,37.944 402.842,20 424.898,20 C446.955,20 464.898,37.944 464.898,60 C464.898,82.056 446.954,100 424.898,100 Z" id="Shape"></path>
            <path d="M256,241.461 C239.947,241.461 226.887,254.521 226.887,270.574 L226.887,315.541 C226.887,321.064 231.364,325.541 236.887,325.541 L275.113,325.541 C280.636,325.541 285.113,321.064 285.113,315.541 L285.113,270.574 C285.113,254.522 272.053,241.461 256,241.461 Z M265.113,305.541 L246.887,305.541 L246.887,270.574 C246.887,265.549 250.975,261.461 256,261.461 C261.025,261.461 265.113,265.549 265.113,270.574 L265.113,305.541 Z" id="Shape"></path>
            <path d="M352.769,274.233 C336.716,274.233 323.656,287.293 323.656,303.346 L323.656,328.879 C323.656,334.401 328.133,338.879 333.656,338.879 L371.882,338.879 C377.405,338.879 381.882,334.401 381.882,328.879 L381.882,303.346 C381.882,287.294 368.822,274.233 352.769,274.233 Z M361.882,318.879 L343.656,318.879 L343.656,303.346 C343.656,298.321 347.744,294.233 352.769,294.233 C357.794,294.233 361.882,298.321 361.882,303.346 L361.882,318.879 Z" id="Shape"></path>
            <path d="M159.231,274.233 C143.178,274.233 130.118,287.293 130.118,303.346 L130.118,328.879 C130.118,334.401 134.595,338.879 140.118,338.879 L178.344,338.879 C183.867,338.879 188.344,334.401 188.344,328.879 L188.344,303.346 C188.344,287.294 175.284,274.233 159.231,274.233 Z M168.344,318.879 L150.118,318.879 L150.118,303.346 C150.118,298.321 154.206,294.233 159.231,294.233 C164.256,294.233 168.344,298.321 168.344,303.346 L168.344,318.879 Z" id="Shape"></path>
            <path d="M508.286,430.53 L507.192,394.102 C510.075,392.346 512,389.174 512,385.553 C512,381.717 509.84,378.386 506.669,376.709 L504.967,320.052 C509.041,318.788 511.999,314.989 511.999,310.5 C511.999,305.801 508.757,301.859 504.388,300.788 L502.673,243.679 C505.286,241.875 506.998,238.86 506.998,235.445 C506.998,231.815 505.063,228.636 502.168,226.884 L500.976,187.189 C500.522,173.271 489.258,162.369 475.333,162.369 C461.407,162.369 450.143,173.271 449.688,187.216 L448.497,226.884 C445.602,228.636 443.667,231.815 443.667,235.446 C443.667,238.861 445.38,241.876 447.993,243.68 L446.278,300.788 C441.909,301.859 438.667,305.801 438.667,310.5 C438.667,314.989 441.626,318.788 445.7,320.052 L443.998,376.709 C440.827,378.386 438.667,381.717 438.667,385.553 C438.667,389.175 440.592,392.347 443.476,394.102 L442.46,427.931 L417.32,427.931 L417.32,250.398 C418.821,246.666 422.513,236.801 422.671,229.715 C423.025,213.753 415.457,198.705 402.422,189.458 C395.607,184.63 389.792,179.866 384.698,174.935 L384.698,156.338 C384.698,150.816 380.221,146.338 374.698,146.338 C369.175,146.338 364.698,150.816 364.698,156.338 L364.698,174.938 C359.102,180.406 353.558,184.983 347.809,188.888 C334.6,197.83 326.714,212.686 326.714,228.626 C326.714,231.403 327.236,234.569 327.972,237.652 L322.845,237.652 L322.845,211.36 C328.279,201.054 331.274,189.562 331.531,177.951 C332.088,152.817 320.171,129.122 299.648,114.563 C286.59,105.312 275.58,96.169 266,86.621 L266,55.942 C266,50.419 261.523,45.942 256,45.942 C250.477,45.942 246,50.419 246,55.942 L246,86.615 C235.287,97.315 224.703,106.169 213.665,113.665 C192.867,127.746 180.45,151.136 180.45,176.234 C180.45,188.536 183.456,200.658 189.164,211.469 L189.164,237.653 L184.089,237.653 C184.747,234.92 185.219,232.153 185.273,229.715 C185.627,213.753 178.059,198.705 165.024,189.458 C158.21,184.631 152.395,179.867 147.3,174.935 L147.3,156.338 C147.3,150.816 142.823,146.338 137.3,146.338 C131.777,146.338 127.3,150.816 127.3,156.338 L127.3,174.938 C121.702,180.407 116.159,184.984 110.411,188.888 C97.202,197.829 89.316,212.685 89.316,228.626 C89.316,236.148 93.147,246.528 94.678,250.377 L94.678,427.93 L69.54,427.93 L68.524,394.101 C71.407,392.346 73.333,389.174 73.333,385.552 C73.333,381.716 71.172,378.385 68.002,376.707 L66.3,320.051 C70.374,318.787 73.333,314.988 73.333,310.499 C73.333,305.8 70.091,301.858 65.722,300.787 L64.007,243.679 C66.62,241.875 68.333,238.86 68.333,235.444 C68.333,231.813 66.398,228.634 63.503,226.882 L62.311,187.189 C61.858,173.27 50.594,162.368 36.667,162.368 C22.741,162.368 11.477,173.27 11.022,187.215 L9.83,226.883 C6.935,228.635 5,231.814 5,235.444 C5,238.859 6.712,241.874 9.325,243.678 L7.61,300.787 C3.242,301.858 0,305.8 0,310.499 C0,314.988 2.958,318.787 7.032,320.051 L5.33,376.708 C2.16,378.386 0,381.717 0,385.553 C0,389.175 1.925,392.346 4.808,394.101 L3.71,430.648 C1.777,432.467 0.568,435.047 0.563,437.911 L0.438,501.98 C0.433,504.635 1.484,507.184 3.36,509.064 C5.236,510.943 7.783,512 10.439,512 L501.437,512 C506.952,512 511.426,507.535 511.437,502.02 L511.562,437.951 C511.567,435.296 510.516,432.747 508.64,430.867 C508.525,430.751 508.407,430.639 508.286,430.53 Z M469.68,187.84 C469.78,184.772 472.263,182.368 475.334,182.368 C478.404,182.368 480.888,184.771 480.987,187.814 L482.117,225.444 L468.55,225.444 L469.68,187.84 Z M467.95,245.444 L482.718,245.444 L484.371,300.499 L466.296,300.499 L467.95,245.444 Z M465.696,320.499 L484.973,320.499 L486.627,375.553 L464.044,375.553 L465.696,320.499 Z M463.442,395.553 L487.227,395.553 L488.199,427.931 L462.47,427.931 L463.442,395.553 Z M359.034,205.442 C364.412,201.789 369.594,197.675 374.727,192.98 C379.551,197.316 384.878,201.541 390.855,205.775 C398.463,211.172 402.882,219.956 402.675,229.272 C402.636,231.008 401.794,234.281 400.687,237.653 L348.753,237.653 C347.639,234.205 346.713,230.62 346.713,228.627 C346.714,219.331 351.315,210.668 359.034,205.442 Z M224.889,130.219 C235.565,122.969 245.799,114.614 256.013,104.804 C265.381,113.696 275.927,122.268 288.083,130.88 C303.179,141.589 311.948,159.021 311.538,177.509 C311.377,184.779 309.75,191.991 306.793,198.656 L205.167,198.656 C202.068,191.633 200.449,183.984 200.449,176.234 C200.449,157.781 209.581,140.582 224.889,130.219 Z M199.164,257.653 C204.687,257.653 209.164,253.176 209.164,247.653 L209.164,218.656 L302.846,218.656 L302.846,247.653 C302.846,253.175 307.323,257.653 312.846,257.653 L397.321,257.653 L397.321,397.669 L381.882,397.669 L381.882,382.136 C381.882,366.083 368.822,353.024 352.769,353.024 C336.716,353.024 323.656,366.084 323.656,382.136 L323.656,397.669 L319.606,397.669 C314.083,397.669 309.606,402.147 309.606,407.669 C309.606,413.191 314.083,417.669 319.606,417.669 L397.32,417.669 L397.321,427.931 L294.185,427.931 L294.185,382.315 C294.185,352.94 270.473,340.527 257.935,338.068 C256.664,337.818 255.356,337.819 254.086,338.067 C241.541,340.527 217.815,352.94 217.815,382.315 L217.815,427.931 L114.68,427.931 L114.68,417.669 L192.394,417.669 C197.917,417.669 202.394,413.191 202.394,407.669 C202.394,402.147 197.917,397.669 192.394,397.669 L188.344,397.669 L188.344,382.136 C188.344,366.083 175.284,353.024 159.231,353.024 C143.178,353.024 130.118,366.084 130.118,382.136 L130.118,397.669 L114.68,397.669 L114.68,257.653 L199.164,257.653 Z M361.882,382.136 L361.882,397.669 L343.656,397.669 L343.656,382.136 C343.656,377.112 347.744,373.024 352.769,373.024 C357.794,373.023 361.882,377.111 361.882,382.136 Z M274.185,382.315 L274.185,427.931 L237.816,427.931 L237.816,382.315 C237.816,365.576 250.806,359.836 256.001,358.212 C261.256,359.858 274.185,365.607 274.185,382.315 Z M150.118,397.669 L150.118,382.136 C150.118,377.112 154.206,373.024 159.231,373.024 C164.256,373.024 168.344,377.112 168.344,382.136 L168.344,397.669 L150.118,397.669 Z M121.636,205.442 C127.013,201.791 132.196,197.676 137.33,192.98 C142.154,197.317 147.482,201.542 153.457,205.775 C161.065,211.171 165.484,219.956 165.277,229.273 C165.238,231.008 164.396,234.281 163.289,237.653 L111.357,237.653 C110.234,234.162 109.316,230.567 109.316,228.627 C109.317,219.331 113.918,210.667 121.636,205.442 Z M31.012,187.841 C31.112,184.772 33.596,182.368 36.666,182.368 C39.737,182.368 42.22,184.771 42.319,187.814 L43.449,225.444 L29.882,225.444 L31.012,187.841 Z M29.282,245.444 L44.05,245.444 L45.704,300.499 L27.628,300.499 L29.282,245.444 Z M27.027,320.499 L46.304,320.499 L47.957,375.553 L25.374,375.553 L27.027,320.499 Z M24.773,395.553 L48.558,395.553 L49.531,427.931 L23.801,427.931 L24.773,395.553 Z M491.456,492 L20.458,492 L20.544,447.931 L491.542,447.931 L491.456,492 Z" id="Shape"></path>
        </g>
    </g>
</svg>