<?xml version="1.0" encoding="UTF-8"?>
<svg width="512px" height="512px" viewBox="0 0 512 512" version="1.1" xmlns="http://www.w3.org/2000/svg" xmlns:xlink="http://www.w3.org/1999/xlink">
    <!-- Generator: Sketch 53 (72520) - https://sketchapp.com -->
    <title>temple</title>
    <desc>Created with Sketch.</desc>
    <g id="Page-1" stroke="none" stroke-width="1" fill="none" fill-rule="evenodd">
        <g id="temple" fill="#404348" fill-rule="nonzero">
            <path d="M334.326,444.096 L377.886,444.096 C383.339,444.096 387.775,439.659 387.775,434.206 L387.775,407.176 C387.775,389.714 373.568,375.507 356.106,375.507 C338.644,375.507 324.437,389.714 324.437,407.176 L324.437,434.206 C324.437,439.659 328.873,444.096 334.326,444.096 L334.326,444.096 Z M339.437,407.176 C339.437,397.985 346.915,390.507 356.106,390.507 C365.297,390.507 372.775,397.985 372.775,407.176 L372.775,429.096 L339.437,429.096 L339.437,407.176 Z" id="Shape"></path>
            <path d="M134.315,444.096 L177.876,444.096 C183.329,444.096 187.765,439.659 187.765,434.206 L187.765,407.176 C187.765,389.714 173.558,375.507 156.096,375.507 C138.634,375.507 124.427,389.714 124.427,407.176 L124.427,434.206 C124.426,439.659 128.862,444.096 134.315,444.096 Z M139.426,407.176 C139.426,397.985 146.904,390.507 156.095,390.507 C165.286,390.507 172.764,397.985 172.764,407.176 L172.764,429.096 L139.426,429.096 L139.426,407.176 Z" id="Shape"></path>
            <path d="M494.522,462.094 L489.827,462.094 C489.839,461.767 489.855,461.44 489.855,461.111 C489.855,449.446 482.298,439.428 471.588,435.978 C466.749,421.66 453.903,411.316 438.817,409.674 C434.479,403.429 428.717,398.214 422.088,394.518 L422.088,331.216 C429.128,327.953 435.687,323.602 441.508,318.225 L457.554,303.406 C461.024,300.201 462.154,295.288 460.433,290.889 C456.681,281.298 445.958,284.09 443.607,283.648 C435.569,283.648 427.877,281.16 421.32,276.424 L388.457,253.015 L388.457,218.283 C395.701,215.121 402.437,210.754 408.37,205.275 L423.535,191.268 C426.94,188.123 428.05,183.302 426.362,178.986 C424.674,174.669 420.588,171.88 415.952,171.88 C412.67,171.509 401.259,173.804 389.258,165.136 L358.35,143.045 C358.351,143.014 358.356,142.983 358.356,142.952 L358.356,115.18 C367.291,112.523 375.572,107.853 382.563,101.397 L395.383,89.556 C398.614,86.571 399.667,81.995 398.065,77.899 C396.463,73.803 392.585,71.155 388.185,71.155 C384.632,70.626 379.747,79.554 339.285,59.917 C335.557,58.109 331.071,59.663 329.263,63.39 C327.454,67.116 329.009,71.603 332.735,73.411 C354.05,83.757 362.348,84.621 377.242,85.891 C374.688,87.632 363.256,102.742 340.776,102.742 L171.222,102.742 C148.718,102.742 137.336,87.651 134.757,85.892 C165.93,83.238 206.155,60.981 235.24,42.123 C242.612,37.344 249.586,28.895 256,16.982 C262.414,28.894 269.389,37.343 276.76,42.123 C281.656,45.298 286.589,48.383 291.422,51.292 C294.971,53.43 299.579,52.283 301.716,48.736 C303.853,45.187 302.708,40.579 299.159,38.442 C294.469,35.617 289.678,32.621 284.92,29.537 C279.37,25.938 273.307,18.032 267.851,7.275 C265.575,2.788 261.034,5.68434189e-14 256,5.68434189e-14 C250.966,5.68434189e-14 246.425,2.788 244.149,7.274 C238.692,18.032 232.629,25.938 227.079,29.537 C153.242,77.409 126.678,70.47 123.813,71.154 C119.414,71.154 115.536,73.801 113.933,77.898 C112.33,81.995 113.383,86.57 116.615,89.555 L129.435,101.396 C136.426,107.853 144.706,112.522 153.642,115.179 L153.642,142.95 C153.642,143.005 153.65,143.059 153.652,143.114 L122.71,165.156 C110.753,173.793 99.26,171.516 96.046,171.879 C91.41,171.879 87.324,174.668 85.636,178.985 C83.948,183.301 85.058,188.123 88.462,191.266 L103.629,205.274 C109.541,210.734 116.25,215.091 123.465,218.251 L123.465,253.017 L90.637,276.453 C84.121,281.16 76.429,283.648 68.391,283.648 C65.756,284.144 55.337,281.248 51.565,290.889 C49.844,295.287 50.975,300.201 54.445,303.406 L70.49,318.225 C76.288,323.58 82.818,327.917 89.825,331.175 L89.825,394.601 C83.238,398.294 77.497,403.464 73.182,409.674 C58.096,411.316 45.25,421.659 40.411,435.978 C29.701,439.428 22.144,449.446 22.144,461.111 C22.144,461.44 22.16,461.767 22.172,462.094 L17.477,462.094 C8.029,462.094 0.343,469.781 0.343,479.229 L0.343,494.866 C0.343,504.313 8.03,512 17.478,512 L494.523,512 C503.971,512 511.657,504.313 511.657,494.865 L511.657,479.228 C511.657,469.78 503.97,462.094 494.522,462.094 Z M314.827031,64.6494776 C316.943492,64.6494776 319.066846,63.8911368 320.759325,62.3537727 L320.762772,62.3503259 C324.368337,59.0722251 324.633757,53.4915268 321.355657,49.8859605 C318.077556,46.2803941 312.49341,46.0184228 308.887844,49.2965226 C305.282278,52.5746234 305.016859,58.1553226 308.29496,61.760888 C310.035696,63.6774221 312.42447,64.6494776 314.827031,64.6494776 L314.827031,64.6494776 Z M428.052,420.686 C429.39,423.012 431.869,424.447 434.553,424.447 C434.587,424.447 434.625,424.447 434.664,424.446 C446.076,424.477 455.959,432.596 458.177,443.775 C458.814,446.985 461.458,449.412 464.711,449.771 C470.494,450.409 474.856,455.284 474.856,461.111 C474.856,461.442 474.827,461.768 474.799,462.094 L422.089,462.094 L422.089,413.08 C424.406,415.327 426.436,417.874 428.052,420.686 L428.052,420.686 Z M373.459,249.378 L335.403,249.378 L335.403,239.676 C335.403,234.046 333.86,228.772 331.184,224.243 L359.874,224.243 C364.473,224.243 369.018,223.799 373.459,222.943 L373.459,249.378 Z M207.029,224.243 C215.539,224.243 222.462,231.166 222.462,239.676 L222.462,249.378 L191.597,249.378 L191.597,239.676 C191.597,231.166 198.52,224.243 207.029,224.243 L207.029,224.243 Z M233.243,224.243 L278.757,224.243 C276.081,228.771 274.538,234.045 274.538,239.676 L274.538,249.378 L237.462,249.378 L237.462,239.676 C237.462,234.046 235.919,228.771 233.243,224.243 L233.243,224.243 Z M289.538,239.676 C289.538,231.166 296.461,224.243 304.971,224.243 C313.48,224.243 320.403,231.166 320.403,239.676 L320.403,249.378 L289.538,249.378 L289.538,239.676 Z M343.358,117.681 L343.358,139.487 L323.979,139.487 L323.979,130.33 C323.979,125.796 322.873,121.518 320.927,117.741 L343.358,117.681 Z M215.824,117.741 C222.765,117.741 228.412,123.388 228.412,130.33 L228.412,139.487 L203.235,139.487 L203.235,130.33 C203.235,123.389 208.882,117.741 215.824,117.741 Z M271.853,117.741 C269.907,121.518 268.801,125.796 268.801,130.33 L268.801,139.487 L243.412,139.487 L243.412,130.33 C243.412,125.796 242.306,121.519 240.36,117.741 L271.853,117.741 Z M283.801,130.33 C283.801,123.389 289.448,117.741 296.39,117.741 C303.332,117.741 308.978,123.388 308.978,130.33 L308.978,139.487 L283.801,139.487 L283.801,130.33 Z M191.287,117.741 C189.341,121.518 188.235,125.796 188.235,130.33 L188.235,139.487 L168.642,139.487 L168.642,117.681 L191.287,117.741 Z M105.672,186.742 C114.989,186.06 123.846,182.84 131.453,177.345 L163.54,154.488 L348.566,154.488 L380.506,177.317 C388.149,182.837 397.009,186.061 406.327,186.743 C401.802,189.904 388.092,209.244 359.873,209.244 L152.126,209.244 C123.932,209.243 110.171,189.885 105.672,186.742 Z M152.126,224.243 L180.816,224.243 C178.14,228.771 176.597,234.045 176.597,239.676 L176.597,249.378 L138.465,249.378 L138.465,222.927 C142.931,223.793 147.501,224.243 152.126,224.243 Z M121.505,338.179 L138.564,338.179 C142.706,338.179 146.064,334.822 146.064,330.679 C146.064,326.536 142.706,323.179 138.564,323.179 L121.505,323.179 C91.217,323.179 76.592,302.278 71.316,298.569 C81.463,298.018 91.124,294.606 99.387,288.637 L133.367,264.378 L378.557,264.378 L412.578,288.612 C420.873,294.604 430.535,298.017 440.683,298.568 C435.338,302.325 420.828,323.178 390.494,323.178 L187.626,323.178 C183.484,323.178 180.126,326.535 180.126,330.678 C180.126,334.821 183.484,338.178 187.626,338.178 L390.494,338.178 C396.131,338.178 401.689,337.537 407.088,336.32 L407.088,462.093 L308.972,462.093 L308.972,387.795 C308.972,373.579 297.407,362.014 283.191,362.014 L228.808,362.014 C214.592,362.014 203.027,373.579 203.027,387.795 L203.027,462.093 L104.826,462.093 L104.826,336.302 C110.252,337.533 115.839,338.179 121.505,338.179 Z M162.827031,339.649478 C164.943492,339.649478 167.066846,338.891137 168.759325,337.353773 L168.762772,337.350326 C172.368337,334.072225 172.633757,328.491527 169.355657,324.88596 C166.077556,321.280394 160.49341,321.018423 156.887844,324.296523 C153.282278,327.574623 153.016859,333.155323 156.29496,336.760888 C158.035696,338.677422 160.42447,339.649478 162.827031,339.649478 L162.827031,339.649478 Z M293.973,462.094 L218.028,462.094 L218.028,387.796 C218.028,381.852 222.864,377.015 228.809,377.015 L283.192,377.015 C289.137,377.015 293.973,381.852 293.973,387.796 L293.973,462.094 Z M37.145,461.11 C37.145,455.283 41.506,450.408 47.29,449.77 C50.542,449.411 53.187,446.984 53.824,443.774 C56.042,432.595 65.925,424.476 77.337,424.445 C77.376,424.446 77.414,424.446 77.448,424.446 C80.132,424.446 82.612,423.011 83.949,420.685 C85.545,417.91 87.545,415.391 89.827,413.164 L89.827,462.093 L37.202,462.093 C37.173,461.767 37.145,461.441 37.145,461.11 L37.145,461.11 Z M496.657,494.865 C496.657,496.042 495.699,497 494.523,497 L17.478,497 C16.301,497 15.344,496.042 15.344,494.865 L15.344,479.228 C15.344,478.051 16.302,477.093 17.478,477.093 L494.523,477.093 C495.7,477.093 496.657,478.051 496.657,479.228 L496.657,494.865 Z" id="Shape"></path>
        </g>
    </g>
</svg>