<?xml version="1.0" encoding="UTF-8"?>
<svg width="356px" height="512px" viewBox="0 0 356 512" version="1.1" xmlns="http://www.w3.org/2000/svg" xmlns:xlink="http://www.w3.org/1999/xlink">
    <!-- Generator: Sketch 53 (72520) - https://sketchapp.com -->
    <title>temple (3)</title>
    <desc>Created with Sketch.</desc>
    <g id="Page-1" stroke="none" stroke-width="1" fill="none" fill-rule="evenodd">
        <g id="temple-(3)" fill="#404348" fill-rule="nonzero">
            <path d="M346,444 L319.355,444 L319.355,417.167 C319.355,413.581 317.435,410.27 314.323,408.488 C294.839,397.334 282.735,376.458 282.735,354.007 L282.735,311.537 C282.735,276.306 265.32,243.477 236.149,223.721 C234.494,222.6 232.541,222 230.542,222 L224,222 L224,206 L227,206 C232.522,206 237,201.522 237,196 C237,190.478 232.522,186 227,186 L224.169,186 L187.926,8.005 C186.978,3.347 182.881,0 178.127,0 C173.373,0 169.276,3.347 168.328,8.005 L132.085,186 L129,186 C123.478,186 119,190.478 119,196 C119,201.522 123.478,206 129,206 L132,206 L132,222 L125.458,222 C123.459,222 121.506,222.6 119.851,223.72 C103.794,234.594 91.031,249.658 82.938,267.284 C80.633,272.304 82.834,278.24 87.853,280.545 C92.873,282.851 98.809,280.649 101.114,275.63 C107.263,262.234 116.74,250.662 128.619,242 L227.383,242 C249.576,258.177 262.737,283.949 262.737,311.537 L262.737,354.007 C262.737,373.626 269.753,392.328 281.959,406.996 L220.129,406.996 L220.129,346.264 C220.129,332.548 212.791,319.699 200.981,312.73 L197.444,310.641 C191.699,307.25 188.13,301 188.13,294.329 C188.13,288.807 183.652,284.329 178.13,284.329 C172.608,284.329 168.13,288.807 168.13,294.329 C168.13,301 164.561,307.25 158.816,310.642 L155.28,312.729 C143.468,319.699 136.131,332.548 136.131,346.264 L136.131,406.996 L74.047,406.996 C86.253,392.328 93.269,373.626 93.269,354.007 C93.269,348.485 88.791,344.007 83.269,344.007 C77.747,344.007 73.269,348.485 73.269,354.007 C73.269,376.458 61.165,397.334 41.681,408.488 C38.569,410.269 36.649,413.581 36.649,417.167 L36.649,444 L10,444 C4.478,444 0,448.478 0,454 L0,502 C0,507.522 4.478,512 10,512 L250.333,512 C255.855,512 260.333,507.522 260.333,502 C260.333,496.478 255.855,492 250.333,492 L220,492 L220,464 L336,464 L336,492 L327.667,492 C322.145,492 317.667,496.478 317.667,502 C317.667,507.522 322.145,512 327.667,512 L346,512 C351.522,512 356,507.522 356,502 L356,454 C356,448.478 351.522,444 346,444 Z M178.127,60.119 L187.469,106 L168.784,106 L178.127,60.119 Z M164.713,126 L191.542,126 L195.614,146 L160.64,146 L164.713,126 Z M156.567,166 L199.686,166 L203.758,186 L152.494,186 L156.567,166 Z M204,222 L152,222 L152,206 L204,206 L204,222 Z M136,492 L20,492 L20,464 L136,464 L136,492 Z M136,444 L56.645,444 L56.645,426.996 L136,426.996 L136,444 Z M200,492 L156,492 L156,464 L200,464 L200,492 Z M200,444 L156,444 L156,426.996 L200,426.996 L200,444 Z M200.125,406.996 L156.125,406.996 L156.125,346.264 L156.127,346.264 C156.127,339.593 159.695,333.343 165.441,329.952 L168.978,327.865 C172.434,325.825 175.508,323.281 178.126,320.359 C180.744,323.281 183.817,325.824 187.274,327.864 L190.812,329.953 C196.557,333.343 200.125,339.593 200.125,346.264 L200.125,406.996 L200.125,406.996 Z M299.355,444 L220,444 L220,426.996 L299.355,426.996 L299.355,444 Z" id="Shape"></path>
            <path d="M295.399,494.93 C293.54,493.069 290.97,492 288.33,492 C285.7,492 283.12,493.069 281.26,494.93 C279.4,496.791 278.33,499.37 278.33,502 C278.33,504.63 279.399,507.21 281.26,509.069 C283.12,510.929 285.7,512 288.33,512 C290.97,512 293.54,510.93 295.399,509.069 C297.259,507.21 298.33,504.63 298.33,502 C298.33,499.37 297.26,496.79 295.399,494.93 Z" id="Path"></path>
            <path d="M90.33,304.47 C88.47,302.6 85.899,301.54 83.26,301.54 C80.63,301.54 78.06,302.6 76.19,304.47 C74.331,306.33 73.26,308.9 73.26,311.54 C73.26,314.17 74.33,316.75 76.19,318.609 C78.06,320.47 80.63,321.54 83.26,321.54 C85.9,321.54 88.47,320.47 90.33,318.609 C92.2,316.75 93.269,314.17 93.269,311.54 C93.269,308.91 92.2,306.33 90.33,304.47 Z" id="Path"></path>
        </g>
    </g>
</svg>