<?xml version="1.0" encoding="UTF-8"?>
<svg width="503px" height="503px" viewBox="0 0 503 503" version="1.1" xmlns="http://www.w3.org/2000/svg" xmlns:xlink="http://www.w3.org/1999/xlink">
    <!-- Generator: Sketch 53 (72520) - https://sketchapp.com -->
    <title>temple (2)</title>
    <desc>Created with Sketch.</desc>
    <g id="Page-1" stroke="none" stroke-width="1" fill="none" fill-rule="evenodd">
        <g id="temple-(2)" fill="#404348" fill-rule="nonzero">
            <path d="M328.327355,224.386139 C302.940592,186.825203 280.087494,147.086238 260.406637,106.275451 C258.767957,102.878236 255.32948,100.718873 251.557963,100.718873 C247.786445,100.718873 244.347969,102.878236 242.709289,106.275451 C223.025484,147.085256 200.173369,186.823238 174.784641,224.386139 C172.750045,227.396279 172.542754,231.285688 174.248238,234.49526 C175.95274,237.704832 179.290027,239.71192 182.924988,239.71192 L212.32298,239.71192 C217.748896,239.71192 222.147199,235.313617 222.147199,229.887701 C222.147199,224.461785 217.748896,220.063482 212.32298,220.063482 L201.207859,220.063482 C219.476977,191.877799 236.340248,162.609486 251.555998,132.677057 C266.77273,162.609486 283.63502,191.877799 301.904137,220.063482 L290.914766,220.063482 C285.48885,220.063482 281.090547,224.461785 281.090547,229.887701 C281.090547,235.313617 285.48885,239.71192 290.914766,239.71192 L320.187008,239.71192 C323.820986,239.71192 327.159256,237.705814 328.863758,234.49526 C330.56826,231.285688 330.361951,227.397262 328.327355,224.386139 Z" id="Path"></path>
            <path d="M251.627715,220.063482 L251.617891,220.063482 C246.191975,220.063482 241.798584,224.461785 241.798584,229.887701 C241.798584,235.313617 246.201799,239.71192 251.627715,239.71192 C257.053631,239.71192 261.451934,235.313617 261.451934,229.887701 C261.451934,224.461785 257.053631,220.063482 251.627715,220.063482 Z" id="Path"></path>
            <path d="M493.175781,303.157707 C498.601697,303.157707 503,298.759404 503,293.333488 L503,184.778818 C503,179.352902 498.601697,174.9546 493.175781,174.9546 L431.223275,174.9546 L431.223275,139.932242 C443.259908,137.424119 452.330609,126.734387 452.330609,113.96585 C452.330609,108.539934 447.932307,104.141631 442.506391,104.141631 C437.080475,104.141631 432.682172,108.539934 432.682172,113.96585 C432.682172,117.757998 429.597367,120.842803 425.805219,120.842803 L421.398074,120.842803 L358.045617,120.842803 C357.560301,120.842803 357.087756,120.889959 356.622088,120.957746 L356.622088,95.7232578 C368.658721,93.2151348 377.729422,82.5254023 377.729422,69.7568652 C377.729422,64.3309492 373.331119,59.9326465 367.905203,59.9326465 C362.479287,59.9326465 358.080984,64.3309492 358.080984,69.7568652 C358.080984,73.5490137 354.99618,76.6338184 351.204031,76.6338184 L346.796887,76.6338184 L289.863574,76.6338184 C279.238682,53.7090039 269.552002,30.30575 260.842832,6.46040625 C259.427162,2.58475195 255.741115,0.00687695313 251.614943,0.00687695313 L251.491158,0.00687695313 C247.364986,0.00687695313 243.678939,2.58573438 242.26327,6.46040625 C233.5541,30.30575 223.868402,53.7080215 213.242527,76.6338184 L156.499805,76.6338184 L156.201148,76.6338184 L152.09266,76.6338184 C148.300512,76.6338184 145.215707,73.5490137 145.215707,69.7568652 C145.215707,64.3309492 140.817404,59.9326465 135.391488,59.9326465 C129.965572,59.9326465 125.56727,64.3309492 125.56727,69.7568652 C125.56727,82.4202832 134.489625,93.0324043 146.375947,95.6544883 L146.375947,120.955781 C145.909297,120.887994 145.436752,120.840838 144.951436,120.840838 L81.8995996,120.840838 L81.5999609,120.840838 L77.4914727,120.840838 C73.6993242,120.840838 70.6145195,117.756033 70.6145195,113.963885 C70.6145195,108.537969 66.2162168,104.139666 60.7903008,104.139666 C55.3643848,104.139666 50.966082,108.537969 50.966082,113.963885 C50.966082,126.627303 59.8884375,137.239424 71.7747598,139.861508 L71.7747598,174.953617 L9.82421875,174.953617 C4.39830273,174.953617 0,179.35192 0,184.777836 L0,293.332506 C0,298.758422 4.39830273,303.156725 9.82421875,303.156725 L19.6484375,303.156725 L19.6484375,444.048793 L9.82421875,444.048793 C4.39830273,444.048793 0,448.447096 0,453.873012 L0,493.168904 C0,498.59482 4.39830273,502.993123 9.82421875,502.993123 L493.16301,502.993123 C498.588926,502.993123 502.987229,498.59482 502.987229,493.168904 L502.987229,453.873012 C502.987229,448.447096 498.588926,444.048793 493.16301,444.048793 L483.352545,444.048793 L483.352545,303.157707 L493.175781,303.157707 Z M421.399057,380.848611 C426.824973,380.848611 431.223275,376.450309 431.223275,371.024393 L431.223275,303.156725 L463.704107,303.156725 L463.704107,444.048793 L371.329926,444.048793 L371.329926,279.00683 L411.57582,279.00683 L411.57582,371.024393 C411.57582,376.451291 415.973141,380.848611 421.399057,380.848611 Z M356.622088,195.012707 L356.622088,140.375314 C357.089721,140.443102 357.562266,140.490258 358.0466,140.490258 L411.57582,140.490258 L411.57582,259.359375 L402.730094,259.359375 C386.395365,238.842477 371.006709,217.682092 356.575914,195.932254 C356.604404,195.628686 356.622088,195.323152 356.622088,195.012707 Z M336.975615,96.2812734 L336.975615,165.045893 C323.412299,142.684006 310.832387,119.747402 299.261422,96.2812734 L336.975615,96.2812734 Z M166.024385,96.2812734 L203.849592,96.2812734 C192.246207,119.81126 179.629945,142.808773 166.024385,165.227641 L166.024385,96.2812734 Z M228.009311,91.4408809 C228.306002,90.9388633 228.55652,90.4103203 228.760863,89.8562344 C236.889422,72.5872227 244.493367,55.0490273 251.555016,37.2583496 C258.515475,54.7916328 265.998582,72.0793105 273.992549,89.1056641 C274.2971,90.1951699 274.781434,91.2080469 275.418043,92.1099102 C303.462258,151.280197 337.706537,207.263508 377.777561,259.360357 L125.333453,259.360357 C165.553805,207.066041 199.905168,150.858738 228.009311,91.4408809 Z M351.681488,279.00683 L351.681488,444.048793 L332.034033,444.048793 L332.034033,279.00683 L351.681488,279.00683 Z M276.258996,302.93568 C267.702102,297.886031 262.180891,288.84775 261.511861,279.007812 L312.386578,279.007812 L312.386578,444.049775 L292.878627,444.049775 L292.878627,366.116213 C297.3624,365.205508 300.738002,361.242418 300.738002,356.489461 L300.738002,345.805623 C300.738002,328.274305 291.357838,311.846246 276.258996,302.93568 Z M222.146217,346.665242 L222.146217,345.805623 C222.146217,335.193502 227.823633,325.25041 236.964086,319.855932 C242.760375,316.435139 247.715711,311.905191 251.618873,306.630568 C255.523018,311.905191 260.477371,316.434156 266.27366,319.854949 C275.413131,325.249428 281.091529,335.193502 281.091529,345.804641 L281.091529,346.665242 L222.146217,346.665242 Z M273.230189,366.31368 L273.230189,443.987883 L230.004609,443.987883 L230.004609,366.31368 L273.230189,366.31368 L273.230189,366.31368 Z M210.358137,366.116213 L210.358137,444.049775 L190.601633,444.049775 L190.601633,279.00683 L241.724902,279.00683 C241.055873,288.84775 235.534662,297.885049 226.977768,302.934697 C211.877943,311.846246 202.499744,328.27234 202.499744,345.805623 L202.499744,356.489461 C202.498762,361.242418 205.874363,365.205508 210.358137,366.116213 Z M170.952213,279.00683 L170.952213,444.048793 L151.304758,444.048793 L151.304758,279.00683 L170.952213,279.00683 Z M131.65632,279.00683 L131.65632,444.048793 L91.4241797,444.048793 L91.4241797,279.00683 L131.65632,279.00683 Z M91.4231973,140.489275 L144.952418,140.489275 C145.437734,140.489275 145.910279,140.442119 146.37693,140.374332 L146.37693,195.011725 C146.37693,195.372273 146.399525,195.726928 146.436857,196.077652 C132.034553,217.775422 116.678316,238.887668 100.379937,259.358393 L91.4231973,259.358393 L91.4231973,140.489275 L91.4231973,140.489275 Z M19.6474551,194.603037 L71.7767246,194.603037 L71.7767246,269.183594 L71.7767246,283.510252 L19.6474551,283.510252 L19.6474551,194.603037 Z M71.7767246,303.157707 L71.7767246,444.049775 L39.2958926,444.049775 L39.2958926,303.157707 L71.7767246,303.157707 Z M483.338791,483.345668 L19.6474551,483.345668 L19.6474551,463.698213 L483.338791,463.698213 L483.338791,483.345668 L483.338791,483.345668 Z M431.223275,283.50927 L431.223275,269.183594 L431.223275,194.603037 L483.352545,194.603037 L483.352545,283.50927 L431.223275,283.50927 Z" id="Shape"></path>
            <path d="M428.343797,405.343336 C426.516492,403.506207 423.991668,402.46484 421.398074,402.46484 C418.814305,402.46484 416.279656,403.506207 414.452352,405.343336 C412.625047,407.170641 411.573855,409.695465 411.573855,412.289059 C411.573855,414.872828 412.625047,417.407477 414.452352,419.234781 C416.279656,421.062086 418.814305,422.113277 421.398074,422.113277 C423.991668,422.113277 426.516492,421.062086 428.343797,419.234781 C430.171102,417.407477 431.222293,414.872828 431.222293,412.289059 C431.222293,409.695465 430.171102,407.170641 428.343797,405.343336 Z" id="Path"></path>
        </g>
    </g>
</svg>