<?xml version="1.0" encoding="UTF-8"?>
<svg width="66px" height="25px" viewBox="0 0 66 25" version="1.1" xmlns="http://www.w3.org/2000/svg" xmlns:xlink="http://www.w3.org/1999/xlink">
    <!-- Generator: Sketch 53 (72520) - https://sketchapp.com -->
    <title>Tripsy</title>
    <desc>Created with Sketch.</desc>
    <g id="Forms" stroke="none" stroke-width="1" fill="none" fill-rule="evenodd">
        <g id="Desktop-HD---Form-1" transform="translate(-120.000000, -28.000000)" fill="#404348" fill-rule="nonzero">
            <g id="Header_desktop">
                <g id="Logo" transform="translate(119.000000, 27.000000)">
                    <path d="M14.3583984,5.24804688 L10.0419922,5.24804688 L8.23925781,20 L4.07519531,20 L5.890625,5.24804688 L1.58691406,5.24804688 L2.03125,1.52832031 L14.8027344,1.52832031 L14.3583984,5.24804688 Z M18.28125,9.03125 C19.296875,7.7109375 20.5029297,7.05078125 21.8994141,7.05078125 L21.3535156,11.3671875 C20.8710938,11.1809895 20.4140625,11.1429036 19.9824219,11.2529297 C19.5507812,11.3629558 19.1635742,11.5851238 18.8208008,11.9194336 C18.4780273,12.2537434 18.1860352,12.7150066 17.9448242,13.3032227 C17.7036133,13.8914387 17.5364583,14.5748699 17.4433594,15.3535156 L16.8720703,20 L12.9746094,20 L14.5361328,7.27929688 L18.4335938,7.27929688 L18.2177734,9.03125 L18.28125,9.03125 Z M26.1904297,1.13476562 C26.8759766,1.13476562 27.4366863,1.34423828 27.8725586,1.76318359 C28.3084309,2.18212891 28.5263672,2.71321608 28.5263672,3.35644531 C28.5263672,4.02506517 28.2999675,4.57942702 27.847168,5.01953125 C27.3943684,5.45963548 26.8125,5.6796875 26.1015625,5.6796875 C25.4160156,5.6796875 24.8553059,5.46598314 24.4194336,5.03857422 C23.9835613,4.6111653 23.765625,4.07584642 23.765625,3.43261719 C23.765625,2.76399733 23.9920247,2.21386719 24.4448242,1.78222656 C24.8976238,1.35058594 25.4794922,1.13476562 26.1904297,1.13476562 Z M23.6894531,7.27929688 L27.5869141,7.27929688 L26.0253906,20 L22.1279297,20 L23.6894531,7.27929688 Z M37.984375,7.03808594 C38.8391926,7.03808594 39.5776367,7.27294922 40.199707,7.74267578 C40.8217773,8.21240234 41.2809245,8.83447266 41.5771484,9.60888672 C41.8733723,10.3833008 42.0214844,11.265625 42.0214844,12.2558594 C42.0214844,13.3645833 41.862793,14.4140625 41.5454102,15.4042969 C41.2280273,16.3945312 40.8006184,17.2430012 40.2631836,17.949707 C39.7257488,18.6564128 39.0804036,19.2150066 38.3271484,19.6254883 C37.5738933,20.03597 36.7740886,20.2412109 35.9277344,20.2412109 C34.6920574,20.2412109 33.6975911,19.9407551 32.9443359,19.3398438 L32.8935547,19.3398438 L32.1826172,25.1416016 L28.2724609,25.1416016 L30.46875,7.27929688 L34.3789062,7.27929688 L34.125,9.27246094 L34.1757812,9.27246094 C35.1914062,7.78287767 36.4609375,7.03808594 37.984375,7.03808594 Z M35.0771484,16.7626953 C35.5595703,16.7626953 35.9975586,16.6357422 36.3911133,16.3818359 C36.784668,16.1279297 37.1020508,15.7957356 37.3432617,15.3852539 C37.5844727,14.9747722 37.7706706,14.5198567 37.9018555,14.0205078 C38.0330403,13.5211589 38.0986328,13.0133464 38.0986328,12.4970703 C38.0986328,11.930013 37.9716797,11.4581706 37.7177734,11.081543 C37.4638672,10.7049153 37.1210938,10.5166016 36.6894531,10.5166016 C35.9277344,10.5166016 35.2146809,10.9694011 34.550293,11.875 C33.885905,12.7805989 33.4479167,14.0120442 33.2363281,15.5693359 L33.1855469,15.9755859 C33.5748699,16.5003255 34.2054036,16.7626953 35.0771484,16.7626953 Z M44.7255859,15.7851562 C45.0979817,16.2337239 45.5507812,16.5976562 46.0839844,16.8769531 C46.6171875,17.15625 47.1292317,17.2958984 47.6201172,17.2958984 C47.9671223,17.2958984 48.2464192,17.2345378 48.4580078,17.1118164 C48.6695964,16.989095 48.7753906,16.8177083 48.7753906,16.5976562 C48.7753906,16.3945312 48.6695964,16.2189128 48.4580078,16.0708008 C48.2464192,15.9226887 47.8020833,15.679362 47.125,15.3408203 C46.9895833,15.2646484 46.8837891,15.2096355 46.8076172,15.1757812 C45.7666016,14.6510417 44.9879558,14.090332 44.4716797,13.4936523 C43.9554036,12.8969727 43.6972656,12.1627605 43.6972656,11.2910156 C43.6972656,10.4615886 43.9088542,9.72102858 44.3320312,9.06933594 C44.7552083,8.41764329 45.3243816,7.91617845 46.0395508,7.56494141 C46.75472,7.21370436 47.5439453,7.03808594 48.4072266,7.03808594 C49.2958984,7.03808594 50.1422527,7.21158861 50.9462891,7.55859375 C51.7503255,7.90559889 52.4316406,8.41341139 52.9902344,9.08203125 L50.6416016,11.3164062 C50.4215495,11.0117188 50.171875,10.7599284 49.8925781,10.5610352 C49.6132812,10.3621419 49.359375,10.2267253 49.1308594,10.1547852 C48.9023438,10.082845 48.6780598,10.0426433 48.4580078,10.0341797 C48.2802734,10.0257161 48.1152344,10.0532227 47.9628906,10.1166992 C47.8105469,10.1801758 47.6857097,10.2711589 47.5883789,10.3896484 C47.4910481,10.508138 47.4423828,10.6477864 47.4423828,10.8085938 C47.4423828,11.0117188 47.586263,11.2190755 47.8740234,11.4306641 C48.1617839,11.6422527 48.6145833,11.9003906 49.2324219,12.2050781 C49.6725261,12.4251301 50.0428059,12.6240234 50.3432617,12.8017578 C50.6437175,12.9794922 50.9441731,13.1889648 51.2446289,13.4301758 C51.5450847,13.6713867 51.7820637,13.9168294 51.9555664,14.1665039 C52.1290691,14.4161784 52.2708333,14.7039387 52.3808594,15.0297852 C52.4908855,15.3556316 52.5458984,15.7132161 52.5458984,16.1025391 C52.554362,17.3551433 52.1036784,18.358073 51.1938477,19.1113281 C50.2840169,19.8645833 49.0589192,20.2412109 47.5185547,20.2412109 C46.570638,20.2412109 45.6396484,20.0465495 44.7255859,19.6572266 C43.8115234,19.2679036 43.0836589,18.7347005 42.5419922,18.0576172 L44.7255859,15.7851562 Z M62.8925781,7.27929688 L66.7900391,7.27929688 L65.4316406,18.2734375 C64.8561199,23.0130208 62.4567058,25.3828125 58.2333984,25.3828125 C56.5152995,25.3828125 54.9876301,24.9723308 53.6503906,24.1513672 L54.8691406,21.2060547 C55.8255208,21.8577473 56.8834636,22.1835938 58.0429688,22.1835938 C58.4238281,22.1835938 58.7560222,22.1539714 59.0395508,22.0947266 C59.3230794,22.0354817 59.6066081,21.9191081 59.8901367,21.7456055 C60.1736653,21.5721028 60.4169922,21.3393555 60.6201172,21.0473633 C60.8232422,20.7553711 61.0073242,20.3660481 61.1723633,19.8793945 C61.3374023,19.3927409 61.4664714,18.8108723 61.5595703,18.1337891 L61.5087891,18.1337891 C60.5016277,19.538737 59.2278645,20.2412109 57.6875,20.2412109 C57.1966145,20.2412109 56.7649739,20.186198 56.3925781,20.0761719 C56.0201824,19.9661458 55.6858723,19.7884114 55.3896484,19.5429688 C55.0934245,19.2975261 54.8649089,18.9801433 54.7041016,18.5908203 C54.5432942,18.2014973 54.4332683,17.7233074 54.3740234,17.15625 C54.3147786,16.5891926 54.3359375,15.9332683 54.4375,15.1884766 L55.4023438,7.27929688 L59.2744141,7.27929688 L58.4619141,14.0205078 C58.3264973,15.0530598 58.3180339,15.7661133 58.4365234,16.159668 C58.555013,16.5532227 58.8385417,16.75 59.2871094,16.75 C59.6595051,16.75 60.0551758,16.5743816 60.4741211,16.2231445 C60.8930664,15.8719075 61.2612305,15.4127605 61.5786133,14.8457031 C61.8959961,14.2786458 62.0970051,13.703125 62.1816406,13.1191406 L62.8925781,7.27929688 Z" id="Tripsy"></path>
                </g>
            </g>
        </g>
    </g>
</svg>