<?xml version="1.0" encoding="UTF-8"?>
<svg width="2374px" height="248px" viewBox="0 0 2374 248" version="1.1" xmlns="http://www.w3.org/2000/svg" xmlns:xlink="http://www.w3.org/1999/xlink">
    <!-- Generator: Sketch 53 (72520) - https://sketchapp.com -->
    <title>TRIPSYTOURS</title>
    <desc>Created with Sketch.</desc>
    <defs>
        <path d="M78.2794674,50.7510862 L4,50.7510862 L12.9533287,6.97925718 L215.232235,6.97925718 L206.278907,50.7510862 L132.331044,50.7510862 L94.5281009,239.102593 L40.8081289,239.102593 L78.2794674,50.7510862 Z M429.448914,78.9374912 C429.448914,100.602444 423.590622,119.172125 411.873861,134.647092 C400.157101,150.122058 383.90863,161.064906 363.127961,167.475964 L403.583742,239.102593 L346.879327,239.102593 L310.402803,174.108059 L264.641345,174.108059 L251.70876,239.102593 L197.657183,239.102593 L244.08185,6.97925718 L338.589208,6.97925718 C367.328431,6.97925718 389.656262,13.2796847 405.573371,25.8807288 C421.490479,38.4817729 429.448914,56.1671835 429.448914,78.9374912 Z M318.692922,131.331044 C336.599669,131.331044 350.471663,127.241293 360.30932,119.061668 C370.146977,110.882043 375.065732,99.1654582 375.065732,83.9115627 C375.065732,72.8580153 371.307583,64.567979 363.79117,59.0412053 C356.274758,53.5144316 345.552978,50.7510862 331.625508,50.7510862 L289.180098,50.7510862 L272.931465,131.331044 L318.692922,131.331044 Z M487.811352,6.97925718 L541.862929,6.97925718 L495.438262,239.102593 L441.386685,239.102593 L487.811352,6.97925718 Z M690.421864,6.97925718 C719.382158,6.97925718 741.765256,13.3349516 757.571829,26.0465312 C773.378402,38.7581107 781.28157,56.4987883 781.28157,79.269096 C781.28157,98.7233395 776.694416,115.69028 767.519972,130.170427 C758.345528,144.650575 745.302537,155.759223 728.39061,163.496706 C711.478682,171.23419 691.527328,175.102873 668.53595,175.102873 L616.805606,175.102873 L604.204625,239.102593 L550.153048,239.102593 L596.577715,6.97925718 L690.421864,6.97925718 Z M670.857183,131.331044 C688.76393,131.331044 702.580657,127.241293 712.307779,119.061668 C722.0349,110.882043 726.898388,99.1654582 726.898388,83.9115627 C726.898388,72.8580153 723.195505,64.567979 715.789629,59.0412053 C708.383752,53.5144316 697.717239,50.7510862 683.789769,50.7510862 L641.675964,50.7510862 L625.42733,131.331044 L670.857183,131.331044 Z M1247.51787,6.97925718 L1403.0405,6.97925718 L1403.0405,28.2019622 L1321.46573,28.2019622 L1321.46573,239.102593 L1296.92698,239.102593 L1296.92698,28.2019622 L1230.61401,28.2019622 L1126.81374,158.522635 L1110.89671,239.102593 L1057.17673,239.102593 L1073.42537,156.201402 L1013.73651,6.97925718 L1067.45648,6.97925718 L1108.90708,110.439944 L1192.13987,6.97925718 L1247.51787,6.97925718 Z M873.799299,243.08185 C855.45041,243.08185 837.875534,240.650106 821.074142,235.786545 C804.272749,230.922984 790.787624,224.733091 780.61836,217.216678 L802.504275,175.766083 C813.11568,183.503566 825.053332,189.472392 838.317589,193.67274 C851.581846,197.873088 865.177506,199.973231 879.104975,199.973231 C893.916729,199.973231 905.633314,197.541487 914.255081,192.677926 C922.876848,187.814365 927.187666,181.182336 927.187666,172.78164 C927.187666,165.92844 923.761118,160.678084 916.907919,157.030413 C910.054719,153.382743 899.111871,149.458792 884.079047,145.258444 C869.046222,140.837025 856.776969,136.581473 847.270918,132.491661 C837.764867,128.401848 829.530098,122.267221 822.566363,114.087596 C815.602628,105.907971 812.120813,95.0756572 812.120813,81.5903294 C812.120813,65.894292 816.486899,52.0775649 825.219201,40.1397337 C833.951504,28.2019025 846.331291,19.0275957 862.358935,12.6165382 C878.386579,6.20548068 897.011527,3 918.234338,3 C933.930375,3 948.741907,4.71327415 962.669376,8.13987386 C976.596846,11.5664736 988.534498,16.4852284 998.482691,22.8962859 L978.2548,64.0152768 C969.633033,58.0463612 959.906057,53.5697416 949.073581,50.5852838 C938.241104,47.600826 926.966655,46.1086195 915.249895,46.1086195 C899.995999,46.1086195 887.947813,48.7614311 879.104975,54.0671338 C870.262138,59.3728366 865.840785,66.2259332 865.840785,74.6266293 C865.840785,79.7112611 867.71986,83.966813 871.478066,87.3934128 C875.236272,90.8200125 879.989226,93.5833579 885.737071,95.6835319 C891.484915,97.7837059 899.553884,100.270717 909.944219,103.144639 C924.755972,107.123916 936.914692,111.1584 946.420743,115.248213 C955.926794,119.338026 964.051029,125.306852 970.793693,133.15487 C977.536357,141.002889 980.907638,151.337801 980.907638,164.159916 C980.907638,180.077024 976.486286,193.949018 967.643448,205.776314 C958.80061,217.60361 946.310289,226.777916 930.172109,233.299509 C914.03393,239.821102 895.243181,243.08185 873.799299,243.08185 Z M1540.32488,241.092221 C1517.3335,241.092221 1496.49787,235.952399 1477.81738,225.6726 C1459.13688,215.392801 1444.54642,201.299739 1434.04555,183.392992 C1423.54468,165.486245 1418.29432,145.369091 1418.29432,123.040925 C1418.29432,100.712759 1423.54468,80.5956046 1434.04555,62.6888577 C1444.54642,44.7821109 1459.13688,30.6890493 1477.81738,20.4092502 C1496.49787,10.1294511 1517.3335,4.98962859 1540.32488,4.98962859 C1563.31626,4.98962859 1584.04135,10.0741841 1602.50077,20.2434478 C1620.9602,30.4127114 1635.49539,44.505773 1646.1068,62.5230554 C1656.7182,80.5403377 1662.02383,100.712759 1662.02383,123.040925 C1662.02383,145.369091 1656.7182,165.541512 1646.1068,183.558795 C1635.49539,201.576077 1620.9602,215.669139 1602.50077,225.838402 C1584.04135,236.007666 1563.31626,241.092221 1540.32488,241.092221 Z M1540.32488,219.206307 C1558.67377,219.206307 1575.25384,215.061289 1590.06559,206.771128 C1604.87735,198.480968 1616.4834,186.985451 1624.88409,172.284233 C1633.28479,157.583015 1637.48507,141.168743 1637.48507,123.040925 C1637.48507,104.913107 1633.28479,88.4988355 1624.88409,73.7976174 C1616.4834,59.0963993 1604.87735,47.6008824 1590.06559,39.3107218 C1575.25384,31.0205612 1558.67377,26.8755431 1540.32488,26.8755431 C1521.97599,26.8755431 1505.34065,31.0205612 1490.41836,39.3107218 C1475.49607,47.6008824 1463.77949,59.0963993 1455.26826,73.7976174 C1446.75702,88.4988355 1442.50147,104.913107 1442.50147,123.040925 C1442.50147,141.168743 1446.75702,157.583015 1455.26826,172.284233 C1463.77949,186.985451 1475.49607,198.480968 1490.41836,206.771128 C1505.34065,215.061289 1521.97599,219.206307 1540.32488,219.206307 Z M1810.58276,241.092221 C1780.51711,241.092221 1757.08394,232.470584 1740.28255,215.22705 C1723.48116,197.983516 1715.08059,172.892339 1715.08059,139.952768 L1715.08059,6.97925718 L1739.61934,6.97925718 L1739.61934,138.957954 C1739.61934,165.92861 1745.6987,186.045764 1757.8576,199.310021 C1770.01651,212.574278 1787.59138,219.206307 1810.58276,219.206307 C1833.79521,219.206307 1851.48062,212.574278 1863.63952,199.310021 C1875.79843,186.045764 1881.87779,165.92861 1881.87779,138.957954 L1881.87779,6.97925718 L1905.75333,6.97925718 L1905.75333,139.952768 C1905.75333,172.892339 1897.40803,197.983516 1880.71717,215.22705 C1864.02631,232.470584 1840.64841,241.092221 1810.58276,241.092221 Z M2138.20827,239.102593 L2085.15151,164.491521 C2079.18259,165.154734 2072.9927,165.486335 2066.58164,165.486335 L2004.23994,165.486335 L2004.23994,239.102593 L1979.70119,239.102593 L1979.70119,6.97925718 L2066.58164,6.97925718 C2096.20515,6.97925718 2119.41725,14.0534214 2136.21864,28.2019622 C2153.02003,42.3505029 2161.4206,61.8044546 2161.4206,86.5644008 C2161.4206,104.692219 2156.83345,120.001152 2147.659,132.491661 C2138.48456,144.982169 2125.3863,153.990675 2108.36384,159.517449 L2165.06826,239.102593 L2138.20827,239.102593 Z M2065.91843,144.595235 C2088.90981,144.595235 2106.48469,139.510679 2118.64359,129.341416 C2130.80249,119.172152 2136.88185,104.91329 2136.88185,86.5644008 C2136.88185,67.7733702 2130.80249,53.3487071 2118.64359,43.289979 C2106.48469,33.2312508 2088.90981,28.2019622 2065.91843,28.2019622 L2004.23994,28.2019622 L2004.23994,144.595235 L2065.91843,144.595235 Z M2283.45116,241.092221 C2266.20762,241.092221 2249.68282,238.328876 2233.87624,232.802102 C2218.06967,227.275329 2205.85568,219.980097 2197.23392,210.916188 L2206.85046,192.014716 C2215.25115,200.415412 2226.41507,207.213242 2240.34254,212.408409 C2254.27001,217.603577 2268.6394,220.201121 2283.45116,220.201121 C2304.23183,220.201121 2319.81709,216.387705 2330.20743,208.760757 C2340.59776,201.133809 2345.79285,191.241033 2345.79285,179.08213 C2345.79285,169.79715 2342.97424,162.391385 2337.33693,156.864611 C2331.69962,151.337837 2324.79126,147.082285 2316.61163,144.097828 C2308.43201,141.11337 2297.04702,137.852622 2282.45634,134.315487 C2264.99174,129.894068 2251.06448,125.638516 2240.67414,121.548704 C2230.28381,117.458891 2221.38583,111.21373 2213.97996,102.813034 C2206.57408,94.4123383 2202.8712,83.0273552 2202.8712,68.6577435 C2202.8712,56.9409832 2205.96615,46.2744699 2212.15613,36.6578837 C2218.34612,27.0412974 2227.85203,19.3591972 2240.67414,13.6113525 C2253.49626,7.86350782 2269.41313,4.98962859 2288.42523,4.98962859 C2301.68948,4.98962859 2314.67721,6.81343656 2327.38879,10.4611072 C2340.10037,14.1087779 2351.09848,19.1380665 2360.38346,25.549124 L2352.09334,45.1138052 C2342.36622,38.7027477 2331.97604,33.8945267 2320.92249,30.6889979 C2309.86895,27.4834691 2299.03663,25.8807288 2288.42523,25.8807288 C2268.0867,25.8807288 2252.77777,29.8046793 2242.49797,37.652698 C2232.21817,45.5007167 2227.07835,55.6145609 2227.07835,67.994534 C2227.07835,77.2795138 2229.89696,84.7405464 2235.53427,90.3778556 C2241.17158,96.0151648 2248.24574,100.325984 2256.75697,103.310441 C2265.2682,106.294899 2276.70845,109.555647 2291.07807,113.092782 C2308.10053,117.29313 2321.86199,121.438148 2332.36286,125.527961 C2342.86373,129.617773 2351.7617,135.807667 2359.05704,144.097828 C2366.35238,152.387988 2370,163.607171 2370,177.755711 C2370,189.472472 2366.84979,200.138985 2360.54926,209.755571 C2354.24874,219.372157 2344.57703,226.998991 2331.53385,232.6363 C2318.49066,238.273609 2302.46326,241.092221 2283.45116,241.092221 Z" id="path-1"></path>
        <filter x="-0.3%" y="-2.3%" width="100.5%" height="105.4%" filterUnits="objectBoundingBox" id="filter-2">
            <feOffset dx="0" dy="1" in="SourceAlpha" result="shadowOffsetOuter1"></feOffset>
            <feGaussianBlur stdDeviation="2" in="shadowOffsetOuter1" result="shadowBlurOuter1"></feGaussianBlur>
            <feColorMatrix values="0 0 0 0 0   0 0 0 0 0   0 0 0 0 0  0 0 0 0.1 0" type="matrix" in="shadowBlurOuter1"></feColorMatrix>
        </filter>
    </defs>
    <g id="Page-1" stroke="none" stroke-width="1" fill="none" fill-rule="evenodd">
        <g id="TRIPSYTOURS">
            <use fill="black" fill-opacity="1" filter="url(#filter-2)" xlink:href="#path-1"></use>
            <use fill="#FFFFFF" fill-rule="evenodd" xlink:href="#path-1"></use>
        </g>
    </g>
</svg>