<?xml version="1.0" encoding="UTF-8"?>
<svg width="139px" height="36px" viewBox="0 0 139 36" version="1.1" xmlns="http://www.w3.org/2000/svg" xmlns:xlink="http://www.w3.org/1999/xlink">
    <!-- Generator: Sketch 53 (72520) - https://sketchapp.com -->
    <title>Group 5</title>
    <desc>Created with Sketch.</desc>
    <g id="Page-1" stroke="none" stroke-width="1" fill="none" fill-rule="evenodd">
        <g id="Desktop-HD" transform="translate(-923.000000, -207.000000)" fill="#272727" fill-rule="nonzero">
            <g id="Group-5" transform="translate(924.000000, 208.000000)">
                <g id="africa">
                    <path d="M16.532968,3.75374517 C16.5653858,3.93354687 16.5500895,4.11434189 16.474743,4.29490011 C16.184332,4.9908377 15.4306203,5.2487752 14.6074348,4.93970467 C13.9311381,4.68581103 13.4092178,4.39763124 12.2835744,3.70523017 C11.7648818,3.38610448 11.5368772,3.24935095 11.2566958,3.09432331 C11.0630461,2.98716844 10.9302209,2.79172486 10.8985632,2.56773906 C10.8669885,2.34378152 10.9399835,2.1176005 11.0955831,1.95800796 C11.2108546,1.83979695 11.2618581,1.71910817 11.2184996,1.60644472 C11.1709415,1.48276956 11.0265178,1.38460921 10.8233308,1.37956557 C10.6250406,1.37493336 10.4424936,1.39819765 10.0170891,1.47110455 C9.98946357,1.4758233 9.98946357,1.4758233 9.96168104,1.48056027 C9.81252629,1.50596291 9.71862158,1.52105669 9.62009385,1.53475045 C9.57646567,1.5407114 9.57646567,1.5407114 9.53282757,1.54621559 C9.31200426,1.57346497 9.0741172,1.59510349 8.7730692,1.61695933 C8.66575087,1.62475055 8.57921279,1.63064093 8.38701906,1.64343539 C8.21983211,1.65455897 8.14525188,1.65960427 8.05226715,1.66620674 C7.14706505,1.73048152 6.59617504,1.81058493 6.1131083,1.97968094 C5.89211333,2.05698899 5.80815732,2.16022567 5.57959808,2.59638089 C5.45298672,2.83804505 5.38622785,2.95712146 5.28868211,3.10370231 C5.05176222,3.4598397 4.83194421,3.72225187 4.32902657,4.27920264 C4.11767063,4.51329154 4.02957588,4.61227878 3.92309115,4.73751996 C3.90469614,4.75919842 3.90469614,4.75919842 3.88646614,4.78086373 C3.81785124,4.86264189 3.74517711,4.9475895 3.66346507,5.04175904 C3.59337378,5.12253619 3.53643307,5.18751744 3.41107179,5.33012116 C2.63358939,6.21468082 2.33275612,6.60712354 2.06925583,7.16239272 C1.53868678,8.28063898 1.29400271,9.35224201 1.34131134,10.3474915 C1.36000626,10.7412757 1.06591198,11.0767929 0.683346226,11.0962116 C0.300444469,11.1146367 -0.02387566,10.8110349 -0.0425613633,10.4175162 C-0.101543534,9.17760085 0.190462806,7.87101483 0.824730927,6.53414778 C1.1586955,5.83042889 1.52124359,5.35243957 2.38461762,4.37013171 C2.60872727,4.1152201 2.71630552,3.99143719 2.83904859,3.84533456 C2.96777238,3.69189764 3.07854752,3.56697937 3.31514633,3.30513838 C3.77300144,2.79805878 3.95691023,2.57967268 4.14623659,2.29512844 C4.21022493,2.19894723 4.25739394,2.11421157 4.36086668,1.91663936 C4.45924255,1.72900391 4.50724486,1.6414975 4.57477942,1.53256451 C4.84697746,1.09351005 5.17477976,0.798920422 5.66812873,0.626285834 C6.22013878,0.433178614 6.81995339,0.331730127 7.65124044,0.263711253 C7.83139853,0.248970075 7.97553156,0.23883025 8.29797725,0.217381905 C8.34227952,0.214436159 8.34227952,0.214436159 8.38631458,0.211499922 C8.85777999,0.180016488 9.10744,0.159568078 9.36837395,0.127333302 C9.47785473,0.113855197 9.56582354,0.0997751534 9.79034123,0.0614011524 C9.80926472,0.0581625012 9.80926472,0.0581625012 9.82822978,0.0549185287 C10.3134618,-0.0280452814 10.5600699,-0.0569775886 10.856899,-0.0489369861 C11.601894,-0.0303098249 12.2496369,0.412429539 12.5062859,1.07940416 C12.6518602,1.45784936 12.6589502,1.86067456 12.5080882,2.1817102 C12.5822369,2.22636775 12.6277334,2.25401794 12.7466575,2.32663642 C12.8705138,2.402535 12.8705138,2.402535 12.9932119,2.47799068 C13.071132,2.52590393 13.071132,2.52590393 13.1492718,2.57388201 C13.585544,2.84155804 13.8650365,3.00682628 14.1545718,3.16372907 C14.4627137,3.33071503 14.7424234,3.46443395 15.0074262,3.56849749 C14.9794662,3.34044436 15.0307515,3.11806541 15.184548,2.90977535 C15.3624087,2.66890445 15.5930945,2.56107606 16.1783532,2.39622331 C16.2051365,2.38867496 16.2051365,2.38867496 16.2336162,2.38059881 C16.2369576,2.37964783 16.2369576,2.37964783 16.2402948,2.37869652 C16.3095278,2.35875006 16.3326238,2.35181552 16.3465496,2.34657672 C16.5016689,2.28861741 16.674575,2.28827628 16.8273755,2.34663812 C17.0051486,2.41453125 17.1556918,2.4735878 17.4614851,2.59468669 C18.0722509,2.8364368 18.3506722,2.94278211 18.6898645,3.05815748 C18.8395042,3.10906997 18.9841592,3.14405271 19.2459349,3.19747692 C19.2763336,3.20367003 19.2763336,3.20367003 19.3069811,3.20989246 C19.7449377,3.29883753 19.9565212,3.3531664 20.2180838,3.46102829 C20.6082489,3.62192262 20.9363173,3.85766813 21.2138762,4.20372399 C21.7281078,4.84499541 22.0241613,5.4690017 22.5863219,6.91585844 C22.7060417,7.2239198 22.7569923,7.35362598 22.8216872,7.51286602 C22.8902555,7.68163985 22.952484,7.8279811 23.0132192,7.96217517 C23.1143274,8.1855031 23.1951609,8.37310674 23.3654212,8.77504524 C23.9616982,10.1823142 24.2696171,10.7791556 24.7833847,11.3547019 C25.4310695,12.0802886 25.8926419,12.2406479 27.1520873,12.2273219 C27.1656625,12.2271511 27.1656625,12.2271511 27.1791754,12.227117 C27.9114526,12.227117 28.3587841,12.5508302 28.5861119,13.0225399 C28.8988637,13.6715561 28.7037922,14.5637944 28.1976982,15.2412011 C27.757365,15.8312099 27.3574626,16.2738112 26.4465257,17.2210935 C26.0148727,17.6697909 25.8237811,17.8715521 25.5959203,18.1235521 C25.5337407,18.1923451 25.467335,18.2639894 25.3894346,18.3466372 C25.3070824,18.4337139 25.3070824,18.4337139 25.2256672,18.5192187 C24.2722804,19.520827 24.0109442,19.9673056 24.1179056,20.6320301 C24.159882,20.8928672 24.2296021,21.0893028 24.4212669,21.541326 C24.4561568,21.6236546 24.4561568,21.6236546 24.4916371,21.7086131 C24.8515003,22.576587 24.9400641,23.2063101 24.6683693,24.0157272 C24.483372,24.5669936 24.1873297,24.9693428 23.711017,25.4095013 C23.6360354,25.4787915 23.5759503,25.5322356 23.4434511,25.6485485 C23.3632887,25.7189392 23.3632887,25.7189392 23.2856041,25.787977 C23.2128813,25.8530016 23.1518421,25.9092888 23.094109,25.9649781 C22.8502739,26.2002952 22.766333,26.4289156 22.6442756,27.0737787 C22.4931506,27.8728839 22.3635806,28.2578937 22.0078386,28.7063187 C21.8749678,28.8738399 21.7411108,28.9790862 21.4524089,29.1700803 C21.4107423,29.1976935 21.4107423,29.1976935 21.3651038,29.2284265 C21.3550118,29.235291 21.3550118,29.235291 21.3449853,29.2421672 C21.2882684,29.2811535 21.2479541,29.3112072 21.2399664,29.3112571 C21.2188243,29.3693515 21.2008136,29.4935962 21.1726449,29.7386867 C21.1181379,30.2125588 21.0740314,30.4375843 20.9573855,30.6904492 C20.3199439,32.0723749 18.3097552,33.7837961 16.9238595,34.0166372 C16.7909431,34.038962 16.6619624,34.05 16.5373446,34.05 C15.5725608,34.0501336 14.9148623,33.4326777 14.3597241,32.2980014 C14.247295,32.0682017 14.1665162,31.8820527 14.0057794,31.4946401 C13.8742701,31.1775721 13.8182917,31.0467587 13.7480078,30.8984435 C13.5866586,30.5580506 13.4499925,30.1939618 13.3149693,29.7618225 C13.2426645,29.5304122 13.189485,29.3451991 13.0745479,28.93272 C13.0469613,28.8337697 13.0469613,28.8337697 13.0195164,28.7357678 C12.8481116,28.1250964 12.7327056,27.7659243 12.579963,27.4035298 C12.5155277,27.2507197 12.4506216,27.1217121 12.2911974,26.8201013 C11.6617238,25.6292084 11.4881268,24.9796872 11.8102426,24.1059827 C11.8739586,23.9330598 11.9473395,23.7706406 12.0368687,23.5978746 C12.0827934,23.509253 12.1195142,23.4423094 12.1995993,23.2991886 C12.3375477,23.0526123 12.3849218,22.9606982 12.4286182,22.8433484 C12.4981148,22.6567106 12.5157746,22.4795198 12.4826678,22.2408436 L12.4704627,22.15251 C12.357251,21.3315937 12.2794423,20.9222435 12.1410406,20.5976258 C12.062668,20.4137957 11.9454876,20.2637494 11.6279407,19.9092631 C11.0172237,19.2275864 10.7777529,18.8497886 10.6979676,18.232981 C10.6677038,17.9993861 10.6722221,17.8109266 10.7015517,17.4880909 C10.7029031,17.473244 10.7029031,17.473244 10.7042484,17.4585212 C10.7330956,17.1434038 10.7333521,17.030365 10.6913588,16.8963617 C10.5816717,16.5459987 10.3359131,16.2430824 10.0174816,16.0657346 C9.55920792,15.8104482 9.15503178,15.8424363 8.09556939,16.1120813 C8.06925971,16.1187756 8.06925971,16.1187756 8.04289215,16.1254788 C7.42164283,16.2833422 7.09403602,16.3475107 6.7038081,16.3651233 C5.38170775,16.4245323 4.1215101,16.1377612 3.05943255,15.5351537 C2.72447559,15.345129 2.60227557,14.911509 2.78565919,14.5659584 C2.96952027,14.219508 3.3913788,14.0924626 3.72716266,14.2830027 C4.56659303,14.759159 5.57466705,14.9854924 6.64316885,14.937357 C6.93215043,14.9242856 7.17801445,14.8736721 7.76370755,14.7244891 C7.81091307,14.712478 7.81091307,14.712478 7.85844812,14.7004198 C9.14684354,14.374087 9.85779735,14.3524641 10.6759288,14.8082229 C11.3056456,15.1590153 11.7916305,15.7597651 12.0099519,16.4571516 C12.1196796,16.8075773 12.1290983,17.0920245 12.0870663,17.5564297 C12.0854126,17.5746441 12.0854126,17.5746441 12.0837716,17.5926093 C12.0612302,17.8391471 12.05721,17.93415 12.0714255,18.0438207 C12.0859535,18.1559172 12.1304928,18.2693679 12.2057852,18.3924756 C12.2955789,18.5392937 12.3926072,18.6567455 12.6457426,18.9394067 C13.068361,19.4111814 13.2544053,19.658653 13.4094936,20.0222328 C13.6122781,20.4976593 13.7077488,20.975179 13.8423316,21.9511602 L13.8544035,22.0383966 C13.9549855,22.7628813 13.8251089,23.2440133 13.4626764,23.9007389 C13.431092,23.9577087 13.431092,23.9577087 13.3998145,24.0136092 C13.2378274,24.3031156 13.172749,24.4316726 13.1055265,24.6139736 C12.970668,24.9798872 13.0710055,25.3090201 13.5080344,26.1360708 C13.5365141,26.1899647 13.5365141,26.1899647 13.565135,26.2443196 C13.6948304,26.4910766 13.7771533,26.6585586 13.8509533,26.8336957 C14.0488013,27.3031145 14.1697689,27.68849 14.406433,28.5378433 C14.6600669,29.4479246 14.7826336,29.8267127 14.993061,30.2708267 C15.0477216,30.386096 15.1022256,30.5091315 15.1663319,30.6604279 C15.1976862,30.7344268 15.2227324,30.7944867 15.2798814,30.9322418 C15.8563066,32.3215868 16.1596759,32.696719 16.7012485,32.6060889 C17.6355024,32.4491149 19.2583328,31.0476843 19.7064257,30.0764059 C19.7411264,30.0011674 19.7629383,29.8658686 19.7969586,29.5701329 C19.8071625,29.4815396 19.8071625,29.4815396 19.8181868,29.3921957 C19.8647688,29.0268911 19.9272896,28.786974 20.055319,28.5682406 C20.1909288,28.3365926 20.3489237,28.2025099 20.7040861,27.9673692 C20.746027,27.9395965 20.746027,27.9395965 20.7919755,27.9086531 C20.8024116,27.9015517 20.8024116,27.9015517 20.8127768,27.8944374 C20.8790492,27.8488389 20.9237643,27.8146498 20.9370926,27.799495 C21.1030576,27.5901265 21.1768003,27.3645856 21.2698612,26.8774317 C21.2771921,26.8389382 21.2771921,26.8389382 21.2845776,26.79992 C21.377147,26.3109387 21.4368979,26.0719678 21.5621642,25.7773392 C21.6993181,25.4547508 21.8882249,25.1716434 22.1479048,24.9211434 C22.2612409,24.8118718 22.3526627,24.7295878 22.5457229,24.5601656 C23.070677,24.099451 23.2394934,23.9053883 23.3593958,23.5481518 C23.5090283,23.1022663 23.4610474,22.8427386 23.1520849,22.1137927 C23.1116919,22.0184941 23.0933595,21.9749587 23.0705485,21.9197343 C22.9053052,21.5196871 22.807158,21.212456 22.7514403,20.8659988 C22.5704905,19.7416886 22.9733231,18.8889206 23.9194684,17.8562587 C24.0086226,17.7589522 24.0801692,17.6830489 24.2373365,17.5179279 C24.4047144,17.3420419 24.4743944,17.2680395 24.559913,17.174131 C24.5714748,17.1614205 24.5714748,17.1614205 24.5829798,17.1487126 C24.820842,16.885631 25.0202928,16.6750411 25.463122,16.2145717 C26.3277051,15.3156422 26.7040354,14.9000913 27.1001235,14.3692959 C27.2985025,14.1035834 27.3893694,13.7627126 27.3678311,13.6850055 C27.3434048,13.6710718 27.2763275,13.6567688 27.1672509,13.6561764 C25.5646132,13.6754076 24.734488,13.4097138 23.7640525,12.3226342 C23.1187943,11.599853 22.761139,10.9175513 22.0957833,9.34736431 C21.9296545,8.95513088 21.8535039,8.77837878 21.7576632,8.56661257 C21.6643455,8.36047959 21.5726445,8.14059345 21.461895,7.86105328 C21.4173772,7.74868705 21.3833367,7.66151148 21.3001356,7.4474666 C20.7981331,6.15500521 20.5450731,5.61186081 20.1462346,5.11456344 C19.9233605,4.83664494 19.7061205,4.74742848 19.0394167,4.61205286 C18.6606038,4.53513743 18.484587,4.49305089 18.2559859,4.41529013 C17.8903041,4.29099804 17.5976651,4.17931762 16.9650685,3.92880999 C16.7552472,3.84578603 16.6626797,3.80930258 16.5772568,3.76523521 C16.560554,3.769933 16.560554,3.769933 16.543457,3.77478413 C16.5305287,3.77842462 16.5247567,3.78004996 16.5236211,3.77222352 Z M15.0074262,3.56849749 C15.0324215,3.57831288 15.057286,3.58786444 15.0820312,3.5971552 C15.0831281,3.59757758 15.0831281,3.59757758 15.0845686,3.59810757 C15.0861697,3.59868875 15.0861697,3.59868875 15.0220654,3.65660133 C15.0159122,3.62715172 15.011016,3.59777784 15.0074262,3.56849749 Z" id="Path" stroke="#272727" stroke-width="0.1"></path>
                    <path d="M2.17455732,12.5777165 L2.14672739,12.5313589 C1.8994386,12.115188 1.35741762,11.9762024 0.936523084,12.2203875 C0.515451853,12.4648344 0.374623582,13.0002606 0.621912372,13.4162569 L0.656898568,13.474575 C0.822552902,13.748181 1.11578316,13.9 1.41652308,13.9 C1.57086875,13.9 1.72733479,13.8600155 1.8694883,13.7759432 C2.28861585,13.5283533 2.42511502,12.9918795 2.17455732,12.5777165 Z" id="Path"></path>
                    <path d="M30.7221473,24.4236892 L30.2021824,22.7715156 C30.1147039,22.4936061 29.8351386,22.2888897 29.4965337,22.254817 C29.1579287,22.2213753 28.8289697,22.364186 28.6664027,22.6169968 C28.5482402,22.8006807 28.4385595,22.991095 28.3324544,23.1752697 C28.130389,23.5259517 27.9396327,23.8571436 27.7097106,24.118788 C27.5863925,24.2590047 27.3294452,24.3545624 27.0318354,24.4651934 C26.4805213,24.67005 25.7254788,24.9506236 25.3931936,25.7408851 C25.1519625,26.3145117 25.3545268,26.7096424 25.4755165,26.9457674 C25.5239124,27.0402033 25.5496071,27.0921536 25.55759,27.1465577 C25.5687327,27.2232562 25.536053,27.2798337 25.3516995,27.5035495 C25.1878852,27.7022366 24.9839905,27.9495789 24.8796316,28.2887631 C24.6235991,29.1211597 24.6785642,30.2989801 25.6765008,30.8791268 C26.1581315,31.1591396 26.586377,31.25 26.9392014,31.25 C27.1694561,31.25 27.3676963,31.2113703 27.5276855,31.1612428 C28.710724,30.791281 29.1386369,29.4174376 29.421861,28.5082724 C29.463854,28.3731736 29.5002756,28.2564431 29.5328722,28.16383 L30.7154949,24.8032559 C30.759151,24.6795847 30.7613962,24.5482718 30.7221473,24.4236892 Z M28.2825916,27.9287522 C28.2335405,28.0496631 28.1827558,28.1907507 28.1291157,28.3399536 C27.9912423,28.7230119 27.8198184,29.1998804 27.5850666,29.5896394 C27.2937173,30.0735064 26.7335973,29.9743356 26.7246233,29.9767181 C26.7053495,29.9822276 26.5754304,29.9747079 26.3227306,29.847543 C26.0657477,29.71807 25.9908963,29.1806716 26.1626262,28.6975491 C26.1990321,28.5950279 26.311615,28.4768718 26.4418401,28.3399536 C26.7261529,28.04125 27.1558854,27.5899932 27.0440163,26.9279612 C26.9979225,26.6550927 26.8784051,26.4533263 26.7912145,26.3059847 C26.7625588,26.2575906 26.7232975,26.1914023 26.7188105,26.1750972 C26.7188105,26.1748738 26.7200343,26.157303 26.7403278,26.1154607 C26.8437328,25.9026009 27.0716521,25.81229 27.6493537,25.626382 C28.0930571,25.4836565 29.006641,24.9373526 29.4477949,24.6040286 L28.2825916,27.9287522 Z" id="Shape"></path>
                </g>
                <g id="Group-2" transform="translate(37.000000, 1.000000)">
                    <path d="M11.558669,0 L12,2.25 L7.1033275,2.25 L7.1033275,15 L4.3502627,15 L4.3502627,2.25 L0,2.25 L0,0 L11.558669,0 Z M17.013245,8.28659794 L17.013245,15 L14,15 L14,4 L15.5761589,4 L16.5728477,5.8371134 C17.1136892,5.36838254 17.747237,4.94501907 18.4735099,4.56701031 C19.1997829,4.18900155 19.8410568,4 20.397351,4 L21,6.35876289 C20.4900637,6.35876289 19.860379,6.54020437 19.1109272,6.90309278 C18.3614753,7.2659812 17.6622549,7.72714497 17.013245,8.28659794 Z M23.4794521,3 C23.0684911,3 22.7191795,2.85616582 22.4315068,2.56849315 C22.1438342,2.28082048 22,1.92465966 22,1.5 C22,1.07534034 22.1438342,0.719179521 22.4315068,0.431506849 C22.7191795,0.143834178 23.0684911,0 23.4794521,0 C23.9041117,0 24.2636972,0.143834178 24.5582192,0.431506849 C24.8527412,0.719179521 25,1.07534034 25,1.5 C25,1.92465966 24.8527412,2.28082048 24.5582192,2.56849315 C24.2636972,2.85616582 23.9041117,3 23.4794521,3 Z M25,15 L22,15 L22,4 L25,4 L25,15 Z M31.7413793,4 C33.3649506,4 34.6472654,4.50952536 35.5883621,5.52859135 C36.5294587,6.54765735 37,7.92746689 37,9.66806137 C37,10.7987039 36.7880768,11.7954397 36.3642241,12.6582985 C35.9403714,13.5211573 35.3261534,14.1906066 34.5215517,14.6666667 C33.71695,15.1427267 32.7614998,15.3807531 31.6551724,15.3807531 C31.066089,15.3807531 30.4410953,15.2096716 29.7801724,14.8675035 L29.7801724,19.776848 L27,20 L27,4.29009763 L28.4224138,4.29009763 L28.9827586,5.0264993 C29.830464,4.34216301 30.749995,4 31.7413793,4 Z M31.7114428,13 C32.4145972,13 32.9718056,12.7187528 33.3830846,12.15625 C33.7943636,11.5937472 34,10.86806 34,9.97916667 C34,9.09027333 33.7976803,8.37153052 33.3930348,7.82291667 C32.9883894,7.27430281 32.4278643,7 31.7114428,7 C31.1542261,7 30.5837508,7.20138688 30,7.60416667 L30,12.4166667 C30.5439497,12.8055575 31.1144249,13 31.7114428,13 Z M39,13.9215686 L39.8432432,12.0235294 C40.9099152,12.4980416 41.8252214,12.7352941 42.5891892,12.7352941 C43.0216238,12.7352941 43.4180162,12.6562099 43.7783784,12.4980392 C44.1387405,12.3398685 44.3189189,12.1169949 44.3189189,11.8294118 C44.3189189,11.2686246 43.7063124,10.8013091 42.4810811,10.427451 C41.4864815,10.0967304 40.657661,9.67255161 39.9945946,9.15490196 C39.3315282,8.63725231 39,7.98301049 39,7.19215686 C39,6.19999504 39.3675639,5.41993748 40.1027027,4.85196078 C40.8378415,4.28398409 41.8324262,4 43.0864865,4 C43.576579,4 44.1747712,4.10065259 44.8810811,4.30196078 C45.5873909,4.50326898 46.1855831,4.76927939 46.6756757,5.1 L45.8324324,6.97647059 C45.2846819,6.73202492 44.7982003,6.55228816 44.372973,6.4372549 C43.9477456,6.32222165 43.5045068,6.26470588 43.0432432,6.26470588 C42.6828811,6.26470588 42.383785,6.35457426 42.1459459,6.53431373 C41.9081069,6.71405319 41.7891892,6.92614257 41.7891892,7.17058824 C41.7891892,7.35751727 41.9297283,7.52646983 42.2108108,7.67745098 C42.4918933,7.82843213 42.8990964,7.99738469 43.4324324,8.18431373 C44.455861,8.5581718 45.3063029,9.03267686 45.9837838,9.60784314 C46.6612646,10.1830094 47,10.8875775 47,11.7215686 C47,12.7712471 46.625229,13.5800625 45.8756757,14.1480392 C45.1261224,14.7160159 44.0450521,15 42.6324324,15 C42.0990964,15 41.4720757,14.9065369 40.7513514,14.7196078 C40.030627,14.5326788 39.4468491,14.2666684 39,13.9215686 Z M50.2795031,15.6082759 L50.8033126,14.3503448 L47,4.83862069 L49.9151139,4 L52.4658385,10.8855172 L54.8799172,4.39724138 L58,4.39724138 L53.057971,16.5131034 C52.7239459,17.3517283 52.1242279,18.083675 51.2587992,18.7089655 C50.3933704,19.334256 49.452041,19.7645965 48.4347826,20 L47.3871636,17.6386207 C48.1614946,17.3149409 48.7953737,17.0059785 49.2888199,16.7117241 C49.7822661,16.4174698 50.1124905,16.0496574 50.2795031,15.6082759 Z" id="Tripsy"></path>
                </g>
                <path d="M45.67,32 L44.734,32 C44.6256661,32 44.541167,31.9729169 44.4805,31.91875 C44.419833,31.8645831 44.3786668,31.7941671 44.357,31.7075 L43.85,29.4325 L40.054,29.4325 L38.988,31.7075 C38.9489998,31.7855004 38.8894171,31.8537497 38.80925,31.91225 C38.7290829,31.9707503 38.6391672,32 38.5395,32 L37.5905,32 L42.16,22.6855 L43.3885,22.6855 L45.67,32 Z M40.4635,28.5485 L43.655,28.5485 L42.797,24.694 C42.7709999,24.5813328 42.7428335,24.4535007 42.7125,24.3105 C42.6821665,24.1674993 42.6561668,24.0136675 42.6345,23.849 C42.573833,24.0136675 42.5120836,24.1685826 42.44925,24.31375 C42.3864164,24.4589174 42.3268336,24.5878328 42.2705,24.7005 L40.4635,28.5485 Z M51.3445,32 L50.7465,32 C50.5948326,32 50.4919169,31.9610004 50.43775,31.883 C50.3835831,31.8049996 50.3565,31.7096672 50.3565,31.597 L50.4735,30.2645 C50.3174992,30.5418347 50.1495842,30.7931655 49.96975,31.0185 C49.7899158,31.2438345 49.599251,31.4355825 49.39775,31.59375 C49.196249,31.7519175 48.9850011,31.8743329 48.764,31.961 C48.5429989,32.0476671 48.3133345,32.091 48.075,32.091 C47.8149987,32.091 47.5788344,32.0400838 47.3665,31.93825 C47.1541656,31.8364162 46.9732507,31.6869177 46.82375,31.48975 C46.6742493,31.2925823 46.5583337,31.0499181 46.476,30.76175 C46.3936663,30.4735819 46.3525,30.1431685 46.3525,29.7705 C46.3525,29.380498 46.4012495,29.0002519 46.49875,28.62975 C46.5962505,28.2592481 46.7349158,27.909335 46.91475,27.58 C47.0945842,27.250665 47.3101654,26.948418 47.5615,26.67325 C47.8128346,26.398082 48.0934151,26.159751 48.40325,25.95825 C48.7130849,25.756749 49.0456649,25.6007506 49.401,25.49025 C49.7563351,25.3797494 50.128998,25.3245 50.519,25.3245 C50.8006681,25.3245 51.0747487,25.3472498 51.34125,25.39275 C51.6077513,25.4382502 51.8709987,25.5173328 52.131,25.63 L51.3445,32 Z M48.5105,31.129 C48.7228344,31.129 48.9308323,31.0629173 49.1345,30.93075 C49.3381677,30.7985827 49.5309991,30.6155012 49.713,30.3815 C49.8950009,30.1474988 50.0650825,29.8690849 50.22325,29.54625 C50.3814175,29.2234151 50.5211661,28.8691686 50.6425,28.4835 L50.922,26.2215 C50.8266662,26.1998332 50.7324171,26.18575 50.63925,26.17925 C50.5460829,26.17275 50.4540005,26.1695 50.363,26.1695 C50.1029987,26.1695 49.8516679,26.2117496 49.609,26.29625 C49.3663321,26.3807504 49.1388344,26.4988326 48.9265,26.6505 C48.7141656,26.8021674 48.5213342,26.9830823 48.348,27.19325 C48.1746658,27.4034177 48.0262506,27.6341654 47.90275,27.8855 C47.7792494,28.1368346 47.6828337,28.4044152 47.6135,28.68825 C47.5441663,28.9720848 47.5095,29.2634985 47.5095,29.5625 C47.5095,30.6068386 47.8431633,31.129 48.5105,31.129 Z M53.067,32 L53.8535,25.409 L54.432,25.409 C54.6920013,25.409 54.822,25.5389987 54.822,25.799 L54.7245,27.073 C55.0755018,26.4923304 55.4709145,26.0546681 55.91075,25.76 C56.3505855,25.4653319 56.8066643,25.318 57.279,25.318 C57.7686691,25.318 58.1489153,25.482665 58.41975,25.812 C58.6905847,26.141335 58.826,26.6223302 58.826,27.255 C58.826,27.3416671 58.8238334,27.4304995 58.8195,27.5215 C58.8151666,27.6125005 58.8065001,27.7078328 58.7935,27.8075 L58.2995,32 L57.1425,32 L57.6365,27.8075 C57.6451667,27.7208329 57.65275,27.6374171 57.65925,27.55725 C57.66575,27.4770829 57.669,27.400167 57.669,27.3265 C57.669,26.9711649 57.6029173,26.7079175 57.47075,26.53675 C57.3385827,26.3655825 57.1316681,26.28 56.85,26.28 C56.641999,26.28 56.4307511,26.3363328 56.21625,26.449 C56.0017489,26.5616672 55.7948343,26.7209156 55.5955,26.92675 C55.3961657,27.1325844 55.2109175,27.3817485 55.03975,27.67425 C54.8685825,27.9667515 54.7223339,28.2928315 54.601,28.6525 L54.224,32 L53.067,32 Z M59.7295,25.4155 L60.6655,25.4155 C60.7521671,25.4155 60.8214997,25.4393331 60.8735,25.487 C60.9255003,25.5346669 60.9579999,25.5909997 60.971,25.656 L61.9525,29.894 C61.9871668,30.0543341 62.0120833,30.2146659 62.02725,30.375 C62.0424167,30.5353341 62.0543333,30.6934992 62.063,30.8495 C62.1106669,30.6934992 62.1604997,30.5364175 62.2125,30.37825 C62.2645003,30.2200825 62.3294996,30.0586675 62.4075,29.894 L64.4485,25.656 C64.4831668,25.5866663 64.530833,25.5292502 64.5915,25.48375 C64.652167,25.4382498 64.719333,25.4155 64.793,25.4155 L65.6965,25.4155 L62.3945,32 L61.426,32 L59.7295,25.4155 Z M65.8915,32 L66.6845,25.409 L67.263,25.409 C67.3843339,25.409 67.4796663,25.4371664 67.549,25.4935 C67.6183337,25.5498336 67.653,25.6364994 67.653,25.7535 C67.653,25.7708334 67.6519167,25.7957498 67.64975,25.82825 C67.6475833,25.8607502 67.6454167,25.8943332 67.64325,25.929 C67.6410833,25.9636668 67.6389167,25.9939999 67.63675,26.02 C67.6345833,26.0460001 67.6335,26.0611666 67.6335,26.0655 L67.5425,27.2615 C67.8241681,26.6548303 68.1394149,26.186835 68.48825,25.8575 C68.8370851,25.528165 69.2043314,25.3635 69.59,25.3635 C69.7720009,25.3635 69.9539991,25.4024996 70.136,25.4805 L69.928,26.592 C69.7243323,26.5096663 69.5271676,26.4685 69.3365,26.4685 C68.9161646,26.4685 68.541335,26.673248 68.212,27.08275 C67.882665,27.492252 67.6075011,28.1129958 67.3865,28.945 L67.0225,32 L65.8915,32 Z M75.037,32 L74.439,32 C74.2873326,32 74.1844169,31.9610004 74.13025,31.883 C74.0760831,31.8049996 74.049,31.7096672 74.049,31.597 L74.166,30.2645 C74.0099992,30.5418347 73.8420842,30.7931655 73.66225,31.0185 C73.4824158,31.2438345 73.291751,31.4355825 73.09025,31.59375 C72.888749,31.7519175 72.6775011,31.8743329 72.4565,31.961 C72.2354989,32.0476671 72.0058345,32.091 71.7675,32.091 C71.5074987,32.091 71.2713344,32.0400838 71.059,31.93825 C70.8466656,31.8364162 70.6657507,31.6869177 70.51625,31.48975 C70.3667493,31.2925823 70.2508337,31.0499181 70.1685,30.76175 C70.0861663,30.4735819 70.045,30.1431685 70.045,29.7705 C70.045,29.380498 70.0937495,29.0002519 70.19125,28.62975 C70.2887505,28.2592481 70.4274158,27.909335 70.60725,27.58 C70.7870842,27.250665 71.0026654,26.948418 71.254,26.67325 C71.5053346,26.398082 71.7859151,26.159751 72.09575,25.95825 C72.4055849,25.756749 72.7381649,25.6007506 73.0935,25.49025 C73.4488351,25.3797494 73.8214981,25.3245 74.2115,25.3245 C74.4931681,25.3245 74.7672487,25.3472498 75.03375,25.39275 C75.3002513,25.4382502 75.5634987,25.5173328 75.8235,25.63 L75.037,32 Z M72.203,31.129 C72.4153344,31.129 72.6233323,31.0629173 72.827,30.93075 C73.0306677,30.7985827 73.2234991,30.6155012 73.4055,30.3815 C73.5875009,30.1474988 73.7575825,29.8690849 73.91575,29.54625 C74.0739175,29.2234151 74.2136661,28.8691686 74.335,28.4835 L74.6145,26.2215 C74.5191662,26.1998332 74.4249171,26.18575 74.33175,26.17925 C74.2385829,26.17275 74.1465005,26.1695 74.0555,26.1695 C73.7954987,26.1695 73.5441679,26.2117496 73.3015,26.29625 C73.0588321,26.3807504 72.8313344,26.4988326 72.619,26.6505 C72.4066656,26.8021674 72.2138342,26.9830823 72.0405,27.19325 C71.8671658,27.4034177 71.7187506,27.6341654 71.59525,27.8855 C71.4717494,28.1368346 71.3753337,28.4044152 71.306,28.68825 C71.2366663,28.9720848 71.202,29.2634985 71.202,29.5625 C71.202,30.6068386 71.5356633,31.129 72.203,31.129 Z M81.602,32 L81.004,32 C80.8523326,32 80.7494169,31.9610004 80.69525,31.883 C80.6410831,31.8049996 80.614,31.7096672 80.614,31.597 L80.731,30.2645 C80.5749992,30.5418347 80.4070842,30.7931655 80.22725,31.0185 C80.0474158,31.2438345 79.856751,31.4355825 79.65525,31.59375 C79.453749,31.7519175 79.2425011,31.8743329 79.0215,31.961 C78.8004989,32.0476671 78.5708345,32.091 78.3325,32.091 C78.0724987,32.091 77.8363344,32.0400838 77.624,31.93825 C77.4116656,31.8364162 77.2307507,31.6869177 77.08125,31.48975 C76.9317493,31.2925823 76.8158337,31.0499181 76.7335,30.76175 C76.6511663,30.4735819 76.61,30.1431685 76.61,29.7705 C76.61,29.380498 76.6587495,29.0002519 76.75625,28.62975 C76.8537505,28.2592481 76.9924158,27.909335 77.17225,27.58 C77.3520842,27.250665 77.5676654,26.948418 77.819,26.67325 C78.0703346,26.398082 78.3509151,26.159751 78.66075,25.95825 C78.9705849,25.756749 79.3031649,25.6007506 79.6585,25.49025 C80.0138351,25.3797494 80.3864981,25.3245 80.7765,25.3245 C81.0581681,25.3245 81.3322487,25.3472498 81.59875,25.39275 C81.8652513,25.4382502 82.1284987,25.5173328 82.3885,25.63 L81.602,32 Z M78.768,31.129 C78.9803344,31.129 79.1883323,31.0629173 79.392,30.93075 C79.5956677,30.7985827 79.7884991,30.6155012 79.9705,30.3815 C80.1525009,30.1474988 80.3225825,29.8690849 80.48075,29.54625 C80.6389175,29.2234151 80.7786661,28.8691686 80.9,28.4835 L81.1795,26.2215 C81.0841662,26.1998332 80.9899171,26.18575 80.89675,26.17925 C80.8035829,26.17275 80.7115005,26.1695 80.6205,26.1695 C80.3604987,26.1695 80.1091679,26.2117496 79.8665,26.29625 C79.6238321,26.3807504 79.3963344,26.4988326 79.184,26.6505 C78.9716656,26.8021674 78.7788342,26.9830823 78.6055,27.19325 C78.4321658,27.4034177 78.2837506,27.6341654 78.16025,27.8855 C78.0367494,28.1368346 77.9403337,28.4044152 77.871,28.68825 C77.8016663,28.9720848 77.767,29.2634985 77.767,29.5625 C77.767,30.6068386 78.1006633,31.129 78.768,31.129 Z M88.167,27.242 C88.1626666,27.4586677 88.1355836,27.6536658 88.08575,27.827 C88.0359164,28.0003342 87.974167,28.1606659 87.9005,28.308 C87.826833,28.4553341 87.7466671,28.5939993 87.66,28.724 C87.5733329,28.8540006 87.493167,28.9839994 87.4195,29.114 C87.345833,29.2440007 87.2840836,29.3772493 87.23425,29.51375 C87.1844164,29.6502507 87.1595,29.7986659 87.1595,29.959 C87.1595,30.1410009 87.2039162,30.3056659 87.29275,30.453 C87.3815838,30.6003341 87.4790828,30.7519992 87.58525,30.908 C87.6914172,31.0640008 87.7889162,31.2340824 87.87775,31.41825 C87.9665838,31.6024176 88.011,31.8201654 88.011,32.0715 C88.011,32.3791682 87.9395007,32.670582 87.7965,32.94575 C87.6534993,33.220918 87.4498347,33.4646656 87.1855,33.677 C86.9211653,33.8893344 86.5994186,34.0572494 86.22025,34.18075 C85.8410814,34.3042506 85.4153357,34.366 84.943,34.366 C84.5659981,34.366 84.2225849,34.3270004 83.91275,34.249 C83.6029151,34.1709996 83.3385844,34.0605007 83.11975,33.9175 C82.9009156,33.7744993 82.7319173,33.602251 82.61275,33.40075 C82.4935827,33.199249 82.434,32.9771679 82.434,32.7345 C82.434,32.392165 82.5228324,32.0975012 82.7005,31.8505 C82.8781676,31.6034988 83.1121652,31.3998341 83.4025,31.2395 C83.6928348,31.0791659 84.0232481,30.962167 84.39375,30.8885 C84.7642519,30.814833 85.1423314,30.778 85.528,30.778 C85.6840008,30.778 85.8389159,30.7844999 85.99275,30.7975 C86.1465841,30.8105001 86.2993326,30.8278332 86.451,30.8495 C86.4119998,30.7671663 86.3805835,30.6815838 86.35675,30.59275 C86.3329165,30.5039162 86.321,30.4075005 86.321,30.3035 C86.321,30.169166 86.3415831,30.0305007 86.38275,29.8875 C86.4239169,29.7444993 86.4921662,29.5841676 86.5875,29.4065 C86.4228325,29.5191672 86.2386677,29.605833 86.035,29.6665 C85.8313323,29.727167 85.5995013,29.7575 85.3395,29.7575 C85.0881654,29.7575 84.8530844,29.7163337 84.63425,29.634 C84.4154156,29.5516663 84.2236675,29.4303341 84.059,29.27 C83.8943325,29.1096659 83.7643338,28.9092512 83.669,28.66875 C83.5736662,28.4282488 83.526,28.1476683 83.526,27.827 C83.526,27.5149984 83.5834161,27.2084182 83.69825,26.90725 C83.8130839,26.6060818 83.9809989,26.3374178 84.202,26.10125 C84.4230011,25.8650822 84.6959984,25.6755007 85.021,25.5325 C85.3460016,25.3894993 85.7208312,25.318 86.1455,25.318 C86.6221691,25.318 87.0359982,25.4306655 87.387,25.656 L89.1745,25.656 L89.1225,26.0395 C89.1138333,26.113167 89.0889169,26.180333 89.04775,26.241 C89.0065831,26.301667 88.9448337,26.3384999 88.8625,26.3515 L88.0435,26.4945 C88.0825002,26.6071672 88.1128332,26.7252494 88.1345,26.84875 C88.1561668,26.9722506 88.167,27.1033326 88.167,27.242 Z M85.658,29.0295 C85.8920012,29.0295 86.0978324,28.9785838 86.2755,28.87675 C86.4531676,28.7749162 86.6037494,28.6405842 86.72725,28.47375 C86.8507506,28.3069158 86.9449997,28.119501 87.01,27.9115 C87.0750003,27.703499 87.1075,27.4933344 87.1075,27.281 C87.1075,26.8996648 87.0110843,26.611501 86.81825,26.4165 C86.6254157,26.221499 86.3600017,26.124 86.022,26.124 C85.7879988,26.124 85.5821676,26.1716662 85.4045,26.267 C85.2268324,26.3623338 85.0773339,26.4901659 84.956,26.6505 C84.8346661,26.8108341 84.7425836,26.9928323 84.67975,27.1965 C84.6169164,27.4001677 84.5855,27.6124989 84.5855,27.8335 C84.5855,28.223502 84.6797491,28.5203323 84.86825,28.724 C85.0567509,28.9276677 85.3199983,29.0295 85.658,29.0295 Z M86.958,32.1625 C86.958,32.0498328 86.9471668,31.9447505 86.9255,31.84725 C86.9038332,31.7497495 86.8756668,31.6576671 86.841,31.571 C86.6069988,31.5319998 86.3870844,31.5038334 86.18125,31.4865 C85.9754156,31.4691666 85.7815009,31.4605 85.5995,31.4605 C85.2441649,31.4605 84.9365013,31.4919164 84.6765,31.55475 C84.4164987,31.6175836 84.2020008,31.7009995 84.033,31.805 C83.8639992,31.9090005 83.7383337,32.0292493 83.656,32.16575 C83.5736663,32.3022507 83.5325,32.4441659 83.5325,32.5915 C83.5325,32.9035016 83.663582,33.1418325 83.92575,33.3065 C84.187918,33.4711675 84.5594976,33.5535 85.0405,33.5535 C85.3265014,33.5535 85.5875822,33.5155837 85.82375,33.43975 C86.0599178,33.3639163 86.2614158,33.2631673 86.42825,33.1375 C86.5950842,33.0118327 86.7250829,32.8645008 86.81825,32.6955 C86.9114171,32.5264992 86.958,32.3488343 86.958,32.1625 Z M91.3325,26.3775 L90.676,31.7855 L90.377,33.131 C90.303333,33.4560016 90.1040016,33.6185 89.779,33.6185 L89.324,33.6185 L90.2015,26.397 L89.5515,26.3125 C89.477833,26.2908332 89.4193336,26.2605002 89.376,26.2215 C89.3326665,26.1824998 89.311,26.126167 89.311,26.0525 L89.363,25.5455 L90.3055,25.5455 L90.3835,24.9085 C90.4311669,24.5314981 90.525416,24.1967515 90.66625,23.90425 C90.807084,23.6117485 90.9847489,23.364751 91.19925,23.16325 C91.4137511,22.961749 91.658582,22.8090005 91.93375,22.705 C92.208918,22.6009995 92.5046651,22.549 92.821,22.549 C93.089668,22.549 93.3344989,22.5923329 93.5555,22.679 L93.445,23.277 C93.4363333,23.337667 93.4070836,23.3755833 93.35725,23.39075 C93.3074164,23.4059167 93.2435004,23.4135 93.1655,23.4135 C93.1264998,23.4135 93.0842502,23.4124167 93.03875,23.41025 C92.9932498,23.4080833 92.9445003,23.407 92.8925,23.407 C92.7061657,23.407 92.5339175,23.4340831 92.37575,23.48825 C92.2175825,23.5424169 92.0778339,23.6301661 91.9565,23.7515 C91.8351661,23.8728339 91.7333337,24.030999 91.651,24.226 C91.5686663,24.421001 91.5101668,24.6593319 91.4755,24.941 L91.3975,25.5455 L93.042,25.5455 L92.9315,26.3775 L91.3325,26.3775 Z M95.746,31.1875 C96.0623349,31.1875 96.3504987,31.1008342 96.6105,30.9275 C96.8705013,30.7541658 97.0914991,30.5234181 97.2735,30.23525 C97.4555009,29.9470819 97.5963328,29.6145019 97.696,29.2375 C97.7956672,28.8604981 97.8455,28.4661687 97.8455,28.0545 C97.8455,27.4478303 97.7263345,26.9906682 97.488,26.683 C97.2496655,26.3753318 96.9051689,26.2215 96.4545,26.2215 C96.1338317,26.2215 95.8445846,26.3070825 95.58675,26.47825 C95.3289154,26.6494175 95.1090009,26.8790819 94.927,27.16725 C94.7449991,27.4554181 94.6041672,27.7879981 94.5045,28.165 C94.4048328,28.5420019 94.355,28.9363313 94.355,29.348 C94.355,29.9546697 94.4730822,30.4129151 94.70925,30.72275 C94.9454178,31.0325849 95.2909977,31.1875 95.746,31.1875 Z M95.642,32.091 C95.2823315,32.091 94.9530015,32.0292506 94.654,31.90575 C94.3549985,31.7822494 94.0971678,31.6035012 93.8805,31.3695 C93.6638323,31.1354988 93.4948339,30.8495017 93.3735,30.5115 C93.2521661,30.1734983 93.1915,29.7878355 93.1915,29.3545 C93.1915,28.7998306 93.2781658,28.2776691 93.4515,27.788 C93.6248342,27.2983309 93.8620818,26.8693352 94.16325,26.501 C94.4644182,26.1326648 94.819748,25.8423344 95.22925,25.63 C95.638752,25.4176656 96.081831,25.3115 96.5585,25.3115 C96.9181685,25.3115 97.2474985,25.3732494 97.5465,25.49675 C97.8455015,25.6202506 98.1033322,25.7989988 98.32,26.033 C98.5366677,26.2670012 98.7056661,26.5540816 98.827,26.89425 C98.9483339,27.2344184 99.009,27.6189979 99.009,28.048 C99.009,28.5983361 98.9223342,29.1183309 98.749,29.608 C98.5756658,30.0976691 98.3384182,30.5266648 98.03725,30.895 C97.7360818,31.2633352 97.3796687,31.5547489 96.968,31.76925 C96.5563313,31.9837511 96.1143357,32.091 95.642,32.091 Z M99.828,32 L100.621,25.409 L101.1995,25.409 C101.320834,25.409 101.416166,25.4371664 101.4855,25.4935 C101.554834,25.5498336 101.5895,25.6364994 101.5895,25.7535 C101.5895,25.7708334 101.588417,25.7957498 101.58625,25.82825 C101.584083,25.8607502 101.581917,25.8943332 101.57975,25.929 C101.577583,25.9636668 101.575417,25.9939999 101.57325,26.02 C101.571083,26.0460001 101.57,26.0611666 101.57,26.0655 L101.479,27.2615 C101.760668,26.6548303 102.075915,26.186835 102.42475,25.8575 C102.773585,25.528165 103.140831,25.3635 103.5265,25.3635 C103.708501,25.3635 103.890499,25.4024996 104.0725,25.4805 L103.8645,26.592 C103.660832,26.5096663 103.463668,26.4685 103.273,26.4685 C102.852665,26.4685 102.477835,26.673248 102.1485,27.08275 C101.819165,27.492252 101.544001,28.1129958 101.323,28.945 L100.959,32 L99.828,32 Z M104.391,32 L105.184,25.409 L105.7625,25.409 C106.022501,25.409 106.1525,25.5389987 106.1525,25.799 L106.0615,26.9755 C106.386502,26.4294973 106.741831,26.0167514 107.1275,25.73725 C107.513169,25.4577486 107.920498,25.318 108.3495,25.318 C108.795836,25.318 109.125166,25.4707485 109.3375,25.77625 C109.549834,26.0817515 109.656,26.5183305 109.656,27.086 C109.985335,26.4836637 110.354748,26.0384181 110.76425,25.75025 C111.173752,25.4620819 111.603831,25.318 112.0545,25.318 C112.539836,25.318 112.902749,25.4761651 113.14325,25.7925 C113.383751,26.1088349 113.504,26.5638304 113.504,27.1575 C113.504,27.2571672 113.499667,27.3611661 113.491,27.4695 C113.482333,27.5778339 113.4715,27.6904994 113.4585,27.8075 L112.9645,32 L111.827,32 L112.321,27.8075 C112.347,27.5951656 112.36,27.4023342 112.36,27.229 C112.36,26.9039984 112.305834,26.6645841 112.1975,26.51075 C112.089166,26.3569159 111.907168,26.28 111.6515,26.28 C111.465166,26.28 111.278834,26.3265829 111.0925,26.41975 C110.906166,26.5129171 110.726334,26.6494158 110.553,26.82925 C110.379666,27.0090842 110.218251,27.2322487 110.06875,27.49875 C109.919249,27.7652513 109.786001,28.0718316 109.669,28.4185 L109.2465,32 L108.1025,32 L108.603,27.8075 C108.616,27.6904994 108.626833,27.5800005 108.6355,27.476 C108.644167,27.3719995 108.6485,27.2745005 108.6485,27.1835 C108.6485,26.8758318 108.597584,26.6483341 108.49575,26.501 C108.393916,26.3536659 108.215168,26.28 107.9595,26.28 C107.751499,26.28 107.551084,26.3319995 107.35825,26.436 C107.165416,26.5400005 106.983418,26.6905823 106.81225,26.88775 C106.641082,27.0849177 106.481834,27.3254152 106.3345,27.60925 C106.187166,27.8930848 106.052834,28.2126649 105.9315,28.568 L105.522,32 L104.391,32 Z M116.416,25.4155 L115.922,29.6015 C115.913333,29.6881671 115.90575,29.7704996 115.89925,29.8485 C115.89275,29.9265004 115.8895,30.002333 115.8895,30.076 C115.8895,30.4313351 115.955583,30.6956658 116.08775,30.869 C116.219917,31.0423342 116.428999,31.129 116.715,31.129 C116.914334,31.129 117.119082,31.0748339 117.32925,30.9665 C117.539418,30.8581661 117.743082,30.7043343 117.94025,30.505 C118.137418,30.3056657 118.320499,30.0651681 118.4895,29.7835 C118.658501,29.5018319 118.805833,29.1876684 118.9315,28.841 L119.341,25.4155 L120.4915,25.4155 L119.6985,32 L119.1265,32 C118.992166,32 118.888167,31.969667 118.8145,31.909 C118.740833,31.848333 118.704,31.7551673 118.704,31.6295 C118.704,31.6251666 118.706167,31.586167 118.7105,31.5125 C118.714833,31.438833 118.72025,31.3586671 118.72675,31.272 C118.73325,31.1853329 118.73975,31.105167 118.74625,31.0315 C118.75275,30.957833 118.756,30.9188334 118.756,30.9145 L118.8015,30.388 C118.450498,30.9470028 118.058336,31.3705819 117.625,31.65875 C117.191665,31.9469181 116.745336,32.091 116.286,32.091 C115.796331,32.091 115.416085,31.9241683 115.14525,31.5905 C114.874415,31.2568317 114.739,30.7780031 114.739,30.154 C114.739,30.0673329 114.741167,29.9785005 114.7455,29.8875 C114.749833,29.7964995 114.7585,29.7011672 114.7715,29.6015 L115.2655,25.4155 L116.416,25.4155 Z M121.512,32 L122.6755,22.4255 L123.813,22.4255 L122.6495,32 L121.512,32 Z M126.5755,25.4155 L125.7825,32 L124.645,32 L125.438,25.4155 L126.5755,25.4155 Z M127.011,23.3485 C127.011,23.4611672 126.98825,23.5662495 126.94275,23.66375 C126.89725,23.7612505 126.836584,23.8479163 126.76075,23.92375 C126.684916,23.9995837 126.599334,24.0591664 126.504,24.1025 C126.408666,24.1458335 126.309001,24.1675 126.205,24.1675 C126.105333,24.1675 126.007834,24.1458335 125.9125,24.1025 C125.817166,24.0591664 125.73375,23.9995837 125.66225,23.92375 C125.59075,23.8479163 125.533334,23.7612505 125.49,23.66375 C125.446666,23.5662495 125.425,23.4611672 125.425,23.3485 C125.425,23.2358328 125.446666,23.1296672 125.49,23.03 C125.533334,22.9303328 125.591833,22.8425837 125.6655,22.76675 C125.739167,22.6909163 125.823666,22.6302502 125.919,22.58475 C126.014334,22.5392498 126.111833,22.5165 126.2115,22.5165 C126.315501,22.5165 126.415166,22.5381665 126.5105,22.5815 C126.605834,22.6248336 126.691416,22.6844163 126.76725,22.76025 C126.843084,22.8360837 126.902666,22.9249162 126.946,23.02675 C126.989334,23.1285838 127.011,23.2358328 127.011,23.3485 Z M132.9195,26.826 C132.9195,27.1120014 132.861001,27.3752488 132.744,27.61575 C132.626999,27.8562512 132.412502,28.0729157 132.1005,28.26575 C131.788498,28.4585843 131.359503,28.6264993 130.8135,28.7695 C130.267497,28.9125007 129.565504,29.0273329 128.7075,29.114 C128.703167,29.1616669 128.701,29.2082498 128.701,29.25375 L128.701,29.3935 C128.701,29.9741696 128.827749,30.4172485 129.08125,30.72275 C129.334751,31.0282515 129.717164,31.181 130.2285,31.181 C130.436501,31.181 130.621749,31.1593335 130.78425,31.116 C130.946751,31.0726664 131.091916,31.0195836 131.21975,30.95675 C131.347584,30.8939164 131.46025,30.8245837 131.55775,30.74875 C131.65525,30.6729163 131.745166,30.6035836 131.8275,30.54075 C131.909834,30.4779164 131.985666,30.4248335 132.055,30.3815 C132.124334,30.3381664 132.193666,30.3165 132.263,30.3165 C132.341,30.3165 132.4125,30.353333 132.4775,30.427 L132.7635,30.7845 C132.542499,31.0141678 132.326918,31.2102492 132.11675,31.37275 C131.906582,31.5352508 131.691001,31.6706661 131.47,31.779 C131.248999,31.8873339 131.018251,31.9664164 130.77775,32.01625 C130.537249,32.0660836 130.278335,32.091 130.001,32.091 C129.623998,32.091 129.286001,32.0281673 128.987,31.9025 C128.687999,31.7768327 128.434501,31.5980845 128.2265,31.36625 C128.018499,31.1344155 127.858167,30.853835 127.7455,30.5245 C127.632833,30.195165 127.5765,29.8268354 127.5765,29.4195 C127.5765,29.0814983 127.61225,28.744585 127.68375,28.40875 C127.75525,28.072915 127.859249,27.7533348 127.99575,27.45 C128.132251,27.1466651 128.299082,26.8650013 128.49625,26.605 C128.693418,26.3449987 128.918749,26.1207509 129.17225,25.93225 C129.425751,25.7437491 129.705248,25.5953339 130.01075,25.487 C130.316252,25.3786661 130.644498,25.3245 130.9955,25.3245 C131.329168,25.3245 131.617332,25.3721662 131.86,25.4675 C132.102668,25.5628338 132.301999,25.6841659 132.458,25.8315 C132.614001,25.9788341 132.729916,26.1413324 132.80575,26.319 C132.881584,26.4966676 132.9195,26.6656659 132.9195,26.826 Z M130.9305,26.1565 C130.657499,26.1565 130.406168,26.2128328 130.1765,26.3255 C129.946832,26.4381672 129.743168,26.5930823 129.5655,26.79025 C129.387832,26.9874177 129.236167,27.2192487 129.1105,27.48575 C128.984833,27.7522513 128.887334,28.0393318 128.818,28.347 C129.485337,28.2646663 130.020498,28.1704172 130.4235,28.06425 C130.826502,27.9580828 131.136332,27.8432506 131.353,27.71975 C131.569668,27.5962494 131.712666,27.4630007 131.782,27.32 C131.851334,27.1769993 131.886,27.0275008 131.886,26.8715 C131.886,26.7934996 131.868667,26.7122504 131.834,26.62775 C131.799333,26.5432496 131.744084,26.4663337 131.66825,26.397 C131.592416,26.3276663 131.493834,26.2702502 131.3725,26.22475 C131.251166,26.1792498 131.103834,26.1565 130.9305,26.1565 Z M133.6475,32 L134.4405,25.409 L135.019,25.409 C135.140334,25.409 135.235666,25.4371664 135.305,25.4935 C135.374334,25.5498336 135.409,25.6364994 135.409,25.7535 C135.409,25.7708334 135.407917,25.7957498 135.40575,25.82825 C135.403583,25.8607502 135.401417,25.8943332 135.39925,25.929 C135.397083,25.9636668 135.394917,25.9939999 135.39275,26.02 C135.390583,26.0460001 135.3895,26.0611666 135.3895,26.0655 L135.2985,27.2615 C135.580168,26.6548303 135.895415,26.186835 136.24425,25.8575 C136.593085,25.528165 136.960331,25.3635 137.346,25.3635 C137.528001,25.3635 137.709999,25.4024996 137.892,25.4805 L137.684,26.592 C137.480332,26.5096663 137.283168,26.4685 137.0925,26.4685 C136.672165,26.4685 136.297335,26.673248 135.968,27.08275 C135.638665,27.492252 135.363501,28.1129958 135.1425,28.945 L134.7785,32 L133.6475,32 Z" id="Aanvraagformulier"></path>
            </g>
        </g>
    </g>
</svg>