<?xml version="1.0" encoding="UTF-8"?>
<svg width="131px" height="25px" viewBox="0 0 131 25" version="1.1" xmlns="http://www.w3.org/2000/svg" xmlns:xlink="http://www.w3.org/1999/xlink">
    <!-- Generator: Sketch 53 (72520) - https://sketchapp.com -->
    <title>Tripsy</title>
    <desc>Created with Sketch.</desc>
    <g id="Page-1" stroke="none" stroke-width="1" fill="none" fill-rule="evenodd">
        <g id="Tripsy" fill="#404348" fill-rule="nonzero">
            <path d="M13.3583984,4.24804688 L9.0419922,4.24804688 L7.23925781,19 L3.07519531,19 L4.890625,4.24804688 L0.58691406,4.24804688 L1.03125,0.52832031 L13.8027344,0.52832031 L13.3583984,4.24804688 Z M17.28125,8.03125 C18.296875,6.7109375 19.5029297,6.05078125 20.8994141,6.05078125 L20.3535156,10.3671875 C19.8710938,10.1809895 19.4140625,10.1429036 18.9824219,10.2529297 C18.5507812,10.3629558 18.1635742,10.5851238 17.8208008,10.9194336 C17.4780273,11.2537434 17.1860352,11.7150066 16.9448242,12.3032227 C16.7036133,12.8914387 16.5364583,13.5748699 16.4433594,14.3535156 L15.8720703,19 L11.9746094,19 L13.5361328,6.27929688 L17.4335938,6.27929688 L17.2177734,8.03125 L17.28125,8.03125 Z M25.1904297,0.13476562 C25.8759766,0.13476562 26.4366863,0.34423828 26.8725586,0.76318359 C27.3084309,1.18212891 27.5263672,1.71321608 27.5263672,2.35644531 C27.5263672,3.02506517 27.2999675,3.57942702 26.847168,4.01953125 C26.3943684,4.45963548 25.8125,4.6796875 25.1015625,4.6796875 C24.4160156,4.6796875 23.8553059,4.46598314 23.4194336,4.03857422 C22.9835613,3.6111653 22.765625,3.07584642 22.765625,2.43261719 C22.765625,1.76399733 22.9920247,1.21386719 23.4448242,0.78222656 C23.8976238,0.35058594 24.4794922,0.13476562 25.1904297,0.13476562 Z M22.6894531,6.27929688 L26.5869141,6.27929688 L25.0253906,19 L21.1279297,19 L22.6894531,6.27929688 Z M36.984375,6.03808594 C37.8391926,6.03808594 38.5776367,6.27294922 39.199707,6.74267578 C39.8217773,7.21240234 40.2809245,7.83447266 40.5771484,8.60888672 C40.8733723,9.3833008 41.0214844,10.265625 41.0214844,11.2558594 C41.0214844,12.3645833 40.862793,13.4140625 40.5454102,14.4042969 C40.2280273,15.3945312 39.8006184,16.2430012 39.2631836,16.949707 C38.7257488,17.6564128 38.0804036,18.2150066 37.3271484,18.6254883 C36.5738933,19.03597 35.7740886,19.2412109 34.9277344,19.2412109 C33.6920574,19.2412109 32.6975911,18.9407551 31.9443359,18.3398438 L31.8935547,18.3398438 L31.1826172,24.1416016 L27.2724609,24.1416016 L29.46875,6.27929688 L33.3789062,6.27929688 L33.125,8.27246094 L33.1757812,8.27246094 C34.1914062,6.78287767 35.4609375,6.03808594 36.984375,6.03808594 Z M34.0771484,15.7626953 C34.5595703,15.7626953 34.9975586,15.6357422 35.3911133,15.3818359 C35.784668,15.1279297 36.1020508,14.7957356 36.3432617,14.3852539 C36.5844727,13.9747722 36.7706706,13.5198567 36.9018555,13.0205078 C37.0330403,12.5211589 37.0986328,12.0133464 37.0986328,11.4970703 C37.0986328,10.930013 36.9716797,10.4581706 36.7177734,10.081543 C36.4638672,9.7049153 36.1210938,9.5166016 35.6894531,9.5166016 C34.9277344,9.5166016 34.2146809,9.9694011 33.550293,10.875 C32.885905,11.7805989 32.4479167,13.0120442 32.2363281,14.5693359 L32.1855469,14.9755859 C32.5748699,15.5003255 33.2054036,15.7626953 34.0771484,15.7626953 Z M43.7255859,14.7851562 C44.0979817,15.2337239 44.5507812,15.5976562 45.0839844,15.8769531 C45.6171875,16.15625 46.1292317,16.2958984 46.6201172,16.2958984 C46.9671223,16.2958984 47.2464192,16.2345378 47.4580078,16.1118164 C47.6695964,15.989095 47.7753906,15.8177083 47.7753906,15.5976562 C47.7753906,15.3945312 47.6695964,15.2189128 47.4580078,15.0708008 C47.2464192,14.9226887 46.8020833,14.679362 46.125,14.3408203 C45.9895833,14.2646484 45.8837891,14.2096355 45.8076172,14.1757812 C44.7666016,13.6510417 43.9879558,13.090332 43.4716797,12.4936523 C42.9554036,11.8969727 42.6972656,11.1627605 42.6972656,10.2910156 C42.6972656,9.4615886 42.9088542,8.72102858 43.3320312,8.06933594 C43.7552083,7.41764329 44.3243816,6.91617845 45.0395508,6.56494141 C45.75472,6.21370436 46.5439453,6.03808594 47.4072266,6.03808594 C48.2958984,6.03808594 49.1422527,6.21158861 49.9462891,6.55859375 C50.7503255,6.90559889 51.4316406,7.41341139 51.9902344,8.08203125 L49.6416016,10.3164062 C49.4215495,10.0117188 49.171875,9.7599284 48.8925781,9.5610352 C48.6132812,9.3621419 48.359375,9.2267253 48.1308594,9.1547852 C47.9023438,9.082845 47.6780598,9.0426433 47.4580078,9.0341797 C47.2802734,9.0257161 47.1152344,9.0532227 46.9628906,9.1166992 C46.8105469,9.1801758 46.6857097,9.2711589 46.5883789,9.3896484 C46.4910481,9.508138 46.4423828,9.6477864 46.4423828,9.8085938 C46.4423828,10.0117188 46.586263,10.2190755 46.8740234,10.4306641 C47.1617839,10.6422527 47.6145833,10.9003906 48.2324219,11.2050781 C48.6725261,11.4251301 49.0428059,11.6240234 49.3432617,11.8017578 C49.6437175,11.9794922 49.9441731,12.1889648 50.2446289,12.4301758 C50.5450847,12.6713867 50.7820637,12.9168294 50.9555664,13.1665039 C51.1290691,13.4161784 51.2708333,13.7039387 51.3808594,14.0297852 C51.4908855,14.3556316 51.5458984,14.7132161 51.5458984,15.1025391 C51.554362,16.3551433 51.1036784,17.358073 50.1938477,18.1113281 C49.2840169,18.8645833 48.0589192,19.2412109 46.5185547,19.2412109 C45.570638,19.2412109 44.6396484,19.0465495 43.7255859,18.6572266 C42.8115234,18.2679036 42.0836589,17.7347005 41.5419922,17.0576172 L43.7255859,14.7851562 Z M61.8925781,6.27929688 L65.7900391,6.27929688 L64.4316406,17.2734375 C63.8561199,22.0130208 61.4567058,24.3828125 57.2333984,24.3828125 C55.5152995,24.3828125 53.9876301,23.9723308 52.6503906,23.1513672 L53.8691406,20.2060547 C54.8255208,20.8577473 55.8834636,21.1835938 57.0429688,21.1835938 C57.4238281,21.1835938 57.7560222,21.1539714 58.0395508,21.0947266 C58.3230794,21.0354817 58.6066081,20.9191081 58.8901367,20.7456055 C59.1736653,20.5721028 59.4169922,20.3393555 59.6201172,20.0473633 C59.8232422,19.7553711 60.0073242,19.3660481 60.1723633,18.8793945 C60.3374023,18.3927409 60.4664714,17.8108723 60.5595703,17.1337891 L60.5087891,17.1337891 C59.5016277,18.538737 58.2278645,19.2412109 56.6875,19.2412109 C56.1966145,19.2412109 55.7649739,19.186198 55.3925781,19.0761719 C55.0201824,18.9661458 54.6858723,18.7884114 54.3896484,18.5429688 C54.0934245,18.2975261 53.8649089,17.9801433 53.7041016,17.5908203 C53.5432942,17.2014973 53.4332683,16.7233074 53.3740234,16.15625 C53.3147786,15.5891926 53.3359375,14.9332683 53.4375,14.1884766 L54.4023438,6.27929688 L58.2744141,6.27929688 L57.4619141,13.0205078 C57.3264973,14.0530598 57.3180339,14.7661133 57.4365234,15.159668 C57.555013,15.5532227 57.8385417,15.75 58.2871094,15.75 C58.6595051,15.75 59.0551758,15.5743816 59.4741211,15.2231445 C59.8930664,14.8719075 60.2612305,14.4127605 60.5786133,13.8457031 C60.8959961,13.2786458 61.0970051,12.703125 61.1816406,12.1191406 L61.8925781,6.27929688 Z"></path>
            <path d="M74.302,18 L74.302,11.973 L73.518,11.882 C73.4199995,11.8586665 73.3395003,11.8225002 73.2765,11.7735 C73.2134997,11.7244998 73.182,11.6533338 73.182,11.56 L73.182,11.049 L74.302,11.049 L74.302,10.363 C74.302,9.95699797 74.3591661,9.59650158 74.4735,9.2815 C74.5878339,8.96649843 74.7511656,8.70050109 74.9635,8.4835 C75.1758344,8.26649892 75.4313318,8.10200056 75.73,7.99 C76.0286682,7.87799944 76.3646648,7.822 76.738,7.822 C77.0553349,7.822 77.349332,7.8686662 77.62,7.962 L77.592,8.585 C77.5873333,8.6783338 77.547667,8.73433324 77.473,8.753 C77.398333,8.77166676 77.293334,8.781 77.158,8.781 L76.941,8.781 C76.7263323,8.781 76.5315009,8.80899972 76.3565,8.865 C76.1814991,8.92100028 76.0310006,9.01199937 75.905,9.138 C75.7789994,9.26400063 75.682167,9.42966564 75.6145,9.635 C75.546833,9.84033436 75.513,10.0946651 75.513,10.398 L75.513,11.049 L77.564,11.049 L77.564,11.952 L75.555,11.952 L75.555,18 L74.302,18 Z M81.61,10.797 C82.1280026,10.797 82.5958312,10.8833325 83.0135,11.056 C83.4311688,11.2286675 83.7858319,11.4736651 84.0775,11.791 C84.3691681,12.1083349 84.5931659,12.4921644 84.7495,12.9425 C84.9058341,13.3928356 84.984,13.8956639 84.984,14.451 C84.984,15.0110028 84.9058341,15.5149978 84.7495,15.963 C84.5931659,16.4110022 84.3691681,16.7936651 84.0775,17.111 C83.7858319,17.4283349 83.4311688,17.6721658 83.0135,17.8425 C82.5958312,18.0128342 82.1280026,18.098 81.61,18.098 C81.0919974,18.098 80.6241688,18.0128342 80.2065,17.8425 C79.7888312,17.6721658 79.4330015,17.4283349 79.139,17.111 C78.8449985,16.7936651 78.6186675,16.4110022 78.46,15.963 C78.3013325,15.5149978 78.222,15.0110028 78.222,14.451 C78.222,13.8956639 78.3013325,13.3928356 78.46,12.9425 C78.6186675,12.4921644 78.8449985,12.1083349 79.139,11.791 C79.4330015,11.4736651 79.7888312,11.2286675 80.2065,11.056 C80.6241688,10.8833325 81.0919974,10.797 81.61,10.797 Z M81.61,17.125 C82.3100035,17.125 82.8326649,16.8905023 83.178,16.4215 C83.5233351,15.9524977 83.696,15.2980042 83.696,14.458 C83.696,13.6133291 83.5233351,12.9553357 83.178,12.484 C82.8326649,12.0126643 82.3100035,11.777 81.61,11.777 C81.2553316,11.777 80.9473346,11.8376661 80.686,11.959 C80.4246654,12.0803339 80.2065009,12.2553322 80.0315,12.484 C79.8564991,12.7126678 79.7258338,12.9938317 79.6395,13.3275 C79.5531662,13.6611683 79.51,14.0379979 79.51,14.458 C79.51,14.8780021 79.5531662,15.253665 79.6395,15.585 C79.7258338,15.916335 79.8564991,16.1951655 80.0315,16.4215 C80.2065009,16.6478345 80.4246654,16.8216661 80.686,16.943 C80.9473346,17.0643339 81.2553316,17.125 81.61,17.125 Z M86.524,18 L86.524,10.909 L87.238,10.909 C87.373334,10.909 87.4666664,10.9346664 87.518,10.986 C87.5693336,11.0373336 87.6043332,11.1259994 87.623,11.252 L87.707,12.358 C87.9496679,11.8633309 88.2494982,11.4771681 88.6065,11.1995 C88.9635018,10.9218319 89.3823309,10.783 89.863,10.783 C90.059001,10.783 90.2363325,10.8051664 90.395,10.8495 C90.5536675,10.8938336 90.700666,10.9556663 90.836,11.035 L90.675,11.966 C90.6423332,12.0826672 90.5700006,12.141 90.458,12.141 C90.3926663,12.141 90.292334,12.1188336 90.157,12.0745 C90.021666,12.0301664 89.8326679,12.008 89.59,12.008 C89.1559978,12.008 88.7931681,12.1339987 88.5015,12.386 C88.2098319,12.6380013 87.966001,13.0043309 87.77,13.485 L87.77,18 L86.524,18 Z M92.166,18 L92.166,10.909 L92.908,10.909 C93.0853342,10.909 93.1973331,10.9953325 93.244,11.168 L93.335,11.896 C93.5963346,11.5739984 93.889165,11.3103344 94.2135,11.105 C94.537835,10.8996656 94.9146645,10.797 95.344,10.797 C95.8246691,10.797 96.2131652,10.9299987 96.5095,11.196 C96.8058348,11.4620013 97.0193327,11.8213311 97.15,12.274 C97.2480005,12.0173321 97.3774992,11.7956676 97.5385,11.609 C97.6995008,11.4223324 97.8803323,11.2683339 98.081,11.147 C98.2816677,11.0256661 98.4951655,10.9370003 98.7215,10.881 C98.9478345,10.8249997 99.1776655,10.797 99.411,10.797 C99.7843352,10.797 100.116832,10.8564994 100.4085,10.9755 C100.700168,11.0945006 100.947499,11.2683322 101.1505,11.497 C101.353501,11.7256678 101.508666,12.0068317 101.616,12.3405 C101.723334,12.6741683 101.777,13.0556645 101.777,13.485 L101.777,18 L100.531,18 L100.531,13.485 C100.531,12.9296639 100.409668,12.5085014 100.167,12.2215 C99.9243321,11.9344986 99.5720023,11.791 99.11,11.791 C98.9046656,11.791 98.7098343,11.8271663 98.5255,11.8995 C98.3411657,11.9718337 98.1790007,12.0779993 98.039,12.218 C97.8989993,12.3580007 97.7881671,12.5341656 97.7065,12.7465 C97.6248329,12.9588344 97.584,13.2049986 97.584,13.485 L97.584,18 L96.338,18 L96.338,13.485 C96.338,12.9156638 96.2236678,12.4910014 95.995,12.211 C95.7663322,11.9309986 95.4326689,11.791 94.994,11.791 C94.6859985,11.791 94.400168,11.8738325 94.1365,12.0395 C93.872832,12.2051675 93.6313344,12.4303319 93.412,12.715 L93.412,18 L92.166,18 Z M104.738,10.909 L104.738,15.431 C104.738,15.9676694 104.861665,16.3829985 105.109,16.677 C105.356335,16.9710015 105.729664,17.118 106.229,17.118 C106.593002,17.118 106.935998,17.0316675 107.258,16.859 C107.580002,16.6863325 107.876332,16.4460015 108.147,16.138 L108.147,10.909 L109.393,10.909 L109.393,18 L108.651,18 C108.473666,18 108.361667,17.9136675 108.315,17.741 L108.217,16.978 C107.908998,17.3186684 107.563669,17.5928323 107.181,17.8005 C106.798331,18.0081677 106.359669,18.112 105.865,18.112 C105.477665,18.112 105.135835,18.047834 104.8395,17.9195 C104.543165,17.791166 104.294668,17.6103345 104.094,17.377 C103.893332,17.1436655 103.742834,16.861335 103.6425,16.53 C103.542166,16.198665 103.492,15.8323353 103.492,15.431 L103.492,10.909 L104.738,10.909 Z M112.83,7.689 L112.83,18 L111.584,18 L111.584,7.689 L112.83,7.689 Z M116.414,10.909 L116.414,18 L115.168,18 L115.168,10.909 L116.414,10.909 Z M116.694,8.683 C116.694,8.80433394 116.6695,8.91749947 116.6205,9.0225 C116.5715,9.12750052 116.506167,9.22083292 116.4245,9.3025 C116.342833,9.38416708 116.248334,9.4483331 116.141,9.495 C116.033666,9.5416669 115.919334,9.565 115.798,9.565 C115.676666,9.565 115.563501,9.5416669 115.4585,9.495 C115.353499,9.4483331 115.260167,9.38416708 115.1785,9.3025 C115.096833,9.22083292 115.032667,9.12750052 114.986,9.0225 C114.939333,8.91749947 114.916,8.80433394 114.916,8.683 C114.916,8.56166606 114.939333,8.44616721 114.986,8.3365 C115.032667,8.22683278 115.096833,8.13116708 115.1785,8.0495 C115.260167,7.96783293 115.353499,7.9036669 115.4585,7.857 C115.563501,7.8103331 115.676666,7.787 115.798,7.787 C115.919334,7.787 116.033666,7.8103331 116.141,7.857 C116.248334,7.9036669 116.342833,7.96783293 116.4245,8.0495 C116.506167,8.13116708 116.5715,8.22683278 116.6205,8.3365 C116.6695,8.44616721 116.694,8.56166606 116.694,8.683 Z M121.419,10.797 C121.843669,10.797 122.235665,10.868166 122.595,11.0105 C122.954335,11.152834 123.264665,11.3581653 123.526,11.6265 C123.787335,11.8948347 123.991499,12.2261647 124.1385,12.6205 C124.285501,13.0148353 124.359,13.4639975 124.359,13.968 C124.359,14.164001 124.338,14.2946663 124.296,14.36 C124.254,14.4253337 124.174667,14.458 124.058,14.458 L119.34,14.458 C119.349333,14.9060022 119.409999,15.295665 119.522,15.627 C119.634001,15.958335 119.787999,16.2348322 119.984,16.4565 C120.180001,16.6781678 120.413332,16.8438328 120.684,16.9535 C120.954668,17.0631672 121.257998,17.118 121.594,17.118 C121.906668,17.118 122.176166,17.0818337 122.4025,17.0095 C122.628834,16.9371663 122.823666,16.8590004 122.987,16.775 C123.150334,16.6909996 123.286833,16.6128337 123.3965,16.5405 C123.506167,16.4681663 123.600666,16.432 123.68,16.432 C123.782667,16.432 123.862,16.4716663 123.918,16.551 L124.268,17.006 C124.113999,17.1926676 123.929668,17.3548326 123.715,17.4925 C123.500332,17.6301674 123.270501,17.7433329 123.0255,17.832 C122.780499,17.9206671 122.527335,17.9871664 122.266,18.0315 C122.004665,18.0758336 121.745668,18.098 121.489,18.098 C120.998998,18.098 120.547502,18.0151675 120.1345,17.8495 C119.721498,17.6838325 119.364502,17.4411683 119.0635,17.1215 C118.762498,16.8018317 118.528001,16.4063357 118.36,15.935 C118.191999,15.4636643 118.108,14.9223364 118.108,14.311 C118.108,13.8163309 118.183833,13.3543355 118.3355,12.925 C118.487167,12.4956645 118.705332,12.1235016 118.99,11.8085 C119.274668,11.4934984 119.622331,11.2461676 120.033,11.0665 C120.443669,10.8868324 120.905664,10.797 121.419,10.797 Z M121.447,11.714 C120.844997,11.714 120.371335,11.8878316 120.026,12.2355 C119.680665,12.5831684 119.466,13.0649969 119.382,13.681 L123.239,13.681 C123.239,13.3916652 123.199334,13.1268345 123.12,12.8865 C123.040666,12.6461655 122.924001,12.4385009 122.77,12.2635 C122.615999,12.0884991 122.428168,11.9531671 122.2065,11.8575 C121.984832,11.7618329 121.731668,11.714 121.447,11.714 Z M125.948,18 L125.948,10.909 L126.662,10.909 C126.797334,10.909 126.890666,10.9346664 126.942,10.986 C126.993334,11.0373336 127.028333,11.1259994 127.047,11.252 L127.131,12.358 C127.373668,11.8633309 127.673498,11.4771681 128.0305,11.1995 C128.387502,10.9218319 128.806331,10.783 129.287,10.783 C129.483001,10.783 129.660333,10.8051664 129.819,10.8495 C129.977667,10.8938336 130.124666,10.9556663 130.26,11.035 L130.099,11.966 C130.066333,12.0826672 129.994001,12.141 129.882,12.141 C129.816666,12.141 129.716334,12.1188336 129.581,12.0745 C129.445666,12.0301664 129.256668,12.008 129.014,12.008 C128.579998,12.008 128.217168,12.1339987 127.9255,12.386 C127.633832,12.6380013 127.390001,13.0043309 127.194,13.485 L127.194,18 L125.948,18 Z" id="formulier"></path>
        </g>
    </g>
</svg>