<?xml version="1.0" encoding="UTF-8"?>
<svg width="503px" height="503px" viewBox="0 0 503 503" version="1.1" xmlns="http://www.w3.org/2000/svg" xmlns:xlink="http://www.w3.org/1999/xlink">
    <!-- Generator: Sketch 53 (72520) - https://sketchapp.com -->
    <title>travel (1)</title>
    <desc>Created with Sketch.</desc>
    <g id="Page-1" stroke="none" stroke-width="1" fill="none" fill-rule="evenodd">
        <g id="travel-(1)" transform="translate(-1.000000, 0.000000)" fill="#404348" fill-rule="nonzero">
            <path d="M477.341105,26.6668594 C439.972725,-10.7015215 370.373047,-8.20420508 290.902977,30.5238477 C289.227947,30.864748 287.685545,31.6398789 286.414291,32.7451035 C280.089459,35.9212734 273.705682,39.3234004 267.273766,42.950502 C270.618912,32.1232305 271.677963,20.5797734 270.165033,9.16010156 C269.581475,4.75786914 266.118438,1.29483203 261.717188,0.712255859 C237.409123,-2.50812305 212.543043,5.92105664 195.204279,23.2608027 L170.016947,48.4481348 L75.4401758,3.04354297 C71.6775,1.23883398 67.1907793,2.00414063 64.2425313,4.95337109 L44.3150859,24.8788516 C42.3129102,26.8810273 41.271543,29.6494922 41.4591855,32.4749375 C41.6458457,35.2994004 43.043832,37.906748 45.2925957,39.6279512 L120.948904,97.5151953 L73.3151973,145.149885 L35.9301152,141.78116 C33.034918,141.518854 30.161334,142.559238 28.1011953,144.618395 L4.02596484,168.692643 C1.55124414,171.167363 0.580611328,174.771869 1.47559766,178.153365 C2.37156641,181.535844 4.9985625,184.1874 8.37318164,185.112842 L35.361293,192.516373 C30.1711582,211.666723 27.5363027,231.463506 27.5363027,251.506877 C27.5363027,264.765643 28.7132441,278.036197 31.0091641,290.998271 C18.8959023,316.097186 10.241748,340.554578 5.39447852,363.664088 C-4.86004102,412.562172 2.83723438,451.526988 27.658123,476.347877 C45.1589863,493.849723 70.4180352,502.991158 101.049949,502.991158 C103.551195,502.991158 106.092721,502.930248 108.664701,502.807445 C139.495064,501.339707 175.491984,491.02133 212.919311,472.979152 C225.802791,475.275072 239.034049,476.471662 252.499123,476.471662 C298.676881,476.471662 343.051895,462.582182 380.824051,436.304361 C385.277369,433.205803 386.376699,427.084332 383.278141,422.630031 C380.179582,418.17573 374.056146,417.078365 369.603811,420.175941 C346.25459,436.419305 320.136904,447.466639 292.613373,452.907291 L292.613373,431.287133 C292.613373,409.276953 274.705787,391.37035 252.695607,391.37035 L206.880363,391.37035 C195.705314,391.37035 186.612018,382.278035 186.611035,371.101021 C186.60907,355.497215 173.914215,342.802359 158.310408,342.802359 L143.716531,342.802359 C129.32798,342.802359 117.621441,331.09582 117.619477,316.702357 C117.619477,309.730109 120.333908,303.177355 125.262719,298.247562 C130.191529,293.31777 136.745266,290.602355 143.716531,290.602355 L144.590887,290.602355 C153.237182,290.602355 160.269357,283.569197 160.269357,274.924867 C160.269357,267.428988 166.36725,261.332078 173.861164,261.332078 L230.1225,261.332078 C244.408879,261.332078 256.031912,272.955111 256.031912,287.24149 L256.031912,329.386406 C256.031912,342.476195 266.681365,353.126631 279.773119,353.126631 L290.252613,353.126631 C301.536711,353.126631 310.717443,362.306381 310.717443,373.592443 L310.717443,397.380807 C310.717443,402.806723 315.116729,407.204043 320.54068,407.204043 C325.965613,407.204043 330.363916,402.80574 330.363916,397.380807 L330.363916,373.592443 C330.363916,351.474197 312.369877,333.479176 290.251631,333.479176 L279.772137,333.479176 C277.514531,333.479176 275.678385,331.643029 275.678385,329.386406 L275.678385,287.240508 C275.678385,262.11998 255.241063,241.684623 230.1225,241.684623 L173.861164,241.684623 C156.8466,241.684623 142.776354,254.536666 140.847859,271.042336 C129.708178,271.727084 119.330855,276.393588 111.370291,284.354152 C102.729891,292.994553 97.9720215,304.482994 97.9730039,316.706287 C97.9739863,341.928986 118.495797,362.44785 143.716531,362.44785 L158.310408,362.44785 C163.081049,362.44785 166.964563,366.330381 166.964563,371.101021 C166.965545,393.110219 184.872148,411.016822 206.881346,411.016822 L252.69659,411.016822 C263.873604,411.016822 272.9669,420.109137 272.9669,431.28615 L272.9669,455.468465 C272.9669,455.583408 272.980654,455.695404 272.984584,455.810348 C266.21275,456.479377 259.380006,456.823225 252.500105,456.823225 C155.254094,456.823225 71.4338594,388.577324 51.576166,293.937678 C59.8334219,277.477199 69.6045898,260.735748 80.7098867,244.083697 L85.7634648,262.50509 C86.6889063,265.879709 89.3404629,268.507688 92.7229414,269.402674 C93.5550527,269.622736 94.3989531,269.72982 95.236959,269.72982 C97.8089395,269.72982 100.318045,268.718908 102.184646,266.852307 L126.260859,242.777076 C128.320998,240.716938 129.359418,237.849248 129.099076,234.948156 L125.729369,197.564057 L173.364059,149.929367 L231.25032,225.586658 C232.971523,227.835422 235.577889,229.232426 238.403334,229.419086 C241.217973,229.602799 243.996262,228.565361 245.99942,226.563186 L265.925883,206.636723 C268.875113,203.687492 269.64042,199.197824 267.834729,195.439078 L222.432102,100.861324 L240.49098,82.8024453 C258.898619,70.2264629 277.122545,59.461084 294.828734,50.5662363 C338.378514,59.6821289 376.347154,82.3524961 404.657605,113.64558 L385.136883,113.64558 C354.760398,113.64558 330.046594,138.359385 330.046594,168.735869 C330.046594,172.58991 326.911686,175.725801 323.056662,175.725801 C301.237072,175.725801 283.486674,193.477182 283.486674,215.295789 L283.486674,221.763072 C283.486674,243.58168 301.237072,261.333061 323.056662,261.333061 L399.899736,261.333061 C405.32467,261.333061 409.722973,256.934758 409.722973,251.508842 C409.722973,246.082926 405.323688,241.685605 399.899736,241.685605 L323.056662,241.685605 C312.071221,241.685605 303.134129,232.748514 303.134129,221.763072 L303.134129,215.295789 C303.134129,204.310348 312.071221,195.373256 323.056662,195.373256 C337.743869,195.373256 349.694049,183.424059 349.694049,168.735869 C349.694049,149.192551 365.593564,133.293035 385.136883,133.293035 L413.589785,133.293035 C415.648941,133.293035 417.55877,132.656426 419.137521,131.573797 C443.591967,165.563629 457.816453,207.145617 457.816453,251.508842 C457.816453,285.480008 449.349941,319.130904 433.333518,348.827553 C430.75859,353.603105 432.540703,359.561494 437.317238,362.136422 C438.800695,362.936113 440.398113,363.316311 441.971953,363.316311 C445.46741,363.316311 448.851854,361.445779 450.628072,358.153684 C468.184934,325.602117 477.463908,288.724947 477.463908,251.508842 C477.463908,238.046715 476.267318,224.818404 473.970416,211.934924 C492.028313,174.477143 502.348654,138.45075 503.804604,107.602703 C505.408898,73.570627 496.258621,45.5833926 477.341105,26.6668594 Z M182.070281,465.172828 C120.063742,490.150904 68.5877832,489.492682 41.5525156,462.455449 C16.4084102,437.312326 18.4695313,397.047766 24.6253867,367.697912 C27.6620527,353.222908 32.4552891,337.899092 38.8223652,322.089959 C61.3011602,390.374174 115.140826,443.103703 182.070281,465.172828 Z M47.3802422,260.295623 C47.256457,257.368006 47.1857227,254.436459 47.1857227,251.505895 C47.1857227,233.223023 49.5847969,215.170039 54.3102461,197.713385 L69.1035547,201.77177 L73.9184043,219.320771 C64.1600078,233.01082 55.2985625,246.703816 47.3802422,260.295623 Z M233.723076,61.780582 L227.130043,68.3736152 C227.128078,68.3755801 227.126113,68.3775449 227.125131,68.3795098 L203.613811,91.8908301 C200.665563,94.8390781 199.899273,99.3287461 201.704965,103.087492 L247.107592,197.665246 L240.035137,204.737701 L182.15084,129.08041 C180.429637,126.831646 177.823271,125.434643 174.997826,125.247982 C172.178275,125.061322 169.404898,126.100725 167.40174,128.103883 L109.646141,185.859482 C109.151982,186.227891 108.689262,186.644438 108.267803,187.107158 C106.406113,189.143719 105.487549,191.868957 105.735119,194.616791 L109.115633,232.133518 L100.239451,241.009699 L86.571998,191.179297 C85.654416,187.835133 83.0411738,185.221891 79.6970098,184.304309 L29.8675898,170.636855 L38.7437715,161.759691 L76.260498,165.140205 C79.0171738,165.390723 81.7335703,164.468229 83.7701309,162.607521 C84.2318691,162.186062 84.648416,161.725307 85.0168242,161.231148 L142.774389,103.473584 C144.776564,101.471408 145.817932,98.7029434 145.630289,95.877498 C145.443629,93.0530352 144.045643,90.4456875 141.796879,88.7244844 L66.1405703,30.8382227 L73.2130254,23.7657676 L167.790779,69.169377 C171.552473,70.9740859 176.040176,70.2087793 178.988424,67.2595488 L209.096707,37.1512656 C220.255055,25.9919355 235.555293,19.7378379 251.195449,19.679875 C251.135521,35.3210137 244.882406,50.6222344 233.723076,61.780582 Z M466.160162,181.088842 C444.077283,114.141703 391.307475,60.271582 322.993787,37.806541 C384.042465,13.2577832 436.06465,13.1752598 463.447695,40.5602695 C490.48198,67.5935723 491.140203,119.079355 466.160162,181.088842 Z" id="Shape"></path>
            <path d="M420.2565,386.664549 C416.158818,382.99815 410.031453,383.3754 406.303162,387.523186 C406.286461,387.541852 406.26976,387.560518 406.253059,387.579184 C402.557187,391.756441 402.881387,397.887736 406.992822,401.539398 C408.877107,403.212463 411.182852,404.03475 413.485648,404.03475 C416.210887,404.03475 418.933178,402.883352 420.944195,400.627711 C424.654803,396.465189 424.354182,390.33193 420.2565,386.664549 Z" id="Path"></path>
        </g>
    </g>
</svg>