<?xml version="1.0" encoding="UTF-8"?>
<svg width="512px" height="512px" viewBox="0 0 512 512" version="1.1" xmlns="http://www.w3.org/2000/svg" xmlns:xlink="http://www.w3.org/1999/xlink">
    <!-- Generator: Sketch 53 (72520) - https://sketchapp.com -->
    <title>waterfall (1)</title>
    <desc>Created with Sketch.</desc>
    <g id="Page-1" stroke="none" stroke-width="1" fill="none" fill-rule="evenodd">
        <g id="waterfall-(1)" fill="#404348" fill-rule="nonzero">
            <path d="M10,65.332031 L65.226562,65.332031 C70.75,65.332031 75.226562,60.855469 75.226562,55.332031 C75.226562,49.808594 70.75,45.332031 65.226562,45.332031 L21.441406,45.332031 C25.761719,30.703125 39.3125,20 55.3125,20 C69.160156,20 81.796875,28.164062 87.507812,40.800781 C88.984375,44.074219 92.105469,46.300781 95.679688,46.636719 C99.25,46.96875 102.738281,45.367188 104.800781,42.429688 C108.550781,37.097656 114.664062,33.910156 121.160156,33.910156 C131.804688,33.910156 141.140625,43.921875 141.140625,55.332031 C141.140625,60.855469 145.617188,65.332031 151.140625,65.332031 L172.539062,65.332031 C178.0625,65.332031 182.539062,60.855469 182.539062,55.332031 C182.539062,49.808594 178.0625,45.332031 172.539062,45.332031 L159.910156,45.332031 C155.464844,27.519531 139.519531,13.910156 121.160156,13.910156 C113.011719,13.910156 105.167969,16.410156 98.601562,20.898438 C88.246094,7.902344 72.367188,0 55.3125,0 C24.8125,0 0,24.820312 0,55.332031 C0,60.855469 4.476562,65.332031 10,65.332031 Z" id="Path"></path>
            <path d="M502,25.359375 L260.261719,25.359375 C246.894531,25.359375 233.8125,30.78125 224.382812,40.226562 L211.085938,53.511719 C201.5,63.109375 196.21875,75.855469 196.21875,89.398438 L196.21875,131.460938 C196.21875,139.671875 193.023438,147.398438 187.226562,153.199219 L183.214844,157.203125 C173.636719,166.792969 168.359375,179.539062 168.359375,193.089844 L168.359375,352.746094 L166.476562,350.863281 C150.90625,335.296875 130.207031,326.71875 108.191406,326.71875 L86.113281,326.71875 L66.113281,326.71875 L10,326.71875 C4.476562,326.71875 -2.84217094e-14,331.195312 -2.84217094e-14,336.71875 L-2.84217094e-14,502 C-2.84217094e-14,507.523438 4.476562,512 10,512 L502,512 C507.523438,512 512,507.523438 512,502 L512,35.359375 C512,29.835938 507.523438,25.359375 502,25.359375 Z M492,74.117188 L413.601562,74.117188 C396.824219,74.117188 381.402344,84.894531 375.6875,100.675781 C374.09375,105.074219 373.28125,109.757812 373.28125,114.441406 L373.28125,414.289062 C368.738281,412.363281 363.875,411.070312 358.804688,410.519531 C359.820312,395.582031 355.390625,380.566406 346.414062,368.582031 C337.890625,357.203125 325.570312,348.871094 311.804688,345.300781 C302.96875,343.007812 293.617188,342.671875 284.640625,344.308594 L284.640625,102.800781 C284.640625,90.242188 288.613281,78.292969 295.96875,68.390625 C302.085938,60.152344 310.382812,53.554688 319.890625,49.65625 C326.765625,46.804688 334.027344,45.359375 341.46875,45.359375 L492,45.359375 L492,74.117188 Z M267.316406,374.269531 C281.199219,361.828125 302.164062,359.816406 318.113281,369.433594 C332.09375,377.863281 340.011719,393.625 338.785156,409.839844 C338.578125,412.539062 337.753906,415.191406 337.742188,417.894531 C337.730469,420.601562 338.695312,423.332031 340.339844,425.472656 C341.941406,427.554688 344.195312,429.109375 346.722656,429.839844 C349.230469,430.5625 351.746094,430.160156 354.3125,430.246094 C362.828125,430.574219 370.710938,434.453125 376.21875,440.515625 C376.414062,440.730469 376.609375,440.949219 376.796875,441.171875 C376.855469,441.238281 376.910156,441.304688 376.96875,441.375 C380.632812,445.769531 382.976562,451.054688 383.789062,456.671875 C383.804688,456.765625 383.816406,456.859375 383.828125,456.953125 C383.871094,457.28125 383.910156,457.609375 383.945312,457.941406 C384.671875,465.476562 382.714844,472.796875 378.589844,478.742188 C377.527344,480.265625 376.324219,481.710938 375.003906,483.019531 L289.453125,397.46875 C281.59375,389.605469 272.417969,383.535156 262.433594,379.445312 C263.910156,377.585938 265.546875,375.851562 267.316406,374.269531 L267.316406,374.269531 Z M188.359375,193.089844 C188.359375,184.875 191.558594,177.152344 197.351562,171.347656 L201.367188,167.347656 C205.933594,162.773438 209.511719,157.472656 212.015625,151.71875 C214.945312,155.574219 216.554688,160.238281 216.554688,165.164062 L216.554688,231.445312 C216.554688,236.96875 221.03125,241.445312 226.554688,241.445312 C232.078125,241.445312 236.554688,236.96875 236.554688,231.445312 L236.554688,165.164062 C236.554688,153.867188 232.15625,143.25 224.167969,135.261719 L216.21875,127.3125 L216.21875,89.398438 C216.21875,81.191406 219.421875,73.46875 225.226562,67.652344 L238.523438,54.363281 C244.242188,48.640625 252.164062,45.359375 260.257812,45.359375 L289.9375,45.359375 C289.84375,45.445312 289.757812,45.535156 289.664062,45.621094 C288.914062,46.3125 288.171875,47.015625 287.449219,47.738281 C272.738281,62.445312 264.640625,82 264.640625,102.800781 L264.640625,351.652344 C258.347656,355.257812 252.71875,359.976562 248.019531,365.488281 C246.007812,367.847656 243.996094,370.394531 242.480469,373.109375 C242.269531,373.484375 242.171875,373.867188 241.734375,374.003906 C241.292969,374.144531 240.671875,373.941406 240.234375,373.863281 C238.773438,373.609375 237.273438,373.542969 235.796875,373.457031 C232.957031,373.296875 230.117188,373.316406 227.273438,373.316406 C221.023438,373.316406 214.644531,373.632812 208.417969,372.988281 C201.484375,372.277344 194.675781,370.394531 188.359375,367.445312 L188.359375,193.089844 Z M20,346.722656 L108.1875,346.722656 C124.863281,346.722656 140.539062,353.214844 152.332031,365.007812 L156.507812,369.179688 C157.980469,370.652344 159.511719,372.039062 161.070312,373.386719 C147.960938,374.035156 135.730469,379.449219 126.382812,388.796875 L94.027344,421.148438 C87.824219,427.351562 79.578125,430.765625 70.808594,430.765625 L64.261719,430.765625 C58.738281,430.765625 54.261719,435.242188 54.261719,440.765625 C54.261719,446.289062 58.738281,450.765625 64.261719,450.765625 L70.808594,450.765625 C84.921875,450.765625 98.191406,445.269531 108.171875,435.289062 L140.523438,402.9375 C146.726562,396.734375 154.972656,393.320312 163.742188,393.320312 L214.613281,393.320312 C214.671875,393.320312 214.730469,393.324219 214.792969,393.324219 L231.164062,393.324219 C244.042969,393.324219 256.824219,397.382812 267.3125,404.859375 C270.15625,406.882812 272.839844,409.140625 275.308594,411.609375 L355.695312,492 L20,492 L20,346.722656 Z M393.691406,492 C396.628906,488.152344 398.988281,483.917969 400.714844,479.417969 C404.023438,470.859375 404.890625,461.429688 403.378906,452.390625 C401.9375,443.785156 398.386719,436.035156 393.320312,429.589844 L393.320312,113.660156 C393.730469,102.902344 402.824219,94.117188 413.597656,94.117188 L492,94.117188 L492,138.222656 L473.660156,138.222656 C453.34375,138.222656 436.808594,154.757812 436.808594,175.078125 L436.808594,241.28125 C436.808594,246.488281 434.78125,251.386719 431.097656,255.066406 C423.640625,262.527344 419.53125,272.449219 419.53125,282.996094 L419.53125,386.75 C419.53125,392.273438 424.007812,396.75 429.53125,396.75 C435.054688,396.75 439.53125,392.273438 439.53125,386.75 L439.53125,282.996094 C439.53125,277.789062 441.558594,272.890625 445.242188,269.210938 C452.699219,261.75 456.808594,251.828125 456.808594,241.277344 L456.808594,175.074219 C456.808594,165.785156 464.371094,158.222656 473.660156,158.222656 L492,158.222656 L492,492 L393.691406,492 Z" id="Shape"></path>
            <path d="M438.761719,429.011719 C437.125,425.085938 433.070312,422.5625 428.820312,422.871094 C424.664062,423.175781 421.070312,426.09375 419.921875,430.097656 C418.773438,434.097656 420.308594,438.550781 423.710938,440.964844 C427.078125,443.359375 431.632812,443.429688 435.078125,441.152344 C439.023438,438.542969 440.542969,433.359375 438.761719,429.011719 Z" id="Path"></path>
            <path d="M331.46875,251.609375 L331.46875,313.890625 C331.46875,319.414062 335.945312,323.890625 341.46875,323.890625 C346.992188,323.890625 351.46875,319.414062 351.46875,313.890625 L351.46875,251.609375 C351.46875,246.085938 346.992188,241.609375 341.46875,241.609375 C335.945312,241.609375 331.46875,246.085938 331.46875,251.609375 Z" id="Path"></path>
            <path d="M353.054688,74.472656 C353.054688,68.917969 348.550781,64.414062 342.996094,64.414062 C341.984375,64.414062 341.011719,64.566406 340.089844,64.847656 L340.078125,64.78125 C337.078125,65.203125 310.757812,70.40625 310.757812,122.671875 L310.757812,193.230469 C310.757812,198.753906 315.234375,203.230469 320.757812,203.230469 C326.28125,203.230469 330.757812,198.753906 330.757812,193.230469 L330.757812,122.671875 C330.757812,113.113281 331.523438,102.738281 335.367188,93.847656 C336.828125,90.460938 339.183594,87.257812 342.363281,85.316406 C345.839844,83.191406 349.355469,83.496094 351.675781,79.554688 C352.578125,78.019531 353.054688,76.253906 353.054688,74.472656 L353.054688,74.472656 Z" id="Path"></path>
        </g>
    </g>
</svg>