<?xml version="1.0" encoding="UTF-8"?>
<svg width="665px" height="545px" viewBox="0 0 665 545" version="1.1" xmlns="http://www.w3.org/2000/svg" xmlns:xlink="http://www.w3.org/1999/xlink">
    <!-- Generator: Sketch 53 (72520) - https://sketchapp.com -->
    <title>erg-chebbi</title>
    <desc>Created with Sketch.</desc>
    <g id="Page-1" stroke="none" stroke-width="1" fill="none" fill-rule="evenodd">
        <g id="erg-chebbi" fill="#404348" fill-rule="nonzero">
            <path d="M651.404762,376.740374 C496.957682,376.740374 399.398019,320.704521 327.425781,269.702009 C346.570731,264.247954 365.011115,255.311616 383.198057,242.664899 C389.082961,238.574359 390.537714,230.489583 386.447173,224.604679 C382.356631,218.724842 374.266787,217.270089 368.381882,221.360631 C345.592448,237.205775 323.441685,246.081287 299.065708,249.082031 C297.271345,247.754 295.487119,246.436104 293.718098,245.128348 C256.867746,217.837798 225.035528,194.267765 193.375652,187.151134 C174.377697,182.878116 161.822219,191.130162 142.819196,203.624814 C126.629372,214.269345 104.463402,228.842216 65.3979731,246.142113 C40.7888303,257.040086 28.1015625,255.377512 14.6641087,253.618629 C7.55761751,252.685966 1.04417848,257.699033 0.116583026,264.800455 C-0.816080405,271.906948 4.19191811,278.420387 11.2984093,279.353051 C29.5411086,281.740467 46.9930714,282.673131 75.9056458,269.86928 C116.927641,251.707682 141.090728,235.821987 157.077799,225.309244 C174.428385,213.899321 179.775995,210.690756 187.683362,212.469912 C213.995628,218.385231 242.365839,239.390439 278.273391,265.981491 C356.186292,323.674851 462.890113,402.687686 651.404762,402.687686 C658.57208,402.687686 664.380952,396.878813 664.380952,389.711496 C664.380952,382.549247 658.57208,376.740374 651.404762,376.740374 L651.404762,376.740374 Z" id="Path"></path>
            <path d="M471.3145,164.224842 C478.279064,158.385556 484.645507,153.661412 490.768647,149.783762 C500.363932,143.716378 528.065058,162.714332 550.327335,177.981631 C581.424572,199.311244 616.673177,223.479399 651.404762,223.479399 C658.57208,223.479399 664.380952,217.670527 664.380952,210.503208 C664.380952,203.34096 658.57208,197.527018 651.404762,197.527018 C624.717402,197.527018 592.991629,175.771624 565.00158,156.575985 C530.624814,133.000884 500.926571,112.639417 476.890207,127.856027 C469.778646,132.357143 462.499814,137.745304 454.638067,144.334775 C449.14853,148.937268 448.428757,157.12342 453.03125,162.612955 C457.638811,168.107561 465.819894,168.827335 471.3145,164.224842 L471.3145,164.224842 Z" id="Path"></path>
            <path d="M60.917131,445.727074 C42.365235,451.738699 24.7713452,457.714844 8.61193299,463.488235 C1.86532738,465.895926 -1.6524374,473.321754 0.76032431,480.06836 C2.65606399,485.375418 7.6539255,488.68536 12.981259,488.68536 C14.4309434,488.68536 15.9009018,488.442057 17.3455178,487.925037 C33.2565566,482.237816 50.6122114,476.347842 68.9157366,470.417318 C75.7333051,468.20731 79.4690297,460.887928 77.2590209,454.070359 C75.0540833,447.25279 67.7347008,443.517067 60.917131,445.727074 Z" id="Path"></path>
            <path d="M651.404762,519.042551 C504.119931,519.042551 421.006417,459.615653 366.004604,420.296783 C336.985583,399.545015 316.015857,384.551432 295.553013,386.208938 C264.293573,388.74842 205.667551,403.6609 173.50586,412.323521 C166.586914,414.18378 162.486235,421.305478 164.351562,428.224423 C166.211821,435.148438 173.338588,439.244048 180.252464,437.383789 C233.530878,423.028878 276.321893,413.808687 297.651506,412.080217 C308.671131,411.142485 328.231725,425.193266 350.914714,441.408436 C379.43192,461.800316 414.928897,487.17992 463.645369,508.109095 C521.424897,532.931129 582.843842,544.994932 651.404762,544.994932 C658.57208,544.994932 664.380952,539.186058 664.380952,532.018741 C664.380952,524.851423 658.57208,519.042551 651.404762,519.042551 L651.404762,519.042551 Z" id="Path"></path>
            <path d="M332.195545,119.076823 C365.026321,119.076823 391.733957,92.3691875 391.733957,59.5384108 C391.733957,26.7076355 365.026321,0 332.195545,0 C299.364769,0 272.657134,26.7076355 272.657134,59.5384108 C272.657134,92.3691875 299.364769,119.076823 332.195545,119.076823 Z M332.195545,25.952381 C350.711961,25.952381 365.781576,41.0169271 365.781576,59.5384108 C365.781576,78.0598958 350.711961,93.124442 332.195545,93.124442 C313.674061,93.124442 298.609515,78.0598958 298.609515,59.5384108 C298.609515,41.0219956 313.674061,25.952381 332.195545,25.952381 Z" id="Shape"></path>
            <path d="M420.388021,207.203405 C422.861607,207.203405 425.360537,206.493768 427.570545,205.018741 L427.580683,205.013673 C433.54162,201.039714 435.148438,192.985351 431.174479,187.024414 C427.200521,181.063476 419.141089,179.451591 413.180152,183.425549 C407.214146,187.399507 405.60226,195.458938 409.581287,201.419875 C412.080217,205.170805 416.191034,207.203405 420.388021,207.203405 L420.388021,207.203405 Z" id="Path"></path>
            <path d="M117.135463,428.295387 L117.130394,428.295387 C110.236793,430.267159 106.252697,437.444615 108.219402,444.338216 C109.851562,450.035574 115.047107,453.751024 120.693778,453.751024 C121.874814,453.751024 123.076125,453.588821 124.267299,453.24921 C131.155832,451.277437 135.150065,444.094912 133.178292,437.206381 C131.211589,430.317848 124.029064,426.333752 117.135463,428.295387 L117.135463,428.295387 Z" id="Path"></path>
        </g>
    </g>
</svg>