<?xml version="1.0" encoding="UTF-8"?>
<svg width="430px" height="512px" viewBox="0 0 430 512" version="1.1" xmlns="http://www.w3.org/2000/svg" xmlns:xlink="http://www.w3.org/1999/xlink">
    <!-- Generator: Sketch 53 (72520) - https://sketchapp.com -->
    <title>mask (1)</title>
    <desc>Created with Sketch.</desc>
    <g id="Page-1" stroke="none" stroke-width="1" fill="none" fill-rule="evenodd">
        <g id="mask-(1)" fill="#404348" fill-rule="nonzero">
            <path d="M215,0 C96.476,0 0.051,96.426 0.051,214.949 L0.051,501.801 C0.051,507.433 4.617,512 10.25,512 L419.75,512 C425.383,512 429.949,507.433 429.949,501.801 L429.949,214.949 C429.949,96.426 333.524,0 215,0 Z M116.59,491.602 C121.711,441.824 163.892,402.869 215,402.869 C266.108,402.869 308.29,441.824 313.41,491.602 L116.59,491.602 Z M182.052,387.1 C187.442,374.212 200.179,365.132 215,365.132 C229.82,365.132 242.557,374.212 247.948,387.1 C237.479,384.088 226.426,382.471 215,382.471 C203.575,382.47 192.522,384.088 182.052,387.1 Z M409.552,491.602 L409.552,491.602 L333.89,491.602 C330.378,450.321 305.765,414.969 270.905,396.404 C268.639,367.536 244.44,344.734 215,344.734 C185.56,344.734 161.361,367.536 159.095,396.404 C124.235,414.97 99.62,450.321 96.11,491.602 L20.449,491.602 L20.449,214.949 C20.449,210.192 20.629,205.477 20.966,200.805 L40.543,274.599 C49.747,309.287 81.239,333.514 117.127,333.514 C160.816,333.514 196.361,297.97 196.361,254.28 C196.361,218.392 172.135,186.901 137.446,177.696 L31.735,149.651 C58.628,74.399 130.621,20.398 215,20.398 C299.379,20.398 371.372,74.399 398.265,149.651 L292.554,177.698 C257.865,186.902 233.639,218.394 233.639,254.282 C233.639,297.971 269.183,333.516 312.873,333.516 C348.761,333.516 380.253,309.29 389.457,274.601 L409.034,200.807 C409.372,205.479 409.551,210.194 409.551,214.951 L409.552,491.602 L409.552,491.602 Z M34.277,171.43 L132.215,197.415 C157.973,204.248 175.962,227.633 175.962,254.282 C175.962,286.724 149.569,313.117 117.127,313.117 C90.479,313.117 67.094,295.128 60.259,269.37 L34.277,171.43 Z M395.723,171.43 L369.74,269.368 C362.907,295.126 339.522,313.115 312.873,313.115 C280.431,313.115 254.038,286.722 254.038,254.28 C254.038,227.632 272.027,204.247 297.785,197.413 L395.723,171.43 Z" id="Shape"></path>
            <path d="M235.398,435.506 L194.601,435.506 C188.968,435.506 184.402,440.073 184.402,445.705 C184.402,451.337 188.968,455.904 194.601,455.904 L235.398,455.904 C241.031,455.904 245.597,451.337 245.597,445.705 C245.597,440.073 241.031,435.506 235.398,435.506 Z" id="Path"></path>
            <path d="M161.276,51.946 C159.24,46.694 153.332,44.087 148.079,46.12 C108.376,61.511 74.903,90.43 53.826,127.555 C51.045,132.454 52.762,138.679 57.66,141.461 C59.25,142.364 60.98,142.793 62.686,142.793 C66.236,142.793 69.687,140.936 71.565,137.628 C90.327,104.581 120.118,78.837 155.451,65.142 C160.704,63.106 163.311,57.197 161.276,51.946 Z" id="Path"></path>
            <path d="M215,33.657 C205.5,33.657 195.961,34.383 186.646,35.815 C181.078,36.671 177.259,41.877 178.115,47.445 C178.89,52.487 183.234,56.095 188.184,56.095 C188.699,56.095 189.221,56.056 189.747,55.976 C198.038,54.702 206.535,54.055 215,54.055 C220.633,54.055 225.199,49.488 225.199,43.856 C225.199,38.224 220.633,33.657 215,33.657 Z" id="Path"></path>
        </g>
    </g>
</svg>