<?xml version="1.0" encoding="iso-8859-1"?>
<!-- Generator: Adobe Illustrator 19.0.0, SVG Export Plug-In . SVG Version: 6.00 Build 0)  -->
<svg version="1.1" id="Capa_1" xmlns="http://www.w3.org/2000/svg" xmlns:xlink="http://www.w3.org/1999/xlink" x="0px" y="0px"
	 viewBox="0 0 186.938 186.938" style="enable-background:new 0 0 186.938 186.938;" xml:space="preserve">
<g>
	<g>
		<path d="M60.472,74.298H42.269c-1.06,0-2.06,0.492-2.705,1.331L5.431,120.003c-0.794,1.033-0.932,2.423-0.357,3.591
			c0.573,1.166,1.761,1.905,3.062,1.905h40.107c1.884,0,3.413-1.529,3.413-3.413c0-1.884-1.529-3.413-3.413-3.413H15.066
			l28.882-37.547h16.524c1.884,0,3.413-1.529,3.413-3.413S62.356,74.298,60.472,74.298z"/>
	</g>
</g>
<g>
	<g>
		<path d="M184.921,120.003l-34.133-44.373c-0.645-0.84-1.645-1.331-2.705-1.331h-21.053c-1.884,0-3.413,1.529-3.413,3.413
			s1.529,3.413,3.413,3.413h19.372l28.882,37.547h-36.588c-1.884,0-3.413,1.529-3.413,3.413c0,1.884,1.529,3.413,3.413,3.413h43.52
			c1.3,0,2.488-0.739,3.062-1.905C185.853,122.426,185.714,121.033,184.921,120.003z"/>
	</g>
</g>
<g>
	<g>
		<path d="M137.842,84.538H49.096c-1.884,0-3.413,1.529-3.413,3.413v81.92c0,1.884,1.529,3.413,3.413,3.413h88.747
			c1.884,0,3.413-1.529,3.413-3.413v-81.92C141.256,86.067,139.726,84.538,137.842,84.538z M134.429,166.458h-81.92V91.365h81.92
			V166.458z"/>
	</g>
</g>
<g>
	<g>
		<path d="M182.216,166.458H4.722c-1.884,0-3.413,1.529-3.413,3.413v13.653c0,1.884,1.529,3.413,3.413,3.413h177.493
			c1.884,0,3.413-1.529,3.413-3.413v-13.653C185.629,167.987,184.1,166.458,182.216,166.458z M178.802,180.111H8.136v-6.827h170.667
			V180.111z"/>
	</g>
</g>
<g>
	<g>
		<path d="M115.439,15.961c-0.604-1.855-2.319-3.101-4.27-3.101h-10.26l-3.169-9.757C97.137,1.246,95.421,0,93.469,0
			c-1.952,0-3.668,1.246-4.27,3.101L86.03,12.86h-10.26c-1.951,0-3.666,1.246-4.27,3.101c-0.602,1.853,0.053,3.871,1.63,5.018
			l8.301,6.031l-3.168,9.754c-0.606,1.855,0.048,3.872,1.626,5.021c0.79,0.575,1.715,0.862,2.642,0.862
			c0.925,0,1.85-0.287,2.638-0.86l8.299-6.031l8.298,6.03c1.58,1.15,3.702,1.152,5.282,0c1.579-1.147,2.232-3.166,1.628-5.016
			l-3.169-9.759l8.301-6.031C115.386,19.833,116.041,17.816,115.439,15.961z M100.123,22.484c-1.579,1.145-2.234,3.162-1.632,5.019
			l1.471,4.529l-3.855-2.802c-1.575-1.143-3.693-1.145-5.275,0.002l-3.854,2.801l1.471-4.531c0.602-1.853-0.053-3.871-1.63-5.016
			l-3.855-2.801v-0.002h4.763c1.954,0,3.669-1.248,4.27-3.101l1.471-4.531l1.473,4.528c0.602,1.859,2.318,3.106,4.272,3.106h4.763
			L100.123,22.484z"/>
	</g>
</g>
<g>
	<g>
		<path d="M64.239,15.961c-0.604-1.855-2.319-3.101-4.27-3.101h-10.26l-3.169-9.757C45.937,1.246,44.221,0,42.269,0
			c-1.952,0-3.668,1.246-4.27,3.101L34.83,12.86h-10.26c-1.951,0-3.666,1.246-4.27,3.101c-0.602,1.853,0.053,3.871,1.63,5.018
			l8.301,6.031l-3.168,9.754c-0.606,1.855,0.048,3.872,1.626,5.021c0.79,0.575,1.715,0.862,2.642,0.862
			c0.925,0,1.85-0.287,2.638-0.86l8.299-6.031l8.298,6.03c1.58,1.15,3.702,1.152,5.282,0c1.579-1.147,2.232-3.166,1.628-5.016
			l-3.169-9.759l8.301-6.031C64.186,19.833,64.841,17.816,64.239,15.961z M48.923,22.484c-1.579,1.145-2.234,3.162-1.632,5.019
			l1.471,4.529l-3.855-2.802c-1.575-1.143-3.693-1.145-5.275,0.002l-3.854,2.801l1.471-4.531c0.602-1.853-0.053-3.871-1.63-5.016
			l-3.855-2.801v-0.002h4.763c1.954,0,3.669-1.248,4.27-3.101l1.471-4.531l1.473,4.528c0.602,1.859,2.318,3.106,4.272,3.106h4.763
			L48.923,22.484z"/>
	</g>
</g>
<g>
	<g>
		<path d="M166.639,15.961c-0.604-1.855-2.319-3.101-4.27-3.101h-10.26l-3.169-9.757C148.337,1.246,146.621,0,144.669,0
			c-1.952,0-3.668,1.246-4.27,3.101l-3.169,9.759h-10.26c-1.951,0-3.666,1.246-4.27,3.101c-0.602,1.853,0.053,3.871,1.63,5.018
			l8.301,6.031l-3.168,9.754c-0.606,1.855,0.048,3.872,1.626,5.021c0.79,0.575,1.715,0.862,2.642,0.862
			c0.925,0,1.85-0.287,2.638-0.86l8.3-6.031l8.298,6.03c1.579,1.15,3.7,1.152,5.282,0c1.579-1.147,2.232-3.166,1.628-5.016
			l-3.169-9.759l8.301-6.031C166.586,19.833,167.241,17.816,166.639,15.961z M151.323,22.484c-1.579,1.145-2.234,3.162-1.632,5.019
			l1.471,4.529l-3.855-2.802c-1.575-1.143-3.693-1.145-5.275,0.002l-3.854,2.801l1.471-4.531c0.602-1.853-0.053-3.871-1.63-5.016
			l-3.855-2.801v-0.002h4.763c1.954,0,3.669-1.248,4.27-3.101l1.471-4.531l1.473,4.528c0.602,1.859,2.318,3.106,4.272,3.106h4.763
			L151.323,22.484z"/>
	</g>
</g>
<g>
	<g>
		<path d="M140.059,85.356L96.097,47.809c-1.277-1.091-3.157-1.091-4.434,0l-43.96,37.547c-1.087,0.928-1.48,2.435-0.985,3.777
			c0.493,1.343,1.772,2.232,3.202,2.232h87.922c1.43,0,2.708-0.891,3.202-2.232C141.539,87.791,141.146,86.284,140.059,85.356z
			 M59.172,84.538L93.88,54.893l34.71,29.645H59.172z"/>
	</g>
</g>
<g>
	<g>
		<path d="M76.402,94.778H62.749c-1.884,0-3.413,1.529-3.413,3.413v23.893c0,1.884,1.529,3.413,3.413,3.413h13.653
			c1.884,0,3.413-1.529,3.413-3.413V98.191C79.816,96.307,78.286,94.778,76.402,94.778z M72.989,118.671h-6.827v-17.067h6.827
			V118.671z"/>
	</g>
</g>
<g>
	<g>
		<path d="M100.296,94.778H86.642c-1.884,0-3.413,1.529-3.413,3.413v23.893c0,1.884,1.529,3.413,3.413,3.413h13.653
			c1.884,0,3.413-1.529,3.413-3.413V98.191C103.709,96.307,102.18,94.778,100.296,94.778z M96.882,118.671h-6.827v-17.067h6.827
			V118.671z"/>
	</g>
</g>
<g>
	<g>
		<path d="M124.189,94.778h-13.653c-1.884,0-3.413,1.529-3.413,3.413v23.893c0,1.884,1.529,3.413,3.413,3.413h13.653
			c1.884,0,3.413-1.529,3.413-3.413V98.191C127.602,96.307,126.073,94.778,124.189,94.778z M120.776,118.671h-6.827v-17.067h6.827
			V118.671z"/>
	</g>
</g>
<g>
	<g>
		<path d="M76.402,128.911H62.749c-1.884,0-3.413,1.529-3.413,3.413v23.893c0,1.884,1.529,3.413,3.413,3.413h13.653
			c1.884,0,3.413-1.529,3.413-3.413v-23.893C79.816,130.441,78.286,128.911,76.402,128.911z M72.989,152.805h-6.827v-17.067h6.827
			V152.805z"/>
	</g>
</g>
<g>
	<g>
		<path d="M100.296,128.911H86.642c-1.884,0-3.413,1.529-3.413,3.413v23.893c0,1.884,1.529,3.413,3.413,3.413h13.653
			c1.884,0,3.413-1.529,3.413-3.413v-23.893C103.709,130.441,102.18,128.911,100.296,128.911z M96.882,152.805h-6.827v-17.067h6.827
			V152.805z"/>
	</g>
</g>
<g>
	<g>
		<path d="M124.189,128.911h-13.653c-1.884,0-3.413,1.529-3.413,3.413v23.893c0,1.884,1.529,3.413,3.413,3.413h13.653
			c1.884,0,3.413-1.529,3.413-3.413v-23.893C127.602,130.441,126.073,128.911,124.189,128.911z M120.776,152.805h-6.827v-17.067
			h6.827V152.805z"/>
	</g>
</g>
<g>
	<g>
		<path d="M171.976,118.671h-34.133c-1.884,0-3.413,1.529-3.413,3.413v47.787c0,1.884,1.529,3.413,3.413,3.413h34.133
			c1.884,0,3.413-1.529,3.413-3.413v-47.787C175.389,120.201,173.86,118.671,171.976,118.671z M168.562,166.458h-27.307v-40.96
			h27.307V166.458z"/>
	</g>
</g>
<g>
	<g>
		<path d="M161.736,128.911h-13.653c-1.884,0-3.413,1.529-3.413,3.413v23.893c0,1.884,1.529,3.413,3.413,3.413h13.653
			c1.884,0,3.413-1.529,3.413-3.413v-23.893C165.149,130.441,163.62,128.911,161.736,128.911z M158.322,152.805h-6.827v-17.067
			h6.827V152.805z"/>
	</g>
</g>
<g>
	<g>
		<path d="M49.096,118.671H14.962c-1.884,0-3.413,1.529-3.413,3.413v47.787c0,1.884,1.529,3.413,3.413,3.413h34.133
			c1.884,0,3.413-1.529,3.413-3.413v-47.787C52.509,120.201,50.98,118.671,49.096,118.671z M45.682,166.458H18.376v-40.96h27.307
			V166.458z"/>
	</g>
</g>
<g>
	<g>
		<path d="M38.856,128.911H25.202c-1.884,0-3.413,1.529-3.413,3.413v23.893c0,1.884,1.529,3.413,3.413,3.413h13.653
			c1.884,0,3.413-1.529,3.413-3.413v-23.893C42.269,130.441,40.74,128.911,38.856,128.911z M35.442,152.805h-6.827v-17.067h6.827
			V152.805z"/>
	</g>
</g>
<g>
</g>
<g>
</g>
<g>
</g>
<g>
</g>
<g>
</g>
<g>
</g>
<g>
</g>
<g>
</g>
<g>
</g>
<g>
</g>
<g>
</g>
<g>
</g>
<g>
</g>
<g>
</g>
<g>
</g>
</svg>
