<?xml version="1.0" encoding="iso-8859-1"?>
<!-- Generator: Adobe Illustrator 19.0.0, SVG Export Plug-In . SVG Version: 6.00 Build 0)  -->
<svg version="1.1" id="Capa_1" xmlns="http://www.w3.org/2000/svg" xmlns:xlink="http://www.w3.org/1999/xlink" x="0px" y="0px"
	 viewBox="0 0 214.245 214.245" style="enable-background:new 0 0 214.245 214.245;" xml:space="preserve">
<g>
	<g>
		<path d="M196.867,147.309l-34.133-44.373c-0.645-0.84-1.645-1.331-2.705-1.331h-8.818c-1.884,0-3.413,1.529-3.413,3.413
			s1.529,3.413,3.413,3.413h7.137l28.882,37.547h-36.018c-1.884,0-3.413,1.529-3.413,3.413s1.529,3.413,3.413,3.413h42.95
			c1.3,0,2.488-0.739,3.062-1.905C197.799,149.733,197.661,148.34,196.867,147.309z"/>
	</g>
</g>
<g>
	<g>
		<path d="M59.619,145.978H27.013l28.882-37.547h4.009c1.884,0,3.413-1.529,3.413-3.413s-1.529-3.413-3.413-3.413h-5.688
			c-1.06,0-2.06,0.492-2.705,1.331l-34.133,44.373c-0.794,1.033-0.932,2.423-0.357,3.591c0.573,1.166,1.761,1.905,3.062,1.905
			h39.538c1.884,0,3.412-1.529,3.412-3.413S61.503,145.978,59.619,145.978z"/>
	</g>
</g>
<g>
	<g>
		<path d="M149.789,77.711H61.042c-1.884,0-3.413,1.529-3.413,3.413v116.053c0,1.884,1.529,3.413,3.413,3.413h88.747
			c1.884,0,3.413-1.529,3.413-3.413V81.125C153.202,79.241,151.673,77.711,149.789,77.711z M146.376,193.765h-81.92V84.538h81.92
			V193.765z"/>
	</g>
</g>
<g>
	<g>
		<path d="M194.162,193.765H16.669c-1.884,0-3.413,1.529-3.413,3.413v13.653c0,1.884,1.529,3.413,3.413,3.413h177.493
			c1.884,0,3.413-1.529,3.413-3.413v-13.653C197.576,195.294,196.047,193.765,194.162,193.765z M190.749,207.418H20.082v-6.827
			h170.667V207.418z"/>
	</g>
</g>
<g>
	<g>
		<path d="M103.492,15.961c-0.604-1.855-2.319-3.101-4.27-3.101h-10.26l-3.169-9.757C85.19,1.246,83.475,0,81.522,0
			c-1.952,0-3.668,1.246-4.27,3.101l-3.169,9.759h-10.26c-1.951,0-3.666,1.246-4.27,3.101c-0.602,1.853,0.053,3.871,1.63,5.018
			l8.301,6.031l-3.168,9.754c-0.606,1.855,0.048,3.872,1.626,5.021c0.79,0.575,1.715,0.862,2.642,0.862
			c0.925,0,1.85-0.287,2.638-0.86l8.3-6.031l8.298,6.03c1.58,1.15,3.702,1.152,5.282,0c1.579-1.147,2.232-3.166,1.628-5.016
			l-3.169-9.759l8.301-6.031C103.439,19.833,104.095,17.816,103.492,15.961z M88.177,22.484c-1.579,1.145-2.234,3.162-1.632,5.019
			l1.471,4.529l-3.855-2.802c-1.577-1.143-3.695-1.145-5.275,0.002l-3.854,2.801l1.471-4.531c0.602-1.853-0.053-3.871-1.63-5.016
			l-3.855-2.801v-0.002h4.763c1.954,0,3.669-1.248,4.27-3.101l1.471-4.531l1.473,4.528c0.602,1.859,2.318,3.106,4.272,3.106h4.763
			L88.177,22.484z"/>
	</g>
</g>
<g>
	<g>
		<path d="M52.292,15.961c-0.604-1.855-2.319-3.101-4.27-3.101h-10.26l-3.169-9.757C33.99,1.246,32.275,0,30.322,0
			c-1.952,0-3.668,1.246-4.27,3.101l-3.169,9.759h-10.26c-1.951,0-3.666,1.246-4.27,3.101c-0.602,1.853,0.053,3.871,1.63,5.018
			l8.301,6.031l-3.168,9.754c-0.606,1.855,0.048,3.872,1.626,5.021c0.79,0.575,1.715,0.862,2.642,0.862
			c0.925,0,1.85-0.287,2.639-0.86l8.299-6.031l8.298,6.03c1.58,1.15,3.702,1.152,5.282,0c1.579-1.147,2.232-3.166,1.628-5.016
			l-3.169-9.759l8.301-6.031C52.239,19.833,52.895,17.816,52.292,15.961z M36.977,22.484c-1.579,1.145-2.234,3.162-1.632,5.019
			l1.471,4.529l-3.855-2.802c-1.575-1.143-3.693-1.145-5.275,0.002l-3.854,2.801l1.471-4.531c0.602-1.853-0.053-3.871-1.63-5.016
			l-3.855-2.801v-0.002h4.763c1.954,0,3.669-1.248,4.27-3.101l1.471-4.531l1.473,4.528c0.602,1.859,2.318,3.106,4.272,3.106h4.763
			L36.977,22.484z"/>
	</g>
</g>
<g>
	<g>
		<path d="M154.692,15.961c-0.604-1.855-2.319-3.101-4.27-3.101h-10.26l-3.169-9.757C136.39,1.246,134.675,0,132.722,0
			c-1.952,0-3.668,1.246-4.27,3.101l-3.169,9.759h-10.26c-1.951,0-3.666,1.246-4.27,3.101c-0.602,1.853,0.053,3.871,1.63,5.018
			l8.301,6.031l-3.168,9.754c-0.606,1.855,0.048,3.872,1.626,5.021c0.79,0.575,1.715,0.862,2.642,0.862
			c0.925,0,1.85-0.287,2.638-0.86l8.3-6.031l8.298,6.03c1.579,1.15,3.7,1.152,5.282,0c1.579-1.147,2.232-3.166,1.628-5.016
			l-3.169-9.759l8.301-6.031C154.639,19.833,155.295,17.816,154.692,15.961z M139.377,22.484c-1.579,1.145-2.234,3.162-1.632,5.019
			l1.471,4.529l-3.855-2.802c-1.575-1.143-3.693-1.145-5.275,0.002l-3.854,2.801l1.471-4.531c0.602-1.853-0.053-3.871-1.63-5.016
			l-3.855-2.801v-0.002h4.763c1.954,0,3.669-1.248,4.27-3.101l1.471-4.531l1.473,4.528c0.602,1.859,2.318,3.106,4.272,3.106h4.763
			L139.377,22.484z"/>
	</g>
</g>
<g>
	<g>
		<path d="M205.892,15.961c-0.604-1.855-2.319-3.101-4.27-3.101h-10.26l-3.169-9.757C187.59,1.246,185.875,0,183.922,0
			c-1.952,0-3.668,1.246-4.27,3.101l-3.169,9.759h-10.26c-1.951,0-3.666,1.246-4.27,3.101c-0.602,1.853,0.053,3.871,1.63,5.018
			l8.301,6.031l-3.168,9.754c-0.606,1.855,0.048,3.872,1.626,5.021c0.79,0.575,1.715,0.862,2.642,0.862
			c0.925,0,1.85-0.287,2.638-0.86l8.299-6.031l8.298,6.03c1.58,1.15,3.702,1.152,5.282,0c1.579-1.147,2.232-3.166,1.628-5.016
			l-3.169-9.759l8.301-6.031C205.839,19.833,206.495,17.816,205.892,15.961z M190.577,22.484c-1.579,1.145-2.234,3.162-1.632,5.019
			l1.471,4.529l-3.855-2.802c-1.575-1.143-3.693-1.145-5.275,0.002l-3.854,2.801l1.471-4.531c0.602-1.853-0.053-3.871-1.63-5.016
			l-3.855-2.801v-0.002h4.763c1.954,0,3.669-1.248,4.27-3.101l1.471-4.531l1.473,4.528c0.602,1.859,2.318,3.106,4.272,3.106h4.763
			L190.577,22.484z"/>
	</g>
</g>
<g>
	<g>
		<path d="M152.006,78.529l-43.962-37.547c-1.277-1.091-3.157-1.091-4.434,0L59.65,78.529c-1.087,0.928-1.48,2.435-0.985,3.777
			c0.493,1.343,1.772,2.232,3.202,2.232h87.922c1.43,0,2.708-0.891,3.202-2.232C153.486,80.964,153.093,79.457,152.006,78.529z
			 M71.119,77.711l34.708-29.645l34.71,29.645H71.119z"/>
	</g>
</g>
<g>
	<g>
		<path d="M88.349,122.085H74.696c-1.884,0-3.413,1.529-3.413,3.413v23.893c0,1.884,1.529,3.413,3.413,3.413h13.653
			c1.884,0,3.413-1.529,3.413-3.413v-23.893C91.762,123.614,90.233,122.085,88.349,122.085z M84.936,145.978h-6.827v-17.067h6.827
			V145.978z"/>
	</g>
</g>
<g>
	<g>
		<path d="M112.242,122.085H98.589c-1.884,0-3.413,1.529-3.413,3.413v23.893c0,1.884,1.529,3.413,3.413,3.413h13.653
			c1.884,0,3.413-1.529,3.413-3.413v-23.893C115.656,123.614,114.127,122.085,112.242,122.085z M108.829,145.978h-6.827v-17.067
			h6.827V145.978z"/>
	</g>
</g>
<g>
	<g>
		<path d="M136.136,122.085h-13.653c-1.884,0-3.413,1.529-3.413,3.413v23.893c0,1.884,1.529,3.413,3.413,3.413h13.653
			c1.884,0,3.413-1.529,3.413-3.413v-23.893C139.549,123.614,138.02,122.085,136.136,122.085z M132.722,145.978h-6.827v-17.067
			h6.827V145.978z"/>
	</g>
</g>
<g>
	<g>
		<path d="M88.349,87.951H74.696c-1.884,0-3.413,1.529-3.413,3.413v23.893c0,1.884,1.529,3.413,3.413,3.413h13.653
			c1.884,0,3.413-1.529,3.413-3.413V91.365C91.762,89.481,90.233,87.951,88.349,87.951z M84.936,111.845h-6.827V94.778h6.827
			V111.845z"/>
	</g>
</g>
<g>
	<g>
		<path d="M112.242,87.951H98.589c-1.884,0-3.413,1.529-3.413,3.413v23.893c0,1.884,1.529,3.413,3.413,3.413h13.653
			c1.884,0,3.413-1.529,3.413-3.413V91.365C115.656,89.481,114.127,87.951,112.242,87.951z M108.829,111.845h-6.827V94.778h6.827
			V111.845z"/>
	</g>
</g>
<g>
	<g>
		<path d="M136.136,87.951h-13.653c-1.884,0-3.413,1.529-3.413,3.413v23.893c0,1.884,1.529,3.413,3.413,3.413h13.653
			c1.884,0,3.413-1.529,3.413-3.413V91.365C139.549,89.481,138.02,87.951,136.136,87.951z M132.722,111.845h-6.827V94.778h6.827
			V111.845z"/>
	</g>
</g>
<g>
	<g>
		<path d="M88.349,156.218H74.696c-1.884,0-3.413,1.529-3.413,3.413v23.893c0,1.884,1.529,3.413,3.413,3.413h13.653
			c1.884,0,3.413-1.529,3.413-3.413v-23.893C91.762,157.747,90.233,156.218,88.349,156.218z M84.936,180.111h-6.827v-17.067h6.827
			V180.111z"/>
	</g>
</g>
<g>
	<g>
		<path d="M112.242,156.218H98.589c-1.884,0-3.413,1.529-3.413,3.413v23.893c0,1.884,1.529,3.413,3.413,3.413h13.653
			c1.884,0,3.413-1.529,3.413-3.413v-23.893C115.656,157.747,114.127,156.218,112.242,156.218z M108.829,180.111h-6.827v-17.067
			h6.827V180.111z"/>
	</g>
</g>
<g>
	<g>
		<path d="M136.136,156.218h-13.653c-1.884,0-3.413,1.529-3.413,3.413v23.893c0,1.884,1.529,3.413,3.413,3.413h13.653
			c1.884,0,3.413-1.529,3.413-3.413v-23.893C139.549,157.747,138.02,156.218,136.136,156.218z M132.722,180.111h-6.827v-17.067
			h6.827V180.111z"/>
	</g>
</g>
<g>
	<g>
		<path d="M183.922,145.978h-34.133c-1.884,0-3.413,1.529-3.413,3.413v47.787c0,1.884,1.529,3.413,3.413,3.413h34.133
			c1.884,0,3.413-1.529,3.413-3.413v-47.787C187.336,147.507,185.807,145.978,183.922,145.978z M180.509,193.765h-27.307v-40.96
			h27.307V193.765z"/>
	</g>
</g>
<g>
	<g>
		<path d="M173.682,156.218h-13.653c-1.884,0-3.413,1.529-3.413,3.413v23.893c0,1.884,1.529,3.413,3.413,3.413h13.653
			c1.884,0,3.413-1.529,3.413-3.413v-23.893C177.096,157.747,175.567,156.218,173.682,156.218z M170.269,180.111h-6.827v-17.067
			h6.827V180.111z"/>
	</g>
</g>
<g>
	<g>
		<path d="M61.042,145.978H26.909c-1.884,0-3.413,1.529-3.413,3.413v47.787c0,1.884,1.529,3.413,3.413,3.413h34.133
			c1.884,0,3.413-1.529,3.413-3.413v-47.787C64.456,147.507,62.927,145.978,61.042,145.978z M57.629,193.765H30.322v-40.96h27.307
			V193.765z"/>
	</g>
</g>
<g>
	<g>
		<path d="M50.802,156.218H37.149c-1.884,0-3.413,1.529-3.413,3.413v23.893c0,1.884,1.529,3.413,3.413,3.413h13.653
			c1.884,0,3.413-1.529,3.413-3.413v-23.893C54.216,157.747,52.687,156.218,50.802,156.218z M47.389,180.111h-6.827v-17.067h6.827
			V180.111z"/>
	</g>
</g>
<g>
</g>
<g>
</g>
<g>
</g>
<g>
</g>
<g>
</g>
<g>
</g>
<g>
</g>
<g>
</g>
<g>
</g>
<g>
</g>
<g>
</g>
<g>
</g>
<g>
</g>
<g>
</g>
<g>
</g>
</svg>
