<?xml version="1.0" encoding="iso-8859-1"?>
<!-- Generator: Adobe Illustrator 19.0.0, SVG Export Plug-In . SVG Version: 6.00 Build 0)  -->
<svg version="1.1" id="Capa_1" xmlns="http://www.w3.org/2000/svg" xmlns:xlink="http://www.w3.org/1999/xlink" x="0px" y="0px"
	 viewBox="0 0 480 480" style="enable-background:new 0 0 480 480;" xml:space="preserve">
<g>
	<g>
		<path d="M352,0H128c-13.255,0-24,10.745-24,24v432c0,13.255,10.745,24,24,24h224c13.255,0,24-10.745,24-24V24
			C376,10.745,365.255,0,352,0z M360,456c0,4.418-3.582,8-8,8H128c-4.418,0-8-3.582-8-8v-40h240V456z M360,400H120V64h240V400z
			 M360,48H120V24c0-4.418,3.582-8,8-8h224c4.418,0,8,3.582,8,8V48z"/>
	</g>
</g>
<g>
	<g>
		<path d="M160,432h-16c-4.418,0-8,3.582-8,8s3.582,8,8,8h16c4.418,0,8-3.582,8-8S164.418,432,160,432z"/>
	</g>
</g>
<g>
	<g>
		<path d="M240,432c-4.418,0-8,3.582-8,8c0.013,1.045,0.23,2.078,0.64,3.04c0.406,0.969,0.974,1.862,1.68,2.64
			c3.155,3.094,8.205,3.094,11.36,0c0.706-0.778,1.274-1.671,1.68-2.64c0.448-0.949,0.668-1.991,0.64-3.04
			C248,435.582,244.418,432,240,432z"/>
	</g>
</g>
<g>
	<g>
		<path d="M336,432h-16c-4.418,0-8,3.582-8,8s3.582,8,8,8h16c4.418,0,8-3.582,8-8S340.418,432,336,432z"/>
	</g>
</g>
<g>
	<g>
		<path d="M277.46,162.344c-3.1-2.994-8.015-2.994-11.116,0l-128,128c-3.124,3.125-3.123,8.19,0.002,11.314
			c1.5,1.499,3.534,2.342,5.654,2.342c2.122,0,4.156-0.844,5.656-2.344l128-128C280.726,170.478,280.638,165.414,277.46,162.344z"/>
	</g>
</g>
<g>
	<g>
		<path d="M325.46,162.344c-3.1-2.994-8.015-2.994-11.116,0l-128,128c-3.123,3.124-3.123,8.188,0,11.312
			c3.124,3.123,8.188,3.123,11.312,0l128-128C328.726,170.478,328.638,165.414,325.46,162.344z"/>
	</g>
</g>
<g>
	<g>
		<rect x="136" y="80" width="32" height="16"/>
	</g>
</g>
<g>
	<g>
		<rect x="184" y="80" width="32" height="16"/>
	</g>
</g>
<g>
	<g>
		<rect x="264" y="112" width="16" height="16"/>
	</g>
</g>
<g>
	<g>
		<rect x="296" y="96" width="16" height="32"/>
	</g>
</g>
<g>
	<g>
		<rect x="328" y="80" width="16" height="48"/>
	</g>
</g>
<g>
</g>
<g>
</g>
<g>
</g>
<g>
</g>
<g>
</g>
<g>
</g>
<g>
</g>
<g>
</g>
<g>
</g>
<g>
</g>
<g>
</g>
<g>
</g>
<g>
</g>
<g>
</g>
<g>
</g>
</svg>
