<?xml version="1.0" encoding="UTF-8"?>
<svg width="452px" height="512px" viewBox="0 0 452 512" version="1.1" xmlns="http://www.w3.org/2000/svg" xmlns:xlink="http://www.w3.org/1999/xlink">
    <!-- Generator: Sketch 53 (72520) - https://sketchapp.com -->
    <title>mask</title>
    <desc>Created with Sketch.</desc>
    <g id="Page-1" stroke="none" stroke-width="1" fill="none" fill-rule="evenodd">
        <g id="mask" fill="#404348" fill-rule="nonzero">
            <path d="M439.859,152.138 C416.093,86.036 360.315,34.629 294.348,12.046 C271.327,4.166 247.693,0 226,0 C142.79,0 61.1,52.133 23.387,125.863 C19.046,134.35 15.269,143.129 12.142,152.135 C3.932,175.783 0,200.998 0,226 C0,285.951 29.973,348.41 66.492,394.88 C91.129,426.23 114.483,461.334 146.044,486.273 C168.559,504.065 192.486,512 223.627,512 C257.631,512 283.873,503.065 308.714,483.03 C331.357,464.768 353.448,436.904 383,398 C383.026,397.966 383.274,397.795 383.369,397.74 C419.823,348.417 452,288.872 452,226 C452,197 447,172 439.859,152.138 Z M226,20 C236.796,20 248.168,21.161 259.723,23.413 C259.677,23.436 235,36 226.197,42.978 C215.908,35.481 204.978,28.869 193.559,23.239 C193.524,23.222 193.491,23.204 193.456,23.187 C204.608,21.083 215.576,20 226,20 Z M80.082,82.435 C96.006,76.461 111.08,73.43 124.92,73.43 L125.03,73.43 C136.82,73.43 149.46,75.89 162.6,80.73 C167.705,82.61 173.566,79.873 175.43,74.8 C177.34,69.62 174.68,63.87 169.51,61.96 C154.14,56.31 139.17,53.44 125,53.43 C122.188,53.432 119.338,53.543 116.457,53.75 C130.508,44.889 145.721,37.472 161.831,31.768 C161.848,31.773 161.865,31.779 161.883,31.784 C181.373,38.209 199.831,48.211 216.171,60.592 C220.91,64.182 226.565,67.596 232.098,63.359 C232.104,63.355 232.138,63.329 232.166,63.308 C233.547,62.262 259.719,42.637 290.997,32.064 C306.828,37.739 321.789,45.072 335.622,53.806 C325.024,52.945 314.421,53.781 304.042,56.051 C297.112,57.571 289.802,59.801 282.342,62.671 C277.297,64.612 274.674,70.574 276.612,75.6 C278.553,80.635 284.529,83.26 289.542,81.331 C303.102,76.091 315.682,73.431 326.922,73.431 L327.132,73.431 C340.406,73.431 356.266,76.929 373.024,83.537 C386.998,97.404 398.877,113.02 408.159,129.928 C408.073,129.882 407.984,129.835 407.898,129.788 C383.562,116.7 355.032,105.432 327,105.432 C284.927,105.432 242.029,132.048 226.199,142.97 C211.013,131.854 170.164,105.432 125,105.432 C96.857,105.432 68.994,115.505 44.526,128.838 C44.486,128.86 44.444,128.882 44.404,128.904 C53.849,111.935 65.912,96.293 80.082,82.435 Z M20,226 C20,222.136 20.102,218.28 20.303,214.446 L60.858,255 L22.589,255 C20.869,245.056 20,235.333 20,226 Z M63.792,355 L104.504,355 L82.749,382.862 C75.923,373.572 69.589,364.26 63.792,355 Z M373.345,377.202 L351.142,355 L388.206,355 C383.588,362.377 378.624,369.794 373.345,377.202 Z M418.359,295 C418.359,295 367.203,295 367.001,295 C354.458,295 354.074,315 367,315 L410.003,315 C406.952,321.607 403.596,328.277 399.928,335 C399.928,335 327.235,335 327.001,335 C318.386,335 313.826,345.968 319.93,352.071 L361.276,393.417 C359.418,395.81 357.522,398.195 355.606,400.575 C350.617,407.059 345.855,413.156 341.248,418.913 C337.866,414.123 318.195,386.268 318.138,386.188 C310.827,375.952 294.301,387.225 301.863,397.813 L328.255,434.658 C294.638,473.932 267.874,492 223.627,492 C180.572,492 154.622,471.532 123.787,434.914 C125.622,432.33 150.011,397.989 150.137,397.813 C157.569,387.408 141.419,375.609 133.863,386.187 L110.676,418.832 C105.761,412.651 100.673,406.131 95.322,399.257 C95.322,399.257 132.763,351.307 132.882,351.154 C137.913,344.711 133.126,335 125,335 L52.072,335 C48.404,328.277 45.048,321.607 41.997,315 C41.997,315 84.761,315 84.999,315 C97.731,315 98.004,295 85,295 L33.641,295 C31.121,288.247 28.938,281.574 27.112,275 C27.112,275 84.799,275 84.999,275 C93.519,275 98.13,263.989 92.071,257.929 L23.177,189.036 C24.833,179.648 27.142,170.436 30.087,161.541 C30.379,160.658 33.337,159.211 34.054,158.734 C60.892,140.84 92.033,125.432 124.999,125.432 C148.295,125.432 171.058,133.665 191.324,144.649 C201.119,149.958 210.75,155.961 219.43,162.978 C223.03,165.888 228.345,166.243 232.096,163.358 C232.589,162.979 281.922,125.432 326.999,125.432 C361.15,125.432 394.342,142.981 421.941,161.692 C421.955,161.702 421.972,161.713 421.986,161.723 C424.884,170.551 427.175,179.707 428.821,189.036 C428.821,189.036 360.163,257.693 359.928,257.928 C353.813,264.045 358.364,275 367,275 L424.888,275 C423.062,281.574 420.878,288.247 418.359,295 Z M429.411,255 L391.142,255 L431.697,214.446 C431.898,218.28 432,222.136 432,226 C432,235.333 431.131,245.056 429.411,255 Z" id="Shape"></path>
            <path d="M125,295 C119.49,295 115,299.49 115,305 C115,310.51 119.49,315 125,315 C130.51,315 135,310.51 135,305 C135,299.49 130.51,295 125,295 Z" id="Path"></path>
            <path d="M327,295 C321.49,295 317,299.49 317,305 C317,310.51 321.49,315 327,315 C332.51,315 337,310.51 337,305 C337,299.49 332.51,295 327,295 Z" id="Path"></path>
            <path d="M247.018,308.017 C239.199,307.763 231.781,310.455 226,315.639 C220.218,310.455 212.81,307.765 204.981,308.017 C189.001,308.55 176,322.236 176,338.529 L176.042,377.611 C176.079,384.359 181.225,388 186.047,388 L265.952,388 C270.774,388 275.92,384.359 275.957,377.611 L276,338.529 C276,338.527 276,338.526 276,338.524 C276,322.236 262.999,308.55 247.018,308.017 Z M255.976,368 L196.024,368 C196.014,359.667 196.005,347.658 196,338.524 C196,332.902 200.328,328.184 205.648,328.006 C211.171,327.821 216,332.5 216,338 C216,343.523 220.477,348 226,348 C231.523,348 236,343.523 236,338.001 C236,332.461 240.854,327.829 246.351,328.006 C251.671,328.183 255.999,332.901 256,338.522 C255.995,347.659 255.986,359.667 255.976,368 Z" id="Shape"></path>
            <path d="M266,408 L186,408 C180.477,408 176,412.477 176,418 L176,438 C176,454.542 189.458,468 206,468 L246,468 C262.542,468 276,454.542 276,438 L276,418 C276,412.477 271.523,408 266,408 Z M256,438 C256,443.514 251.514,448 246,448 L206,448 C200.486,448 196,443.514 196,438 L196,428 L256,428 L256,438 Z" id="Shape"></path>
            <path d="M184.472,192.376 L131.972,147.808 C128.514,144.873 123.513,144.632 119.79,147.223 C119.79,147.223 67.334,183.713 67.222,183.791 C62.096,187.357 61.571,195.093 66.125,199.325 C66.125,199.325 122.657,251.859 122.693,251.893 C126.387,255.326 132.446,255.442 136.266,251.931 C136.266,251.931 184.626,207.492 184.766,207.363 C186.836,205.462 187.859,202.628 187.809,199.807 C187.759,197.013 186.656,194.23 184.472,192.376 Z M129.538,230.953 L88.83,193.123 L124.894,168.035 L162.898,200.297 L129.538,230.953 Z" id="Shape"></path>
            <path d="M388.963,191.325 C388.764,188.422 387.357,185.603 384.815,183.817 L332.746,147.249 C329.035,144.642 324.033,144.861 320.563,147.779 C320.563,147.779 267.673,192.255 267.563,192.347 C263.052,196.14 262.917,203.398 267.233,207.364 C267.233,207.364 315.657,251.863 315.733,251.932 C319.373,255.276 325.582,255.356 329.307,251.894 C329.307,251.894 385.778,199.416 385.875,199.326 C388.157,197.206 389.162,194.223 388.963,191.325 Z M322.463,230.953 L289.142,200.333 L327.549,168.037 L363.213,193.084 L322.463,230.953 Z" id="Shape"></path>
            <path d="M233.998,193.998 C230.081,188.779 221.906,188.794 218.002,193.998 C209.321,205.564 181,244.685 181,262.455 C181,273.93 187.011,282.149 197.926,285.597 C207.158,288.514 216.949,288.178 226.509,288.043 C235.714,287.914 245.179,288.407 254.074,285.597 C264.989,282.149 271,273.93 271,262.455 C271,244.686 242.68,205.566 233.998,193.998 Z M248.049,266.525 C240.595,268.879 232.566,268.065 224.878,268.001 C218.072,267.944 210.539,268.606 203.95,266.525 C201.445,265.734 200.999,265.36 200.999,262.454 C201,256.246 212.836,235.955 226,217.072 C239.164,235.954 251,256.245 251,262.454 C251,265.361 250.554,265.734 248.049,266.525 Z" id="Shape"></path>
            <circle id="Oval" cx="202" cy="90" r="10"></circle>
            <circle id="Oval" cx="250" cy="90" r="10"></circle>
        </g>
    </g>
</svg>