<?xml version="1.0" encoding="UTF-8"?>
<svg width="512px" height="498px" viewBox="0 0 512 498" version="1.1" xmlns="http://www.w3.org/2000/svg" xmlns:xlink="http://www.w3.org/1999/xlink">
    <!-- Generator: Sketch 53 (72520) - https://sketchapp.com -->
    <title>borobudur</title>
    <desc>Created with Sketch.</desc>
    <g id="Page-1" stroke="none" stroke-width="1" fill="none" fill-rule="evenodd">
        <g id="borobudur" fill="#404348" fill-rule="nonzero">
            <path d="M502,444.769531 L486.824219,444.769531 L486.824219,403.269531 C486.824219,397.746094 482.347656,393.269531 476.824219,393.269531 L444.53125,393.269531 L444.53125,371.175781 C444.53125,365.652344 440.054688,361.175781 434.53125,361.175781 L417.179688,361.175781 L417.179688,256.050781 L417.671875,256.050781 C423.195312,256.050781 427.671875,251.574219 427.671875,246.050781 L427.671875,231.097656 C427.671875,198.957031 401.523438,172.808594 369.378906,172.808594 L347.949219,172.808594 L347.949219,140.941406 C347.949219,135.417969 343.472656,130.941406 337.949219,130.941406 L318.445312,130.941406 L292.507812,7.9375 C291.53125,3.3125 287.449219,-2.84217094e-14 282.722656,-2.84217094e-14 L226.601562,-2.84217094e-14 C221.800781,-2.84217094e-14 217.679688,3.410156 216.78125,8.128906 L193.386719,130.941406 L174.050781,130.941406 C168.527344,130.941406 164.050781,135.417969 164.050781,140.941406 L164.050781,172.808594 L142.617188,172.808594 C110.476562,172.808594 84.324219,198.957031 84.324219,231.097656 L84.324219,246.050781 C84.324219,251.574219 88.804688,256.050781 94.324219,256.050781 L94.816406,256.050781 L94.816406,361.175781 L77.46875,361.175781 C71.945312,361.175781 67.46875,365.652344 67.46875,371.175781 L67.46875,393.269531 L35.175781,393.269531 C29.652344,393.269531 25.175781,397.746094 25.175781,403.269531 L25.175781,444.769531 L10,444.769531 C4.476562,444.769531 0,449.246094 0,454.769531 L0,487.757812 C0,493.28125 4.476562,497.757812 10,497.757812 L502,497.757812 C507.523438,497.757812 512,493.28125 512,487.757812 L512,454.769531 C512,449.246094 507.523438,444.769531 502,444.769531 L502,444.769531 Z M265.792969,361.175781 L265.792969,339.464844 L342.21875,339.464844 L342.21875,361.175781 L265.792969,361.175781 Z M169.363281,361.175781 L169.363281,339.464844 L245.792969,339.464844 L245.792969,361.175781 L169.363281,361.175781 Z M114.820312,297.757812 L197.507812,297.757812 L197.507812,319.464844 L114.820312,319.464844 L114.820312,297.757812 Z M245.792969,256.050781 L245.792969,277.757812 L169.363281,277.757812 L169.363281,256.050781 L245.792969,256.050781 Z M342.21875,256.050781 L342.21875,277.757812 L265.792969,277.757812 L265.792969,256.050781 L342.21875,256.050781 Z M397.183594,319.464844 L311.921875,319.464844 L311.921875,297.757812 L397.183594,297.757812 L397.183594,319.464844 Z M217.507812,319.464844 L217.507812,297.757812 L291.921875,297.757812 L291.921875,319.464844 L217.507812,319.464844 Z M362.21875,339.464844 L397.179688,339.464844 L397.179688,361.175781 L362.21875,361.175781 L362.21875,339.464844 Z M397.183594,277.757812 L362.21875,277.757812 L362.21875,256.050781 L397.179688,256.050781 L397.179688,277.757812 L397.183594,277.757812 Z M327.949219,172.808594 L266,172.808594 L266,150.941406 L327.949219,150.941406 L327.949219,172.808594 Z M234.878906,20 L274.609375,20 L298.007812,130.941406 L213.746094,130.941406 L234.878906,20 Z M184.050781,150.941406 L246,150.941406 L246,172.808594 L184.050781,172.808594 L184.050781,150.941406 Z M104.328125,231.097656 C104.328125,209.984375 121.503906,192.808594 142.617188,192.808594 L369.382812,192.808594 C390.496094,192.808594 407.671875,209.984375 407.671875,231.097656 L407.671875,236.050781 L104.328125,236.050781 L104.328125,231.097656 Z M149.363281,256.050781 L149.363281,277.757812 L114.820312,277.757812 L114.820312,256.050781 L149.363281,256.050781 Z M114.820312,339.464844 L149.363281,339.464844 L149.363281,361.175781 L114.820312,361.175781 L114.820312,339.464844 Z M87.46875,381.175781 L424.535156,381.175781 L424.535156,393.269531 L87.46875,393.269531 L87.46875,381.175781 Z M492,477.757812 L20,477.757812 L20,464.769531 L367.007812,464.769531 C372.527344,464.769531 377.007812,460.292969 377.007812,454.769531 C377.007812,449.246094 372.527344,444.769531 367.007812,444.769531 L45.175781,444.769531 L45.175781,413.269531 L466.824219,413.269531 L466.824219,444.769531 L447.917969,444.769531 C442.394531,444.769531 437.917969,449.246094 437.917969,454.769531 C437.917969,460.292969 442.394531,464.769531 447.917969,464.769531 L492,464.769531 L492,477.757812 Z" id="Shape"></path>
            <path d="M417.691406,450.949219 C416.019531,447.03125 412.019531,444.492188 407.738281,444.800781 C403.585938,445.101562 399.992188,448.027344 398.839844,452.027344 C397.6875,456.035156 399.242188,460.46875 402.628906,462.902344 C405.964844,465.296875 410.582031,465.359375 414,463.089844 C417.917969,460.484375 419.496094,455.289062 417.691406,450.949219 Z" id="Path"></path>
        </g>
    </g>
</svg>