<?xml version="1.0" encoding="UTF-8"?>
<svg width="512px" height="512px" viewBox="0 0 512 512" version="1.1" xmlns="http://www.w3.org/2000/svg" xmlns:xlink="http://www.w3.org/1999/xlink">
    <!-- Generator: Sketch 53 (72520) - https://sketchapp.com -->
    <title>cigar</title>
    <desc>Created with Sketch.</desc>
    <g id="Page-1" stroke="none" stroke-width="1" fill="none" fill-rule="evenodd">
        <g id="cigar" fill="#404348" fill-rule="nonzero">
            <path d="M482.28125,368 L455.984375,368 C454.160156,365.574219 451.269531,364 448,364 L74,364 C52.664062,364 32.363281,373.214844 18.300781,389.28125 C14.664062,393.433594 15.082031,399.753906 19.238281,403.390625 C21.136719,405.050781 23.484375,405.867188 25.820312,405.867188 C28.601562,405.867188 31.371094,404.710938 33.347656,402.453125 C43.613281,390.726562 58.429688,384 74,384 L162.570312,384 C157.972656,437.984375 116.539062,482.742188 62.359375,490.726562 C51.207031,488.261719 41.007812,482.296875 33.34375,473.542969 C29.707031,469.386719 23.390625,468.964844 19.234375,472.601562 C15.078125,476.242188 14.65625,482.558594 18.296875,486.714844 C29.074219,499.03125 43.527344,507.304688 59.296875,510.503906 C59.839844,510.65625 60.402344,510.761719 60.976562,510.820312 C65.246094,511.585938 69.597656,512 74,512 L448,512 C451.269531,512 454.160156,510.425781 455.984375,508 L482.28125,508 C498.667969,508 512,494.667969 512,478.28125 L512,397.71875 C512,381.332031 498.667969,368 482.28125,368 Z M390.46875,449.019531 C391.191406,453.339844 394.632812,456.683594 398.96875,457.28125 L438,462.65625 L438,492 L317.492188,492 C354.652344,469.402344 380.34375,429.753906 383.636719,384 L438,384 L438,417.15625 L395.824219,438.449219 C391.921875,440.421875 389.75,444.703125 390.46875,449.019531 L390.46875,449.019531 Z M275,488.390625 L275,437.511719 C294.492188,425.894531 307.355469,406.316406 310.335938,384 L363.570312,384 C359.304688,434.609375 322.964844,476.226562 275,488.390625 Z M148.496094,465.28125 C161.125,450.972656 170.53125,434.34375 176.304688,416.480469 C182.191406,424.878906 189.867188,432.070312 199,437.511719 L199,492 L116.5625,492 C128.390625,484.816406 139.179688,475.839844 148.496094,465.28125 Z M213.382812,422.570312 C197.703125,414.929688 186.992188,400.65625 183.914062,384 L290.085938,384 C287.007812,400.65625 276.296875,414.929688 260.617188,422.570312 C257.179688,424.246094 255,427.734375 255,431.558594 L255,491.660156 C252.027344,491.882812 249.027344,492 246,492 L219,492 L219,431.558594 C219,427.734375 216.816406,424.246094 213.382812,422.570312 L213.382812,422.570312 Z M492,478.28125 C492,483.640625 487.640625,488 482.28125,488 L458,488 L458,453.9375 C458,448.941406 454.3125,444.710938 449.363281,444.03125 L433.480469,441.84375 L452.507812,432.238281 C455.875,430.539062 458,427.085938 458,423.3125 L458,388 L482.28125,388 C487.640625,388 492,392.359375 492,397.71875 L492,478.28125 Z" id="Shape"></path>
            <path d="M295.851562,150.414062 C307.117188,150.414062 316.28125,159.578125 316.28125,170.84375 L316.28125,196.925781 C316.28125,219.21875 334.417969,237.355469 356.710938,237.355469 L380.128906,237.355469 C412.039062,237.355469 438,263.316406 438,295.226562 L438,313.667969 C438,319.191406 442.480469,323.667969 448,323.667969 C453.523438,323.667969 458,319.191406 458,313.667969 L458,295.226562 C458,252.289062 423.066406,217.355469 380.128906,217.355469 L356.710938,217.355469 C345.445312,217.355469 336.28125,208.191406 336.28125,196.925781 L336.28125,170.84375 C336.28125,148.550781 318.144531,130.414062 295.851562,130.414062 C265.410156,130.414062 240.644531,105.648438 240.644531,75.207031 C240.644531,44.765625 265.410156,20 295.851562,20 L308.890625,20 C314.414062,20 318.890625,15.523438 318.890625,10 C318.890625,4.476562 314.414062,0 308.890625,0 L295.851562,0 C254.378906,0 220.644531,33.738281 220.644531,75.207031 C220.644531,116.675781 254.382812,150.414062 295.851562,150.414062 L295.851562,150.414062 Z" id="Path"></path>
            <path d="M475,128.320312 C465.625,128.320312 458,120.695312 458,111.320312 L458,91 C458,70.597656 441.402344,54 421,54 L359.679688,54 C354.15625,54 349.679688,58.476562 349.679688,64 C349.679688,69.523438 354.15625,74 359.679688,74 L421,74 C430.375,74 438,81.625 438,91 L438,111.320312 C438,131.722656 454.597656,148.320312 475,148.320312 C484.375,148.320312 492,155.949219 492,165.320312 L492,264 C492,269.523438 496.476562,274 502,274 C507.523438,274 512,269.523438 512,264 L512,165.320312 C512,144.917969 495.402344,128.320312 475,128.320312 Z" id="Path"></path>
            <path d="M20,438 C20,435.371094 18.929688,432.789062 17.070312,430.929688 C15.210938,429.070312 12.640625,428 10,428 C7.371094,428 4.789062,429.070312 2.929688,430.929688 C1.070312,432.789062 0,435.371094 0,438 C0,440.628906 1.070312,443.210938 2.929688,445.070312 C4.789062,446.929688 7.371094,448 10,448 C12.628906,448 15.210938,446.929688 17.070312,445.070312 C18.929688,443.210938 20,440.628906 20,438 Z" id="Path"></path>
        </g>
    </g>
</svg>