<?xml version="1.0" encoding="UTF-8"?>
<svg width="621px" height="545px" viewBox="0 0 621 545" version="1.1" xmlns="http://www.w3.org/2000/svg" xmlns:xlink="http://www.w3.org/1999/xlink">
    <!-- Generator: Sketch 53 (72520) - https://sketchapp.com -->
    <title>ship</title>
    <desc>Created with Sketch.</desc>
    <g id="Page-1" stroke="none" stroke-width="1" fill="none" fill-rule="evenodd">
        <g id="ship" transform="translate(310.500000, 272.500000) scale(-1, 1) translate(-310.500000, -272.500000) " fill="#404348" fill-rule="nonzero">
            <path d="M426.311111,218 C426.311111,224.689497 420.889497,230.111111 414.2,230.111111 C407.510503,230.111111 402.088889,224.689497 402.088889,218 C402.088889,211.310503 407.510503,205.888889 414.2,205.888889 C420.889497,205.888889 426.311111,211.310503 426.311111,218 Z" id="Path"></path>
            <path d="M273.711111,169.555556 C273.711111,176.245053 268.289497,181.666667 261.6,181.666667 C254.910503,181.666667 249.488889,176.245053 249.488889,169.555556 C249.488889,162.866058 254.910503,157.444444 261.6,157.444444 C268.289497,157.444444 273.711111,162.866058 273.711111,169.555556 Z" id="Path"></path>
            <path d="M607.977778,472.333333 C596.675651,472.333333 586.291319,467.082031 575.291971,461.523221 C569.690582,458.69414 563.748568,455.699479 557.352387,453.253603 C579.74375,428.917839 592.233333,397.239714 592.233333,363.333333 C592.233333,356.643836 586.811719,351.222222 580.122222,351.222222 L540.155556,351.222222 L540.155556,290.666667 C540.155556,283.97717 534.733942,278.555556 528.044444,278.555556 L164.711111,278.555556 C158.021614,278.555556 152.6,283.97717 152.6,290.666667 L152.6,337.152517 C104.931424,329.086328 59.0180125,317.755817 15.9384112,303.397526 C12.248307,302.167492 8.18919301,302.787239 5.02894996,305.062804 C1.8734375,307.338368 1.07568275e-15,310.995356 1.07568275e-15,314.888889 C1.07568275e-15,331.730903 2.30394996,348.416797 6.85507782,364.473481 C8.67647509,370.912239 15.3707028,374.654383 21.8094612,372.828256 C28.243489,371.006858 31.9809028,364.312631 30.1595055,357.873872 C27.7467445,349.358247 26.0625431,340.634461 25.1210944,331.797136 C116.195703,360.087933 216.088715,374.607075 309.576085,375.401867 C309.732205,375.406597 309.888325,375.425521 310.044444,375.425521 C317.93086,375.425521 371.891536,375.434983 567.353515,375.444444 C564.231119,404.090061 550.047874,430.015408 527.292231,448.286154 C512.167535,449.360069 499.417751,455.784636 488.063585,461.523221 C477.064236,467.082031 466.679904,472.333333 455.377778,472.333333 C444.283811,472.333333 435.280903,467.408464 424.853993,461.707725 C413.201779,455.3352 399.993099,448.111111 382.711111,448.111111 C365.429124,448.111111 352.220443,455.3352 340.568229,461.707725 C330.141319,467.408464 321.138411,472.333333 310.044444,472.333333 C298.950478,472.333333 289.947569,467.408464 279.52066,461.707725 C267.868446,455.3352 254.659765,448.111111 237.377778,448.111111 C220.09579,448.111111 206.88711,455.3352 195.234896,461.707725 C184.807986,467.408464 175.805078,472.333333 164.711111,472.333333 C153.224479,472.333333 141.889236,467.011068 129.891667,461.371832 C120.78941,457.095096 111.389106,452.704818 101.123047,450.197439 C92.7777347,445.215799 84.8487416,439.439367 77.5442277,432.991146 C72.5294708,428.567751 64.8748695,429.045572 60.4514751,434.06033 C56.0280819,439.075086 56.5011722,446.729688 61.5206597,451.153082 C61.8944013,451.484244 62.2823348,451.810678 62.660807,452.13711 C55.3137153,454.786415 48.7566834,458.358247 42.6348958,461.707725 C32.2079861,467.408464 23.2050778,472.333333 12.1111111,472.333333 C5.42161398,472.333333 0,477.754947 0,484.444444 C0,491.133942 5.42161398,496.555556 12.1111111,496.555556 C29.3930987,496.555556 42.6017792,489.331467 54.2539931,482.958942 C64.6809028,477.258203 73.6838111,472.333333 84.7777778,472.333333 C96.5388027,472.333333 108.716146,478.18546 119.592492,483.294835 C133.468229,489.814019 147.817057,496.555556 164.711111,496.555556 C181.993099,496.555556 195.201779,489.331467 206.853993,482.958942 C217.280903,477.258203 226.283811,472.333333 237.377778,472.333333 C248.471744,472.333333 257.474653,477.258203 267.901562,482.958942 C279.553776,489.331467 292.762457,496.555556 310.044444,496.555556 C327.326432,496.555556 340.535113,489.331467 352.187326,482.958942 C362.614236,477.258203 371.617144,472.333333 382.711111,472.333333 C393.805078,472.333333 402.807986,477.258203 413.234896,482.958942 C424.88711,489.331467 438.09579,496.555556 455.377778,496.555556 C472.451606,496.555556 486.549696,489.430817 498.991971,483.143446 C509.986589,477.584636 520.37092,472.338064 531.668317,472.333333 L531.687239,472.333333 L531.701432,472.333333 C542.994097,472.342795 553.373697,477.589367 564.363585,483.143446 C576.80586,489.430817 590.90395,496.555556 607.977778,496.555556 C614.667275,496.555556 620.088889,491.133942 620.088889,484.444444 C620.088889,477.754947 614.667275,472.333333 607.977778,472.333333 L607.977778,472.333333 Z M515.933333,351.222222 L467.488889,351.222222 L467.488889,302.777778 L515.933333,302.777778 L515.933333,351.222222 Z M249.488889,302.777778 L297.933333,302.777778 L297.933333,350.995139 C281.867188,350.659244 265.654383,349.911762 249.488889,348.757422 L249.488889,302.777778 Z M322.155556,302.777778 L370.6,302.777778 L370.6,351.222222 L322.155556,351.222222 L322.155556,302.777778 Z M394.822222,302.777778 L443.266667,302.777778 L443.266667,351.222222 L394.822222,351.222222 L394.822222,302.777778 Z M225.266667,302.777778 L225.266667,346.742057 C209.096442,345.209244 192.883637,343.274306 176.822222,340.956164 L176.822222,302.777778 L225.266667,302.777778 Z" id="Shape"></path>
            <path d="M607.977778,520.777778 C596.675651,520.777778 586.291319,515.526475 575.291971,509.967665 C562.849696,503.680295 548.751606,496.555556 531.677778,496.555556 C514.60395,496.555556 500.50586,503.680295 488.063585,509.967665 C477.064236,515.526475 466.679904,520.777778 455.377778,520.777778 C444.283811,520.777778 435.280903,515.852908 424.853993,510.15217 C413.201779,503.779644 399.993099,496.555556 382.711111,496.555556 C365.429124,496.555556 352.220443,503.779644 340.568229,510.15217 C330.141319,515.852908 321.138411,520.777778 310.044444,520.777778 C298.950478,520.777778 289.947569,515.852908 279.52066,510.15217 C267.868446,503.779644 254.659765,496.555556 237.377778,496.555556 C220.09579,496.555556 206.88711,503.779644 195.234896,510.15217 C184.807986,515.852908 175.805078,520.777778 164.711111,520.777778 C153.22921,520.777778 141.893967,515.455512 129.896397,509.816276 C116.02066,503.297092 101.6671,496.555556 84.7777778,496.555556 C67.4957902,496.555556 54.2871097,503.779644 42.6348958,510.15217 C32.2079861,515.852908 23.2050778,520.777778 12.1111111,520.777778 C5.42161398,520.777778 0,526.199392 0,532.888889 C0,539.578386 5.42161398,545 12.1111111,545 C29.3930987,545 42.6017792,537.775911 54.2539931,531.403386 C64.6809028,525.702647 73.6838111,520.777778 84.7777778,520.777778 C96.2596791,520.777778 107.594922,526.100043 119.592492,531.739279 C133.468229,538.258464 147.821789,545 164.711111,545 C181.993099,545 195.201779,537.775911 206.853993,531.403386 C217.280903,525.702647 226.283811,520.777778 237.377778,520.777778 C248.471744,520.777778 257.474653,525.702647 267.901562,531.403386 C279.553776,537.775911 292.762457,545 310.044444,545 C327.326432,545 340.535113,537.775911 352.187326,531.403386 C362.614236,525.702647 371.617144,520.777778 382.711111,520.777778 C393.805078,520.777778 402.807986,525.702647 413.234896,531.403386 C424.88711,537.775911 438.09579,545 455.377778,545 C472.451606,545 486.549696,537.875261 498.991971,531.58789 C509.991319,526.02908 520.375651,520.777778 531.677778,520.777778 C542.979904,520.777778 553.364236,526.02908 564.363585,531.58789 C576.80586,537.875261 590.90395,545 607.977778,545 C614.667275,545 620.088889,539.578386 620.088889,532.888889 C620.088889,526.199392 614.667275,520.777778 607.977778,520.777778 Z" id="Path"></path>
            <path d="M583.755556,109 L574.03355,109 C561.156033,86.6937931 537.24605,72.6666667 511.088889,72.6666667 C484.931728,72.6666667 461.021744,86.6937931 448.144228,109 L438.422222,109 C418.386849,109 402.088889,125.29796 402.088889,145.333333 C402.088889,149.581683 402.82691,153.654992 404.170486,157.444444 L310.044444,157.444444 C303.354947,157.444444 297.933333,162.866058 297.933333,169.555556 C297.933333,176.245053 303.354947,181.666667 310.044444,181.666667 L583.755556,181.666667 C603.790929,181.666667 620.088889,165.368707 620.088889,145.333333 C620.088889,125.29796 603.790929,109 583.755556,109 Z M583.755556,157.444444 L438.422222,157.444444 C431.742188,157.444444 426.311111,152.013368 426.311111,145.333333 C426.311111,138.653299 431.742188,133.222222 438.422222,133.222222 L455.571744,133.222222 C460.383072,133.222222 464.740235,130.369488 466.670443,125.960286 C474.386545,108.299826 491.824653,96.8888889 511.088889,96.8888889 C530.353125,96.8888889 547.791233,108.299826 555.507335,125.960286 C557.437543,130.374219 561.794705,133.222222 566.606033,133.222222 L583.755556,133.222222 C590.43559,133.222222 595.866667,138.653299 595.866667,145.333333 C595.866667,152.013368 590.43559,157.444444 583.755556,157.444444 Z" id="Shape"></path>
            <path d="M535.311111,230.111111 C542.000608,230.111111 547.422222,224.689497 547.422222,218 C547.422222,211.310503 542.000608,205.888889 535.311111,205.888889 L462.644444,205.888889 C455.954947,205.888889 450.533333,211.310503 450.533333,218 C450.533333,224.689497 455.954947,230.111111 462.644444,230.111111 L535.311111,230.111111 Z" id="Path"></path>
            <path d="M0,96.8888889 C0,103.578386 5.42161398,109 12.1111111,109 L230.111111,109 C250.146485,109 266.444444,92.7020402 266.444444,72.6666667 C266.444444,52.6312931 250.146485,36.3333333 230.111111,36.3333333 L208.277994,36.3333333 C195.400478,14.0271264 171.490494,0 145.333333,0 C119.147786,0 95.2094181,14.0602431 82.3413625,36.4137584 C63.4414056,37.6721791 48.4444444,53.4544708 48.4444444,72.6666667 C48.4444444,76.9150168 49.1824653,80.988325 50.5260417,84.7777778 L12.1111111,84.7777778 C5.42161398,84.7777778 0,90.1993918 0,96.8888889 Z M72.6666667,72.6666667 C72.6666667,65.9866319 78.0977431,60.5555556 84.7777778,60.5555556 L89.8161889,60.5555556 C94.6275168,60.5555556 98.9846791,57.7028209 100.914887,53.2936195 C108.630989,35.6331597 126.069097,24.2222222 145.333333,24.2222222 C164.597569,24.2222222 182.035678,35.6331597 189.751779,53.2936195 C191.681988,57.7075527 196.03915,60.5555556 200.850478,60.5555556 L230.111111,60.5555556 C236.791146,60.5555556 242.222222,65.9866319 242.222222,72.6666667 C242.222222,79.3467014 236.791146,84.7777778 230.111111,84.7777778 L84.7777778,84.7777778 C78.0977431,84.7777778 72.6666667,79.3467014 72.6666667,72.6666667 Z" id="Shape"></path>
            <path d="M49.6555556,405.722222 C49.6555556,412.411719 44.2339416,417.833333 37.5444444,417.833333 C30.8549473,417.833333 25.4333333,412.411719 25.4333333,405.722222 C25.4333333,399.032725 30.8549473,393.611111 37.5444444,393.611111 C44.2339416,393.611111 49.6555556,399.032725 49.6555556,405.722222 Z" id="Path"></path>
        </g>
    </g>
</svg>