<?xml version="1.0" encoding="UTF-8"?>
<svg width="777px" height="512px" viewBox="0 0 777 512" version="1.1" xmlns="http://www.w3.org/2000/svg" xmlns:xlink="http://www.w3.org/1999/xlink">
    <!-- Generator: Sketch 53 (72520) - https://sketchapp.com -->
    <title>Familie</title>
    <desc>Created with Sketch.</desc>
    <g id="Page-1" stroke="none" stroke-width="1" fill="none" fill-rule="evenodd">
        <g id="Familie" transform="translate(10.000000, 0.000000)">
            <g id="Group-12" transform="translate(98.000000, 0.000000)">
                <path d="M403.137207,46.8627931 C372.917481,16.6430662 332.736816,0 290,0 C257.48291,0 226.171875,9.7094725 199.458007,28.0761719 C196.613769,30.03418 195.056786,37.8821371 198.565583,41.615358 C202.074379,45.3485788 208.696289,45.3344725 211.540527,43.376465 C236.162109,26.4477537 260.021972,19.5 290,19.5 C366.330566,19.5 430.5,83.6694337 430.5,160 C430.5,236.330566 366.330566,300.5 290,300.5 C213.669434,300.5 149.5,236.330566 149.5,160 C149.5,130.01709 156.447754,105.159668 173.374024,80.5429687 C175.32959,77.6987306 173.787171,70.2582628 170.942933,68.3026966 C168.101136,66.3471303 160.031738,66.6162112 158.073731,69.4604494 C139.707031,96.1694337 130,127.478027 130,160 C130,202.736816 146.643066,242.917481 176.862793,273.137207 C207.082519,303.356934 247.263184,320 290,320 C332.736816,320 372.917481,303.356934 403.137207,273.137207 C433.356934,242.917481 450,202.736816 450,160 C450,117.263184 433.356934,77.0825194 403.137207,46.8627931 Z" id="Path" fill="#404348" fill-rule="nonzero"></path>
                <path d="M183.996827,64 C186.558889,64 189.120951,63.023438 191.073742,61.0703129 C194.975419,57.1679688 194.975419,50.8359377 191.073742,46.9296876 C187.16816,43.0234375 180.837211,43.0234375 176.931628,46.9296876 L176.927722,46.9335936 C173.02214,50.8398437 173.026046,57.1679688 176.927722,61.0742189 C178.880514,63.027344 181.43867,64 183.996827,64 Z" id="Path" fill="#404348" fill-rule="nonzero"></path>
                <path d="M235.85176,197.213625 C232.516911,198.112615 225.630022,201.590213 227.240326,206.913989 C234.781578,235.224798 261.393518,254.997661 290.525847,254.997661 C319.658176,254.997661 345.270115,235.227254 352.811368,206.913989 C353.992573,202.659449 349.057144,198.112615 345.722295,197.213625 C342.387445,196.314635 334.782703,198.213625 333.736575,203.659449 C325.936963,224.342461 312.025847,236.421629 290.525847,236.421629 C269.025847,236.421629 257.10677,226.996887 247.315118,203.659449 C244.876298,198.213625 239.184718,196.315145 235.85176,197.213625 Z" id="Path" fill="#404348" fill-rule="nonzero"></path>
                <path d="M212.213087,154.225337 C211.326076,157.51805 213.289131,161.904841 216.599665,162.787723 C219.912622,163.670604 225.312826,162.714274 226.197412,159.42156 C228.111996,152.315089 232.609464,148.35069 239.998788,148.35069 C247.390536,148.35069 250.888004,151.315089 252.802588,158.42156 C253.544186,161.178755 257.898739,163.663676 261.791116,163 C264.87457,162.47425 269.13565,159.42156 267.786913,154.225337 C264.423062,141.7275 252.996147,133 239.998788,133 C227.001429,133 215.576937,141.7275 212.213087,154.225337 Z" id="Path" fill="#404348" fill-rule="nonzero"></path>
                <path d="M312.213087,154.225337 C311.326076,157.51805 313.289131,161.904841 316.599665,162.787723 C319.912622,163.670604 325.312826,162.714274 326.197412,159.42156 C328.111996,152.315089 332.609464,148.35069 339.998788,148.35069 C347.390536,148.35069 350.888004,151.315089 352.802588,158.42156 C353.544186,161.178755 357.898739,163.663676 361.791116,163 C364.87457,162.47425 369.13565,159.42156 367.786913,154.225337 C364.423062,141.7275 352.996147,133 339.998788,133 C327.001429,133 315.576937,141.7275 312.213087,154.225337 Z" id="Path" fill="#404348" fill-rule="nonzero"></path>
                <path d="M186,274 C115.333333,308.065256 80,384.398589 80,503" id="Line-2" stroke="#404348" stroke-width="18" stroke-linecap="round"></path>
                <path d="M499,274 C428.333333,308.065256 393,384.398589 393,503" id="Line-2" stroke="#404348" stroke-width="18" stroke-linecap="round" transform="translate(446.000000, 388.500000) scale(-1, 1) translate(-446.000000, -388.500000) "></path>
                <g id="happy" transform="translate(40.059642, 101.000000)"></g>
                <path d="M140.445479,103.040382 C124.466935,106.558701 109.387788,113.089724 95.7089006,122.494428 C93.4301174,124.06317 92.1826735,130.350897 94.9938962,133.341927 C97.8051189,136.332957 103.110545,136.321655 105.389329,134.752913 C115.211941,127.999319 124.798277,123.259056 134.998779,120.170837 C137.594041,119.385118 131.544559,139.209385 134.998779,171.955312 C136.732331,188.389348 144.227334,207.790531 149.636648,230.052494 C152.109167,240.228115 161.303951,253.363994 177.221001,269.460133 C137.940006,309.040656 116.66213,327.896504 113.387374,326.027678 C79.1591378,306.494431 55.6829026,269.615711 55.6829026,228.190855 C55.6829026,204.168762 61.2493932,184.253173 74.8105995,164.53045 C76.3773852,162.251667 75.1416102,156.290417 72.862827,154.723632 C70.5859997,153.156846 64.1208558,153.372432 62.5521142,155.651215 C47.8368461,177.050262 40.0596421,202.134483 40.0596421,228.190855 C40.0596421,262.431286 53.3939477,294.623747 77.6057766,318.835575 C86.0083924,327.238191 94.9538145,334.110733 105.030842,339.790463 C107.360224,341.103376 117.313943,343.591 119.764033,338 C123.309377,329.909678 147.407913,307.063056 192.059642,269.460133 C173.55071,252.956399 162.921563,239.82052 160.1722,230.052494 C154.565632,210.133292 146.394115,189.883019 145.137037,171.955312 C143.159925,143.758885 150.218006,120.594192 149.636648,108.049655 C149.110424,96.694812 141.550207,102.797131 140.445479,103.040382 Z" id="Path" fill="#404348" fill-rule="nonzero"></path>
                <path d="M83.3215133,151.276342 C85.3742191,151.276342 87.4269249,150.493927 88.9914873,148.929098 C92.117483,145.802567 92.117483,140.729389 88.9914873,137.59973 C85.8623626,134.47007 80.7900517,134.47007 77.660927,137.59973 L77.6577973,137.602859 C74.5286726,140.732519 74.5318023,145.802567 77.6577973,148.932227 C79.2223604,150.497057 81.2719365,151.276342 83.3215133,151.276342 Z" id="Path" fill="#404348" fill-rule="nonzero"></path>
                <path d="M84.9264414,319.526839 C28.3088138,346.819678 0,407.977398 0,503" id="Line-2" stroke="#404348" stroke-width="18" stroke-linecap="round"></path>
                <g id="Group-2" transform="translate(437.000000, 100.000000)">
                    <g id="happy" transform="translate(0.059642, 0.000000)" fill="#404348" fill-rule="nonzero">
                        <path d="M64.8355753,35.5461345 C47.2530938,17.9636526 25.4619657,6.11751478 1.73418573,0.948579611 C-1.40610258,10.6297122 0.55963707,16.6070442 7.63140469,18.8805758 C52.9887279,33.4626874 86.7584493,76.6268204 86.7584493,126.190855 C86.7584493,168.09947 62.6149183,205.432499 27.7373693,224.780432 C11.7195574,233.666134 17.3951936,248.807869 36.1575165,238.411192 C46.5401915,232.65789 56.210303,225.460848 64.8355753,216.835575 C89.0474042,192.623747 102.38171,160.431286 102.38171,126.190855 C102.38171,91.9504236 89.0474042,59.7579628 64.8355753,35.5461345 Z" id="Path"></path>
                    </g>
                    <path d="M141.699801,217.526839 C85.0821736,244.819678 56.7733598,305.977398 56.7733598,401" id="Line-2" stroke="#404348" stroke-width="18" stroke-linecap="round" transform="translate(99.236581, 309.263419) scale(-1, 1) translate(-99.236581, -309.263419) "></path>
                </g>
                <path d="M398,421 C392.49,421 388,425.48 388,431.001 C388,436.511 392.49,441.002 398,441.002 C403.51,441.002 408,436.512 408,431.001 C408,425.48 403.51,421 398,421 Z" id="Path" fill="#404348" fill-rule="nonzero"></path>
                <path d="M231,338.715235 L289.455008,384.715235" id="Line-5" stroke="#404348" stroke-width="18" stroke-linecap="round"></path>
                <path d="M291,338.715235 L349.455008,384.715235" id="Line-5" stroke="#404348" stroke-width="18" stroke-linecap="round" transform="translate(320.000000, 361.500000) scale(-1, 1) translate(-320.000000, -361.500000) "></path>
                <path d="M186,429.994765 L186,493" id="Line-6" stroke="#404348" stroke-width="18" stroke-linecap="round"></path>
                <path d="M398,461.497383 L398,493" id="Line-6" stroke="#404348" stroke-width="18" stroke-linecap="round"></path>
            </g>
            <path d="M0.5,502 L757,502" id="Line-3" stroke="#404348" stroke-width="20" stroke-linecap="round"></path>
        </g>
    </g>
</svg>