<?xml version="1.0" encoding="UTF-8"?>
<svg width="912px" height="512px" viewBox="0 0 912 512" version="1.1" xmlns="http://www.w3.org/2000/svg" xmlns:xlink="http://www.w3.org/1999/xlink">
    <!-- Generator: Sketch 53 (72520) - https://sketchapp.com -->
    <title>Friends</title>
    <desc>Created with Sketch.</desc>
    <g id="Page-1" stroke="none" stroke-width="1" fill="none" fill-rule="evenodd">
        <g id="Friends" transform="translate(10.000000, 0.000000)">
            <g id="Group-13" transform="translate(160.000000, 101.186361)">
                <path d="M140.445479,1.85402065 C124.466935,5.37233993 109.387788,11.9033635 95.7089006,21.308067 C93.4301174,22.8768091 92.1826735,29.1645362 94.9938962,32.155566 C97.8051189,35.1465959 103.110545,35.135294 105.389329,33.5665524 C115.211941,26.8129584 124.798277,22.0726955 134.998779,18.9844765 C137.594041,18.1987566 131.544559,38.0230244 134.998779,70.7689509 C136.732331,87.2029868 144.227334,106.60417 149.636648,128.866133 C152.109167,139.041754 161.303951,152.177633 177.221001,168.273772 C137.940006,207.854295 116.66213,226.710143 113.387374,224.841317 C79.1591378,205.30807 55.6829026,168.42935 55.6829026,127.004494 C55.6829026,102.982401 61.2493932,83.0668125 74.8105995,63.3440892 C76.3773852,61.065306 75.1416102,55.1040564 72.862827,53.5372707 C70.5859997,51.970485 64.1208558,52.1860707 62.5521142,54.464854 C47.8368461,75.8639011 40.0596421,100.948122 40.0596421,127.004494 C40.0596421,161.244925 53.3939477,193.437386 77.6057766,217.649214 C86.0083924,226.05183 94.9538145,232.924372 105.030842,238.604102 C107.360224,239.917015 117.313943,242.404639 119.764033,236.813639 C123.309377,228.723318 147.407913,205.876695 192.059642,168.273772 C173.55071,151.770039 162.921563,138.634159 160.1722,128.866133 C154.565632,108.946931 146.394115,88.6966578 145.137037,70.7689509 C143.159925,42.5725237 150.218006,19.4078307 149.636648,6.86329365 C149.110424,-4.49154893 141.550207,1.61077029 140.445479,1.85402065 Z" id="Path" fill="#404348" fill-rule="nonzero"></path>
                <path d="M83.3215133,50.089981 C85.3742191,50.089981 87.4269249,49.3075665 88.9914873,47.7427367 C92.117483,44.6162065 92.117483,39.5430285 88.9914873,36.4133689 C85.8623626,33.2837093 80.7900517,33.2837093 77.660927,36.4133689 L77.6577973,36.4164983 C74.5286726,39.546158 74.5318023,44.6162065 77.6577973,47.7458662 C79.2223604,49.310696 81.2719365,50.089981 83.3215133,50.089981 Z" id="Path" fill="#404348" fill-rule="nonzero"></path>
                <path d="M84.9264414,218.340478 C28.3088138,245.633317 -4.26325641e-14,306.791037 -4.26325641e-14,401.813639" id="Line-2" stroke="#404348" stroke-width="18" stroke-linecap="round"></path>
            </g>
            <g id="Group-2" transform="translate(597.000000, 100.000000)">
                <g id="happy" transform="translate(0.059642, 0.000000)" fill="#404348" fill-rule="nonzero">
                    <path d="M64.8355753,35.5461345 C47.2530938,17.9636526 25.4619657,6.11751478 1.73418573,0.948579611 C-1.40610258,10.6297122 0.55963707,16.6070442 7.63140469,18.8805758 C52.9887279,33.4626874 86.7584493,76.6268204 86.7584493,126.190855 C86.7584493,168.09947 62.6149183,205.432499 27.7373693,224.780432 C11.7195574,233.666134 17.3951936,248.807869 36.1575165,238.411192 C46.5401915,232.65789 56.210303,225.460848 64.8355753,216.835575 C89.0474042,192.623747 102.38171,160.431286 102.38171,126.190855 C102.38171,91.9504236 89.0474042,59.7579628 64.8355753,35.5461345 Z" id="Path"></path>
                </g>
                <path d="M141.699801,217.526839 C85.0821736,244.819678 56.7733598,305.977398 56.7733598,401" id="Line-2" stroke="#404348" stroke-width="18" stroke-linecap="round" transform="translate(99.236581, 309.263419) scale(-1, 1) translate(-99.236581, -309.263419) "></path>
            </g>
            <g id="Group-6" transform="translate(694.000000, 196.000000)">
                <g id="Group-2" transform="translate(0.699801, 0.000000)">
                    <g id="happy" transform="translate(0.300199, 0.000000)" fill="#404348" fill-rule="nonzero">
                        <path d="M65.7358779,28.4105683 C48.3059245,10.890304 25.3817732,0.897378188 0.869268337,0.0576259292 C-0.250629918,0.0192603237 1.45036116,13.8904023 3.39735041,14.0252538 C46.6319021,17.0197467 80.2390625,52.7187209 80.2390625,97 C80.2390625,133.132229 57.8631373,163.550288 26.1390176,175.149079 C17.2333015,178.405136 21.2460009,191.79805 32.1590255,187.583676 C44.6066013,182.77669 56.0241023,175.351527 65.7358779,165.589432 C83.9621507,147.268723 94,122.909195 94,97 C94,71.0908051 83.9621507,46.7312774 65.7358779,28.4105683 Z" id="Path"></path>
                    </g>
                    <path d="M124.300199,166 C81.6335321,186.528407 60.3001988,232.528407 60.3001988,304" id="Line-2" stroke="#404348" stroke-width="18" stroke-linecap="round" transform="translate(92.300199, 235.000000) scale(-1, 1) translate(-92.300199, -235.000000) "></path>
                </g>
            </g>
            <g id="Group-6" transform="translate(82.000000, 196.000000)">
                <g id="Group-2" transform="translate(0.699801, 0.000000)">
                    <g id="happy" transform="translate(31.300199, 0.000000)" fill="#404348" fill-rule="nonzero">
                        <path d="M90.0627334,0.212460229 C72.7706181,1.35728194 56.2328909,7.11014169 41.8918608,17.0211792 C38.6,19.7459035 39.7756179,24.4117348 41.8918608,26.675 C44.0081037,28.9382652 48.0859554,29.5 51.1791306,28.2969819 C63.3852002,19.8611444 73.9296321,15.513478 87.3381171,14.2327824 C87.7874161,14.1898681 88.4632207,16.3532387 88.4632207,34.2375 C88.4632207,42.0952267 90.4259255,63.6320927 100.764323,85.3723958 C104.329965,92.8704774 112.130747,103.729418 124.166667,117.949219 C87.1319527,156.323193 67.464725,175.043161 65.1649834,174.10912 C34.8765109,161.807457 13.7609375,132.099885 13.7609375,97 C13.7609375,78.8228608 17.9513015,65.7530488 28.1599581,50.8291748 C30.4158643,47.8612753 28.2529311,43.2959595 26.5375,42.1103974 C24.8235413,40.9248354 19.2468033,38.8 16.9319688,42.1103974 C5.85455322,58.3027192 0,77.2835542 0,97 C0,122.909195 10.0378493,147.268723 28.2641221,165.589432 C37.2101384,174.581801 47.603497,181.591235 58.9160988,186.39791 C61.1907695,187.364408 76.2474432,191.173077 79.0154397,180.213088 C81.0489572,172.161297 100.043811,151.406673 136,117.949219 C120.790116,105.367993 111.552703,93.6605274 108.28776,82.8268229 C103.761958,67.809344 98.0880972,49.3875317 97.6848958,34.2375 C97.2782583,18.9583565 102.155871,7.00014724 100.764323,3.58984375 C93.7852921,1.327969 90.2180956,0.202174497 90.0627334,0.212460229 Z" id="Path"></path>
                        <path d="M33.064101,40.8 C34.7367875,40.8 36.4094739,40.1591312 37.6843874,38.8773929 C40.2316647,36.3164795 40.2316647,32.1610841 37.6843874,29.5976075 C35.1345605,27.0341308 31.0012912,27.0341308 28.4514643,29.5976075 L28.4489139,29.6001708 C25.899087,32.1636474 25.9016373,36.3164795 28.4489139,38.8799562 C29.7238281,40.1616945 31.3939642,40.8 33.064101,40.8 Z" id="Path"></path>
                    </g>
                    <path d="M64.3001988,166 C21.6335321,186.528407 0.300198807,232.528407 0.300198807,304" id="Line-2" stroke="#404348" stroke-width="18" stroke-linecap="round"></path>
                </g>
            </g>
            <path d="M4.94940026e-13,502 L892,502" id="Line-3" stroke="#404348" stroke-width="20" stroke-linecap="round"></path>
            <g id="Group-14" transform="translate(240.000000, 0.000000)">
                <path d="M323.137207,46.8627931 C292.917481,16.6430663 252.736816,1.13686838e-13 210,1.13686838e-13 C177.48291,1.13686838e-13 146.171875,9.7094725 119.458008,28.0761719 C116.613769,30.03418 115.056786,37.8821371 118.565583,41.615358 C122.074379,45.3485788 128.696289,45.3344725 131.540527,43.376465 C156.162109,26.4477537 180.021973,19.5 210,19.5 C286.330566,19.5 350.5,83.6694337 350.5,160 C350.5,236.330566 286.330566,300.5 210,300.5 C133.669434,300.5 69.5,236.330566 69.5,160 C69.5,130.01709 76.4477537,105.159668 93.3740237,80.5429687 C95.32959,77.6987306 93.787171,70.2582628 90.9429329,68.3026966 C88.101136,66.3471303 80.0317381,66.6162113 78.0737306,69.4604494 C59.7070313,96.1694338 50,127.478028 50,160 C50,202.736816 66.6430663,242.917481 96.8627931,273.137207 C127.082519,303.356934 167.263184,320 210,320 C252.736816,320 292.917481,303.356934 323.137207,273.137207 C353.356934,242.917481 370,202.736816 370,160 C370,117.263184 353.356934,77.0825194 323.137207,46.8627931 Z" id="Path" fill="#404348" fill-rule="nonzero"></path>
                <path d="M103.996827,64 C106.558889,64 109.120951,63.023438 111.073742,61.0703129 C114.975419,57.1679688 114.975419,50.8359377 111.073742,46.9296876 C107.16816,43.0234375 100.837211,43.0234375 96.9316285,46.9296876 L96.9277221,46.9335936 C93.0221397,50.8398437 93.026046,57.1679688 96.9277221,61.0742189 C98.8805143,63.027344 101.43867,64 103.996827,64 Z" id="Path" fill="#404348" fill-rule="nonzero"></path>
                <path d="M155.85176,197.213625 C152.516911,198.112615 145.630022,201.590213 147.240326,206.913989 C154.781578,235.224798 181.393518,254.997661 210.525847,254.997661 C239.658176,254.997661 265.270115,235.227254 272.811368,206.913989 C273.992573,202.659449 269.057144,198.112615 265.722295,197.213625 C262.387445,196.314635 254.782703,198.213625 253.736575,203.659449 C245.936963,224.342461 232.025847,236.421629 210.525847,236.421629 C189.025847,236.421629 177.10677,226.996887 167.315118,203.659449 C164.876298,198.213625 159.184718,196.315145 155.85176,197.213625 Z" id="Path" fill="#404348" fill-rule="nonzero"></path>
                <path d="M132.213087,154.225337 C131.326076,157.51805 133.289131,161.904841 136.599665,162.787723 C139.912622,163.670604 145.312826,162.714274 146.197412,159.42156 C148.111996,152.315089 152.609464,148.35069 159.998788,148.35069 C167.390536,148.35069 170.888004,151.315089 172.802588,158.42156 C173.544186,161.178755 177.898739,163.663676 181.791116,163 C184.87457,162.47425 189.13565,159.42156 187.786913,154.225337 C184.423062,141.7275 172.996147,133 159.998788,133 C147.001429,133 135.576937,141.7275 132.213087,154.225337 Z" id="Path" fill="#404348" fill-rule="nonzero"></path>
                <path d="M232.213087,154.225337 C231.326076,157.51805 233.289131,161.904841 236.599665,162.787723 C239.912622,163.670604 245.312826,162.714274 246.197412,159.42156 C248.111996,152.315089 252.609464,148.35069 259.998788,148.35069 C267.390536,148.35069 270.888004,151.315089 272.802588,158.42156 C273.544186,161.178755 277.898739,163.663676 281.791116,163 C284.87457,162.47425 289.13565,159.42156 287.786913,154.225337 C284.423062,141.7275 272.996147,133 259.998788,133 C247.001429,133 235.576937,141.7275 232.213087,154.225337 Z" id="Path" fill="#404348" fill-rule="nonzero"></path>
                <path d="M106,274 C35.3333333,308.065256 0,384.398589 0,503" id="Line-2" stroke="#404348" stroke-width="18" stroke-linecap="round"></path>
                <path d="M419,274 C348.333333,308.065256 313,384.398589 313,503" id="Line-2" stroke="#404348" stroke-width="18" stroke-linecap="round" transform="translate(366.000000, 388.500000) scale(-1, 1) translate(-366.000000, -388.500000) "></path>
                <path d="M318,421 C312.49,421 308,425.48 308,431.001 C308,436.511 312.49,441.002 318,441.002 C323.51,441.002 328,436.512 328,431.001 C328,425.48 323.51,421 318,421 Z" id="Path" fill="#404348" fill-rule="nonzero"></path>
                <path d="M151,338.715235 L209.455008,384.715235" id="Line-5" stroke="#404348" stroke-width="18" stroke-linecap="round"></path>
                <path d="M211,338.715235 L269.455008,384.715235" id="Line-5" stroke="#404348" stroke-width="18" stroke-linecap="round" transform="translate(240.000000, 361.500000) scale(-1, 1) translate(-240.000000, -361.500000) "></path>
                <path d="M106,429.994765 L106,493" id="Line-6" stroke="#404348" stroke-width="18" stroke-linecap="round"></path>
                <path d="M318,461.497383 L318,493" id="Line-6" stroke="#404348" stroke-width="18" stroke-linecap="round"></path>
            </g>
        </g>
    </g>
</svg>