<?xml version="1.0" encoding="UTF-8"?>
<svg width="545px" height="545px" viewBox="0 0 545 545" version="1.1" xmlns="http://www.w3.org/2000/svg" xmlns:xlink="http://www.w3.org/1999/xlink">
    <!-- Generator: Sketch 53 (72520) - https://sketchapp.com -->
    <title>surfing</title>
    <desc>Created with Sketch.</desc>
    <g id="Page-1" stroke="none" stroke-width="1" fill="none" fill-rule="evenodd">
        <g id="surfing" fill="#404348" fill-rule="nonzero">
            <path d="M426.783333,178.14621 C393.735389,178.14621 366.85379,151.260452 366.85379,118.216667 C366.85379,85.1687243 393.735389,58.2829663 426.783333,58.2829663 C459.831276,58.2829663 486.717034,85.1687243 486.717034,118.216667 C486.717034,151.260452 459.831276,178.14621 426.783333,178.14621 L426.783333,178.14621 Z M426.783333,79.5720288 C405.477638,79.5720288 388.142853,96.906814 388.142853,118.216667 C388.142853,139.522362 405.477638,156.857147 426.783333,156.857147 C448.093186,156.857147 465.427971,139.522362 465.427971,118.216667 C465.427971,96.906814 448.093186,79.5720288 426.783333,79.5720288 L426.783333,79.5720288 Z" id="Shape"></path>
            <path d="M426.783333,38.5448461 C420.903893,38.5448461 416.138801,33.7797546 416.138801,27.9003149 L416.138801,10.6445312 C416.138801,4.76509041 420.903893,0 426.783333,0 C432.662773,0 437.427864,4.76509041 437.427864,10.6445312 L437.427864,27.9003149 C437.427864,33.7797546 432.662773,38.5448461 426.783333,38.5448461 Z" id="Path"></path>
            <path d="M426.783333,236.429176 C420.903893,236.429176 416.138801,231.664086 416.138801,225.784645 L416.138801,208.528862 C416.138801,202.649421 420.903893,197.884331 426.783333,197.884331 C432.662773,197.884331 437.427864,202.649421 437.427864,208.528862 L437.427864,225.784645 C437.427864,231.664086 432.662773,236.429176 426.783333,236.429176 Z" id="Path"></path>
            <path d="M534.355469,128.861199 L517.099685,128.861199 C511.220245,128.861199 506.455154,124.091949 506.455154,118.216667 C506.455154,112.337227 511.220245,107.572136 517.099685,107.572136 L534.355469,107.572136 C540.23491,107.572136 545,112.337227 545,118.216667 C545,124.091949 540.23491,128.861199 534.355469,128.861199 Z" id="Path"></path>
            <path d="M336.471138,128.861199 L319.215355,128.861199 C313.335914,128.861199 308.570824,124.091949 308.570824,118.216667 C308.570824,112.337227 313.335914,107.572136 319.215355,107.572136 L336.471138,107.572136 C342.350579,107.572136 347.115669,112.337227 347.115669,118.216667 C347.115669,124.091949 342.350579,128.861199 336.471138,128.861199 Z" id="Path"></path>
            <path d="M490.646362,64.9981689 C487.922859,64.9981689 485.195198,63.9586645 483.116188,61.8796534 C478.962327,57.7257922 478.962327,50.985642 483.116188,46.827622 L495.319977,34.623833 C499.477997,30.4658129 506.218147,30.4658129 510.376167,34.623833 C514.534187,38.7776952 514.534187,45.5178454 510.376167,49.6758654 L498.172378,61.8796534 C496.093369,63.9586645 493.369866,64.9981689 490.646362,64.9981689 L490.646362,64.9981689 Z" id="Path"></path>
            <path d="M350.720673,204.923859 C347.997169,204.923859 345.273667,203.884353 343.194656,201.805344 C339.036636,197.651482 339.036636,190.911331 343.194656,186.753311 L355.398445,174.549523 C359.552307,170.391503 366.292457,170.391503 370.450477,174.549523 C374.608497,178.707543 374.608497,185.447693 370.450477,189.601555 L358.246689,201.805344 C356.167678,203.884353 353.444176,204.923859 350.720673,204.923859 L350.720673,204.923859 Z" id="Path"></path>
            <path d="M502.850151,204.923859 C500.12249,204.923859 497.398987,203.884353 495.324135,201.805344 L483.120347,189.601555 C478.962327,185.447693 478.962327,178.707543 483.116188,174.549523 C487.274208,170.391503 494.014358,170.391503 498.172378,174.549523 L510.376167,186.753311 C514.534187,190.907173 514.534187,197.647324 510.376167,201.805344 C508.297157,203.884353 505.573655,204.923859 502.850151,204.923859 Z" id="Path"></path>
            <path d="M362.924462,64.9981689 C360.1968,64.9981689 357.473297,63.9586645 355.398445,61.8796534 L343.194656,49.6758654 C339.036636,45.5178454 339.036636,38.781853 343.194656,34.623833 C347.352676,30.4658129 354.088669,30.4658129 358.246689,34.623833 L370.450477,46.827622 C374.608497,50.985642 374.608497,57.7216334 370.450477,61.8796534 C368.371467,63.9586645 365.647964,64.9981689 362.924462,64.9981689 Z" id="Path"></path>
            <path d="M537.494774,381.835137 C531.868972,380.097084 527.777481,376.508713 523.037339,372.350693 C514.916725,365.223846 504.80442,356.35479 485.577736,356.35479 C466.346893,356.35479 456.238746,365.223846 448.113976,372.350693 C441.02871,378.566932 435.906029,383.061753 424.691848,383.061753 C413.481826,383.061753 408.359146,378.566932 401.273879,372.350693 C393.149109,365.223846 383.040962,356.35479 363.81012,356.35479 C344.583435,356.35479 334.475288,365.223846 326.354675,372.350693 C319.265251,378.566932 314.142571,383.061753 302.932549,383.061753 C291.722527,383.061753 286.599846,378.566932 279.51458,372.350693 C271.393967,365.223846 261.281663,356.35479 242.054978,356.35479 C234.217109,356.35479 227.896919,357.830886 222.607918,360.059585 C225.909386,343.968048 227.576752,327.814141 227.576752,311.647759 C227.576752,300.296364 226.641197,288.641433 224.799194,276.998977 C224.795037,276.994819 224.795037,276.986504 224.795037,276.982346 C221.260719,254.583092 214.271088,231.593399 204.021569,208.661919 C204.01741,208.657761 204.01741,208.649445 204.013252,208.645287 C195.006981,188.487206 183.526687,168.391494 169.888381,148.911171 C150.794753,121.647034 134.324836,105.343437 133.630447,104.661522 C129.48906,100.586663 122.844543,100.586663 118.698998,104.661522 C118.008766,105.343437 101.534691,121.647034 82.4493787,148.911171 C56.1291125,186.507988 24.7526929,245.256653 24.7526929,311.647759 C24.7526929,329.926415 27.156029,348.766404 31.9003296,367.65213 L31.9003296,367.656288 C32.0250707,368.15525 32.1581274,368.654213 32.2870252,369.153175 C27.3971936,365.053368 21.6757581,360.970192 13.7838366,358.533592 C10.5530543,357.535668 7.04368645,358.130264 4.32434082,360.138588 C1.6049952,362.142754 -2.84217094e-14,365.319481 -2.84217094e-14,368.699951 L-2.84217094e-14,534.355469 C-2.84217094e-14,540.23491 4.76509041,545 10.6445312,545 L343.818359,545 C349.6978,545 354.462891,540.23491 354.462891,534.355469 C354.462891,528.476028 349.6978,523.710938 343.818359,523.710938 L21.2890625,523.710938 L21.2890625,474.887466 C27.2766113,471.789741 31.8421168,467.789727 36.0001368,464.138984 C43.0895617,457.918586 48.2080836,453.427925 59.4222644,453.427925 C70.6364441,453.427925 75.7591248,457.918586 82.8443909,464.138984 C90.9691625,471.265831 101.077308,480.134888 120.303993,480.134888 C139.534836,480.134888 149.642982,471.265831 157.767754,464.138984 C164.85302,457.918586 169.975701,453.427925 181.185723,453.427925 C192.399902,453.427925 197.518425,457.918586 204.607849,464.138984 C212.728462,471.265831 222.840767,480.134888 242.067451,480.134888 C261.294136,480.134888 271.402283,471.265831 279.522896,464.138984 C286.612319,457.918586 291.730842,453.427925 302.940864,453.427925 C314.155044,453.427925 319.273567,457.918586 326.362991,464.138984 C334.483605,471.265831 344.595909,480.134888 363.822594,480.134888 C383.049279,480.134888 393.157424,471.265831 401.282196,464.138984 C408.367462,457.918586 413.490143,453.427925 424.700165,453.427925 C435.914345,453.427925 441.032867,457.918586 448.118134,464.138984 C456.242905,471.265831 466.351051,480.134888 485.577736,480.134888 C504.80442,480.134888 514.916725,471.265831 523.037339,464.138984 C523.261871,463.939399 523.486404,463.743972 523.70678,463.552704 L523.70678,523.710938 L450.259514,523.710938 C444.380073,523.710938 439.614983,528.476028 439.614983,534.355469 C439.614983,540.23491 444.380073,545 450.259514,545 L534.351311,545 C540.230751,545 544.995842,540.23491 544.995842,534.355469 L544.995842,392.005653 C545,387.336196 541.956329,383.211441 537.494774,381.835137 L537.494774,381.835137 Z M69.0605542,408.841477 C62.8110499,395.236435 57.7923205,381.652184 54.0792089,368.263359 L162.545319,259.793091 L190.566216,231.772194 C196.137963,246.337738 200.25856,260.820122 202.861481,275.028076 L69.0605542,408.841477 Z M99.8881152,161.119117 C110.245742,146.324883 119.871559,134.869537 126.166802,127.821693 C132.44957,134.848748 142.050438,146.274987 152.449646,161.119117 C163.809357,177.34787 173.56823,194.00074 181.518364,210.707665 L139.917373,252.312813 L48.652992,343.577195 C46.9149401,332.787133 46.0417554,322.105178 46.0417554,311.647759 C46.0417554,250.803452 75.3225329,196.204491 99.8881152,161.119117 Z M21.9626612,448.134766 C21.7339709,448.334351 21.5135961,448.52562 21.2890625,448.725205 L21.2890625,387.76863 C21.5094373,387.964058 21.7339709,388.155327 21.9585035,388.354912 C26.6736987,392.492141 32.0250707,397.186547 39.4305041,400.417328 C40.5032727,400.883026 41.6093066,401.157456 42.7153394,401.257248 C46.6987231,411.436081 51.3265991,421.639862 56.5864942,431.802063 C56.5864942,431.806221 56.5906519,431.810378 56.5906519,431.814537 C56.6156006,431.860276 56.6405492,431.910171 56.6654968,431.955909 C56.7070776,432.03907 56.7486572,432.118073 56.7902369,432.201233 C39.2600245,432.970466 29.704895,441.340561 21.9626612,448.134766 L21.9626612,448.134766 Z M143.726121,448.134766 C136.640854,454.351006 131.518174,458.845825 120.308152,458.845825 C109.093971,458.845825 103.97129,454.351006 96.8860242,448.134766 C93.110542,444.824982 88.9067846,441.136818 83.5595703,438.138885 C81.8339917,435.170059 80.5865857,432.533875 79.1728589,429.535942 C79.0980151,429.382095 79.0231702,429.219933 78.9483264,429.05777 L206.029892,301.972046 C206.196213,305.219459 206.287689,308.450242 206.287689,311.647759 C206.287689,352.30072 194.695129,393.082581 171.842651,432.912255 C158.466301,435.215797 150.420532,442.263641 143.726121,448.134766 Z M509.004021,448.134766 C501.914597,454.351006 496.796074,458.845825 485.581894,458.845825 C474.371872,458.845825 469.249192,454.351006 462.163926,448.134766 C454.039154,441.00792 443.931007,432.138862 424.704323,432.138862 C405.477638,432.138862 395.369492,441.00792 387.24472,448.134766 C380.159454,454.351006 375.036774,458.845825 363.826752,458.845825 C352.612572,458.845825 347.494049,454.351006 340.404625,448.134766 C332.284011,441.00792 322.171707,432.138862 302.945022,432.138862 C283.718337,432.138862 273.610192,441.00792 265.489578,448.134766 C258.404312,454.351006 253.281631,458.845825 242.071609,458.845825 C230.857429,458.845825 225.738906,454.351006 218.649482,448.134766 C212.836571,443.032875 206.004944,437.041168 195.539208,434.047394 C202.807427,420.338402 208.84903,406.512986 213.655701,392.604408 C215.410386,391.186523 217.044487,389.752007 218.637009,388.354912 C225.726433,382.134514 230.844956,377.643853 242.054978,377.643853 C253.269158,377.643853 258.387681,382.134514 265.472947,388.354912 C273.597717,395.481758 283.705864,404.350815 302.932549,404.350815 C322.159233,404.350815 332.271538,395.481758 340.392151,388.354912 C347.481575,382.134514 352.600098,377.643853 363.814277,377.643853 C375.024299,377.643853 380.14698,382.134514 387.232246,388.354912 C395.357018,395.481758 405.465164,404.350815 424.696007,404.350815 C443.922692,404.350815 454.030837,395.481758 462.155609,388.354912 C469.240875,382.134514 474.363556,377.643853 485.577736,377.643853 C496.791916,377.643853 501.914597,382.134514 508.999863,388.354912 C513.162041,392.005653 517.723389,396.005669 523.710938,399.103394 L523.710938,437.3946 C517.727546,440.492324 513.162041,444.488182 509.004021,448.134766 L509.004021,448.134766 Z" id="Shape"></path>
            <path d="M397.041016,545 C392.60025,545 388.537865,542.126808 387.032661,537.960472 C385.56488,533.898086 386.766548,529.203682 390.022278,526.355438 C393.465118,523.340874 398.587799,522.891808 402.508812,525.232773 C406.288452,527.490577 408.33004,532.02282 407.494277,536.351318 C406.533776,541.295204 402.088852,545 397.041016,545 L397.041016,545 Z" id="Path"></path>
        </g>
    </g>
</svg>