<?xml version="1.0" encoding="UTF-8"?>
<svg width="600px" height="480px" viewBox="0 0 600 480" version="1.1" xmlns="http://www.w3.org/2000/svg" xmlns:xlink="http://www.w3.org/1999/xlink">
    <!-- Generator: Sketch 53 (72520) - https://sketchapp.com -->
    <title>helicopter</title>
    <desc>Created with Sketch.</desc>
    <g id="Page-1" stroke="none" stroke-width="1" fill="none" fill-rule="evenodd">
        <g id="helicopter" transform="translate(-1.000000, 0.000000)" fill="#404348" fill-rule="nonzero">
            <path d="M471.804878,339.512195 L424.97561,339.512195 C418.509146,339.512195 413.268293,344.753048 413.268293,351.219512 C413.268293,357.685976 418.509146,362.926829 424.97561,362.926829 L471.804878,362.926829 C478.271342,362.926829 483.512195,357.685976 483.512195,351.219512 C483.512195,344.753048 478.271342,339.512195 471.804878,339.512195 Z" id="Path"></path>
            <path d="M588.878049,23.4146341 C595.344513,23.4146341 600.585366,18.1737811 600.585366,11.7073171 C600.585366,5.24085307 595.344513,0 588.878049,0 L167.414634,0 C160.94817,0 155.707317,5.24085307 155.707317,11.7073171 C155.707317,18.1737811 160.94817,23.4146341 167.414634,23.4146341 L366.439024,23.4146341 L366.439024,70.2439024 L343.02439,70.2439024 C336.557926,70.2439024 331.317073,75.4847555 331.317073,81.9512195 L331.317073,140.487805 C285.224085,140.487805 159.045731,140.487805 114.974085,140.487805 L94.2301826,78.2515247 C92.6341463,73.4679875 88.161586,70.2439024 83.1219512,70.2439024 L12.8780488,70.2439024 C9.27439024,70.2439024 5.86737834,71.9039637 3.64939083,74.7484753 C1.43140215,77.5884152 0.64481678,81.2926829 1.51829268,84.7911582 L25.6371957,181.275915 C10.8109756,189.292683 1.17073171,204.914634 1.17073171,222.439024 C1.17073171,248.259147 22.1798775,269.268293 48,269.268293 C67.03811,269.268293 83.6067067,258.004573 90.8871945,241.29878 L228.283537,262.129573 C246.95122,328.230183 298.179877,381.567073 366.439024,401.560976 L366.439024,456.585366 L307.902439,456.585366 C294.992378,456.585366 284.487805,446.080793 284.487805,433.170732 C284.487805,426.704268 279.246952,421.463415 272.780488,421.463415 C266.314024,421.463415 261.073171,426.704268 261.073171,433.170732 C261.073171,458.990854 282.082316,480 307.902439,480 L378.146341,480 C384.612805,480 389.853659,474.759147 389.853659,468.292683 L389.853659,406.94817 C400.865854,408.804878 412.047256,409.756098 423.278963,409.756098 L471.804878,409.756098 L471.804878,468.292683 C471.804878,474.759147 477.045731,480 483.512195,480 L553.756098,480 C579.57622,480 600.585366,458.990854 600.585366,433.170732 C600.585366,426.704268 595.344513,421.463415 588.878049,421.463415 C582.411585,421.463415 577.170732,426.704268 577.170732,433.170732 C577.170732,446.080793 566.666159,456.585366 553.756098,456.585366 L495.219512,456.585366 L495.219512,409.756098 L518.634146,409.756098 C563.821646,409.756098 600.585366,372.992378 600.585366,327.804878 L600.585366,292.682927 C600.585366,208.893293 532.856708,140.487805 448.390244,140.487805 L424.97561,140.487805 L424.97561,81.9512195 C424.97561,75.4847555 419.734757,70.2439024 413.268293,70.2439024 L389.853659,70.2439024 L389.853659,23.4146341 L588.878049,23.4146341 Z M48,245.853659 C35.0899387,245.853659 24.5853659,235.349086 24.5853659,222.439024 C24.5853659,209.355183 35.1631095,199.02439 48,199.02439 C60.9100613,199.02439 71.4146341,209.528963 71.4146341,222.439024 C71.4146341,235.335366 61.0884152,245.853659 48,245.853659 Z M518.634146,386.341463 L423.278963,386.341463 C340.097561,386.341463 268.449695,329.853659 249.041158,248.977134 C247.929879,244.344513 244.125001,240.846036 239.414634,240.132622 L94.6280488,218.185976 C92.483232,194.469512 72.5853659,175.801829 48.3612808,175.618902 L27.8734759,93.6585366 L74.6844515,93.6585366 L95.4329268,155.894817 C97.0243902,160.678354 101.496951,163.902439 106.536585,163.902439 L336,163.902439 L336,187.266768 C335.716463,251.853659 387.946647,304.390244 452.817073,304.390244 L577.170732,304.390244 L577.170732,327.804878 C577.170732,360.082316 550.911585,386.341463 518.634146,386.341463 Z M576.631097,280.97561 L495.219512,280.97561 L495.219512,172.682927 C540.553353,190.317073 572.217988,232.266768 576.631097,280.97561 Z M471.804878,166.033536 L471.804878,280.97561 L452.817073,280.97561 C401.135671,280.97561 359.185976,239.208842 359.414634,187.317073 L359.413704,163.902439 L448.390244,163.902439 C456.278963,163.902439 464.117378,164.625001 471.804878,166.033536 Z M401.560976,140.487805 L354.731707,140.487805 L354.731707,93.6585366 L401.560976,93.6585366 L401.560976,140.487805 Z" id="Shape"></path>
            <path d="M442.536585,468.292683 C442.536585,474.759147 437.295732,480 430.829268,480 C424.362804,480 419.121951,474.759147 419.121951,468.292683 C419.121951,461.826219 424.362804,456.585366 430.829268,456.585366 C437.295732,456.585366 442.536585,461.826219 442.536585,468.292683 Z" id="Path"></path>
        </g>
    </g>
</svg>