<?xml version="1.0" encoding="UTF-8"?>
<svg width="503px" height="503px" viewBox="0 0 503 503" version="1.1" xmlns="http://www.w3.org/2000/svg" xmlns:xlink="http://www.w3.org/1999/xlink">
    <!-- Generator: Sketch 53 (72520) - https://sketchapp.com -->
    <title>appointment (1)</title>
    <desc>Created with Sketch.</desc>
    <g id="Page-1" stroke="none" stroke-width="1" fill="none" fill-rule="evenodd">
        <g id="appointment-(1)" fill="#404348" fill-rule="nonzero">
            <path d="M453.878906,43.2265625 L407.049803,43.2265625 L407.049803,29.4726562 C407.049803,13.2214336 393.828369,0 377.577146,0 C361.325924,0 348.10449,13.2214336 348.10449,29.4726562 L348.10449,43.2265625 L183.057615,43.2265625 L183.057615,29.4726562 C183.057615,13.2214336 169.836182,0 153.584959,0 C137.333736,0 124.112303,13.2214336 124.112303,29.4726562 L124.112303,43.5900586 C123.277244,43.3591895 122.401906,43.2265625 121.493166,43.2265625 L82.3495488,43.2265625 C55.2641777,43.2265625 33.2284551,65.2622852 33.2284551,92.3476562 L33.2284551,259.686521 C33.2284551,265.112437 37.6277402,269.51074 43.0526738,269.51074 C48.4776074,269.51074 52.8768926,265.112437 52.8768926,259.686521 L52.8768926,144.416016 L407.049803,144.416016 C412.474736,144.416016 416.874021,140.017713 416.874021,134.591797 C416.874021,129.165881 412.474736,124.767578 407.049803,124.767578 L52.8768926,124.767578 L52.8768926,92.3476562 C52.8768926,76.0964336 66.0983262,62.875 82.3495488,62.875 L121.493166,62.875 C122.401906,62.875 123.277244,62.7413906 124.112303,62.5115039 L124.112303,75.1552734 C124.112303,91.4064961 137.333736,104.62793 153.584959,104.62793 C169.836182,104.62793 183.057615,91.4064961 183.057615,75.1552734 L183.057615,62.875 L348.10449,62.875 L348.10449,75.1552734 C348.10449,91.4064961 361.325924,104.62793 377.577146,104.62793 C393.828369,104.62793 407.049803,91.4064961 407.049803,75.1552734 L407.049803,62.875 L453.878906,62.875 C470.130129,62.875 483.351562,76.0964336 483.351562,92.3476562 L483.351562,465.662074 C483.351562,475.415559 475.416541,483.351562 465.662074,483.351562 C455.907607,483.351562 447.972586,475.415559 447.972586,465.662074 L447.972586,440.247803 C447.972586,434.821887 443.573301,430.423584 438.148367,430.423584 L323.872072,430.423584 C318.447139,430.423584 314.047854,434.821887 314.047854,440.247803 C314.047854,445.673719 318.447139,450.072021 323.872072,450.072021 L428.324148,450.072021 L428.324148,465.662074 C428.324148,472.058623 429.94318,478.082834 432.789256,483.351562 L37.3320312,483.351562 C27.5814941,483.351562 19.6484375,475.418506 19.6484375,465.667969 L19.6484375,450.072021 L239.539014,450.072021 C244.963947,450.072021 249.363232,445.673719 249.363232,440.247803 C249.363232,434.821887 244.963947,430.423584 239.539014,430.423584 L141.37935,430.423584 C158.546189,415.639117 169.447143,393.770406 169.447143,369.390625 C169.447143,324.97042 133.308754,288.832031 88.8885488,288.832031 C44.4683437,288.832031 8.32995508,324.97042 8.32995508,369.390625 C8.32995508,393.770406 19.2309082,415.639117 36.397748,430.423584 L9.82421875,430.423584 C4.39928516,430.423584 0,434.821887 0,440.247803 L0,465.667969 C0,486.252654 16.7473457,503 37.3320312,503 L465.662074,503 C486.249707,503 503,486.250689 503,465.662074 L503,92.3476562 C503,65.2622852 480.964277,43.2265625 453.878906,43.2265625 Z M163.409178,75.1552734 C163.409178,80.5723477 159.002033,84.9794922 153.584959,84.9794922 C148.167885,84.9794922 143.76074,80.5723477 143.76074,75.1552734 L143.76074,29.4726562 C143.76074,24.055582 148.167885,19.6484375 153.584959,19.6484375 C159.002033,19.6484375 163.409178,24.055582 163.409178,29.4726562 L163.409178,75.1552734 Z M387.401365,75.1552734 C387.401365,80.5723477 382.994221,84.9794922 377.577146,84.9794922 C372.160072,84.9794922 367.752928,80.5723477 367.752928,75.1552734 L367.752928,29.4726562 C367.752928,24.055582 372.160072,19.6484375 377.577146,19.6484375 C382.994221,19.6484375 387.401365,24.055582 387.401365,29.4726562 L387.401365,75.1552734 Z M27.9783926,369.390625 C27.9783926,335.804568 55.3024922,308.480469 88.8885488,308.480469 C122.474605,308.480469 149.798705,335.804568 149.798705,369.390625 C149.798705,402.976682 122.474605,430.300781 88.8885488,430.300781 C55.3024922,430.300781 27.9783926,402.976682 27.9783926,369.390625 Z" id="Shape"></path>
            <path d="M460.077006,127.646074 C458.250684,125.81877 455.716035,124.767578 453.132266,124.767578 C450.547514,124.767578 448.013848,125.81877 446.186543,127.646074 C444.359238,129.473379 443.308047,132.008027 443.308047,134.591797 C443.308047,137.175566 444.358256,139.710215 446.186543,141.53752 C448.01483,143.364824 450.547514,144.416016 453.132266,144.416016 C455.716035,144.416016 458.250684,143.364824 460.077006,141.53752 C461.904311,139.710215 462.956484,137.175566 462.956484,134.591797 C462.956484,132.008027 461.905293,129.473379 460.077006,127.646074 Z" id="Path"></path>
            <path d="M293.399311,433.297168 C291.572988,431.469863 289.03834,430.428496 286.45457,430.428496 C283.870801,430.428496 281.336152,431.469863 279.508848,433.297168 C277.681543,435.134297 276.630352,437.659121 276.630352,440.242891 C276.630352,442.836484 277.680561,445.361309 279.508848,447.198438 C281.336152,449.025742 283.870801,450.067109 286.45457,450.067109 C289.03834,450.067109 291.572988,449.025742 293.399311,447.198438 C295.226615,445.361309 296.278789,442.82666 296.278789,440.242891 C296.278789,437.659121 295.227598,435.134297 293.399311,433.297168 Z" id="Path"></path>
            <path d="M222.268037,298.65625 C201.683352,298.65625 184.936006,315.403596 184.936006,335.988281 C184.936006,356.572967 201.683352,373.320312 222.268037,373.320312 C242.852723,373.320312 259.600068,356.572967 259.600068,335.988281 C259.600068,315.403596 242.852723,298.65625 222.268037,298.65625 Z M222.268037,353.671875 C212.5175,353.671875 204.584443,345.738818 204.584443,335.988281 C204.584443,326.237744 212.5175,318.304688 222.268037,318.304688 C232.018574,318.304688 239.951631,326.237744 239.951631,335.988281 C239.951631,345.738818 232.018574,353.671875 222.268037,353.671875 Z" id="Shape"></path>
            <path d="M313.960418,298.65625 C293.375732,298.65625 276.628387,315.403596 276.628387,335.988281 C276.628387,356.572967 293.375732,373.320312 313.960418,373.320312 C334.545104,373.320312 351.292449,356.572967 351.292449,335.988281 C351.292449,315.403596 334.545104,298.65625 313.960418,298.65625 Z M313.960418,353.671875 C304.209881,353.671875 296.276824,345.738818 296.276824,335.988281 C296.276824,326.237744 304.209881,318.304688 313.960418,318.304688 C323.710955,318.304688 331.644012,326.237744 331.644012,335.988281 C331.644012,345.738818 323.710955,353.671875 313.960418,353.671875 Z" id="Shape"></path>
            <path d="M405.653781,298.65625 C385.069096,298.65625 368.32175,315.403596 368.32175,335.988281 C368.32175,356.572967 385.069096,373.320312 405.653781,373.320312 C426.238467,373.320312 442.985812,356.572967 442.985812,335.988281 C442.985812,315.403596 426.238467,298.65625 405.653781,298.65625 Z M405.653781,353.671875 C395.903244,353.671875 387.970187,345.738818 387.970187,335.988281 C387.970187,326.237744 395.903244,318.304688 405.653781,318.304688 C415.404318,318.304688 423.337375,326.237744 423.337375,335.988281 C423.337375,345.738818 415.404318,353.671875 405.653781,353.671875 Z" id="Shape"></path>
            <path d="M130.575656,196.484375 C109.990971,196.484375 93.243625,213.231721 93.243625,233.816406 C93.243625,254.401092 109.990971,271.148438 130.575656,271.148438 C151.160342,271.148438 167.907688,254.401092 167.907688,233.816406 C167.907688,213.231721 151.160342,196.484375 130.575656,196.484375 Z M130.575656,251.5 C120.825119,251.5 112.892063,243.566943 112.892063,233.816406 C112.892063,224.065869 120.825119,216.132812 130.575656,216.132812 C140.326193,216.132812 148.25925,224.065869 148.25925,233.816406 C148.25925,243.566943 140.326193,251.5 130.575656,251.5 Z" id="Shape"></path>
            <path d="M313.960418,196.484375 C293.375732,196.484375 276.628387,213.231721 276.628387,233.816406 C276.628387,254.401092 293.375732,271.148438 313.960418,271.148438 C334.545104,271.148438 351.292449,254.401092 351.292449,233.816406 C351.292449,213.231721 334.545104,196.484375 313.960418,196.484375 Z M313.960418,251.5 C304.209881,251.5 296.276824,243.566943 296.276824,233.816406 C296.276824,224.065869 304.209881,216.132812 313.960418,216.132812 C323.710955,216.132812 331.644012,224.065869 331.644012,233.816406 C331.644012,243.566943 323.710955,251.5 313.960418,251.5 Z" id="Shape"></path>
            <path d="M405.653781,196.484375 C385.069096,196.484375 368.32175,213.231721 368.32175,233.816406 C368.32175,254.401092 385.069096,271.148438 405.653781,271.148438 C426.238467,271.148438 442.985812,254.401092 442.985812,233.816406 C442.985812,213.231721 426.238467,196.484375 405.653781,196.484375 Z M405.653781,251.5 C395.903244,251.5 387.970187,243.566943 387.970187,233.816406 C387.970187,224.065869 395.903244,216.132812 405.653781,216.132812 C415.404318,216.132812 423.337375,224.065869 423.337375,233.816406 C423.337375,243.566943 415.404318,251.5 405.653781,251.5 Z" id="Shape"></path>
            <path d="M222.268037,196.484375 C201.683352,196.484375 184.936006,213.231721 184.936006,233.816406 C184.936006,254.401092 201.683352,271.148438 222.268037,271.148438 C242.852723,271.148438 259.600068,254.401092 259.600068,233.816406 C259.600068,213.231721 242.852723,196.484375 222.268037,196.484375 Z M222.268037,251.5 C212.5175,251.5 204.584443,243.566943 204.584443,233.816406 C204.584443,224.065869 212.5175,216.132812 222.268037,216.132812 C232.018574,216.132812 239.951631,224.065869 239.951631,233.816406 C239.951631,243.566943 232.018574,251.5 222.268037,251.5 Z" id="Shape"></path>
            <path d="M123.887328,345.448021 C120.049988,341.611664 113.831258,341.611664 109.992936,345.448021 L77.9993848,377.442555 L67.0660117,366.509182 C63.2286719,362.672824 57.0099414,362.672824 53.1716191,366.509182 C49.3352617,370.345539 49.3352617,376.566234 53.1716191,380.403574 L71.0526797,398.28267 C72.8957031,400.124711 75.394002,401.160184 77.9993848,401.160184 C80.6047676,401.160184 83.1030664,400.124711 84.9460898,398.28267 L123.887328,359.341432 C127.723686,355.505074 127.723686,349.284379 123.887328,345.448021 Z" id="Path"></path>
        </g>
    </g>
</svg>