<?xml version="1.0" encoding="UTF-8"?>
<svg width="37px" height="48px" viewBox="0 0 37 48" version="1.1" xmlns="http://www.w3.org/2000/svg" xmlns:xlink="http://www.w3.org/1999/xlink">
    <!-- Generator: Sketch 53 (72520) - https://sketchapp.com -->
    <title>Africa</title>
    <desc>Created with Sketch.</desc>
    <g id="Symbols" stroke="none" stroke-width="1" fill="none" fill-rule="evenodd">
        <g id="Form_1" transform="translate(-133.000000, -176.000000)">
            <g id="Group-3">
                <g transform="translate(48.000000, 124.000000)">
                    <g id="Tabs_forms">
                        <g id="Europ_tab">
                            <g id="Africa" transform="translate(68.000000, 40.000000)">
                                <rect id="Rectangle" x="12" y="12" width="47.468144" height="47.447207"></rect>
                                <g id="warrior" transform="translate(17.191828, 12.000000)" fill-rule="nonzero">
                                    <rect id="Rectangle" fill="#2E3336" x="13.7212604" y="19.0900872" width="1.57609072" height="1.57539554"></rect>
                                    <rect id="Rectangle" fill="#2E3336" x="16.0946676" y="19.0900872" width="4.54284972" height="1.57539554"></rect>
                                    <rect id="Rectangle" fill="#2E3336" x="21.4162916" y="19.0900872" width="1.57609072" height="1.57539554"></rect>
                                    <path d="M28.8117959,14.7369494 L28.3000995,14.2754871 L27.7884032,14.7361842 C27.7608679,14.760673 27.6774974,14.8372008 27.5535888,14.9550535 C26.4238794,14.1936024 25.0899504,13.7749956 23.7108942,13.7749956 L22.6744987,13.7749956 C24.2371231,12.5115224 25.2406293,10.5807272 25.2406293,8.41805285 L25.2406293,6.88749779 C25.2406293,3.0894254 22.152859,0 18.3568213,0 C14.5607837,0 11.4730133,3.0894254 11.4730133,6.88749779 L11.4730133,8.41805285 C11.4730133,10.5807272 12.4765196,12.5115224 14.039144,13.7749956 L13.0027484,13.7749956 C9.20671076,13.7749956 6.11894044,16.864421 6.11894044,20.6624934 L6.11894044,21.4277709 L4.58920533,21.4277709 L4.58920533,13.009718 L5.14067484,13.009718 L6.93734873,7.61833783 L3.82433778,0.352792942 L0.712091694,7.61833783 L2.50800071,13.009718 L3.05947022,13.009718 L3.05947022,21.4277709 C1.37217239,21.4277709 0,22.8006788 0,24.488881 C0,26.1770833 1.37217239,27.5499911 3.05947022,27.5499911 L3.05947022,47.447207 L4.58920533,47.447207 L4.58920533,27.5499911 L10.7081458,27.5499911 L10.7081458,47.447207 L26.0054969,47.447207 L26.0054969,44.6394037 C26.9738192,45.7414034 27.6935596,46.4003073 27.7884032,46.4852531 L28.3000995,46.9467155 L28.8117959,46.4852531 C29.1345701,46.1944477 36.7136427,39.2702165 36.7136427,30.6111013 C36.7136427,21.951986 29.1345701,15.0277549 28.8117959,14.7369494 Z M3.05947022,26.0194361 C2.21582131,26.0194361 1.52973511,25.3329821 1.52973511,24.488881 C1.52973511,23.6447799 2.21582131,22.958326 3.05947022,22.958326 L3.05947022,26.0194361 Z M13.0027484,8.41805285 L13.0027484,6.88749779 C13.0027484,3.93429179 15.4051974,1.53055506 18.3568213,1.53055506 C21.3084452,1.53055506 23.7108942,3.93429179 23.7108942,6.88749779 L23.7108942,8.41805285 C23.7108942,11.3712588 21.3084452,13.7749956 18.3568213,13.7749956 C15.4051974,13.7749956 13.0027484,11.3712588 13.0027484,8.41805285 Z M4.03773582,11.479163 L3.61017486,11.479163 L2.34737853,7.68721281 L3.82433778,4.23887225 L5.30129703,7.68721281 L4.03773582,11.479163 Z M10.7081458,26.0194361 L4.58920533,26.0194361 L4.58920533,22.958326 L7.64867555,22.958326 L7.64867555,20.6624934 C7.64867555,17.7092874 10.0511245,15.3055506 13.0027484,15.3055506 L23.7108942,15.3055506 C24.6891598,15.3055506 25.6398902,15.5726325 26.466712,16.0692976 C24.3900966,18.3245705 20.558875,23.2101023 19.9661027,29.0805462 L12.2378809,29.0805462 L12.2378809,19.1319383 L10.7081458,19.1319383 L10.7081458,26.0194361 Z M17.5919538,45.9166519 L12.2378809,45.9166519 L12.2378809,33.522217 L17.3724368,36.7333215 L17.5919538,36.7333215 L17.5919538,45.9166519 Z M17.8114708,35.2027665 L12.2378809,31.7176926 L12.2378809,30.6111013 L19.8865564,30.6111013 C19.8865564,31.8860536 20.0540624,33.1219769 20.3355337,34.3066265 L18.9021719,35.2027665 L17.8114708,35.2027665 Z M24.4757618,45.9166519 L19.1216889,45.9166519 L19.1216889,36.7333215 L19.3412059,36.7333215 L20.7699785,35.8394774 C21.6702276,38.5623348 23.1227111,40.9385216 24.4757618,42.751464 L24.4757618,45.9166519 Z M28.2993347,44.849855 C27.7845788,44.328701 26.9340461,43.4157249 26.0054969,42.2096475 L26.0054969,42.0902643 L25.9144776,42.0902643 C23.8409217,39.3697026 21.4162916,35.2073581 21.4162916,30.6111013 C21.4162916,23.8889034 26.6250396,18.0689678 28.3008644,16.3723475 C29.9759244,18.066672 35.1839075,23.876659 35.1839075,30.6111013 C35.1839075,37.3332991 29.9743946,43.1532347 28.2993347,44.849855 Z" id="Shape" fill="#404348"></path>
                                    <rect id="Rectangle" fill="#2E3336" x="14.0921053" y="39.2922183" width="1.4833795" height="3.70681304"></rect>
                                    <rect id="Rectangle" fill="#2E3336" x="21.5090028" y="39.2922183" width="1.4833795" height="3.70681304"></rect>
                                    <path d="M28.3232774,26.0403616 C25.7923306,26.0403616 23.734072,28.0977124 23.734072,30.6275428 C23.734072,33.1573732 25.7923306,35.2147239 28.3232774,35.2147239 C30.8542241,35.2147239 32.9124827,33.1573732 32.9124827,30.6275428 C32.9124827,28.0977124 30.8542241,26.0403616 28.3232774,26.0403616 Z M28.3232774,33.6856635 C26.6359795,33.6856635 25.2638071,32.3140964 25.2638071,30.6275428 C25.2638071,28.9409892 26.6359795,27.569422 28.3232774,27.569422 C30.0105752,27.569422 31.3827476,28.9409892 31.3827476,30.6275428 C31.3827476,32.3140964 30.0105752,33.6856635 28.3232774,33.6856635 Z" id="Shape" fill="#2E3336"></path>
                                    <rect id="Rectangle" fill="#2E3336" x="27.535232" y="22.8895706" width="1.57609072" height="1.57539554"></rect>
                                    <polygon id="Rectangle" fill="#2E3336" transform="translate(28.406717, 30.618276) rotate(90.000000) translate(-28.406717, -30.618276) " points="27.6653548 28.7640514 29.1480801 28.7640514 29.1480801 32.4725001 27.6653548 32.4725001"></polygon>
                                    <rect id="Rectangle" fill="#2E3336" x="27.535232" y="19.8314498" width="1.57609072" height="1.57539554"></rect>
                                    <rect id="Rectangle" fill="#2E3336" x="27.535232" y="36.6974491" width="1.57609072" height="1.57539554"></rect>
                                    <rect id="Rectangle" fill="#2E3336" x="27.535232" y="39.7555699" width="1.57609072" height="1.57539554"></rect>
                                    <rect id="Rectangle" fill="#2E3336" x="12.701437" y="4.91152728" width="11.1253463" height="1.48272522"></rect>
                                </g>
                                <rect id="Rectangle" x="0" y="0" width="72" height="72"></rect>
                            </g>
                        </g>
                    </g>
                </g>
            </g>
        </g>
    </g>
</svg>