<?xml version="1.0" encoding="UTF-8"?>
<svg width="512px" height="334px" viewBox="0 0 512 334" version="1.1" xmlns="http://www.w3.org/2000/svg" xmlns:xlink="http://www.w3.org/1999/xlink">
    <!-- Generator: Sketch 53 (72520) - https://sketchapp.com -->
    <title>hotel-de-glace</title>
    <desc>Created with Sketch.</desc>
    <g id="Page-1" stroke="none" stroke-width="1" fill="none" fill-rule="evenodd">
        <g id="hotel-de-glace" fill="#404348" fill-rule="nonzero">
            <path d="M509.071,106.429 L449.071,46.429 C445.444,42.802 439.662,42.507 435.685,45.746 L372.183,97.455 L262.529,2.926 C258.777,-0.308 253.222,-0.308 249.47,2.926 L139.816,97.455 L76.314,45.746 C72.336,42.507 66.555,42.803 62.928,46.429 L2.928,106.429 C1.054,108.305 0,110.848 0,113.5 L0,323.5 C0,329.022 4.477,333.5 10,333.5 L502,333.5 C507.523,333.5 512,329.022 512,323.5 L512,113.5 C512,110.848 510.946,108.305 509.071,106.429 Z M392,273.5 L392,253.5 L412,253.5 L412,273.5 L392,273.5 Z M492,233.5 L472,233.5 L472,213.5 L492,213.5 L492,233.5 Z M452,193.5 L452,167.643 L477.858,193.5 L452,193.5 Z M452,213.5 L452,233.5 L432,233.5 L432,213.5 L452,213.5 Z M392,213.5 L412,213.5 L412,233.5 L392,233.5 L392,213.5 Z M432,193.5 L406.142,193.5 L432,167.643 L432,193.5 Z M432,273.5 L432,253.5 L452,253.5 L452,273.5 L432,273.5 Z M472,253.5 L492,253.5 L492,273.5 L472,273.5 L472,253.5 Z M70.687,66.955 L133.686,118.254 C137.446,121.317 142.858,121.24 146.53,118.074 L256,23.703 L365.471,118.074 C369.142,121.238 374.555,121.315 378.315,118.254 L441.314,66.955 L492,117.643 L492,179.358 L449.071,136.429 C449.057,136.415 449.04,136.404 449.025,136.39 C447.116,134.513 444.458,133.463 441.78,133.521 C439.259,133.576 436.769,134.616 434.974,136.39 C434.959,136.404 434.943,136.415 434.928,136.429 C434.928,136.429 374.928,196.429 374.919,196.44 C373.078,198.287 372,200.891 372,203.501 L372,313.501 L352,313.501 C352,313.501 352,223.502 352,223.501 C352,221.364 351.283,219.211 350,217.501 L320,177.501 C319.826,177.269 319.633,177.055 319.442,176.841 C319.395,176.789 319.359,176.729 319.311,176.678 L263.311,116.678 C261.443,114.683 258.733,113.505 256,113.505 C253.269,113.505 250.554,114.68 248.69,116.678 L192.69,176.678 C192.642,176.73 192.606,176.789 192.559,176.841 C192.367,177.055 192.175,177.269 192.001,177.501 L162.001,217.501 C160.72,219.21 160.001,221.367 160.001,223.501 L160.001,313.501 L140.001,313.501 C140.001,313.501 140.001,203.58 140.001,203.501 C140.001,200.89 138.919,198.276 137.072,196.43 L77.072,136.43 C77.058,136.416 77.041,136.405 77.026,136.391 C75.189,134.554 72.567,133.514 69.976,133.52 C67.391,133.526 64.815,134.573 62.975,136.391 C62.96,136.405 62.944,136.416 62.929,136.431 L20,179.357 L20,117.642 L70.687,66.955 Z M284.28,273.5 C280.152,261.861 269.037,253.5 256,253.5 C242.963,253.5 231.848,261.861 227.72,273.5 L226,273.5 L226,233.5 L286,233.5 L286,273.5 L284.28,273.5 Z M180,273.5 L180,233.5 L206,233.5 L206,273.5 L180,273.5 Z M286,213.5 L286,193.5 L307,193.5 L322,213.5 L286,213.5 Z M266,173.5 L266,148.87 L288.988,173.5 L266,173.5 Z M266,193.5 L266,213.5 L246,213.5 L246,193.5 L266,193.5 Z M246,173.5 L223.012,173.5 L246,148.87 L246,173.5 Z M205,193.5 L226,193.5 L226,213.5 L190,213.5 L205,193.5 Z M306,233.5 L332,233.5 L332,273.5 L306,273.5 L306,233.5 Z M100,213.5 L120,213.5 L120,233.5 L100,233.5 L100,213.5 Z M80,193.5 L80,167.643 L105.858,193.5 L80,193.5 Z M80,213.5 L80,233.5 L60,233.5 L60,213.5 L80,213.5 Z M20,213.5 L40,213.5 L40,233.5 L20,233.5 L20,213.5 Z M60,193.5 L34.142,193.5 L60,167.643 L60,193.5 Z M20,253.5 L60,253.5 L60,273.5 L20,273.5 L20,253.5 Z M80,293.5 L80,313.5 L60,313.5 L60,293.5 L80,293.5 Z M80,273.5 L80,253.5 L120,253.5 L120,273.5 L80,273.5 Z M20,313.5 L20,293.5 L40,293.5 L40,313.5 L20,313.5 Z M100,313.5 L100,293.5 L120,293.5 L120,313.5 L100,313.5 Z M180,293.5 L226,293.5 L226,313.5 L180,313.5 L180,293.5 Z M246,283.5 C246,277.986 250.486,273.5 256,273.5 C261.514,273.5 266,277.986 266,283.5 L266,313.5 L246,313.5 L246,283.5 Z M286,313.5 L286,293.5 L332,293.5 L332,313.5 L286,313.5 Z M392,293.5 L432,293.5 L432,313.5 L392,313.5 L392,293.5 Z M492,313.5 L452,313.5 L452,293.5 L492,293.5 L492,313.5 Z" id="Shape"></path>
            <path d="M163.81,155.78 C166.17,155.78 168.47,154.929 170.28,153.399 C174.48,149.83 174.99,143.509 171.43,139.309 C169.52,137.059 166.74,135.78 163.8,135.78 C161.44,135.78 159.14,136.62 157.33,138.16 C155.29,139.889 154.05,142.3 153.84,144.97 C153.62,147.63 154.45,150.22 156.18,152.25 C158.08,154.49 160.86,155.78 163.81,155.78 Z" id="Path"></path>
            <path d="M302.17,119.819 L355.53,165.12 C357.33,166.66 359.63,167.5 361.99,167.5 C364.94,167.5 367.72,166.21 369.62,163.97 C371.35,161.94 372.18,159.35 371.97,156.69 C371.75,154.02 370.51,151.61 368.47,149.88 L315.11,104.569 C313.31,103.04 311.01,102.189 308.64,102.189 C305.7,102.189 302.92,103.479 301.02,105.719 C297.45,109.93 297.96,116.25 302.17,119.819 L302.17,119.819 Z" id="Path"></path>
            <path d="M194.3,129.89 C196.67,129.89 198.96,129.05 200.77,127.51 L254.13,82.21 C256.16,80.48 257.41,78.06 257.62,75.399 C257.84,72.729 257.01,70.149 255.28,68.109 C253.37,65.87 250.59,64.58 247.65,64.58 C245.29,64.58 242.99,65.43 241.18,66.96 L187.82,112.27 C185.79,114 184.54,116.411 184.33,119.081 C184.11,121.741 184.94,124.331 186.67,126.36 C188.58,128.6 191.36,129.89 194.3,129.89 L194.3,129.89 Z" id="Path"></path>
            <path d="M271.68,93.93 C273.48,95.46 275.78,96.3 278.14,96.3 L278.15,96.3 C281.09,96.3 283.87,95.02 285.77,92.77 C289.34,88.57 288.82,82.25 284.62,78.68 C282.81,77.15 280.52,76.3 278.15,76.3 C275.21,76.3 272.43,77.59 270.52,79.83 C268.8,81.87 267.96,84.45 268.18,87.12 C268.4,89.78 269.64,92.2 271.68,93.93 Z" id="Path"></path>
        </g>
    </g>
</svg>