<?xml version="1.0" encoding="UTF-8"?>
<svg width="512px" height="512px" viewBox="0 0 512 512" version="1.1" xmlns="http://www.w3.org/2000/svg" xmlns:xlink="http://www.w3.org/1999/xlink">
    <!-- Generator: Sketch 53 (72520) - https://sketchapp.com -->
    <title>hot-air-balloon (1)</title>
    <desc>Created with Sketch.</desc>
    <g id="Page-1" stroke="none" stroke-width="1" fill="none" fill-rule="evenodd">
        <g id="hot-air-balloon-(1)" fill="#404348" fill-rule="nonzero">
            <path d="M468.006,208.199 C457.94,190.372 440.042,178.349 419.819,175.72 L419.819,163.8 C419.819,73.48 346.33,0 256,0 C165.67,0 92.181,73.48 92.181,163.8 C92.181,192.67 100.193,221.208 114.67,246.241 C85.708,248.04 60.211,266.318 49.08,292.831 C47.457,292.65 45.82,292.56 44.175,292.56 C19.816,292.56 0,312.376 0,336.733 C0,344.359 1.996,351.898 5.772,358.537 C7.55,361.662 10.869,363.593 14.464,363.593 L121.75,363.593 C127.272,363.593 131.75,359.115 131.75,353.593 C131.75,348.071 127.272,343.593 121.75,343.593 L21.001,343.593 C20.341,341.372 20,339.06 20,336.734 C20,323.405 30.845,312.56 44.174,312.56 C46.935,312.56 49.651,313.026 52.246,313.945 C54.774,314.84 57.561,314.677 59.974,313.499 C62.386,312.321 64.224,310.219 65.073,307.672 C65.127,307.514 65.176,307.354 65.22,307.193 C71.959,282.989 94.227,266.084 119.37,266.084 C121.902,266.084 124.526,266.271 127.168,266.637 C127.647,266.703 128.121,266.722 128.591,266.72 C136.089,276.183 144.621,284.889 154.093,292.599 C168.411,304.252 179.203,319.179 185.304,335.77 L185.883,337.342 C185.904,337.399 185.93,337.453 185.952,337.51 L185.952,373.886 C185.952,378.74 189.412,382.783 193.999,383.692 L193.999,421.721 L193.999,475 C193.999,495.402 210.597,512 230.999,512 L280.999,512 C301.401,512 317.999,495.402 317.999,475 L317.999,421.72 L317.999,383.712 C322.653,382.857 326.183,378.786 326.183,373.885 L326.183,337.539 C326.195,337.507 326.211,337.477 326.223,337.445 L327.176,334.943 C332.221,321.699 339.976,309.861 350.227,299.757 C354.16,295.879 354.206,289.548 350.329,285.614 C346.452,281.68 340.12,281.636 336.186,285.512 C324.902,296.636 316.128,309.529 310.068,323.884 L294.161,323.884 C295.641,308.03 298.765,293.631 303.177,282.571 C305.25,277.374 307.172,271.828 308.94,265.999 L502,265.999 C507.522,265.999 512,261.521 512,255.999 C512,230.89 492.604,210.224 468.006,208.199 Z M202.111,323.884 C194.541,305.932 182.386,289.837 166.719,277.086 C132.569,249.291 112.181,206.941 112.181,163.8 C112.181,97.062 157.883,40.798 219.64,24.654 C214.814,32.071 210.415,41.085 206.544,51.588 C195.442,81.716 189.328,121.567 189.328,163.799 C189.328,208.306 196.483,251.611 208.958,282.61 C213.392,293.626 216.503,308.013 217.939,323.884 L202.111,323.884 Z M298,475 C298,484.374 290.374,492 281,492 L231,492 C221.626,492 214,484.374 214,475 L214,431.72 L298,431.72 L298,475 Z M214,411.72 L214,383.885 L246,383.885 L246,411.72 L214,411.72 Z M298,411.72 L266,411.72 L266,383.885 L298,383.885 L298,411.72 Z M306.184,343.885 L306.184,363.885 L205.954,363.885 L205.954,343.885 L306.184,343.885 Z M284.601,275.161 C279.329,288.38 275.671,305.414 274.084,323.885 L238.011,323.885 C236.472,305.376 232.821,288.335 227.513,275.144 C215.956,246.429 209.328,205.846 209.328,163.8 C209.328,74.706 236.512,20 256,20 C275.488,20 302.672,74.706 302.672,163.8 C302.672,205.785 296.085,246.374 284.601,275.161 Z M305.457,51.588 C301.586,41.085 297.187,32.072 292.361,24.654 C354.118,40.798 399.819,97.062 399.819,163.8 L399.819,176.216 C380.169,179.764 363.225,192.176 353.935,209.89 C349.658,208.666 345.21,208.036 340.736,208.036 C333.213,208.036 326.092,209.781 319.749,212.881 C321.665,197.075 322.672,180.518 322.672,163.799 C322.672,121.567 316.558,81.716 305.457,51.588 Z M314.62,245.999 C318.652,235.504 328.839,228.037 340.736,228.037 C345.508,228.037 350.223,229.266 354.372,231.589 C356.977,233.048 360.096,233.266 362.879,232.187 C365.661,231.106 367.817,228.84 368.754,226.006 C374.855,207.564 392.008,195.173 411.437,195.173 C429.292,195.173 445.462,205.751 452.633,222.12 C454.313,225.953 458.192,228.348 462.377,228.091 C462.927,228.059 463.48,228.036 464.037,228.036 C475.934,228.036 486.12,235.504 490.152,245.999 L314.62,245.999 Z" id="Shape"></path>
            <path d="M161.819,346.52 C159.96,344.66 157.38,343.59 154.75,343.59 C152.12,343.59 149.54,344.66 147.68,346.52 C145.82,348.38 144.75,350.96 144.75,353.59 C144.75,356.22 145.819,358.8 147.68,360.66 C149.54,362.519 152.12,363.59 154.75,363.59 C157.38,363.59 159.96,362.52 161.819,360.66 C163.679,358.8 164.75,356.22 164.75,353.59 C164.75,350.96 163.68,348.38 161.819,346.52 Z" id="Path"></path>
            <path d="M185.23,76.43 C181.384,72.464 175.054,72.365 171.088,76.209 C156.438,90.41 145.509,108.16 139.484,127.54 C137.844,132.814 140.79,138.418 146.064,140.058 C147.052,140.366 148.052,140.512 149.036,140.512 C153.3,140.512 157.25,137.764 158.582,133.479 C163.617,117.286 172.755,102.448 185.009,90.57 C188.975,86.726 189.073,80.395 185.23,76.43 Z" id="Path"></path>
            <path d="M144,153.666 C138.478,153.666 134,158.143 134,163.666 L134,163.8 C134,169.323 138.478,173.8 144,173.8 C149.522,173.8 154,169.323 154,163.8 L154,163.666 C154,158.143 149.522,153.666 144,153.666 Z" id="Path"></path>
        </g>
    </g>
</svg>