<?xml version="1.0" encoding="UTF-8"?>
<svg width="512px" height="456px" viewBox="0 0 512 456" version="1.1" xmlns="http://www.w3.org/2000/svg" xmlns:xlink="http://www.w3.org/1999/xlink">
    <!-- Generator: Sketch 53 (72520) - https://sketchapp.com -->
    <title>kangaroo</title>
    <desc>Created with Sketch.</desc>
    <g id="Page-1" stroke="none" stroke-width="1" fill="none" fill-rule="evenodd">
        <g id="kangaroo" fill="#404348" fill-rule="nonzero">
            <path d="M400.65625,224.304688 C395.992188,221.34375 389.8125,222.722656 386.855469,227.386719 C376.308594,243.988281 367.421875,250.65625 364.949219,252.304688 C361.371094,254.691406 358.207031,252.960938 357.035156,251.714844 C356.039062,250.660156 355.007812,248.878906 357.5,245.585938 C370.394531,228.554688 372.667969,208.882812 372.757812,208.054688 C373.179688,204.175781 371.308594,200.40625 367.964844,198.398438 C364.621094,196.390625 360.417969,196.507812 357.191406,198.703125 C314.289062,227.902344 289.273438,209.035156 287.617188,207.707031 C284.675781,205.078125 280.550781,204.503906 276.945312,206.125 C273.328125,207.75 271.101562,211.445312 271.136719,215.410156 C271.542969,263.609375 233.917969,311.589844 218.878906,322.558594 C196.53125,338.859375 192.980469,363.203125 189.851562,384.679688 C186.992188,404.300781 184.519531,421.25 169.410156,431.117188 C160.339844,437.039062 154.214844,435.441406 151.730469,432.265625 C151.226562,431.621094 148.875,428.230469 152.328125,425.007812 C168.25,410.160156 177.757812,387.007812 177.757812,363.070312 C177.757812,343.910156 178.769531,338.105469 188.070312,329.457031 C204.589844,314.097656 203.582031,276.179688 196.757812,261.484375 C188.023438,242.675781 187.105469,223.691406 188.457031,199.160156 C188.613281,196.296875 187.535156,193.507812 185.496094,191.492188 C183.453125,189.480469 180.648438,188.441406 177.789062,188.632812 C157.75,190 144.382812,219.859375 130.230469,251.472656 C126.144531,260.601562 122.285156,269.222656 118.597656,276.28125 C102.9375,306.253906 83.738281,334.136719 49.558594,335.21875 C39.535156,335.535156 31.140625,332.675781 24.640625,326.714844 C20.328125,322.757812 19.796875,320.019531 20.042969,319.640625 C20.433594,319.023438 22.6875,318.015625 25.671875,319.261719 C49.101562,329.035156 69.714844,321.917969 83.714844,299.21875 C97.460938,276.9375 106.988281,247.378906 117.074219,216.085938 C125.046875,191.34375 133.292969,165.757812 144.039062,142.628906 C146.367188,137.617188 144.191406,131.671875 139.183594,129.34375 C134.175781,127.015625 128.230469,129.191406 125.902344,134.199219 C114.636719,158.449219 106.199219,184.628906 98.039062,209.949219 C88.335938,240.058594 79.167969,268.496094 66.695312,288.71875 C57.761719,303.203125 47.800781,306.820312 33.375,300.800781 C21.925781,296.023438 9.230469,299.414062 3.191406,308.867188 C-1.742188,316.582031 -2.246094,329.195312 11.125,341.453125 C21.460938,350.929688 34.957031,355.683594 50.1875,355.207031 C70.882812,354.554688 89.441406,346.222656 105.351562,330.449219 C119.164062,316.757812 129.160156,299.257812 136.324219,285.542969 C140.292969,277.945312 144.273438,269.054688 148.484375,259.644531 C154.382812,246.46875 160.480469,232.84375 166.6875,222.597656 C167.121094,221.878906 167.546875,221.195312 167.960938,220.550781 C168.328125,236.472656 170.765625,252.996094 178.617188,269.90625 C183.128906,279.621094 182.488281,307.332031 174.449219,314.8125 C158.878906,329.289062 157.753906,342.699219 157.753906,363.070312 C157.753906,381.285156 150.449219,399.414062 138.6875,410.382812 C128.808594,419.597656 127.671875,433.988281 135.988281,444.601562 C140.867188,450.828125 148.714844,455.164062 158.230469,455.164062 C164.925781,455.164062 172.453125,453.015625 180.34375,447.863281 C203.011719,433.066406 206.53125,408.890625 209.644531,387.5625 C212.578125,367.441406 215.109375,350.066406 230.664062,338.71875 C250.382812,324.335938 283.847656,278.511719 290.113281,231.257812 C302.25,235.539062 321.09375,237.988281 345.191406,227.996094 C344.128906,229.851562 342.921875,231.710938 341.554688,233.515625 C333.789062,243.773438 334.15625,256.597656 342.472656,265.425781 C351.15625,274.644531 365.273438,276.128906 376.042969,268.945312 C384.980469,262.988281 395.074219,251.75 403.734375,238.105469 C406.699219,233.445312 405.320312,227.265625 400.65625,224.304688 L400.65625,224.304688 Z" id="Path"></path>
            <path d="M452.390625,30.933594 C447.21875,24.914062 433.375,9.933594 416.757812,1.160156 C412.570312,-1.054688 407.40625,-0.0234375 404.386719,3.625 C403.621094,4.546875 396.828125,12.980469 393.527344,24.953125 C389.324219,40.203125 392.738281,54.59375 403.136719,66.035156 C399.402344,86.0625 392.390625,99.855469 384.027344,103.339844 C377.976562,105.855469 369.792969,103.394531 359.691406,96.015625 C355.621094,93.046875 351.46875,89.933594 347.453125,86.921875 C312.910156,61.027344 273.757812,31.679688 221.527344,44.507812 C204.949219,48.582031 189.769531,55.859375 176.414062,66.136719 C172.039062,69.507812 171.222656,75.785156 174.589844,80.160156 C177.960938,84.539062 184.238281,85.355469 188.613281,81.988281 C199.914062,73.289062 212.238281,67.386719 226.300781,63.933594 C269.339844,53.363281 301.453125,77.4375 335.457031,102.925781 C339.519531,105.972656 343.726562,109.125 347.894531,112.167969 C364.027344,123.953125 378.773438,127.191406 391.710938,121.804688 C412.234375,113.261719 420.460938,85.699219 423.746094,64.085938 C424.257812,60.730469 423.03125,57.347656 420.488281,55.097656 C408.285156,44.292969 411.34375,31.546875 415.214844,23.660156 C428.527344,33.023438 438.742188,45.785156 438.859375,45.933594 C440.253906,47.691406 442.195312,48.933594 444.375,49.453125 C462.109375,53.703125 478.300781,74.269531 486.480469,92.769531 C491.910156,105.050781 492.449219,113.152344 491.816406,116.042969 C483.574219,116.460938 467.210938,114.835938 454.210938,109.71875 C445.480469,106.28125 438.746094,108.289062 434.628906,110.574219 C421.980469,117.605469 416.945312,136.554688 413.394531,155.980469 C412.398438,161.414062 415.996094,166.621094 421.429688,167.617188 C422.039062,167.726562 422.644531,167.78125 423.242188,167.78125 C427.976562,167.78125 432.183594,164.402344 433.066406,159.578125 C437.316406,136.34375 441.546875,129.613281 444.34375,128.054688 C444.574219,127.929688 445.113281,127.628906 446.882812,128.328125 C464.402344,135.226562 484.84375,136.648438 494.308594,135.921875 C502.109375,135.324219 510.824219,129.875 511.894531,116.378906 C513.917969,90.828125 487.203125,41.882812 452.390625,30.933594 Z" id="Path"></path>
            <path d="M149.289062,111.757812 C150.992188,112.894531 152.921875,113.441406 154.828125,113.441406 C158.058594,113.441406 161.230469,111.875 163.15625,108.984375 L163.160156,108.980469 C166.222656,104.386719 164.980469,98.179688 160.386719,95.117188 C155.789062,92.050781 149.578125,93.296875 146.515625,97.890625 C143.453125,102.488281 144.691406,108.695312 149.289062,111.757812 Z" id="Path"></path>
            <path d="M415.714844,187.046875 C410.40625,185.53125 404.867188,188.609375 403.351562,193.921875 C401.832031,199.230469 404.910156,204.765625 410.21875,206.28125 C411.136719,206.542969 412.0625,206.667969 412.972656,206.667969 C417.324219,206.667969 421.324219,203.808594 422.582031,199.414062 L422.582031,199.40625 C424.101562,194.097656 421.023438,188.566406 415.714844,187.046875 L415.714844,187.046875 Z" id="Path"></path>
        </g>
    </g>
</svg>