<?xml version="1.0" encoding="UTF-8"?>
<svg width="554px" height="545px" viewBox="0 0 554 545" version="1.1" xmlns="http://www.w3.org/2000/svg" xmlns:xlink="http://www.w3.org/1999/xlink">
    <!-- Generator: Sketch 53 (72520) - https://sketchapp.com -->
    <title>giraffe</title>
    <desc>Created with Sketch.</desc>
    <g id="Page-1" stroke="none" stroke-width="1" fill="none" fill-rule="evenodd">
        <g id="giraffe" fill="#404348" fill-rule="nonzero">
            <path d="M467.170972,134.780446 C444.549147,134.780446 423.372004,138.494881 407.768135,145.087867 C398.848085,139.524325 388.620685,134.781528 377.128105,130.878938 L393.788452,94.6407639 C397.108194,95.3739187 400.552292,95.7729365 404.088304,95.7729365 C430.401855,95.7729365 451.809325,74.370873 451.809325,48.0638095 C451.809325,21.7502579 430.401855,0.342787698 404.088304,0.342787698 C377.774752,0.342787698 356.367282,21.7491766 356.367282,48.0627282 C356.367282,62.6728373 362.975407,75.7636508 373.355278,84.5225794 L354.873938,124.720655 C347.797589,123.15378 340.378452,121.824802 332.581925,120.763998 C318.331905,80.9303373 299.428839,59.9218849 277.681825,59.9218849 C255.929405,59.9218849 237.022014,80.929256 222.770913,120.762917 C214.974385,121.82372 207.555248,123.15378 200.478899,124.721736 L181.998641,84.5204167 C192.377431,75.7614881 198.986637,62.671756 198.986637,48.0605655 C198.986637,21.7470139 177.579167,0.339543651 151.265615,0.339543651 C124.952063,0.339543651 103.543512,21.7480952 103.543512,48.0616468 C103.543512,74.3697917 124.950982,95.7707738 151.264534,95.7707738 C154.801627,95.7707738 158.244643,95.371756 161.564385,94.6396825 L178.223651,130.876776 C166.435863,134.879931 155.980298,139.771954 146.899127,145.523651 C131.213075,138.650595 109.685575,134.779365 86.4798214,134.779365 C43.5059226,134.780446 0,148.830417 0,175.684643 C0,202.545357 43.5059226,216.599653 86.4798214,216.599653 C91.8065476,216.599653 97.0597421,216.390952 102.21129,215.985446 C99.9382937,235.814147 102.734663,258.275933 110.628512,283.026935 C124.737956,327.291964 141.928165,361.333919 163.031776,386.765089 C160.199722,392.588155 158.683671,399.029752 158.683671,405.57624 C158.683671,417.047192 163.150724,427.831488 171.252192,435.935119 C179.351498,444.050645 190.139038,448.519861 201.627292,448.519861 L217.16628,448.519861 C223.866319,472.817778 231.012956,492.83247 238.447232,508.105446 C250.419931,532.703978 263.254464,544.661538 277.680744,544.661538 C292.10378,544.661538 304.933988,532.703978 316.905605,508.104365 C324.337718,492.830308 331.484355,472.815615 338.183313,448.519861 L353.733115,448.519861 C377.411419,448.519861 396.676736,429.255625 396.676736,405.57624 C396.676736,399.030833 395.155278,392.584911 392.315655,386.748869 C405.6887,370.593512 417.703571,350.623155 428.094256,327.247629 C430.650565,321.495933 428.060734,314.762371 422.310119,312.206062 C416.558423,309.649752 409.824861,312.239583 407.268552,317.990198 C398.310655,338.143304 388.148135,355.398393 376.985367,369.463502 C370.114474,365.021319 362.111409,362.630456 353.735278,362.630456 L353.723383,362.630456 C355.932579,340.299514 357.051776,317.032123 357.051776,293.275962 C357.051776,238.065516 351.072996,186.23753 340.081081,144.992708 C365.311121,149.44246 385.504236,156.952431 400.240863,167.409077 C414.588204,177.591062 423.70506,190.253661 428.119127,206.138681 C432.641329,222.311339 432.084435,241.785357 426.470069,264.021141 C424.928065,270.123194 428.62628,276.319325 434.727252,277.861329 C435.6637,278.098145 436.603393,278.211687 437.526865,278.211687 C442.622183,278.211687 447.262252,274.768671 448.56744,269.604147 C453.474603,250.177708 455.005794,232.255427 453.173988,216.10872 C457.76756,216.427718 462.440069,216.596409 467.172054,216.596409 C510.147034,216.596409 553.651875,202.542113 553.651875,175.681399 C553.650794,148.830417 510.144871,134.780446 467.170972,134.780446 Z M404.087222,23.1333036 C417.833333,23.1333036 429.016647,34.3166171 429.016647,48.0627282 C429.016647,61.8034325 417.833333,72.9802579 404.087222,72.9802579 C390.341111,72.9802579 379.157798,61.8023512 379.157798,48.0627282 C379.158879,34.3166171 390.342192,23.1333036 404.087222,23.1333036 Z M151.264534,72.9802579 C137.518423,72.9802579 126.335109,61.8023512 126.335109,48.0627282 C126.335109,34.3166171 137.518423,23.1333036 151.264534,23.1333036 C165.010645,23.1333036 176.193958,34.3166171 176.193958,48.0627282 C176.193958,61.8012698 165.010645,72.9802579 151.264534,72.9802579 Z M107.703462,192.533145 C100.877986,193.379841 93.7670337,193.808056 86.4809028,193.808056 C68.0849901,193.808056 50.2535417,190.944643 37.5552579,185.952054 C26.2908433,181.523929 22.7926786,176.877371 22.7926786,175.685724 C22.7926786,174.49624 26.2908433,169.855089 37.5541766,165.428046 C50.2535417,160.435456 68.0860714,157.573125 86.4809028,157.573125 C101.056409,157.573125 114.934444,159.319504 126.297262,162.425139 C118.082252,171.240298 111.863413,181.305496 107.703462,192.533145 Z M132.344167,276.104137 C123.583075,248.634623 121.88752,225.011468 127.306161,205.87375 C131.685625,190.343413 140.566746,177.916548 154.463165,167.881627 C169.258185,157.180595 189.671895,149.513829 215.271756,144.997034 C204.27876,186.241855 198.301062,238.067679 198.301062,293.278125 C198.301062,317.035367 199.419177,340.302758 201.629454,362.632619 C193.243591,362.632619 185.210248,365.059167 178.356657,369.48621 C160.151062,346.625407 145.04245,315.943204 132.344167,276.104137 Z M341.014286,385.426379 L353.734196,385.426379 C359.119315,385.426379 364.18003,387.522034 367.985298,391.328383 C368.432976,391.77498 368.883899,392.272401 369.365099,392.847679 C372.322589,396.491825 373.88622,400.893998 373.88622,405.579484 C373.88622,416.690347 364.846141,425.731508 353.734196,425.731508 L329.442768,425.731508 C324.256617,425.731508 319.725764,429.231835 318.41625,434.250377 C299.658085,506.131984 282.651706,521.874266 277.681825,521.874266 C272.709782,521.874266 255.696915,506.133065 236.936587,434.250377 C235.627073,429.233998 231.09622,425.731508 225.910069,425.731508 L201.628373,425.731508 C196.236766,425.731508 191.178214,423.638016 187.377272,419.829504 C183.570923,416.024236 181.475268,410.963522 181.475268,405.579484 C181.475268,400.87994 183.035655,396.481012 185.984494,392.863899 C189.840585,388.138403 195.54254,385.42746 201.628373,385.42746 L214.33747,385.42746 C217.595575,385.42746 220.699048,384.03252 222.860665,381.59624 C225.023363,379.158879 226.039831,375.911587 225.651627,372.67619 C222.626012,347.406141 221.090496,320.695734 221.090496,293.281369 C221.090496,233.4687 228.676161,175.886855 241.908631,135.191359 C241.965942,135.041052 242.017847,134.888581 242.069752,134.73503 C254.614484,96.3806548 268.689325,82.7156448 277.679663,82.7156448 C286.665675,82.7156448 300.735109,96.3806548 313.279841,134.73503 C313.329583,134.888581 313.383651,135.03997 313.440962,135.189196 C326.673433,175.884692 334.259097,233.466538 334.259097,293.280288 C334.259097,320.694653 332.723581,347.406141 329.697966,372.675109 C329.309762,375.910506 330.32623,379.156716 332.488929,381.595159 C334.652708,384.031438 337.755099,385.426379 341.014286,385.426379 Z M516.096617,185.952054 C503.398333,190.944643 485.566885,193.808056 467.170972,193.808056 C460.506617,193.808056 453.994732,193.44256 447.720744,192.734276 C443.507808,181.277381 437.151637,171.027272 428.719276,162.069375 C439.852847,159.185417 453.237788,157.572044 467.172054,157.572044 C485.566885,157.572044 503.399415,160.434375 516.09878,165.426964 C527.361032,169.854008 530.860278,174.495159 530.860278,175.684643 C530.859196,176.87629 527.35995,181.522847 516.096617,185.952054 Z" id="Shape"></path>
            <path d="M432.015228,285.723819 C426.088353,283.585992 419.562411,286.658105 417.427827,292.578492 L416.963929,293.864216 C414.819613,299.780278 417.877669,306.317034 423.79373,308.461349 C425.077292,308.926329 426.387887,309.146925 427.676855,309.146925 C432.33747,309.146925 436.712609,306.26621 438.391944,301.631548 L438.869901,300.312302 C441.004484,294.389752 437.935615,287.859484 432.015228,285.723819 Z" id="Path"></path>
            <path d="M231.011875,406.920357 L230.617183,402.243522 C230.088403,395.970615 224.562708,391.330546 218.303859,391.844187 C212.033115,392.372966 207.375744,397.885685 207.904524,404.15751 L208.299216,408.834345 C208.799881,414.780685 213.781657,419.274772 219.641488,419.274772 C219.962649,419.274772 220.284891,419.259633 220.61254,419.233681 C226.884365,418.704901 231.540655,413.192183 231.011875,406.920357 Z" id="Path"></path>
            <path d="M336.68997,391.845268 C330.427877,391.314325 324.895694,395.945744 324.352857,402.215407 L323.948433,406.892242 C323.404514,413.162986 328.048909,418.687599 334.318571,419.229355 C334.65379,419.25747 334.985764,419.272609 335.315575,419.272609 C341.164593,419.272609 346.142044,414.793661 346.655685,408.859216 L347.060109,404.182381 C347.604028,397.911637 342.960714,392.388105 336.68997,391.845268 Z" id="Path"></path>
            <path d="M182.396577,217.660456 C176.103125,217.660456 171.000238,222.763343 171.000238,229.056796 C171.000238,231.326548 169.153294,233.174573 166.881379,233.174573 C164.610546,233.174573 162.76252,231.327629 162.76252,229.056796 C162.76252,222.763343 157.659633,217.660456 151.366181,217.660456 C145.07381,217.660456 139.969841,222.763343 139.969841,229.056796 C139.969841,243.896151 152.043105,255.966171 166.880298,255.966171 C181.71749,255.966171 193.790754,243.893988 193.790754,229.056796 C193.792917,222.764425 188.688948,217.660456 182.396577,217.660456 Z" id="Path"></path>
            <path d="M407.613502,217.660456 C401.321131,217.660456 396.217163,222.763343 396.217163,229.056796 C396.217163,231.326548 394.370218,233.174573 392.099385,233.174573 C389.828552,233.174573 387.980526,231.327629 387.980526,229.056796 C387.980526,222.763343 382.877639,217.660456 376.584187,217.660456 C370.290734,217.660456 365.187847,222.763343 365.187847,229.056796 C365.187847,243.896151 377.261111,255.966171 392.098304,255.966171 C406.935496,255.966171 419.007679,243.893988 419.007679,229.056796 C419.009841,222.764425 413.906954,217.660456 407.613502,217.660456 Z" id="Path"></path>
            <path d="M278.526359,133.158423 C272.232907,133.158423 267.13002,138.26131 267.13002,144.554762 L267.13002,151.87874 C267.13002,158.171111 272.232907,163.275079 278.526359,163.275079 C284.81873,163.275079 289.922698,158.172192 289.922698,151.87874 L289.922698,144.554762 C289.922698,138.260228 284.820893,133.158423 278.526359,133.158423 Z" id="Path"></path>
            <path d="M278.526359,205.074633 C272.232907,205.074633 267.13002,210.17752 267.13002,216.470972 L267.13002,223.79495 C267.13002,230.088403 272.232907,235.19129 278.526359,235.19129 C284.81873,235.19129 289.922698,230.088403 289.922698,223.79495 L289.922698,216.470972 C289.922698,210.178601 284.820893,205.074633 278.526359,205.074633 Z" id="Path"></path>
            <path d="M252.894058,169.121935 C246.600605,169.121935 241.497718,174.224821 241.497718,180.518274 L241.497718,187.842252 C241.497718,194.135704 246.600605,199.238591 252.894058,199.238591 C259.186429,199.238591 264.290397,194.135704 264.290397,187.842252 L264.290397,180.518274 C264.289315,174.224821 259.18751,169.121935 252.894058,169.121935 Z" id="Path"></path>
            <path d="M304.158661,169.121935 C297.865208,169.121935 292.762321,174.224821 292.762321,180.518274 L292.762321,187.842252 C292.762321,194.135704 297.865208,199.238591 304.158661,199.238591 C310.452113,199.238591 315.555,194.135704 315.555,187.842252 L315.555,180.518274 C315.555,174.224821 310.453194,169.121935 304.158661,169.121935 Z" id="Path"></path>
        </g>
    </g>
</svg>