<?xml version="1.0" encoding="UTF-8"?>
<svg width="512px" height="512px" viewBox="0 0 512 512" version="1.1" xmlns="http://www.w3.org/2000/svg" xmlns:xlink="http://www.w3.org/1999/xlink">
    <!-- Generator: Sketch 53 (72520) - https://sketchapp.com -->
    <title>invercargill</title>
    <desc>Created with Sketch.</desc>
    <g id="Page-1" stroke="none" stroke-width="1" fill="none" fill-rule="evenodd">
        <g id="invercargill" fill="#404348" fill-rule="nonzero">
            <path d="M488.5,496.75 L488.5,481.702 C500.028,478.428 508.5,467.813 508.5,455.25 L508.5,394.25 C508.5,379.087 496.164,366.75 481,366.75 C465.836,366.75 453.5,379.087 453.5,394.25 L453.5,400.768 C449.747,398.844 445.5,397.75 441,397.75 C425.836,397.75 413.5,410.087 413.5,425.25 L413.5,455.25 C413.5,467.813 421.972,478.428 433.5,481.702 L433.5,496.75 L368.5,496.75 L368.5,426.75 L353.5,426.75 L353.5,281.75 L338.5,281.75 L338.5,181.75 L351,181.75 L351,166.75 L318.5,166.75 L318.5,116.75 L331,116.75 L331,101.75 L318.04,101.75 C315.261,78.954 299.989,59.246 278.5,50.943 L278.5,20.75 L262.5,20.75 L262.5,0.25 L247.5,0.25 L247.5,20.75 L233.5,20.75 L233.5,50.943 C212.011,59.245 196.74,78.954 193.96,101.75 L181,101.75 L181,116.75 L193.5,116.75 L193.5,166.75 L161,166.75 L161,181.75 L173.5,181.75 L173.5,281.75 L158.5,281.75 L158.5,426.75 L143.5,426.75 L143.5,496.75 L78.5,496.75 L78.5,481.702 C90.028,478.428 98.5,467.813 98.5,455.25 L98.5,425.25 C98.5,410.087 86.164,397.75 71,397.75 C66.5,397.75 62.253,398.843 58.5,400.768 L58.5,394.25 C58.5,379.087 46.164,366.75 31,366.75 C15.836,366.75 3.5,379.087 3.5,394.25 L3.5,455.25 C3.5,467.813 11.972,478.428 23.5,481.702 L23.5,496.75 L0,496.75 L0,511.75 L512,511.75 L512,496.75 L488.5,496.75 Z M18.5,455.25 L18.5,394.25 C18.5,387.357 24.107,381.75 31,381.75 C37.893,381.75 43.5,387.357 43.5,394.25 L43.5,425.25 L43.5,455.25 C43.5,462.143 37.893,467.75 31,467.75 C24.107,467.75 18.5,462.143 18.5,455.25 Z M63.5,496.75 L38.5,496.75 L38.5,481.702 C43.34,480.327 47.639,477.66 51,474.095 C54.361,477.66 58.66,480.327 63.5,481.702 L63.5,496.75 Z M58.5,455.25 L58.5,425.25 C58.5,418.357 64.107,412.75 71,412.75 C77.893,412.75 83.5,418.357 83.5,425.25 L83.5,455.25 C83.5,462.143 77.893,467.75 71,467.75 C64.107,467.75 58.5,462.143 58.5,455.25 Z M243.042,63.555 L248.5,62.01 L248.5,35.75 L263.5,35.75 L263.5,62.01 L268.958,63.555 C286.853,68.619 299.994,83.775 302.894,101.75 L209.106,101.75 C212.006,83.775 225.147,68.618 243.042,63.555 Z M208.5,116.75 L303.5,116.75 L303.5,166.75 L208.5,166.75 L208.5,116.75 Z M188.5,181.75 L323.5,181.75 L323.5,281.75 L188.5,281.75 L188.5,181.75 Z M173.5,296.75 L338.5,296.75 L338.5,396.75 L173.5,396.75 L173.5,296.75 Z M338.5,411.75 L338.5,426.75 L323.5,426.75 L323.5,411.75 L338.5,411.75 Z M278.5,411.75 L278.5,426.75 L263.5,426.75 L263.5,411.75 L278.5,411.75 Z M248.5,411.75 L248.5,426.75 L233.5,426.75 L233.5,411.75 L248.5,411.75 Z M173.5,411.75 L188.5,411.75 L188.5,426.75 L173.5,426.75 L173.5,411.75 Z M213.5,496.75 L158.5,496.75 L158.5,441.75 L213.5,441.75 L213.5,496.75 Z M218.5,426.75 L203.5,426.75 L203.5,411.75 L218.5,411.75 L218.5,426.75 Z M284,496.75 L228.5,496.75 L228.5,441.75 L284,441.75 L284,496.75 Z M293.5,411.75 L308.5,411.75 L308.5,426.75 L293.5,426.75 L293.5,411.75 Z M353.5,496.75 L299,496.75 L299,441.75 L353.5,441.75 L353.5,496.75 Z M428.5,455.25 L428.5,425.25 C428.5,418.357 434.107,412.75 441,412.75 C447.893,412.75 453.5,418.357 453.5,425.25 L453.5,455.25 C453.5,462.143 447.893,467.75 441,467.75 C434.107,467.75 428.5,462.143 428.5,455.25 Z M473.5,496.75 L448.5,496.75 L448.5,481.702 C453.34,480.327 457.639,477.66 461,474.095 C464.361,477.66 468.66,480.327 473.5,481.702 L473.5,496.75 Z M468.5,455.25 L468.5,425.25 L468.5,394.25 C468.5,387.357 474.107,381.75 481,381.75 C487.893,381.75 493.5,387.357 493.5,394.25 L493.5,455.25 C493.5,462.143 487.893,467.75 481,467.75 C474.107,467.75 468.5,462.143 468.5,455.25 Z" id="Shape"></path>
            <path d="M286,196.75 C273.593,196.75 263.5,206.844 263.5,219.25 L263.5,266.75 L308.5,266.75 L308.5,219.25 C308.5,206.844 298.407,196.75 286,196.75 Z M293.5,251.75 L278.5,251.75 L278.5,219.25 C278.5,215.114 281.864,211.75 286,211.75 C290.136,211.75 293.5,215.114 293.5,219.25 L293.5,251.75 Z" id="Shape"></path>
            <path d="M226,196.75 C213.593,196.75 203.5,206.844 203.5,219.25 L203.5,266.75 L248.5,266.75 L248.5,219.25 C248.5,206.844 238.407,196.75 226,196.75 Z M233.5,251.75 L218.5,251.75 L218.5,219.25 C218.5,215.114 221.864,211.75 226,211.75 C230.136,211.75 233.5,215.114 233.5,219.25 L233.5,251.75 Z" id="Shape"></path>
            <path d="M474.75,87.25 C474.496,87.25 474.241,87.253 473.987,87.259 C466.021,73.423 451.267,64.75 435,64.75 C422.498,64.75 410.869,69.788 402.401,78.726 C400.538,78.41 398.65,78.25 396.75,78.25 C381.535,78.25 368.33,88.63 364.283,102.822 C352.424,105.346 343.5,115.9 343.5,128.5 C343.5,142.975 355.276,154.75 369.75,154.75 L474.75,154.75 C493.36,154.75 508.5,139.609 508.5,121 C508.5,102.391 493.36,87.25 474.75,87.25 Z M474.75,139.75 L369.75,139.75 C363.547,139.75 358.5,134.703 358.5,128.5 C358.5,122.297 363.547,117.25 369.75,117.25 C369.922,117.25 370.094,117.256 370.264,117.264 L377.47,117.588 L378.075,110.4 C378.884,100.783 387.087,93.25 396.75,93.25 C398.781,93.25 400.789,93.578 402.717,94.226 L407.825,95.942 L411.081,91.648 C416.815,84.087 425.533,79.75 435,79.75 C447.124,79.75 457.988,86.977 462.678,98.159 L465.049,103.811 L471.06,102.614 C472.274,102.373 473.516,102.25 474.75,102.25 C485.089,102.25 493.5,110.661 493.5,121 C493.5,131.339 485.089,139.75 474.75,139.75 Z" id="Shape"></path>
            <path d="M107.192,165.281 C101.841,150.78 87.843,140.75 72,140.75 C61.205,140.75 51.1,145.346 44.037,153.267 C42.176,152.923 40.292,152.75 38.4,152.75 C21.031,152.75 6.9,166.881 6.9,184.25 C6.9,201.619 21.031,215.75 38.4,215.75 L102,215.75 C116.061,215.75 127.5,204.311 127.5,190.25 C127.5,177.969 118.771,167.687 107.192,165.281 Z M102,200.75 L38.4,200.75 C29.302,200.75 21.9,193.348 21.9,184.25 C21.9,175.152 29.302,167.75 38.4,167.75 C40.367,167.75 42.332,168.117 44.24,168.84 L49.87,170.975 L53.171,165.94 C57.354,159.56 64.393,155.75 72,155.75 C82.67,155.75 91.944,163.326 94.053,173.765 L95.311,179.994 L101.662,179.775 C101.807,179.77 101.951,179.762 102.13,179.751 C107.86,179.82 112.5,184.504 112.5,190.25 C112.5,196.04 107.79,200.75 102,200.75 Z" id="Shape"></path>
            <path d="M116,26.75 C92.565,26.75 73.5,45.815 73.5,69.25 C73.5,92.685 92.565,111.75 116,111.75 C139.435,111.75 158.5,92.685 158.5,69.25 C158.5,45.815 139.435,26.75 116,26.75 Z M116,96.75 C100.836,96.75 88.5,84.413 88.5,69.25 C88.5,54.087 100.836,41.75 116,41.75 C131.164,41.75 143.5,54.087 143.5,69.25 C143.5,84.413 131.164,96.75 116,96.75 Z" id="Shape"></path>
            <path d="M256.50085,74 C251.817818,74 248,77.8180091 248,82.5012749 C248,87.1819909 251.817818,91 256.50085,91 C261.182182,91 265,87.1819909 265,82.5012749 C265,77.8188591 261.182182,74 256.50085,74 Z" id="Path"></path>
            <rect id="Rectangle" x="248.5" y="325.25" width="15" height="45"></rect>
            <rect id="Rectangle" x="188.5" y="325.25" width="15" height="45"></rect>
            <rect id="Rectangle" x="218.5" y="310.25" width="15" height="75"></rect>
            <rect id="Rectangle" x="308.5" y="325.25" width="15" height="45"></rect>
            <rect id="Rectangle" x="278.5" y="310.25" width="15" height="75"></rect>
            <rect id="Rectangle" x="248.5" y="454.25" width="15" height="30"></rect>
            <rect id="Rectangle" x="178.5" y="454.25" width="15" height="30"></rect>
            <rect id="Rectangle" x="319.5" y="454.25" width="15" height="30"></rect>
            <path d="M398.50085,109 C393.817818,109 390,112.818009 390,117.501275 C390,122.181991 393.817818,126 398.50085,126 C403.182182,126 407,122.181991 407,117.501275 C407,112.818859 403.182182,109 398.50085,109 Z" id="Path"></path>
            <rect id="Rectangle" x="421" y="109.75" width="35" height="15"></rect>
            <path d="M72.5008499,169 C67.8178182,169 64,172.818009 64,177.501275 C64,182.181991 67.8178182,186 72.5008499,186 C77.1821818,186 81,182.181991 81,177.501275 C81,172.818859 77.1821818,169 72.5008499,169 Z" id="Path"></path>
            <path d="M230.50085,131 C225.817818,131 222,134.818009 222,139.501275 C222,144.181991 225.817818,148 230.50085,148 C235.182182,148 239,144.181991 239,139.501275 C239,134.818859 235.182182,131 230.50085,131 Z" id="Path"></path>
            <polygon id="Path" points="253 131.75 253 146.75 273.5 146.75 273.5 158.25 288.5 158.25 288.5 131.75"></polygon>
        </g>
    </g>
</svg>