<?xml version="1.0" encoding="UTF-8"?>
<svg width="73px" height="32px" viewBox="0 0 73 32" version="1.1" xmlns="http://www.w3.org/2000/svg" xmlns:xlink="http://www.w3.org/1999/xlink">
    <!-- Generator: Sketch 53 (72520) - https://sketchapp.com -->
    <title>Tripsy</title>
    <desc>Created with Sketch.</desc>
    <defs>
        <path d="M13.3583984,4.24804688 L9.0419922,4.24804688 L7.23925781,19 L3.07519531,19 L4.890625,4.24804688 L0.58691406,4.24804688 L1.03125,0.52832031 L13.8027344,0.52832031 L13.3583984,4.24804688 Z M17.28125,8.03125 C18.296875,6.7109375 19.5029297,6.05078125 20.8994141,6.05078125 L20.3535156,10.3671875 C19.8710938,10.1809895 19.4140625,10.1429036 18.9824219,10.2529297 C18.5507812,10.3629558 18.1635742,10.5851238 17.8208008,10.9194336 C17.4780273,11.2537434 17.1860352,11.7150066 16.9448242,12.3032227 C16.7036133,12.8914387 16.5364583,13.5748699 16.4433594,14.3535156 L15.8720703,19 L11.9746094,19 L13.5361328,6.27929688 L17.4335938,6.27929688 L17.2177734,8.03125 L17.28125,8.03125 Z M25.1904297,0.13476562 C25.8759766,0.13476562 26.4366863,0.34423828 26.8725586,0.76318359 C27.3084309,1.18212891 27.5263672,1.71321608 27.5263672,2.35644531 C27.5263672,3.02506517 27.2999675,3.57942702 26.847168,4.01953125 C26.3943684,4.45963548 25.8125,4.6796875 25.1015625,4.6796875 C24.4160156,4.6796875 23.8553059,4.46598314 23.4194336,4.03857422 C22.9835613,3.6111653 22.765625,3.07584642 22.765625,2.43261719 C22.765625,1.76399733 22.9920247,1.21386719 23.4448242,0.78222656 C23.8976238,0.35058594 24.4794922,0.13476562 25.1904297,0.13476562 Z M22.6894531,6.27929688 L26.5869141,6.27929688 L25.0253906,19 L21.1279297,19 L22.6894531,6.27929688 Z M36.984375,6.03808594 C37.8391926,6.03808594 38.5776367,6.27294922 39.199707,6.74267578 C39.8217773,7.21240234 40.2809245,7.83447266 40.5771484,8.60888672 C40.8733723,9.3833008 41.0214844,10.265625 41.0214844,11.2558594 C41.0214844,12.3645833 40.862793,13.4140625 40.5454102,14.4042969 C40.2280273,15.3945312 39.8006184,16.2430012 39.2631836,16.949707 C38.7257488,17.6564128 38.0804036,18.2150066 37.3271484,18.6254883 C36.5738933,19.03597 35.7740886,19.2412109 34.9277344,19.2412109 C33.6920574,19.2412109 32.6975911,18.9407551 31.9443359,18.3398438 L31.8935547,18.3398438 L31.1826172,24.1416016 L27.2724609,24.1416016 L29.46875,6.27929688 L33.3789062,6.27929688 L33.125,8.27246094 L33.1757812,8.27246094 C34.1914062,6.78287767 35.4609375,6.03808594 36.984375,6.03808594 Z M34.0771484,15.7626953 C34.5595703,15.7626953 34.9975586,15.6357422 35.3911133,15.3818359 C35.784668,15.1279297 36.1020508,14.7957356 36.3432617,14.3852539 C36.5844727,13.9747722 36.7706706,13.5198567 36.9018555,13.0205078 C37.0330403,12.5211589 37.0986328,12.0133464 37.0986328,11.4970703 C37.0986328,10.930013 36.9716797,10.4581706 36.7177734,10.081543 C36.4638672,9.7049153 36.1210938,9.5166016 35.6894531,9.5166016 C34.9277344,9.5166016 34.2146809,9.9694011 33.550293,10.875 C32.885905,11.7805989 32.4479167,13.0120442 32.2363281,14.5693359 L32.1855469,14.9755859 C32.5748699,15.5003255 33.2054036,15.7626953 34.0771484,15.7626953 Z M43.7255859,14.7851562 C44.0979817,15.2337239 44.5507812,15.5976562 45.0839844,15.8769531 C45.6171875,16.15625 46.1292317,16.2958984 46.6201172,16.2958984 C46.9671223,16.2958984 47.2464192,16.2345378 47.4580078,16.1118164 C47.6695964,15.989095 47.7753906,15.8177083 47.7753906,15.5976562 C47.7753906,15.3945312 47.6695964,15.2189128 47.4580078,15.0708008 C47.2464192,14.9226887 46.8020833,14.679362 46.125,14.3408203 C45.9895833,14.2646484 45.8837891,14.2096355 45.8076172,14.1757812 C44.7666016,13.6510417 43.9879558,13.090332 43.4716797,12.4936523 C42.9554036,11.8969727 42.6972656,11.1627605 42.6972656,10.2910156 C42.6972656,9.4615886 42.9088542,8.72102858 43.3320312,8.06933594 C43.7552083,7.41764329 44.3243816,6.91617845 45.0395508,6.56494141 C45.75472,6.21370436 46.5439453,6.03808594 47.4072266,6.03808594 C48.2958984,6.03808594 49.1422527,6.21158861 49.9462891,6.55859375 C50.7503255,6.90559889 51.4316406,7.41341139 51.9902344,8.08203125 L49.6416016,10.3164062 C49.4215495,10.0117188 49.171875,9.7599284 48.8925781,9.5610352 C48.6132812,9.3621419 48.359375,9.2267253 48.1308594,9.1547852 C47.9023438,9.082845 47.6780598,9.0426433 47.4580078,9.0341797 C47.2802734,9.0257161 47.1152344,9.0532227 46.9628906,9.1166992 C46.8105469,9.1801758 46.6857097,9.2711589 46.5883789,9.3896484 C46.4910481,9.508138 46.4423828,9.6477864 46.4423828,9.8085938 C46.4423828,10.0117188 46.586263,10.2190755 46.8740234,10.4306641 C47.1617839,10.6422527 47.6145833,10.9003906 48.2324219,11.2050781 C48.6725261,11.4251301 49.0428059,11.6240234 49.3432617,11.8017578 C49.6437175,11.9794922 49.9441731,12.1889648 50.2446289,12.4301758 C50.5450847,12.6713867 50.7820637,12.9168294 50.9555664,13.1665039 C51.1290691,13.4161784 51.2708333,13.7039387 51.3808594,14.0297852 C51.4908855,14.3556316 51.5458984,14.7132161 51.5458984,15.1025391 C51.554362,16.3551433 51.1036784,17.358073 50.1938477,18.1113281 C49.2840169,18.8645833 48.0589192,19.2412109 46.5185547,19.2412109 C45.570638,19.2412109 44.6396484,19.0465495 43.7255859,18.6572266 C42.8115234,18.2679036 42.0836589,17.7347005 41.5419922,17.0576172 L43.7255859,14.7851562 Z M61.8925781,6.27929688 L65.7900391,6.27929688 L64.4316406,17.2734375 C63.8561199,22.0130208 61.4567058,24.3828125 57.2333984,24.3828125 C55.5152995,24.3828125 53.9876301,23.9723308 52.6503906,23.1513672 L53.8691406,20.2060547 C54.8255208,20.8577473 55.8834636,21.1835938 57.0429688,21.1835938 C57.4238281,21.1835938 57.7560222,21.1539714 58.0395508,21.0947266 C58.3230794,21.0354817 58.6066081,20.9191081 58.8901367,20.7456055 C59.1736653,20.5721028 59.4169922,20.3393555 59.6201172,20.0473633 C59.8232422,19.7553711 60.0073242,19.3660481 60.1723633,18.8793945 C60.3374023,18.3927409 60.4664714,17.8108723 60.5595703,17.1337891 L60.5087891,17.1337891 C59.5016277,18.538737 58.2278645,19.2412109 56.6875,19.2412109 C56.1966145,19.2412109 55.7649739,19.186198 55.3925781,19.0761719 C55.0201824,18.9661458 54.6858723,18.7884114 54.3896484,18.5429688 C54.0934245,18.2975261 53.8649089,17.9801433 53.7041016,17.5908203 C53.5432942,17.2014973 53.4332683,16.7233074 53.3740234,16.15625 C53.3147786,15.5891926 53.3359375,14.9332683 53.4375,14.1884766 L54.4023438,6.27929688 L58.2744141,6.27929688 L57.4619141,13.0205078 C57.3264973,14.0530598 57.3180339,14.7661133 57.4365234,15.159668 C57.555013,15.5532227 57.8385417,15.75 58.2871094,15.75 C58.6595051,15.75 59.0551758,15.5743816 59.4741211,15.2231445 C59.8930664,14.8719075 60.2612305,14.4127605 60.5786133,13.8457031 C60.8959961,13.2786458 61.0970051,12.703125 61.1816406,12.1191406 L61.8925781,6.27929688 Z" id="path-1"></path>
        <filter x="-10.0%" y="-22.7%" width="119.9%" height="153.6%" filterUnits="objectBoundingBox" id="filter-2">
            <feOffset dx="0" dy="1" in="SourceAlpha" result="shadowOffsetOuter1"></feOffset>
            <feGaussianBlur stdDeviation="2" in="shadowOffsetOuter1" result="shadowBlurOuter1"></feGaussianBlur>
            <feColorMatrix values="0 0 0 0 0   0 0 0 0 0   0 0 0 0 0  0 0 0 0.1 0" type="matrix" in="shadowBlurOuter1"></feColorMatrix>
        </filter>
    </defs>
    <g id="Page-1" stroke="none" stroke-width="1" fill="none" fill-rule="evenodd">
        <g id="Tripsy" transform="translate(4.000000, 3.000000)" fill-rule="nonzero">
            <g>
                <use fill="black" fill-opacity="1" filter="url(#filter-2)" xlink:href="#path-1"></use>
                <use fill="#FFFFFF" xlink:href="#path-1"></use>
            </g>
        </g>
    </g>
</svg>