<?xml version="1.0" encoding="UTF-8"?>
<svg width="440px" height="512px" viewBox="0 0 440 512" version="1.1" xmlns="http://www.w3.org/2000/svg" xmlns:xlink="http://www.w3.org/1999/xlink">
    <!-- Generator: Sketch 53 (72520) - https://sketchapp.com -->
    <title>sloth (1)</title>
    <desc>Created with Sketch.</desc>
    <g id="Page-1" stroke="none" stroke-width="1" fill="none" fill-rule="evenodd">
        <g id="sloth-(1)" fill="#404348" fill-rule="nonzero">
            <path d="M280,183 C274.48,183 270,187.48 270,193 C270,198.52 274.48,203 280,203 C285.52,203 290,198.52 290,193 C290,187.48 285.52,183 280,183 Z" id="Path"></path>
            <path d="M170,193 C170,187.48 165.52,183 160,183 C154.48,183 150,187.48 150,193 C150,198.52 154.48,203 160,203 C165.52,203 170,198.52 170,193 Z" id="Path"></path>
            <path d="M418.601,299.262 C408.799,258.681 400,219.253 400,183 C400,134.853 381.287,89.168 347.309,54.362 C313.086,19.306 267.874,0 220,0 C172.126,0 126.914,19.306 92.692,54.362 C58.713,89.168 40,134.853 40,183 C40,219.253 31.202,258.681 21.4,299.26 C10.572,344.052 0,391.739 0,439 C0,461.413 3.319,485.416 9.105,504.854 C10.367,509.094 14.266,512 18.689,512 L421.309,512 C425.733,512 429.631,509.094 430.893,504.854 C436.681,485.417 440,461.414 440,439 C440,391.743 429.428,344.055 418.601,299.262 Z M413.675,492 L26.325,492 C22.278,475.765 20,456.868 20,439 C20,393.938 30.295,347.58 40.84,303.958 C50.937,262.157 60,221.453 60,183 C60,94.645 133.271,20 220,20 C306.729,20 380,94.645 380,183 C380,221.453 389.063,262.157 399.16,303.959 C409.705,347.582 420,393.941 420,439 C420,456.869 417.723,475.765 413.675,492 Z" id="Shape"></path>
            <path d="M278.265,83.369 C259.797,81.728 241.966,85.699 226.71,94.109 C222.545,96.413 217.479,96.426 213.284,94.101 C197.987,85.675 180.183,81.735 161.707,83.372 C115.89,87.523 80,128.224 80,176.03 L80,223 C80,300.319 142.892,363 220,363 C297.26,363 360,300.161 360,223 L360,176.03 C360,128.223 324.105,87.522 278.265,83.369 Z M340,181.044 C336.426,176.752 332.394,172.666 327.924,168.834 C308.748,152.416 283.991,143 260,143 C243.458,143 230,156.458 230,173 L230,193 C230,220.57 252.43,242.9 280,242.9 L338.325,242.9 C328.709,299.775 278.697,343 220,343 C161.301,343 111.288,299.877 101.674,243 L160,243 C187.57,243 210,220.57 210,193 L210,173 C210,156.458 196.542,143 180,143 C156.008,143 131.251,152.416 112.072,168.837 C107.603,172.667 103.573,176.752 100,181.043 L100,176.029 C100,138.467 127.898,106.516 163.491,103.29 C178.083,102.002 191.899,105.153 203.611,111.604 C208.642,114.395 214.309,115.869 220.001,115.869 C225.685,115.869 231.352,114.396 236.378,111.616 C248.463,104.955 262.451,102.045 276.479,103.288 C312.098,106.516 340,138.468 340,176.03 L340,181.044 Z M338.774,223 L280,223 C263.458,223 250,209.542 250,193 L250,173 C250,167.486 254.486,163 260,163 C279.293,163 299.31,170.664 314.912,184.023 C327.874,195.133 336.131,208.714 338.774,223 Z M101.226,223 C103.87,208.714 112.125,195.134 125.084,184.026 C140.69,170.664 160.706,163 180,163 C185.514,163 190,167.486 190,173 L190,193 C190,209.542 176.542,223 160,223 L101.226,223 Z" id="Shape"></path>
            <path d="M163.461,279.539 C159.556,275.634 153.224,275.634 149.319,279.539 C145.414,283.444 145.413,289.776 149.319,293.681 C168.225,312.587 193.327,323 220,323 C246.672,323 271.774,312.587 290.682,293.681 C294.587,289.776 294.587,283.444 290.682,279.539 C286.777,275.634 280.447,275.634 276.539,279.539 C261.409,294.668 241.33,303 220,303 C198.669,303 178.59,294.668 163.461,279.539 Z" id="Path"></path>
        </g>
    </g>
</svg>