<?xml version="1.0" encoding="UTF-8"?>
<svg width="458px" height="512px" viewBox="0 0 458 512" version="1.1" xmlns="http://www.w3.org/2000/svg" xmlns:xlink="http://www.w3.org/1999/xlink">
    <!-- Generator: Sketch 53 (72520) - https://sketchapp.com -->
    <title>costume</title>
    <desc>Created with Sketch.</desc>
    <g id="Page-1" stroke="none" stroke-width="1" fill="none" fill-rule="evenodd">
        <g id="costume" fill="#404348" fill-rule="nonzero">
            <path d="M168.179688,101.578125 C167.777344,101.03125 167.316406,100.523438 166.8125,100.070312 C156.457031,88.558594 146.609375,76.554688 137.292969,64.082031 C137.105469,63.808594 136.910156,63.539062 136.699219,63.285156 C126.25,49.238281 116.460938,34.613281 107.40625,19.414062 L98.746094,4.882812 C96.945312,1.855469 93.679688,0 90.15625,0 L52.160156,0 C46.640625,0 42.164062,4.476562 42.164062,10 L42.164062,79.792969 C42.164062,117.777344 28.109375,154.195312 2.59375,182.332031 C0.925781,184.171875 -2.84217094e-14,186.566406 -2.84217094e-14,189.050781 L-2.84217094e-14,462.457031 C-2.84217094e-14,465.140625 1.078125,467.707031 2.988281,469.585938 L43.152344,509.082031 C47.066406,512.933594 53.351562,512.90625 57.234375,509.023438 L92.777344,473.480469 L128.371094,509.070312 C130.246094,510.945312 132.789062,512 135.441406,512 C138.09375,512 140.636719,510.945312 142.511719,509.070312 L173.984375,477.597656 L205.410156,509.023438 C209.316406,512.929688 215.648438,512.929688 219.550781,509.023438 L252.976562,475.597656 L286.402344,509.023438 C288.328125,510.949219 290.957031,511.984375 293.667969,511.953125 C296.386719,511.898438 298.96875,510.742188 300.816406,508.742188 L337.8125,468.746094 C339.519531,466.898438 340.46875,464.476562 340.46875,461.957031 L340.46875,232.003906 C340.46875,228.085938 338.179688,224.527344 334.613281,222.902344 C270.828125,193.859375 214.507812,152.644531 168.179688,101.578125 Z M293.191406,487.53125 L260.046875,454.386719 C256.144531,450.484375 249.8125,450.484375 245.90625,454.386719 L212.480469,487.8125 L181.054688,456.386719 C177.148438,452.484375 170.816406,452.484375 166.910156,456.386719 L135.4375,487.859375 L99.847656,452.269531 C97.972656,450.394531 95.429688,449.339844 92.777344,449.339844 C90.125,449.339844 87.582031,450.394531 85.707031,452.269531 L50.101562,487.871094 L19.996094,458.265625 L19.996094,430.046875 L19.996094,340.96875 L19.996094,194.644531 C22.2426464,191.49663 25.2061881,187.173713 28.886719,181.675781 C50.449219,152.214844 62.160156,116.660156 62.160156,79.792969 L62.160156,20 L84.476562,20 L90.226562,29.652344 C94.778646,37.2903647 102.015625,48.4596353 111.9375,63.160156 L155.71875,117.488281 C167.253906,130.015625 179.394531,142.003906 192.128906,153.40625 C227.894531,185.441406 267.699219,212.375 310.652344,233.644531 L320.472656,238.816406 L320.472656,388.964844 L239.3125,388.964844 C233.789062,388.964844 229.3125,393.445312 229.3125,398.964844 C229.3125,404.488281 233.789062,408.964844 239.3125,408.964844 L320.472656,408.964844 L320.472656,458.042969 L293.191406,487.53125 Z" id="Shape"></path>
            <path d="M419.460938,353.632812 C416.832031,353.632812 414.25,354.699219 412.390625,356.5625 C410.53125,358.421875 409.460938,361 409.460938,363.628906 C409.460938,366.261719 410.53125,368.839844 412.390625,370.699219 C414.25,372.570312 416.832031,373.628906 419.460938,373.628906 C422.089844,373.628906 424.671875,372.570312 426.53125,370.699219 C428.390625,368.839844 429.460938,366.261719 429.460938,363.628906 C429.460938,361 428.390625,358.429688 426.53125,356.5625 C424.671875,354.699219 422.089844,353.632812 419.460938,353.632812 Z" id="Path"></path>
            <path d="M456.226562,125.15625 L436.890625,96.746094 L436.890625,60.976562 C436.890625,59.691406 436.644531,58.417969 436.164062,57.226562 L429.289062,40.234375 C429.058594,39.664062 428.773438,39.117188 428.445312,38.597656 L408.023438,6.648438 C405.046875,1.992188 399.78125,-0.527344 394.285156,0.09375 C388.789062,0.707031 384.210938,4.320312 382.335938,9.527344 L369.351562,45.566406 L362.160156,57.453125 C361.21875,59.015625 360.71875,60.804688 360.71875,62.628906 L360.71875,77.253906 L342.359375,108.335938 C341.449219,109.875 340.96875,111.632812 340.96875,113.421875 L340.96875,169.539062 C340.96875,172.363281 342.164062,175.054688 344.253906,176.953125 L369.464844,199.785156 L369.464844,501.953125 C369.464844,507.476562 373.941406,511.953125 379.464844,511.953125 L419.460938,511.953125 C424.984375,511.953125 429.460938,507.476562 429.460938,501.953125 L429.460938,402.964844 C429.460938,397.441406 424.984375,392.964844 419.460938,392.964844 C413.9375,392.964844 409.460938,397.441406 409.460938,402.964844 L409.460938,491.957031 L389.464844,491.957031 L389.464844,205.347656 L409.460938,205.347656 L409.460938,323.636719 C409.460938,329.160156 413.9375,333.636719 419.460938,333.636719 C424.984375,333.636719 429.460938,329.160156 429.460938,323.636719 L429.460938,199.71875 L454.75,176.328125 C456.796875,174.4375 457.957031,171.773438 457.957031,168.988281 L457.957031,130.78125 C457.957031,128.773438 457.351562,126.8125 456.226562,125.15625 Z M379.324219,85.074219 C380.234375,83.535156 380.714844,81.777344 380.714844,79.988281 L380.714844,65.417969 L386.976562,55.070312 C387.320312,54.503906 387.605469,53.902344 387.832031,53.28125 L397.296875,27 L411.09375,48.589844 L416.894531,62.921875 L416.894531,99.828125 C416.894531,101.835938 417.496094,103.792969 418.625,105.453125 L433.371094,127.117188 C422.839844,133.035156 413.089844,140.039062 404.238281,148.027344 C391.335938,136.96875 376.78125,127.925781 360.964844,121.230469 L360.964844,116.152344 L379.324219,85.074219 Z M360.964844,143.222656 C371.496094,148.425781 381.304688,154.851562 390.234375,162.367188 C385.511719,167.84375 381.125,173.636719 377.144531,179.753906 L360.964844,165.105469 L360.964844,143.222656 Z M397.558594,185.347656 C399.800781,182.222656 402.167969,179.199219 404.648438,176.277344 C407.269531,179.1875 409.773438,182.21875 412.171875,185.347656 L397.558594,185.347656 Z M428.3125,173.542969 C425.25,169.523438 422.03125,165.652344 418.644531,161.949219 C424.632812,156.648438 431.097656,151.871094 437.960938,147.621094 L437.960938,164.617188 L428.3125,173.542969 Z" id="Shape"></path>
            <path d="M197.441406,388.96875 C194.8125,388.96875 192.230469,390.027344 190.371094,391.886719 C188.511719,393.757812 187.441406,396.328125 187.441406,398.96875 C187.441406,401.597656 188.511719,404.175781 190.371094,406.035156 C192.230469,407.894531 194.8125,408.964844 197.441406,408.964844 C200.070312,408.964844 202.652344,407.898438 204.511719,406.035156 C206.371094,404.175781 207.441406,401.597656 207.441406,398.96875 C207.441406,396.328125 206.371094,393.757812 204.511719,391.886719 C202.652344,390.027344 200.070312,388.96875 197.441406,388.96875 Z" id="Path"></path>
            <path d="M135.152344,281.640625 L95.707031,281.640625 C90.1875,281.640625 85.710938,286.121094 85.710938,291.640625 C85.710938,297.164062 90.1875,301.640625 95.707031,301.640625 L135.152344,301.640625 C140.675781,301.640625 145.152344,297.164062 145.152344,291.640625 C145.152344,286.121094 140.675781,281.640625 135.152344,281.640625 Z" id="Path"></path>
        </g>
    </g>
</svg>