<?xml version="1.0" encoding="UTF-8"?>
<svg width="512px" height="458px" viewBox="0 0 512 458" version="1.1" xmlns="http://www.w3.org/2000/svg" xmlns:xlink="http://www.w3.org/1999/xlink">
    <!-- Generator: Sketch 53 (72520) - https://sketchapp.com -->
    <title>maya-pyramid</title>
    <desc>Created with Sketch.</desc>
    <g id="Page-1" stroke="none" stroke-width="1" fill="none" fill-rule="evenodd">
        <g id="maya-pyramid" transform="translate(-1.000000, 0.000000)" fill="#404348" fill-rule="nonzero">
            <path d="M162.332031,358 C159.699219,358 157.121094,359.070312 155.261719,360.929688 C153.398438,362.789062 152.332031,365.371094 152.332031,368 C152.332031,370.628906 153.398438,373.210938 155.261719,375.070312 C157.121094,376.929688 159.699219,378 162.332031,378 C164.96875,378 167.539062,376.929688 169.398438,375.070312 C171.269531,373.210938 172.332031,370.628906 172.332031,368 C172.332031,365.371094 171.269531,362.789062 169.398438,360.929688 C167.539062,359.070312 164.960938,358 162.332031,358 Z" id="Path"></path>
            <path d="M401.5,438 C398.871094,438 396.289062,439.070312 394.429688,440.929688 C392.570312,442.789062 391.5,445.371094 391.5,448 C391.5,450.628906 392.570312,453.210938 394.429688,455.070312 C396.292969,456.929688 398.871094,458 401.5,458 C404.128906,458 406.710938,456.929688 408.570312,455.070312 C410.429688,453.210938 411.5,450.628906 411.5,448 C411.5,445.371094 410.429688,442.789062 408.570312,440.929688 C406.710938,439.070312 404.128906,438 401.5,438 Z" id="Path"></path>
            <path d="M511.84375,443.332031 L490.722656,403.332031 C488.992188,400.050781 485.585938,398 481.878906,398 L473.144531,398 L458.152344,363.96875 C456.554688,360.339844 452.964844,358 449,358 L427.84375,358 L414.78125,324.378906 C413.289062,320.53125 409.585938,318 405.460938,318 L386.574219,318 L371.902344,284.035156 C370.320312,280.371094 366.714844,278 362.722656,278 L343.570312,278 L328.503906,243.953125 C326.902344,240.335938 323.316406,238 319.359375,238 L303.75,238 L303.75,209.976562 C309.039062,209.714844 313.25,205.355469 313.25,200 L313.25,160 C313.25,154.476562 308.773438,150 303.25,150 L210.75,150 C205.226562,150 200.75,154.476562 200.75,160 L200.75,200 C200.75,205.355469 204.960938,209.714844 210.25,209.976562 L210.25,238 L194.640625,238 C190.679688,238 187.097656,240.335938 185.496094,243.953125 L170.429688,278 L151.277344,278 C147.289062,278 143.679688,280.371094 142.097656,284.035156 L127.425781,318 L108.539062,318 C104.414062,318 100.710938,320.53125 99.21875,324.378906 L86.15625,358 L65,358 C61.035156,358 57.445312,360.339844 55.847656,363.96875 L40.855469,398 L32.121094,398 C28.414062,398 25.011719,400.050781 23.277344,403.332031 L2.15625,443.332031 C0.519531,446.429688 0.625,450.160156 2.433594,453.164062 C4.246094,456.164062 7.496094,458 11,458 L219.25,458 C219.417969,458 219.582031,457.984375 219.75,457.976562 C219.917969,457.984375 220.082031,458 220.25,458 L293.75,458 C293.917969,458 294.082031,457.984375 294.25,457.976562 C294.417969,457.984375 294.582031,458 294.75,458 L363.332031,458 C368.855469,458 373.332031,453.523438 373.332031,448 C373.332031,442.476562 368.855469,438 363.332031,438 L303.75,438 L303.75,418 L475.851562,418 L486.414062,438 L442,438 C436.476562,438 432,442.476562 432,448 C432,453.523438 436.476562,458 442,458 L503,458 C506.503906,458 509.753906,456.164062 511.5625,453.164062 C513.375,450.160156 513.480469,446.429688 511.84375,443.332031 L511.84375,443.332031 Z M406.386719,358 L303.75,358 L303.75,338 L398.617188,338 L406.386719,358 Z M257.128906,217.664062 C251.605469,217.664062 247.128906,222.144531 247.128906,227.664062 L247.128906,238 L230.25,238 L230.25,210 L283.75,210 L283.75,238 L267.128906,238 L267.128906,227.667969 C267.128906,222.144531 262.648438,217.664062 257.128906,217.664062 L257.128906,217.664062 Z M364.789062,318 L303.75,318 L303.75,298 L356.148438,298 L364.789062,318 Z M321.703125,278 L303.75,278 L303.75,258 L312.851562,258 L321.703125,278 Z M220.75,170 L293.25,170 L293.25,190 L220.75,190 L220.75,170 Z M201.148438,258 L210.25,258 L210.25,278 L192.300781,278 L201.148438,258 Z M157.851562,298 L210.25,298 L210.25,318 L149.214844,318 L157.851562,298 Z M71.519531,378 L92.933594,378 C92.957031,378 92.976562,378.003906 93,378.003906 C93.023438,378.003906 93.050781,378 93.078125,378 L124.667969,378 C130.1875,378 134.667969,373.523438 134.667969,368 C134.667969,362.476562 130.1875,358 124.667969,358 L107.613281,358 L115.382812,338 L210.25,338 L210.25,358 L201,358 C195.476562,358 191,362.476562 191,368 C191,373.523438 195.476562,378 201,378 L210.25,378 L210.25,398 L62.710938,398 L71.519531,378 Z M38.148438,418 L210.25,418 L210.25,438 L27.589844,438 L38.148438,418 Z M283.75,438 L230.25,438 L230.25,258 L283.75,258 L283.75,438 Z M303.75,398 L303.75,378 L442.480469,378 L451.289062,398 L303.75,398 Z" id="Shape"></path>
            <path d="M109.433594,116 C141.414062,116 167.433594,89.980469 167.433594,58 C167.433594,26.019531 141.414062,0 109.433594,0 C77.453125,0 51.433594,26.019531 51.433594,58 C51.433594,89.980469 77.453125,116 109.433594,116 Z M109.433594,20 C130.386719,20 147.433594,37.046875 147.433594,58 C147.433594,78.953125 130.386719,96 109.433594,96 C88.480469,96 71.433594,78.953125 71.433594,58 C71.433594,37.046875 88.480469,20 109.433594,20 Z" id="Shape"></path>
            <path d="M332.957031,141.164062 L429.042969,141.164062 L429.367188,141.164062 L467.105469,141.164062 C477.257812,141.164062 485.617188,132.972656 485.738281,122.898438 L485.742188,122.535156 C485.75,113.515625 482.199219,104.984375 475.742188,98.523438 C469.285156,92.058594 460.761719,88.5 451.742188,88.5 C449.984375,88.5 448.242188,88.632812 446.527344,88.898438 C439.910156,68.5625 420.773438,54 398.441406,54 C376.359375,54 357.167969,68.519531 350.445312,88.710938 C348.742188,88.519531 347.019531,88.457031 345.296875,88.527344 C328.578125,89.191406 314.636719,102.21875 312.855469,118.90625 L312.828125,119.203125 C312.292969,124.773438 314.15625,130.355469 317.941406,134.519531 C321.777344,138.742188 327.25,141.164062 332.957031,141.164062 L332.957031,141.164062 Z M332.75,120.953125 C333.464844,114.242188 339.324219,108.777344 346.089844,108.511719 C348.609375,108.414062 351.09375,108.980469 353.277344,110.15625 C356.253906,111.753906 359.839844,111.742188 362.804688,110.125 C365.769531,108.507812 367.71875,105.5 367.984375,102.128906 C369.222656,86.355469 382.601562,74 398.441406,74 C414.621094,74 428.023438,86.640625 428.949219,102.777344 C429.152344,106.316406 431.210938,109.480469 434.359375,111.101562 C437.511719,112.71875 441.285156,112.550781 444.277344,110.65625 C446.511719,109.246094 449.089844,108.496094 451.742188,108.496094 C455.414062,108.496094 458.914062,109.976562 461.59375,112.65625 C463.941406,115.007812 465.363281,117.984375 465.675781,121.164062 L431.460938,121.164062 C431.292969,121.128906 431.125,121.09375 430.957031,121.066406 C429.644531,120.839844 428.324219,120.882812 427.066406,121.164062 L332.957031,121.164062 C332.839844,121.164062 332.769531,121.101562 332.738281,121.066406 L332.75,120.953125 Z" id="Shape"></path>
        </g>
    </g>
</svg>