<?xml version="1.0" encoding="UTF-8"?>
<svg width="495px" height="512px" viewBox="0 0 495 512" version="1.1" xmlns="http://www.w3.org/2000/svg" xmlns:xlink="http://www.w3.org/1999/xlink">
    <!-- Generator: Sketch 53 (72520) - https://sketchapp.com -->
    <title>waves</title>
    <desc>Created with Sketch.</desc>
    <g id="Page-1" stroke="none" stroke-width="1" fill="none" fill-rule="evenodd">
        <g id="waves" fill="#404348" fill-rule="nonzero">
            <path d="M484.582031,229.871094 L419.378906,229.871094 C414.738281,229.871094 385.085938,227.175781 356.222656,214.355469 C322.691406,199.464844 305.6875,177.847656 305.6875,150.113281 C305.6875,102.945312 325.289062,89.59375 333.71875,86.042969 C342.628906,82.289062 352.433594,83.5 358.125,89.054688 C362.789062,93.605469 363.667969,100.398438 360.605469,108.195312 C358.851562,112.671875 356.382812,114.617188 353.257812,117.085938 C348.929688,120.5 342.390625,125.660156 343.097656,136.480469 C343.566406,143.59375 347.917969,149.542969 354.742188,152.394531 C367.066406,157.546875 384.804688,152.03125 401.027344,137.996094 C415.601562,125.390625 422.507812,97.09375 417.824219,69.1875 C412.921875,40.007812 396.089844,17.660156 371.632812,7.878906 C317.113281,-13.917969 263.957031,12.699219 235.464844,48.753906 C226.90625,59.585938 219.253906,70.121094 211.378906,81.914062 C208.316406,86.503906 209.550781,92.710938 214.144531,95.773438 C218.730469,98.835938 224.9375,97.601562 228,93.011719 C235.570312,81.671875 242.925781,71.546875 251.144531,61.144531 C275.035156,30.917969 319.265625,8.464844 364.214844,26.4375 C388.617188,36.199219 395.925781,59.484375 398.113281,72.496094 C401.878906,94.929688 395.769531,116.117188 387.953125,122.882812 C376.386719,132.890625 367.402344,134.707031 363.761719,134.296875 C364.328125,133.808594 365.046875,133.242188 365.640625,132.773438 C369.558594,129.679688 375.480469,125.007812 379.210938,115.5 C385.21875,100.203125 382.554688,84.972656 372.082031,74.753906 C360.535156,63.480469 342.429688,60.6875 325.957031,67.625 C313.855469,72.726562 285.699219,90.976562 285.699219,150.113281 C285.699219,185.960938 307.28125,214.492188 348.109375,232.625 C377.148438,245.519531 409.210938,249.859375 419.378906,249.859375 L474.589844,249.859375 L474.589844,295.40625 C467.5625,313.894531 438.371094,327.675781 405.714844,327.675781 C372.273438,327.675781 342.449219,313.238281 336.339844,294.09375 C335.019531,289.949219 331.167969,287.136719 326.820312,287.136719 C322.46875,287.136719 318.621094,289.953125 317.300781,294.09375 C311.191406,313.238281 281.367188,327.675781 247.925781,327.675781 C214.503906,327.675781 184.679688,313.234375 178.546875,294.082031 C177.222656,289.945312 173.375,287.136719 169.03125,287.136719 C169.027344,287.136719 169.027344,287.136719 169.023438,287.136719 C164.675781,287.140625 160.832031,289.953125 159.507812,294.09375 C153.402344,313.238281 123.589844,327.675781 90.164062,327.675781 C56.71875,327.675781 26.894531,313.238281 20.789062,294.09375 C20.582031,293.445312 20.308594,292.835938 19.984375,292.261719 L19.984375,249.574219 C42.179688,248.332031 66.066406,243.050781 88.292969,234.398438 C115.730469,223.714844 139.082031,208.671875 155.835938,190.898438 C165.980469,180.125 174.773438,169.984375 182.71875,159.898438 C186.132812,155.5625 185.386719,149.28125 181.050781,145.863281 C176.714844,142.449219 170.433594,143.195312 167.019531,147.53125 C159.441406,157.152344 151.023438,166.855469 141.289062,177.195312 C112.054688,208.210938 58.0625,229.875 9.992188,229.875 C4.472656,229.875 2.84217094e-14,234.347656 2.84217094e-14,239.867188 L2.84217094e-14,502.007812 C2.84217094e-14,507.527344 4.472656,512 9.992188,512 L484.578125,512 C490.097656,512 494.574219,507.527344 494.574219,502.007812 L494.574219,239.863281 C494.574219,234.34375 490.101562,229.871094 484.582031,229.871094 L484.582031,229.871094 Z M90.164062,347.660156 C123.894531,347.660156 153.484375,335.707031 169.039062,317.117188 C184.609375,335.707031 214.203125,347.660156 247.925781,347.660156 C281.667969,347.660156 311.261719,335.710938 326.820312,317.125 C342.382812,335.710938 371.972656,347.660156 405.714844,347.660156 C433.210938,347.660156 457.957031,339.71875 474.589844,326.710938 L474.589844,391.121094 C474.265625,391.703125 473.992188,392.320312 473.785156,392.972656 C467.675781,412.117188 437.863281,426.554688 404.4375,426.554688 C370.996094,426.554688 341.171875,412.117188 335.066406,392.972656 C333.742188,388.828125 329.894531,386.015625 325.542969,386.015625 C321.195312,386.015625 317.34375,388.828125 316.023438,392.972656 C309.914062,412.117188 280.089844,426.554688 246.648438,426.554688 C213.230469,426.554688 183.40625,412.113281 177.273438,392.960938 C175.949219,388.824219 172.101562,386.015625 167.753906,386.015625 L167.75,386.015625 C163.402344,386.019531 159.554688,388.832031 158.234375,392.972656 C152.125,412.117188 122.3125,426.554688 88.886719,426.554688 C56.234375,426.554688 27.03125,412.792969 19.988281,394.320312 L19.988281,325.6875 C36.621094,339.300781 61.941406,347.660156 90.164062,347.660156 L90.164062,347.660156 Z M19.988281,492.011719 L19.988281,425.570312 C36.625,438.585938 61.371094,446.542969 88.886719,446.542969 C122.621094,446.542969 152.207031,434.589844 167.761719,415.996094 C183.332031,434.589844 212.925781,446.542969 246.648438,446.542969 C280.390625,446.542969 309.984375,434.59375 325.542969,416.003906 C341.105469,434.59375 370.695312,446.542969 404.4375,446.542969 C432.652344,446.542969 457.960938,438.179688 474.589844,424.5625 L474.589844,492.011719 L19.988281,492.011719 Z" id="Shape"></path>
            <path d="M198.058594,131.117188 C203.585938,131.117188 208.066406,126.640625 208.066406,121.109375 C208.066406,115.613281 203.589844,111.105469 198.058594,111.105469 C192.5625,111.105469 188.082031,115.613281 188.082031,121.109375 C188.082031,126.640625 192.5625,131.117188 198.058594,131.117188 Z" id="Path"></path>
        </g>
    </g>
</svg>