<?xml version="1.0" encoding="UTF-8"?>
<svg width="912px" height="513px" viewBox="0 0 912 513" version="1.1" xmlns="http://www.w3.org/2000/svg" xmlns:xlink="http://www.w3.org/1999/xlink">
    <!-- Generator: Sketch 53 (72520) - https://sketchapp.com -->
    <title>Met-jezelf</title>
    <desc>Created with Sketch.</desc>
    <g id="Page-1" stroke="none" stroke-width="1" fill="none" fill-rule="evenodd">
        <g id="Met-jezelf" transform="translate(10.000000, 0.000000)">
            <g id="Group-6" transform="translate(390.000000, 90.000000)">
                <g id="Group-2" transform="translate(174.699801, 107.000000)">
                    <g id="happy" transform="translate(31.300199, 0.000000)" fill="#404348" fill-rule="nonzero">
                        <path d="M164.735878,28.4105683 C146.509606,10.0898589 122.275642,0 96.5,0 C76.8881301,0 58.0036621,5.8863677 41.8918608,17.0211792 C40.1764297,18.2082216 39.2373741,22.9660456 41.353617,25.2293108 C43.4698599,27.4925759 47.4636992,27.484024 49.1791306,26.2969819 C64.0290222,16.0339507 78.4195022,13.821875 96.5,13.821875 C142.536873,13.821875 179.239062,50.7245942 179.239062,97 C179.239062,143.275406 142.536873,180.178125 96.5,180.178125 C50.4631272,180.178125 11.7609375,143.275406 11.7609375,97 C11.7609375,78.8228608 15.9513015,63.7530488 26.1599581,48.8291748 C27.339409,47.1048554 26.4091375,42.5940718 24.6937064,41.4085098 C22.9797477,40.2229477 18.1128921,40.3860781 16.9319688,42.1103974 C5.85455322,58.3027192 0,77.2835542 0,97 C0,122.909195 10.0378493,147.268723 28.2641221,165.589432 C46.4903945,183.910141 70.7243577,194 96.5,194 C122.275642,194 146.509606,183.910141 164.735878,165.589432 C182.962151,147.268723 193,122.909195 193,97 C193,71.0908051 182.962151,46.7312774 164.735878,28.4105683 Z" id="Path"></path>
                        <path d="M32.5668362,38.8 C34.1120799,38.8 35.6573236,38.2079593 36.8351008,37.0238772 C39.1882997,34.6580811 39.1882997,30.8192872 36.8351008,28.4511231 C34.4795464,26.082959 30.6611928,26.082959 28.3056384,28.4511231 L28.3032824,28.4534911 C25.947728,30.8216552 25.950084,34.6580811 28.3032824,37.0262452 C29.4810602,38.2103273 31.0239479,38.8 32.5668362,38.8 Z" id="Path"></path>
                    </g>
                    <path d="M64.3001988,166 C21.6335321,186.528407 0.300198807,232.528407 0.300198807,304" id="Line-2" stroke="#404348" stroke-width="18" stroke-linecap="round"></path>
                    <path d="M254.300199,166 C211.633532,186.528407 190.300199,232.528407 190.300199,304" id="Line-2" stroke="#404348" stroke-width="18" stroke-linecap="round" transform="translate(222.300199, 235.000000) scale(-1, 1) translate(-222.300199, -235.000000) "></path>
                </g>
                <g id="Group-2">
                    <path d="M88.2911695,221.514218 C-7.36781735,116.146019 86.3456241,-0.784206852 174.5,0.436336483 C264.588904,1.68366437 355.936455,116.146019 260.708831,221.514218 C319.56961,251.500425 349,314.80464 349,411.426862 L0,411.426862 C2.78976842e-12,311.596438 29.4303898,248.292223 88.2911695,221.514218 Z" id="Rectangle" fill="#FFFFFF"></path>
                    <g id="happy" transform="translate(53.059642, 8.000000)" fill="#404348" fill-rule="nonzero">
                        <path d="M218.835575,37.5461345 C194.623747,13.3343056 162.431286,0 128.190855,0 C102.138395,0 77.0522179,7.77915988 55.6492585,22.494428 C53.3704753,24.0631701 52.1230314,30.3508971 54.9342541,33.3419269 C57.7454767,36.3329568 63.0509033,36.3216549 65.329687,34.7529133 C85.0563222,21.189751 104.172674,15.6232604 128.190855,15.6232604 C189.346358,15.6232604 240.758449,67.0353515 240.758449,128.190855 C240.758449,189.346358 189.346358,240.758449 128.190855,240.758449 C67.0353515,240.758449 15.6232604,189.346358 15.6232604,128.190855 C15.6232604,104.168762 21.189751,84.2531735 34.7509574,64.5304501 C36.3177431,62.2516669 35.0819681,56.2904173 32.8031848,54.7236316 C30.5263575,53.156846 24.0612136,53.3724317 22.4924721,55.6512149 C7.77720396,77.050262 0,102.134483 0,128.190855 C0,162.431286 13.3343056,194.623747 37.5461345,218.835575 C61.7579628,243.047404 93.9504236,256.38171 128.190855,256.38171 C162.431286,256.38171 194.623747,243.047404 218.835575,218.835575 C243.047404,194.623747 256.38171,162.431286 256.38171,128.190855 C256.38171,93.9504236 243.047404,61.7579628 218.835575,37.5461345 Z" id="Path"></path>
                        <path d="M43.2618712,51.2763419 C45.314577,51.2763419 47.3672828,50.4939274 48.9318451,48.9290976 C52.0578409,45.8025675 52.0578409,40.7293894 48.9318451,37.5997298 C45.8027204,34.4700702 40.7304095,34.4700702 37.6012848,37.5997298 L37.5981551,37.6028593 C34.4690304,40.7325189 34.4721601,45.8025675 37.5981551,48.9322271 C39.1627183,50.4970569 41.2122943,51.2763419 43.2618712,51.2763419 Z" id="Path"></path>
                    </g>
                    <path d="M97.9264414,227.526839 C41.3088138,254.819678 13,315.977398 13,411" id="Line-2" stroke="#404348" stroke-width="18" stroke-linecap="round"></path>
                    <path d="M348.699801,227.526839 C292.082174,254.819678 263.77336,315.977398 263.77336,411" id="Line-2" stroke="#404348" stroke-width="18" stroke-linecap="round" transform="translate(306.236581, 319.263419) scale(-1, 1) translate(-306.236581, -319.263419) "></path>
                </g>
            </g>
            <g id="Group-6" transform="translate(82.000000, 90.000000)">
                <g id="Group-2" transform="translate(0.699801, 107.000000)">
                    <g id="happy" transform="translate(31.300199, 0.000000)" fill="#404348" fill-rule="nonzero">
                        <path d="M164.735878,28.4105683 C146.509606,10.0898589 122.275642,0 96.5,0 C76.8881301,0 58.0036621,5.8863677 41.8918608,17.0211792 C38.6,19.7459035 39.7756179,24.4117348 41.8918608,26.675 C44.0081037,28.9382652 48.0859554,29.5 51.1791306,28.2969819 C66.0290222,18.0339507 78.4195022,13.821875 96.5,13.821875 C142.536873,13.821875 179.239062,50.7245942 179.239062,97 C179.239062,143.275406 142.536873,180.178125 96.5,180.178125 C50.4631272,180.178125 13.7609375,143.275406 13.7609375,97 C13.7609375,78.8228608 17.9513015,65.7530488 28.1599581,50.8291748 C30.4158643,47.8612753 28.2529311,43.2959595 26.5375,42.1103974 C24.8235413,40.9248354 19.2468033,38.8 16.9319688,42.1103974 C5.85455322,58.3027192 0,77.2835542 0,97 C0,122.909195 10.0378493,147.268723 28.2641221,165.589432 C46.4903945,183.910141 70.7243577,194 96.5,194 C122.275642,194 146.509606,183.910141 164.735878,165.589432 C182.962151,147.268723 193,122.909195 193,97 C193,71.0908051 182.962151,46.7312774 164.735878,28.4105683 Z" id="Path"></path>
                        <path d="M33.064101,40.8 C34.7367875,40.8 36.4094739,40.1591312 37.6843874,38.8773929 C40.2316647,36.3164795 40.2316647,32.1610841 37.6843874,29.5976075 C35.1345605,27.0341308 31.0012912,27.0341308 28.4514643,29.5976075 L28.4489139,29.6001708 C25.899087,32.1636474 25.9016373,36.3164795 28.4489139,38.8799562 C29.7238281,40.1616945 31.3939642,40.8 33.064101,40.8 Z" id="Path"></path>
                    </g>
                    <path d="M64.3001988,166 C21.6335321,186.528407 0.300198807,232.528407 0.300198807,304" id="Line-2" stroke="#404348" stroke-width="18" stroke-linecap="round"></path>
                    <path d="M254.300199,166 C211.633532,186.528407 190.300199,232.528407 190.300199,304" id="Line-2" stroke="#404348" stroke-width="18" stroke-linecap="round" transform="translate(222.300199, 235.000000) scale(-1, 1) translate(-222.300199, -235.000000) "></path>
                </g>
                <g id="Group-2" transform="translate(66.000000, 0.000000)">
                    <path d="M88.2911695,221.514218 C-7.36781735,116.146019 86.3456241,-0.784206852 174.5,0.436336483 C264.588904,1.68366437 355.936455,116.146019 260.708831,221.514218 C319.56961,251.500425 349,314.80464 349,411.426862 L0,411.426862 C2.78976842e-12,311.596438 29.4303898,248.292223 88.2911695,221.514218 Z" id="Rectangle" fill="#FFFFFF"></path>
                    <g id="happy" transform="translate(53.059642, 8.000000)" fill="#404348" fill-rule="nonzero">
                        <path d="M218.835575,37.5461345 C194.623747,13.3343056 162.431286,0 128.190855,0 C102.138395,0 77.0522179,7.77915988 55.6492585,22.494428 C53.3704753,24.0631701 52.1230314,30.3508971 54.9342541,33.3419269 C57.7454767,36.3329568 63.0509033,36.3216549 65.329687,34.7529133 C85.0563222,21.189751 104.172674,15.6232604 128.190855,15.6232604 C189.346358,15.6232604 240.758449,67.0353515 240.758449,128.190855 C240.758449,189.346358 189.346358,240.758449 128.190855,240.758449 C67.0353515,240.758449 15.6232604,189.346358 15.6232604,128.190855 C15.6232604,104.168762 21.189751,84.2531735 34.7509574,64.5304501 C36.3177431,62.2516669 35.0819681,56.2904173 32.8031848,54.7236316 C30.5263575,53.156846 24.0612136,53.3724317 22.4924721,55.6512149 C7.77720396,77.050262 0,102.134483 0,128.190855 C0,162.431286 13.3343056,194.623747 37.5461345,218.835575 C61.7579628,243.047404 93.9504236,256.38171 128.190855,256.38171 C162.431286,256.38171 194.623747,243.047404 218.835575,218.835575 C243.047404,194.623747 256.38171,162.431286 256.38171,128.190855 C256.38171,93.9504236 243.047404,61.7579628 218.835575,37.5461345 Z" id="Path"></path>
                        <path d="M43.2618712,51.2763419 C45.314577,51.2763419 47.3672828,50.4939274 48.9318451,48.9290976 C52.0578409,45.8025675 52.0578409,40.7293894 48.9318451,37.5997298 C45.8027204,34.4700702 40.7304095,34.4700702 37.6012848,37.5997298 L37.5981551,37.6028593 C34.4690304,40.7325189 34.4721601,45.8025675 37.5981551,48.9322271 C39.1627183,50.4970569 41.2122943,51.2763419 43.2618712,51.2763419 Z" id="Path"></path>
                    </g>
                    <path d="M97.9264414,227.526839 C41.3088138,254.819678 13,315.977398 13,411" id="Line-2" stroke="#404348" stroke-width="18" stroke-linecap="round"></path>
                    <path d="M348.699801,227.526839 C292.082174,254.819678 263.77336,315.977398 263.77336,411" id="Line-2" stroke="#404348" stroke-width="18" stroke-linecap="round" transform="translate(306.236581, 319.263419) scale(-1, 1) translate(-306.236581, -319.263419) "></path>
                </g>
            </g>
            <path d="M346,273.426862 C231.154397,146.926862 343.664231,6.54604888 449.5,8.01137459 C557.658312,9.50885655 667.327722,146.926862 553,273.426862 C623.666667,309.426862 659,385.426862 659,501.426862 L240,501.426862 C240,381.575249 275.333333,305.575249 346,273.426862 Z" id="Rectangle" fill="#FFFFFF"></path>
            <g id="Group-2" transform="translate(240.000000, 0.000000)">
                <g id="happy" transform="translate(50.000000, 0.000000)" fill="#404348" fill-rule="nonzero">
                    <path d="M273.137207,46.8627931 C242.917481,16.6430662 202.736816,0 160,0 C127.48291,0 96.171875,9.7094725 69.4580075,28.0761719 C66.6137694,30.03418 65.0567861,37.8821371 68.5655826,41.615358 C72.0743792,45.3485788 78.6962887,45.3344725 81.5405275,43.376465 C106.162109,26.4477537 130.021972,19.5 160,19.5 C236.330566,19.5 300.5,83.6694337 300.5,160 C300.5,236.330566 236.330566,300.5 160,300.5 C83.6694338,300.5 19.5,236.330566 19.5,160 C19.5,130.01709 26.4477537,105.159668 43.3740237,80.5429687 C45.32959,77.6987306 43.787171,70.2582628 40.9429329,68.3026966 C38.101136,66.3471303 30.0317381,66.6162112 28.0737306,69.4604494 C9.70703125,96.1694337 0,127.478027 0,160 C0,202.736816 16.6430662,242.917481 46.8627931,273.137207 C77.0825194,303.356934 117.263184,320 160,320 C202.736816,320 242.917481,303.356934 273.137207,273.137207 C303.356934,242.917481 320,202.736816 320,160 C320,117.263184 303.356934,77.0825194 273.137207,46.8627931 Z" id="Path"></path>
                    <path d="M53.9968268,64 C56.5588889,64 59.120951,63.023438 61.0737422,61.0703129 C64.9754193,57.1679688 64.9754193,50.8359377 61.0737422,46.9296876 C57.1681598,43.0234375 50.8372109,43.0234375 46.9316285,46.9296876 L46.9277221,46.9335936 C43.0221397,50.8398437 43.026046,57.1679688 46.9277221,61.0742189 C48.8805143,63.027344 51.4386701,64 53.9968268,64 Z" id="Path"></path>
                    <path d="M105.85176,197.213625 C102.516911,198.112615 95.6300215,201.590213 97.240326,206.913989 C104.781578,235.224798 131.393518,254.997661 160.525847,254.997661 C189.658176,254.997661 215.270115,235.227254 222.811368,206.913989 C223.992573,202.659449 219.057144,198.112615 215.722295,197.213625 C212.387445,196.314635 204.782703,198.213625 203.736575,203.659449 C195.936963,224.342461 182.025847,236.421629 160.525847,236.421629 C139.025847,236.421629 127.10677,226.996887 117.315118,203.659449 C114.876298,198.213625 109.184718,196.315145 105.85176,197.213625 Z" id="Path"></path>
                    <path d="M82.2130866,154.225337 C81.3260765,157.51805 83.2891306,161.904841 86.5996646,162.787723 C89.9126219,163.670604 95.3128256,162.714274 96.1974123,159.42156 C98.1119959,152.315089 102.609464,148.35069 109.998788,148.35069 C117.390536,148.35069 120.888004,151.315089 122.802588,158.42156 C123.544186,161.178755 127.898739,163.663676 131.791116,163 C134.87457,162.47425 139.13565,159.42156 137.786913,154.225337 C134.423062,141.7275 122.996147,133 109.998788,133 C97.0014293,133 85.5769372,141.7275 82.2130866,154.225337 Z" id="Path"></path>
                    <path d="M182.213087,154.225337 C181.326076,157.51805 183.289131,161.904841 186.599665,162.787723 C189.912622,163.670604 195.312826,162.714274 196.197412,159.42156 C198.111996,152.315089 202.609464,148.35069 209.998788,148.35069 C217.390536,148.35069 220.888004,151.315089 222.802588,158.42156 C223.544186,161.178755 227.898739,163.663676 231.791116,163 C234.87457,162.47425 239.13565,159.42156 237.786913,154.225337 C234.423062,141.7275 222.996147,133 209.998788,133 C197.001429,133 185.576937,141.7275 182.213087,154.225337 Z" id="Path"></path>
                </g>
                <path d="M106,274 C35.3333333,308.065256 0,384.398589 0,503" id="Line-2" stroke="#404348" stroke-width="18" stroke-linecap="round"></path>
                <path d="M419,274 C348.333333,308.065256 313,384.398589 313,503" id="Line-2" stroke="#404348" stroke-width="18" stroke-linecap="round" transform="translate(366.000000, 388.500000) scale(-1, 1) translate(-366.000000, -388.500000) "></path>
            </g>
            <path d="M558,421 C552.49,421 548,425.48 548,431.001 C548,436.511 552.49,441.002 558,441.002 C563.51,441.002 568,436.512 568,431.001 C568,425.48 563.51,421 558,421 Z" id="Path" fill="#404348" fill-rule="nonzero"></path>
            <path d="M4.94940026e-13,503 L892,503" id="Line-3" stroke="#404348" stroke-width="20" stroke-linecap="round"></path>
            <g id="Group-7" transform="translate(389.000000, 338.000000)" stroke="#404348" stroke-linecap="round" stroke-width="18">
                <path d="M1,0.715234895 L59.4550079,46.7152349" id="Line-5"></path>
                <path d="M61,0.715234895 L119.455008,46.7152349" id="Line-5" transform="translate(90.000000, 23.500000) scale(-1, 1) translate(-90.000000, -23.500000) "></path>
            </g>
            <path d="M346,429.994765 L346,493" id="Line-6" stroke="#404348" stroke-width="18" stroke-linecap="round"></path>
            <path d="M558,461.497383 L558,493" id="Line-6" stroke="#404348" stroke-width="18" stroke-linecap="round"></path>
        </g>
    </g>
</svg>