<?xml version="1.0" encoding="UTF-8"?>
<svg width="777px" height="512px" viewBox="0 0 777 512" version="1.1" xmlns="http://www.w3.org/2000/svg" xmlns:xlink="http://www.w3.org/1999/xlink">
    <!-- Generator: Sketch 53 (72520) - https://sketchapp.com -->
    <title>Met-jezelf</title>
    <desc>Created with Sketch.</desc>
    <g id="Page-1" stroke="none" stroke-width="1" fill="none" fill-rule="evenodd">
        <g id="Met-jezelf" transform="translate(10.000000, 0.000000)">
            <g id="Group-2" transform="translate(98.000000, 100.000000)">
                <g id="happy" transform="translate(40.059642, 0.000000)" fill="#404348" fill-rule="nonzero">
                    <path d="M218.835575,37.5461345 C194.623747,13.3343056 162.431286,0 128.190855,0 C102.138395,0 77.0522179,7.77915988 55.6492585,22.494428 C53.3704753,24.0631701 52.1230314,30.3508971 54.9342541,33.3419269 C57.7454767,36.3329568 63.0509033,36.3216549 65.329687,34.7529133 C85.0563222,21.189751 104.172674,15.6232604 128.190855,15.6232604 C189.346358,15.6232604 240.758449,67.0353515 240.758449,128.190855 C240.758449,189.346358 189.346358,240.758449 128.190855,240.758449 C67.0353515,240.758449 15.6232604,189.346358 15.6232604,128.190855 C15.6232604,104.168762 21.189751,84.2531735 34.7509574,64.5304501 C36.3177431,62.2516669 35.0819681,56.2904173 32.8031848,54.7236316 C30.5263575,53.156846 24.0612136,53.3724317 22.4924721,55.6512149 C7.77720396,77.050262 0,102.134483 0,128.190855 C0,162.431286 13.3343056,194.623747 37.5461345,218.835575 C61.7579628,243.047404 93.9504236,256.38171 128.190855,256.38171 C162.431286,256.38171 194.623747,243.047404 218.835575,218.835575 C243.047404,194.623747 256.38171,162.431286 256.38171,128.190855 C256.38171,93.9504236 243.047404,61.7579628 218.835575,37.5461345 Z" id="Path"></path>
                    <path d="M43.2618712,51.2763419 C45.314577,51.2763419 47.3672828,50.4939274 48.9318451,48.9290976 C52.0578409,45.8025675 52.0578409,40.7293894 48.9318451,37.5997298 C45.8027204,34.4700702 40.7304095,34.4700702 37.6012848,37.5997298 L37.5981551,37.6028593 C34.4690304,40.7325189 34.4721601,45.8025675 37.5981551,48.9322271 C39.1627183,50.4970569 41.2122943,51.2763419 43.2618712,51.2763419 Z" id="Path"></path>
                </g>
                <path d="M84.9264414,219.526839 C28.3088138,246.819678 0,307.977398 0,403" id="Line-2" stroke="#404348" stroke-width="18" stroke-linecap="round"></path>
                <path d="M335.699801,219.526839 C279.082174,246.819678 250.77336,307.977398 250.77336,403" id="Line-2" stroke="#404348" stroke-width="18" stroke-linecap="round" transform="translate(293.236581, 311.263419) scale(-1, 1) translate(-293.236581, -311.263419) "></path>
            </g>
            <g id="Group-2" transform="translate(341.000000, 98.000000)">
                <g id="happy" transform="translate(40.059642, 0.000000)" fill="#404348" fill-rule="nonzero">
                    <path d="M218.835575,37.5461345 C194.623747,13.3343056 162.431286,0 128.190855,0 C102.138395,0 77.0522179,7.77915988 55.6492585,22.494428 C53.3704753,24.0631701 52.1230314,30.3508971 54.9342541,33.3419269 C57.7454767,36.3329568 63.0509033,36.3216549 65.329687,34.7529133 C85.0563222,21.189751 104.172674,15.6232604 128.190855,15.6232604 C189.346358,15.6232604 240.758449,67.0353515 240.758449,128.190855 C240.758449,189.346358 189.346358,240.758449 128.190855,240.758449 C67.0353515,240.758449 15.6232604,189.346358 15.6232604,128.190855 C15.6232604,104.168762 21.189751,84.2531735 34.7509574,64.5304501 C36.3177431,62.2516669 35.0819681,56.2904173 32.8031848,54.7236316 C30.5263575,53.156846 24.0612136,53.3724317 22.4924721,55.6512149 C7.77720396,77.050262 0,102.134483 0,128.190855 C0,162.431286 13.3343056,194.623747 37.5461345,218.835575 C61.7579628,243.047404 93.9504236,256.38171 128.190855,256.38171 C162.431286,256.38171 194.623747,243.047404 218.835575,218.835575 C243.047404,194.623747 256.38171,162.431286 256.38171,128.190855 C256.38171,93.9504236 243.047404,61.7579628 218.835575,37.5461345 Z" id="Path"></path>
                    <path d="M43.2618712,51.2763419 C45.314577,51.2763419 47.3672828,50.4939274 48.9318451,48.9290976 C52.0578409,45.8025675 52.0578409,40.7293894 48.9318451,37.5997298 C45.8027204,34.4700702 40.7304095,34.4700702 37.6012848,37.5997298 L37.5981551,37.6028593 C34.4690304,40.7325189 34.4721601,45.8025675 37.5981551,48.9322271 C39.1627183,50.4970569 41.2122943,51.2763419 43.2618712,51.2763419 Z" id="Path"></path>
                </g>
                <path d="M84.9264414,219.526839 C28.3088138,246.819678 0,307.977398 0,403" id="Line-2" stroke="#404348" stroke-width="18" stroke-linecap="round"></path>
                <path d="M335.699801,219.526839 C279.082174,246.819678 250.77336,307.977398 250.77336,403" id="Line-2" stroke="#404348" stroke-width="18" stroke-linecap="round" transform="translate(293.236581, 311.263419) scale(-1, 1) translate(-293.236581, -311.263419) "></path>
            </g>
            <path d="M284,273.426862 C169.154397,146.926862 281.664231,6.54604888 387.5,8.01137459 C495.658312,9.50885655 605.327722,146.926862 491,273.426862 C561.666667,309.426862 597,385.426862 597,501.426862 L178,501.426862 C178,381.575249 213.333333,305.575249 284,273.426862 Z" id="Rectangle" fill="#FFFFFF"></path>
            <g id="Group-2" transform="translate(178.000000, 0.000000)">
                <g id="happy" transform="translate(50.000000, 0.000000)" fill="#404348" fill-rule="nonzero">
                    <path d="M273.137207,46.8627931 C242.917481,16.6430662 202.736816,0 160,0 C127.48291,0 96.171875,9.7094725 69.4580075,28.0761719 C66.6137694,30.03418 65.0567861,37.8821371 68.5655826,41.615358 C72.0743792,45.3485788 78.6962887,45.3344725 81.5405275,43.376465 C106.162109,26.4477537 130.021972,19.5 160,19.5 C236.330566,19.5 300.5,83.6694337 300.5,160 C300.5,236.330566 236.330566,300.5 160,300.5 C83.6694338,300.5 19.5,236.330566 19.5,160 C19.5,130.01709 26.4477537,105.159668 43.3740237,80.5429687 C45.32959,77.6987306 43.787171,70.2582628 40.9429329,68.3026966 C38.101136,66.3471303 30.0317381,66.6162112 28.0737306,69.4604494 C9.70703125,96.1694337 0,127.478027 0,160 C0,202.736816 16.6430662,242.917481 46.8627931,273.137207 C77.0825194,303.356934 117.263184,320 160,320 C202.736816,320 242.917481,303.356934 273.137207,273.137207 C303.356934,242.917481 320,202.736816 320,160 C320,117.263184 303.356934,77.0825194 273.137207,46.8627931 Z" id="Path"></path>
                    <path d="M53.9968268,64 C56.5588889,64 59.120951,63.023438 61.0737422,61.0703129 C64.9754193,57.1679688 64.9754193,50.8359377 61.0737422,46.9296876 C57.1681598,43.0234375 50.8372109,43.0234375 46.9316285,46.9296876 L46.9277221,46.9335936 C43.0221397,50.8398437 43.026046,57.1679688 46.9277221,61.0742189 C48.8805143,63.027344 51.4386701,64 53.9968268,64 Z" id="Path"></path>
                    <path d="M105.85176,197.213625 C102.516911,198.112615 95.6300215,201.590213 97.240326,206.913989 C104.781578,235.224798 131.393518,254.997661 160.525847,254.997661 C189.658176,254.997661 215.270115,235.227254 222.811368,206.913989 C223.992573,202.659449 219.057144,198.112615 215.722295,197.213625 C212.387445,196.314635 204.782703,198.213625 203.736575,203.659449 C195.936963,224.342461 182.025847,236.421629 160.525847,236.421629 C139.025847,236.421629 127.10677,226.996887 117.315118,203.659449 C114.876298,198.213625 109.184718,196.315145 105.85176,197.213625 Z" id="Path"></path>
                    <path d="M82.2130866,154.225337 C81.3260765,157.51805 83.2891306,161.904841 86.5996646,162.787723 C89.9126219,163.670604 95.3128256,162.714274 96.1974123,159.42156 C98.1119959,152.315089 102.609464,148.35069 109.998788,148.35069 C117.390536,148.35069 120.888004,151.315089 122.802588,158.42156 C123.544186,161.178755 127.898739,163.663676 131.791116,163 C134.87457,162.47425 139.13565,159.42156 137.786913,154.225337 C134.423062,141.7275 122.996147,133 109.998788,133 C97.0014293,133 85.5769372,141.7275 82.2130866,154.225337 Z" id="Path"></path>
                    <path d="M182.213087,154.225337 C181.326076,157.51805 183.289131,161.904841 186.599665,162.787723 C189.912622,163.670604 195.312826,162.714274 196.197412,159.42156 C198.111996,152.315089 202.609464,148.35069 209.998788,148.35069 C217.390536,148.35069 220.888004,151.315089 222.802588,158.42156 C223.544186,161.178755 227.898739,163.663676 231.791116,163 C234.87457,162.47425 239.13565,159.42156 237.786913,154.225337 C234.423062,141.7275 222.996147,133 209.998788,133 C197.001429,133 185.576937,141.7275 182.213087,154.225337 Z" id="Path"></path>
                </g>
                <path d="M106,274 C35.3333333,308.065256 0,384.398589 0,503" id="Line-2" stroke="#404348" stroke-width="18" stroke-linecap="round"></path>
                <path d="M419,274 C348.333333,308.065256 313,384.398589 313,503" id="Line-2" stroke="#404348" stroke-width="18" stroke-linecap="round" transform="translate(366.000000, 388.500000) scale(-1, 1) translate(-366.000000, -388.500000) "></path>
            </g>
            <g id="Group-4" transform="translate(0.000000, 421.000000)">
                <path d="M496,-2.25597319e-13 C490.49,-2.25597319e-13 486,4.48 486,10.001 C486,15.511 490.49,20.002 496,20.002 C501.51,20.002 506,15.512 506,10.001 C506,4.48 501.51,-2.25597319e-13 496,-2.25597319e-13 Z" id="Path" fill="#404348" fill-rule="nonzero"></path>
                <path d="M0.5,81 L757,81" id="Line-3" stroke="#404348" stroke-width="20" stroke-linecap="round"></path>
            </g>
            <g id="Group-8" transform="translate(328.000000, 338.000000)" stroke="#404348" stroke-linecap="round" stroke-width="18">
                <path d="M1,0.715234895 L59.4550079,46.7152349" id="Line-5"></path>
                <path d="M61,0.715234895 L119.455008,46.7152349" id="Line-5" transform="translate(90.000000, 23.500000) scale(-1, 1) translate(-90.000000, -23.500000) "></path>
            </g>
            <path d="M284,429.994765 L284,493" id="Line-6" stroke="#404348" stroke-width="18" stroke-linecap="round"></path>
            <path d="M496,461.497383 L496,493" id="Line-6" stroke="#404348" stroke-width="18" stroke-linecap="round"></path>
        </g>
    </g>
</svg>