<?xml version="1.0" encoding="UTF-8"?>
<svg width="462px" height="512px" viewBox="0 0 462 512" version="1.1" xmlns="http://www.w3.org/2000/svg" xmlns:xlink="http://www.w3.org/1999/xlink">
    <!-- Generator: Sketch 53 (72520) - https://sketchapp.com -->
    <title>middle-of-the-earth</title>
    <desc>Created with Sketch.</desc>
    <g id="Page-1" stroke="none" stroke-width="1" fill="none" fill-rule="evenodd">
        <g id="middle-of-the-earth" fill="#404348" fill-rule="nonzero">
            <path d="M241.719,162.779 L220.282,162.779 C214.759,162.779 210.282,167.256 210.282,172.779 C210.282,178.302 214.759,182.779 220.282,182.779 L241.719,182.779 C247.241,182.779 251.719,178.302 251.719,172.779 C251.719,167.256 247.241,162.779 241.719,162.779 Z" id="Path"></path>
            <path d="M252.029,193.727 L209.971,193.727 C204.448,193.727 199.971,198.204 199.971,203.727 L199.971,319.686 C199.971,325.209 204.449,329.686 209.971,329.686 L252.029,329.686 C257.551,329.686 262.029,325.209 262.029,319.686 L262.029,203.727 C262.029,198.204 257.552,193.727 252.029,193.727 Z M242.029,309.686 L219.971,309.686 L219.971,213.727 L242.029,213.727 L242.029,309.686 Z" id="Shape"></path>
            <path d="M231,341.74 C214.443,341.74 200.973,355.21 200.973,371.767 C200.973,388.324 214.444,401.794 231,401.794 C247.557,401.794 261.027,388.324 261.027,371.767 C261.027,355.21 247.557,341.74 231,341.74 Z M231,381.794 C225.471,381.794 220.973,377.296 220.973,371.767 C220.973,366.238 225.471,361.74 231,361.74 C236.529,361.74 241.027,366.238 241.027,371.767 C241.026,377.296 236.529,381.794 231,381.794 Z" id="Shape"></path>
            <path d="M451.722,492.001 L435.667,492.001 L435.667,441.918 C435.667,436.395 431.189,431.918 425.667,431.918 L425.666,431.918 L425.666,412.125 C425.666,406.602 421.188,402.125 415.666,402.125 L411.601,402.125 L403.075,355.066 C402.213,350.308 398.07,346.849 393.235,346.849 L382.807,346.849 L382.807,339.99 C382.807,334.467 378.329,329.99 372.807,329.99 C367.285,329.99 362.807,334.467 362.807,339.99 L362.807,346.849 L352.38,346.849 C347.545,346.849 343.402,350.309 342.54,355.066 L334.015,402.125 L329.949,402.125 C325.567,402.125 321.852,404.948 320.501,408.872 L302.661,144.986 C302.306,139.737 297.944,135.66 292.684,135.66 L285.661,135.66 L285.661,115.62 C285.661,110.097 281.183,105.62 275.661,105.62 L271.843,105.62 L271.843,85.579 C271.843,82.445 270.399,79.651 268.143,77.817 C269.368,76.304 270.501,74.715 271.538,73.058 C271.814,72.667 272.061,72.256 272.28,71.827 C276.411,64.76 278.791,56.55 278.791,47.79 C278.791,21.438 257.352,0 231,0 C221.743,0 213.097,2.654 205.769,7.23 C205.341,7.466 204.93,7.723 204.549,8.013 C191.697,16.588 183.211,31.214 183.211,47.79 C183.211,59.157 187.207,69.604 193.859,77.817 C191.602,79.65 190.158,82.445 190.158,85.579 L190.158,105.62 L186.34,105.62 C180.818,105.62 176.34,110.097 176.34,115.62 L176.34,135.661 L169.317,135.661 C164.056,135.661 159.695,139.738 159.34,144.987 L141.5,408.873 C140.149,404.949 136.434,402.126 132.052,402.126 L127.986,402.126 L119.461,355.067 C118.599,350.309 114.456,346.85 109.621,346.85 L99.193,346.85 L99.193,339.991 C99.193,334.468 94.715,329.991 89.193,329.991 C83.671,329.991 79.193,334.468 79.193,339.991 L79.193,346.85 L68.764,346.85 C63.929,346.85 59.786,350.31 58.924,355.067 L50.399,402.126 L46.334,402.126 C40.811,402.126 36.334,406.603 36.334,412.126 L36.334,431.919 L36.333,431.919 C30.811,431.919 26.333,436.396 26.333,441.919 L26.333,492.002 L10.279,492.002 C4.757,492.002 0.279,496.479 0.279,502.002 C0.279,507.525 4.757,512.002 10.279,512.002 L451.722,512.002 C457.244,512.002 461.722,507.525 461.722,502.002 C461.722,496.478 457.245,492.001 451.722,492.001 Z M77.117,366.85 L101.27,366.85 L107.661,402.126 L70.725,402.126 L77.117,366.85 Z M56.336,422.125 L122.053,422.125 L122.053,431.918 L56.336,431.918 L56.336,422.125 Z M139.289,492 L46.334,492 L46.334,451.918 L139.289,451.918 L139.289,492 Z M231,20 C246.323,20 258.79,32.466 258.79,47.79 C258.79,51.173 258.181,54.416 257.069,57.417 C255.504,57.48 254.129,57.567 252.943,57.681 C251.862,57.786 251.032,57.849 250.396,57.887 C250.328,57.729 250.255,57.562 250.18,57.386 C248.588,53.672 247.671,47.804 247.001,43.52 C246.756,41.955 246.533,40.538 246.312,39.355 C244.606,30.259 235.837,28.263 231.126,27.19 C229.171,26.745 226.987,26.248 225.671,25.554 C225.305,25.005 224.536,23.711 223.362,21.075 C225.792,20.381 228.352,20 231,20 Z M251.843,95.579 L251.843,105.62 L210.159,105.62 L210.159,95.579 L251.836,95.579 C251.843,95.579 251.836,95.579 251.843,95.579 Z M207.169,33.515 C209.508,37.893 211.512,40.071 213.547,41.526 C218.018,44.719 223.029,45.859 226.689,46.693 C226.875,46.735 227.074,46.78 227.276,46.827 C228.107,52.139 229.252,59.325 231.798,65.266 C233.037,68.156 234.668,71.94 238.157,74.64 C235.878,75.248 233.487,75.576 231.02,75.578 L230.981,75.578 C215.667,75.568 203.211,63.106 203.211,47.789 C203.211,42.574 204.659,37.69 207.169,33.515 Z M196.341,125.62 L265.661,125.62 L265.661,135.661 L196.341,135.661 L196.341,125.62 Z M178.664,155.661 L283.338,155.661 L302.014,431.918 L159.989,431.918 L178.664,155.661 Z M302.714,492 L159.289,492 L159.289,481.959 L302.714,481.959 L302.714,492 L302.714,492 Z M302.714,461.959 L159.289,461.959 L159.289,451.918 L302.714,451.918 L302.714,461.959 L302.714,461.959 Z M360.732,366.85 L384.884,366.85 L391.276,402.126 L354.341,402.126 L360.732,366.85 Z M339.951,422.125 L405.668,422.125 L405.668,431.918 L339.951,431.918 L339.951,422.125 Z M415.668,492 L322.713,492 L322.713,451.918 L415.667,451.918 L415.668,451.918 L415.668,492 Z" id="Shape"></path>
        </g>
    </g>
</svg>