<?xml version="1.0" encoding="UTF-8"?>
<svg width="480px" height="512px" viewBox="0 0 480 512" version="1.1" xmlns="http://www.w3.org/2000/svg" xmlns:xlink="http://www.w3.org/1999/xlink">
    <!-- Generator: Sketch 53 (72520) - https://sketchapp.com -->
    <title>orangutan</title>
    <desc>Created with Sketch.</desc>
    <g id="Page-1" stroke="none" stroke-width="1" fill="none" fill-rule="evenodd">
        <g id="orangutan" fill="#404348" fill-rule="nonzero">
            <path d="M240,60 C245.52,60 250,55.52 250,50 C250,44.48 245.52,40 240,40 C234.48,40 230,44.48 230,50 C230,55.52 234.48,60 240,60 Z" id="Path"></path>
            <path d="M275.215,67.694 C294.877,75.985 313.06,89.958 328.123,104.835 C332.042,108.705 338.374,108.688 342.266,104.747 C346.147,100.817 346.107,94.486 342.178,90.605 C325.223,73.861 305.037,58.564 282.985,49.266 C277.898,47.12 272.032,49.505 269.885,54.595 C267.739,59.684 270.125,65.549 275.215,67.694 Z" id="Path"></path>
            <path d="M286.04,139.654 C263.394,146.722 229.561,152.65 197.001,140.757 C150.306,123.701 99.854,153.991 91.31,201.232 C85.941,230.944 97.421,260.774 121.274,279.085 C139.261,292.884 150,316.722 150,342.85 L150,376 C150,414.489 181.157,446 220,446 L260,446 C298.829,446 330,414.501 330,376 L330,340.34 C330,316.499 341.334,293.467 361.099,277.151 C384.349,257.948 394.476,228.64 388.187,198.754 C378.728,153.754 331.395,125.529 286.04,139.654 Z M260,426 L220,426 C202.931,426 187.285,417.41 178.099,403.292 C190.156,380.485 213.937,366 240,366 C266.063,366 289.844,380.485 301.901,403.292 C292.717,417.409 277.07,426 260,426 Z M368.614,202.869 C373.344,225.346 365.773,247.35 348.364,261.729 C323.983,281.857 310,310.51 310,340.34 L310,376 C310,377.099 309.956,378.197 309.884,379.292 C293.046,358.564 267.516,346 240,346 C212.484,346 186.954,358.564 170.116,379.292 C170.044,378.197 170,377.099 170,376 L170,342.85 C170,310.546 156.336,280.776 133.449,263.217 C115.293,249.28 106.897,227.437 110.991,204.789 C117.401,169.344 155.338,146.832 190.139,159.542 C220.073,170.477 255.297,170.2 291.993,158.747 C326.27,148.072 361.588,169.441 368.614,202.869 Z" id="Shape"></path>
            <path d="M480,120 C480,70.374 439.626,30 390,30 C374.148,30 358.827,34.106 345.246,41.915 C310.82,14.472 274.562,0 240,0 C205.438,0 169.18,14.472 134.754,41.915 C121.173,34.106 105.852,30 90,30 C40.374,30 0,70.374 0,120 C0,145.998 11.093,170.111 30.687,187.27 C17.137,221.733 10,255.726 10,286 C10,427.465 126.942,512 240,512 C353.058,512 470,427.465 470,286 C470,255.726 462.863,221.733 449.313,187.27 C468.907,170.111 480,145.998 480,120 Z M390,50 C428.599,50 460,81.402 460,120 C460,137.936 453.16,154.74 440.904,167.641 C421.191,125.076 393.064,85.515 361.554,56.021 C370.44,52.061 380.086,50 390,50 Z M20,120 C20,81.402 51.401,50 90,50 C99.914,50 109.56,52.061 118.446,56.022 C86.937,85.516 58.81,125.076 39.096,167.642 C26.84,154.74 20,137.936 20,120 Z M450,286 C450,414.946 343.227,492 240,492 C136.773,492 30,414.946 30,286 C30,176.55 134.614,20 240,20 C345.35,20 450,176.352 450,286 Z" id="Shape"></path>
            <path d="M207.071,288.929 C203.165,285.025 196.835,285.025 192.928,288.929 C189.023,292.834 189.023,299.166 192.928,303.072 L212.928,323.072 C216.835,326.977 223.164,326.976 227.071,323.072 C230.976,319.167 230.976,312.835 227.071,308.929 L207.071,288.929 Z" id="Path"></path>
            <path d="M272.929,288.929 L252.929,308.929 C249.024,312.834 249.024,319.166 252.929,323.072 C256.836,326.977 263.165,326.976 267.072,323.072 L287.072,303.072 C290.977,299.167 290.977,292.835 287.072,288.929 C283.165,285.024 276.835,285.024 272.929,288.929 Z" id="Path"></path>
            <path d="M210,216 C210,199.458 196.542,186 180,186 C163.458,186 150,199.458 150,216 C150,232.542 163.458,246 180,246 C196.542,246 210,232.542 210,216 Z M180,226 C174.486,226 170,221.514 170,216 C170,210.486 174.486,206 180,206 C185.514,206 190,210.486 190,216 C190,221.514 185.514,226 180,226 Z" id="Shape"></path>
            <path d="M270,216 C270,232.542 283.458,246 300,246 C316.542,246 330,232.542 330,216 C330,199.458 316.542,186 300,186 C283.458,186 270,199.458 270,216 Z M300,206 C305.514,206 310,210.486 310,216 C310,221.514 305.514,226 300,226 C294.486,226 290,221.514 290,216 C290,210.486 294.486,206 300,206 Z" id="Shape"></path>
        </g>
    </g>
</svg>