<?xml version="1.0" encoding="UTF-8"?>
<svg width="290px" height="512px" viewBox="0 0 290 512" version="1.1" xmlns="http://www.w3.org/2000/svg" xmlns:xlink="http://www.w3.org/1999/xlink">
    <!-- Generator: Sketch 53 (72520) - https://sketchapp.com -->
    <title>moai</title>
    <desc>Created with Sketch.</desc>
    <g id="Page-1" stroke="none" stroke-width="1" fill="none" fill-rule="evenodd">
        <g id="moai" fill="#404348" fill-rule="nonzero">
            <path d="M290,291.883 L290,38.359 C290,22.66 278.205,9.81 262.562,8.468 L164.216,0.036 C163.933,0.012 163.648,-2.84217094e-14 163.363,-2.84217094e-14 C127.455,-2.84217094e-14 95.734,24.182 86.221,58.807 L78.702,86.176 C67.126,89.513 58.406,99.629 57.197,112.273 C53.148,154.614 33.127,179.539 18.509,197.737 C8.168,210.611 2.84217094e-14,220.779 2.84217094e-14,233 C2.84217094e-14,245.834 4.906,262.8 27.322,273.199 L14.257,320.755 C10.089,335.925 13.169,351.801 22.707,364.313 C30.219,374.168 40.809,380.701 52.654,383.037 L25.672,440.856 C18.407,456.424 19.579,474.369 28.808,488.859 C38.036,503.349 53.802,512 70.981,512 L259.983,512 C269.688,512 278.835,507.274 284.451,499.359 C289.895,491.687 291.413,481.873 288.581,472.935 L262.498,325.556 L274.243,318.288 C283.973,313.04 290,302.96 290,291.883 L290,291.883 Z M269.014,477.136 C269.108,477.666 269.244,478.188 269.423,478.697 C270.507,481.796 270.04,485.109 268.14,487.786 C266.24,490.464 263.267,492 259.984,492 L236.537,492 L227.69,451.02 C227.2,448.77 225.95,446.74 224.15,445.31 C221.83,443.46 218.72,442.72 215.8,443.35 C210.41,444.51 206.98,449.85 208.14,455.24 L216.076,492 L70.981,492 C60.673,492 51.214,486.81 45.677,478.115 C40.14,469.42 39.437,458.654 43.796,449.313 L73.385,385.908 C73.385,385.908 123.371,394 123.909,394 C139.967,394 155.978,390.07 170.211,382.635 C170.426,382.523 170.637,382.403 170.843,382.275 L244.192,336.884 L269.014,477.136 Z M270,291.883 C270,295.62 267.942,299.016 264.63,300.747 C264.415,300.859 264.204,300.979 263.998,301.107 L160.638,365.07 C149.563,370.793 137.159,373.872 124.694,373.996 C124.694,373.996 63.01,364 62.472,364 C53.033,364 44.336,359.694 38.614,352.187 C32.892,344.68 31.043,335.154 33.544,326.052 L34.305,323.283 C34.305,323.283 83.43,332.001 84.013,332.001 C88.765,332.001 92.981,328.6 93.846,323.757 C94.817,318.32 91.197,313.126 85.76,312.155 L39.626,303.917 L46.389,279.298 C57.356,281.565 67.741,282 74,282 C75.166,282 121.417,265.398 121.417,265.398 C126.607,263.511 129.285,257.773 127.397,252.583 C125.509,247.393 119.772,244.714 114.582,246.603 L72.272,261.988 C57.959,261.783 20,258.787 20,233 C20,227.817 26.535,219.682 34.101,210.262 C49.387,191.232 72.487,162.474 77.106,114.177 C77.606,108.946 81.89,105 87.07,105 L120,105 C125.523,105 130,100.523 130,95 C130,89.477 125.523,85 120,85 L99.766,85 L105.506,64.105 C112.604,38.268 136.189,20.184 162.951,20.001 L260.853,28.395 C266.067,28.842 269.999,33.125 269.999,38.359 L269.999,291.883 L270,291.883 Z" id="Shape"></path>
            <path d="M203.23,421.84 C205,423.25 207.21,424.03 209.46,424.03 C210.17,424.03 210.88,423.95 211.58,423.8 C214.19,423.24 216.43,421.69 217.88,419.45 C219.32,417.2 219.81,414.53 219.25,411.92 C218.76,409.67 217.51,407.64 215.71,406.21 C213.39,404.36 210.28,403.62 207.36,404.25 C204.75,404.82 202.52,406.36 201.07,408.61 C199.62,410.85 199.13,413.53 199.7,416.14 C200.18,418.38 201.44,420.41 203.23,421.84 L203.23,421.84 Z" id="Path"></path>
            <path d="M150.59,135.667 L124.59,125.667 C119.434,123.684 113.649,126.255 111.667,131.411 C109.685,136.566 112.256,142.352 117.411,144.334 L143.411,154.334 C144.592,154.788 145.805,155.003 146.999,155.003 C151.017,155.003 154.806,152.564 156.334,148.59 C158.316,143.435 155.745,137.649 150.59,135.667 L150.59,135.667 Z" id="Path"></path>
            <path d="M240,133 C234.49,133 230,137.49 230,143 L230,253 C230,258.51 234.49,263 240,263 C245.51,263 250,258.51 250,253 L250,143 C250,137.49 245.51,133 240,133 Z" id="Path"></path>
            <path d="M240,93 C234.49,93 230,97.49 230,103 C230,108.51 234.49,113 240,113 C245.51,113 250,108.51 250,103 C250,97.49 245.51,93 240,93 Z" id="Path"></path>
        </g>
    </g>
</svg>