<?xml version="1.0" encoding="UTF-8"?>
<svg width="489px" height="544px" viewBox="0 0 489 544" version="1.1" xmlns="http://www.w3.org/2000/svg" xmlns:xlink="http://www.w3.org/1999/xlink">
    <!-- Generator: Sketch 53 (72520) - https://sketchapp.com -->
    <title>lion</title>
    <desc>Created with Sketch.</desc>
    <g id="Page-1" stroke="none" stroke-width="1" fill="none" fill-rule="evenodd">
        <g id="lion" transform="translate(-0.000000, 0.000000)" fill="#404348" fill-rule="nonzero">
            <path d="M482.871627,293.818112 C476.596955,269.308716 470.363784,248.144151 464.333957,227.672622 C458.797971,208.869358 453.540029,190.991525 448.751028,172.196562 C465.491784,155.974544 469.977841,129.751233 458.071736,108.445571 C451.842714,97.286451 442.024016,88.9907712 430.184309,84.7454082 C421.730933,55.8371028 407.563124,33.6599585 388.021176,18.7659138 C371.251371,5.98417649 351.028836,-0.659836706 331.096796,0.0539488382 C302.142841,1.08727819 283.592722,13.0722319 268.686228,22.7041837 C259.124825,28.8834064 251.57198,33.7637061 244.326229,33.7637061 C237.080478,33.7637061 229.527633,28.8834064 219.96208,22.7041837 C205.059736,13.0722319 186.509617,1.08727819 157.555663,0.0539488382 C137.623622,-0.663986355 117.401087,5.9883272 100.631282,18.7659138 C81.0851839,33.6599585 66.9215253,55.8371028 58.4681482,84.7454082 C46.6284418,88.9907712 36.8097441,97.286451 30.5807213,108.445571 C18.6746162,129.751233 23.1606738,155.978694 39.9055799,172.200711 C38.5527072,177.508453 37.1043872,182.97389 35.5149707,188.77547 C33.962902,194.431804 37.2869835,200.279034 42.9474671,201.831103 C43.8853484,202.092546 44.831529,202.212895 45.7652595,202.212895 C50.4297636,202.212895 54.708326,199.117058 56.0030994,194.398605 C56.9949293,190.784029 57.9286598,187.306401 58.8250414,183.89932 C60.958097,184.650456 63.136803,185.272942 65.3570066,185.741883 C66.0873916,185.89543 66.8219273,185.970128 67.5481616,185.970128 C71.3370345,185.970128 74.9184101,183.93252 76.8190716,180.52544 L115.728672,110.877422 C117.961326,106.872753 117.376188,101.888706 114.276201,98.5065254 C110.624276,94.5392069 106.391363,91.1653265 101.69366,88.4844811 C95.4397392,84.9155555 88.6670784,82.7368495 81.7325706,81.9691155 C85.5504922,71.3868324 90.2108456,62.4147173 95.4397392,54.8701729 C124.277496,53.0068604 152.185673,72.2790644 173.080493,107.885333 C172.063765,107.976631 171.047035,108.096979 170.030306,108.267125 C159.655519,110.005939 150.583806,115.716222 144.479281,124.343895 C144.421182,124.431043 144.358933,124.518191 144.304984,124.605339 L104.718947,184.264513 C92.4683992,200.44503 94.2819127,223.057917 109.00581,237.026529 C109.391752,237.391721 109.806743,237.732015 110.242484,238.034959 C110.906471,238.499749 111.562158,238.956239 112.201244,239.40858 C102.349347,261.888668 85.3139473,302.794377 75.847991,346.032339 C67.5772113,383.813163 66.7347783,415.933503 73.262595,442.077965 C27.8625269,402.574927 12.1136013,354.796959 26.3685576,299.084354 C28.2858187,291.597907 30.2902278,284.074112 32.4938328,276.085526 C34.05005,270.429192 30.7301182,264.581963 25.0737842,263.021595 C19.4216009,261.465377 13.5702217,264.781159 12.0098537,270.437493 C9.77304942,278.554726 7.73544103,286.203019 5.78498058,293.818112 C-3.86772052,331.549136 -1.42757066,366.719664 13.0348819,398.346164 C25.2812805,425.125563 46.3088986,449.59346 75.5284479,471.081719 C107.574089,494.644934 148.944589,514.581126 201.229364,531.599926 C201.648506,531.765922 202.071797,531.907019 202.507539,532.014917 C214.903333,536.027885 227.909167,539.874855 241.549937,543.56828 C242.462917,543.817275 243.396648,543.941771 244.330379,543.941771 C245.264109,543.941771 246.197841,543.817275 247.106672,543.56828 C260.747442,539.874855 273.753275,536.027885 286.153219,532.014917 C286.58481,531.907019 287.012252,531.765922 287.431394,531.599926 C339.712019,514.581126 381.082518,494.644934 413.12816,471.081719 C442.34771,449.59346 463.375328,425.125563 475.621725,398.346164 C490.084179,366.719664 492.524329,331.549136 482.871627,293.818112 L482.871627,293.818112 Z M439.525768,118.807908 C447.414755,132.930068 443.29804,150.646054 430.512153,159.821516 C430.491403,159.838115 430.470653,159.850565 430.454055,159.863014 C429.603321,160.473052 428.71524,161.041591 427.789809,161.568629 C427.22957,161.888173 426.661032,162.191117 426.084194,162.473311 L395.686068,108.051329 C396.271206,107.661238 396.872944,107.291896 397.491282,106.939152 C404.629135,102.863936 412.916514,101.834758 420.813802,104.034212 C428.798238,106.254416 435.442251,111.499909 439.525768,118.807908 Z M92.9705397,108.051329 L62.5682639,162.473311 C61.9955762,162.191117 61.4270371,161.888173 60.8667994,161.568629 C59.9413682,161.041591 59.0491362,160.468902 58.198404,159.863014 C58.1818043,159.850565 58.1652047,159.838115 58.1527547,159.825665 C45.3585673,150.654354 41.2418519,132.934218 49.1308406,118.807908 C53.2143567,111.504058 59.8583699,106.254416 67.8428058,104.034212 C75.7442434,101.834758 84.0233235,102.868086 91.1653265,106.939152 C91.7795139,107.291896 92.3812513,107.661238 92.9705397,108.051329 Z M121.779247,196.930054 C121.936944,196.730858 122.086341,196.519212 122.227438,196.307566 L161.908923,136.503145 C164.714265,132.593925 168.83928,130.012678 173.541133,129.224195 C178.251287,128.43571 182.99049,129.543738 186.887259,132.344931 C186.986857,132.419628 187.094755,132.481877 187.198503,132.548276 C187.302251,132.618824 187.405999,132.689374 187.513896,132.755772 C187.588595,132.801421 187.659144,132.85122 187.733843,132.896869 C189.24441,133.776651 191.057924,134.888828 192.975184,136.067404 C205.815021,143.948092 225.224172,155.858347 244.326229,155.858347 C263.428287,155.858347 282.837438,143.948092 295.677273,136.067404 C297.594535,134.888828 299.408047,133.776651 300.918616,132.896869 C300.993314,132.85122 301.063863,132.801421 301.138561,132.751622 C301.24646,132.685223 301.350207,132.618824 301.453955,132.548276 C301.557702,132.481877 301.665601,132.419628 301.765199,132.344931 C305.661969,129.543738 310.397021,128.43571 315.111324,129.224195 C319.813177,130.012678 323.938193,132.593925 326.743536,136.503145 L366.42502,196.307566 C366.566117,196.523361 366.715514,196.730858 366.87321,196.930054 C372.463146,204.163354 371.828209,214.646039 365.520339,221.119906 C362.5241,223.219762 359.731207,225.224172 357.120911,227.149732 C357.075262,227.178782 357.033762,227.211981 356.988114,227.24518 C337.329968,241.753282 328.258254,251.737976 323.701647,263.307939 C318.140763,277.430099 320.70126,291.220266 324.57313,312.090186 C326.623187,323.12481 329.171235,336.861027 331.117545,354.070724 C331.167344,354.485715 331.237892,354.896557 331.333341,355.303248 C332.83976,361.739766 330.814602,368.541477 326.04635,373.060733 C325.822254,373.272379 325.610609,373.492325 325.407262,373.72057 L284.721499,419.531479 C281.314419,423.378449 276.438269,425.586204 271.346323,425.590353 L217.310284,425.590353 C212.214189,425.586204 207.338039,423.378449 203.918509,419.523179 L163.245195,373.72057 C163.041849,373.492325 162.830203,373.272379 162.606109,373.060733 C157.837856,368.545626 155.808548,361.739766 157.319117,355.303248 C157.414565,354.896557 157.485113,354.485715 157.530763,354.070724 C159.481223,336.861027 162.02927,323.12896 164.079328,312.090186 C167.951199,291.220266 170.511696,277.430099 164.95081,263.312088 C160.390054,251.737976 151.32249,241.753282 131.664345,227.24518 C131.618695,227.211981 131.577195,227.182931 131.531547,227.149732 C128.92125,225.224172 126.128358,223.219762 123.12797,221.124056 C116.824249,214.646039 116.189313,204.163354 121.779247,196.930054 L121.779247,196.930054 Z M129.676535,252.650958 C138.329107,259.938208 143.035111,265.648491 145.180616,271.097329 C148.508848,279.546555 146.508589,290.336333 143.188657,308.214167 C141.10125,319.456285 138.507554,333.420748 136.486545,351.107685 C133.581605,364.516059 137.818667,378.605019 147.637366,388.145674 L164.224575,406.82444 C158.169849,439.363921 155.551254,469.579449 171.818919,498.433807 C147.604167,488.847504 126.290205,478.427069 107.901932,467.180799 C78.2756919,428.125952 85.6002911,356.008734 129.676535,252.650958 Z M244.326229,522.304117 C232.56537,519.079632 221.285903,515.714052 210.450475,512.219823 C181.181127,485.946713 178.018891,459.33331 182.384602,427.27107 L188.020186,433.616289 C195.456834,442.015716 206.126265,446.829617 217.306134,446.837917 L271.350474,446.837917 C282.526194,446.833767 293.195625,442.015716 300.619822,433.628739 L306.267856,427.27107 C310.633566,459.33331 307.471332,485.946713 278.201983,512.219823 C267.366556,515.714052 256.087087,519.079632 244.326229,522.304117 L244.326229,522.304117 Z M415.348365,442.119464 C418.763744,428.478694 420.203765,413.240207 419.593727,396.441352 C419.377931,390.581674 414.493482,386.004318 408.588153,386.211813 C402.728473,386.427608 398.146968,391.349408 398.358614,397.217387 C399.433442,426.831178 393.503214,450.340446 380.771274,467.1725 C362.374703,478.422918 341.060741,488.843354 316.833539,498.433807 C333.101205,469.579449 330.486758,439.363921 324.427883,406.82444 L341.015093,388.145674 C350.83379,378.609169 355.075003,364.516059 352.170063,351.107685 C350.144905,333.420748 347.551207,319.456285 345.463801,308.214167 C342.148019,290.336333 340.14361,279.546555 343.471842,271.097329 C345.621497,265.640191 350.3358,259.925758 359.013272,252.621908 C367.014308,271.188627 375.563132,292.589737 382.95413,316.451747 C384.365101,321.008353 388.564815,323.934042 393.100671,323.934042 C394.1423,323.934042 395.200529,323.780496 396.246307,323.456803 C401.852841,321.717989 404.986027,315.76701 403.251363,310.164626 C394.926634,283.293928 385.253182,259.593765 376.442914,239.41688 C377.090301,238.96039 377.745987,238.499749 378.409973,238.034959 C378.845714,237.732015 379.260707,237.395871 379.646648,237.030679 C394.370546,223.062066 396.184058,200.44503 383.93351,184.264513 L344.351623,124.609489 C344.293525,124.518191 344.235426,124.435193 344.173177,124.348045 C338.068653,115.716222 328.996939,110.005939 318.622152,108.271274 C317.613723,108.101128 316.601144,107.980781 315.592714,107.889483 C315.991106,107.213047 316.377048,106.515861 316.779591,105.851875 C319.817327,100.830478 318.211311,94.2985124 313.189914,91.2607748 C308.164367,88.2230372 301.636551,89.8332042 298.602963,94.8546004 C294.544347,101.560863 290.763774,108.769264 287.298596,116.28476 C286.414664,116.8201 285.501683,117.384488 284.563802,117.961326 C273.761574,124.59289 257.431659,134.610783 244.326229,134.610783 C231.220798,134.610783 214.895034,124.59289 204.088656,117.961326 C203.159075,117.388638 202.250244,116.828399 201.374611,116.29721 C189.493406,90.5262402 174.093073,69.4363731 156.68003,55.1855654 C143.5663,44.4621858 129.311343,37.6231263 114.550096,34.8634333 C128.248964,24.7334917 143.313155,20.8076729 156.796228,21.289062 C179.898804,22.1148953 195.058442,31.908694 208.433616,40.5529666 C219.94133,47.9896138 230.814107,55.0154191 244.326229,55.0154191 C257.838352,55.0154191 268.711128,47.9896138 280.222991,40.5529666 C293.598166,31.908694 308.753655,22.1148953 331.85623,21.289062 C345.322703,20.8118226 360.370295,24.7293421 374.060863,34.8343836 C372.890587,35.0543299 371.724461,35.2950244 370.562485,35.5647686 C364.848052,36.8885917 361.291575,42.5988743 362.615398,48.3133066 C363.752474,53.222656 368.122334,56.5384381 372.952836,56.5384381 C373.74962,56.5384381 374.558852,56.4512902 375.363936,56.2603936 C381.190417,54.9116715 387.174593,54.4551804 393.20442,54.8660222 C398.437462,62.4064181 403.101966,71.3868324 406.924038,81.9732651 C399.98953,82.7409991 393.216869,84.9197051 386.962948,88.4886318 C382.265244,91.1694762 378.032332,94.5392069 374.380407,98.510675 C371.27627,101.888706 370.691132,106.876903 372.927936,110.881572 L411.833387,180.529591 C413.738197,183.93667 417.315424,185.974279 421.108445,185.974279 C421.834681,185.974279 422.569215,185.89958 423.2996,185.746033 C425.519805,185.277093 427.702661,184.654605 429.835716,183.89932 C434.251226,200.698175 438.990429,216.820595 443.953727,233.677548 C449.929604,253.970631 456.108827,274.9526 462.28805,299.088504 C476.547156,354.817708 460.78163,402.608126 415.348365,442.119464 L415.348365,442.119464 Z" id="Shape"></path>
            <path d="M196.58976,321.107951 C204.785842,339.425675 220.107327,351.472878 231.536192,358.357585 C232.241678,358.793326 232.967912,359.175119 233.702448,359.532011 L233.702448,373.782819 L217.692076,378.11948 C212.027443,379.650798 208.678461,385.485578 210.21393,391.150212 C211.745249,396.814845 217.580029,400.159676 223.244662,398.628358 L244.326229,392.918075 L265.407796,398.628358 C266.337377,398.877353 267.271107,398.9977 268.192388,398.9977 C272.873492,398.9977 277.160354,395.885264 278.442678,391.150212 C279.973996,385.485578 276.625015,379.650798 270.964532,378.11948 L254.950011,373.782819 L254.950011,359.544461 C255.593248,359.233218 256.232334,358.901224 256.854822,358.531882 C266.129881,352.979296 290.863372,334.31298 293.91771,314.849879 C296.021717,301.449805 286.904354,288.813315 273.587278,286.676109 C254.551619,283.625921 235.271115,283.563672 216.276955,286.493512 C213.704008,286.775707 211.201609,287.464593 208.836159,288.54357 C196.564861,294.133505 191.070373,308.732906 196.58976,321.107951 L196.58976,321.107951 Z M217.642277,307.878023 C217.970121,307.732775 218.306263,307.641478 218.646557,307.608279 C218.854052,307.587529 219.065698,307.562629 219.273194,307.52943 C227.577173,306.238806 235.947551,305.59142 244.322079,305.59142 C252.970502,305.59142 261.627223,306.280306 270.225847,307.658077 C272.01031,307.944421 273.222086,309.691535 272.931591,311.554848 C271.703216,319.381586 257.41506,333.433198 245.957145,340.293007 C244.425827,341.205988 243.052205,340.500502 242.666263,340.263957 C242.624764,340.239058 242.587415,340.214158 242.545916,340.189259 C233.719047,334.873219 221.941589,325.743406 215.990612,312.442929 C215.210428,310.695815 215.953263,308.649907 217.642277,307.878023 Z" id="Shape"></path>
            <path d="M174.947954,232.727217 L193.979464,243.832389 C195.664329,244.815919 197.506891,245.280709 199.324554,245.280709 C202.976479,245.280709 206.537105,243.396648 208.508315,240.010318 C211.467204,234.943272 209.753289,228.436206 204.686244,225.481467 L185.654734,214.376294 C180.587689,211.417405 174.080623,213.131321 171.125883,218.198366 C168.166994,223.265412 169.880909,229.772478 174.947954,232.727217 Z" id="Path"></path>
            <path d="M289.332054,245.280709 C291.149717,245.280709 292.992278,244.815919 294.672995,243.832389 L313.708653,232.727217 C318.775699,229.772478 320.485464,223.265412 317.530725,218.198366 C314.575986,213.131321 308.068919,211.421555 302.997723,214.376294 L283.966215,225.481467 C278.899169,228.436206 277.189403,234.943272 280.144142,240.010318 C282.119503,243.396648 285.675979,245.280709 289.332054,245.280709 Z" id="Path"></path>
            <path d="M30.4188743,242.429717 C31.6016008,242.853009 32.8050756,243.052205 33.9919517,243.052205 C38.3535113,243.052205 42.4453277,240.342311 43.9973953,236.0015 L44.001546,235.9932 C45.9727558,230.465514 43.0927144,224.394189 37.565028,222.418829 C32.0414913,220.447619 25.9618665,223.327661 23.9865071,228.855347 C22.0152973,234.378884 24.8953387,240.458509 30.4188743,242.429717 Z" id="Path"></path>
            <path d="M414.10754,352.257211 C412.879165,346.522029 407.231131,342.870104 401.495949,344.098478 C395.756617,345.326853 392.104692,350.979037 393.333067,356.714219 C394.403745,361.702417 398.806804,365.117797 403.712003,365.117797 C404.446539,365.117797 405.197673,365.038949 405.944658,364.877102 C411.68399,363.648727 415.335915,358.000693 414.10754,352.265511 L414.10754,352.257211 Z" id="Path"></path>
            <path d="M328.627596,58.073906 L328.623447,58.0780567 C323.929893,61.6013341 322.979563,68.2577973 326.49869,72.9513511 C328.586098,75.7317934 331.777382,77.2008638 335.006016,77.2008638 C337.22622,77.2008638 339.463024,76.5078277 341.376134,75.0719567 C346.069688,71.552829 347.020018,64.8922162 343.500891,60.1986624 C339.981763,55.5051096 333.32115,54.5547783 328.627596,58.073906 Z" id="Path"></path>
        </g>
    </g>
</svg>