<svg height="404pt" viewBox="0 -10 404.91776 404" width="404pt" xmlns="http://www.w3.org/2000/svg"><path d="m331.414062 179.929688v-152.164063c0-15.054687-12.253906-27.308594-27.308593-27.308594-15.054688 0-27.304688 12.253907-27.304688 27.308594v123.242187c-2.265625-.207031-4.539062-.363281-6.828125-.363281h-147.847656c-40.78125 0-74.726562 30.796875-77.273438 70.109375-1.359374 21.019532 5.792969 41.027344 20.136719 56.328125 14.148438 15.09375 34.121094 23.75 54.796875 23.75 32.671875 0 61.382813-20.871093 71.445313-51.9375 1.042969-3.203125 6.25-3.210937 7.3125.058594 10.164062 31.300781 38.953125 51.875 71.421875 51.875 1.582031 0 3.183594-.113281 4.78125-.210937-3.644532 8.171874-11.816406 13.863281-21.226563 13.863281h-7.71875c-7.503906-8.355469-18.351562-13.652344-30.441406-13.652344h-27.308594c-22.585937 0-40.957031 18.375-40.957031 40.960937 0 22.585938 18.371094 40.960938 40.957031 40.960938h27.308594c12.089844 0 22.9375-5.296875 30.441406-13.65625h1.503907c46.378906 0 84.109374-37.726562 84.109374-84.109375v-12.195313c0-1.03125-.265624-1.980468-.675781-2.859374 7.464844-10.234376 12.394531-22.429688 13.859375-35.664063 2.058594-18.644531-2.867187-37.277344-13.601562-52.273437.214844-.660157.417968-1.332032.417968-2.0625zm-13.65625-104.53125-27.304687 13.886718v-19.019531l27.304687-13.882813zm-27.304687 48.21875v-19.015626l27.304687-13.882812v19.019531l-25.066406 12.742188zm13.652344-109.503907c7.53125 0 13.652343 6.121094 13.652343 13.652344v13.296875l-27.304687 13.886719v-27.183594c0-7.53125 6.121094-13.652344 13.652344-13.652344zm-13.652344 124.824219 25.066406-12.742188 2.238281-1.140624v42.894531c-8.039062-6.640625-17.332031-11.511719-27.304687-14.347657zm-75.09375 230.160156h-27.308594c-15.054687 0-27.304687-12.25-27.304687-27.304687 0-15.058594 12.25-27.308594 27.304687-27.308594h27.308594c15.054687 0 27.304687 12.25 27.304687 27.308594 0 15.054687-12.25 27.304687-27.304687 27.304687zm38.695313-13.996094c1.441406-4.179687 2.265624-8.648437 2.265624-13.3125 0-4.804687-.875-9.402343-2.402343-13.6875 17.621093-.195312 32.390625-12.921874 35.699219-29.851562 10.449218-2.8125 20.011718-7.839844 28.140624-14.542969v1.28125c0 36.570313-28.011718 66.703125-63.703124 70.113281zm76.96875-122.335937c-3.132813 28.371094-26.972657 51.65625-55.449219 54.164063-28.785157 2.542968-55.144531-14.804688-64.042969-42.191407-2.363281-7.28125-9.058594-12.175781-16.652344-12.175781-7.601562 0-14.285156 4.875-16.632812 12.125-8.230469 25.414062-31.726563 42.488281-58.457032 42.488281-17.167968 0-33.09375-6.898437-44.835937-19.433593-11.738281-12.519532-17.589844-28.894532-16.472656-46.109376 2.082031-32.148437 30.042969-57.335937 63.648437-57.335937h147.847656c17.445313 0 34.132813 7.457031 45.78125 20.464844 11.808594 13.1875 17.226563 30.234375 15.265626 48.003906zm0 0"/><path d="m119.785156 177.953125c-26.347656 0-47.785156 21.4375-47.785156 47.785156 0 3.769531 3.054688 6.828125 6.824219 6.828125 3.773437 0 6.828125-3.058594 6.828125-6.828125 0-18.820312 15.3125-34.132812 34.132812-34.132812 3.769532 0 6.828125-3.054688 6.828125-6.828125 0-3.769532-3.058593-6.824219-6.828125-6.824219zm0 0"/><path d="m51.519531 75.550781c15.054688 0 27.304688-12.25 27.304688-27.304687 0-15.058594-12.25-27.308594-27.304688-27.308594-15.054687 0-27.308593 12.25-27.308593 27.308594 0 15.054687 12.253906 27.304687 27.308593 27.304687zm0-40.957031c7.53125 0 13.652344 6.121094 13.652344 13.652344 0 7.527344-6.121094 13.652344-13.652344 13.652344s-13.652343-6.125-13.652343-13.652344c0-7.53125 6.121093-13.652344 13.652343-13.652344zm0 0"/><path d="m382.929688 341.792969c0 5.832031-4.726563 10.558593-10.558594 10.558593-5.832032 0-10.558594-4.726562-10.558594-10.558593s4.726562-10.558594 10.558594-10.558594c5.832031 0 10.558594 4.726563 10.558594 10.558594zm0 0"/><path d="m21.117188 130.164062c0 5.832032-4.726563 10.5625-10.558594 10.5625-5.832032 0-10.558594-4.730468-10.558594-10.5625 0-5.832031 4.726562-10.558593 10.558594-10.558593 5.832031 0 10.558594 4.726562 10.558594 10.558593zm0 0"/><path d="m239.570312 41.417969c0 5.832031-4.726562 10.558593-10.558593 10.558593s-10.558594-4.726562-10.558594-10.558593 4.726563-10.558594 10.558594-10.558594 10.558593 4.726563 10.558593 10.558594zm0 0"/><path d="m54.761719 348.792969c-2.667969-2.667969-6.988281-2.667969-9.65625 0l-7.238281 7.238281-7.238282-7.238281c-2.667968-2.667969-6.988281-2.667969-9.652344 0-2.667968 2.664062-2.667968 6.984375 0 9.652343l7.238282 7.238282-7.238282 7.238281c-2.667968 2.667969-2.667968 6.988281 0 9.65625 1.332032 1.332031 3.078126 2 4.824219 2 1.746094 0 3.496094-.667969 4.828125-2l7.238282-7.242187 7.238281 7.242187c1.335937 1.332031 3.082031 2 4.828125 2s3.492187-.667969 4.828125-2c2.664062-2.667969 2.664062-6.988281 0-9.65625l-7.242188-7.238281 7.242188-7.238282c2.664062-2.667968 2.664062-6.988281 0-9.652343zm0 0"/><path d="m395.679688 24.351562 7.238281-7.238281c2.667969-2.667969 2.667969-6.988281 0-9.652343-2.664063-2.667969-6.988281-2.667969-9.652344 0l-7.238281 7.238281-7.242188-7.238281c-2.664062-2.667969-6.984375-2.667969-9.652344 0-2.664062 2.664062-2.664062 6.984374 0 9.652343l7.238282 7.238281-7.238282 7.242188c-2.664062 2.664062-2.664062 6.984375 0 9.652344 1.332032 1.332031 3.082032 2 4.828126 2 1.746093 0 3.492187-.667969 4.824218-2l7.242188-7.242188 7.238281 7.242188c1.332031 1.332031 3.082031 2 4.828125 2 1.742188 0 3.492188-.667969 4.824219-2 2.667969-2.667969 2.667969-6.988282 0-9.652344zm0 0"/></svg>