<?xml version="1.0" encoding="UTF-8"?>
<svg width="512px" height="512px" viewBox="0 0 512 512" version="1.1" xmlns="http://www.w3.org/2000/svg" xmlns:xlink="http://www.w3.org/1999/xlink">
    <!-- Generator: Sketch 53 (72520) - https://sketchapp.com -->
    <title>sunbed</title>
    <desc>Created with Sketch.</desc>
    <g id="Page-1" stroke="none" stroke-width="1" fill="none" fill-rule="evenodd">
        <g id="sunbed" transform="translate(255.500000, 256.000000) scale(-1, 1) translate(-255.500000, -256.000000) translate(-1.000000, 0.000000)" fill="#404348" fill-rule="nonzero">
            <path d="M481.984,412.004 L401.651,412.004 L499.699,313.955 C507.632,306.022 512.001,295.477 512.001,284.258 C512.001,273.039 507.632,262.493 499.7,254.562 C491.767,246.628 481.221,242.258 470.002,242.258 C458.783,242.258 448.237,246.628 440.305,254.561 L359.455,335.411 L267.224,174.795 L320.737,143.899 C320.975,143.785 321.214,143.67 321.446,143.536 C321.678,143.402 321.897,143.253 322.114,143.104 L398.054,99.26 C400.351,97.934 402.027,95.749 402.714,93.187 C403.4,90.624 403.04,87.895 401.714,85.598 C356.223,6.852 257.124,-22.049 176.876,18.283 L173.79,12.938 C171.029,8.155 164.913,6.516 160.13,9.278 C155.347,12.04 153.708,18.155 156.47,22.938 L159.556,28.283 C84.504,77.614 59.982,177.887 105.434,256.655 C106.76,258.953 108.944,260.629 111.506,261.316 C112.358,261.545 113.228,261.657 114.095,261.657 C115.836,261.657 117.562,261.203 119.095,260.317 L195.2,216.377 C195.381,216.287 195.566,216.212 195.743,216.11 C195.975,215.976 196.193,215.828 196.411,215.678 L249.904,184.794 L343.626,348.006 L205.672,348.006 C200.149,348.006 195.672,352.484 195.672,358.006 C195.672,363.528 200.149,368.006 205.672,368.006 L351,368.006 C353.652,368.006 356.196,366.952 358.071,365.077 L454.447,268.702 C458.602,264.547 464.126,262.258 470.001,262.258 C475.877,262.258 481.401,264.547 485.556,268.703 C489.711,272.858 491.999,278.383 491.999,284.258 C491.999,290.134 489.711,295.658 485.555,299.813 L379.809,405.561 C375.655,409.716 370.13,412.004 364.254,412.004 L42.012,412.004 C29.881,412.004 20.013,402.135 20.013,390.005 C20.013,377.875 29.882,368.006 42.012,368.006 L123.009,368.006 C128.532,368.006 133.009,363.528 133.009,358.006 C133.009,352.484 128.532,348.006 123.009,348.006 L42.012,348.006 C18.854,348.006 0.013,366.846 0.013,390.005 C0.013,401.039 4.296,411.085 11.279,418.588 C4.41,424.089 0,432.538 0,442.003 C0,458.544 13.458,472.002 29.999,472.002 L74.707,472.002 L56.141,495.68 C53.78,498.691 53.345,502.785 55.019,506.226 C56.693,509.667 60.185,511.85 64.011,511.85 L105.01,511.85 C107.38,511.85 109.673,511.008 111.48,509.475 L155.643,472.002 L356.369,472.002 L400.532,509.475 C402.339,511.008 404.632,511.85 407.002,511.85 L448.001,511.85 C451.827,511.85 455.318,509.666 456.993,506.226 C458.668,502.786 458.232,498.691 455.871,495.68 L437.306,472.002 L481.986,472.002 C498.527,472.002 511.985,458.544 511.985,442.003 C511.985,425.462 498.525,412.004 481.984,412.004 Z M253.336,20.138 C302.431,20.138 350.321,44.057 379.109,87.106 L319.965,121.252 C298.698,86.602 273.016,57.541 246.949,38.785 C237.977,32.329 229.222,27.302 220.807,23.707 C231.581,21.319 242.487,20.138 253.336,20.138 Z M118.04,237.833 C90.094,181.11 101.094,113.988 142.287,69.034 C141.193,78.121 141.168,88.219 142.273,99.22 C145.483,131.173 157.809,167.944 177.184,203.686 L118.04,237.833 Z M194.51,193.683 C176.525,160.395 165.111,126.459 162.173,97.22 C159.935,74.949 162.952,57.467 170.518,47.27 L208.675,113.36 C210.527,116.568 213.888,118.362 217.344,118.362 C219.04,118.362 220.76,117.929 222.335,117.02 C227.118,114.258 228.757,108.143 225.995,103.36 L187.838,37.269 C200.452,35.814 217.099,41.944 235.268,55.017 C259.121,72.181 282.804,99.034 302.64,131.252 L194.51,193.683 Z M101.339,491.849 L84.559,491.849 L100.122,472.001 L124.731,472.001 L101.339,491.849 Z M410.669,491.849 L387.278,472.001 L411.887,472.001 L427.449,491.849 L410.669,491.849 Z M481.984,452.003 L29.999,452.003 C24.485,452.003 19.999,447.517 19.999,442.003 C19.999,436.489 24.485,432.003 29.999,432.003 L481.984,432.003 C487.498,432.003 491.984,436.489 491.984,442.003 C491.984,447.517 487.498,452.003 481.984,452.003 Z" id="Shape"></path>
            <path d="M174.416,350.931 C172.546,349.071 169.966,348.001 167.336,348.001 C164.706,348.001 162.126,349.07 160.266,350.931 C158.406,352.801 157.336,355.371 157.336,358.001 C157.336,360.631 158.406,363.211 160.266,365.081 C162.126,366.94 164.706,368.011 167.336,368.011 C169.967,368.01 172.547,366.94 174.416,365.081 C176.276,363.211 177.336,360.641 177.336,358.001 C177.336,355.371 176.276,352.791 174.416,350.931 Z" id="Path"></path>
            <path d="M242.665,133.157 C240.805,131.298 238.224,130.237 235.595,130.237 C232.965,130.237 230.385,131.298 228.525,133.157 C226.665,135.027 225.595,137.597 225.595,140.237 C225.595,142.867 226.665,145.447 228.525,147.307 C230.385,149.167 232.965,150.237 235.595,150.237 C238.225,150.237 240.805,149.168 242.665,147.307 C244.525,145.447 245.595,142.867 245.595,140.237 C245.595,137.597 244.525,135.027 242.665,133.157 Z" id="Path"></path>
        </g>
    </g>
</svg>