<?xml version="1.0" encoding="UTF-8"?>
<svg width="545px" height="545px" viewBox="0 0 545 545" version="1.1" xmlns="http://www.w3.org/2000/svg" xmlns:xlink="http://www.w3.org/1999/xlink">
    <!-- Generator: Sketch 53 (72520) - https://sketchapp.com -->
    <title>snail</title>
    <desc>Created with Sketch.</desc>
    <g id="Page-1" stroke="none" stroke-width="1" fill="none" fill-rule="evenodd">
        <g id="snail" fill="#404348" fill-rule="nonzero">
            <path d="M491.777344,395.976562 C485.910377,395.976562 481.132812,400.754127 481.132812,406.621094 C481.132812,432.059861 468.338585,455.490303 446.899834,469.31572 C442.143059,472.384338 440.521431,479.091224 443.71479,484.026794 C446.874885,488.90831 453.531875,490.363617 458.430023,487.220154 C485.594368,469.781418 502.421875,438.883171 502.421875,406.621094 C502.421875,400.754127 497.64431,395.976562 491.777344,395.976562 Z" id="Path"></path>
            <path d="M407.386169,481.132812 L407.290535,481.132812 C401.415253,481.186866 396.691742,485.997695 396.741638,491.872978 C396.787377,497.68589 401.564941,502.421875 407.377854,502.421875 L407.473488,502.421875 L407.481804,502.421875 C413.34877,502.367821 418.076439,497.548676 418.030701,491.681709 C417.980804,485.860481 413.199082,481.132812 407.386169,481.132812 Z" id="Path"></path>
            <path d="M513.066406,235.244141 C513.066406,209.385414 531.087266,190.765801 531.236953,190.611953 C534.280625,187.568284 535.191231,182.990303 533.544655,179.011078 C531.898079,175.036011 528.018646,172.441406 523.710938,172.441406 L491.174431,172.441406 C489.777336,129.347687 503.719177,94.4286352 519.902191,63.1229017 C534.234886,59.9835963 545,47.1935278 545,31.9335938 C545,14.3243787 530.675621,0 513.066406,0 C495.457191,0 481.132812,14.3243787 481.132812,31.9335938 C481.132812,43.9585876 487.818909,54.4492724 497.6651,59.8962781 C481.548615,92.2373584 468.355217,128.495293 469.893684,173.343696 C457.702369,174.761582 446.034966,177.863464 435.132637,182.532921 C427.851943,146.424675 408.982849,109.501457 378.862152,72.4659729 C382.92038,67.1104431 385.332031,60.4451368 385.332031,53.2226562 C385.332031,35.6134412 371.007653,21.2890625 353.398438,21.2890625 C335.789222,21.2890625 321.464844,35.6134412 321.464844,53.2226562 C321.464844,70.8318713 335.789222,85.15625 353.398438,85.15625 C356.013832,85.15625 358.554382,84.8319239 360.986824,84.2373278 C391.581536,121.418342 409.872666,158.029709 415.440254,193.256455 C407.036896,198.911362 399.307136,205.659828 392.417297,213.443641 C386.949501,219.626617 382.080459,226.366768 377.843437,233.560143 C370.837173,222.728501 362.853774,212.433242 353.922349,202.882271 C334.088593,181.655579 310.608253,164.965286 284.125824,153.277092 C255.335693,140.566025 223.668213,134.121094 190.004883,134.121094 C132.736473,134.121094 84.0377429,154.241753 49.1644287,192.312584 C17.4595263,226.928101 -5.68434189e-14,273.739089 -5.68434189e-14,324.125977 C-5.68434189e-14,373.065872 16.399231,410.654373 48.744469,435.856133 C57.5386816,442.70855 67.4805066,448.575515 78.5158923,453.465347 C65.1395411,457.244988 52.5199511,463.486176 41.1519239,472.064171 C21.3223267,487.020569 7.23495483,507.548713 0.411644248,531.43238 C-1.49272945,538.081055 3.7588501,545 10.6445312,545 L427.910156,545 C492.471733,545 545,492.471733 545,427.910156 L545,340.625 C545,310.836945 534.014512,288.674697 525.187035,270.865898 C518.683892,257.747345 513.066406,246.412583 513.066406,235.244141 Z M513.066406,21.2890625 C518.937531,21.2890625 523.710938,26.0624695 523.710938,31.9335938 C523.710938,37.804718 518.937531,42.578125 513.066406,42.578125 C507.195282,42.578125 502.421875,37.804718 502.421875,31.9335938 C502.421875,26.0624695 507.195282,21.2890625 513.066406,21.2890625 Z M353.398438,63.8671875 C347.527313,63.8671875 342.753906,59.0937805 342.753906,53.2226562 C342.753906,47.351532 347.527313,42.578125 353.398438,42.578125 C359.269562,42.578125 364.042969,47.351532 364.042969,53.2226562 C364.042969,59.0937805 359.269562,63.8671875 353.398438,63.8671875 Z M61.8255994,419.06189 C34.9273682,398.105469 21.2890625,366.163559 21.2890625,324.125977 C21.2890625,242.865791 74.0876002,155.410156 190.004883,155.410156 C273.269233,155.410156 335.2071,199.925918 366.903687,256.85337 C360.841294,273.547821 357.65625,291.809845 357.65625,310.820312 L357.65625,370.159416 C357.65625,403.581581 332.545967,430.937195 299.298439,433.789597 L247.651672,437.972565 C249.285774,436.958008 250.894928,435.926819 252.462501,434.870681 C286.462632,411.880989 304.433594,378.924523 304.433594,339.560547 C304.433594,304.674758 295.930443,277.327461 279.15699,258.279572 C260.72033,237.34394 232.695275,226.728516 195.859375,226.728516 C161.401863,226.728516 133.218804,235.996742 114.36634,253.526954 C98.2748034,268.487511 89.4140625,288.83686 89.4140625,310.820312 C89.4140625,350.812149 115.281105,374.6875 158.603516,374.6875 C195.443573,374.6875 208.770027,347.756005 210.666084,333.514785 C211.443634,327.689399 207.352142,322.33387 201.522598,321.560478 C195.697212,320.778771 190.341682,324.87442 189.568291,330.703965 C189.44355,331.631202 186.221084,353.398437 158.603516,353.398437 C136.75312,353.398437 110.703125,346.013794 110.703125,310.820312 C110.703125,281.847229 133.006744,248.017578 195.859375,248.017578 C254.595566,248.017578 283.144531,277.963638 283.144531,339.560547 C283.144531,430.858192 170.478821,443.810425 157.634697,444.987145 C156.852989,445.057831 134.428787,447.140999 134.428787,447.140999 C104.374619,442.633705 80.0418848,433.253212 61.8255994,419.06189 Z M523.710938,427.910156 C523.710938,480.733643 480.733643,523.710938 427.910156,523.710938 L25.9543604,523.710938 C40.8858106,491.781502 73.4181592,470.488281 109.426613,470.488281 C109.713516,470.488281 300.961647,455.012131 301.065598,455.003815 C344.358901,451.502761 378.945313,413.382034 378.945313,370.159416 L378.945313,310.820312 C378.945313,242.9739 423.710557,193.730469 485.390625,193.730469 L503.02063,193.730469 C497.253456,204.092255 491.777344,218.375054 491.777344,235.244141 C491.777344,251.398048 498.742028,265.447998 506.114197,280.321235 C514.767036,297.776604 523.710938,315.822411 523.710938,340.625 L523.710938,427.910156 Z" id="Shape"></path>
        </g>
    </g>
</svg>