<?xml version="1.0" encoding="UTF-8"?>
<svg width="885px" height="580px" viewBox="0 0 885 580" version="1.1" xmlns="http://www.w3.org/2000/svg" xmlns:xlink="http://www.w3.org/1999/xlink">
    <!-- Generator: Sketch 53 (72520) - https://sketchapp.com -->
    <title>sneeuwscooter</title>
    <desc>Created with Sketch.</desc>
    <g id="Page-1" stroke="none" stroke-width="1" fill="none" fill-rule="evenodd">
        <g id="sneeuwscooter" transform="translate(9.000000, 16.000000)">
            <g id="snowmobile" transform="translate(116.000000, 255.000000)" fill="#404348" fill-rule="nonzero">
                <path d="M566,195.00022 L566,156.923873 C566,156.519824 565.97568,156.12018 565.932567,155.728242 C565.924828,155.654478 565.908246,155.579613 565.898297,155.50585 C565.854078,155.162353 565.796594,154.823261 565.720317,154.489673 C565.695997,154.382881 565.666149,154.276089 565.638512,154.170398 C565.558919,153.862132 565.467165,153.560472 565.363251,153.263215 C565.343353,153.205966 565.332298,153.147615 565.311294,153.089265 C555.084623,125.556714 537.948785,100.805161 515.756543,81.5088149 C493.548825,62.1959544 466.604182,48.6256477 437.842153,42.2621582 L390.411003,31.7568956 L389.4194,29.7003215 C380.697268,11.6579569 362.072367,0 341.974984,0 C335.846278,0 330.877205,4.94876914 330.877205,11.0524346 C330.877205,17.1572009 335.847383,22.1048691 341.974984,22.1048691 C353.601177,22.1048691 364.373948,28.8503883 369.414876,39.2763824 L370.288195,41.0885457 L344.803873,88.1772676 L156.304132,88.1772676 C114.809338,88.1772676 77.476626,114.299502 63.4051418,153.177341 C63.3874543,153.224682 63.3786106,153.274225 63.3620286,153.323767 C63.2547983,153.633134 63.1630446,153.949107 63.083451,154.270584 C63.0613417,154.360862 63.033705,154.450039 63.0138066,154.540317 C62.9264748,154.93776 62.8546194,155.342909 62.8104008,155.754664 C62.8092953,155.760169 62.8081898,155.765674 62.8081898,155.77228 C62.768393,156.151006 62.7473892,156.536339 62.7473892,156.926075 L62.7473892,185.707103 L57.375927,185.707103 C42.0596874,185.707103 27.6521413,191.647828 16.7975648,202.444842 C5.96509772,213.241857 0,227.590535 0,242.845295 C0,274.359981 25.7385786,299.998899 57.375927,299.998899 L241.215021,299.998899 C256.530155,299.998899 270.938807,294.058174 281.794489,283.26116 C291.485009,273.598124 297.266599,261.088032 298.379804,247.632224 L424.075777,247.632224 C424.956834,247.632224 425.833469,247.525432 426.6891,247.318453 L444.638561,277.89403 L386.510917,277.89403 C380.38221,277.89403 375.413138,282.842799 375.413138,288.946464 C375.413138,295.051231 380.383316,299.998899 386.510917,299.998899 L463.972066,299.998899 C463.98091,299.998899 463.988648,300 463.997492,300 C464.006336,300 464.014074,299.998899 464.021812,299.998899 L506.879647,299.998899 C511.020725,299.998899 515.115373,299.575033 518.997771,298.750422 C546.232046,293.10255 566,268.866242 566,241.121207 C566,235.016441 561.029822,230.068773 554.902221,230.068773 C548.773514,230.068773 543.804442,235.017542 543.804442,241.121207 C543.804442,255.813382 534.934178,268.926794 521.841032,274.731001 L493.321099,226.172511 L558.276105,205.528603 C562.878162,204.066541 566,199.809169 566,195.00022 Z M362.526714,102.016206 L388.522866,53.9828692 L433.023424,63.8396724 C458.176105,69.4049734 481.734704,81.2721107 501.155541,98.159579 C516.470675,111.475566 529.030986,127.761916 538.041644,145.870337 L502.672241,145.870337 L502.672241,130.938156 C502.672241,124.83339 497.702063,119.885721 491.574462,119.885721 C485.44686,119.885721 480.476683,124.834491 480.476683,130.938156 L480.476683,145.870337 L460.922084,145.870337 L460.922084,130.938156 C460.922084,124.83339 455.951906,119.885721 449.824305,119.885721 C443.696704,119.885721 438.726526,124.834491 438.726526,130.938156 L438.726526,145.870337 L419.170822,145.870337 L419.170822,130.938156 C419.170822,124.83339 414.200644,119.885721 408.073043,119.885721 C401.945442,119.885721 396.975264,124.834491 396.975264,130.938156 L396.975264,145.870337 L362.526714,145.870337 L362.526714,102.016206 Z M156.304132,110.279935 L340.33005,110.279935 L340.33005,145.869237 L91.5536376,145.869237 C105.379708,124.088047 129.741981,110.279935 156.304132,110.279935 Z M266.100179,267.629875 C259.444165,274.249886 250.607065,277.89403 241.213916,277.89403 L57.3748215,277.89403 C37.9760938,277.89403 22.1955582,262.171366 22.1955582,242.846395 C22.1955582,233.490524 25.8557581,224.688431 32.4896631,218.071723 C39.144572,211.453914 47.9816719,207.80867 57.3748215,207.80867 L241.213916,207.80867 C258.732245,207.80867 273.713528,220.81529 276.061539,238.06387 C276.06375,238.082586 276.067066,238.102403 276.069277,238.121119 C276.284843,239.643733 276.394284,241.233504 276.394284,242.845295 C276.39539,252.208872 272.73519,261.014268 266.100179,267.629875 Z M497.983957,277.89403 L470.35282,277.89403 L448.375038,240.458435 L471.651743,233.060053 L497.983957,277.89403 Z M543.803336,186.925855 L422.350144,225.526254 L295.882555,225.526254 C288.440554,202.265388 266.445085,185.7038 241.216127,185.7038 L84.9429474,185.7038 L84.9429474,167.975207 L543.803336,167.975207 L543.802231,186.925855 L543.803336,186.925855 Z" id="Shape"></path>
                <path d="M223.941176,231 L105.057722,231 C98.9511366,231 94,236.149168 94,242.5 C94,248.850832 98.9522381,254 105.057722,254 L223.942278,254 C230.048863,254 235,248.850832 235,242.5 C235,236.149168 230.047762,231 223.941176,231 Z" id="Path"></path>
                <path d="M75.0004254,231 C60.3456712,231 60.3207172,254 75.0004254,254 C89.6540453,254.001146 89.6789992,231 75.0004254,231 Z" id="Path"></path>
            </g>
            <polyline id="Line-7" stroke="#404348" stroke-width="18" stroke-linecap="round" transform="translate(433.500000, 215.378356) scale(-1, 1) translate(-433.500000, -215.378356) " points="1.25055521e-12 430.756712 301.707543 -5.68434189e-13 433.5 179.396284 495.424524 104.377793 580.793791 194 545 156.589175 622.628345 61 867 374.5"></polyline>
            <path d="M0,554.768604 L867,554.768604" id="Line-8" stroke="#404348" stroke-width="18" stroke-linecap="round"></path>
        </g>
    </g>
</svg>