<?xml version="1.0" encoding="UTF-8"?>
<svg width="503px" height="503px" viewBox="0 0 503 503" version="1.1" xmlns="http://www.w3.org/2000/svg" xmlns:xlink="http://www.w3.org/1999/xlink">
    <!-- Generator: Sketch 53 (72520) - https://sketchapp.com -->
    <title>snorkel (1)</title>
    <desc>Created with Sketch.</desc>
    <g id="Page-1" stroke="none" stroke-width="1" fill="none" fill-rule="evenodd">
        <g id="snorkel-(1)" fill="#404348" fill-rule="nonzero">
            <path d="M345.8125,212.203125 C340.389531,212.203125 335.988281,216.604375 335.988281,222.027344 C335.988281,227.450312 340.389531,231.851562 345.8125,231.851562 C351.235469,231.851562 355.636719,227.450312 355.636719,222.027344 C355.636719,216.604375 351.235469,212.203125 345.8125,212.203125 Z" id="Path"></path>
            <path d="M117.890625,212.203125 C112.467656,212.203125 108.066406,216.604375 108.066406,222.027344 C108.066406,227.450312 112.467656,231.851562 117.890625,231.851562 C123.313594,231.851562 127.714844,227.450312 127.714844,222.027344 C127.714844,216.604375 123.313594,212.203125 117.890625,212.203125 Z" id="Path"></path>
            <path d="M375.285156,104.136719 L132.656426,104.136719 C82.6275742,104.136719 40.7665781,142.570045 39.341084,189.811766 C37.8301191,239.813109 77.7871816,280.972656 127.714844,280.972656 L185.942988,280.972656 C190.396307,280.972656 194.292592,277.977252 195.437113,273.673262 L198.304803,262.893146 C204.723947,238.83167 226.59757,222.027344 251.5,222.027344 C276.40243,222.027344 298.276053,238.83167 304.694215,262.88627 L307.563869,273.673262 C308.708391,277.977252 312.604676,280.972656 317.057994,280.972656 L370.343574,280.972656 C420.372426,280.972656 462.233422,242.53933 463.658916,195.297609 C465.169881,145.296266 425.212818,104.136719 375.285156,104.136719 Z M444.020303,194.704227 C442.911148,231.438945 409.859529,261.324219 370.343574,261.324219 L324.609871,261.324219 L323.6805,257.827779 C314.969365,225.180918 285.289418,202.378906 251.5,202.378906 C217.710582,202.378906 188.030635,225.180918 179.317535,257.835639 L178.390129,261.324219 L127.714844,261.324219 C89.0398418,261.324219 57.8017734,229.472137 58.9796973,190.405148 C60.0888516,153.67043 93.1404707,123.785156 132.656426,123.785156 L375.285156,123.785156 C413.960158,123.785156 445.198227,155.637238 444.020303,194.704227 Z" id="Shape"></path>
            <path d="M483.351562,124.521973 L483.351562,9.82421875 C483.351562,4.39928516 478.952277,0 473.527344,0 L414.582031,0 C409.157098,0 404.757813,4.39928516 404.757813,9.82421875 L404.757813,68.2616191 C395.144814,65.9882949 385.278352,64.8398438 375.285156,64.8398438 L132.656426,64.8398438 C62.7364785,64.8398438 2.15936328,118.770875 0.062875,188.634824 C-2.1063125,260.860516 55.6433926,320.269531 127.714844,320.269531 L201.032988,320.269531 C214.361506,320.269531 226.073939,311.273494 229.515363,298.389031 L236.28425,273.014057 C238.120396,266.131209 244.377441,261.324219 251.5,261.324219 C258.787605,261.324219 264.914971,266.262854 266.71575,273.012092 L273.485619,298.391979 C276.926061,311.273494 288.638494,320.269531 301.967012,320.269531 L370.343574,320.269531 C382.018676,320.269531 393.546414,318.768391 404.757813,315.814248 L404.757813,375.285156 C404.757813,391.513783 391.591395,404.757812 375.285156,404.757812 L318.579766,404.757812 C314.524328,393.323404 303.604709,385.109375 290.796875,385.109375 L212.203125,385.109375 C199.396273,385.109375 188.475672,393.323404 184.420234,404.757812 L133.609375,404.757812 C128.184441,404.757812 123.785156,409.157098 123.785156,414.582031 L123.785156,473.527344 C123.785156,478.952277 128.184441,483.351562 133.609375,483.351562 L184.420234,483.351562 C188.475672,494.785971 199.395291,503 212.203125,503 L290.796875,503 C303.603727,503 314.524328,494.785971 318.579766,483.351562 L385.109375,483.351562 C439.30566,483.351562 483.351562,439.429445 483.351562,385.109375 L483.351562,259.307307 C495.512963,240.394703 502.271043,218.762756 502.937125,196.475533 C503.708326,170.817621 496.929615,146.012451 483.351562,124.521973 Z M182.730469,463.703125 L143.433594,463.703125 L143.433594,424.40625 L182.730469,424.40625 L182.730469,463.703125 Z M300.621094,473.527344 C300.621094,478.944418 296.213949,483.351562 290.796875,483.351562 L212.203125,483.351562 C206.786051,483.351562 202.378906,478.944418 202.378906,473.527344 L202.378906,414.582031 C202.378906,409.164957 206.786051,404.757812 212.203125,404.757812 L290.796875,404.757812 C296.213949,404.757812 300.621094,409.164957 300.621094,414.582031 L300.621094,473.527344 Z M365.460938,463.703125 L320.269531,463.703125 L320.269531,424.40625 L365.460938,424.40625 L365.460938,463.703125 Z M424.40625,19.6484375 L463.703125,19.6484375 L463.703125,100.472285 C452.317838,89.5565957 438.959848,80.750166 424.40625,74.6630801 L424.40625,19.6484375 Z M385.109375,463.703125 L385.109375,423.424811 C391.281932,422.177135 397.126359,419.755465 402.375439,416.26885 L433.295203,447.188613 C419.575682,457.885223 402.797881,463.703125 385.109375,463.703125 Z M447.188613,433.294221 L416.266885,402.372492 C418.423301,399.123623 420.172994,395.542695 421.489439,391.887104 L463.390715,391.887104 C462.088023,407.029172 456.488219,421.364672 447.188613,433.294221 Z M463.703125,372.337891 L424.40625,372.337891 L424.40625,308.978557 C438.954936,302.64783 452.32275,293.770666 463.703125,282.957148 L463.703125,372.337891 Z M483.297529,195.887062 C481.959471,240.669781 451.741156,278.135422 410.702447,293.349207 C397.740373,298.174863 384.161338,300.621094 370.343574,300.621094 L301.967012,300.621094 C297.522535,300.621094 293.616426,297.618812 292.468957,293.324646 L285.70007,267.948689 C281.646598,252.752588 267.857324,241.675781 251.5,241.675781 C235.491436,241.675781 221.428066,252.478492 217.298947,267.948689 L210.531043,293.320717 C209.382592,297.618812 205.476482,300.621094 201.032006,300.621094 L127.714844,300.621094 C66.8154941,300.621094 17.8663242,250.444879 19.7024707,189.223295 C21.4354629,131.472607 72.1058359,84.4882812 132.656426,84.4882812 L375.285156,84.4882812 C436.04009,84.4882812 485.135641,134.677268 483.297529,195.887062 Z" id="Shape"></path>
            <path d="M271.148438,424.40625 L231.851562,424.40625 C226.426629,424.40625 222.027344,428.805535 222.027344,434.230469 C222.027344,439.655402 226.426629,444.054688 231.851562,444.054688 L271.148438,444.054688 C276.573371,444.054688 280.972656,439.655402 280.972656,434.230469 C280.972656,428.805535 276.573371,424.40625 271.148438,424.40625 Z" id="Path"></path>
            <path d="M183.783625,156.135326 C179.945303,152.298969 173.726572,152.298969 169.889232,156.135326 L140.416576,185.607982 C136.580219,189.44434 136.580219,195.665035 140.416576,199.502375 C144.254898,203.338732 150.472646,203.33775 154.310969,199.502375 L183.783625,170.029719 C187.619982,166.193361 187.619982,159.972666 183.783625,156.135326 Z" id="Path"></path>
            <path d="M411.7055,156.135326 C407.867178,152.298969 401.648447,152.298969 397.811107,156.135326 L368.338451,185.607982 C364.502094,189.44434 364.502094,195.665035 368.338451,199.502375 C372.176773,203.338732 378.394521,203.33775 382.232844,199.502375 L411.7055,170.029719 C415.541857,166.193361 415.541857,159.972666 411.7055,156.135326 Z" id="Path"></path>
        </g>
    </g>
</svg>