<?xml version="1.0" encoding="iso-8859-1"?>
<!-- Generator: Adobe Illustrator 18.0.0, SVG Export Plug-In . SVG Version: 6.00 Build 0)  -->
<!DOCTYPE svg PUBLIC "-//W3C//DTD SVG 1.1//EN" "http://www.w3.org/Graphics/SVG/1.1/DTD/svg11.dtd">
<svg version="1.1" id="Capa_1" xmlns="http://www.w3.org/2000/svg" xmlns:xlink="http://www.w3.org/1999/xlink" x="0px" y="0px"
	 viewBox="0 0 467.225 467.225" style="enable-background:new 0 0 467.225 467.225;" xml:space="preserve">
<g>
	<path d="M442.875,173.184C385.687,114.737,323.151,59.159,257.007,7.992c-13.775-10.656-33.015-10.656-46.789,0
		C144.075,59.157,81.54,114.736,24.35,173.184c-1.337,1.366-1.942,3.288-1.631,5.173s1.502,3.51,3.207,4.375
		c15.112,7.66,32.896,7.631,47.836,0.454v153.441c0,3.313,2.687,6,6,6h11.237v23.315c0,3.313,2.687,6,6,6h5.513v14.204
		c-0.234-0.006-0.466-0.03-0.7-0.03c-5.101,0-10.054,1.486-14.335,4.304c-2.288,1.513-4.956,2.313-7.715,2.313
		c-2.759,0-5.427-0.8-7.714-2.313c-2.765-1.828-6.486-1.07-8.314,1.694c-1.828,2.764-1.069,6.486,1.694,8.314
		c4.257,2.816,9.214,4.304,14.334,4.304c5.121,0,10.078-1.488,14.324-4.297c2.306-1.518,4.977-2.32,7.726-2.32
		c0.235,0,0.467,0.018,0.7,0.03v19.228c-5.219-0.139-10.47,1.279-15.025,4.285c-4.691,3.096-10.754,3.096-15.445,0
		c-2.767-1.825-6.488-1.063-8.313,1.702c-1.826,2.766-1.063,6.487,1.702,8.313c8.708,5.748,19.959,5.747,28.666,0
		c4.691-3.096,10.755-3.097,15.445,0c8.706,5.747,19.958,5.747,28.666,0c4.69-3.097,10.754-3.096,15.445,0
		c8.706,5.747,19.958,5.747,28.666,0c4.69-3.097,10.753-3.097,15.445,0c8.707,5.746,19.958,5.747,28.666,0
		c4.692-3.097,10.755-3.095,15.446,0c8.707,5.748,19.959,5.747,28.666,0c4.691-3.096,10.754-3.097,15.445,0
		c4.354,2.874,9.343,4.311,14.333,4.311c4.989,0,9.98-1.437,14.333-4.31c4.69-3.097,10.753-3.096,15.445,0
		c8.706,5.747,19.958,5.747,28.666,0c4.69-3.097,10.753-3.097,15.445,0c8.707,5.746,19.959,5.747,28.666,0
		c2.766-1.825,3.528-5.547,1.702-8.313c-1.825-2.766-5.548-3.527-8.313-1.702c-4.691,3.096-10.754,3.096-15.445,0
		c-4.557-3.008-9.811-4.425-15.033-4.284v-19.207c2.947-0.141,5.925,0.622,8.418,2.263c4.354,2.875,9.346,4.313,14.337,4.313
		c4.991,0,9.982-1.438,14.336-4.313c2.765-1.826,3.526-5.548,1.7-8.313c-1.827-2.766-5.549-3.526-8.313-1.7
		c-4.691,3.098-10.754,3.099-15.454-0.005c-4.27-2.811-9.223-4.297-14.324-4.297c-0.235,0-0.467,0.024-0.701,0.03v-14.204h5.521
		c3.313,0,6-2.687,6-6v-23.315h11.24c3.313,0,6-2.687,6-6V183.688c7.064,3.202,14.721,4.838,22.409,4.838
		c8.322,0,16.678-1.909,24.343-5.795c1.705-0.864,2.896-2.489,3.207-4.375S444.212,174.55,442.875,173.184z M137.066,342.627v17.315
		h-34.067v-17.315H137.066z M319.24,342.627v23.315c0,3.313,2.687,6,6,6h5.513v15.579c-2.688-0.916-5.512-1.404-8.385-1.404
		c-5.101,0-10.054,1.486-14.335,4.304c-2.288,1.513-4.956,2.313-7.714,2.313c-2.759,0-5.427-0.8-7.726-2.32
		c-4.27-2.811-9.224-4.297-14.324-4.297c-5.094,0-10.048,1.484-14.337,4.299c-2.3,1.517-4.97,2.318-7.722,2.318
		s-5.422-0.801-7.733-2.325c-4.278-2.808-9.232-4.292-14.327-4.292c-5.101,0-10.054,1.486-14.335,4.304
		c-2.288,1.513-4.956,2.313-7.715,2.313c-2.759,0-5.432-0.801-7.735-2.32c-4.27-2.811-9.224-4.297-14.324-4.297
		c-5.087,0-10.038,1.484-14.328,4.299c-2.3,1.517-4.973,2.318-7.732,2.318c-2.759,0-5.427-0.8-7.726-2.32
		c-4.27-2.811-9.224-4.297-14.324-4.297c-2.874,0-5.696,0.488-8.385,1.406v-15.581h5.521c3.313,0,6-2.687,6-6v-23.315H319.24z
		 M116.152,421.66c-0.537-0.355-1.085-0.687-1.641-0.998v-48.719h11.034v51.931C122.317,424.262,118.985,423.529,116.152,421.66z
		 M308.042,421.66c-4.691,3.096-10.754,3.096-15.445,0c-8.707-5.746-19.959-5.747-28.666,0c-4.691,3.096-10.754,3.096-15.445,0
		c-8.707-5.746-19.959-5.747-28.666,0c-4.691,3.096-10.753,3.096-15.445,0c-8.707-5.746-19.959-5.747-28.666,0
		c-4.691,3.096-10.754,3.096-15.445,0c-6.827-4.506-15.215-5.462-22.718-2.901v-17.927c0.217-0.135,0.45-0.254,0.66-0.394
		c2.306-1.518,4.977-2.32,7.725-2.32s5.42,0.802,7.715,2.313c4.257,2.816,9.214,4.304,14.335,4.304
		c5.114,0,10.072-1.487,14.327-4.292c2.318-1.521,4.992-2.325,7.733-2.325c2.749,0,5.42,0.802,7.722,2.318
		c4.266,2.813,9.224,4.299,14.337,4.299c5.121,0,10.078-1.488,14.324-4.297c2.306-1.518,4.977-2.32,7.726-2.32
		c2.748,0,5.425,0.804,7.732,2.318c4.267,2.813,9.221,4.299,14.328,4.299s10.061-1.487,14.317-4.292
		c2.317-1.521,4.995-2.325,7.743-2.325c2.749,0,5.42,0.802,7.715,2.313c4.257,2.816,9.214,4.304,14.335,4.304
		c5.12,0,10.077-1.488,14.324-4.297c2.306-1.518,4.977-2.32,7.726-2.32c2.748,0,5.425,0.804,7.707,2.301
		c0.216,0.144,0.456,0.267,0.678,0.405v17.933C323.252,416.199,314.868,417.155,308.042,421.66z M353.787,420.667
		c-0.553,0.31-1.098,0.64-1.633,0.993c-2.835,1.871-6.17,2.604-9.401,2.214v-51.93h11.034V420.667z M365.307,359.943H331.24v-17.315
		h34.067V359.943z M85.762,330.627V181.505c3.458,1.133,6.998,1.922,10.573,2.336v132.894c0,3.313,2.687,6,6,6h60.725
		c3.313,0,6-2.687,6-6V179.439c4.555-1.225,8.976-3.039,13.127-5.464v74.707c0,3.313,2.687,6,6,6h92.134c3.313,0,6-2.687,6-6v-74
		c3.527,1.932,7.226,3.456,11.034,4.543v137.51c0,3.313,2.687,6,6,6h60.725c3.313,0,6-2.687,6-6V183.914
		c4.224-0.425,8.409-1.354,12.468-2.78v149.494H85.762z M108.335,302.924h48.725v7.811h-48.725V302.924z M157.06,290.924h-48.725
		V183.875c8.094-0.86,16.007-3.513,23.059-7.959c8.073,3.926,16.911,5.699,25.666,5.362V290.924z M194.187,178.23
		c13.272,3.334,27.563,1.573,39.707-5.281l1.07,0.535c12.367,6.183,26.335,7.502,39.357,4.07v65.128h-80.134V178.23z
		 M309.354,302.924h48.725v7.811h-48.725V302.924z M358.079,290.924h-48.725V181.228c9.019,0.482,18.154-1.266,26.477-5.313
		c6.816,4.298,14.437,6.93,22.248,7.879V290.924z M391.132,167.712c-1.076-0.839-2.378-1.267-3.688-1.267
		c-0.979,0-1.963,0.239-2.86,0.726c-14.427,7.826-31.598,6.645-44.811-3.083c-1.921-1.414-4.498-1.557-6.563-0.361
		c-14.199,8.219-31.387,7.511-44.857-1.85c-1.901-1.321-4.391-1.43-6.4-0.282c-12.837,7.335-28.397,7.768-41.622,1.155l-4.035-2.017
		c-1.91-0.955-4.184-0.823-5.97,0.347c-13.719,8.986-30.917,9.223-44.881,0.616c-2.032-1.251-4.612-1.181-6.572,0.181
		c-13.47,9.36-30.659,10.068-44.857,1.85c-2.065-1.195-4.642-1.053-6.563,0.361c-13.212,9.727-30.383,10.908-44.811,3.083
		c-2.096-1.138-4.667-0.925-6.548,0.541c-10.668,8.312-24.185,10.897-36.805,7.398C94.359,119.419,154.295,66.423,217.561,17.483
		c9.451-7.311,22.652-7.311,32.104,0c63.268,48.941,123.203,101.938,178.274,157.628C415.317,178.608,401.8,176.024,391.132,167.712
		z"/>
	<path d="M396.265,452.899c-4.691,3.096-10.754,3.096-15.445,0c-8.707-5.746-19.958-5.745-28.666,0
		c-4.691,3.097-10.754,3.097-15.446,0c-8.707-5.746-19.958-5.747-28.666,0c-4.691,3.096-10.754,3.096-15.445,0
		c-8.707-5.746-19.959-5.747-28.666,0c-4.691,3.096-10.754,3.096-15.445,0c-8.707-5.746-19.959-5.747-28.666,0
		c-4.691,3.096-10.753,3.096-15.445,0c-8.707-5.746-19.959-5.747-28.666,0c-4.691,3.096-10.754,3.096-15.445,0
		c-8.707-5.746-19.958-5.746-28.666,0c-4.691,3.097-10.754,3.097-15.445,0c-8.707-5.746-19.959-5.747-28.666,0
		c-4.691,3.096-10.754,3.096-15.445,0c-2.767-1.826-6.488-1.064-8.313,1.702c-1.826,2.766-1.063,6.487,1.702,8.313
		c8.708,5.748,19.959,5.747,28.666,0c4.691-3.097,10.755-3.096,15.445,0c8.706,5.747,19.958,5.747,28.666,0
		c4.69-3.097,10.754-3.096,15.445,0c8.706,5.747,19.958,5.747,28.666,0c4.69-3.097,10.753-3.097,15.445,0
		c8.707,5.746,19.958,5.747,28.666,0c4.692-3.097,10.755-3.095,15.446,0c8.707,5.748,19.959,5.747,28.666,0
		c4.691-3.097,10.754-3.096,15.445,0c4.354,2.874,9.343,4.311,14.333,4.311c4.989,0,9.98-1.437,14.333-4.31
		c4.69-3.097,10.753-3.096,15.445,0c8.706,5.747,19.958,5.747,28.666,0c4.69-3.097,10.753-3.097,15.445,0
		c8.707,5.746,19.959,5.747,28.666,0c2.766-1.825,3.528-5.547,1.702-8.313C402.752,451.835,399.029,451.074,396.265,452.899z"/>
</g>
<g>
</g>
<g>
</g>
<g>
</g>
<g>
</g>
<g>
</g>
<g>
</g>
<g>
</g>
<g>
</g>
<g>
</g>
<g>
</g>
<g>
</g>
<g>
</g>
<g>
</g>
<g>
</g>
<g>
</g>
</svg>
