<?xml version="1.0" encoding="UTF-8"?>
<svg width="560px" height="503px" viewBox="0 0 560 503" version="1.1" xmlns="http://www.w3.org/2000/svg" xmlns:xlink="http://www.w3.org/1999/xlink">
    <!-- Generator: Sketch 53 (72520) - https://sketchapp.com -->
    <title>temple (1)</title>
    <desc>Created with Sketch.</desc>
    <g id="Page-1" stroke="none" stroke-width="1" fill="none" fill-rule="evenodd">
        <g id="temple-(1)" fill="#404348" fill-rule="nonzero">
            <path d="M303.33087,483.426739 C301.298093,481.39287 298.47692,480.233783 295.601072,480.233783 C292.713196,480.233783 289.90405,481.393963 287.87018,483.426739 C285.836311,485.471543 284.666289,488.281783 284.666289,491.15763 C284.666289,494.044413 285.835217,496.854652 287.87018,498.899457 C289.90405,500.932233 292.714289,502.092413 295.601072,502.092413 C298.47692,502.092413 301.298093,500.932233 303.33087,498.899457 C305.364739,496.854652 306.535854,494.044413 306.535854,491.15763 C306.535854,488.281783 305.365833,485.471543 303.33087,483.426739 Z" id="Path"></path>
            <path d="M548.92718,436.420296 L543.459789,436.420296 L543.459789,276.163402 L548.615539,276.163402 C552.29728,276.163402 555.732989,274.309957 557.75483,271.231815 C559.776672,268.154767 560.11237,264.265265 558.650389,260.886417 L516.141422,162.642863 C526.893593,158.227398 534.486707,147.647996 534.486707,135.323402 C534.486707,129.285215 529.590111,124.38862 523.551924,124.38862 C517.513737,124.38862 512.617141,129.285215 512.617141,135.323402 C512.617141,139.543135 509.182526,142.97775 504.962793,142.97775 L500.448915,142.97775 L500.05745,142.97775 L398.834167,142.97775 L387.609613,127.873535 C396.826541,122.873059 403.099826,113.107204 403.099826,101.90452 C403.099826,95.8663326 398.20323,90.969737 392.165043,90.969737 C386.126857,90.969737 381.230261,95.8663326 381.230261,101.90452 C381.230261,106.124252 377.795646,109.558867 373.575913,109.558867 L186.28605,109.558867 C182.066317,109.558867 178.631702,106.124252 178.631702,101.90452 C178.631702,95.8663326 173.735107,90.969737 167.69692,90.969737 C161.658733,90.969737 156.762137,95.8663326 156.762137,101.90452 C156.762137,113.860611 163.911298,124.172111 174.153909,128.809552 L163.6259,142.97775 L59.804513,142.97775 L59.1014065,142.97775 L54.8980761,142.97775 C50.6783435,142.97775 47.2437283,139.543135 47.2437283,135.323402 C47.2437283,129.285215 42.3471326,124.38862 36.3089457,124.38862 C30.2707587,124.38862 25.374163,129.285215 25.374163,135.323402 C25.374163,147.547396 32.8415261,158.059002 43.4548261,162.537889 L0.899932609,260.886417 C-0.562047826,264.265265 -0.225256522,268.153674 1.7954913,271.231815 C3.81842609,274.308863 7.2530413,276.163402 10.9347826,276.163402 L16.4021739,276.163402 L16.4021739,436.421389 L10.9347826,436.421389 C4.89659565,436.421389 0,441.317985 0,447.356172 L0,491.164191 C0,497.202378 4.89659565,502.098974 10.9347826,502.098974 L250.406522,502.098974 C256.444709,502.098974 261.341304,497.202378 261.341304,491.164191 C261.341304,485.126004 256.444709,480.229409 250.406522,480.229409 L21.8706587,480.229409 L21.8706587,458.290954 L537.992398,458.290954 L537.992398,480.229409 L343.717396,480.229409 C337.679209,480.229409 332.782613,485.126004 332.782613,491.164191 C332.782613,497.202378 337.679209,502.098974 343.717396,502.098974 L548.92718,502.098974 C554.965367,502.098974 559.861963,497.202378 559.861963,491.164191 L559.861963,447.356172 C559.861963,441.316891 554.965367,436.420296 548.92718,436.420296 Z M199.454809,131.427339 L363.005259,131.427339 L429.984083,221.563846 C430.42038,222.151043 430.884015,222.711998 431.341089,223.279513 L131.120072,223.279513 C131.576052,222.710904 132.039687,222.14995 132.475985,221.563846 L199.454809,131.427339 Z M102.78805,436.421389 L38.2728326,436.421389 L38.2728326,276.163402 L102.78805,276.163402 L102.78805,436.421389 Z M85.5646739,223.279513 L85.2923978,223.279513 C78.038263,223.279513 71.0170391,221.151604 64.985413,217.124324 C59.9652543,213.775 53.1736609,215.124352 49.819963,220.148885 C46.4673587,225.17123 47.8210848,231.96173 52.8445239,235.314335 C62.4813478,241.748361 73.7026217,245.149078 85.2934913,245.149078 L85.5657674,245.149078 L102.78805,245.149078 L102.78805,254.292743 L27.5818957,254.292743 L66.2855587,164.847315 L147.37572,164.847315 L114.923472,208.519743 C108.056428,217.761822 97.081187,223.279513 85.5646739,223.279513 Z M146.52718,436.420296 L124.657615,436.420296 L124.657615,245.149078 L146.52718,245.149078 L146.52718,436.420296 Z M321.624761,436.420296 L238.518226,436.420296 L238.518226,350.424791 C238.518226,337.556739 245.401672,325.502235 256.484074,318.963235 L262.287163,315.538461 C269.383837,311.349346 275.404528,305.74527 280.071493,299.208457 C284.738459,305.74527 290.758057,311.349346 297.855824,315.538461 L303.660007,318.963235 C314.741315,325.502235 321.624761,337.557833 321.624761,350.424791 L321.624761,436.420296 L321.624761,436.420296 Z M391.466311,436.421389 L343.492139,436.421389 L343.492139,350.425885 C343.492139,329.855372 332.487374,310.582817 314.773026,300.129165 L308.969937,296.704391 C297.887535,290.165391 291.004089,278.1087 291.004089,265.242835 C291.004089,259.204648 286.107493,254.308052 280.069307,254.308052 C274.03112,254.308052 269.134524,259.204648 269.134524,265.242835 C269.134524,278.109793 262.251078,290.165391 251.168676,296.704391 L245.36668,300.129165 C227.651239,310.583911 216.646474,329.856465 216.646474,350.425885 L216.646474,436.421389 L168.396746,436.421389 L168.396746,245.150172 L391.466311,245.150172 L391.466311,436.421389 L391.466311,436.421389 Z M435.205441,436.420296 L413.335876,436.420296 L413.335876,245.149078 L435.205441,245.149078 L435.205441,436.420296 Z M521.590224,436.420296 L457.075007,436.420296 L457.075007,276.163402 L521.590224,276.163402 L521.590224,436.420296 Z M457.075007,254.293837 L457.075007,245.150172 L476.89758,245.150172 L477.169857,245.150172 C488.760726,245.150172 499.980907,241.749454 509.618824,235.315428 C514.642263,231.962824 515.995989,225.172324 512.643385,220.149978 C509.29078,215.126539 502.497,213.773907 497.477935,217.125417 C491.445215,221.152698 484.423991,223.280607 477.17095,223.280607 L476.898674,223.280607 C465.383254,223.280607 454.408013,217.762915 447.538783,208.519743 L415.086535,164.848409 L493.26695,164.848409 L493.26695,164.847315 L531.970613,254.293837 L457.075007,254.293837 Z" id="Shape"></path>
            <path d="M69.9837022,0.902119565 C42.2487196,0.902119565 19.6837022,23.467137 19.6837022,51.2021196 C19.6837022,78.9371022 42.2487196,101.50212 69.9837022,101.50212 C97.7186848,101.50212 120.283702,78.9371022 120.283702,51.2021196 C120.283702,23.467137 97.7186848,0.902119565 69.9837022,0.902119565 Z M69.9837022,79.6325543 C54.3065043,79.6325543 41.5532674,66.8793174 41.5532674,51.2021196 C41.5532674,35.5249217 54.3065043,22.7716848 69.9837022,22.7716848 C85.6609,22.7716848 98.414137,35.5249217 98.414137,51.2021196 C98.414137,66.8793174 85.6609,79.6325543 69.9837022,79.6325543 Z" id="Shape"></path>
            <path d="M408.218398,1.28483696 L259.689059,1.28483696 C253.650872,1.28483696 248.754276,6.18143261 248.754276,12.2196196 C248.754276,18.2578065 253.650872,23.1544022 259.689059,23.1544022 L408.218398,23.1544022 C414.256585,23.1544022 419.15318,18.2578065 419.15318,12.2196196 C419.15318,6.18143261 414.256585,1.28483696 408.218398,1.28483696 Z" id="Path"></path>
            <path d="M320.936963,45.0097522 L212.682615,45.0097522 C206.644428,45.0097522 201.747833,49.9063478 201.747833,55.9445348 C201.747833,61.9827217 206.644428,66.8793174 212.682615,66.8793174 L320.936963,66.8793174 C326.97515,66.8793174 331.871746,61.9827217 331.871746,55.9445348 C331.871746,49.9063478 326.97515,45.0097522 320.936963,45.0097522 Z" id="Path"></path>
            <path d="M456.440789,4.48216739 C454.395985,2.4493913 451.585746,1.27827609 448.698963,1.27827609 C445.823115,1.27827609 443.012876,2.44829783 440.977913,4.48216739 C438.934202,6.52697174 437.774022,9.33721087 437.774022,12.2239935 C437.774022,15.0998413 438.934202,17.9100804 440.977913,19.9450435 C443.012876,21.9887543 445.823115,23.1489348 448.698963,23.1489348 C451.585746,23.1489348 454.395985,21.9887543 456.440789,19.9450435 C458.473565,17.9111739 459.64468,15.0998413 459.64468,12.2239935 C459.64468,9.33721087 458.474659,6.52697174 456.440789,4.48216739 Z" id="Path"></path>
        </g>
    </g>
</svg>