<?xml version="1.0" encoding="UTF-8"?>
<svg width="512px" height="481px" viewBox="0 0 512 481" version="1.1" xmlns="http://www.w3.org/2000/svg" xmlns:xlink="http://www.w3.org/1999/xlink">
    <!-- Generator: Sketch 53 (72520) - https://sketchapp.com -->
    <title>itsukushima-shrine</title>
    <desc>Created with Sketch.</desc>
    <g id="Page-1" stroke="none" stroke-width="1" fill="none" fill-rule="evenodd">
        <g id="itsukushima-shrine" fill="#404348" fill-rule="nonzero">
            <path d="M468.496094,132.902344 C473.210938,132 476.621094,127.878906 476.621094,123.078125 L476.621094,79.570312 C483.902344,76.628906 491.113281,73.539062 498.238281,70.304688 L506.132812,66.722656 C509.703125,65.097656 512,61.539062 512,57.617188 L512,10.5 C512,7.070312 510.242188,3.882812 507.347656,2.050781 C504.453125,0.21875 500.820312,-0.0078125 497.71875,1.460938 C473.878906,12.75 448.789062,22.4375 423.152344,30.261719 C417.871094,31.875 414.894531,37.464844 416.507812,42.746094 C418.117188,48.027344 423.707031,51 428.988281,49.390625 C450.488281,42.832031 471.617188,35 492,26.050781 L492,51.171875 L489.96875,52.09375 C343.464844,118.621094 168.535156,118.621094 22.03125,52.09375 L20,51.171875 L20,26.054688 C68.71875,47.480469 120.613281,62.066406 174.484375,69.46875 C232.894531,77.496094 292.007812,76.859375 350.179688,67.582031 C355.632812,66.714844 359.351562,61.585938 358.480469,56.132812 C357.609375,50.679688 352.484375,46.964844 347.03125,47.832031 C290.800781,56.800781 233.667969,57.410156 177.207031,49.65625 C120.0625,41.804688 65.242188,25.589844 14.277344,1.460938 C11.179688,-0.00390625 7.546875,0.21875 4.652344,2.050781 C1.753906,3.882812 -1.13686838e-13,7.070312 -1.13686838e-13,10.5 L-1.13686838e-13,57.613281 C-1.13686838e-13,61.539062 2.292969,65.097656 5.863281,66.71875 L13.761719,70.304688 C20.886719,73.539062 28.09375,76.625 35.378906,79.570312 L35.378906,123.078125 C35.378906,127.878906 38.789062,132 43.503906,132.902344 C44.753906,133.140625 52.976562,134.699219 65.933594,136.914062 L65.933594,181.894531 L45.382812,181.894531 C39.859375,181.894531 35.382812,186.371094 35.382812,191.894531 L35.382812,229.355469 C35.382812,234.878906 39.859375,239.355469 45.382812,239.355469 L65.933594,239.355469 L65.933594,396.789062 L59.316406,396.789062 C53.792969,396.789062 49.316406,401.265625 49.316406,406.789062 L49.316406,460.789062 L10.058594,460.789062 C4.535156,460.789062 0.0585938,465.265625 0.0585938,470.789062 C0.0585938,476.3125 4.535156,480.789062 10.058594,480.789062 L185.082031,480.789062 C190.605469,480.789062 195.082031,476.3125 195.082031,470.789062 C195.082031,465.265625 190.605469,460.789062 185.082031,460.789062 L144.890625,460.789062 L144.890625,406.789062 C144.890625,401.265625 140.410156,396.789062 134.890625,396.789062 L129.320312,396.789062 L129.320312,239.355469 L382.679688,239.355469 L382.679688,396.789062 L376.0625,396.789062 C370.539062,396.789062 366.0625,401.265625 366.0625,406.789062 L366.0625,460.789062 L326.917969,460.789062 C321.394531,460.789062 316.917969,465.265625 316.917969,470.789062 C316.917969,476.3125 321.394531,480.789062 326.917969,480.789062 L501.941406,480.789062 C507.460938,480.789062 511.941406,476.3125 511.941406,470.789062 C511.941406,465.265625 507.460938,460.789062 501.941406,460.789062 L462.683594,460.789062 L462.683594,406.789062 C462.683594,401.265625 458.203125,396.789062 452.683594,396.789062 L446.058594,396.789062 L446.058594,239.355469 L466.617188,239.355469 C472.140625,239.355469 476.617188,234.878906 476.617188,229.355469 L476.617188,191.894531 C476.617188,186.371094 472.140625,181.894531 466.617188,181.894531 L446.058594,181.894531 L446.058594,136.914062 C459.019531,134.699219 467.242188,133.140625 468.496094,132.902344 L468.496094,132.902344 Z M69.316406,460.789062 L69.316406,416.789062 L124.890625,416.789062 L124.890625,460.789062 L69.316406,460.789062 Z M386.0625,460.789062 L386.0625,416.789062 L442.683594,416.789062 L442.683594,460.789062 L386.0625,460.789062 Z M382.683594,181.894531 L302.015625,181.894531 L302.015625,155.042969 C329.371094,153.160156 357.5,149.972656 382.683594,146.59375 L382.683594,181.894531 Z M55.378906,87.238281 C92.117188,100.511719 130.1875,109.976562 168.828125,115.648438 C170.828125,115.945312 172.832031,116.226562 174.835938,116.5 C201.671875,120.191406 228.828125,122.078125 256,122.078125 C283.171875,122.078125 310.328125,120.191406 337.167969,116.5 C339.171875,116.226562 341.171875,115.945312 343.171875,115.648438 C381.8125,109.976562 419.882812,100.511719 456.621094,87.242188 L456.621094,114.746094 C427.726562,119.914062 327.925781,136.789062 256,136.789062 C184.074219,136.789062 84.269531,119.914062 55.378906,114.746094 L55.378906,87.238281 Z M209.984375,181.894531 L129.320312,181.894531 L129.320312,146.59375 C154.503906,149.972656 182.628906,153.160156 209.984375,155.042969 L209.984375,181.894531 Z M109.320312,143.789062 L109.320312,396.785156 L85.933594,396.785156 L85.933594,140.214844 C93.101562,141.355469 100.953125,142.566406 109.320312,143.789062 Z M55.382812,219.355469 L55.382812,201.894531 L65.933594,201.894531 L65.933594,219.355469 L55.382812,219.355469 Z M129.320312,201.894531 L209.984375,201.894531 L209.984375,219.355469 L129.320312,219.355469 L129.320312,201.894531 Z M282.015625,219.359375 L229.988281,219.359375 L229.988281,191.894531 C229.988281,191.886719 229.984375,191.875 229.984375,191.867188 L229.984375,156.789062 L282.015625,156.789062 L282.015625,219.359375 Z M302.015625,219.355469 L302.015625,201.894531 L382.683594,201.894531 L382.683594,219.355469 L302.015625,219.355469 Z M456.617188,201.894531 L456.617188,219.355469 L446.058594,219.355469 L446.058594,201.894531 L456.617188,201.894531 Z M426.058594,191.894531 L426.058594,396.785156 L402.683594,396.785156 L402.683594,143.785156 C411.046875,142.566406 418.894531,141.355469 426.058594,140.214844 L426.058594,191.894531 Z" id="Shape"></path>
            <path d="M379.308594,53.734375 C380.917969,57.597656 384.847656,60.089844 389.027344,59.890625 C393.140625,59.699219 396.804688,56.878906 398.058594,52.960938 C399.332031,48.992188 397.949219,44.507812 394.625,41.972656 C391.246094,39.402344 386.53125,39.253906 382.988281,41.59375 C379.046875,44.199219 377.527344,49.386719 379.308594,53.734375 Z" id="Path"></path>
        </g>
    </g>
</svg>