<?xml version="1.0" encoding="UTF-8"?>
<svg width="500px" height="512px" viewBox="0 0 500 512" version="1.1" xmlns="http://www.w3.org/2000/svg" xmlns:xlink="http://www.w3.org/1999/xlink">
    <!-- Generator: Sketch 53 (72520) - https://sketchapp.com -->
    <title>tiger</title>
    <desc>Created with Sketch.</desc>
    <g id="Page-1" stroke="none" stroke-width="1" fill="none" fill-rule="evenodd">
        <g id="tiger" fill-rule="nonzero">
            <path d="M491.976,160.936 C491.913,160.691 491.841,160.45 491.76,160.21 C490.261,155.268 488.572,150.417 486.668,145.673 C484.789,140.991 482.7,136.411 480.428,131.925 C491.938,118.147 498.343,101.168 498.606,83.378 C499.265,38.639 461.092,1.249 413.511,0.031 C387.049,-0.645 362.137,10.031 345.488,28.873 C317.05,20.625 285.987,16.265 253.54,16.265 C252.366,16.265 251.174,16.271 250,16.283 C248.819,16.271 247.641,16.265 246.459,16.265 C214.013,16.265 182.95,20.625 154.512,28.873 C137.867,10.031 112.969,-0.655 86.488,0.031 C38.907,1.249 0.734,38.639 1.394,83.379 C1.658,101.171 8.063,118.15 19.574,131.928 C17.302,136.414 15.213,140.995 13.333,145.678 C11.433,150.413 9.745,155.255 8.249,160.187 C8.162,160.442 8.085,160.7 8.019,160.961 C2.406,179.764 -0.288,199.941 0.026,221.167 C1.245,303.706 39.428,379.099 97.743,414.985 C101.269,442.577 115.419,465.878 138.993,482.993 C139.049,483.033 139.104,483.075 139.162,483.115 C141.178,484.573 143.254,485.992 145.407,487.359 C170.438,503.252 203.808,512.003 239.37,512.001 C242.897,512.001 246.47,511.914 250,511.741 C253.534,511.914 257.108,512.001 260.631,512.001 C296.192,512 329.561,503.248 354.592,487.356 C356.728,486 358.788,484.593 360.79,483.147 C360.907,483.067 361.02,482.982 361.134,482.898 C384.633,465.792 398.739,442.526 402.258,414.985 C455.492,382.226 491.944,316.54 498.819,242.552 C498.825,242.491 498.832,242.431 498.836,242.369 C499.482,235.368 499.87,228.294 499.975,221.166 C500.289,199.931 497.593,179.746 491.976,160.936 Z M413,20.024 C449.675,20.963 479.107,49.252 478.608,83.083 C478.449,93.813 475.237,104.164 469.416,113.188 C463.264,104.073 456.226,95.467 448.316,87.439 C426.667,65.468 398.769,48.064 366.736,35.958 C379.12,25.384 395.592,19.568 413,20.024 Z M352.136,51.916 C369.444,57.844 385.504,65.377 399.954,74.394 C377.537,75.115 352.247,79.778 328.219,89.69 C336.228,73.817 344.064,61.465 352.136,51.916 Z M171.78,89.689 C147.754,79.778 122.469,75.114 100.054,74.393 C114.502,65.378 130.56,57.846 147.864,51.918 C155.936,61.466 163.771,73.817 171.78,89.689 Z M87,20.024 C104.397,19.569 120.876,25.385 133.264,35.961 C105.536,46.441 80.91,60.891 60.751,78.84 C60.713,78.871 60.678,78.904 60.641,78.936 C57.55,81.692 54.56,84.527 51.685,87.445 C43.775,95.472 36.738,104.078 30.586,113.192 C24.764,104.166 21.55,93.815 21.392,83.083 C20.893,49.252 50.325,20.964 87,20.024 Z M34.38,301.213 C46.21,295.545 57.821,292.728 68.77,291.38 C59.448,305.048 53.002,319.456 49.457,334.504 C43.63,324.07 38.577,312.92 34.38,301.213 Z M96.485,389.9 C85.393,381.481 75.26,371.357 66.255,359.856 C66.914,333.28 77.243,309.404 97.779,286.964 C100.455,284.04 101.152,279.811 99.554,276.183 C97.956,272.555 94.366,270.213 90.402,270.213 C72.145,270.213 50.888,271.751 28.383,281.931 C25.235,270.08 22.93,257.79 21.542,245.207 C27.455,239.326 42.234,226.237 61.52,220.679 C66.827,219.15 69.889,213.608 68.36,208.301 C66.831,202.995 61.288,199.932 55.982,201.461 C41.336,205.682 29.028,213.196 20.019,220.064 C19.822,202.052 21.95,185.109 26.371,169.294 C59.71,142.902 95.085,134.831 126.258,146.6 C152.154,156.377 170.929,178.883 175.256,205.335 C179.789,233.044 168.003,259.981 142.067,281.182 C103.791,312.472 96.993,361.985 96.485,389.9 Z M260.631,492 C257.277,492 253.872,491.913 250.512,491.741 C250.342,491.732 250.171,491.728 250,491.728 C249.829,491.728 249.659,491.732 249.488,491.741 C246.131,491.913 242.726,492 239.368,492.001 C214.652,492.002 189.472,487.225 168.419,477.199 L250,448.544 L331.576,477.197 C310.524,487.222 285.346,492 260.631,492 Z M382.883,407.885 C382.877,407.941 382.879,407.995 382.873,408.05 C382.869,408.093 382.859,408.134 382.855,408.177 C381.014,431.891 369.836,450.237 353.327,463.639 L260,430.858 L260,327.678 C274.805,325.561 288.475,318.761 299.239,307.997 C303.144,304.092 303.144,297.76 299.239,293.855 C295.334,289.95 289.002,289.95 285.097,293.855 C275.722,303.23 263.258,308.393 250,308.393 C236.742,308.393 224.278,303.23 214.903,293.855 C210.998,289.949 204.666,289.951 200.761,293.855 C196.856,297.76 196.856,304.092 200.76,307.997 C211.525,318.762 225.194,325.561 239.999,327.678 L239.999,430.858 L146.669,463.639 C130.161,450.238 118.984,431.891 117.141,408.177 C117.138,408.134 117.127,408.093 117.123,408.05 C117.118,407.995 117.119,407.94 117.113,407.885 C116.785,404.867 109.601,333.553 154.723,296.667 C185.967,271.126 200.644,236.66 194.991,202.106 C189.513,168.621 165.882,140.183 133.319,127.889 C115.326,121.097 95.302,119.621 75.412,123.625 C63.324,126.059 51.351,130.44 39.594,136.697 C39.709,136.487 39.83,136.279 39.946,136.069 C40.299,135.558 40.596,135.022 40.843,134.468 C47.586,122.622 55.946,111.611 65.928,101.481 C67.786,99.596 69.713,97.76 71.673,95.948 C101.737,91.093 149.774,96.527 187.618,120.179 C189.248,121.198 191.086,121.699 192.916,121.699 C195.242,121.699 197.556,120.889 199.413,119.302 C202.732,116.467 203.828,111.806 202.121,107.788 C190.779,81.095 179.886,60.954 168.5,45.756 C190.886,40.027 214.94,36.801 239.998,36.328 L239.998,92.234 C239.998,97.757 244.475,102.234 249.998,102.234 C255.521,102.234 259.998,97.757 259.998,92.234 L259.998,36.33 C285.056,36.803 309.11,40.028 331.496,45.756 C320.109,60.955 309.216,81.097 297.874,107.789 C296.167,111.807 297.263,116.467 300.583,119.303 C302.44,120.89 304.754,121.7 307.08,121.7 C308.91,121.7 310.748,121.199 312.378,120.18 C350.225,96.525 398.269,91.094 428.331,95.95 C430.289,97.76 432.213,99.594 434.069,101.477 C444.044,111.6 452.4,122.602 459.14,134.439 C459.393,135.01 459.699,135.562 460.064,136.087 C460.177,136.292 460.295,136.494 460.407,136.699 C448.648,130.441 436.674,126.059 424.584,123.625 C404.694,119.621 384.67,121.095 366.677,127.889 C334.114,140.183 310.483,168.621 305.005,202.106 C299.352,236.659 314.03,271.126 345.273,296.667 C390.396,333.553 383.211,404.867 382.883,407.885 Z M450.543,334.502 C446.998,319.454 440.552,305.046 431.23,291.379 C442.178,292.727 453.789,295.545 465.619,301.212 C461.422,312.919 456.369,324.069 450.543,334.502 Z M438.479,220.68 C457.763,226.237 472.542,239.325 478.456,245.207 C477.068,257.791 474.762,270.08 471.615,281.932 C449.11,271.752 427.853,270.214 409.596,270.214 C405.632,270.214 402.042,272.556 400.444,276.184 C398.846,279.812 399.543,284.041 402.219,286.965 C422.755,309.405 433.085,333.281 433.743,359.857 C424.74,371.357 414.607,381.48 403.514,389.901 C403.006,361.986 396.209,312.472 357.932,281.183 C331.997,259.981 320.21,233.045 324.743,205.336 C329.07,178.883 347.845,156.378 373.741,146.601 C404.916,134.833 440.29,142.903 473.629,169.296 C478.05,185.11 480.176,202.053 479.98,220.065 C470.971,213.198 458.664,205.683 444.017,201.462 C438.708,199.932 433.168,202.995 431.639,208.302 C430.11,213.609 433.172,219.151 438.479,220.68 Z" id="Shape" fill="#404348"></path>
            <path d="M345.213,342.567 C343.881,337.207 338.452,333.943 333.096,335.276 L297.685,344.084 C292.326,345.417 289.061,350.842 290.394,356.202 C291.525,360.751 295.605,363.791 300.09,363.791 C300.889,363.791 301.701,363.694 302.511,363.493 L337.922,354.685 C343.281,353.352 346.546,347.927 345.213,342.567 Z" id="Path" fill="#000000"></path>
            <path d="M337.284,393.141 L301.84,384.246 C296.481,382.901 291.051,386.155 289.707,391.511 C288.363,396.868 291.616,402.3 296.972,403.644 L332.416,412.539 C333.233,412.744 334.052,412.842 334.857,412.842 C339.334,412.842 343.41,409.813 344.549,405.274 C345.893,399.918 342.64,394.486 337.284,393.141 Z" id="Path" fill="#000000"></path>
            <path d="M366.06,197.944 C355.044,197.944 346.06,206.929 346.06,217.944 C346.06,228.96 355.044,237.944 366.06,237.944 C377.076,237.944 386.06,228.96 386.06,217.944 C386.06,206.929 377.076,197.944 366.06,197.944 Z" id="Path" fill="#404348"></path>
            <path d="M202.314,344.084 L166.903,335.276 C161.545,333.943 156.119,337.207 154.786,342.567 C153.453,347.926 156.717,353.352 162.077,354.685 L197.488,363.493 C198.299,363.695 199.11,363.791 199.909,363.791 C204.394,363.791 208.474,360.751 209.605,356.202 C210.938,350.843 207.674,345.417 202.314,344.084 Z" id="Path" fill="#000000"></path>
            <path d="M210.294,391.512 C208.95,386.156 203.52,382.901 198.161,384.247 L162.717,393.142 C157.361,394.486 154.108,399.918 155.452,405.275 C156.591,409.815 160.666,412.843 165.144,412.843 C165.949,412.843 166.769,412.745 167.585,412.54 L203.029,403.645 C208.385,402.301 211.638,396.869 210.294,391.512 Z" id="Path" fill="#000000"></path>
            <path d="M133.94,197.944 C122.923,197.944 113.939,206.929 113.939,217.944 C113.939,228.96 122.924,237.944 133.94,237.944 C144.956,237.944 153.94,228.96 153.94,217.944 C153.94,206.928 144.956,197.944 133.94,197.944 Z" id="Path" fill="#404348"></path>
            <path d="M250,111.959 C244.477,111.959 240,116.436 240,121.959 L240,122.284 C240,127.807 244.477,132.284 250,132.284 C255.523,132.284 260,127.807 260,122.284 L260,121.959 C260,116.436 255.523,111.959 250,111.959 Z" id="Path" fill="#000000"></path>
        </g>
    </g>
</svg>