<?xml version="1.0" encoding="UTF-8"?>
<svg width="462px" height="512px" viewBox="0 0 462 512" version="1.1" xmlns="http://www.w3.org/2000/svg" xmlns:xlink="http://www.w3.org/1999/xlink">
    <!-- Generator: Sketch 53 (72520) - https://sketchapp.com -->
    <title>turtle</title>
    <desc>Created with Sketch.</desc>
    <g id="Page-1" stroke="none" stroke-width="1" fill="none" fill-rule="evenodd">
        <g id="turtle" fill="#404348" fill-rule="nonzero">
            <path d="M461.77,255.705 C453.142,205.501 425.464,179.449 403.764,166.435 C387.451,156.652 372.1,152.637 363.93,151.067 C355.712,133.726 342.942,118.944 327.167,108.284 C326.963,108.124 326.757,107.966 326.538,107.821 C319.582,103.2 312.16,99.464 304.423,96.623 C300.611,95.218 296.715,94.042 292.766,93.087 L292.766,61.766 C292.766,45.26 286.338,29.749 274.675,18.1 C263.018,6.428 247.507,2.84217094e-14 231,2.84217094e-14 C196.942,2.84217094e-14 169.234,27.708 169.234,61.766 L169.234,93.11 C167.03,93.645 164.84,94.243 162.675,94.92 C153.097,97.9 143.945,102.231 135.477,107.863 C135.2,108.047 134.935,108.243 134.683,108.45 C119.024,119.094 106.345,133.804 98.169,151.049 C90.025,152.605 74.617,156.612 58.237,166.435 C36.537,179.449 8.859,205.5 0.231,255.705 C-0.365,259.174 0.907,262.701 3.58,264.992 C5.419,266.568 7.735,267.398 10.088,267.398 C11.155,267.398 12.23,267.227 13.271,266.877 L87.975,241.785 L87.975,272.049 C87.975,277.571 92.452,282.049 97.975,282.049 L134.548,282.049 L174.116,350.583 L137.834,413.427 C121.836,399.599 115.207,382.93 109.244,363.347 C108.357,360.276 106.057,357.774 102.99,356.689 C99.479,355.447 95.566,356.259 92.841,358.799 C90.221,361.239 29.191,419.553 73.963,505.695 C75.587,508.819 78.733,510.859 82.246,511.066 C82.444,511.078 82.641,511.084 82.837,511.084 C86.134,511.084 89.235,509.455 91.104,506.708 L137.717,438.18 C150.571,446.279 164.9,451.468 179.874,453.501 C187.228,454.504 194.589,454.489 201.989,454.489 L226.168,506.232 C227.812,509.751 231.344,511.999 235.228,511.999 C239.112,511.999 242.644,509.751 244.288,506.232 L268.472,454.478 C278.086,454.416 287.685,453.06 296.932,450.424 C306.573,447.682 315.801,443.576 324.372,438.173 L371.009,506.71 C372.878,509.456 375.979,511.084 379.275,511.084 C379.472,511.084 379.67,511.078 379.867,511.066 C383.381,510.858 386.526,508.818 388.149,505.695 C426.757,431.41 386.363,377.54 373.101,362.799 C373.764,358.009 374.115,353.12 374.115,348.151 L374.115,241.815 L448.73,266.878 C449.772,267.228 450.846,267.399 451.913,267.399 C454.266,267.399 456.582,266.568 458.421,264.993 C461.094,262.701 462.366,259.174 461.77,255.705 L461.77,255.705 Z M352.123,366.544 C348.167,384.701 338.225,401.288 324.172,413.442 L287.883,350.583 L327.452,282.049 L354.115,282.049 L354.115,348.152 C354.115,354.331 353.432,360.507 352.123,366.544 L352.123,366.544 Z M276.848,434.009 C259.263,435.856 241.003,434.488 223.364,434.488 C199.64,434.488 176.263,436.111 154.412,424.711 L191.438,360.579 L270.561,360.579 L307.592,424.722 C298.213,429.619 287.839,432.857 276.848,434.009 L276.848,434.009 Z M347.298,162.828 C350.74,174.938 353.876,185.623 354.022,198.454 C354.143,209.071 354.116,251.47 354.116,262.049 L327.452,262.049 L287.884,193.515 L323.981,130.994 C334.01,139.618 342.058,150.484 347.298,162.828 Z M172.665,112.865 C187.007,109.147 202.149,110.122 216.838,110.122 L263.33,110.122 C272.169,110.122 280.893,110.658 289.503,112.888 C295.765,114.517 301.741,116.85 307.368,119.767 L270.56,183.52 L191.437,183.52 L154.648,119.803 C160.321,116.856 166.348,114.501 172.665,112.865 L172.665,112.865 Z M231,20 C242.16,20 252.646,24.345 260.533,32.241 C268.422,40.121 272.766,50.606 272.766,61.765 L272.766,90.235 C263.008,89.783 193.598,90.032 189.234,90.238 L189.234,61.766 C189.234,38.736 207.97,20 231,20 Z M138.047,131.048 L174.116,193.517 L134.549,262.05 L107.974,262.05 L107.979,196.452 C107.979,185.989 109.893,175.541 113.627,165.769 C118.79,152.24 127.26,140.34 138.047,131.048 Z M23.902,242.209 C31.661,216.635 46.382,197.107 67.814,184.017 C75.979,179.03 83.917,175.779 90.422,173.68 C88.788,181.146 87.974,188.81 87.974,196.451 L87.974,220.687 L23.902,242.209 Z M191.434,203.521 L270.566,203.521 L310.132,272.051 L270.566,340.58 L191.434,340.58 L151.868,272.051 L191.434,203.521 Z M84.663,480.617 C68.698,437.304 83.492,404.303 95.294,386.966 C101.05,401.734 110.226,415.177 121.839,425.963 L84.663,480.617 Z M235.228,478.379 L224.065,454.49 L246.391,454.49 L235.228,478.379 Z M377.441,480.612 L340.256,425.966 C351.947,415.076 360.989,401.768 366.774,387.034 C378.554,404.436 393.3,437.469 377.441,480.612 L377.441,480.612 Z M374.115,220.717 L374.115,196.451 C374.115,188.646 373.262,181.038 371.658,173.707 C378.149,175.806 386.055,179.05 394.186,184.016 C415.618,197.107 430.339,216.634 438.098,242.208 L374.115,220.717 Z" id="Shape"></path>
            <path d="M94.15,328.069 C102.532,331.561 110.974,322.42 106.901,314.345 C104.98,310.537 100.73,308.326 96.505,308.954 C92.278,309.582 88.86,312.925 88.127,317.131 C87.333,321.693 89.883,326.292 94.15,328.069 Z" id="Path"></path>
            <path d="M204.28,59.479 C206.374,64.509 212.299,66.975 217.34,64.889 C222.374,62.805 224.826,56.858 222.75,51.829 C220.67,46.791 214.72,44.341 209.69,46.419 C204.639,48.506 202.212,54.438 204.28,59.479 Z" id="Path"></path>
            <path d="M239.23,59.479 C241.324,64.509 247.254,66.969 252.29,64.889 C257.329,62.808 259.777,56.86 257.7,51.829 C255.62,46.792 249.674,44.334 244.64,46.419 C239.594,48.51 237.162,54.44 239.23,59.479 Z" id="Path"></path>
        </g>
    </g>
</svg>