<?xml version="1.0" encoding="UTF-8"?>
<svg width="508px" height="512px" viewBox="0 0 508 512" version="1.1" xmlns="http://www.w3.org/2000/svg" xmlns:xlink="http://www.w3.org/1999/xlink">
    <!-- Generator: Sketch 53 (72520) - https://sketchapp.com -->
    <title>statue-of-liberty (2)</title>
    <desc>Created with Sketch.</desc>
    <g id="Page-1" stroke="none" stroke-width="1" fill="none" fill-rule="evenodd">
        <g id="statue-of-liberty-(2)" fill="#404348" fill-rule="nonzero">
            <path d="M319.230469,270.835938 L318.382812,270.835938 L322.9375,258.898438 C324.90625,253.738281 322.320312,247.957031 317.160156,245.988281 C312,244.023438 306.222656,246.609375 304.253906,251.769531 L294.523438,277.269531 C293.351562,280.34375 293.765625,283.796875 295.628906,286.507812 C297.496094,289.21875 300.574219,290.835938 303.863281,290.835938 L319.230469,290.835938 C324.75,290.835938 329.230469,286.359375 329.230469,280.835938 C329.230469,275.3125 324.75,270.835938 319.230469,270.835938 L319.230469,270.835938 Z" id="Path"></path>
            <path d="M507.085938,499.152344 C506.765625,498.070312 499,472.125 479.714844,424.898438 C472.445312,407.09375 459.945312,395.367188 444.503906,387.648438 C444.382812,382.722656 444.292969,377.910156 444.238281,373.238281 C444.292969,372.605469 444.289062,371.964844 444.21875,371.328125 C443.769531,325.199219 446.394531,292.820312 446.425781,292.449219 C446.441406,292.285156 446.449219,292.117188 446.453125,291.953125 C446.546875,289.179688 448.125,226.824219 406.972656,200.074219 L408.652344,192.730469 L468.933594,110.535156 C471.640625,106.847656 471.496094,101.789062 468.585938,98.261719 C465.675781,94.730469 460.742188,93.625 456.605469,95.578125 L386.085938,128.839844 C383.039062,124.953125 379.558594,121.117188 375.566406,117.503906 L390.230469,37.15625 C391.046875,32.675781 388.734375,28.207031 384.605469,26.289062 C380.46875,24.371094 375.566406,25.488281 372.671875,29.003906 L318.484375,94.832031 C313.835938,94.570312 309.171875,94.566406 304.523438,94.828125 L250.339844,29.003906 C247.445312,25.488281 242.542969,24.371094 238.410156,26.289062 C234.277344,28.207031 231.964844,32.671875 232.78125,37.152344 L247.449219,117.578125 C243.648438,121.03125 240.144531,124.824219 236.976562,128.867188 L166.398438,95.574219 C162.261719,93.625 157.328125,94.726562 154.417969,98.253906 C151.507812,101.78125 151.359375,106.832031 154.058594,110.523438 L214.539062,193.238281 L216.0625,200.078125 C203.339844,208.722656 193.316406,222.457031 186.226562,241.0625 C181.164062,254.34375 178.550781,267.726562 177.199219,277.582031 C172.808594,278.242188 168.613281,279.78125 164.859375,282.070312 L136.253906,185.625 C133.035156,174.617188 130.78125,167.117188 130.78125,157.421875 L130.78125,147.324219 C130.78125,141.71875 129.386719,136.433594 126.933594,131.785156 C129.273438,129.957031 130.785156,127.113281 130.785156,123.914062 L130.785156,81.625 C130.785156,76.101562 126.308594,71.625 120.785156,71.625 L105.875,71.625 C105.96875,30.570312 73.765625,3.511719 72.273438,2.28125 C68.457031,-0.859375 62.921875,-0.746094 59.242188,2.554688 C30.617188,28.214844 26.363281,55.980469 26.703125,71.621094 L18.199219,71.621094 C12.679688,71.621094 8.199219,76.101562 8.199219,81.621094 L8.199219,123.910156 C8.199219,124.074219 8.21875,124.234375 8.226562,124.394531 C3.421875,129.839844 0.5,136.980469 0.5,144.796875 L0.5,163.316406 C0.5,180.347656 14.355469,194.199219 31.386719,194.199219 L42.011719,194.199219 L43.175781,206.5 C43.660156,211.636719 47.972656,215.558594 53.132812,215.558594 L53.636719,215.558594 C58.765625,261.199219 68.066406,327.679688 70.667969,346.097656 C68.621094,348.53125 66.871094,351.328125 65.710938,354.519531 C57.488281,377.109375 86.417969,397.367188 100.851562,409.8125 C111.230469,418.765625 135.371094,444.332031 135.371094,488.316406 L135.371094,502 C135.371094,507.523438 139.851562,512 145.371094,512 L282.359375,512 C287.882812,512 292.359375,507.523438 292.359375,502 C292.359375,496.476562 287.882812,492 282.359375,492 L228.878906,492 C262.832031,428.054688 335.667969,397.167969 346.0625,393.023438 C348.699219,393.011719 359.4375,393.03125 361.527344,393.058594 C344.398438,405.136719 326.160156,424.410156 320.320312,453.601562 C319.238281,459.019531 322.75,464.285156 328.164062,465.371094 C328.828125,465.5 329.484375,465.566406 330.136719,465.566406 C334.804688,465.566406 338.980469,462.277344 339.933594,457.523438 C348.21875,416.082031 390.429688,398.863281 399.871094,395.5 C424.335938,398.855469 451.085938,407.683594 461.199219,432.457031 C472.34375,459.742188 479.617188,479.96875 483.722656,492 L434.167969,492 L434.167969,477.667969 C434.167969,472.144531 429.691406,467.667969 424.167969,467.667969 C418.648438,467.667969 414.167969,472.144531 414.167969,477.667969 L414.167969,492 L372.605469,492 C367.082031,492 362.605469,496.476562 362.605469,502 C362.605469,507.523438 367.082031,512 372.605469,512 L497.5,512 C500.65625,512 503.628906,510.511719 505.515625,507.980469 C507.402344,505.449219 507.984375,502.179688 507.085938,499.152344 Z M429.515625,130.464844 L404.421875,164.683594 C402.621094,158.882812 400.175781,152.4375 396.855469,145.871094 L429.515625,130.464844 Z M363.640625,71.445312 L357.519531,104.988281 C352.609375,102.453125 347.214844,100.28125 341.300781,98.585938 L363.640625,71.445312 Z M321.410156,115.117188 C335.144531,116.523438 346.117188,120.832031 354.882812,126.726562 C356.039062,127.511719 358.507812,129.347656 358.621094,129.433594 L343.613281,158.671875 C336.515625,155.789062 329.019531,153.878906 321.410156,153 L321.410156,115.117188 Z M375.285156,230.890625 C344.066406,219.367188 330.203125,190.601562 324.589844,173.730469 C334.152344,175.960938 341.933594,179.757812 345.503906,181.96875 C362.695312,192.628906 371.882812,211.480469 375.285156,230.890625 Z M278.96875,158.878906 L264.230469,129.625 C273.53125,122.304688 285.648438,116.808594 301.410156,115.148438 L301.410156,153.035156 C293.714844,153.976562 286.132812,155.902344 278.96875,158.878906 Z M298.242188,173.828125 C296.066406,180.253906 292.6875,188.445312 287.628906,196.710938 C277.398438,213.417969 263.9375,224.878906 247.492188,230.914062 C247.5,230.875 247.507812,230.832031 247.515625,230.792969 C247.679688,229.875 247.855469,228.953125 248.050781,228.035156 C248.050781,228.023438 248.054688,228.007812 248.058594,227.992188 C253.667969,201.328125 270.71875,179.675781 298.242188,173.828125 L298.242188,173.828125 Z M281.699219,98.570312 C276,100.199219 270.589844,102.332031 265.480469,104.960938 L259.367188,71.441406 L281.699219,98.570312 Z M249.703125,145.242188 L261.527344,168.71875 C260.464844,169.492188 259.492188,170.398438 258.394531,171.132812 C244.667969,180.332031 236.90625,198.703125 236.472656,199.625 C236.46875,199.632812 236.464844,199.644531 236.460938,199.652344 L233.894531,188.140625 C234.523438,182.648438 237.539062,162.894531 249.703125,145.242188 Z M258.921875,339.554688 L258.921875,358.730469 C258.074219,358.300781 257.25,357.875 256.46875,357.457031 C249.3125,353.636719 243.433594,347.730469 239.46875,340.382812 C237.914062,337.5 236.242188,334.519531 234.507812,331.484375 C237.027344,328.464844 239.25,325.144531 241.167969,321.515625 C246.160156,328.367188 252.164062,334.441406 258.921875,339.554688 Z M193.382812,130.417969 L226.109375,145.855469 C222.769531,152.460938 220.308594,158.949219 218.503906,164.773438 L193.382812,130.417969 Z M204.917969,248.183594 C209.164062,237.039062 214.523438,228.25 220.925781,221.894531 L226.46875,246.785156 C226.472656,246.792969 226.472656,246.796875 226.472656,246.800781 C226.5,246.929688 226.523438,247.054688 226.554688,247.183594 C227.695312,252.15625 230.332031,265.3125 230.175781,280.089844 C230.011719,295.210938 226.996094,305.558594 223.179688,312.617188 C223.0625,312.429688 222.941406,312.238281 222.824219,312.054688 C218.1875,304.679688 213.691406,296.976562 208.355469,290.082031 C205.265625,286.066406 201.386719,282.875 196.960938,280.671875 C198.136719,271.917969 200.4375,259.9375 204.917969,248.183594 L204.917969,248.183594 Z M65.875,24.078125 C73.660156,32.84375 85.835938,50.007812 85.859375,71.621094 L46.667969,71.621094 C46.367188,61.613281 48.644531,42.914062 65.875,24.078125 Z M31.386719,174.199219 C25.382812,174.199219 20.5,169.316406 20.5,163.316406 L20.5,144.792969 C20.5,138.804688 25.367188,133.929688 31.355469,133.910156 L36.3125,133.910156 L40.121094,174.199219 L31.386719,174.199219 Z M28.199219,113.910156 L28.199219,91.625 L110.785156,91.625 L110.785156,113.914062 L28.199219,113.914062 L28.199219,113.910156 Z M62.230469,195.558594 L56.402344,133.910156 L81.203125,133.910156 L75.636719,195.558594 L62.230469,195.558594 Z M73.765625,215.5625 L84.769531,215.5625 C86.714844,215.5625 88.535156,215.003906 90.078125,214.039062 C92.648438,212.429688 94.445312,209.679688 94.734375,206.457031 L101.234375,134.480469 C106.753906,136.144531 110.78125,141.273438 110.78125,147.324219 L110.78125,157.421875 C110.78125,169.527344 113.386719,179.578125 117.523438,192.644531 L149.011719,298.980469 C148.5,299.589844 147.984375,300.1875 147.464844,300.777344 C139.699219,309.644531 130.636719,317.429688 120.269531,323.097656 C110.363281,328.515625 100.984375,329.121094 90.898438,332.742188 C90.417969,332.914062 89.804688,333.144531 89.085938,333.433594 C85.523438,307.957031 78.203125,254.628906 73.765625,215.5625 Z M285.707031,402.988281 C249.152344,427.792969 221.929688,458.457031 206.589844,492 L155.371094,492 L155.371094,488.316406 C155.371094,436.0625 126.378906,405.417969 113.914062,394.667969 C104.921875,386.914062 72.707031,365.734375 91.613281,354.433594 C97.234375,351.125 103.660156,350.773438 109.835938,348.992188 C121.933594,345.507812 133.203125,339.605469 143.238281,332.039062 C148.8125,327.835938 153.992188,323.101562 158.792969,318.039062 C165.421875,311.046875 171.691406,296.949219 182.4375,297.207031 C188.371094,297.347656 193.046875,302.382812 193.074219,308.320312 C193.09375,311.523438 192.609375,315.652344 190.902344,320.378906 C186.527344,332.492188 173.304688,350.375 135.1875,366.859375 C130.144531,369.039062 127.457031,374.8125 129.5,379.914062 C131.078125,383.839844 134.835938,386.199219 138.789062,386.199219 C140.109375,386.199219 141.449219,385.9375 142.738281,385.382812 C178.296875,370.078125 200.683594,350.84375 209.316406,328.210938 C209.484375,328.488281 209.652344,328.761719 209.820312,329.035156 C214.003906,335.878906 218.058594,342.816406 221.867188,349.878906 C232.652344,369.871094 253.121094,379.847656 274.035156,386.167969 C283.378906,388.992188 293.070312,390.96875 303.035156,392.078125 C297.5625,395.273438 291.734375,398.902344 285.707031,402.988281 L285.707031,402.988281 Z M345.160156,373.027344 C342.308594,373.039062 339.480469,373.0625 336.6875,373.082031 C318.667969,373.21875 301.039062,372.832031 283.558594,368.09375 C282.042969,367.683594 280.535156,367.253906 279.042969,366.792969 C279,366.78125 278.960938,366.765625 278.917969,366.753906 L278.917969,350.984375 C285.792969,353.765625 292.972656,355.625 300.304688,356.570312 C315.257812,358.527344 330.789062,356.507812 344.769531,350.867188 C344.898438,350.816406 345.03125,350.773438 345.160156,350.71875 L345.160156,373.027344 Z M311.324219,337.296875 C283.746094,337.296875 258.542969,319.882812 249.214844,294.679688 C251.570312,278.015625 249.71875,261.746094 247.972656,251.789062 C282.75,241.765625 301.601562,215.640625 311.457031,194.542969 C321.28125,215.59375 340.03125,241.640625 374.570312,251.707031 C374.527344,251.695312 372.636719,264.261719 372.53125,265.289062 C371.457031,275.53125 371.359375,285.96875 372.925781,296.167969 C363.882812,320.863281 339.4375,337.296875 311.324219,337.296875 Z M386.15625,350.277344 C386.097656,350.414062 386.042969,350.546875 385.992188,350.6875 L377.390625,373.523438 C373.3125,373.332031 369.230469,373.207031 365.160156,373.128906 L365.160156,339.167969 C371.429688,334.304688 376.976562,328.585938 381.597656,322.132812 C382.230469,323.238281 382.894531,324.332031 383.601562,325.402344 C388.613281,333.003906 389.566406,342.304688 386.15625,350.277344 L386.15625,350.277344 Z M386.597656,199.457031 C384.613281,195.238281 382.324219,191.199219 379.761719,187.398438 C377.347656,183.742188 369.277344,174.179688 361.136719,168.332031 L373.160156,144.910156 C373.300781,145.113281 374.039062,146.460938 374.3125,146.914062 C386.125,166.75 388.574219,184.054688 389.097656,188.535156 L386.597656,199.457031 Z M400.460938,375.40625 C400.25,375.375 400.035156,375.347656 399.820312,375.328125 C399.265625,375.257812 398.722656,375.1875 398.160156,375.121094 L404.636719,357.929688 C405.214844,356.558594 405.699219,355.164062 406.132812,353.761719 L424.269531,375.949219 C424.289062,377.296875 424.3125,378.65625 424.335938,380.027344 C417.140625,378.054688 409.203125,376.523438 400.460938,375.40625 L400.460938,375.40625 Z M426.46875,291.101562 C426.234375,294.019531 424.703125,314.09375 424.269531,344.351562 C419.921875,339.035156 415.574219,333.71875 411.226562,328.398438 C404.375,320.015625 397.671875,312.128906 394.484375,301.535156 C390.179688,287.207031 391.273438,271.359375 393.972656,256.847656 C395.765625,247.210938 398.367188,237.65625 400.554688,228.097656 C401.058594,225.894531 401.566406,223.691406 402.070312,221.488281 C426.710938,243.773438 426.523438,287.742188 426.46875,291.101562 L426.46875,291.101562 Z" id="Shape"></path>
            <path d="M326.613281,492.050781 C322.519531,492.441406 319.019531,495.453125 317.945312,499.410156 C315.558594,508.242188 325.871094,515.394531 333.351562,510.167969 C337.136719,507.527344 338.605469,502.4375 336.832031,498.179688 C335.179688,494.144531 330.945312,491.636719 326.613281,492.050781 L326.613281,492.050781 Z" id="Path"></path>
        </g>
    </g>
</svg>