<?xml version="1.0" encoding="UTF-8"?>
<svg width="512px" height="421px" viewBox="0 0 512 421" version="1.1" xmlns="http://www.w3.org/2000/svg" xmlns:xlink="http://www.w3.org/1999/xlink">
    <!-- Generator: Sketch 53 (72520) - https://sketchapp.com -->
    <title>whale</title>
    <desc>Created with Sketch.</desc>
    <g id="Page-1" stroke="none" stroke-width="1" fill="none" fill-rule="evenodd">
        <g id="whale" transform="translate(0.000000, -1.000000)" fill="#404348" fill-rule="nonzero">
            <path d="M148.068,146.809 C148.05,146.809 148.031,146.809 148.011,146.809 C124.812,146.939 106.837,153.324 94.577,165.79 C93.716,166.668 92.876,167.567 92.081,168.46 C88.413,172.588 88.784,178.909 92.913,182.578 C94.817,184.271 97.19,185.103 99.552,185.103 C102.31,185.103 105.056,183.969 107.031,181.746 C107.607,181.099 108.219,180.445 108.844,179.807 C117.229,171.281 130.444,166.907 148.123,166.808 C153.646,166.777 158.1,162.275 158.068,156.752 C158.037,151.249 153.566,146.809 148.068,146.809 Z" id="Path"></path>
            <path d="M502.001,120.667 L458.243,120.667 C447.446,120.667 437.208,125.008 428.893,132.88 C420.578,125.008 410.34,120.667 399.543,120.667 L355.785,120.667 C350.261,120.667 345.785,125.144 345.785,130.667 C345.785,163.248 367.381,189.754 393.924,189.754 L398.018,189.754 C394.922,216.522 378.647,218.901 359.391,218.901 C338.061,218.901 324.399,203.963 305.489,183.287 C285.216,161.122 259.987,133.537 216.02,118.551 C209.524,116.338 201.79,114.026 193.168,112.045 C196.527,86.378 208.443,62.684 227.262,44.599 C231.242,40.772 231.369,34.441 227.541,30.459 C223.713,26.478 217.385,26.352 213.402,30.179 C197.408,45.551 185.658,64.373 178.884,85.025 C169.96,50.612 147.562,20.487 116.075,2.311 C111.292,-0.451 105.175,1.189 102.415,5.972 C99.653,10.755 101.294,16.871 106.077,19.632 C138.04,38.084 159.015,71.002 162.62,107.331 C154.936,106.749 146.956,106.618 138.827,107.136 C108.614,109.063 84.132,119.36 66.061,137.74 C41.222,163 27.542,201.224 27.542,245.371 L27.542,281.412 C23.142,280.74 18.878,279.269 15.001,277.031 C10.216,274.269 4.103,275.909 1.341,280.692 C-1.421,285.475 0.22,291.591 5.001,294.352 C13.485,299.249 23.146,301.838 32.94,301.838 C34.78,301.838 36.606,301.743 38.417,301.564 C38.526,301.555 38.636,301.543 38.745,301.529 C51.643,300.172 63.643,294.344 72.673,285.233 C83.044,295.699 97.337,301.84 112.407,301.84 C127.475,301.84 141.768,295.699 152.139,285.235 C162.51,295.7 176.803,301.84 191.873,301.84 C206.943,301.84 221.234,295.699 231.605,285.236 C241.978,295.701 256.269,301.84 271.341,301.84 C286.407,301.84 300.698,295.701 311.07,285.238 C321.441,295.702 335.734,301.842 350.804,301.842 C365.874,301.842 380.165,295.703 390.536,285.238 C400.907,295.703 415.2,301.843 430.27,301.843 C448.133,301.843 465.053,293.204 475.534,278.735 C478.772,274.262 477.772,268.01 473.3,264.771 C468.829,261.533 462.575,262.531 459.335,267.005 C452.606,276.297 441.741,281.844 430.271,281.844 C429.197,281.844 428.13,281.778 427.07,281.682 C435.027,274.065 441.574,264.424 446.629,252.848 C454.024,235.909 458.197,214.721 459.065,189.755 L463.862,189.755 C490.407,189.755 512.001,163.249 512.001,130.668 C512.001,125.144 507.525,120.667 502.001,120.667 Z M463.863,169.754 L449.236,169.754 C443.713,169.754 439.236,174.231 439.236,179.754 C439.236,226.087 427.918,258.064 406.429,272.747 C403.599,270.234 401.142,267.265 399.2,263.902 C397.413,260.808 394.112,258.902 390.54,258.902 C386.968,258.902 383.665,260.808 381.88,263.902 C375.491,274.967 363.585,281.841 350.806,281.841 C338.027,281.841 326.12,274.967 319.732,263.902 C317.947,260.808 314.646,258.902 311.072,258.902 C307.5,258.902 304.199,260.808 302.412,263.901 C296.023,274.966 284.119,281.839 271.344,281.839 C258.565,281.839 246.656,274.965 240.268,263.899 C238.481,260.805 235.18,258.9 231.606,258.9 C228.034,258.9 224.733,260.806 222.948,263.9 C216.559,274.965 204.653,281.839 191.876,281.839 C179.097,281.839 167.19,274.965 160.804,263.898 C159.017,260.804 155.716,258.897 152.142,258.897 C148.57,258.897 145.269,260.803 143.482,263.897 C137.093,274.964 125.187,281.838 112.41,281.838 C99.633,281.838 87.726,274.963 81.336,263.896 C79.549,260.803 76.248,258.897 72.676,258.897 C69.104,258.897 65.801,260.803 64.016,263.897 C60.18,270.539 54.35,275.654 47.545,278.696 L47.545,245.371 C47.545,206.503 59.188,173.26 80.326,151.763 C120.181,111.227 189.328,130.584 209.57,137.482 C248.687,150.816 271.025,175.238 290.734,196.786 C310.543,218.444 329.254,238.902 359.394,238.902 C375.574,238.902 418.552,238.902 418.552,179.755 C418.552,174.232 414.074,169.755 408.552,169.755 L393.927,169.755 C381.152,169.755 370.036,157.197 366.763,140.668 L399.546,140.668 C407.429,140.668 415.062,145.498 420.491,153.919 C422.333,156.775 425.497,158.5 428.895,158.5 C432.293,158.5 435.459,156.774 437.301,153.919 C442.729,145.498 450.364,140.668 458.244,140.668 L491.027,140.668 C487.753,157.196 476.638,169.754 463.863,169.754 Z" id="Shape"></path>
            <path d="M193.402,221.188 C187.892,221.188 183.4,225.68 183.4,231.19 C183.4,236.697 187.892,241.189 193.402,241.189 C198.91,241.189 203.402,236.697 203.402,231.19 C203.402,225.681 198.91,221.188 193.402,221.188 Z" id="Path"></path>
            <path d="M244.115,29.491 C245.84,29.491 247.588,29.044 249.178,28.108 C253.887,25.479 255.674,19.561 253.16,14.75 C250.601,9.855 244.562,7.958 239.666,10.517 C239.389,10.662 239.117,10.817 238.853,10.98 C234.152,13.881 232.695,20.042 235.595,24.742 C237.486,27.805 240.761,29.491 244.115,29.491 Z" id="Path"></path>
            <path d="M476.152,235.963 C470.631,235.963 466.152,240.44 466.152,245.963 L466.152,246.103 C466.152,251.626 470.631,256.103 476.152,256.103 C481.675,256.103 486.152,251.626 486.152,246.103 L486.152,245.963 C486.152,240.44 481.675,235.963 476.152,235.963 Z" id="Path"></path>
            <path d="M200.39,333.904 C203.152,329.121 201.513,323.005 196.732,320.243 C191.947,317.479 185.832,319.12 183.07,323.902 C176.679,334.969 164.773,341.844 151.996,341.844 C139.219,341.844 127.312,334.969 120.924,323.903 C119.137,320.809 115.836,318.903 112.264,318.903 C108.692,318.903 105.389,320.809 103.604,323.902 C97.213,334.967 85.307,341.841 72.532,341.841 C59.753,341.841 47.846,334.966 41.458,323.901 C38.698,319.119 32.585,317.477 27.798,320.24 C23.017,323.001 21.376,329.117 24.138,333.9 C34.087,351.135 52.63,361.841 72.533,361.841 C87.601,361.841 101.892,355.701 112.263,345.237 C122.634,355.702 136.927,361.843 151.997,361.843 C171.894,361.845 190.437,351.139 200.39,333.904 Z" id="Path"></path>
            <path d="M436.288,320.244 C431.507,317.481 425.39,319.12 422.628,323.901 C416.235,334.969 404.327,341.844 391.552,341.844 C378.775,341.844 366.868,334.969 360.48,323.903 C358.693,320.809 355.392,318.903 351.82,318.903 C348.248,318.903 344.945,320.809 343.16,323.902 C336.769,334.967 324.863,341.841 312.086,341.841 C299.309,341.841 287.402,334.966 281.012,323.9 C278.252,319.118 272.135,317.479 267.352,320.24 C262.569,323.001 260.93,329.117 263.692,333.9 C273.643,351.134 292.186,361.841 312.087,361.841 C327.155,361.841 341.448,355.701 351.819,345.237 C362.192,355.704 376.483,361.843 391.553,361.843 C411.449,361.843 429.992,351.137 439.948,333.904 C442.708,329.123 441.072,323.006 436.288,320.244 Z" id="Path"></path>
            <path d="M317.882,379.433 C313.099,376.671 306.984,378.311 304.222,383.093 C297.833,394.158 285.927,401.032 273.15,401.032 C260.373,401.032 248.466,394.158 242.078,383.092 C240.291,379.998 236.988,378.092 233.416,378.093 C229.844,378.094 226.543,380 224.756,383.094 C218.371,394.158 206.465,401.032 193.686,401.032 C180.907,401.032 169,394.157 162.612,383.092 C159.852,378.31 153.737,376.669 148.954,379.431 C144.171,382.192 142.53,388.308 145.292,393.091 C155.241,410.326 173.784,421.032 193.687,421.032 C208.759,421.032 223.05,414.893 233.419,404.428 C243.792,414.892 258.083,421.032 273.151,421.032 C293.051,421.032 311.594,410.326 321.544,393.093 C324.304,388.31 322.665,382.194 317.882,379.433 Z" id="Path"></path>
        </g>
    </g>
</svg>