<?xml version="1.0" encoding="UTF-8"?>
<svg width="755px" height="545px" viewBox="0 0 755 545" version="1.1" xmlns="http://www.w3.org/2000/svg" xmlns:xlink="http://www.w3.org/1999/xlink">
    <!-- Generator: Sketch 53 (72520) - https://sketchapp.com -->
    <title>jeep</title>
    <desc>Created with Sketch.</desc>
    <g id="Page-1" stroke="none" stroke-width="1" fill="none" fill-rule="evenodd">
        <g id="jeep" fill="#404348" fill-rule="nonzero">
            <path d="M695.243243,250.405405 L636.96875,250.405405 L567.244193,97.0148328 C564.856367,91.7558597 559.614654,88.3783784 553.837838,88.3783784 L430.372784,88.3783784 L390.25153,8.14162832 C387.760135,3.15308277 382.662267,0 377.081081,0 L103.108108,0 C94.9722332,0 88.3783784,6.59385484 88.3783784,14.7297297 L88.3783784,162.027027 L58.9189189,162.027027 C26.4329596,162.027027 -2.84217094e-14,188.459987 -2.84217094e-14,220.945946 L-2.84217094e-14,309.324324 C-2.84217094e-14,341.810284 26.4329596,368.243243 58.9189189,368.243243 L88.3783784,368.243243 L88.3783784,427.162162 L58.9189189,427.162162 C50.783044,427.162162 44.1891892,433.756017 44.1891892,441.891892 C44.1891892,450.027767 50.783044,456.60436 58.9189189,456.60436 L141.74488,456.60436 C141.526235,459.043971 141.405405,461.500845 141.405405,463.969225 C141.405405,508.641733 177.74641,545 222.418919,545 C267.091427,545 303.432432,508.658995 303.432432,463.986486 C303.432432,461.512351 303.317356,459.061233 303.092958,456.621622 L340.256757,456.621622 C348.392632,456.621622 354.986486,450.027767 354.986486,441.891892 C354.986486,433.756017 348.392632,427.162162 340.256757,427.162162 L294.571579,427.162162 C280.889041,400.360959 253.098184,382.972973 222.418919,382.972973 C191.739654,382.972973 163.948797,400.360959 150.266258,427.162162 L117.837838,427.162162 C117.837838,413.105627 117.837838,131.203917 117.837838,117.837838 L544.355574,117.837838 L557.744669,147.297297 L244.513514,147.297297 C236.377639,147.297297 229.783784,153.891152 229.783784,162.027027 L229.783784,265.135135 C229.783784,273.27101 236.377639,279.864865 244.513514,279.864865 L695.243243,279.864865 C711.486223,279.864865 724.702703,293.081345 724.702703,309.324324 L724.702703,338.783784 L695.243243,338.783784 C687.107368,338.783784 680.513514,345.377639 680.513514,353.513514 C680.513514,361.649388 687.107368,368.243243 695.243243,368.243243 L724.702703,368.243243 L724.702703,427.162162 L648.085093,427.162162 C634.402554,400.360959 606.611698,382.972973 575.932432,382.972973 C545.253167,382.972973 517.462311,400.360959 503.779772,427.162162 L472.824324,427.162162 C464.688449,427.162162 458.094595,433.756017 458.094595,441.891892 C458.094595,450.027767 464.688449,456.60436 472.824324,456.60436 L495.258394,456.60436 C495.039748,459.043971 494.918919,461.500845 494.918919,463.969225 C494.918919,508.641733 531.259924,545 575.932432,545 C620.604941,545 656.945946,508.658995 656.945946,463.986486 C656.945946,461.512351 656.83087,459.061233 656.606471,456.621622 L739.432432,456.621622 C747.568307,456.621622 754.162162,450.027767 754.162162,441.891892 L754.162162,309.324324 C754.162162,276.838365 727.729203,250.405405 695.243243,250.405405 L695.243243,250.405405 Z M222.418919,412.432432 C244.237331,412.432432 263.771485,426.241554 271.044289,446.834407 C272.983319,452.294764 273.972973,458.065826 273.972973,463.986486 C273.972973,492.416015 250.848448,515.540541 222.418919,515.540541 C193.98939,515.540541 170.864865,492.416015 170.864865,463.986486 C170.864865,458.065826 171.854519,452.294764 173.793549,446.834407 C173.799304,446.817145 173.805057,446.805638 173.810811,446.79413 C181.066353,426.241554 200.600507,412.432432 222.418919,412.432432 L222.418919,412.432432 Z M397.438027,88.3783784 L303.432432,88.3783784 L303.432432,29.4594595 L367.978568,29.4594595 L397.438027,88.3783784 Z M273.972973,88.3783784 L215.054054,88.3783784 L215.054054,29.4594595 L273.972973,29.4594595 L273.972973,88.3783784 Z M185.594595,29.4594595 L185.594595,88.3783784 L117.837838,88.3783784 L117.837838,29.4594595 L185.594595,29.4594595 Z M58.9189189,338.783784 C42.6759392,338.783784 29.4594595,325.567304 29.4594595,309.324324 L29.4594595,220.945946 C29.4594595,204.702966 42.6759392,191.486486 58.9189189,191.486486 L88.3783784,191.486486 L88.3783784,338.783784 L58.9189189,338.783784 Z M604.609375,250.405405 L436,250.405405 L436,176.756757 L571.133763,176.756757 L604.609375,250.405405 Z M259.243243,176.756757 L406.540541,176.756757 L406.540541,250.405405 L259.243243,250.405405 L259.243243,176.756757 Z M575.932432,515.540541 C547.502904,515.540541 524.378378,492.416015 524.378378,463.986486 C524.378378,435.493666 547.531672,412.432432 575.932432,412.432432 C604.310177,412.432432 627.486486,435.464897 627.486486,463.986486 C627.486486,492.416015 604.361961,515.540541 575.932432,515.540541 Z" id="Shape"></path>
            <path d="M480.189189,353.513514 C480.189189,345.377639 473.595334,338.783784 465.459459,338.783784 L377.081081,338.783784 C368.945206,338.783784 362.351351,345.377639 362.351351,353.513514 C362.351351,361.649388 368.945206,368.243243 377.081081,368.243243 L465.459459,368.243243 C473.595334,368.243243 480.189189,361.649388 480.189189,353.513514 Z" id="Path"></path>
            <path d="M224.185336,486.081081 C236.371885,486.081081 246.279931,476.167282 246.279931,463.986486 C246.279931,451.805691 236.371885,441.891892 224.185336,441.891892 C212.00454,441.891892 202.090742,451.805691 202.090742,463.986486 C202.090742,476.167282 212.00454,486.081081 224.185336,486.081081 Z" id="Path"></path>
            <path d="M577.69885,441.891892 C565.518054,441.891892 555.604255,451.805691 555.604255,463.986486 C555.604255,476.167282 565.518054,486.081081 577.69885,486.081081 C589.885399,486.081081 599.793444,476.167282 599.793444,463.986486 C599.793444,451.805691 589.885399,441.891892 577.69885,441.891892 Z" id="Path"></path>
            <path d="M421.27027,441.891892 C421.27027,450.027767 414.676415,456.621622 406.540541,456.621622 C398.404666,456.621622 391.810811,450.027767 391.810811,441.891892 C391.810811,433.756017 398.404666,427.162162 406.540541,427.162162 C414.676415,427.162162 421.27027,433.756017 421.27027,441.891892 Z" id="Path"></path>
        </g>
    </g>
</svg>