<?xml version="1.0" encoding="UTF-8"?>
<svg width="512px" height="512px" viewBox="0 0 512 512" version="1.1" xmlns="http://www.w3.org/2000/svg" xmlns:xlink="http://www.w3.org/1999/xlink">
    <!-- Generator: Sketch 53 (72520) - https://sketchapp.com -->
    <title>snowboard</title>
    <desc>Created with Sketch.</desc>
    <g id="Page-1" stroke="none" stroke-width="1" fill="none" fill-rule="evenodd">
        <g id="snowboard" fill="#404348" fill-rule="nonzero">
            <path d="M426.832031,240.671875 C422.667969,240.671875 418.808594,237.964844 417.417969,234.039062 C416.039062,230.15625 417.210938,225.714844 420.363281,223.046875 C423.648438,220.269531 428.453125,219.925781 432.109375,222.183594 C435.601562,224.34375 437.441406,228.59375 436.632812,232.621094 C435.703125,237.234375 431.550781,240.671875 426.832031,240.671875 L426.832031,240.671875 Z" id="Path"></path>
            <path d="M254.058594,235.609375 C251.5,235.609375 248.9375,234.628906 246.984375,232.675781 L241.894531,227.578125 C237.992188,223.671875 237.996094,217.339844 241.902344,213.433594 C245.8125,209.53125 252.140625,209.535156 256.046875,213.445312 L261.136719,218.539062 C265.039062,222.449219 265.035156,228.78125 261.125,232.683594 C259.175781,234.632812 256.617188,235.609375 254.058594,235.609375 Z" id="Path"></path>
            <path d="M291.140625,272.734375 C288.578125,272.734375 286.019531,271.757812 284.066406,269.804688 L278.972656,264.707031 C275.070312,260.796875 275.074219,254.464844 278.984375,250.5625 C282.890625,246.660156 289.222656,246.664062 293.125,250.570312 L298.214844,255.667969 C302.121094,259.578125 302.117188,265.910156 298.207031,269.8125 C296.253906,271.761719 293.695312,272.734375 291.140625,272.734375 L291.140625,272.734375 Z" id="Path"></path>
            <path d="M225.339844,264.367188 C222.777344,264.367188 220.214844,263.390625 218.261719,261.433594 L213.171875,256.335938 C209.269531,252.429688 209.273438,246.097656 213.179688,242.195312 C217.089844,238.289062 223.417969,238.296875 227.320312,242.203125 L232.414062,247.300781 C236.316406,251.207031 236.3125,257.539062 232.40625,261.441406 C230.453125,263.390625 227.894531,264.367188 225.339844,264.367188 L225.339844,264.367188 Z" id="Path"></path>
            <path d="M262.417969,301.492188 C259.859375,301.492188 257.296875,300.515625 255.34375,298.558594 L250.253906,293.464844 C246.347656,289.554688 246.355469,283.222656 250.261719,279.320312 C254.171875,275.417969 260.5,275.421875 264.402344,279.328125 L269.496094,284.425781 C273.398438,288.335938 273.394531,294.664062 269.484375,298.566406 C267.535156,300.519531 264.976562,301.492188 262.417969,301.492188 L262.417969,301.492188 Z" id="Path"></path>
            <path d="M511.382812,114.007812 C511.382812,83.558594 499.539062,54.929688 478.03125,33.394531 C456.523438,11.859375 427.925781,0 397.503906,0 C367.082031,0 338.484375,11.859375 316.976562,33.394531 L33.351562,317.378906 C18.132812,332.617188 7.585938,351.714844 2.851562,372.609375 L2.851562,372.613281 C2.851562,372.617188 2.851562,372.621094 2.847656,372.625 L2.847656,372.628906 C-1.644531,392.375 -0.808594,413.011719 5.265625,432.3125 C5.269531,432.316406 5.269531,432.324219 5.273438,432.332031 C10.714844,449.660156 20.425781,465.660156 33.351562,478.601562 C54.859375,500.140625 83.460938,512 113.878906,512 C144.296875,512 172.894531,500.140625 194.40625,478.601562 L402.671875,269.007812 C406.558594,265.082031 406.523438,258.75 402.597656,254.867188 C398.671875,250.980469 392.339844,251.015625 388.457031,254.941406 L279.734375,364.835938 L248.765625,364.835938 C259.902344,348.339844 258.1875,325.671875 243.613281,311.078125 L200.707031,268.117188 L200.703125,268.113281 C192.695312,260.097656 182.046875,255.679688 170.722656,255.679688 C159.394531,255.679688 148.746094,260.097656 140.738281,268.113281 C124.214844,284.660156 124.214844,311.578125 140.738281,328.121094 L177.402344,364.835938 L26.011719,364.835938 C30.6875,352.398438 37.984375,341.039062 47.5,331.511719 L176.480469,202.371094 L269.21875,202.371094 L310.683594,243.886719 C318.691406,251.90625 329.339844,256.320312 340.664062,256.320312 L340.667969,256.320312 C351.992188,256.320312 362.640625,251.90625 370.648438,243.886719 C381.859375,232.664062 385.460938,216.664062 381.460938,202.371094 L466.140625,202.371094 C468.792969,202.371094 471.339844,201.316406 473.214844,199.4375 L478.03125,194.617188 C493.035156,179.59375 503.519531,160.769531 508.351562,140.179688 C508.351562,140.175781 508.351562,140.171875 508.351562,140.167969 C510.363281,131.640625 511.382812,122.839844 511.382812,114.007812 Z M154.890625,282.25 C159.121094,278.015625 164.742188,275.683594 170.722656,275.683594 C176.703125,275.683594 182.324219,278.015625 186.554688,282.25 L187.867188,283.5625 L173.867188,297.582031 L156.183594,315.285156 L154.890625,313.992188 C146.148438,305.238281 146.148438,291 154.890625,282.25 L154.890625,282.25 Z M184.316406,315.417969 L202,297.714844 L229.460938,325.210938 C238.203125,333.960938 238.203125,348.199219 229.464844,356.953125 C225.234375,361.1875 219.609375,363.519531 213.628906,363.519531 C207.648438,363.519531 202.027344,361.1875 197.796875,356.953125 L170.316406,329.4375 L184.316406,315.417969 Z M180.253906,464.46875 C162.523438,482.222656 138.949219,492 113.878906,492 C88.804688,492 65.234375,482.222656 47.5,464.46875 C40.046875,457.003906 34.027344,448.585938 29.519531,439.332031 L205.355469,439.332031 L180.253906,464.46875 Z M225.335938,419.328125 L22.4375,419.328125 C19.816406,408.03125 19.300781,396.324219 20.921875,384.835938 L259.785156,384.835938 L225.335938,419.328125 Z M331.128906,47.527344 C348.855469,29.777344 372.429688,20 397.503906,20 C422.578125,20 446.148438,29.777344 463.878906,47.53125 C481.617188,65.289062 491.382812,88.898438 491.382812,114.007812 C491.382812,118.660156 491.042969,123.300781 490.363281,127.875 L401.527344,127.875 L250.886719,127.871094 L331.128906,47.527344 Z M281.925781,155.054688 C286.15625,150.816406 291.777344,148.484375 297.757812,148.484375 C303.738281,148.484375 309.359375,150.816406 313.59375,155.050781 L314.902344,156.367188 L283.21875,188.089844 L281.925781,186.792969 C273.1875,178.042969 273.1875,163.804688 281.925781,155.054688 L281.925781,155.054688 Z M230.910156,147.875 L262.160156,147.875 C255.476562,158.210938 253.738281,170.84375 256.945312,182.371094 L196.453125,182.371094 L230.910156,147.875 Z M356.5,229.753906 C352.269531,233.988281 346.644531,236.324219 340.664062,236.320312 C334.683594,236.320312 329.0625,233.988281 324.832031,229.753906 L297.351562,202.238281 L329.039062,170.515625 L356.5,198.015625 C365.238281,206.765625 365.238281,221.003906 356.5,229.753906 L356.5,229.753906 Z M463.878906,180.484375 L461.996094,182.371094 L369.140625,182.371094 L336.109375,149.300781 L334.6875,147.871094 L406.886719,147.871094 L485.097656,147.875 C480.40625,160.042969 473.203125,171.148438 463.878906,180.484375 L463.878906,180.484375 Z" id="Shape"></path>
        </g>
    </g>
</svg>