<?xml version="1.0" encoding="UTF-8"?>
<svg width="512px" height="432px" viewBox="0 0 512 432" version="1.1" xmlns="http://www.w3.org/2000/svg" xmlns:xlink="http://www.w3.org/1999/xlink">
    <!-- Generator: Sketch 53 (72520) - https://sketchapp.com -->
    <title>salt</title>
    <desc>Created with Sketch.</desc>
    <g id="Page-1" stroke="none" stroke-width="1" fill="none" fill-rule="evenodd">
        <g id="salt" fill="#404348" fill-rule="nonzero">
            <path d="M502,412 L487.396,412 L297.789,123.395 C288.514,109.277 272.892,100.849 256,100.849 C239.108,100.849 223.487,109.277 214.211,123.395 L24.604,412 L10,412 C4.477,412 0,416.477 0,422 C0,427.523 4.477,432 10,432 L30.113,432 L30.124,432 L211,432 C216.523,432 221,427.523 221,422 C221,416.477 216.523,412 211,412 L48.535,412 L230.926,134.376 C236.574,125.779 245.713,120.849 255.999,120.849 C266.286,120.849 275.424,125.78 281.073,134.376 L463.465,412 L301,412 C295.477,412 291,416.477 291,422 C291,427.523 295.477,432 301,432 L481.993,432 C481.998,432 482.004,432.001 482.009,432.001 C482.014,432.001 482.018,432 482.023,432 L502,432 C507.523,432 512,427.523 512,422 C512,416.477 507.523,412 502,412 Z" id="XMLID_1143_"></path>
            <path d="M258.29,166.33 C255.66,166.33 253.08,167.4 251.22,169.26 C249.36,171.12 248.29,173.7 248.29,176.33 C248.29,178.97 249.36,181.54 251.22,183.4 C253.08,185.27 255.66,186.33 258.29,186.33 C260.92,186.33 263.5,185.27 265.36,183.4 C267.23,181.54 268.29,178.96 268.29,176.33 C268.29,173.7 267.23,171.13 265.36,169.26 C263.5,167.399 260.92,166.33 258.29,166.33 Z" id="XMLID_1182_"></path>
            <path d="M318.57,245.069 C320.43,243.209 321.5,240.629 321.5,237.999 C321.5,235.369 320.43,232.789 318.57,230.929 C316.71,229.069 314.13,227.999 311.5,227.999 C308.87,227.999 306.29,229.069 304.43,230.929 C302.57,232.789 301.5,235.369 301.5,237.999 C301.5,240.629 302.57,243.209 304.43,245.069 C306.29,246.929 308.87,247.999 311.5,247.999 C314.13,248 316.71,246.929 318.57,245.069 Z" id="XMLID_1236_"></path>
            <path d="M257.07,245.069 C258.93,243.209 260,240.629 260,237.999 C260,235.369 258.93,232.789 257.07,230.929 C255.21,229.069 252.63,227.999 250,227.999 C247.37,227.999 244.79,229.069 242.93,230.929 C241.07,232.789 240,235.369 240,237.999 C240,240.629 241.07,243.209 242.93,245.069 C244.79,246.929 247.37,247.999 250,247.999 C252.63,248 255.21,246.929 257.07,245.069 Z" id="XMLID_1364_"></path>
            <path d="M305,56 C307.63,56 310.21,54.93 312.07,53.07 C313.93,51.21 315,48.629 315,46 C315,43.37 313.93,40.79 312.07,38.93 C310.21,37.07 307.63,36 305,36 C302.37,36 299.79,37.07 297.93,38.93 C296.07,40.79 295,43.37 295,46 C295,48.63 296.07,51.21 297.93,53.07 C299.79,54.929 302.37,56 305,56 Z" id="XMLID_1544_"></path>
            <path d="M149,20 C151.63,20 154.21,18.93 156.07,17.07 C157.93,15.21 159,12.629 159,10 C159,7.37 157.93,4.79 156.07,2.93 C154.21,1.07 151.63,0 149,0 C146.37,0 143.79,1.07 141.93,2.93 C140.07,4.79 139,7.37 139,10 C139,12.63 140.07,15.21 141.93,17.07 C143.79,18.929 146.37,20 149,20 Z" id="XMLID_1558_"></path>
            <path d="M220,79 C222.63,79 225.21,77.93 227.07,76.07 C228.93,74.21 230,71.63 230,69 C230,66.37 228.93,63.79 227.07,61.93 C225.21,60.07 222.63,59 220,59 C217.37,59 214.79,60.07 212.93,61.93 C211.07,63.79 210,66.37 210,69 C210,71.63 211.07,74.21 212.93,76.07 C214.79,77.929 217.37,79 220,79 Z" id="XMLID_1574_"></path>
            <path d="M149,153 C151.63,153 154.21,151.93 156.07,150.07 C157.93,148.21 159,145.63 159,143 C159,140.37 157.93,137.79 156.07,135.93 C154.21,134.07 151.63,133 149,133 C146.37,133 143.79,134.07 141.93,135.93 C140.07,137.79 139,140.37 139,143 C139,145.63 140.07,148.21 141.93,150.07 C143.79,151.929 146.37,153 149,153 Z" id="XMLID_1575_"></path>
            <path d="M110.93,361.599 C109.07,363.459 108,366.029 108,368.669 C108,371.299 109.07,373.879 110.93,375.739 C112.79,377.599 115.37,378.669 118,378.669 C120.63,378.669 123.21,377.599 125.07,375.739 C126.93,373.879 128,371.299 128,368.669 C128,366.029 126.93,363.459 125.07,361.599 C123.21,359.729 120.63,358.669 118,358.669 C115.37,358.669 112.79,359.729 110.93,361.599 Z" id="XMLID_1576_"></path>
            <path d="M139.27,309.929 C137.41,311.789 136.35,314.369 136.35,316.999 C136.35,319.629 137.41,322.209 139.27,324.069 C141.13,325.929 143.71,326.999 146.35,326.999 C148.98,326.999 151.56,325.929 153.42,324.069 C155.28,322.209 156.34,319.629 156.34,316.999 C156.34,314.369 155.28,311.789 153.42,309.929 C151.56,308.069 148.98,306.999 146.35,306.999 C143.71,307 141.14,308.069 139.27,309.929 Z" id="XMLID_1577_"></path>
            <path d="M256,412 C253.37,412 250.79,413.07 248.93,414.93 C247.07,416.79 246,419.37 246,422 C246,424.63 247.07,427.21 248.93,429.07 C250.79,430.93 253.37,432 256,432 C258.63,432 261.21,430.93 263.07,429.07 C264.93,427.21 266,424.63 266,422 C266,419.37 264.93,416.79 263.07,414.93 C261.21,413.069 258.63,412 256,412 Z" id="XMLID_1578_"></path>
        </g>
    </g>
</svg>